%TF.GenerationSoftware,KiCad,Pcbnew,9.0.0*%
%TF.CreationDate,2025-06-07T14:34:51-06:00*%
%TF.ProjectId,Mau Keys,4d617520-4b65-4797-932e-6b696361645f,rev?*%
%TF.SameCoordinates,Original*%
%TF.FileFunction,Soldermask,Bot*%
%TF.FilePolarity,Negative*%
%FSLAX46Y46*%
G04 Gerber Fmt 4.6, Leading zero omitted, Abs format (unit mm)*
G04 Created by KiCad (PCBNEW 9.0.0) date 2025-06-07 14:34:51*
%MOMM*%
%LPD*%
G01*
G04 APERTURE LIST*
G04 Aperture macros list*
%AMHorizOval*
0 Thick line with rounded ends*
0 $1 width*
0 $2 $3 position (X,Y) of the first rounded end (center of the circle)*
0 $4 $5 position (X,Y) of the second rounded end (center of the circle)*
0 Add line between two ends*
20,1,$1,$2,$3,$4,$5,0*
0 Add two circle primitives to create the rounded ends*
1,1,$1,$2,$3*
1,1,$1,$4,$5*%
G04 Aperture macros list end*
%ADD10HorizOval,1.600000X0.298858X-0.026147X-0.298858X0.026147X0*%
%ADD11HorizOval,1.500000X0.348668X-0.030505X-0.348668X0.030505X0*%
%ADD12O,2.200000X1.600000*%
%ADD13O,2.200000X1.500000*%
%ADD14HorizOval,1.600000X0.295442X0.052094X-0.295442X-0.052094X0*%
%ADD15HorizOval,1.500000X0.344683X0.060777X-0.344683X-0.060777X0*%
%ADD16C,1.000000*%
%ADD17C,5.600000*%
%ADD18HorizOval,1.600000X0.298858X0.026147X-0.298858X-0.026147X0*%
%ADD19HorizOval,1.500000X0.348668X0.030505X-0.348668X-0.030505X0*%
%ADD20HorizOval,1.600000X0.293444X0.062374X-0.293444X-0.062374X0*%
%ADD21HorizOval,1.500000X0.342352X0.072769X-0.342352X-0.072769X0*%
%ADD22C,1.752600*%
%ADD23HorizOval,1.600000X0.283054X0.099401X-0.283054X-0.099401X0*%
%ADD24HorizOval,1.500000X0.330229X0.115968X-0.330229X-0.115968X0*%
%ADD25HorizOval,1.600000X0.283054X-0.099401X-0.283054X0.099401X0*%
%ADD26HorizOval,1.500000X0.330229X-0.115968X-0.330229X0.115968X0*%
%ADD27HorizOval,1.600000X0.293444X-0.062374X-0.293444X0.062374X0*%
%ADD28HorizOval,1.500000X0.342352X-0.072769X-0.342352X0.072769X0*%
%ADD29HorizOval,1.600000X0.295442X-0.052094X-0.295442X0.052094X0*%
%ADD30HorizOval,1.500000X0.344683X-0.060777X-0.344683X0.060777X0*%
G04 APERTURE END LIST*
D10*
%TO.C,SwitchR_14*%
X239514219Y-73210102D03*
D11*
X234350218Y-74866332D03*
%TD*%
D12*
%TO.C,Switch4*%
X100000000Y-31062349D03*
D13*
X95000000Y-33162349D03*
%TD*%
D12*
%TO.C,SwitchR_11*%
X179000000Y-74100000D03*
D13*
X174000000Y-76200000D03*
%TD*%
D14*
%TO.C,SwitchR_17*%
X189123396Y-94298719D03*
D15*
X184564018Y-97235056D03*
%TD*%
D12*
%TO.C,SwitchR_8*%
X219000000Y-41100000D03*
D13*
X214000000Y-43200000D03*
%TD*%
D16*
%TO.C,SW_POWER2*%
X157885000Y-40005000D03*
X160885000Y-40005000D03*
%TD*%
D12*
%TO.C,SwitchR_3*%
X219000000Y-21100000D03*
D13*
X214000000Y-23200000D03*
%TD*%
D17*
%TO.C,REF\u002A\u002A*%
X140500000Y-47500000D03*
%TD*%
D18*
%TO.C,Switch2*%
X55999551Y-33237012D03*
D19*
X51201605Y-35764800D03*
%TD*%
D20*
%TO.C,Switch6*%
X36615087Y-70628326D03*
D21*
X32160964Y-73721996D03*
%TD*%
D22*
%TO.C,NNV2*%
X132000000Y-39962349D03*
X132000000Y-42502349D03*
X132000000Y-45042349D03*
X132000000Y-47582349D03*
X132000000Y-50122349D03*
X132000000Y-52662349D03*
X132000000Y-55202349D03*
X132000000Y-57742349D03*
X132000000Y-60282349D03*
X132000000Y-62822349D03*
X132000000Y-65362349D03*
X132000000Y-67902349D03*
X132000000Y-70442349D03*
X147240000Y-39962349D03*
X147240000Y-42502349D03*
X147240000Y-45042349D03*
X147240000Y-47582349D03*
X147240000Y-50122349D03*
X147240000Y-52662349D03*
X147240000Y-55202349D03*
X147240000Y-57742349D03*
X147240000Y-60282349D03*
X147240000Y-62822349D03*
X147240000Y-65362349D03*
X147240000Y-67902349D03*
X147240000Y-70442349D03*
X134540000Y-62822349D03*
X137080000Y-62822349D03*
X139620000Y-62822349D03*
%TD*%
D16*
%TO.C,SW_POWER1*%
X138120000Y-39962349D03*
X141120000Y-39962349D03*
%TD*%
D10*
%TO.C,SwitchR_4*%
X243000449Y-33362314D03*
D11*
X237836448Y-35018544D03*
%TD*%
D18*
%TO.C,Switch12*%
X59485781Y-73084800D03*
D19*
X54687835Y-75612588D03*
%TD*%
D12*
%TO.C,Switch13*%
X80000000Y-61062349D03*
D13*
X75000000Y-63162349D03*
%TD*%
D23*
%TO.C,SwitchR_16*%
X167288802Y-100143634D03*
D24*
X163267051Y-103781699D03*
%TD*%
D12*
%TO.C,Switch8*%
X80000000Y-41062349D03*
D13*
X75000000Y-43162349D03*
%TD*%
D12*
%TO.C,Switch15*%
X120000000Y-74062349D03*
D13*
X115000000Y-76162349D03*
%TD*%
D12*
%TO.C,Switch5*%
X120000000Y-34062349D03*
D13*
X115000000Y-36162349D03*
%TD*%
D12*
%TO.C,SwitchR_2*%
X199000000Y-31100000D03*
D13*
X194000000Y-33200000D03*
%TD*%
D12*
%TO.C,SwitchR_6*%
X179000000Y-54100000D03*
D13*
X174000000Y-56200000D03*
%TD*%
D17*
%TO.C,REF\u002A\u002A*%
X80000000Y-78500000D03*
%TD*%
D25*
%TO.C,Switch17*%
X131711198Y-100105983D03*
D26*
X126297827Y-100430669D03*
%TD*%
D18*
%TO.C,Switch7*%
X57742666Y-53160906D03*
D19*
X52944720Y-55688694D03*
%TD*%
D12*
%TO.C,Switch14*%
X100000000Y-71062349D03*
D13*
X95000000Y-73162349D03*
%TD*%
D27*
%TO.C,SwitchR_5*%
X266543147Y-51190676D03*
D28*
X261215794Y-52205228D03*
%TD*%
D12*
%TO.C,Switch10*%
X120000000Y-54062349D03*
D13*
X115000000Y-56162349D03*
%TD*%
D12*
%TO.C,SwitchR_13*%
X219000000Y-61100000D03*
D13*
X214000000Y-63200000D03*
%TD*%
D22*
%TO.C,NNV2_R1*%
X151760000Y-40000000D03*
X151760000Y-42540000D03*
X151760000Y-45080000D03*
X151760000Y-47620000D03*
X151760000Y-50160000D03*
X151760000Y-52700000D03*
X151760000Y-55240000D03*
X151760000Y-57780000D03*
X151760000Y-60320000D03*
X151760000Y-62860000D03*
X151760000Y-65400000D03*
X151760000Y-67940000D03*
X151760000Y-70480000D03*
X167000000Y-40000000D03*
X167000000Y-42540000D03*
X167000000Y-45080000D03*
X167000000Y-47620000D03*
X167000000Y-50160000D03*
X167000000Y-52700000D03*
X167000000Y-55240000D03*
X167000000Y-57780000D03*
X167000000Y-60320000D03*
X167000000Y-62860000D03*
X167000000Y-65400000D03*
X167000000Y-67940000D03*
X167000000Y-70480000D03*
X154300000Y-62860000D03*
X156840000Y-62860000D03*
X159380000Y-62860000D03*
%TD*%
D27*
%TO.C,SwitchR_10*%
X262384913Y-70753628D03*
D28*
X257057560Y-71768180D03*
%TD*%
D27*
%TO.C,SwitchR_15*%
X258226679Y-90316580D03*
D28*
X252899326Y-91331132D03*
%TD*%
D12*
%TO.C,SwitchR_1*%
X179000000Y-34100000D03*
D13*
X174000000Y-36200000D03*
%TD*%
D10*
%TO.C,SwitchR_9*%
X241257334Y-53286208D03*
D11*
X236093333Y-54942438D03*
%TD*%
D12*
%TO.C,Switch3*%
X80000000Y-21062349D03*
D13*
X75000000Y-23162349D03*
%TD*%
D12*
%TO.C,SwitchR_7*%
X199000000Y-51100000D03*
D13*
X194000000Y-53200000D03*
%TD*%
D12*
%TO.C,Switch9*%
X100000000Y-51062349D03*
D13*
X95000000Y-53162349D03*
%TD*%
D12*
%TO.C,SwitchR_12*%
X199000000Y-71100000D03*
D13*
X194000000Y-73200000D03*
%TD*%
D20*
%TO.C,Switch1*%
X32456853Y-51065374D03*
D21*
X28002730Y-54159044D03*
%TD*%
D29*
%TO.C,Switch16*%
X109876604Y-94261068D03*
D30*
X104587904Y-95460924D03*
%TD*%
D20*
%TO.C,Switch11*%
X40773321Y-90191278D03*
D21*
X36319198Y-93284948D03*
%TD*%
M02*
