%TF.GenerationSoftware,KiCad,Pcbnew,9.0.0*%
%TF.CreationDate,2025-06-07T14:34:51-06:00*%
%TF.ProjectId,Mau Keys,4d617520-4b65-4797-932e-6b696361645f,rev?*%
%TF.SameCoordinates,Original*%
%TF.FileFunction,Soldermask,Top*%
%TF.FilePolarity,Negative*%
%FSLAX46Y46*%
G04 Gerber Fmt 4.6, Leading zero omitted, Abs format (unit mm)*
G04 Created by KiCad (PCBNEW 9.0.0) date 2025-06-07 14:34:51*
%MOMM*%
%LPD*%
G01*
G04 APERTURE LIST*
%ADD10R,1.700000X0.900000*%
%ADD11C,1.000000*%
%ADD12R,0.900000X0.900000*%
%ADD13R,0.900000X1.250000*%
%ADD14C,5.600000*%
%ADD15C,1.752600*%
G04 APERTURE END LIST*
D10*
%TO.C,RSW1*%
X145000000Y-76700000D03*
X145000000Y-73300000D03*
%TD*%
D11*
%TO.C,SW_POWER2*%
X157885000Y-40005000D03*
X160885000Y-40005000D03*
D12*
X155685000Y-38905000D03*
X155685000Y-41105000D03*
X163085000Y-38905000D03*
X163085000Y-41105000D03*
D13*
X161635000Y-42080000D03*
X158635000Y-42080000D03*
X157135000Y-42080000D03*
%TD*%
D14*
%TO.C,REF\u002A\u002A*%
X140500000Y-47500000D03*
%TD*%
D15*
%TO.C,NNV2*%
X132000000Y-39962349D03*
X132000000Y-42502349D03*
X132000000Y-45042349D03*
X132000000Y-47582349D03*
X132000000Y-50122349D03*
X132000000Y-52662349D03*
X132000000Y-55202349D03*
X132000000Y-57742349D03*
X132000000Y-60282349D03*
X132000000Y-62822349D03*
X132000000Y-65362349D03*
X132000000Y-67902349D03*
X132000000Y-70442349D03*
X147240000Y-39962349D03*
X147240000Y-42502349D03*
X147240000Y-45042349D03*
X147240000Y-47582349D03*
X147240000Y-50122349D03*
X147240000Y-52662349D03*
X147240000Y-55202349D03*
X147240000Y-57742349D03*
X147240000Y-60282349D03*
X147240000Y-62822349D03*
X147240000Y-65362349D03*
X147240000Y-67902349D03*
X147240000Y-70442349D03*
X134540000Y-62822349D03*
X137080000Y-62822349D03*
X139620000Y-62822349D03*
%TD*%
D11*
%TO.C,SW_POWER1*%
X138120000Y-39962349D03*
X141120000Y-39962349D03*
D12*
X135920000Y-38862349D03*
X135920000Y-41062349D03*
X143320000Y-38862349D03*
X143320000Y-41062349D03*
D13*
X141870000Y-42037349D03*
X138870000Y-42037349D03*
X137370000Y-42037349D03*
%TD*%
D14*
%TO.C,REF\u002A\u002A*%
X80000000Y-78500000D03*
%TD*%
D10*
%TO.C,RSW2*%
X154000000Y-76700000D03*
X154000000Y-73300000D03*
%TD*%
D15*
%TO.C,NNV2_R1*%
X151760000Y-40000000D03*
X151760000Y-42540000D03*
X151760000Y-45080000D03*
X151760000Y-47620000D03*
X151760000Y-50160000D03*
X151760000Y-52700000D03*
X151760000Y-55240000D03*
X151760000Y-57780000D03*
X151760000Y-60320000D03*
X151760000Y-62860000D03*
X151760000Y-65400000D03*
X151760000Y-67940000D03*
X151760000Y-70480000D03*
X167000000Y-40000000D03*
X167000000Y-42540000D03*
X167000000Y-45080000D03*
X167000000Y-47620000D03*
X167000000Y-50160000D03*
X167000000Y-52700000D03*
X167000000Y-55240000D03*
X167000000Y-57780000D03*
X167000000Y-60320000D03*
X167000000Y-62860000D03*
X167000000Y-65400000D03*
X167000000Y-67940000D03*
X167000000Y-70480000D03*
X154300000Y-62860000D03*
X156840000Y-62860000D03*
X159380000Y-62860000D03*
%TD*%
M02*
