M48
; DRILL file {KiCad 9.0.0} date 2025-06-07T14:39:23-0600
; FORMAT={-:-/ absolute / metric / decimal}
; #@! TF.CreationDate,2025-06-07T14:39:23-06:00
; #@! TF.GenerationSoftware,Kicad,Pcbnew,9.0.0
; #@! TF.FileFunction,Plated,1,2,PTH
FMAT,2
METRIC
; #@! TA.AperFunction,Plated,PTH,ViaDrill
T1C0.300
; #@! TA.AperFunction,Plated,PTH,ComponentDrill
T2C0.500
; #@! TA.AperFunction,Plated,PTH,ComponentDrill
T3C1.092
; #@! TA.AperFunction,Plated,PTH,ComponentDrill
T4C3.200
%
G90
G05
T1
X140.532Y-66.032
X143.33Y-68.83
X156.0Y-71.0
X163.0Y-64.0
T3
X132.0Y-39.962
X132.0Y-42.502
X132.0Y-45.042
X132.0Y-47.582
X132.0Y-50.122
X132.0Y-52.662
X132.0Y-55.202
X132.0Y-57.742
X132.0Y-60.282
X132.0Y-62.822
X132.0Y-65.362
X132.0Y-67.902
X132.0Y-70.442
X134.54Y-62.822
X137.08Y-62.822
X139.62Y-62.822
X147.24Y-39.962
X147.24Y-42.502
X147.24Y-45.042
X147.24Y-47.582
X147.24Y-50.122
X147.24Y-52.662
X147.24Y-55.202
X147.24Y-57.742
X147.24Y-60.282
X147.24Y-62.822
X147.24Y-65.362
X147.24Y-67.902
X147.24Y-70.442
X151.76Y-40.0
X151.76Y-42.54
X151.76Y-45.08
X151.76Y-47.62
X151.76Y-50.16
X151.76Y-52.7
X151.76Y-55.24
X151.76Y-57.78
X151.76Y-60.32
X151.76Y-62.86
X151.76Y-65.4
X151.76Y-67.94
X151.76Y-70.48
X154.3Y-62.86
X156.84Y-62.86
X159.38Y-62.86
X167.0Y-40.0
X167.0Y-42.54
X167.0Y-45.08
X167.0Y-47.62
X167.0Y-50.16
X167.0Y-52.7
X167.0Y-55.24
X167.0Y-57.78
X167.0Y-60.32
X167.0Y-62.86
X167.0Y-65.4
X167.0Y-67.94
X167.0Y-70.48
T4
X80.0Y-78.5
X140.5Y-47.5
T2
G00X27.758Y-54.211
M15
G01X28.247Y-54.107
M16
G05
G00X31.916Y-73.774
M15
G01X32.406Y-73.67
M16
G05
G00X32.212Y-51.117
M15
G01X32.701Y-51.013
M16
G05
G00X36.075Y-93.337
M15
G01X36.564Y-93.233
M16
G05
G00X36.371Y-70.68
M15
G01X36.86Y-70.576
M16
G05
G00X40.529Y-90.243
M15
G01X41.018Y-90.139
M16
G05
G00X50.953Y-35.787
M15
G01X51.451Y-35.743
M16
G05
G00X52.696Y-55.71
M15
G01X53.194Y-55.667
M16
G05
G00X54.439Y-75.634
M15
G01X54.937Y-75.591
M16
G05
G00X55.751Y-33.259
M15
G01X56.249Y-33.215
M16
G05
G00X57.494Y-53.183
M15
G01X57.992Y-53.139
M16
G05
G00X59.237Y-73.107
M15
G01X59.735Y-73.063
M16
G05
G00X74.75Y-23.162
M15
G01X75.25Y-23.162
M16
G05
G00X74.75Y-43.162
M15
G01X75.25Y-43.162
M16
G05
G00X74.75Y-63.162
M15
G01X75.25Y-63.162
M16
G05
G00X79.75Y-21.062
M15
G01X80.25Y-21.062
M16
G05
G00X79.75Y-41.062
M15
G01X80.25Y-41.062
M16
G05
G00X79.75Y-61.062
M15
G01X80.25Y-61.062
M16
G05
G00X94.75Y-33.162
M15
G01X95.25Y-33.162
M16
G05
G00X94.75Y-53.162
M15
G01X95.25Y-53.162
M16
G05
G00X94.75Y-73.162
M15
G01X95.25Y-73.162
M16
G05
G00X99.75Y-31.062
M15
G01X100.25Y-31.062
M16
G05
G00X99.75Y-51.062
M15
G01X100.25Y-51.062
M16
G05
G00X99.75Y-71.062
M15
G01X100.25Y-71.062
M16
G05
G00X104.342Y-95.418
M15
G01X104.834Y-95.504
M16
G05
G00X109.63Y-94.218
M15
G01X110.123Y-94.304
M16
G05
G00X114.75Y-36.162
M15
G01X115.25Y-36.162
M16
G05
G00X114.75Y-56.162
M15
G01X115.25Y-56.162
M16
G05
G00X114.75Y-76.162
M15
G01X115.25Y-76.162
M16
G05
G00X119.75Y-34.062
M15
G01X120.25Y-34.062
M16
G05
G00X119.75Y-54.062
M15
G01X120.25Y-54.062
M16
G05
G00X119.75Y-74.062
M15
G01X120.25Y-74.062
M16
G05
G00X126.062Y-100.348
M15
G01X126.534Y-100.514
M16
G05
G00X131.475Y-100.023
M15
G01X131.947Y-100.189
M16
G05
G00X163.031Y-103.865
M15
G01X163.503Y-103.699
M16
G05
G00X167.053Y-100.226
M15
G01X167.525Y-100.061
M16
G05
G00X173.75Y-36.2
M15
G01X174.25Y-36.2
M16
G05
G00X173.75Y-56.2
M15
G01X174.25Y-56.2
M16
G05
G00X173.75Y-76.2
M15
G01X174.25Y-76.2
M16
G05
G00X178.75Y-34.1
M15
G01X179.25Y-34.1
M16
G05
G00X178.75Y-54.1
M15
G01X179.25Y-54.1
M16
G05
G00X178.75Y-74.1
M15
G01X179.25Y-74.1
M16
G05
G00X184.318Y-97.278
M15
G01X184.81Y-97.192
M16
G05
G00X188.877Y-94.342
M15
G01X189.37Y-94.255
M16
G05
G00X193.75Y-33.2
M15
G01X194.25Y-33.2
M16
G05
G00X193.75Y-53.2
M15
G01X194.25Y-53.2
M16
G05
G00X193.75Y-73.2
M15
G01X194.25Y-73.2
M16
G05
G00X198.75Y-31.1
M15
G01X199.25Y-31.1
M16
G05
G00X198.75Y-51.1
M15
G01X199.25Y-51.1
M16
G05
G00X198.75Y-71.1
M15
G01X199.25Y-71.1
M16
G05
G00X213.75Y-23.2
M15
G01X214.25Y-23.2
M16
G05
G00X213.75Y-43.2
M15
G01X214.25Y-43.2
M16
G05
G00X213.75Y-63.2
M15
G01X214.25Y-63.2
M16
G05
G00X218.75Y-21.1
M15
G01X219.25Y-21.1
M16
G05
G00X218.75Y-41.1
M15
G01X219.25Y-41.1
M16
G05
G00X218.75Y-61.1
M15
G01X219.25Y-61.1
M16
G05
G00X234.101Y-74.845
M15
G01X234.599Y-74.888
M16
G05
G00X235.844Y-54.921
M15
G01X236.342Y-54.964
M16
G05
G00X237.587Y-34.997
M15
G01X238.085Y-35.04
M16
G05
G00X239.265Y-73.188
M15
G01X239.763Y-73.232
M16
G05
G00X241.008Y-53.264
M15
G01X241.506Y-53.308
M16
G05
G00X242.751Y-33.341
M15
G01X243.249Y-33.384
M16
G05
G00X252.655Y-91.279
M15
G01X253.144Y-91.383
M16
G05
G00X256.813Y-71.716
M15
G01X257.302Y-71.82
M16
G05
G00X257.982Y-90.265
M15
G01X258.471Y-90.369
M16
G05
G00X260.971Y-52.153
M15
G01X261.46Y-52.257
M16
G05
G00X262.14Y-70.702
M15
G01X262.629Y-70.806
M16
G05
G00X266.299Y-51.139
M15
G01X266.788Y-51.243
M16
G05
M30
