M48
; DRILL file {KiCad 9.0.0} date 2025-06-07T14:39:23-0600
; FORMAT={-:-/ absolute / metric / decimal}
; #@! TF.CreationDate,2025-06-07T14:39:23-06:00
; #@! TF.GenerationSoftware,Kicad,Pcbnew,9.0.0
; #@! TF.FileFunction,NonPlated,1,2,NPTH
FMAT,2
METRIC
; #@! TA.AperFunction,NonPlated,NPTH,ComponentDrill
T1C0.900
; #@! TA.AperFunction,NonPlated,NPTH,ComponentDrill
T2C1.800
; #@! TA.AperFunction,NonPlated,NPTH,ComponentDrill
T3C1.850
; #@! TA.AperFunction,NonPlated,NPTH,ComponentDrill
T4C4.900
%
G90
G05
T1
X138.12Y-39.962
X141.12Y-39.962
X157.885Y-40.005
X160.885Y-40.005
T2
X29.583Y-61.593
X33.741Y-81.156
X37.784Y-52.08
X37.899Y-100.719
X41.942Y-71.643
X46.101Y-91.206
X51.864Y-43.336
X53.607Y-63.26
X55.35Y-83.184
X61.164Y-34.893
X62.907Y-54.817
X64.65Y-74.741
X174.0Y-43.8
X174.0Y-63.8
X174.0Y-83.8
X184.0Y-36.2
X184.0Y-56.2
X184.0Y-76.2
X194.0Y-40.8
X194.0Y-60.8
X194.0Y-80.8
X204.0Y-33.2
X204.0Y-53.2
X204.0Y-73.2
X233.688Y-82.437
X235.431Y-62.514
X237.174Y-42.59
X244.312Y-75.738
X246.055Y-55.814
X247.798Y-35.89
X251.319Y-98.765
X255.477Y-79.202
X259.636Y-59.639
X262.681Y-93.41
X266.839Y-73.847
X270.997Y-54.284
T3
X75.2Y-30.762
X75.2Y-50.762
X75.2Y-70.762
X84.8Y-23.162
X84.8Y-43.162
X84.8Y-63.162
X95.2Y-40.762
X95.2Y-60.762
X95.2Y-80.762
X103.465Y-102.98
X104.8Y-33.162
X104.8Y-53.162
X104.8Y-73.162
X114.239Y-97.163
X115.2Y-43.762
X115.2Y-63.762
X115.2Y-83.762
X123.968Y-107.668
X124.8Y-36.162
X124.8Y-56.162
X124.8Y-76.162
X135.544Y-103.678
X165.974Y-110.886
X172.513Y-100.535
X186.081Y-104.685
X194.215Y-95.533
X214.2Y-30.8
X214.2Y-50.8
X214.2Y-70.8
X223.8Y-23.2
X223.8Y-43.2
X223.8Y-63.2
T4
X33.684Y-56.836
X37.842Y-76.399
X42.0Y-95.962
X56.514Y-39.115
X58.257Y-59.038
X60.0Y-78.962
X80.0Y-26.962
X80.0Y-46.962
X80.0Y-66.962
X100.0Y-36.962
X100.0Y-56.962
X100.0Y-76.962
X108.852Y-100.071
X120.0Y-39.962
X120.0Y-59.962
X120.0Y-79.962
X129.756Y-105.673
X169.244Y-105.71
X179.0Y-40.0
X179.0Y-60.0
X179.0Y-80.0
X190.148Y-100.109
X199.0Y-37.0
X199.0Y-57.0
X199.0Y-77.0
X219.0Y-27.0
X219.0Y-47.0
X219.0Y-67.0
X239.0Y-79.088
X240.743Y-59.164
X242.486Y-39.24
X257.0Y-96.088
X261.158Y-76.525
X265.316Y-56.962
M30
