%TF.GenerationSoftware,KiCad,Pcbnew,9.0.0*%
%TF.CreationDate,2025-06-07T14:39:27-06:00*%
%TF.ProjectId,Mau Keys,4d617520-4b65-4797-932e-6b696361645f,rev?*%
%TF.SameCoordinates,Original*%
%TF.FileFunction,Legend,Bot*%
%TF.FilePolarity,Positive*%
%FSLAX46Y46*%
G04 Gerber Fmt 4.6, Leading zero omitted, Abs format (unit mm)*
G04 Created by KiCad (PCBNEW 9.0.0) date 2025-06-07 14:39:27*
%MOMM*%
%LPD*%
G01*
G04 APERTURE LIST*
%ADD10C,0.150000*%
%ADD11C,0.300000*%
%ADD12C,1.752600*%
G04 APERTURE END LIST*
D10*
X134882809Y-52294644D02*
X134806619Y-52294644D01*
X134806619Y-52294644D02*
X134730428Y-52332739D01*
X134730428Y-52332739D02*
X134692333Y-52370834D01*
X134692333Y-52370834D02*
X134654238Y-52447025D01*
X134654238Y-52447025D02*
X134616143Y-52599406D01*
X134616143Y-52599406D02*
X134616143Y-52789882D01*
X134616143Y-52789882D02*
X134654238Y-52942263D01*
X134654238Y-52942263D02*
X134692333Y-53018453D01*
X134692333Y-53018453D02*
X134730428Y-53056549D01*
X134730428Y-53056549D02*
X134806619Y-53094644D01*
X134806619Y-53094644D02*
X134882809Y-53094644D01*
X134882809Y-53094644D02*
X134959000Y-53056549D01*
X134959000Y-53056549D02*
X134997095Y-53018453D01*
X134997095Y-53018453D02*
X135035190Y-52942263D01*
X135035190Y-52942263D02*
X135073286Y-52789882D01*
X135073286Y-52789882D02*
X135073286Y-52599406D01*
X135073286Y-52599406D02*
X135035190Y-52447025D01*
X135035190Y-52447025D02*
X134997095Y-52370834D01*
X134997095Y-52370834D02*
X134959000Y-52332739D01*
X134959000Y-52332739D02*
X134882809Y-52294644D01*
X134311381Y-52370834D02*
X134273285Y-52332739D01*
X134273285Y-52332739D02*
X134197095Y-52294644D01*
X134197095Y-52294644D02*
X134006619Y-52294644D01*
X134006619Y-52294644D02*
X133930428Y-52332739D01*
X133930428Y-52332739D02*
X133892333Y-52370834D01*
X133892333Y-52370834D02*
X133854238Y-52447025D01*
X133854238Y-52447025D02*
X133854238Y-52523215D01*
X133854238Y-52523215D02*
X133892333Y-52637501D01*
X133892333Y-52637501D02*
X134349476Y-53094644D01*
X134349476Y-53094644D02*
X133854238Y-53094644D01*
X133358999Y-52294644D02*
X133282809Y-52294644D01*
X133282809Y-52294644D02*
X133206618Y-52332739D01*
X133206618Y-52332739D02*
X133168523Y-52370834D01*
X133168523Y-52370834D02*
X133130428Y-52447025D01*
X133130428Y-52447025D02*
X133092333Y-52599406D01*
X133092333Y-52599406D02*
X133092333Y-52789882D01*
X133092333Y-52789882D02*
X133130428Y-52942263D01*
X133130428Y-52942263D02*
X133168523Y-53018453D01*
X133168523Y-53018453D02*
X133206618Y-53056549D01*
X133206618Y-53056549D02*
X133282809Y-53094644D01*
X133282809Y-53094644D02*
X133358999Y-53094644D01*
X133358999Y-53094644D02*
X133435190Y-53056549D01*
X133435190Y-53056549D02*
X133473285Y-53018453D01*
X133473285Y-53018453D02*
X133511380Y-52942263D01*
X133511380Y-52942263D02*
X133549476Y-52789882D01*
X133549476Y-52789882D02*
X133549476Y-52599406D01*
X133549476Y-52599406D02*
X133511380Y-52447025D01*
X133511380Y-52447025D02*
X133473285Y-52370834D01*
X133473285Y-52370834D02*
X133435190Y-52332739D01*
X133435190Y-52332739D02*
X133358999Y-52294644D01*
X134882809Y-57294644D02*
X134806619Y-57294644D01*
X134806619Y-57294644D02*
X134730428Y-57332739D01*
X134730428Y-57332739D02*
X134692333Y-57370834D01*
X134692333Y-57370834D02*
X134654238Y-57447025D01*
X134654238Y-57447025D02*
X134616143Y-57599406D01*
X134616143Y-57599406D02*
X134616143Y-57789882D01*
X134616143Y-57789882D02*
X134654238Y-57942263D01*
X134654238Y-57942263D02*
X134692333Y-58018453D01*
X134692333Y-58018453D02*
X134730428Y-58056549D01*
X134730428Y-58056549D02*
X134806619Y-58094644D01*
X134806619Y-58094644D02*
X134882809Y-58094644D01*
X134882809Y-58094644D02*
X134959000Y-58056549D01*
X134959000Y-58056549D02*
X134997095Y-58018453D01*
X134997095Y-58018453D02*
X135035190Y-57942263D01*
X135035190Y-57942263D02*
X135073286Y-57789882D01*
X135073286Y-57789882D02*
X135073286Y-57599406D01*
X135073286Y-57599406D02*
X135035190Y-57447025D01*
X135035190Y-57447025D02*
X134997095Y-57370834D01*
X134997095Y-57370834D02*
X134959000Y-57332739D01*
X134959000Y-57332739D02*
X134882809Y-57294644D01*
X134311381Y-57370834D02*
X134273285Y-57332739D01*
X134273285Y-57332739D02*
X134197095Y-57294644D01*
X134197095Y-57294644D02*
X134006619Y-57294644D01*
X134006619Y-57294644D02*
X133930428Y-57332739D01*
X133930428Y-57332739D02*
X133892333Y-57370834D01*
X133892333Y-57370834D02*
X133854238Y-57447025D01*
X133854238Y-57447025D02*
X133854238Y-57523215D01*
X133854238Y-57523215D02*
X133892333Y-57637501D01*
X133892333Y-57637501D02*
X134349476Y-58094644D01*
X134349476Y-58094644D02*
X133854238Y-58094644D01*
X133168523Y-57561310D02*
X133168523Y-58094644D01*
X133358999Y-57256549D02*
X133549476Y-57827977D01*
X133549476Y-57827977D02*
X133054237Y-57827977D01*
X134882809Y-39524644D02*
X134806619Y-39524644D01*
X134806619Y-39524644D02*
X134730428Y-39562739D01*
X134730428Y-39562739D02*
X134692333Y-39600834D01*
X134692333Y-39600834D02*
X134654238Y-39677025D01*
X134654238Y-39677025D02*
X134616143Y-39829406D01*
X134616143Y-39829406D02*
X134616143Y-40019882D01*
X134616143Y-40019882D02*
X134654238Y-40172263D01*
X134654238Y-40172263D02*
X134692333Y-40248453D01*
X134692333Y-40248453D02*
X134730428Y-40286549D01*
X134730428Y-40286549D02*
X134806619Y-40324644D01*
X134806619Y-40324644D02*
X134882809Y-40324644D01*
X134882809Y-40324644D02*
X134959000Y-40286549D01*
X134959000Y-40286549D02*
X134997095Y-40248453D01*
X134997095Y-40248453D02*
X135035190Y-40172263D01*
X135035190Y-40172263D02*
X135073286Y-40019882D01*
X135073286Y-40019882D02*
X135073286Y-39829406D01*
X135073286Y-39829406D02*
X135035190Y-39677025D01*
X135035190Y-39677025D02*
X134997095Y-39600834D01*
X134997095Y-39600834D02*
X134959000Y-39562739D01*
X134959000Y-39562739D02*
X134882809Y-39524644D01*
X134120904Y-39524644D02*
X134044714Y-39524644D01*
X134044714Y-39524644D02*
X133968523Y-39562739D01*
X133968523Y-39562739D02*
X133930428Y-39600834D01*
X133930428Y-39600834D02*
X133892333Y-39677025D01*
X133892333Y-39677025D02*
X133854238Y-39829406D01*
X133854238Y-39829406D02*
X133854238Y-40019882D01*
X133854238Y-40019882D02*
X133892333Y-40172263D01*
X133892333Y-40172263D02*
X133930428Y-40248453D01*
X133930428Y-40248453D02*
X133968523Y-40286549D01*
X133968523Y-40286549D02*
X134044714Y-40324644D01*
X134044714Y-40324644D02*
X134120904Y-40324644D01*
X134120904Y-40324644D02*
X134197095Y-40286549D01*
X134197095Y-40286549D02*
X134235190Y-40248453D01*
X134235190Y-40248453D02*
X134273285Y-40172263D01*
X134273285Y-40172263D02*
X134311381Y-40019882D01*
X134311381Y-40019882D02*
X134311381Y-39829406D01*
X134311381Y-39829406D02*
X134273285Y-39677025D01*
X134273285Y-39677025D02*
X134235190Y-39600834D01*
X134235190Y-39600834D02*
X134197095Y-39562739D01*
X134197095Y-39562739D02*
X134120904Y-39524644D01*
X133168523Y-39524644D02*
X133320904Y-39524644D01*
X133320904Y-39524644D02*
X133397095Y-39562739D01*
X133397095Y-39562739D02*
X133435190Y-39600834D01*
X133435190Y-39600834D02*
X133511380Y-39715120D01*
X133511380Y-39715120D02*
X133549476Y-39867501D01*
X133549476Y-39867501D02*
X133549476Y-40172263D01*
X133549476Y-40172263D02*
X133511380Y-40248453D01*
X133511380Y-40248453D02*
X133473285Y-40286549D01*
X133473285Y-40286549D02*
X133397095Y-40324644D01*
X133397095Y-40324644D02*
X133244714Y-40324644D01*
X133244714Y-40324644D02*
X133168523Y-40286549D01*
X133168523Y-40286549D02*
X133130428Y-40248453D01*
X133130428Y-40248453D02*
X133092333Y-40172263D01*
X133092333Y-40172263D02*
X133092333Y-39981787D01*
X133092333Y-39981787D02*
X133130428Y-39905596D01*
X133130428Y-39905596D02*
X133168523Y-39867501D01*
X133168523Y-39867501D02*
X133244714Y-39829406D01*
X133244714Y-39829406D02*
X133397095Y-39829406D01*
X133397095Y-39829406D02*
X133473285Y-39867501D01*
X133473285Y-39867501D02*
X133511380Y-39905596D01*
X133511380Y-39905596D02*
X133549476Y-39981787D01*
X134882809Y-54794644D02*
X134806619Y-54794644D01*
X134806619Y-54794644D02*
X134730428Y-54832739D01*
X134730428Y-54832739D02*
X134692333Y-54870834D01*
X134692333Y-54870834D02*
X134654238Y-54947025D01*
X134654238Y-54947025D02*
X134616143Y-55099406D01*
X134616143Y-55099406D02*
X134616143Y-55289882D01*
X134616143Y-55289882D02*
X134654238Y-55442263D01*
X134654238Y-55442263D02*
X134692333Y-55518453D01*
X134692333Y-55518453D02*
X134730428Y-55556549D01*
X134730428Y-55556549D02*
X134806619Y-55594644D01*
X134806619Y-55594644D02*
X134882809Y-55594644D01*
X134882809Y-55594644D02*
X134959000Y-55556549D01*
X134959000Y-55556549D02*
X134997095Y-55518453D01*
X134997095Y-55518453D02*
X135035190Y-55442263D01*
X135035190Y-55442263D02*
X135073286Y-55289882D01*
X135073286Y-55289882D02*
X135073286Y-55099406D01*
X135073286Y-55099406D02*
X135035190Y-54947025D01*
X135035190Y-54947025D02*
X134997095Y-54870834D01*
X134997095Y-54870834D02*
X134959000Y-54832739D01*
X134959000Y-54832739D02*
X134882809Y-54794644D01*
X134311381Y-54870834D02*
X134273285Y-54832739D01*
X134273285Y-54832739D02*
X134197095Y-54794644D01*
X134197095Y-54794644D02*
X134006619Y-54794644D01*
X134006619Y-54794644D02*
X133930428Y-54832739D01*
X133930428Y-54832739D02*
X133892333Y-54870834D01*
X133892333Y-54870834D02*
X133854238Y-54947025D01*
X133854238Y-54947025D02*
X133854238Y-55023215D01*
X133854238Y-55023215D02*
X133892333Y-55137501D01*
X133892333Y-55137501D02*
X134349476Y-55594644D01*
X134349476Y-55594644D02*
X133854238Y-55594644D01*
X133549476Y-54870834D02*
X133511380Y-54832739D01*
X133511380Y-54832739D02*
X133435190Y-54794644D01*
X133435190Y-54794644D02*
X133244714Y-54794644D01*
X133244714Y-54794644D02*
X133168523Y-54832739D01*
X133168523Y-54832739D02*
X133130428Y-54870834D01*
X133130428Y-54870834D02*
X133092333Y-54947025D01*
X133092333Y-54947025D02*
X133092333Y-55023215D01*
X133092333Y-55023215D02*
X133130428Y-55137501D01*
X133130428Y-55137501D02*
X133587571Y-55594644D01*
X133587571Y-55594644D02*
X133092333Y-55594644D01*
X134616143Y-60644644D02*
X135073286Y-60644644D01*
X134844714Y-60644644D02*
X134844714Y-59844644D01*
X134844714Y-59844644D02*
X134920905Y-59958929D01*
X134920905Y-59958929D02*
X134997095Y-60035120D01*
X134997095Y-60035120D02*
X135073286Y-60073215D01*
X134120904Y-59844644D02*
X134044714Y-59844644D01*
X134044714Y-59844644D02*
X133968523Y-59882739D01*
X133968523Y-59882739D02*
X133930428Y-59920834D01*
X133930428Y-59920834D02*
X133892333Y-59997025D01*
X133892333Y-59997025D02*
X133854238Y-60149406D01*
X133854238Y-60149406D02*
X133854238Y-60339882D01*
X133854238Y-60339882D02*
X133892333Y-60492263D01*
X133892333Y-60492263D02*
X133930428Y-60568453D01*
X133930428Y-60568453D02*
X133968523Y-60606549D01*
X133968523Y-60606549D02*
X134044714Y-60644644D01*
X134044714Y-60644644D02*
X134120904Y-60644644D01*
X134120904Y-60644644D02*
X134197095Y-60606549D01*
X134197095Y-60606549D02*
X134235190Y-60568453D01*
X134235190Y-60568453D02*
X134273285Y-60492263D01*
X134273285Y-60492263D02*
X134311381Y-60339882D01*
X134311381Y-60339882D02*
X134311381Y-60149406D01*
X134311381Y-60149406D02*
X134273285Y-59997025D01*
X134273285Y-59997025D02*
X134235190Y-59920834D01*
X134235190Y-59920834D02*
X134197095Y-59882739D01*
X134197095Y-59882739D02*
X134120904Y-59844644D01*
X133358999Y-59844644D02*
X133282809Y-59844644D01*
X133282809Y-59844644D02*
X133206618Y-59882739D01*
X133206618Y-59882739D02*
X133168523Y-59920834D01*
X133168523Y-59920834D02*
X133130428Y-59997025D01*
X133130428Y-59997025D02*
X133092333Y-60149406D01*
X133092333Y-60149406D02*
X133092333Y-60339882D01*
X133092333Y-60339882D02*
X133130428Y-60492263D01*
X133130428Y-60492263D02*
X133168523Y-60568453D01*
X133168523Y-60568453D02*
X133206618Y-60606549D01*
X133206618Y-60606549D02*
X133282809Y-60644644D01*
X133282809Y-60644644D02*
X133358999Y-60644644D01*
X133358999Y-60644644D02*
X133435190Y-60606549D01*
X133435190Y-60606549D02*
X133473285Y-60568453D01*
X133473285Y-60568453D02*
X133511380Y-60492263D01*
X133511380Y-60492263D02*
X133549476Y-60339882D01*
X133549476Y-60339882D02*
X133549476Y-60149406D01*
X133549476Y-60149406D02*
X133511380Y-59997025D01*
X133511380Y-59997025D02*
X133473285Y-59920834D01*
X133473285Y-59920834D02*
X133435190Y-59882739D01*
X133435190Y-59882739D02*
X133358999Y-59844644D01*
X134768523Y-47182739D02*
X134844713Y-47144644D01*
X134844713Y-47144644D02*
X134958999Y-47144644D01*
X134958999Y-47144644D02*
X135073285Y-47182739D01*
X135073285Y-47182739D02*
X135149475Y-47258929D01*
X135149475Y-47258929D02*
X135187570Y-47335120D01*
X135187570Y-47335120D02*
X135225666Y-47487501D01*
X135225666Y-47487501D02*
X135225666Y-47601787D01*
X135225666Y-47601787D02*
X135187570Y-47754168D01*
X135187570Y-47754168D02*
X135149475Y-47830358D01*
X135149475Y-47830358D02*
X135073285Y-47906549D01*
X135073285Y-47906549D02*
X134958999Y-47944644D01*
X134958999Y-47944644D02*
X134882808Y-47944644D01*
X134882808Y-47944644D02*
X134768523Y-47906549D01*
X134768523Y-47906549D02*
X134730427Y-47868453D01*
X134730427Y-47868453D02*
X134730427Y-47601787D01*
X134730427Y-47601787D02*
X134882808Y-47601787D01*
X134387570Y-47944644D02*
X134387570Y-47144644D01*
X134387570Y-47144644D02*
X133930427Y-47944644D01*
X133930427Y-47944644D02*
X133930427Y-47144644D01*
X133549475Y-47944644D02*
X133549475Y-47144644D01*
X133549475Y-47144644D02*
X133358999Y-47144644D01*
X133358999Y-47144644D02*
X133244713Y-47182739D01*
X133244713Y-47182739D02*
X133168523Y-47258929D01*
X133168523Y-47258929D02*
X133130428Y-47335120D01*
X133130428Y-47335120D02*
X133092332Y-47487501D01*
X133092332Y-47487501D02*
X133092332Y-47601787D01*
X133092332Y-47601787D02*
X133130428Y-47754168D01*
X133130428Y-47754168D02*
X133168523Y-47830358D01*
X133168523Y-47830358D02*
X133244713Y-47906549D01*
X133244713Y-47906549D02*
X133358999Y-47944644D01*
X133358999Y-47944644D02*
X133549475Y-47944644D01*
X134882809Y-41994644D02*
X134806619Y-41994644D01*
X134806619Y-41994644D02*
X134730428Y-42032739D01*
X134730428Y-42032739D02*
X134692333Y-42070834D01*
X134692333Y-42070834D02*
X134654238Y-42147025D01*
X134654238Y-42147025D02*
X134616143Y-42299406D01*
X134616143Y-42299406D02*
X134616143Y-42489882D01*
X134616143Y-42489882D02*
X134654238Y-42642263D01*
X134654238Y-42642263D02*
X134692333Y-42718453D01*
X134692333Y-42718453D02*
X134730428Y-42756549D01*
X134730428Y-42756549D02*
X134806619Y-42794644D01*
X134806619Y-42794644D02*
X134882809Y-42794644D01*
X134882809Y-42794644D02*
X134959000Y-42756549D01*
X134959000Y-42756549D02*
X134997095Y-42718453D01*
X134997095Y-42718453D02*
X135035190Y-42642263D01*
X135035190Y-42642263D02*
X135073286Y-42489882D01*
X135073286Y-42489882D02*
X135073286Y-42299406D01*
X135073286Y-42299406D02*
X135035190Y-42147025D01*
X135035190Y-42147025D02*
X134997095Y-42070834D01*
X134997095Y-42070834D02*
X134959000Y-42032739D01*
X134959000Y-42032739D02*
X134882809Y-41994644D01*
X134120904Y-41994644D02*
X134044714Y-41994644D01*
X134044714Y-41994644D02*
X133968523Y-42032739D01*
X133968523Y-42032739D02*
X133930428Y-42070834D01*
X133930428Y-42070834D02*
X133892333Y-42147025D01*
X133892333Y-42147025D02*
X133854238Y-42299406D01*
X133854238Y-42299406D02*
X133854238Y-42489882D01*
X133854238Y-42489882D02*
X133892333Y-42642263D01*
X133892333Y-42642263D02*
X133930428Y-42718453D01*
X133930428Y-42718453D02*
X133968523Y-42756549D01*
X133968523Y-42756549D02*
X134044714Y-42794644D01*
X134044714Y-42794644D02*
X134120904Y-42794644D01*
X134120904Y-42794644D02*
X134197095Y-42756549D01*
X134197095Y-42756549D02*
X134235190Y-42718453D01*
X134235190Y-42718453D02*
X134273285Y-42642263D01*
X134273285Y-42642263D02*
X134311381Y-42489882D01*
X134311381Y-42489882D02*
X134311381Y-42299406D01*
X134311381Y-42299406D02*
X134273285Y-42147025D01*
X134273285Y-42147025D02*
X134235190Y-42070834D01*
X134235190Y-42070834D02*
X134197095Y-42032739D01*
X134197095Y-42032739D02*
X134120904Y-41994644D01*
X133397095Y-42337501D02*
X133473285Y-42299406D01*
X133473285Y-42299406D02*
X133511380Y-42261310D01*
X133511380Y-42261310D02*
X133549476Y-42185120D01*
X133549476Y-42185120D02*
X133549476Y-42147025D01*
X133549476Y-42147025D02*
X133511380Y-42070834D01*
X133511380Y-42070834D02*
X133473285Y-42032739D01*
X133473285Y-42032739D02*
X133397095Y-41994644D01*
X133397095Y-41994644D02*
X133244714Y-41994644D01*
X133244714Y-41994644D02*
X133168523Y-42032739D01*
X133168523Y-42032739D02*
X133130428Y-42070834D01*
X133130428Y-42070834D02*
X133092333Y-42147025D01*
X133092333Y-42147025D02*
X133092333Y-42185120D01*
X133092333Y-42185120D02*
X133130428Y-42261310D01*
X133130428Y-42261310D02*
X133168523Y-42299406D01*
X133168523Y-42299406D02*
X133244714Y-42337501D01*
X133244714Y-42337501D02*
X133397095Y-42337501D01*
X133397095Y-42337501D02*
X133473285Y-42375596D01*
X133473285Y-42375596D02*
X133511380Y-42413691D01*
X133511380Y-42413691D02*
X133549476Y-42489882D01*
X133549476Y-42489882D02*
X133549476Y-42642263D01*
X133549476Y-42642263D02*
X133511380Y-42718453D01*
X133511380Y-42718453D02*
X133473285Y-42756549D01*
X133473285Y-42756549D02*
X133397095Y-42794644D01*
X133397095Y-42794644D02*
X133244714Y-42794644D01*
X133244714Y-42794644D02*
X133168523Y-42756549D01*
X133168523Y-42756549D02*
X133130428Y-42718453D01*
X133130428Y-42718453D02*
X133092333Y-42642263D01*
X133092333Y-42642263D02*
X133092333Y-42489882D01*
X133092333Y-42489882D02*
X133130428Y-42413691D01*
X133130428Y-42413691D02*
X133168523Y-42375596D01*
X133168523Y-42375596D02*
X133244714Y-42337501D01*
X134882809Y-49684644D02*
X134806619Y-49684644D01*
X134806619Y-49684644D02*
X134730428Y-49722739D01*
X134730428Y-49722739D02*
X134692333Y-49760834D01*
X134692333Y-49760834D02*
X134654238Y-49837025D01*
X134654238Y-49837025D02*
X134616143Y-49989406D01*
X134616143Y-49989406D02*
X134616143Y-50179882D01*
X134616143Y-50179882D02*
X134654238Y-50332263D01*
X134654238Y-50332263D02*
X134692333Y-50408453D01*
X134692333Y-50408453D02*
X134730428Y-50446549D01*
X134730428Y-50446549D02*
X134806619Y-50484644D01*
X134806619Y-50484644D02*
X134882809Y-50484644D01*
X134882809Y-50484644D02*
X134959000Y-50446549D01*
X134959000Y-50446549D02*
X134997095Y-50408453D01*
X134997095Y-50408453D02*
X135035190Y-50332263D01*
X135035190Y-50332263D02*
X135073286Y-50179882D01*
X135073286Y-50179882D02*
X135073286Y-49989406D01*
X135073286Y-49989406D02*
X135035190Y-49837025D01*
X135035190Y-49837025D02*
X134997095Y-49760834D01*
X134997095Y-49760834D02*
X134959000Y-49722739D01*
X134959000Y-49722739D02*
X134882809Y-49684644D01*
X133854238Y-50484644D02*
X134311381Y-50484644D01*
X134082809Y-50484644D02*
X134082809Y-49684644D01*
X134082809Y-49684644D02*
X134159000Y-49798929D01*
X134159000Y-49798929D02*
X134235190Y-49875120D01*
X134235190Y-49875120D02*
X134311381Y-49913215D01*
X133587571Y-49684644D02*
X133054237Y-49684644D01*
X133054237Y-49684644D02*
X133397095Y-50484644D01*
X134768523Y-44642739D02*
X134844713Y-44604644D01*
X134844713Y-44604644D02*
X134958999Y-44604644D01*
X134958999Y-44604644D02*
X135073285Y-44642739D01*
X135073285Y-44642739D02*
X135149475Y-44718929D01*
X135149475Y-44718929D02*
X135187570Y-44795120D01*
X135187570Y-44795120D02*
X135225666Y-44947501D01*
X135225666Y-44947501D02*
X135225666Y-45061787D01*
X135225666Y-45061787D02*
X135187570Y-45214168D01*
X135187570Y-45214168D02*
X135149475Y-45290358D01*
X135149475Y-45290358D02*
X135073285Y-45366549D01*
X135073285Y-45366549D02*
X134958999Y-45404644D01*
X134958999Y-45404644D02*
X134882808Y-45404644D01*
X134882808Y-45404644D02*
X134768523Y-45366549D01*
X134768523Y-45366549D02*
X134730427Y-45328453D01*
X134730427Y-45328453D02*
X134730427Y-45061787D01*
X134730427Y-45061787D02*
X134882808Y-45061787D01*
X134387570Y-45404644D02*
X134387570Y-44604644D01*
X134387570Y-44604644D02*
X133930427Y-45404644D01*
X133930427Y-45404644D02*
X133930427Y-44604644D01*
X133549475Y-45404644D02*
X133549475Y-44604644D01*
X133549475Y-44604644D02*
X133358999Y-44604644D01*
X133358999Y-44604644D02*
X133244713Y-44642739D01*
X133244713Y-44642739D02*
X133168523Y-44718929D01*
X133168523Y-44718929D02*
X133130428Y-44795120D01*
X133130428Y-44795120D02*
X133092332Y-44947501D01*
X133092332Y-44947501D02*
X133092332Y-45061787D01*
X133092332Y-45061787D02*
X133130428Y-45214168D01*
X133130428Y-45214168D02*
X133168523Y-45290358D01*
X133168523Y-45290358D02*
X133244713Y-45366549D01*
X133244713Y-45366549D02*
X133358999Y-45404644D01*
X133358999Y-45404644D02*
X133549475Y-45404644D01*
X134616143Y-65724644D02*
X135073286Y-65724644D01*
X134844714Y-65724644D02*
X134844714Y-64924644D01*
X134844714Y-64924644D02*
X134920905Y-65038929D01*
X134920905Y-65038929D02*
X134997095Y-65115120D01*
X134997095Y-65115120D02*
X135073286Y-65153215D01*
X134120904Y-64924644D02*
X134044714Y-64924644D01*
X134044714Y-64924644D02*
X133968523Y-64962739D01*
X133968523Y-64962739D02*
X133930428Y-65000834D01*
X133930428Y-65000834D02*
X133892333Y-65077025D01*
X133892333Y-65077025D02*
X133854238Y-65229406D01*
X133854238Y-65229406D02*
X133854238Y-65419882D01*
X133854238Y-65419882D02*
X133892333Y-65572263D01*
X133892333Y-65572263D02*
X133930428Y-65648453D01*
X133930428Y-65648453D02*
X133968523Y-65686549D01*
X133968523Y-65686549D02*
X134044714Y-65724644D01*
X134044714Y-65724644D02*
X134120904Y-65724644D01*
X134120904Y-65724644D02*
X134197095Y-65686549D01*
X134197095Y-65686549D02*
X134235190Y-65648453D01*
X134235190Y-65648453D02*
X134273285Y-65572263D01*
X134273285Y-65572263D02*
X134311381Y-65419882D01*
X134311381Y-65419882D02*
X134311381Y-65229406D01*
X134311381Y-65229406D02*
X134273285Y-65077025D01*
X134273285Y-65077025D02*
X134235190Y-65000834D01*
X134235190Y-65000834D02*
X134197095Y-64962739D01*
X134197095Y-64962739D02*
X134120904Y-64924644D01*
X133168523Y-65191310D02*
X133168523Y-65724644D01*
X133358999Y-64886549D02*
X133549476Y-65457977D01*
X133549476Y-65457977D02*
X133054237Y-65457977D01*
X154642809Y-54832295D02*
X154566619Y-54832295D01*
X154566619Y-54832295D02*
X154490428Y-54870390D01*
X154490428Y-54870390D02*
X154452333Y-54908485D01*
X154452333Y-54908485D02*
X154414238Y-54984676D01*
X154414238Y-54984676D02*
X154376143Y-55137057D01*
X154376143Y-55137057D02*
X154376143Y-55327533D01*
X154376143Y-55327533D02*
X154414238Y-55479914D01*
X154414238Y-55479914D02*
X154452333Y-55556104D01*
X154452333Y-55556104D02*
X154490428Y-55594200D01*
X154490428Y-55594200D02*
X154566619Y-55632295D01*
X154566619Y-55632295D02*
X154642809Y-55632295D01*
X154642809Y-55632295D02*
X154719000Y-55594200D01*
X154719000Y-55594200D02*
X154757095Y-55556104D01*
X154757095Y-55556104D02*
X154795190Y-55479914D01*
X154795190Y-55479914D02*
X154833286Y-55327533D01*
X154833286Y-55327533D02*
X154833286Y-55137057D01*
X154833286Y-55137057D02*
X154795190Y-54984676D01*
X154795190Y-54984676D02*
X154757095Y-54908485D01*
X154757095Y-54908485D02*
X154719000Y-54870390D01*
X154719000Y-54870390D02*
X154642809Y-54832295D01*
X154071381Y-54908485D02*
X154033285Y-54870390D01*
X154033285Y-54870390D02*
X153957095Y-54832295D01*
X153957095Y-54832295D02*
X153766619Y-54832295D01*
X153766619Y-54832295D02*
X153690428Y-54870390D01*
X153690428Y-54870390D02*
X153652333Y-54908485D01*
X153652333Y-54908485D02*
X153614238Y-54984676D01*
X153614238Y-54984676D02*
X153614238Y-55060866D01*
X153614238Y-55060866D02*
X153652333Y-55175152D01*
X153652333Y-55175152D02*
X154109476Y-55632295D01*
X154109476Y-55632295D02*
X153614238Y-55632295D01*
X153309476Y-54908485D02*
X153271380Y-54870390D01*
X153271380Y-54870390D02*
X153195190Y-54832295D01*
X153195190Y-54832295D02*
X153004714Y-54832295D01*
X153004714Y-54832295D02*
X152928523Y-54870390D01*
X152928523Y-54870390D02*
X152890428Y-54908485D01*
X152890428Y-54908485D02*
X152852333Y-54984676D01*
X152852333Y-54984676D02*
X152852333Y-55060866D01*
X152852333Y-55060866D02*
X152890428Y-55175152D01*
X152890428Y-55175152D02*
X153347571Y-55632295D01*
X153347571Y-55632295D02*
X152852333Y-55632295D01*
X154642809Y-39562295D02*
X154566619Y-39562295D01*
X154566619Y-39562295D02*
X154490428Y-39600390D01*
X154490428Y-39600390D02*
X154452333Y-39638485D01*
X154452333Y-39638485D02*
X154414238Y-39714676D01*
X154414238Y-39714676D02*
X154376143Y-39867057D01*
X154376143Y-39867057D02*
X154376143Y-40057533D01*
X154376143Y-40057533D02*
X154414238Y-40209914D01*
X154414238Y-40209914D02*
X154452333Y-40286104D01*
X154452333Y-40286104D02*
X154490428Y-40324200D01*
X154490428Y-40324200D02*
X154566619Y-40362295D01*
X154566619Y-40362295D02*
X154642809Y-40362295D01*
X154642809Y-40362295D02*
X154719000Y-40324200D01*
X154719000Y-40324200D02*
X154757095Y-40286104D01*
X154757095Y-40286104D02*
X154795190Y-40209914D01*
X154795190Y-40209914D02*
X154833286Y-40057533D01*
X154833286Y-40057533D02*
X154833286Y-39867057D01*
X154833286Y-39867057D02*
X154795190Y-39714676D01*
X154795190Y-39714676D02*
X154757095Y-39638485D01*
X154757095Y-39638485D02*
X154719000Y-39600390D01*
X154719000Y-39600390D02*
X154642809Y-39562295D01*
X153880904Y-39562295D02*
X153804714Y-39562295D01*
X153804714Y-39562295D02*
X153728523Y-39600390D01*
X153728523Y-39600390D02*
X153690428Y-39638485D01*
X153690428Y-39638485D02*
X153652333Y-39714676D01*
X153652333Y-39714676D02*
X153614238Y-39867057D01*
X153614238Y-39867057D02*
X153614238Y-40057533D01*
X153614238Y-40057533D02*
X153652333Y-40209914D01*
X153652333Y-40209914D02*
X153690428Y-40286104D01*
X153690428Y-40286104D02*
X153728523Y-40324200D01*
X153728523Y-40324200D02*
X153804714Y-40362295D01*
X153804714Y-40362295D02*
X153880904Y-40362295D01*
X153880904Y-40362295D02*
X153957095Y-40324200D01*
X153957095Y-40324200D02*
X153995190Y-40286104D01*
X153995190Y-40286104D02*
X154033285Y-40209914D01*
X154033285Y-40209914D02*
X154071381Y-40057533D01*
X154071381Y-40057533D02*
X154071381Y-39867057D01*
X154071381Y-39867057D02*
X154033285Y-39714676D01*
X154033285Y-39714676D02*
X153995190Y-39638485D01*
X153995190Y-39638485D02*
X153957095Y-39600390D01*
X153957095Y-39600390D02*
X153880904Y-39562295D01*
X152928523Y-39562295D02*
X153080904Y-39562295D01*
X153080904Y-39562295D02*
X153157095Y-39600390D01*
X153157095Y-39600390D02*
X153195190Y-39638485D01*
X153195190Y-39638485D02*
X153271380Y-39752771D01*
X153271380Y-39752771D02*
X153309476Y-39905152D01*
X153309476Y-39905152D02*
X153309476Y-40209914D01*
X153309476Y-40209914D02*
X153271380Y-40286104D01*
X153271380Y-40286104D02*
X153233285Y-40324200D01*
X153233285Y-40324200D02*
X153157095Y-40362295D01*
X153157095Y-40362295D02*
X153004714Y-40362295D01*
X153004714Y-40362295D02*
X152928523Y-40324200D01*
X152928523Y-40324200D02*
X152890428Y-40286104D01*
X152890428Y-40286104D02*
X152852333Y-40209914D01*
X152852333Y-40209914D02*
X152852333Y-40019438D01*
X152852333Y-40019438D02*
X152890428Y-39943247D01*
X152890428Y-39943247D02*
X152928523Y-39905152D01*
X152928523Y-39905152D02*
X153004714Y-39867057D01*
X153004714Y-39867057D02*
X153157095Y-39867057D01*
X153157095Y-39867057D02*
X153233285Y-39905152D01*
X153233285Y-39905152D02*
X153271380Y-39943247D01*
X153271380Y-39943247D02*
X153309476Y-40019438D01*
X154528523Y-44680390D02*
X154604713Y-44642295D01*
X154604713Y-44642295D02*
X154718999Y-44642295D01*
X154718999Y-44642295D02*
X154833285Y-44680390D01*
X154833285Y-44680390D02*
X154909475Y-44756580D01*
X154909475Y-44756580D02*
X154947570Y-44832771D01*
X154947570Y-44832771D02*
X154985666Y-44985152D01*
X154985666Y-44985152D02*
X154985666Y-45099438D01*
X154985666Y-45099438D02*
X154947570Y-45251819D01*
X154947570Y-45251819D02*
X154909475Y-45328009D01*
X154909475Y-45328009D02*
X154833285Y-45404200D01*
X154833285Y-45404200D02*
X154718999Y-45442295D01*
X154718999Y-45442295D02*
X154642808Y-45442295D01*
X154642808Y-45442295D02*
X154528523Y-45404200D01*
X154528523Y-45404200D02*
X154490427Y-45366104D01*
X154490427Y-45366104D02*
X154490427Y-45099438D01*
X154490427Y-45099438D02*
X154642808Y-45099438D01*
X154147570Y-45442295D02*
X154147570Y-44642295D01*
X154147570Y-44642295D02*
X153690427Y-45442295D01*
X153690427Y-45442295D02*
X153690427Y-44642295D01*
X153309475Y-45442295D02*
X153309475Y-44642295D01*
X153309475Y-44642295D02*
X153118999Y-44642295D01*
X153118999Y-44642295D02*
X153004713Y-44680390D01*
X153004713Y-44680390D02*
X152928523Y-44756580D01*
X152928523Y-44756580D02*
X152890428Y-44832771D01*
X152890428Y-44832771D02*
X152852332Y-44985152D01*
X152852332Y-44985152D02*
X152852332Y-45099438D01*
X152852332Y-45099438D02*
X152890428Y-45251819D01*
X152890428Y-45251819D02*
X152928523Y-45328009D01*
X152928523Y-45328009D02*
X153004713Y-45404200D01*
X153004713Y-45404200D02*
X153118999Y-45442295D01*
X153118999Y-45442295D02*
X153309475Y-45442295D01*
X154642809Y-57332295D02*
X154566619Y-57332295D01*
X154566619Y-57332295D02*
X154490428Y-57370390D01*
X154490428Y-57370390D02*
X154452333Y-57408485D01*
X154452333Y-57408485D02*
X154414238Y-57484676D01*
X154414238Y-57484676D02*
X154376143Y-57637057D01*
X154376143Y-57637057D02*
X154376143Y-57827533D01*
X154376143Y-57827533D02*
X154414238Y-57979914D01*
X154414238Y-57979914D02*
X154452333Y-58056104D01*
X154452333Y-58056104D02*
X154490428Y-58094200D01*
X154490428Y-58094200D02*
X154566619Y-58132295D01*
X154566619Y-58132295D02*
X154642809Y-58132295D01*
X154642809Y-58132295D02*
X154719000Y-58094200D01*
X154719000Y-58094200D02*
X154757095Y-58056104D01*
X154757095Y-58056104D02*
X154795190Y-57979914D01*
X154795190Y-57979914D02*
X154833286Y-57827533D01*
X154833286Y-57827533D02*
X154833286Y-57637057D01*
X154833286Y-57637057D02*
X154795190Y-57484676D01*
X154795190Y-57484676D02*
X154757095Y-57408485D01*
X154757095Y-57408485D02*
X154719000Y-57370390D01*
X154719000Y-57370390D02*
X154642809Y-57332295D01*
X154071381Y-57408485D02*
X154033285Y-57370390D01*
X154033285Y-57370390D02*
X153957095Y-57332295D01*
X153957095Y-57332295D02*
X153766619Y-57332295D01*
X153766619Y-57332295D02*
X153690428Y-57370390D01*
X153690428Y-57370390D02*
X153652333Y-57408485D01*
X153652333Y-57408485D02*
X153614238Y-57484676D01*
X153614238Y-57484676D02*
X153614238Y-57560866D01*
X153614238Y-57560866D02*
X153652333Y-57675152D01*
X153652333Y-57675152D02*
X154109476Y-58132295D01*
X154109476Y-58132295D02*
X153614238Y-58132295D01*
X152928523Y-57598961D02*
X152928523Y-58132295D01*
X153118999Y-57294200D02*
X153309476Y-57865628D01*
X153309476Y-57865628D02*
X152814237Y-57865628D01*
X154642809Y-49722295D02*
X154566619Y-49722295D01*
X154566619Y-49722295D02*
X154490428Y-49760390D01*
X154490428Y-49760390D02*
X154452333Y-49798485D01*
X154452333Y-49798485D02*
X154414238Y-49874676D01*
X154414238Y-49874676D02*
X154376143Y-50027057D01*
X154376143Y-50027057D02*
X154376143Y-50217533D01*
X154376143Y-50217533D02*
X154414238Y-50369914D01*
X154414238Y-50369914D02*
X154452333Y-50446104D01*
X154452333Y-50446104D02*
X154490428Y-50484200D01*
X154490428Y-50484200D02*
X154566619Y-50522295D01*
X154566619Y-50522295D02*
X154642809Y-50522295D01*
X154642809Y-50522295D02*
X154719000Y-50484200D01*
X154719000Y-50484200D02*
X154757095Y-50446104D01*
X154757095Y-50446104D02*
X154795190Y-50369914D01*
X154795190Y-50369914D02*
X154833286Y-50217533D01*
X154833286Y-50217533D02*
X154833286Y-50027057D01*
X154833286Y-50027057D02*
X154795190Y-49874676D01*
X154795190Y-49874676D02*
X154757095Y-49798485D01*
X154757095Y-49798485D02*
X154719000Y-49760390D01*
X154719000Y-49760390D02*
X154642809Y-49722295D01*
X153614238Y-50522295D02*
X154071381Y-50522295D01*
X153842809Y-50522295D02*
X153842809Y-49722295D01*
X153842809Y-49722295D02*
X153919000Y-49836580D01*
X153919000Y-49836580D02*
X153995190Y-49912771D01*
X153995190Y-49912771D02*
X154071381Y-49950866D01*
X153347571Y-49722295D02*
X152814237Y-49722295D01*
X152814237Y-49722295D02*
X153157095Y-50522295D01*
X154642809Y-52332295D02*
X154566619Y-52332295D01*
X154566619Y-52332295D02*
X154490428Y-52370390D01*
X154490428Y-52370390D02*
X154452333Y-52408485D01*
X154452333Y-52408485D02*
X154414238Y-52484676D01*
X154414238Y-52484676D02*
X154376143Y-52637057D01*
X154376143Y-52637057D02*
X154376143Y-52827533D01*
X154376143Y-52827533D02*
X154414238Y-52979914D01*
X154414238Y-52979914D02*
X154452333Y-53056104D01*
X154452333Y-53056104D02*
X154490428Y-53094200D01*
X154490428Y-53094200D02*
X154566619Y-53132295D01*
X154566619Y-53132295D02*
X154642809Y-53132295D01*
X154642809Y-53132295D02*
X154719000Y-53094200D01*
X154719000Y-53094200D02*
X154757095Y-53056104D01*
X154757095Y-53056104D02*
X154795190Y-52979914D01*
X154795190Y-52979914D02*
X154833286Y-52827533D01*
X154833286Y-52827533D02*
X154833286Y-52637057D01*
X154833286Y-52637057D02*
X154795190Y-52484676D01*
X154795190Y-52484676D02*
X154757095Y-52408485D01*
X154757095Y-52408485D02*
X154719000Y-52370390D01*
X154719000Y-52370390D02*
X154642809Y-52332295D01*
X154071381Y-52408485D02*
X154033285Y-52370390D01*
X154033285Y-52370390D02*
X153957095Y-52332295D01*
X153957095Y-52332295D02*
X153766619Y-52332295D01*
X153766619Y-52332295D02*
X153690428Y-52370390D01*
X153690428Y-52370390D02*
X153652333Y-52408485D01*
X153652333Y-52408485D02*
X153614238Y-52484676D01*
X153614238Y-52484676D02*
X153614238Y-52560866D01*
X153614238Y-52560866D02*
X153652333Y-52675152D01*
X153652333Y-52675152D02*
X154109476Y-53132295D01*
X154109476Y-53132295D02*
X153614238Y-53132295D01*
X153118999Y-52332295D02*
X153042809Y-52332295D01*
X153042809Y-52332295D02*
X152966618Y-52370390D01*
X152966618Y-52370390D02*
X152928523Y-52408485D01*
X152928523Y-52408485D02*
X152890428Y-52484676D01*
X152890428Y-52484676D02*
X152852333Y-52637057D01*
X152852333Y-52637057D02*
X152852333Y-52827533D01*
X152852333Y-52827533D02*
X152890428Y-52979914D01*
X152890428Y-52979914D02*
X152928523Y-53056104D01*
X152928523Y-53056104D02*
X152966618Y-53094200D01*
X152966618Y-53094200D02*
X153042809Y-53132295D01*
X153042809Y-53132295D02*
X153118999Y-53132295D01*
X153118999Y-53132295D02*
X153195190Y-53094200D01*
X153195190Y-53094200D02*
X153233285Y-53056104D01*
X153233285Y-53056104D02*
X153271380Y-52979914D01*
X153271380Y-52979914D02*
X153309476Y-52827533D01*
X153309476Y-52827533D02*
X153309476Y-52637057D01*
X153309476Y-52637057D02*
X153271380Y-52484676D01*
X153271380Y-52484676D02*
X153233285Y-52408485D01*
X153233285Y-52408485D02*
X153195190Y-52370390D01*
X153195190Y-52370390D02*
X153118999Y-52332295D01*
X154376143Y-65762295D02*
X154833286Y-65762295D01*
X154604714Y-65762295D02*
X154604714Y-64962295D01*
X154604714Y-64962295D02*
X154680905Y-65076580D01*
X154680905Y-65076580D02*
X154757095Y-65152771D01*
X154757095Y-65152771D02*
X154833286Y-65190866D01*
X153880904Y-64962295D02*
X153804714Y-64962295D01*
X153804714Y-64962295D02*
X153728523Y-65000390D01*
X153728523Y-65000390D02*
X153690428Y-65038485D01*
X153690428Y-65038485D02*
X153652333Y-65114676D01*
X153652333Y-65114676D02*
X153614238Y-65267057D01*
X153614238Y-65267057D02*
X153614238Y-65457533D01*
X153614238Y-65457533D02*
X153652333Y-65609914D01*
X153652333Y-65609914D02*
X153690428Y-65686104D01*
X153690428Y-65686104D02*
X153728523Y-65724200D01*
X153728523Y-65724200D02*
X153804714Y-65762295D01*
X153804714Y-65762295D02*
X153880904Y-65762295D01*
X153880904Y-65762295D02*
X153957095Y-65724200D01*
X153957095Y-65724200D02*
X153995190Y-65686104D01*
X153995190Y-65686104D02*
X154033285Y-65609914D01*
X154033285Y-65609914D02*
X154071381Y-65457533D01*
X154071381Y-65457533D02*
X154071381Y-65267057D01*
X154071381Y-65267057D02*
X154033285Y-65114676D01*
X154033285Y-65114676D02*
X153995190Y-65038485D01*
X153995190Y-65038485D02*
X153957095Y-65000390D01*
X153957095Y-65000390D02*
X153880904Y-64962295D01*
X152928523Y-65228961D02*
X152928523Y-65762295D01*
X153118999Y-64924200D02*
X153309476Y-65495628D01*
X153309476Y-65495628D02*
X152814237Y-65495628D01*
X154642809Y-42032295D02*
X154566619Y-42032295D01*
X154566619Y-42032295D02*
X154490428Y-42070390D01*
X154490428Y-42070390D02*
X154452333Y-42108485D01*
X154452333Y-42108485D02*
X154414238Y-42184676D01*
X154414238Y-42184676D02*
X154376143Y-42337057D01*
X154376143Y-42337057D02*
X154376143Y-42527533D01*
X154376143Y-42527533D02*
X154414238Y-42679914D01*
X154414238Y-42679914D02*
X154452333Y-42756104D01*
X154452333Y-42756104D02*
X154490428Y-42794200D01*
X154490428Y-42794200D02*
X154566619Y-42832295D01*
X154566619Y-42832295D02*
X154642809Y-42832295D01*
X154642809Y-42832295D02*
X154719000Y-42794200D01*
X154719000Y-42794200D02*
X154757095Y-42756104D01*
X154757095Y-42756104D02*
X154795190Y-42679914D01*
X154795190Y-42679914D02*
X154833286Y-42527533D01*
X154833286Y-42527533D02*
X154833286Y-42337057D01*
X154833286Y-42337057D02*
X154795190Y-42184676D01*
X154795190Y-42184676D02*
X154757095Y-42108485D01*
X154757095Y-42108485D02*
X154719000Y-42070390D01*
X154719000Y-42070390D02*
X154642809Y-42032295D01*
X153880904Y-42032295D02*
X153804714Y-42032295D01*
X153804714Y-42032295D02*
X153728523Y-42070390D01*
X153728523Y-42070390D02*
X153690428Y-42108485D01*
X153690428Y-42108485D02*
X153652333Y-42184676D01*
X153652333Y-42184676D02*
X153614238Y-42337057D01*
X153614238Y-42337057D02*
X153614238Y-42527533D01*
X153614238Y-42527533D02*
X153652333Y-42679914D01*
X153652333Y-42679914D02*
X153690428Y-42756104D01*
X153690428Y-42756104D02*
X153728523Y-42794200D01*
X153728523Y-42794200D02*
X153804714Y-42832295D01*
X153804714Y-42832295D02*
X153880904Y-42832295D01*
X153880904Y-42832295D02*
X153957095Y-42794200D01*
X153957095Y-42794200D02*
X153995190Y-42756104D01*
X153995190Y-42756104D02*
X154033285Y-42679914D01*
X154033285Y-42679914D02*
X154071381Y-42527533D01*
X154071381Y-42527533D02*
X154071381Y-42337057D01*
X154071381Y-42337057D02*
X154033285Y-42184676D01*
X154033285Y-42184676D02*
X153995190Y-42108485D01*
X153995190Y-42108485D02*
X153957095Y-42070390D01*
X153957095Y-42070390D02*
X153880904Y-42032295D01*
X153157095Y-42375152D02*
X153233285Y-42337057D01*
X153233285Y-42337057D02*
X153271380Y-42298961D01*
X153271380Y-42298961D02*
X153309476Y-42222771D01*
X153309476Y-42222771D02*
X153309476Y-42184676D01*
X153309476Y-42184676D02*
X153271380Y-42108485D01*
X153271380Y-42108485D02*
X153233285Y-42070390D01*
X153233285Y-42070390D02*
X153157095Y-42032295D01*
X153157095Y-42032295D02*
X153004714Y-42032295D01*
X153004714Y-42032295D02*
X152928523Y-42070390D01*
X152928523Y-42070390D02*
X152890428Y-42108485D01*
X152890428Y-42108485D02*
X152852333Y-42184676D01*
X152852333Y-42184676D02*
X152852333Y-42222771D01*
X152852333Y-42222771D02*
X152890428Y-42298961D01*
X152890428Y-42298961D02*
X152928523Y-42337057D01*
X152928523Y-42337057D02*
X153004714Y-42375152D01*
X153004714Y-42375152D02*
X153157095Y-42375152D01*
X153157095Y-42375152D02*
X153233285Y-42413247D01*
X153233285Y-42413247D02*
X153271380Y-42451342D01*
X153271380Y-42451342D02*
X153309476Y-42527533D01*
X153309476Y-42527533D02*
X153309476Y-42679914D01*
X153309476Y-42679914D02*
X153271380Y-42756104D01*
X153271380Y-42756104D02*
X153233285Y-42794200D01*
X153233285Y-42794200D02*
X153157095Y-42832295D01*
X153157095Y-42832295D02*
X153004714Y-42832295D01*
X153004714Y-42832295D02*
X152928523Y-42794200D01*
X152928523Y-42794200D02*
X152890428Y-42756104D01*
X152890428Y-42756104D02*
X152852333Y-42679914D01*
X152852333Y-42679914D02*
X152852333Y-42527533D01*
X152852333Y-42527533D02*
X152890428Y-42451342D01*
X152890428Y-42451342D02*
X152928523Y-42413247D01*
X152928523Y-42413247D02*
X153004714Y-42375152D01*
X154376143Y-60682295D02*
X154833286Y-60682295D01*
X154604714Y-60682295D02*
X154604714Y-59882295D01*
X154604714Y-59882295D02*
X154680905Y-59996580D01*
X154680905Y-59996580D02*
X154757095Y-60072771D01*
X154757095Y-60072771D02*
X154833286Y-60110866D01*
X153880904Y-59882295D02*
X153804714Y-59882295D01*
X153804714Y-59882295D02*
X153728523Y-59920390D01*
X153728523Y-59920390D02*
X153690428Y-59958485D01*
X153690428Y-59958485D02*
X153652333Y-60034676D01*
X153652333Y-60034676D02*
X153614238Y-60187057D01*
X153614238Y-60187057D02*
X153614238Y-60377533D01*
X153614238Y-60377533D02*
X153652333Y-60529914D01*
X153652333Y-60529914D02*
X153690428Y-60606104D01*
X153690428Y-60606104D02*
X153728523Y-60644200D01*
X153728523Y-60644200D02*
X153804714Y-60682295D01*
X153804714Y-60682295D02*
X153880904Y-60682295D01*
X153880904Y-60682295D02*
X153957095Y-60644200D01*
X153957095Y-60644200D02*
X153995190Y-60606104D01*
X153995190Y-60606104D02*
X154033285Y-60529914D01*
X154033285Y-60529914D02*
X154071381Y-60377533D01*
X154071381Y-60377533D02*
X154071381Y-60187057D01*
X154071381Y-60187057D02*
X154033285Y-60034676D01*
X154033285Y-60034676D02*
X153995190Y-59958485D01*
X153995190Y-59958485D02*
X153957095Y-59920390D01*
X153957095Y-59920390D02*
X153880904Y-59882295D01*
X153118999Y-59882295D02*
X153042809Y-59882295D01*
X153042809Y-59882295D02*
X152966618Y-59920390D01*
X152966618Y-59920390D02*
X152928523Y-59958485D01*
X152928523Y-59958485D02*
X152890428Y-60034676D01*
X152890428Y-60034676D02*
X152852333Y-60187057D01*
X152852333Y-60187057D02*
X152852333Y-60377533D01*
X152852333Y-60377533D02*
X152890428Y-60529914D01*
X152890428Y-60529914D02*
X152928523Y-60606104D01*
X152928523Y-60606104D02*
X152966618Y-60644200D01*
X152966618Y-60644200D02*
X153042809Y-60682295D01*
X153042809Y-60682295D02*
X153118999Y-60682295D01*
X153118999Y-60682295D02*
X153195190Y-60644200D01*
X153195190Y-60644200D02*
X153233285Y-60606104D01*
X153233285Y-60606104D02*
X153271380Y-60529914D01*
X153271380Y-60529914D02*
X153309476Y-60377533D01*
X153309476Y-60377533D02*
X153309476Y-60187057D01*
X153309476Y-60187057D02*
X153271380Y-60034676D01*
X153271380Y-60034676D02*
X153233285Y-59958485D01*
X153233285Y-59958485D02*
X153195190Y-59920390D01*
X153195190Y-59920390D02*
X153118999Y-59882295D01*
X154528523Y-47220390D02*
X154604713Y-47182295D01*
X154604713Y-47182295D02*
X154718999Y-47182295D01*
X154718999Y-47182295D02*
X154833285Y-47220390D01*
X154833285Y-47220390D02*
X154909475Y-47296580D01*
X154909475Y-47296580D02*
X154947570Y-47372771D01*
X154947570Y-47372771D02*
X154985666Y-47525152D01*
X154985666Y-47525152D02*
X154985666Y-47639438D01*
X154985666Y-47639438D02*
X154947570Y-47791819D01*
X154947570Y-47791819D02*
X154909475Y-47868009D01*
X154909475Y-47868009D02*
X154833285Y-47944200D01*
X154833285Y-47944200D02*
X154718999Y-47982295D01*
X154718999Y-47982295D02*
X154642808Y-47982295D01*
X154642808Y-47982295D02*
X154528523Y-47944200D01*
X154528523Y-47944200D02*
X154490427Y-47906104D01*
X154490427Y-47906104D02*
X154490427Y-47639438D01*
X154490427Y-47639438D02*
X154642808Y-47639438D01*
X154147570Y-47982295D02*
X154147570Y-47182295D01*
X154147570Y-47182295D02*
X153690427Y-47982295D01*
X153690427Y-47982295D02*
X153690427Y-47182295D01*
X153309475Y-47982295D02*
X153309475Y-47182295D01*
X153309475Y-47182295D02*
X153118999Y-47182295D01*
X153118999Y-47182295D02*
X153004713Y-47220390D01*
X153004713Y-47220390D02*
X152928523Y-47296580D01*
X152928523Y-47296580D02*
X152890428Y-47372771D01*
X152890428Y-47372771D02*
X152852332Y-47525152D01*
X152852332Y-47525152D02*
X152852332Y-47639438D01*
X152852332Y-47639438D02*
X152890428Y-47791819D01*
X152890428Y-47791819D02*
X152928523Y-47868009D01*
X152928523Y-47868009D02*
X153004713Y-47944200D01*
X153004713Y-47944200D02*
X153118999Y-47982295D01*
X153118999Y-47982295D02*
X153309475Y-47982295D01*
%TO.C,NNV2*%
D11*
X130730000Y-38692349D02*
X148510000Y-38692349D01*
X148510000Y-71712349D01*
X130730000Y-71712349D01*
X130730000Y-38692349D01*
%TO.C,NNV2_R1*%
X150490000Y-38730000D02*
X168270000Y-38730000D01*
X168270000Y-71750000D01*
X150490000Y-71750000D01*
X150490000Y-38730000D01*
%TD*%
D12*
%TO.C,NNV2*%
X132000000Y-39962349D03*
X132000000Y-42502349D03*
X132000000Y-45042349D03*
X132000000Y-47582349D03*
X132000000Y-50122349D03*
X132000000Y-52662349D03*
X132000000Y-55202349D03*
X132000000Y-57742349D03*
X132000000Y-60282349D03*
X132000000Y-62822349D03*
X132000000Y-65362349D03*
X132000000Y-67902349D03*
X132000000Y-70442349D03*
X147240000Y-39962349D03*
X147240000Y-42502349D03*
X147240000Y-45042349D03*
X147240000Y-47582349D03*
X147240000Y-50122349D03*
X147240000Y-52662349D03*
X147240000Y-55202349D03*
X147240000Y-57742349D03*
X147240000Y-60282349D03*
X147240000Y-62822349D03*
X147240000Y-65362349D03*
X147240000Y-67902349D03*
X147240000Y-70442349D03*
X134540000Y-62822349D03*
X137080000Y-62822349D03*
X139620000Y-62822349D03*
%TD*%
%TO.C,NNV2_R1*%
X151760000Y-40000000D03*
X151760000Y-42540000D03*
X151760000Y-45080000D03*
X151760000Y-47620000D03*
X151760000Y-50160000D03*
X151760000Y-52700000D03*
X151760000Y-55240000D03*
X151760000Y-57780000D03*
X151760000Y-60320000D03*
X151760000Y-62860000D03*
X151760000Y-65400000D03*
X151760000Y-67940000D03*
X151760000Y-70480000D03*
X167000000Y-40000000D03*
X167000000Y-42540000D03*
X167000000Y-45080000D03*
X167000000Y-47620000D03*
X167000000Y-50160000D03*
X167000000Y-52700000D03*
X167000000Y-55240000D03*
X167000000Y-57780000D03*
X167000000Y-60320000D03*
X167000000Y-62860000D03*
X167000000Y-65400000D03*
X167000000Y-67940000D03*
X167000000Y-70480000D03*
X154300000Y-62860000D03*
X156840000Y-62860000D03*
X159380000Y-62860000D03*
%TD*%
M02*
