%TF.GenerationSoftware,KiCad,Pcbnew,9.0.0*%
%TF.CreationDate,2025-06-07T14:39:27-06:00*%
%TF.ProjectId,Mau Keys,4d617520-4b65-4797-932e-6b696361645f,rev?*%
%TF.SameCoordinates,Original*%
%TF.FileFunction,Profile,NP*%
%FSLAX46Y46*%
G04 Gerber Fmt 4.6, Leading zero omitted, Abs format (unit mm)*
G04 Created by KiCad (PCBNEW 9.0.0) date 2025-06-07 14:39:27*
%MOMM*%
%LPD*%
G01*
G04 APERTURE LIST*
%TA.AperFunction,Profile*%
%ADD10C,0.250000*%
%TD*%
%TA.AperFunction,Profile*%
%ADD11C,0.050000*%
%TD*%
G04 APERTURE END LIST*
D10*
X228500002Y-16537651D02*
G75*
G02*
X229499949Y-17537650I-102J-1000049D01*
G01*
X186525001Y-29537651D02*
X169499999Y-29537651D01*
X265203928Y-107993413D02*
G75*
G02*
X263930250Y-108748838I-979728J200413D01*
G01*
X256977526Y-44454673D02*
G75*
G02*
X253036086Y-39128156I1039574J4890773D01*
G01*
X168500000Y-33277652D02*
G75*
G02*
X163500000Y-38277650I-5000000J2D01*
G01*
X42022474Y-44417022D02*
X42022474Y-44417023D01*
X276791933Y-48666356D02*
G75*
G02*
X277562106Y-49852410I-207833J-978044D01*
G01*
X148000001Y-38240000D02*
G75*
G02*
X149000000Y-39239998I-1J-1000000D01*
G01*
X203036638Y-108322120D02*
G75*
G02*
X195946387Y-109846237I-14026138J47996020D01*
G01*
X208500000Y-17537650D02*
X208500000Y-21537652D01*
X276791933Y-48666356D02*
X256977526Y-44454674D01*
X229500000Y-22981953D02*
X229500000Y-17537650D01*
X164127949Y-119188789D02*
G75*
G02*
X162769482Y-118622616I-418749J908089D01*
G01*
X150000000Y-39277649D02*
X150000000Y-74722351D01*
X149000000Y-74684700D02*
G75*
G02*
X145984631Y-91785690I-50000010J20D01*
G01*
X89500001Y-16500000D02*
G75*
G02*
X90500000Y-17499999I-1J-1000000D01*
G01*
X109475001Y-26500000D02*
G75*
G02*
X110475000Y-27500000I-1J-1000000D01*
G01*
X64935779Y-27925273D02*
X64935779Y-27925274D01*
X22208067Y-48628705D02*
X42022474Y-44417023D01*
X265203928Y-107993413D02*
X277562178Y-49852425D01*
X103053613Y-109808586D02*
G75*
G02*
X95963360Y-108284474I6935687J49519386D01*
G01*
X145984631Y-91785690D02*
X136230495Y-118584957D01*
X164127949Y-119188789D02*
G75*
G02*
X195946386Y-109846230I47579551J-103190011D01*
G01*
X208500000Y-21537652D02*
G75*
G02*
X203500000Y-26537600I-5000000J52D01*
G01*
X130500000Y-30499998D02*
X130500000Y-33240001D01*
X112474999Y-29500000D02*
G75*
G02*
X110475000Y-27500000I1J2000000D01*
G01*
X45963889Y-39090507D02*
G75*
G02*
X42022475Y-44417025I-4980929J-435813D01*
G01*
X228500002Y-16537651D02*
X209499999Y-16537651D01*
X149000000Y-39239998D02*
X149000000Y-74684700D01*
X252865212Y-29607798D02*
G75*
G02*
X253774281Y-30691153I-87012J-996102D01*
G01*
X35069739Y-108711152D02*
G75*
G02*
X33796071Y-107955762I-293939J955852D01*
G01*
X153015369Y-91823341D02*
G75*
G02*
X149999999Y-74722351I46984231J17100941D01*
G01*
X69500000Y-22944302D02*
G75*
G02*
X64935779Y-27925273I-5000000J2D01*
G01*
X234064221Y-27962924D02*
G75*
G02*
X229500049Y-22981953I435779J4980924D01*
G01*
X256977526Y-44454673D02*
X256977526Y-44454674D01*
X168500000Y-30537649D02*
G75*
G02*
X169499999Y-29537600I1000000J49D01*
G01*
X70499998Y-16500000D02*
X89500001Y-16500000D01*
X188525000Y-27537651D02*
G75*
G02*
X186525001Y-29537600I-2000000J51D01*
G01*
X163500000Y-38277651D02*
X150999999Y-38277651D01*
X45963889Y-39090507D02*
X45225746Y-30653500D01*
X252865212Y-29607798D02*
X234064221Y-27962925D01*
X253036111Y-39128158D02*
X253774254Y-30691151D01*
X35069739Y-108711152D02*
G75*
G02*
X95963363Y-108284467I31158281J-101322678D01*
G01*
X46134788Y-29570147D02*
X64935779Y-27925274D01*
X90500000Y-17499999D02*
X90500000Y-21500001D01*
X188525000Y-27537651D02*
G75*
G02*
X189524999Y-26537600I1000000J51D01*
G01*
X203036638Y-108322120D02*
G75*
G02*
X263930264Y-108748794I29735362J-101749480D01*
G01*
X103053613Y-109808586D02*
G75*
G02*
X134872049Y-119151142I-15760913J-112531914D01*
G01*
X33796072Y-107955762D02*
X21437822Y-49814774D01*
X136230495Y-118584957D02*
G75*
G02*
X134872049Y-119151142I-939695J341857D01*
G01*
X95500000Y-26500000D02*
X109475001Y-26500000D01*
X95500000Y-26500000D02*
G75*
G02*
X90500000Y-21500001I0J5000000D01*
G01*
X150000000Y-39277649D02*
G75*
G02*
X150999999Y-38277600I1000000J49D01*
G01*
X129500001Y-29500000D02*
G75*
G02*
X130500000Y-30499998I-1J-1000000D01*
G01*
X69500000Y-22944302D02*
X69500000Y-17499999D01*
X153015369Y-91823341D02*
X162769505Y-118622608D01*
X135500000Y-38240000D02*
X148000001Y-38240000D01*
X112474999Y-29500000D02*
X129500001Y-29500000D01*
X203500000Y-26537651D02*
X189524999Y-26537651D01*
X168500000Y-30537649D02*
X168500000Y-33277652D01*
X69500000Y-17499999D02*
G75*
G02*
X70499998Y-16500000I1000000J-1D01*
G01*
X45225746Y-30653500D02*
G75*
G02*
X46134787Y-29570138I996154J87200D01*
G01*
X234064221Y-27962924D02*
X234064221Y-27962925D01*
X135500000Y-38240000D02*
G75*
G02*
X130500000Y-33240001I0J5000000D01*
G01*
X21437822Y-49814774D02*
G75*
G02*
X22208067Y-48628705I978138J207924D01*
G01*
X208500000Y-17537650D02*
G75*
G02*
X209499999Y-16537600I1000000J50D01*
G01*
D11*
%TO.C,SwitchR_14*%
X233931872Y-79648067D02*
X234106182Y-77655678D01*
X243352143Y-80974144D02*
X234386390Y-80189742D01*
X243613610Y-77985560D02*
X234647857Y-77201158D01*
X244068129Y-78527235D02*
X243893818Y-80519624D01*
X234106182Y-77655678D02*
G75*
G02*
X234647857Y-77201158I498099J-43579D01*
G01*
X234386390Y-80189742D02*
G75*
G02*
X233931871Y-79648067I43579J498098D01*
G01*
X243613610Y-77985560D02*
G75*
G02*
X244068129Y-78527235I-43578J-498097D01*
G01*
X243893818Y-80519624D02*
G75*
G02*
X243352143Y-80974145I-498098J43577D01*
G01*
%TO.C,Switch4*%
X94900000Y-37962349D02*
X94900000Y-35962349D01*
X104600000Y-35462349D02*
X95400001Y-35462349D01*
X104600000Y-38462349D02*
X95400000Y-38462348D01*
X105100000Y-35962349D02*
X105100000Y-37962349D01*
X94900000Y-35962349D02*
G75*
G02*
X95400000Y-35462349I500001J-1D01*
G01*
X95400000Y-38462349D02*
G75*
G02*
X94900000Y-37962349I1J500001D01*
G01*
X104600000Y-35462349D02*
G75*
G02*
X105100000Y-35962349I0J-500000D01*
G01*
X105100000Y-37962349D02*
G75*
G02*
X104600000Y-38462349I-500000J0D01*
G01*
%TO.C,SwitchR_11*%
X174000001Y-81000000D02*
X174000000Y-79000000D01*
X183500000Y-78500000D02*
X174500000Y-78500000D01*
X183500000Y-81500000D02*
X174500000Y-81500000D01*
X184000000Y-79000000D02*
X184000000Y-81000000D01*
X174000000Y-79000000D02*
G75*
G02*
X174500000Y-78500000I500001J-1D01*
G01*
X174500000Y-81500000D02*
G75*
G02*
X174000000Y-81000000I1J500001D01*
G01*
X183500000Y-78500000D02*
G75*
G02*
X184000000Y-79000000I0J-500000D01*
G01*
X184000000Y-81000000D02*
G75*
G02*
X183500000Y-81500000I-500000J0D01*
G01*
%TO.C,SwitchR_17*%
X185299049Y-101979498D02*
X184951752Y-100009883D01*
X194417563Y-97833092D02*
X185357333Y-99430655D01*
X194938508Y-100787515D02*
X185878276Y-102385077D01*
X194996791Y-98238672D02*
X195344088Y-100208287D01*
X184951752Y-100009883D02*
G75*
G02*
X185357332Y-99430655I492405J86823D01*
G01*
X185878277Y-102385078D02*
G75*
G02*
X185299048Y-101979498I-86824J492405D01*
G01*
X194417563Y-97833092D02*
G75*
G02*
X194996791Y-98238672I86824J-492404D01*
G01*
X195344088Y-100208287D02*
G75*
G02*
X194938508Y-100787515I-492404J-86824D01*
G01*
%TO.C,SwitchR_8*%
X213900000Y-48000000D02*
X213900000Y-46000000D01*
X223600000Y-45500000D02*
X214400001Y-45500000D01*
X223600000Y-48500000D02*
X214400000Y-48499999D01*
X224100000Y-46000000D02*
X224100000Y-48000000D01*
X213900000Y-46000000D02*
G75*
G02*
X214400000Y-45500000I500001J-1D01*
G01*
X214400000Y-48500000D02*
G75*
G02*
X213900000Y-48000000I1J500001D01*
G01*
X223600000Y-45500000D02*
G75*
G02*
X224100000Y-46000000I0J-500000D01*
G01*
X224100000Y-48000000D02*
G75*
G02*
X223600000Y-48500000I-500000J0D01*
G01*
%TO.C,SwitchR_3*%
X213900000Y-28000000D02*
X213900000Y-26000000D01*
X223600000Y-25500000D02*
X214400001Y-25500000D01*
X223600000Y-28500000D02*
X214400000Y-28499999D01*
X224100000Y-26000000D02*
X224100000Y-28000000D01*
X213900000Y-26000000D02*
G75*
G02*
X214400000Y-25500000I500001J-1D01*
G01*
X214400000Y-28500000D02*
G75*
G02*
X213900000Y-28000000I1J500001D01*
G01*
X223600000Y-25500000D02*
G75*
G02*
X224100000Y-26000000I0J-500000D01*
G01*
X224100000Y-28000000D02*
G75*
G02*
X223600000Y-28500000I-500000J0D01*
G01*
%TO.C,Switch2*%
X51619953Y-40546534D02*
X51445641Y-38554145D01*
X60865913Y-37228068D02*
X51900160Y-38012470D01*
X61127380Y-40216652D02*
X52161627Y-41001054D01*
X61407588Y-37682588D02*
X61581899Y-39674977D01*
X51445641Y-38554145D02*
G75*
G02*
X51900160Y-38012470I498098J43577D01*
G01*
X52161627Y-41001054D02*
G75*
G02*
X51619952Y-40546534I-43576J498099D01*
G01*
X60865913Y-37228068D02*
G75*
G02*
X61407587Y-37682588I43577J-498097D01*
G01*
X61581899Y-39674977D02*
G75*
G02*
X61127380Y-40216652I-498097J-43578D01*
G01*
%TO.C,Switch6*%
X33158941Y-78417103D02*
X32743116Y-76460808D01*
X41931563Y-73996573D02*
X33128234Y-75867778D01*
X42524592Y-74381691D02*
X42940416Y-76337986D01*
X42555298Y-76931016D02*
X33751969Y-78802221D01*
X32743116Y-76460808D02*
G75*
G02*
X33128234Y-75867778I489075J103955D01*
G01*
X33751969Y-78802221D02*
G75*
G02*
X33158939Y-78417103I-103955J489075D01*
G01*
X41931563Y-73996573D02*
G75*
G02*
X42524593Y-74381691I103956J-489074D01*
G01*
X42940416Y-76337986D02*
G75*
G02*
X42555298Y-76931016I-489074J-103956D01*
G01*
%TO.C,SwitchR_4*%
X237418102Y-39800279D02*
X237592412Y-37807890D01*
X246838373Y-41126356D02*
X237872620Y-40341954D01*
X247099840Y-38137772D02*
X238134087Y-37353370D01*
X247554359Y-38679447D02*
X247380048Y-40671836D01*
X237592412Y-37807890D02*
G75*
G02*
X238134087Y-37353370I498099J-43579D01*
G01*
X237872620Y-40341954D02*
G75*
G02*
X237418101Y-39800279I43579J498098D01*
G01*
X247099840Y-38137772D02*
G75*
G02*
X247554359Y-38679447I-43578J-498097D01*
G01*
X247380048Y-40671836D02*
G75*
G02*
X246838373Y-41126357I-498098J43577D01*
G01*
%TO.C,Switch12*%
X55106183Y-80394322D02*
X54931871Y-78401933D01*
X64352143Y-77075856D02*
X55386390Y-77860258D01*
X64613610Y-80064440D02*
X55647857Y-80848842D01*
X64893818Y-77530376D02*
X65068129Y-79522765D01*
X54931871Y-78401933D02*
G75*
G02*
X55386390Y-77860258I498098J43577D01*
G01*
X55647857Y-80848842D02*
G75*
G02*
X55106182Y-80394322I-43576J498099D01*
G01*
X64352143Y-77075856D02*
G75*
G02*
X64893817Y-77530376I43577J-498097D01*
G01*
X65068129Y-79522765D02*
G75*
G02*
X64613610Y-80064440I-498097J-43578D01*
G01*
%TO.C,Switch13*%
X74900000Y-67962349D02*
X74900000Y-65962349D01*
X84600000Y-65462349D02*
X75400001Y-65462349D01*
X84600000Y-68462349D02*
X75400000Y-68462348D01*
X85100000Y-65962349D02*
X85100000Y-67962349D01*
X74900000Y-65962349D02*
G75*
G02*
X75400000Y-65462349I500001J-1D01*
G01*
X75400000Y-68462349D02*
G75*
G02*
X74900000Y-67962349I1J500001D01*
G01*
X84600000Y-65462349D02*
G75*
G02*
X85100000Y-65962349I0J-500000D01*
G01*
X85100000Y-67962349D02*
G75*
G02*
X84600000Y-68462349I-500000J0D01*
G01*
%TO.C,SwitchR_16*%
X164763122Y-108343691D02*
X164100446Y-106456667D01*
X173086845Y-102770933D02*
X164406534Y-105819242D01*
X173724270Y-103077021D02*
X174386946Y-104964045D01*
X174080859Y-105601470D02*
X165400547Y-108649779D01*
X164100446Y-106456667D02*
G75*
G02*
X164406533Y-105819243I471757J165668D01*
G01*
X165400547Y-108649779D02*
G75*
G02*
X164763122Y-108343691I-165668J471758D01*
G01*
X173086845Y-102770933D02*
G75*
G02*
X173724271Y-103077021I165669J-471757D01*
G01*
X174386946Y-104964045D02*
G75*
G02*
X174080859Y-105601470I-471756J-165669D01*
G01*
%TO.C,Switch8*%
X74900000Y-47962349D02*
X74900000Y-45962349D01*
X84600000Y-45462349D02*
X75400001Y-45462349D01*
X84600000Y-48462349D02*
X75400000Y-48462348D01*
X85100000Y-45962349D02*
X85100000Y-47962349D01*
X74900000Y-45962349D02*
G75*
G02*
X75400000Y-45462349I500001J-1D01*
G01*
X75400000Y-48462349D02*
G75*
G02*
X74900000Y-47962349I1J500001D01*
G01*
X84600000Y-45462349D02*
G75*
G02*
X85100000Y-45962349I0J-500000D01*
G01*
X85100000Y-47962349D02*
G75*
G02*
X84600000Y-48462349I-500000J0D01*
G01*
%TO.C,Switch15*%
X114900000Y-80962349D02*
X114900000Y-78962349D01*
X124600000Y-78462349D02*
X115400001Y-78462349D01*
X124600000Y-81462349D02*
X115400000Y-81462348D01*
X125100000Y-78962349D02*
X125100000Y-80962349D01*
X114900000Y-78962349D02*
G75*
G02*
X115400000Y-78462349I500001J-1D01*
G01*
X115400000Y-81462349D02*
G75*
G02*
X114900000Y-80962349I1J500001D01*
G01*
X124600000Y-78462349D02*
G75*
G02*
X125100000Y-78962349I0J-500000D01*
G01*
X125100000Y-80962349D02*
G75*
G02*
X124600000Y-81462349I-500000J0D01*
G01*
%TO.C,Switch5*%
X114900000Y-40962349D02*
X114900000Y-38962349D01*
X124600000Y-38462349D02*
X115400001Y-38462349D01*
X124600000Y-41462349D02*
X115400000Y-41462348D01*
X125100000Y-38962349D02*
X125100000Y-40962349D01*
X114900000Y-38962349D02*
G75*
G02*
X115400000Y-38462349I500001J-1D01*
G01*
X115400000Y-41462349D02*
G75*
G02*
X114900000Y-40962349I1J500001D01*
G01*
X124600000Y-38462349D02*
G75*
G02*
X125100000Y-38962349I0J-500000D01*
G01*
X125100000Y-40962349D02*
G75*
G02*
X124600000Y-41462349I-500000J0D01*
G01*
%TO.C,SwitchR_2*%
X194000001Y-38000000D02*
X194000000Y-36000000D01*
X203500000Y-35500000D02*
X194500000Y-35500000D01*
X203500000Y-38500000D02*
X194500000Y-38500000D01*
X204000000Y-36000000D02*
X204000000Y-38000000D01*
X194000000Y-36000000D02*
G75*
G02*
X194500000Y-35500000I500001J-1D01*
G01*
X194500000Y-38500000D02*
G75*
G02*
X194000000Y-38000000I1J500001D01*
G01*
X203500000Y-35500000D02*
G75*
G02*
X204000000Y-36000000I0J-500000D01*
G01*
X204000000Y-38000000D02*
G75*
G02*
X203500000Y-38500000I-500000J0D01*
G01*
%TO.C,SwitchR_6*%
X174000001Y-61000000D02*
X174000000Y-59000000D01*
X183500000Y-58500000D02*
X174500000Y-58500000D01*
X183500000Y-61500000D02*
X174500000Y-61500000D01*
X184000000Y-59000000D02*
X184000000Y-61000000D01*
X174000000Y-59000000D02*
G75*
G02*
X174500000Y-58500000I500001J-1D01*
G01*
X174500000Y-61500000D02*
G75*
G02*
X174000000Y-61000000I1J500001D01*
G01*
X183500000Y-58500000D02*
G75*
G02*
X184000000Y-59000000I0J-500000D01*
G01*
X184000000Y-61000000D02*
G75*
G02*
X183500000Y-61500000I-500000J0D01*
G01*
%TO.C,Switch17*%
X124613054Y-104926394D02*
X125275730Y-103039370D01*
X133599453Y-108612128D02*
X124919142Y-105563818D01*
X134593467Y-105781591D02*
X125913156Y-102733283D01*
X134899554Y-106419016D02*
X134236878Y-108306040D01*
X124919141Y-105563819D02*
G75*
G02*
X124613053Y-104926394I165670J471757D01*
G01*
X125275730Y-103039370D02*
G75*
G02*
X125913155Y-102733282I471757J-165670D01*
G01*
X134236878Y-108306040D02*
G75*
G02*
X133599453Y-108612127I-471756J165669D01*
G01*
X134593467Y-105781591D02*
G75*
G02*
X134899554Y-106419016I-165669J-471756D01*
G01*
%TO.C,Switch7*%
X53363068Y-60470428D02*
X53188756Y-58478039D01*
X62609028Y-57151962D02*
X53643275Y-57936364D01*
X62870495Y-60140546D02*
X53904742Y-60924948D01*
X63150703Y-57606482D02*
X63325014Y-59598871D01*
X53188756Y-58478039D02*
G75*
G02*
X53643275Y-57936364I498098J43577D01*
G01*
X53904742Y-60924948D02*
G75*
G02*
X53363067Y-60470428I-43576J498099D01*
G01*
X62609028Y-57151962D02*
G75*
G02*
X63150702Y-57606482I43577J-498097D01*
G01*
X63325014Y-59598871D02*
G75*
G02*
X62870495Y-60140546I-498097J-43578D01*
G01*
%TO.C,Switch14*%
X94900000Y-77962349D02*
X94900000Y-75962349D01*
X104600000Y-75462349D02*
X95400001Y-75462349D01*
X104600000Y-78462349D02*
X95400000Y-78462348D01*
X105100000Y-75962349D02*
X105100000Y-77962349D01*
X94900000Y-75962349D02*
G75*
G02*
X95400000Y-75462349I500001J-1D01*
G01*
X95400000Y-78462349D02*
G75*
G02*
X94900000Y-77962349I1J500001D01*
G01*
X104600000Y-75462349D02*
G75*
G02*
X105100000Y-75962349I0J-500000D01*
G01*
X105100000Y-77962349D02*
G75*
G02*
X104600000Y-78462349I-500000J0D01*
G01*
%TO.C,SwitchR_5*%
X260217819Y-56900336D02*
X260633642Y-54944041D01*
X269406265Y-59364571D02*
X260602936Y-57493366D01*
X270030000Y-56430128D02*
X261226671Y-54558923D01*
X270415118Y-57023158D02*
X269999294Y-58979453D01*
X260602936Y-57493366D02*
G75*
G02*
X260217818Y-56900336I103957J489075D01*
G01*
X260633642Y-54944041D02*
G75*
G02*
X261226671Y-54558924I489074J-103957D01*
G01*
X269999294Y-58979453D02*
G75*
G02*
X269406265Y-59364570I-489073J103956D01*
G01*
X270030000Y-56430128D02*
G75*
G02*
X270415118Y-57023158I-103956J-489074D01*
G01*
%TO.C,Switch10*%
X114900000Y-60962349D02*
X114900000Y-58962349D01*
X124600000Y-58462349D02*
X115400001Y-58462349D01*
X124600000Y-61462349D02*
X115400000Y-61462348D01*
X125100000Y-58962349D02*
X125100000Y-60962349D01*
X114900000Y-58962349D02*
G75*
G02*
X115400000Y-58462349I500001J-1D01*
G01*
X115400000Y-61462349D02*
G75*
G02*
X114900000Y-60962349I1J500001D01*
G01*
X124600000Y-58462349D02*
G75*
G02*
X125100000Y-58962349I0J-500000D01*
G01*
X125100000Y-60962349D02*
G75*
G02*
X124600000Y-61462349I-500000J0D01*
G01*
%TO.C,SwitchR_13*%
X213900000Y-68000000D02*
X213900000Y-66000000D01*
X223600000Y-65500000D02*
X214400001Y-65500000D01*
X223600000Y-68500000D02*
X214400000Y-68499999D01*
X224100000Y-66000000D02*
X224100000Y-68000000D01*
X213900000Y-66000000D02*
G75*
G02*
X214400000Y-65500000I500001J-1D01*
G01*
X214400000Y-68500000D02*
G75*
G02*
X213900000Y-68000000I1J500001D01*
G01*
X223600000Y-65500000D02*
G75*
G02*
X224100000Y-66000000I0J-500000D01*
G01*
X224100000Y-68000000D02*
G75*
G02*
X223600000Y-68500000I-500000J0D01*
G01*
%TO.C,SwitchR_10*%
X256059585Y-76463288D02*
X256475408Y-74506993D01*
X265248031Y-78927523D02*
X256444702Y-77056318D01*
X265871766Y-75993080D02*
X257068437Y-74121875D01*
X266256884Y-76586110D02*
X265841060Y-78542405D01*
X256444702Y-77056318D02*
G75*
G02*
X256059584Y-76463288I103957J489075D01*
G01*
X256475408Y-74506993D02*
G75*
G02*
X257068437Y-74121876I489074J-103957D01*
G01*
X265841060Y-78542405D02*
G75*
G02*
X265248031Y-78927522I-489073J103956D01*
G01*
X265871766Y-75993080D02*
G75*
G02*
X266256884Y-76586110I-103956J-489074D01*
G01*
%TO.C,SwitchR_15*%
X251901351Y-96026240D02*
X252317174Y-94069945D01*
X261089797Y-98490475D02*
X252286468Y-96619270D01*
X261713532Y-95556032D02*
X252910203Y-93684827D01*
X262098650Y-96149062D02*
X261682826Y-98105357D01*
X252286468Y-96619270D02*
G75*
G02*
X251901350Y-96026240I103957J489075D01*
G01*
X252317174Y-94069945D02*
G75*
G02*
X252910203Y-93684828I489074J-103957D01*
G01*
X261682826Y-98105357D02*
G75*
G02*
X261089797Y-98490474I-489073J103956D01*
G01*
X261713532Y-95556032D02*
G75*
G02*
X262098650Y-96149062I-103956J-489074D01*
G01*
%TO.C,SwitchR_1*%
X174000001Y-41000000D02*
X174000000Y-39000000D01*
X183500000Y-38500000D02*
X174500000Y-38500000D01*
X183500000Y-41500000D02*
X174500000Y-41500000D01*
X184000000Y-39000000D02*
X184000000Y-41000000D01*
X174000000Y-39000000D02*
G75*
G02*
X174500000Y-38500000I500001J-1D01*
G01*
X174500000Y-41500000D02*
G75*
G02*
X174000000Y-41000000I1J500001D01*
G01*
X183500000Y-38500000D02*
G75*
G02*
X184000000Y-39000000I0J-500000D01*
G01*
X184000000Y-41000000D02*
G75*
G02*
X183500000Y-41500000I-500000J0D01*
G01*
%TO.C,SwitchR_9*%
X235674987Y-59724173D02*
X235849297Y-57731784D01*
X245095258Y-61050250D02*
X236129505Y-60265848D01*
X245356725Y-58061666D02*
X236390972Y-57277264D01*
X245811244Y-58603341D02*
X245636933Y-60595730D01*
X235849297Y-57731784D02*
G75*
G02*
X236390972Y-57277264I498099J-43579D01*
G01*
X236129505Y-60265848D02*
G75*
G02*
X235674986Y-59724173I43579J498098D01*
G01*
X245356725Y-58061666D02*
G75*
G02*
X245811244Y-58603341I-43578J-498097D01*
G01*
X245636933Y-60595730D02*
G75*
G02*
X245095258Y-61050251I-498098J43577D01*
G01*
%TO.C,Switch3*%
X74900000Y-27962349D02*
X74900000Y-25962349D01*
X84600000Y-25462349D02*
X75400001Y-25462349D01*
X84600000Y-28462349D02*
X75400000Y-28462348D01*
X85100000Y-25962349D02*
X85100000Y-27962349D01*
X74900000Y-25962349D02*
G75*
G02*
X75400000Y-25462349I500001J-1D01*
G01*
X75400000Y-28462349D02*
G75*
G02*
X74900000Y-27962349I1J500001D01*
G01*
X84600000Y-25462349D02*
G75*
G02*
X85100000Y-25962349I0J-500000D01*
G01*
X85100000Y-27962349D02*
G75*
G02*
X84600000Y-28462349I-500000J0D01*
G01*
%TO.C,SwitchR_7*%
X194000001Y-58000000D02*
X194000000Y-56000000D01*
X203500000Y-55500000D02*
X194500000Y-55500000D01*
X203500000Y-58500000D02*
X194500000Y-58500000D01*
X204000000Y-56000000D02*
X204000000Y-58000000D01*
X194000000Y-56000000D02*
G75*
G02*
X194500000Y-55500000I500001J-1D01*
G01*
X194500000Y-58500000D02*
G75*
G02*
X194000000Y-58000000I1J500001D01*
G01*
X203500000Y-55500000D02*
G75*
G02*
X204000000Y-56000000I0J-500000D01*
G01*
X204000000Y-58000000D02*
G75*
G02*
X203500000Y-58500000I-500000J0D01*
G01*
%TO.C,Switch9*%
X94900000Y-57962349D02*
X94900000Y-55962349D01*
X104600000Y-55462349D02*
X95400001Y-55462349D01*
X104600000Y-58462349D02*
X95400000Y-58462348D01*
X105100000Y-55962349D02*
X105100000Y-57962349D01*
X94900000Y-55962349D02*
G75*
G02*
X95400000Y-55462349I500001J-1D01*
G01*
X95400000Y-58462349D02*
G75*
G02*
X94900000Y-57962349I1J500001D01*
G01*
X104600000Y-55462349D02*
G75*
G02*
X105100000Y-55962349I0J-500000D01*
G01*
X105100000Y-57962349D02*
G75*
G02*
X104600000Y-58462349I-500000J0D01*
G01*
%TO.C,SwitchR_12*%
X194000001Y-78000000D02*
X194000000Y-76000000D01*
X203500000Y-75500000D02*
X194500000Y-75500000D01*
X203500000Y-78500000D02*
X194500000Y-78500000D01*
X204000000Y-76000000D02*
X204000000Y-78000000D01*
X194000000Y-76000000D02*
G75*
G02*
X194500000Y-75500000I500001J-1D01*
G01*
X194500000Y-78500000D02*
G75*
G02*
X194000000Y-78000000I1J500001D01*
G01*
X203500000Y-75500000D02*
G75*
G02*
X204000000Y-76000000I0J-500000D01*
G01*
X204000000Y-78000000D02*
G75*
G02*
X203500000Y-78500000I-500000J0D01*
G01*
%TO.C,Switch1*%
X29000707Y-58854151D02*
X28584882Y-56897856D01*
X37773329Y-54433621D02*
X28970000Y-56304826D01*
X38366358Y-54818739D02*
X38782182Y-56775034D01*
X38397064Y-57368064D02*
X29593735Y-59239269D01*
X28584882Y-56897856D02*
G75*
G02*
X28970000Y-56304826I489075J103955D01*
G01*
X29593735Y-59239269D02*
G75*
G02*
X29000705Y-58854151I-103955J489075D01*
G01*
X37773329Y-54433621D02*
G75*
G02*
X38366359Y-54818739I103956J-489074D01*
G01*
X38782182Y-56775034D02*
G75*
G02*
X38397064Y-57368064I-489074J-103956D01*
G01*
%TO.C,Switch16*%
X103655912Y-100170636D02*
X104003209Y-98201021D01*
X113121723Y-102347427D02*
X104061492Y-100749863D01*
X113642668Y-99393004D02*
X104582438Y-97795441D01*
X114048248Y-99972232D02*
X113700951Y-101941847D01*
X104003209Y-98201021D02*
G75*
G02*
X104582437Y-97795442I492404J-86825D01*
G01*
X104061492Y-100749864D02*
G75*
G02*
X103655912Y-100170636I86825J492405D01*
G01*
X113642668Y-99393004D02*
G75*
G02*
X114048248Y-99972232I-86824J-492404D01*
G01*
X113700951Y-101941847D02*
G75*
G02*
X113121723Y-102347427I-492404J86824D01*
G01*
%TO.C,Switch11*%
X37317175Y-97980055D02*
X36901350Y-96023760D01*
X46089797Y-93559525D02*
X37286468Y-95430730D01*
X46682826Y-93944643D02*
X47098650Y-95900938D01*
X46713532Y-96493968D02*
X37910203Y-98365173D01*
X36901350Y-96023760D02*
G75*
G02*
X37286468Y-95430730I489075J103955D01*
G01*
X37910203Y-98365173D02*
G75*
G02*
X37317173Y-97980055I-103955J489075D01*
G01*
X46089797Y-93559525D02*
G75*
G02*
X46682827Y-93944643I103956J-489074D01*
G01*
X47098650Y-95900938D02*
G75*
G02*
X46713532Y-96493968I-489074J-103956D01*
G01*
%TD*%
M02*
