%TF.GenerationSoftware,KiCad,Pcbnew,9.0.0*%
%TF.CreationDate,2025-11-03T03:19:49-06:00*%
%TF.ProjectId,Mau Keys,4d617520-4b65-4797-932e-6b696361645f,rev?*%
%TF.SameCoordinates,Original*%
%TF.FileFunction,Soldermask,Top*%
%TF.FilePolarity,Negative*%
%FSLAX46Y46*%
G04 Gerber Fmt 4.6, Leading zero omitted, Abs format (unit mm)*
G04 Created by KiCad (PCBNEW 9.0.0) date 2025-11-03 03:19:49*
%MOMM*%
%LPD*%
G01*
G04 APERTURE LIST*
%ADD10R,1.700000X0.900000*%
%ADD11C,1.752600*%
%ADD12R,0.900000X1.250000*%
%ADD13R,0.900000X0.900000*%
%ADD14C,1.000000*%
G04 APERTURE END LIST*
D10*
%TO.C,RSW1*%
X139700000Y-103300000D03*
X139700000Y-99900000D03*
%TD*%
D11*
%TO.C,NNV2*%
X129540000Y-66040000D03*
X129540000Y-68580000D03*
X129540000Y-71120000D03*
X129540000Y-73660000D03*
X129540000Y-76200000D03*
X129540000Y-78740000D03*
X129540000Y-81280000D03*
X129540000Y-83820000D03*
X129540000Y-86360000D03*
X129540000Y-88900000D03*
X129540000Y-91440000D03*
X129540000Y-93980000D03*
X129540000Y-96520000D03*
X144780000Y-66040000D03*
X144780000Y-68580000D03*
X144780000Y-71120000D03*
X144780000Y-73660000D03*
X144780000Y-76200000D03*
X144780000Y-78740000D03*
X144780000Y-81280000D03*
X144780000Y-83820000D03*
X144780000Y-86360000D03*
X144780000Y-88900000D03*
X144780000Y-91440000D03*
X144780000Y-93980000D03*
X144780000Y-96520000D03*
X132080000Y-91440000D03*
X134620000Y-91440000D03*
X137160000Y-91440000D03*
%TD*%
D10*
%TO.C,RSW2*%
X162560000Y-103300000D03*
X162560000Y-99900000D03*
%TD*%
D11*
%TO.C,NNV2_R1*%
X157480000Y-66040000D03*
X157480000Y-68580000D03*
X157480000Y-71120000D03*
X157480000Y-73660000D03*
X157480000Y-76200000D03*
X157480000Y-78740000D03*
X157480000Y-81280000D03*
X157480000Y-83820000D03*
X157480000Y-86360000D03*
X157480000Y-88900000D03*
X157480000Y-91440000D03*
X157480000Y-93980000D03*
X157480000Y-96520000D03*
X172720000Y-66040000D03*
X172720000Y-68580000D03*
X172720000Y-71120000D03*
X172720000Y-73660000D03*
X172720000Y-76200000D03*
X172720000Y-78740000D03*
X172720000Y-81280000D03*
X172720000Y-83820000D03*
X172720000Y-86360000D03*
X172720000Y-88900000D03*
X172720000Y-91440000D03*
X172720000Y-93980000D03*
X172720000Y-96520000D03*
X160020000Y-91440000D03*
X162560000Y-91440000D03*
X165100000Y-91440000D03*
%TD*%
D12*
%TO.C,SW_POWER1*%
X134910000Y-68115000D03*
X136410000Y-68115000D03*
X139410000Y-68115000D03*
D13*
X140860000Y-67140000D03*
X140860000Y-64940000D03*
X133460000Y-67140000D03*
X133460000Y-64940000D03*
D14*
X138660000Y-66040000D03*
X135660000Y-66040000D03*
%TD*%
%TO.C,SW_POWER2*%
X163605000Y-66045000D03*
X166605000Y-66045000D03*
D13*
X161405000Y-64945000D03*
X161405000Y-67145000D03*
X168805000Y-64945000D03*
X168805000Y-67145000D03*
D12*
X167355000Y-68120000D03*
X164355000Y-68120000D03*
X162855000Y-68120000D03*
%TD*%
M02*
