%TF.GenerationSoftware,KiCad,Pcbnew,9.0.0*%
%TF.CreationDate,2025-11-03T03:19:49-06:00*%
%TF.ProjectId,Mau Keys,4d617520-4b65-4797-932e-6b696361645f,rev?*%
%TF.SameCoordinates,Original*%
%TF.FileFunction,Legend,Top*%
%TF.FilePolarity,Positive*%
%FSLAX46Y46*%
G04 Gerber Fmt 4.6, Leading zero omitted, Abs format (unit mm)*
G04 Created by KiCad (PCBNEW 9.0.0) date 2025-11-03 03:19:49*
%MOMM*%
%LPD*%
G01*
G04 APERTURE LIST*
%ADD10C,0.300000*%
%ADD11C,0.150000*%
%ADD12C,0.120000*%
%ADD13C,1.752600*%
G04 APERTURE END LIST*
D10*
X78688572Y-113041757D02*
X78545715Y-112970328D01*
X78545715Y-112970328D02*
X78331429Y-112970328D01*
X78331429Y-112970328D02*
X78117143Y-113041757D01*
X78117143Y-113041757D02*
X77974286Y-113184614D01*
X77974286Y-113184614D02*
X77902857Y-113327471D01*
X77902857Y-113327471D02*
X77831429Y-113613185D01*
X77831429Y-113613185D02*
X77831429Y-113827471D01*
X77831429Y-113827471D02*
X77902857Y-114113185D01*
X77902857Y-114113185D02*
X77974286Y-114256042D01*
X77974286Y-114256042D02*
X78117143Y-114398900D01*
X78117143Y-114398900D02*
X78331429Y-114470328D01*
X78331429Y-114470328D02*
X78474286Y-114470328D01*
X78474286Y-114470328D02*
X78688572Y-114398900D01*
X78688572Y-114398900D02*
X78760000Y-114327471D01*
X78760000Y-114327471D02*
X78760000Y-113827471D01*
X78760000Y-113827471D02*
X78474286Y-113827471D01*
X79617143Y-112970328D02*
X79617143Y-113327471D01*
X79260000Y-113184614D02*
X79617143Y-113327471D01*
X79617143Y-113327471D02*
X79974286Y-113184614D01*
X79402857Y-113613185D02*
X79617143Y-113327471D01*
X79617143Y-113327471D02*
X79831429Y-113613185D01*
X80760000Y-112970328D02*
X80760000Y-113327471D01*
X80402857Y-113184614D02*
X80760000Y-113327471D01*
X80760000Y-113327471D02*
X81117143Y-113184614D01*
X80545714Y-113613185D02*
X80760000Y-113327471D01*
X80760000Y-113327471D02*
X80974286Y-113613185D01*
X81902857Y-112970328D02*
X81902857Y-113327471D01*
X81545714Y-113184614D02*
X81902857Y-113327471D01*
X81902857Y-113327471D02*
X82260000Y-113184614D01*
X81688571Y-113613185D02*
X81902857Y-113327471D01*
X81902857Y-113327471D02*
X82117143Y-113613185D01*
D11*
X130822810Y-65602295D02*
X130899000Y-65602295D01*
X130899000Y-65602295D02*
X130975191Y-65640390D01*
X130975191Y-65640390D02*
X131013286Y-65678485D01*
X131013286Y-65678485D02*
X131051381Y-65754676D01*
X131051381Y-65754676D02*
X131089476Y-65907057D01*
X131089476Y-65907057D02*
X131089476Y-66097533D01*
X131089476Y-66097533D02*
X131051381Y-66249914D01*
X131051381Y-66249914D02*
X131013286Y-66326104D01*
X131013286Y-66326104D02*
X130975191Y-66364200D01*
X130975191Y-66364200D02*
X130899000Y-66402295D01*
X130899000Y-66402295D02*
X130822810Y-66402295D01*
X130822810Y-66402295D02*
X130746619Y-66364200D01*
X130746619Y-66364200D02*
X130708524Y-66326104D01*
X130708524Y-66326104D02*
X130670429Y-66249914D01*
X130670429Y-66249914D02*
X130632333Y-66097533D01*
X130632333Y-66097533D02*
X130632333Y-65907057D01*
X130632333Y-65907057D02*
X130670429Y-65754676D01*
X130670429Y-65754676D02*
X130708524Y-65678485D01*
X130708524Y-65678485D02*
X130746619Y-65640390D01*
X130746619Y-65640390D02*
X130822810Y-65602295D01*
X131584715Y-65602295D02*
X131660905Y-65602295D01*
X131660905Y-65602295D02*
X131737096Y-65640390D01*
X131737096Y-65640390D02*
X131775191Y-65678485D01*
X131775191Y-65678485D02*
X131813286Y-65754676D01*
X131813286Y-65754676D02*
X131851381Y-65907057D01*
X131851381Y-65907057D02*
X131851381Y-66097533D01*
X131851381Y-66097533D02*
X131813286Y-66249914D01*
X131813286Y-66249914D02*
X131775191Y-66326104D01*
X131775191Y-66326104D02*
X131737096Y-66364200D01*
X131737096Y-66364200D02*
X131660905Y-66402295D01*
X131660905Y-66402295D02*
X131584715Y-66402295D01*
X131584715Y-66402295D02*
X131508524Y-66364200D01*
X131508524Y-66364200D02*
X131470429Y-66326104D01*
X131470429Y-66326104D02*
X131432334Y-66249914D01*
X131432334Y-66249914D02*
X131394238Y-66097533D01*
X131394238Y-66097533D02*
X131394238Y-65907057D01*
X131394238Y-65907057D02*
X131432334Y-65754676D01*
X131432334Y-65754676D02*
X131470429Y-65678485D01*
X131470429Y-65678485D02*
X131508524Y-65640390D01*
X131508524Y-65640390D02*
X131584715Y-65602295D01*
X132537096Y-65602295D02*
X132384715Y-65602295D01*
X132384715Y-65602295D02*
X132308524Y-65640390D01*
X132308524Y-65640390D02*
X132270429Y-65678485D01*
X132270429Y-65678485D02*
X132194239Y-65792771D01*
X132194239Y-65792771D02*
X132156143Y-65945152D01*
X132156143Y-65945152D02*
X132156143Y-66249914D01*
X132156143Y-66249914D02*
X132194239Y-66326104D01*
X132194239Y-66326104D02*
X132232334Y-66364200D01*
X132232334Y-66364200D02*
X132308524Y-66402295D01*
X132308524Y-66402295D02*
X132460905Y-66402295D01*
X132460905Y-66402295D02*
X132537096Y-66364200D01*
X132537096Y-66364200D02*
X132575191Y-66326104D01*
X132575191Y-66326104D02*
X132613286Y-66249914D01*
X132613286Y-66249914D02*
X132613286Y-66059438D01*
X132613286Y-66059438D02*
X132575191Y-65983247D01*
X132575191Y-65983247D02*
X132537096Y-65945152D01*
X132537096Y-65945152D02*
X132460905Y-65907057D01*
X132460905Y-65907057D02*
X132308524Y-65907057D01*
X132308524Y-65907057D02*
X132232334Y-65945152D01*
X132232334Y-65945152D02*
X132194239Y-65983247D01*
X132194239Y-65983247D02*
X132156143Y-66059438D01*
X131089476Y-70720390D02*
X131013286Y-70682295D01*
X131013286Y-70682295D02*
X130899000Y-70682295D01*
X130899000Y-70682295D02*
X130784714Y-70720390D01*
X130784714Y-70720390D02*
X130708524Y-70796580D01*
X130708524Y-70796580D02*
X130670429Y-70872771D01*
X130670429Y-70872771D02*
X130632333Y-71025152D01*
X130632333Y-71025152D02*
X130632333Y-71139438D01*
X130632333Y-71139438D02*
X130670429Y-71291819D01*
X130670429Y-71291819D02*
X130708524Y-71368009D01*
X130708524Y-71368009D02*
X130784714Y-71444200D01*
X130784714Y-71444200D02*
X130899000Y-71482295D01*
X130899000Y-71482295D02*
X130975191Y-71482295D01*
X130975191Y-71482295D02*
X131089476Y-71444200D01*
X131089476Y-71444200D02*
X131127572Y-71406104D01*
X131127572Y-71406104D02*
X131127572Y-71139438D01*
X131127572Y-71139438D02*
X130975191Y-71139438D01*
X131470429Y-71482295D02*
X131470429Y-70682295D01*
X131470429Y-70682295D02*
X131927572Y-71482295D01*
X131927572Y-71482295D02*
X131927572Y-70682295D01*
X132308524Y-71482295D02*
X132308524Y-70682295D01*
X132308524Y-70682295D02*
X132499000Y-70682295D01*
X132499000Y-70682295D02*
X132613286Y-70720390D01*
X132613286Y-70720390D02*
X132689476Y-70796580D01*
X132689476Y-70796580D02*
X132727571Y-70872771D01*
X132727571Y-70872771D02*
X132765667Y-71025152D01*
X132765667Y-71025152D02*
X132765667Y-71139438D01*
X132765667Y-71139438D02*
X132727571Y-71291819D01*
X132727571Y-71291819D02*
X132689476Y-71368009D01*
X132689476Y-71368009D02*
X132613286Y-71444200D01*
X132613286Y-71444200D02*
X132499000Y-71482295D01*
X132499000Y-71482295D02*
X132308524Y-71482295D01*
X130822810Y-83382295D02*
X130899000Y-83382295D01*
X130899000Y-83382295D02*
X130975191Y-83420390D01*
X130975191Y-83420390D02*
X131013286Y-83458485D01*
X131013286Y-83458485D02*
X131051381Y-83534676D01*
X131051381Y-83534676D02*
X131089476Y-83687057D01*
X131089476Y-83687057D02*
X131089476Y-83877533D01*
X131089476Y-83877533D02*
X131051381Y-84029914D01*
X131051381Y-84029914D02*
X131013286Y-84106104D01*
X131013286Y-84106104D02*
X130975191Y-84144200D01*
X130975191Y-84144200D02*
X130899000Y-84182295D01*
X130899000Y-84182295D02*
X130822810Y-84182295D01*
X130822810Y-84182295D02*
X130746619Y-84144200D01*
X130746619Y-84144200D02*
X130708524Y-84106104D01*
X130708524Y-84106104D02*
X130670429Y-84029914D01*
X130670429Y-84029914D02*
X130632333Y-83877533D01*
X130632333Y-83877533D02*
X130632333Y-83687057D01*
X130632333Y-83687057D02*
X130670429Y-83534676D01*
X130670429Y-83534676D02*
X130708524Y-83458485D01*
X130708524Y-83458485D02*
X130746619Y-83420390D01*
X130746619Y-83420390D02*
X130822810Y-83382295D01*
X131394238Y-83458485D02*
X131432334Y-83420390D01*
X131432334Y-83420390D02*
X131508524Y-83382295D01*
X131508524Y-83382295D02*
X131699000Y-83382295D01*
X131699000Y-83382295D02*
X131775191Y-83420390D01*
X131775191Y-83420390D02*
X131813286Y-83458485D01*
X131813286Y-83458485D02*
X131851381Y-83534676D01*
X131851381Y-83534676D02*
X131851381Y-83610866D01*
X131851381Y-83610866D02*
X131813286Y-83725152D01*
X131813286Y-83725152D02*
X131356143Y-84182295D01*
X131356143Y-84182295D02*
X131851381Y-84182295D01*
X132537096Y-83648961D02*
X132537096Y-84182295D01*
X132346620Y-83344200D02*
X132156143Y-83915628D01*
X132156143Y-83915628D02*
X132651382Y-83915628D01*
X130822810Y-80872295D02*
X130899000Y-80872295D01*
X130899000Y-80872295D02*
X130975191Y-80910390D01*
X130975191Y-80910390D02*
X131013286Y-80948485D01*
X131013286Y-80948485D02*
X131051381Y-81024676D01*
X131051381Y-81024676D02*
X131089476Y-81177057D01*
X131089476Y-81177057D02*
X131089476Y-81367533D01*
X131089476Y-81367533D02*
X131051381Y-81519914D01*
X131051381Y-81519914D02*
X131013286Y-81596104D01*
X131013286Y-81596104D02*
X130975191Y-81634200D01*
X130975191Y-81634200D02*
X130899000Y-81672295D01*
X130899000Y-81672295D02*
X130822810Y-81672295D01*
X130822810Y-81672295D02*
X130746619Y-81634200D01*
X130746619Y-81634200D02*
X130708524Y-81596104D01*
X130708524Y-81596104D02*
X130670429Y-81519914D01*
X130670429Y-81519914D02*
X130632333Y-81367533D01*
X130632333Y-81367533D02*
X130632333Y-81177057D01*
X130632333Y-81177057D02*
X130670429Y-81024676D01*
X130670429Y-81024676D02*
X130708524Y-80948485D01*
X130708524Y-80948485D02*
X130746619Y-80910390D01*
X130746619Y-80910390D02*
X130822810Y-80872295D01*
X131394238Y-80948485D02*
X131432334Y-80910390D01*
X131432334Y-80910390D02*
X131508524Y-80872295D01*
X131508524Y-80872295D02*
X131699000Y-80872295D01*
X131699000Y-80872295D02*
X131775191Y-80910390D01*
X131775191Y-80910390D02*
X131813286Y-80948485D01*
X131813286Y-80948485D02*
X131851381Y-81024676D01*
X131851381Y-81024676D02*
X131851381Y-81100866D01*
X131851381Y-81100866D02*
X131813286Y-81215152D01*
X131813286Y-81215152D02*
X131356143Y-81672295D01*
X131356143Y-81672295D02*
X131851381Y-81672295D01*
X132156143Y-80948485D02*
X132194239Y-80910390D01*
X132194239Y-80910390D02*
X132270429Y-80872295D01*
X132270429Y-80872295D02*
X132460905Y-80872295D01*
X132460905Y-80872295D02*
X132537096Y-80910390D01*
X132537096Y-80910390D02*
X132575191Y-80948485D01*
X132575191Y-80948485D02*
X132613286Y-81024676D01*
X132613286Y-81024676D02*
X132613286Y-81100866D01*
X132613286Y-81100866D02*
X132575191Y-81215152D01*
X132575191Y-81215152D02*
X132118048Y-81672295D01*
X132118048Y-81672295D02*
X132613286Y-81672295D01*
X131089476Y-73260390D02*
X131013286Y-73222295D01*
X131013286Y-73222295D02*
X130899000Y-73222295D01*
X130899000Y-73222295D02*
X130784714Y-73260390D01*
X130784714Y-73260390D02*
X130708524Y-73336580D01*
X130708524Y-73336580D02*
X130670429Y-73412771D01*
X130670429Y-73412771D02*
X130632333Y-73565152D01*
X130632333Y-73565152D02*
X130632333Y-73679438D01*
X130632333Y-73679438D02*
X130670429Y-73831819D01*
X130670429Y-73831819D02*
X130708524Y-73908009D01*
X130708524Y-73908009D02*
X130784714Y-73984200D01*
X130784714Y-73984200D02*
X130899000Y-74022295D01*
X130899000Y-74022295D02*
X130975191Y-74022295D01*
X130975191Y-74022295D02*
X131089476Y-73984200D01*
X131089476Y-73984200D02*
X131127572Y-73946104D01*
X131127572Y-73946104D02*
X131127572Y-73679438D01*
X131127572Y-73679438D02*
X130975191Y-73679438D01*
X131470429Y-74022295D02*
X131470429Y-73222295D01*
X131470429Y-73222295D02*
X131927572Y-74022295D01*
X131927572Y-74022295D02*
X131927572Y-73222295D01*
X132308524Y-74022295D02*
X132308524Y-73222295D01*
X132308524Y-73222295D02*
X132499000Y-73222295D01*
X132499000Y-73222295D02*
X132613286Y-73260390D01*
X132613286Y-73260390D02*
X132689476Y-73336580D01*
X132689476Y-73336580D02*
X132727571Y-73412771D01*
X132727571Y-73412771D02*
X132765667Y-73565152D01*
X132765667Y-73565152D02*
X132765667Y-73679438D01*
X132765667Y-73679438D02*
X132727571Y-73831819D01*
X132727571Y-73831819D02*
X132689476Y-73908009D01*
X132689476Y-73908009D02*
X132613286Y-73984200D01*
X132613286Y-73984200D02*
X132499000Y-74022295D01*
X132499000Y-74022295D02*
X132308524Y-74022295D01*
X130822810Y-78372295D02*
X130899000Y-78372295D01*
X130899000Y-78372295D02*
X130975191Y-78410390D01*
X130975191Y-78410390D02*
X131013286Y-78448485D01*
X131013286Y-78448485D02*
X131051381Y-78524676D01*
X131051381Y-78524676D02*
X131089476Y-78677057D01*
X131089476Y-78677057D02*
X131089476Y-78867533D01*
X131089476Y-78867533D02*
X131051381Y-79019914D01*
X131051381Y-79019914D02*
X131013286Y-79096104D01*
X131013286Y-79096104D02*
X130975191Y-79134200D01*
X130975191Y-79134200D02*
X130899000Y-79172295D01*
X130899000Y-79172295D02*
X130822810Y-79172295D01*
X130822810Y-79172295D02*
X130746619Y-79134200D01*
X130746619Y-79134200D02*
X130708524Y-79096104D01*
X130708524Y-79096104D02*
X130670429Y-79019914D01*
X130670429Y-79019914D02*
X130632333Y-78867533D01*
X130632333Y-78867533D02*
X130632333Y-78677057D01*
X130632333Y-78677057D02*
X130670429Y-78524676D01*
X130670429Y-78524676D02*
X130708524Y-78448485D01*
X130708524Y-78448485D02*
X130746619Y-78410390D01*
X130746619Y-78410390D02*
X130822810Y-78372295D01*
X131394238Y-78448485D02*
X131432334Y-78410390D01*
X131432334Y-78410390D02*
X131508524Y-78372295D01*
X131508524Y-78372295D02*
X131699000Y-78372295D01*
X131699000Y-78372295D02*
X131775191Y-78410390D01*
X131775191Y-78410390D02*
X131813286Y-78448485D01*
X131813286Y-78448485D02*
X131851381Y-78524676D01*
X131851381Y-78524676D02*
X131851381Y-78600866D01*
X131851381Y-78600866D02*
X131813286Y-78715152D01*
X131813286Y-78715152D02*
X131356143Y-79172295D01*
X131356143Y-79172295D02*
X131851381Y-79172295D01*
X132346620Y-78372295D02*
X132422810Y-78372295D01*
X132422810Y-78372295D02*
X132499001Y-78410390D01*
X132499001Y-78410390D02*
X132537096Y-78448485D01*
X132537096Y-78448485D02*
X132575191Y-78524676D01*
X132575191Y-78524676D02*
X132613286Y-78677057D01*
X132613286Y-78677057D02*
X132613286Y-78867533D01*
X132613286Y-78867533D02*
X132575191Y-79019914D01*
X132575191Y-79019914D02*
X132537096Y-79096104D01*
X132537096Y-79096104D02*
X132499001Y-79134200D01*
X132499001Y-79134200D02*
X132422810Y-79172295D01*
X132422810Y-79172295D02*
X132346620Y-79172295D01*
X132346620Y-79172295D02*
X132270429Y-79134200D01*
X132270429Y-79134200D02*
X132232334Y-79096104D01*
X132232334Y-79096104D02*
X132194239Y-79019914D01*
X132194239Y-79019914D02*
X132156143Y-78867533D01*
X132156143Y-78867533D02*
X132156143Y-78677057D01*
X132156143Y-78677057D02*
X132194239Y-78524676D01*
X132194239Y-78524676D02*
X132232334Y-78448485D01*
X132232334Y-78448485D02*
X132270429Y-78410390D01*
X132270429Y-78410390D02*
X132346620Y-78372295D01*
X131089476Y-86722295D02*
X130632333Y-86722295D01*
X130860905Y-86722295D02*
X130860905Y-85922295D01*
X130860905Y-85922295D02*
X130784714Y-86036580D01*
X130784714Y-86036580D02*
X130708524Y-86112771D01*
X130708524Y-86112771D02*
X130632333Y-86150866D01*
X131584715Y-85922295D02*
X131660905Y-85922295D01*
X131660905Y-85922295D02*
X131737096Y-85960390D01*
X131737096Y-85960390D02*
X131775191Y-85998485D01*
X131775191Y-85998485D02*
X131813286Y-86074676D01*
X131813286Y-86074676D02*
X131851381Y-86227057D01*
X131851381Y-86227057D02*
X131851381Y-86417533D01*
X131851381Y-86417533D02*
X131813286Y-86569914D01*
X131813286Y-86569914D02*
X131775191Y-86646104D01*
X131775191Y-86646104D02*
X131737096Y-86684200D01*
X131737096Y-86684200D02*
X131660905Y-86722295D01*
X131660905Y-86722295D02*
X131584715Y-86722295D01*
X131584715Y-86722295D02*
X131508524Y-86684200D01*
X131508524Y-86684200D02*
X131470429Y-86646104D01*
X131470429Y-86646104D02*
X131432334Y-86569914D01*
X131432334Y-86569914D02*
X131394238Y-86417533D01*
X131394238Y-86417533D02*
X131394238Y-86227057D01*
X131394238Y-86227057D02*
X131432334Y-86074676D01*
X131432334Y-86074676D02*
X131470429Y-85998485D01*
X131470429Y-85998485D02*
X131508524Y-85960390D01*
X131508524Y-85960390D02*
X131584715Y-85922295D01*
X132346620Y-85922295D02*
X132422810Y-85922295D01*
X132422810Y-85922295D02*
X132499001Y-85960390D01*
X132499001Y-85960390D02*
X132537096Y-85998485D01*
X132537096Y-85998485D02*
X132575191Y-86074676D01*
X132575191Y-86074676D02*
X132613286Y-86227057D01*
X132613286Y-86227057D02*
X132613286Y-86417533D01*
X132613286Y-86417533D02*
X132575191Y-86569914D01*
X132575191Y-86569914D02*
X132537096Y-86646104D01*
X132537096Y-86646104D02*
X132499001Y-86684200D01*
X132499001Y-86684200D02*
X132422810Y-86722295D01*
X132422810Y-86722295D02*
X132346620Y-86722295D01*
X132346620Y-86722295D02*
X132270429Y-86684200D01*
X132270429Y-86684200D02*
X132232334Y-86646104D01*
X132232334Y-86646104D02*
X132194239Y-86569914D01*
X132194239Y-86569914D02*
X132156143Y-86417533D01*
X132156143Y-86417533D02*
X132156143Y-86227057D01*
X132156143Y-86227057D02*
X132194239Y-86074676D01*
X132194239Y-86074676D02*
X132232334Y-85998485D01*
X132232334Y-85998485D02*
X132270429Y-85960390D01*
X132270429Y-85960390D02*
X132346620Y-85922295D01*
X130822810Y-75772295D02*
X130899000Y-75772295D01*
X130899000Y-75772295D02*
X130975191Y-75810390D01*
X130975191Y-75810390D02*
X131013286Y-75848485D01*
X131013286Y-75848485D02*
X131051381Y-75924676D01*
X131051381Y-75924676D02*
X131089476Y-76077057D01*
X131089476Y-76077057D02*
X131089476Y-76267533D01*
X131089476Y-76267533D02*
X131051381Y-76419914D01*
X131051381Y-76419914D02*
X131013286Y-76496104D01*
X131013286Y-76496104D02*
X130975191Y-76534200D01*
X130975191Y-76534200D02*
X130899000Y-76572295D01*
X130899000Y-76572295D02*
X130822810Y-76572295D01*
X130822810Y-76572295D02*
X130746619Y-76534200D01*
X130746619Y-76534200D02*
X130708524Y-76496104D01*
X130708524Y-76496104D02*
X130670429Y-76419914D01*
X130670429Y-76419914D02*
X130632333Y-76267533D01*
X130632333Y-76267533D02*
X130632333Y-76077057D01*
X130632333Y-76077057D02*
X130670429Y-75924676D01*
X130670429Y-75924676D02*
X130708524Y-75848485D01*
X130708524Y-75848485D02*
X130746619Y-75810390D01*
X130746619Y-75810390D02*
X130822810Y-75772295D01*
X131851381Y-76572295D02*
X131394238Y-76572295D01*
X131622810Y-76572295D02*
X131622810Y-75772295D01*
X131622810Y-75772295D02*
X131546619Y-75886580D01*
X131546619Y-75886580D02*
X131470429Y-75962771D01*
X131470429Y-75962771D02*
X131394238Y-76000866D01*
X132118048Y-75772295D02*
X132651382Y-75772295D01*
X132651382Y-75772295D02*
X132308524Y-76572295D01*
X131089476Y-91802295D02*
X130632333Y-91802295D01*
X130860905Y-91802295D02*
X130860905Y-91002295D01*
X130860905Y-91002295D02*
X130784714Y-91116580D01*
X130784714Y-91116580D02*
X130708524Y-91192771D01*
X130708524Y-91192771D02*
X130632333Y-91230866D01*
X131584715Y-91002295D02*
X131660905Y-91002295D01*
X131660905Y-91002295D02*
X131737096Y-91040390D01*
X131737096Y-91040390D02*
X131775191Y-91078485D01*
X131775191Y-91078485D02*
X131813286Y-91154676D01*
X131813286Y-91154676D02*
X131851381Y-91307057D01*
X131851381Y-91307057D02*
X131851381Y-91497533D01*
X131851381Y-91497533D02*
X131813286Y-91649914D01*
X131813286Y-91649914D02*
X131775191Y-91726104D01*
X131775191Y-91726104D02*
X131737096Y-91764200D01*
X131737096Y-91764200D02*
X131660905Y-91802295D01*
X131660905Y-91802295D02*
X131584715Y-91802295D01*
X131584715Y-91802295D02*
X131508524Y-91764200D01*
X131508524Y-91764200D02*
X131470429Y-91726104D01*
X131470429Y-91726104D02*
X131432334Y-91649914D01*
X131432334Y-91649914D02*
X131394238Y-91497533D01*
X131394238Y-91497533D02*
X131394238Y-91307057D01*
X131394238Y-91307057D02*
X131432334Y-91154676D01*
X131432334Y-91154676D02*
X131470429Y-91078485D01*
X131470429Y-91078485D02*
X131508524Y-91040390D01*
X131508524Y-91040390D02*
X131584715Y-91002295D01*
X132537096Y-91268961D02*
X132537096Y-91802295D01*
X132346620Y-90964200D02*
X132156143Y-91535628D01*
X132156143Y-91535628D02*
X132651382Y-91535628D01*
X130822810Y-68072295D02*
X130899000Y-68072295D01*
X130899000Y-68072295D02*
X130975191Y-68110390D01*
X130975191Y-68110390D02*
X131013286Y-68148485D01*
X131013286Y-68148485D02*
X131051381Y-68224676D01*
X131051381Y-68224676D02*
X131089476Y-68377057D01*
X131089476Y-68377057D02*
X131089476Y-68567533D01*
X131089476Y-68567533D02*
X131051381Y-68719914D01*
X131051381Y-68719914D02*
X131013286Y-68796104D01*
X131013286Y-68796104D02*
X130975191Y-68834200D01*
X130975191Y-68834200D02*
X130899000Y-68872295D01*
X130899000Y-68872295D02*
X130822810Y-68872295D01*
X130822810Y-68872295D02*
X130746619Y-68834200D01*
X130746619Y-68834200D02*
X130708524Y-68796104D01*
X130708524Y-68796104D02*
X130670429Y-68719914D01*
X130670429Y-68719914D02*
X130632333Y-68567533D01*
X130632333Y-68567533D02*
X130632333Y-68377057D01*
X130632333Y-68377057D02*
X130670429Y-68224676D01*
X130670429Y-68224676D02*
X130708524Y-68148485D01*
X130708524Y-68148485D02*
X130746619Y-68110390D01*
X130746619Y-68110390D02*
X130822810Y-68072295D01*
X131584715Y-68072295D02*
X131660905Y-68072295D01*
X131660905Y-68072295D02*
X131737096Y-68110390D01*
X131737096Y-68110390D02*
X131775191Y-68148485D01*
X131775191Y-68148485D02*
X131813286Y-68224676D01*
X131813286Y-68224676D02*
X131851381Y-68377057D01*
X131851381Y-68377057D02*
X131851381Y-68567533D01*
X131851381Y-68567533D02*
X131813286Y-68719914D01*
X131813286Y-68719914D02*
X131775191Y-68796104D01*
X131775191Y-68796104D02*
X131737096Y-68834200D01*
X131737096Y-68834200D02*
X131660905Y-68872295D01*
X131660905Y-68872295D02*
X131584715Y-68872295D01*
X131584715Y-68872295D02*
X131508524Y-68834200D01*
X131508524Y-68834200D02*
X131470429Y-68796104D01*
X131470429Y-68796104D02*
X131432334Y-68719914D01*
X131432334Y-68719914D02*
X131394238Y-68567533D01*
X131394238Y-68567533D02*
X131394238Y-68377057D01*
X131394238Y-68377057D02*
X131432334Y-68224676D01*
X131432334Y-68224676D02*
X131470429Y-68148485D01*
X131470429Y-68148485D02*
X131508524Y-68110390D01*
X131508524Y-68110390D02*
X131584715Y-68072295D01*
X132308524Y-68415152D02*
X132232334Y-68377057D01*
X132232334Y-68377057D02*
X132194239Y-68338961D01*
X132194239Y-68338961D02*
X132156143Y-68262771D01*
X132156143Y-68262771D02*
X132156143Y-68224676D01*
X132156143Y-68224676D02*
X132194239Y-68148485D01*
X132194239Y-68148485D02*
X132232334Y-68110390D01*
X132232334Y-68110390D02*
X132308524Y-68072295D01*
X132308524Y-68072295D02*
X132460905Y-68072295D01*
X132460905Y-68072295D02*
X132537096Y-68110390D01*
X132537096Y-68110390D02*
X132575191Y-68148485D01*
X132575191Y-68148485D02*
X132613286Y-68224676D01*
X132613286Y-68224676D02*
X132613286Y-68262771D01*
X132613286Y-68262771D02*
X132575191Y-68338961D01*
X132575191Y-68338961D02*
X132537096Y-68377057D01*
X132537096Y-68377057D02*
X132460905Y-68415152D01*
X132460905Y-68415152D02*
X132308524Y-68415152D01*
X132308524Y-68415152D02*
X132232334Y-68453247D01*
X132232334Y-68453247D02*
X132194239Y-68491342D01*
X132194239Y-68491342D02*
X132156143Y-68567533D01*
X132156143Y-68567533D02*
X132156143Y-68719914D01*
X132156143Y-68719914D02*
X132194239Y-68796104D01*
X132194239Y-68796104D02*
X132232334Y-68834200D01*
X132232334Y-68834200D02*
X132308524Y-68872295D01*
X132308524Y-68872295D02*
X132460905Y-68872295D01*
X132460905Y-68872295D02*
X132537096Y-68834200D01*
X132537096Y-68834200D02*
X132575191Y-68796104D01*
X132575191Y-68796104D02*
X132613286Y-68719914D01*
X132613286Y-68719914D02*
X132613286Y-68567533D01*
X132613286Y-68567533D02*
X132575191Y-68491342D01*
X132575191Y-68491342D02*
X132537096Y-68453247D01*
X132537096Y-68453247D02*
X132460905Y-68415152D01*
X158762810Y-65602295D02*
X158839000Y-65602295D01*
X158839000Y-65602295D02*
X158915191Y-65640390D01*
X158915191Y-65640390D02*
X158953286Y-65678485D01*
X158953286Y-65678485D02*
X158991381Y-65754676D01*
X158991381Y-65754676D02*
X159029476Y-65907057D01*
X159029476Y-65907057D02*
X159029476Y-66097533D01*
X159029476Y-66097533D02*
X158991381Y-66249914D01*
X158991381Y-66249914D02*
X158953286Y-66326104D01*
X158953286Y-66326104D02*
X158915191Y-66364200D01*
X158915191Y-66364200D02*
X158839000Y-66402295D01*
X158839000Y-66402295D02*
X158762810Y-66402295D01*
X158762810Y-66402295D02*
X158686619Y-66364200D01*
X158686619Y-66364200D02*
X158648524Y-66326104D01*
X158648524Y-66326104D02*
X158610429Y-66249914D01*
X158610429Y-66249914D02*
X158572333Y-66097533D01*
X158572333Y-66097533D02*
X158572333Y-65907057D01*
X158572333Y-65907057D02*
X158610429Y-65754676D01*
X158610429Y-65754676D02*
X158648524Y-65678485D01*
X158648524Y-65678485D02*
X158686619Y-65640390D01*
X158686619Y-65640390D02*
X158762810Y-65602295D01*
X159524715Y-65602295D02*
X159600905Y-65602295D01*
X159600905Y-65602295D02*
X159677096Y-65640390D01*
X159677096Y-65640390D02*
X159715191Y-65678485D01*
X159715191Y-65678485D02*
X159753286Y-65754676D01*
X159753286Y-65754676D02*
X159791381Y-65907057D01*
X159791381Y-65907057D02*
X159791381Y-66097533D01*
X159791381Y-66097533D02*
X159753286Y-66249914D01*
X159753286Y-66249914D02*
X159715191Y-66326104D01*
X159715191Y-66326104D02*
X159677096Y-66364200D01*
X159677096Y-66364200D02*
X159600905Y-66402295D01*
X159600905Y-66402295D02*
X159524715Y-66402295D01*
X159524715Y-66402295D02*
X159448524Y-66364200D01*
X159448524Y-66364200D02*
X159410429Y-66326104D01*
X159410429Y-66326104D02*
X159372334Y-66249914D01*
X159372334Y-66249914D02*
X159334238Y-66097533D01*
X159334238Y-66097533D02*
X159334238Y-65907057D01*
X159334238Y-65907057D02*
X159372334Y-65754676D01*
X159372334Y-65754676D02*
X159410429Y-65678485D01*
X159410429Y-65678485D02*
X159448524Y-65640390D01*
X159448524Y-65640390D02*
X159524715Y-65602295D01*
X160477096Y-65602295D02*
X160324715Y-65602295D01*
X160324715Y-65602295D02*
X160248524Y-65640390D01*
X160248524Y-65640390D02*
X160210429Y-65678485D01*
X160210429Y-65678485D02*
X160134239Y-65792771D01*
X160134239Y-65792771D02*
X160096143Y-65945152D01*
X160096143Y-65945152D02*
X160096143Y-66249914D01*
X160096143Y-66249914D02*
X160134239Y-66326104D01*
X160134239Y-66326104D02*
X160172334Y-66364200D01*
X160172334Y-66364200D02*
X160248524Y-66402295D01*
X160248524Y-66402295D02*
X160400905Y-66402295D01*
X160400905Y-66402295D02*
X160477096Y-66364200D01*
X160477096Y-66364200D02*
X160515191Y-66326104D01*
X160515191Y-66326104D02*
X160553286Y-66249914D01*
X160553286Y-66249914D02*
X160553286Y-66059438D01*
X160553286Y-66059438D02*
X160515191Y-65983247D01*
X160515191Y-65983247D02*
X160477096Y-65945152D01*
X160477096Y-65945152D02*
X160400905Y-65907057D01*
X160400905Y-65907057D02*
X160248524Y-65907057D01*
X160248524Y-65907057D02*
X160172334Y-65945152D01*
X160172334Y-65945152D02*
X160134239Y-65983247D01*
X160134239Y-65983247D02*
X160096143Y-66059438D01*
X159029476Y-70720390D02*
X158953286Y-70682295D01*
X158953286Y-70682295D02*
X158839000Y-70682295D01*
X158839000Y-70682295D02*
X158724714Y-70720390D01*
X158724714Y-70720390D02*
X158648524Y-70796580D01*
X158648524Y-70796580D02*
X158610429Y-70872771D01*
X158610429Y-70872771D02*
X158572333Y-71025152D01*
X158572333Y-71025152D02*
X158572333Y-71139438D01*
X158572333Y-71139438D02*
X158610429Y-71291819D01*
X158610429Y-71291819D02*
X158648524Y-71368009D01*
X158648524Y-71368009D02*
X158724714Y-71444200D01*
X158724714Y-71444200D02*
X158839000Y-71482295D01*
X158839000Y-71482295D02*
X158915191Y-71482295D01*
X158915191Y-71482295D02*
X159029476Y-71444200D01*
X159029476Y-71444200D02*
X159067572Y-71406104D01*
X159067572Y-71406104D02*
X159067572Y-71139438D01*
X159067572Y-71139438D02*
X158915191Y-71139438D01*
X159410429Y-71482295D02*
X159410429Y-70682295D01*
X159410429Y-70682295D02*
X159867572Y-71482295D01*
X159867572Y-71482295D02*
X159867572Y-70682295D01*
X160248524Y-71482295D02*
X160248524Y-70682295D01*
X160248524Y-70682295D02*
X160439000Y-70682295D01*
X160439000Y-70682295D02*
X160553286Y-70720390D01*
X160553286Y-70720390D02*
X160629476Y-70796580D01*
X160629476Y-70796580D02*
X160667571Y-70872771D01*
X160667571Y-70872771D02*
X160705667Y-71025152D01*
X160705667Y-71025152D02*
X160705667Y-71139438D01*
X160705667Y-71139438D02*
X160667571Y-71291819D01*
X160667571Y-71291819D02*
X160629476Y-71368009D01*
X160629476Y-71368009D02*
X160553286Y-71444200D01*
X160553286Y-71444200D02*
X160439000Y-71482295D01*
X160439000Y-71482295D02*
X160248524Y-71482295D01*
X158762810Y-83382295D02*
X158839000Y-83382295D01*
X158839000Y-83382295D02*
X158915191Y-83420390D01*
X158915191Y-83420390D02*
X158953286Y-83458485D01*
X158953286Y-83458485D02*
X158991381Y-83534676D01*
X158991381Y-83534676D02*
X159029476Y-83687057D01*
X159029476Y-83687057D02*
X159029476Y-83877533D01*
X159029476Y-83877533D02*
X158991381Y-84029914D01*
X158991381Y-84029914D02*
X158953286Y-84106104D01*
X158953286Y-84106104D02*
X158915191Y-84144200D01*
X158915191Y-84144200D02*
X158839000Y-84182295D01*
X158839000Y-84182295D02*
X158762810Y-84182295D01*
X158762810Y-84182295D02*
X158686619Y-84144200D01*
X158686619Y-84144200D02*
X158648524Y-84106104D01*
X158648524Y-84106104D02*
X158610429Y-84029914D01*
X158610429Y-84029914D02*
X158572333Y-83877533D01*
X158572333Y-83877533D02*
X158572333Y-83687057D01*
X158572333Y-83687057D02*
X158610429Y-83534676D01*
X158610429Y-83534676D02*
X158648524Y-83458485D01*
X158648524Y-83458485D02*
X158686619Y-83420390D01*
X158686619Y-83420390D02*
X158762810Y-83382295D01*
X159334238Y-83458485D02*
X159372334Y-83420390D01*
X159372334Y-83420390D02*
X159448524Y-83382295D01*
X159448524Y-83382295D02*
X159639000Y-83382295D01*
X159639000Y-83382295D02*
X159715191Y-83420390D01*
X159715191Y-83420390D02*
X159753286Y-83458485D01*
X159753286Y-83458485D02*
X159791381Y-83534676D01*
X159791381Y-83534676D02*
X159791381Y-83610866D01*
X159791381Y-83610866D02*
X159753286Y-83725152D01*
X159753286Y-83725152D02*
X159296143Y-84182295D01*
X159296143Y-84182295D02*
X159791381Y-84182295D01*
X160477096Y-83648961D02*
X160477096Y-84182295D01*
X160286620Y-83344200D02*
X160096143Y-83915628D01*
X160096143Y-83915628D02*
X160591382Y-83915628D01*
X158762810Y-80872295D02*
X158839000Y-80872295D01*
X158839000Y-80872295D02*
X158915191Y-80910390D01*
X158915191Y-80910390D02*
X158953286Y-80948485D01*
X158953286Y-80948485D02*
X158991381Y-81024676D01*
X158991381Y-81024676D02*
X159029476Y-81177057D01*
X159029476Y-81177057D02*
X159029476Y-81367533D01*
X159029476Y-81367533D02*
X158991381Y-81519914D01*
X158991381Y-81519914D02*
X158953286Y-81596104D01*
X158953286Y-81596104D02*
X158915191Y-81634200D01*
X158915191Y-81634200D02*
X158839000Y-81672295D01*
X158839000Y-81672295D02*
X158762810Y-81672295D01*
X158762810Y-81672295D02*
X158686619Y-81634200D01*
X158686619Y-81634200D02*
X158648524Y-81596104D01*
X158648524Y-81596104D02*
X158610429Y-81519914D01*
X158610429Y-81519914D02*
X158572333Y-81367533D01*
X158572333Y-81367533D02*
X158572333Y-81177057D01*
X158572333Y-81177057D02*
X158610429Y-81024676D01*
X158610429Y-81024676D02*
X158648524Y-80948485D01*
X158648524Y-80948485D02*
X158686619Y-80910390D01*
X158686619Y-80910390D02*
X158762810Y-80872295D01*
X159334238Y-80948485D02*
X159372334Y-80910390D01*
X159372334Y-80910390D02*
X159448524Y-80872295D01*
X159448524Y-80872295D02*
X159639000Y-80872295D01*
X159639000Y-80872295D02*
X159715191Y-80910390D01*
X159715191Y-80910390D02*
X159753286Y-80948485D01*
X159753286Y-80948485D02*
X159791381Y-81024676D01*
X159791381Y-81024676D02*
X159791381Y-81100866D01*
X159791381Y-81100866D02*
X159753286Y-81215152D01*
X159753286Y-81215152D02*
X159296143Y-81672295D01*
X159296143Y-81672295D02*
X159791381Y-81672295D01*
X160096143Y-80948485D02*
X160134239Y-80910390D01*
X160134239Y-80910390D02*
X160210429Y-80872295D01*
X160210429Y-80872295D02*
X160400905Y-80872295D01*
X160400905Y-80872295D02*
X160477096Y-80910390D01*
X160477096Y-80910390D02*
X160515191Y-80948485D01*
X160515191Y-80948485D02*
X160553286Y-81024676D01*
X160553286Y-81024676D02*
X160553286Y-81100866D01*
X160553286Y-81100866D02*
X160515191Y-81215152D01*
X160515191Y-81215152D02*
X160058048Y-81672295D01*
X160058048Y-81672295D02*
X160553286Y-81672295D01*
X159029476Y-73260390D02*
X158953286Y-73222295D01*
X158953286Y-73222295D02*
X158839000Y-73222295D01*
X158839000Y-73222295D02*
X158724714Y-73260390D01*
X158724714Y-73260390D02*
X158648524Y-73336580D01*
X158648524Y-73336580D02*
X158610429Y-73412771D01*
X158610429Y-73412771D02*
X158572333Y-73565152D01*
X158572333Y-73565152D02*
X158572333Y-73679438D01*
X158572333Y-73679438D02*
X158610429Y-73831819D01*
X158610429Y-73831819D02*
X158648524Y-73908009D01*
X158648524Y-73908009D02*
X158724714Y-73984200D01*
X158724714Y-73984200D02*
X158839000Y-74022295D01*
X158839000Y-74022295D02*
X158915191Y-74022295D01*
X158915191Y-74022295D02*
X159029476Y-73984200D01*
X159029476Y-73984200D02*
X159067572Y-73946104D01*
X159067572Y-73946104D02*
X159067572Y-73679438D01*
X159067572Y-73679438D02*
X158915191Y-73679438D01*
X159410429Y-74022295D02*
X159410429Y-73222295D01*
X159410429Y-73222295D02*
X159867572Y-74022295D01*
X159867572Y-74022295D02*
X159867572Y-73222295D01*
X160248524Y-74022295D02*
X160248524Y-73222295D01*
X160248524Y-73222295D02*
X160439000Y-73222295D01*
X160439000Y-73222295D02*
X160553286Y-73260390D01*
X160553286Y-73260390D02*
X160629476Y-73336580D01*
X160629476Y-73336580D02*
X160667571Y-73412771D01*
X160667571Y-73412771D02*
X160705667Y-73565152D01*
X160705667Y-73565152D02*
X160705667Y-73679438D01*
X160705667Y-73679438D02*
X160667571Y-73831819D01*
X160667571Y-73831819D02*
X160629476Y-73908009D01*
X160629476Y-73908009D02*
X160553286Y-73984200D01*
X160553286Y-73984200D02*
X160439000Y-74022295D01*
X160439000Y-74022295D02*
X160248524Y-74022295D01*
X158762810Y-78372295D02*
X158839000Y-78372295D01*
X158839000Y-78372295D02*
X158915191Y-78410390D01*
X158915191Y-78410390D02*
X158953286Y-78448485D01*
X158953286Y-78448485D02*
X158991381Y-78524676D01*
X158991381Y-78524676D02*
X159029476Y-78677057D01*
X159029476Y-78677057D02*
X159029476Y-78867533D01*
X159029476Y-78867533D02*
X158991381Y-79019914D01*
X158991381Y-79019914D02*
X158953286Y-79096104D01*
X158953286Y-79096104D02*
X158915191Y-79134200D01*
X158915191Y-79134200D02*
X158839000Y-79172295D01*
X158839000Y-79172295D02*
X158762810Y-79172295D01*
X158762810Y-79172295D02*
X158686619Y-79134200D01*
X158686619Y-79134200D02*
X158648524Y-79096104D01*
X158648524Y-79096104D02*
X158610429Y-79019914D01*
X158610429Y-79019914D02*
X158572333Y-78867533D01*
X158572333Y-78867533D02*
X158572333Y-78677057D01*
X158572333Y-78677057D02*
X158610429Y-78524676D01*
X158610429Y-78524676D02*
X158648524Y-78448485D01*
X158648524Y-78448485D02*
X158686619Y-78410390D01*
X158686619Y-78410390D02*
X158762810Y-78372295D01*
X159334238Y-78448485D02*
X159372334Y-78410390D01*
X159372334Y-78410390D02*
X159448524Y-78372295D01*
X159448524Y-78372295D02*
X159639000Y-78372295D01*
X159639000Y-78372295D02*
X159715191Y-78410390D01*
X159715191Y-78410390D02*
X159753286Y-78448485D01*
X159753286Y-78448485D02*
X159791381Y-78524676D01*
X159791381Y-78524676D02*
X159791381Y-78600866D01*
X159791381Y-78600866D02*
X159753286Y-78715152D01*
X159753286Y-78715152D02*
X159296143Y-79172295D01*
X159296143Y-79172295D02*
X159791381Y-79172295D01*
X160286620Y-78372295D02*
X160362810Y-78372295D01*
X160362810Y-78372295D02*
X160439001Y-78410390D01*
X160439001Y-78410390D02*
X160477096Y-78448485D01*
X160477096Y-78448485D02*
X160515191Y-78524676D01*
X160515191Y-78524676D02*
X160553286Y-78677057D01*
X160553286Y-78677057D02*
X160553286Y-78867533D01*
X160553286Y-78867533D02*
X160515191Y-79019914D01*
X160515191Y-79019914D02*
X160477096Y-79096104D01*
X160477096Y-79096104D02*
X160439001Y-79134200D01*
X160439001Y-79134200D02*
X160362810Y-79172295D01*
X160362810Y-79172295D02*
X160286620Y-79172295D01*
X160286620Y-79172295D02*
X160210429Y-79134200D01*
X160210429Y-79134200D02*
X160172334Y-79096104D01*
X160172334Y-79096104D02*
X160134239Y-79019914D01*
X160134239Y-79019914D02*
X160096143Y-78867533D01*
X160096143Y-78867533D02*
X160096143Y-78677057D01*
X160096143Y-78677057D02*
X160134239Y-78524676D01*
X160134239Y-78524676D02*
X160172334Y-78448485D01*
X160172334Y-78448485D02*
X160210429Y-78410390D01*
X160210429Y-78410390D02*
X160286620Y-78372295D01*
X159029476Y-86722295D02*
X158572333Y-86722295D01*
X158800905Y-86722295D02*
X158800905Y-85922295D01*
X158800905Y-85922295D02*
X158724714Y-86036580D01*
X158724714Y-86036580D02*
X158648524Y-86112771D01*
X158648524Y-86112771D02*
X158572333Y-86150866D01*
X159524715Y-85922295D02*
X159600905Y-85922295D01*
X159600905Y-85922295D02*
X159677096Y-85960390D01*
X159677096Y-85960390D02*
X159715191Y-85998485D01*
X159715191Y-85998485D02*
X159753286Y-86074676D01*
X159753286Y-86074676D02*
X159791381Y-86227057D01*
X159791381Y-86227057D02*
X159791381Y-86417533D01*
X159791381Y-86417533D02*
X159753286Y-86569914D01*
X159753286Y-86569914D02*
X159715191Y-86646104D01*
X159715191Y-86646104D02*
X159677096Y-86684200D01*
X159677096Y-86684200D02*
X159600905Y-86722295D01*
X159600905Y-86722295D02*
X159524715Y-86722295D01*
X159524715Y-86722295D02*
X159448524Y-86684200D01*
X159448524Y-86684200D02*
X159410429Y-86646104D01*
X159410429Y-86646104D02*
X159372334Y-86569914D01*
X159372334Y-86569914D02*
X159334238Y-86417533D01*
X159334238Y-86417533D02*
X159334238Y-86227057D01*
X159334238Y-86227057D02*
X159372334Y-86074676D01*
X159372334Y-86074676D02*
X159410429Y-85998485D01*
X159410429Y-85998485D02*
X159448524Y-85960390D01*
X159448524Y-85960390D02*
X159524715Y-85922295D01*
X160286620Y-85922295D02*
X160362810Y-85922295D01*
X160362810Y-85922295D02*
X160439001Y-85960390D01*
X160439001Y-85960390D02*
X160477096Y-85998485D01*
X160477096Y-85998485D02*
X160515191Y-86074676D01*
X160515191Y-86074676D02*
X160553286Y-86227057D01*
X160553286Y-86227057D02*
X160553286Y-86417533D01*
X160553286Y-86417533D02*
X160515191Y-86569914D01*
X160515191Y-86569914D02*
X160477096Y-86646104D01*
X160477096Y-86646104D02*
X160439001Y-86684200D01*
X160439001Y-86684200D02*
X160362810Y-86722295D01*
X160362810Y-86722295D02*
X160286620Y-86722295D01*
X160286620Y-86722295D02*
X160210429Y-86684200D01*
X160210429Y-86684200D02*
X160172334Y-86646104D01*
X160172334Y-86646104D02*
X160134239Y-86569914D01*
X160134239Y-86569914D02*
X160096143Y-86417533D01*
X160096143Y-86417533D02*
X160096143Y-86227057D01*
X160096143Y-86227057D02*
X160134239Y-86074676D01*
X160134239Y-86074676D02*
X160172334Y-85998485D01*
X160172334Y-85998485D02*
X160210429Y-85960390D01*
X160210429Y-85960390D02*
X160286620Y-85922295D01*
X158762810Y-75772295D02*
X158839000Y-75772295D01*
X158839000Y-75772295D02*
X158915191Y-75810390D01*
X158915191Y-75810390D02*
X158953286Y-75848485D01*
X158953286Y-75848485D02*
X158991381Y-75924676D01*
X158991381Y-75924676D02*
X159029476Y-76077057D01*
X159029476Y-76077057D02*
X159029476Y-76267533D01*
X159029476Y-76267533D02*
X158991381Y-76419914D01*
X158991381Y-76419914D02*
X158953286Y-76496104D01*
X158953286Y-76496104D02*
X158915191Y-76534200D01*
X158915191Y-76534200D02*
X158839000Y-76572295D01*
X158839000Y-76572295D02*
X158762810Y-76572295D01*
X158762810Y-76572295D02*
X158686619Y-76534200D01*
X158686619Y-76534200D02*
X158648524Y-76496104D01*
X158648524Y-76496104D02*
X158610429Y-76419914D01*
X158610429Y-76419914D02*
X158572333Y-76267533D01*
X158572333Y-76267533D02*
X158572333Y-76077057D01*
X158572333Y-76077057D02*
X158610429Y-75924676D01*
X158610429Y-75924676D02*
X158648524Y-75848485D01*
X158648524Y-75848485D02*
X158686619Y-75810390D01*
X158686619Y-75810390D02*
X158762810Y-75772295D01*
X159791381Y-76572295D02*
X159334238Y-76572295D01*
X159562810Y-76572295D02*
X159562810Y-75772295D01*
X159562810Y-75772295D02*
X159486619Y-75886580D01*
X159486619Y-75886580D02*
X159410429Y-75962771D01*
X159410429Y-75962771D02*
X159334238Y-76000866D01*
X160058048Y-75772295D02*
X160591382Y-75772295D01*
X160591382Y-75772295D02*
X160248524Y-76572295D01*
X159029476Y-91802295D02*
X158572333Y-91802295D01*
X158800905Y-91802295D02*
X158800905Y-91002295D01*
X158800905Y-91002295D02*
X158724714Y-91116580D01*
X158724714Y-91116580D02*
X158648524Y-91192771D01*
X158648524Y-91192771D02*
X158572333Y-91230866D01*
X159524715Y-91002295D02*
X159600905Y-91002295D01*
X159600905Y-91002295D02*
X159677096Y-91040390D01*
X159677096Y-91040390D02*
X159715191Y-91078485D01*
X159715191Y-91078485D02*
X159753286Y-91154676D01*
X159753286Y-91154676D02*
X159791381Y-91307057D01*
X159791381Y-91307057D02*
X159791381Y-91497533D01*
X159791381Y-91497533D02*
X159753286Y-91649914D01*
X159753286Y-91649914D02*
X159715191Y-91726104D01*
X159715191Y-91726104D02*
X159677096Y-91764200D01*
X159677096Y-91764200D02*
X159600905Y-91802295D01*
X159600905Y-91802295D02*
X159524715Y-91802295D01*
X159524715Y-91802295D02*
X159448524Y-91764200D01*
X159448524Y-91764200D02*
X159410429Y-91726104D01*
X159410429Y-91726104D02*
X159372334Y-91649914D01*
X159372334Y-91649914D02*
X159334238Y-91497533D01*
X159334238Y-91497533D02*
X159334238Y-91307057D01*
X159334238Y-91307057D02*
X159372334Y-91154676D01*
X159372334Y-91154676D02*
X159410429Y-91078485D01*
X159410429Y-91078485D02*
X159448524Y-91040390D01*
X159448524Y-91040390D02*
X159524715Y-91002295D01*
X160477096Y-91268961D02*
X160477096Y-91802295D01*
X160286620Y-90964200D02*
X160096143Y-91535628D01*
X160096143Y-91535628D02*
X160591382Y-91535628D01*
X158762810Y-68072295D02*
X158839000Y-68072295D01*
X158839000Y-68072295D02*
X158915191Y-68110390D01*
X158915191Y-68110390D02*
X158953286Y-68148485D01*
X158953286Y-68148485D02*
X158991381Y-68224676D01*
X158991381Y-68224676D02*
X159029476Y-68377057D01*
X159029476Y-68377057D02*
X159029476Y-68567533D01*
X159029476Y-68567533D02*
X158991381Y-68719914D01*
X158991381Y-68719914D02*
X158953286Y-68796104D01*
X158953286Y-68796104D02*
X158915191Y-68834200D01*
X158915191Y-68834200D02*
X158839000Y-68872295D01*
X158839000Y-68872295D02*
X158762810Y-68872295D01*
X158762810Y-68872295D02*
X158686619Y-68834200D01*
X158686619Y-68834200D02*
X158648524Y-68796104D01*
X158648524Y-68796104D02*
X158610429Y-68719914D01*
X158610429Y-68719914D02*
X158572333Y-68567533D01*
X158572333Y-68567533D02*
X158572333Y-68377057D01*
X158572333Y-68377057D02*
X158610429Y-68224676D01*
X158610429Y-68224676D02*
X158648524Y-68148485D01*
X158648524Y-68148485D02*
X158686619Y-68110390D01*
X158686619Y-68110390D02*
X158762810Y-68072295D01*
X159524715Y-68072295D02*
X159600905Y-68072295D01*
X159600905Y-68072295D02*
X159677096Y-68110390D01*
X159677096Y-68110390D02*
X159715191Y-68148485D01*
X159715191Y-68148485D02*
X159753286Y-68224676D01*
X159753286Y-68224676D02*
X159791381Y-68377057D01*
X159791381Y-68377057D02*
X159791381Y-68567533D01*
X159791381Y-68567533D02*
X159753286Y-68719914D01*
X159753286Y-68719914D02*
X159715191Y-68796104D01*
X159715191Y-68796104D02*
X159677096Y-68834200D01*
X159677096Y-68834200D02*
X159600905Y-68872295D01*
X159600905Y-68872295D02*
X159524715Y-68872295D01*
X159524715Y-68872295D02*
X159448524Y-68834200D01*
X159448524Y-68834200D02*
X159410429Y-68796104D01*
X159410429Y-68796104D02*
X159372334Y-68719914D01*
X159372334Y-68719914D02*
X159334238Y-68567533D01*
X159334238Y-68567533D02*
X159334238Y-68377057D01*
X159334238Y-68377057D02*
X159372334Y-68224676D01*
X159372334Y-68224676D02*
X159410429Y-68148485D01*
X159410429Y-68148485D02*
X159448524Y-68110390D01*
X159448524Y-68110390D02*
X159524715Y-68072295D01*
X160248524Y-68415152D02*
X160172334Y-68377057D01*
X160172334Y-68377057D02*
X160134239Y-68338961D01*
X160134239Y-68338961D02*
X160096143Y-68262771D01*
X160096143Y-68262771D02*
X160096143Y-68224676D01*
X160096143Y-68224676D02*
X160134239Y-68148485D01*
X160134239Y-68148485D02*
X160172334Y-68110390D01*
X160172334Y-68110390D02*
X160248524Y-68072295D01*
X160248524Y-68072295D02*
X160400905Y-68072295D01*
X160400905Y-68072295D02*
X160477096Y-68110390D01*
X160477096Y-68110390D02*
X160515191Y-68148485D01*
X160515191Y-68148485D02*
X160553286Y-68224676D01*
X160553286Y-68224676D02*
X160553286Y-68262771D01*
X160553286Y-68262771D02*
X160515191Y-68338961D01*
X160515191Y-68338961D02*
X160477096Y-68377057D01*
X160477096Y-68377057D02*
X160400905Y-68415152D01*
X160400905Y-68415152D02*
X160248524Y-68415152D01*
X160248524Y-68415152D02*
X160172334Y-68453247D01*
X160172334Y-68453247D02*
X160134239Y-68491342D01*
X160134239Y-68491342D02*
X160096143Y-68567533D01*
X160096143Y-68567533D02*
X160096143Y-68719914D01*
X160096143Y-68719914D02*
X160134239Y-68796104D01*
X160134239Y-68796104D02*
X160172334Y-68834200D01*
X160172334Y-68834200D02*
X160248524Y-68872295D01*
X160248524Y-68872295D02*
X160400905Y-68872295D01*
X160400905Y-68872295D02*
X160477096Y-68834200D01*
X160477096Y-68834200D02*
X160515191Y-68796104D01*
X160515191Y-68796104D02*
X160553286Y-68719914D01*
X160553286Y-68719914D02*
X160553286Y-68567533D01*
X160553286Y-68567533D02*
X160515191Y-68491342D01*
X160515191Y-68491342D02*
X160477096Y-68453247D01*
X160477096Y-68453247D02*
X160400905Y-68415152D01*
D10*
X220928572Y-113549757D02*
X220785715Y-113478328D01*
X220785715Y-113478328D02*
X220571429Y-113478328D01*
X220571429Y-113478328D02*
X220357143Y-113549757D01*
X220357143Y-113549757D02*
X220214286Y-113692614D01*
X220214286Y-113692614D02*
X220142857Y-113835471D01*
X220142857Y-113835471D02*
X220071429Y-114121185D01*
X220071429Y-114121185D02*
X220071429Y-114335471D01*
X220071429Y-114335471D02*
X220142857Y-114621185D01*
X220142857Y-114621185D02*
X220214286Y-114764042D01*
X220214286Y-114764042D02*
X220357143Y-114906900D01*
X220357143Y-114906900D02*
X220571429Y-114978328D01*
X220571429Y-114978328D02*
X220714286Y-114978328D01*
X220714286Y-114978328D02*
X220928572Y-114906900D01*
X220928572Y-114906900D02*
X221000000Y-114835471D01*
X221000000Y-114835471D02*
X221000000Y-114335471D01*
X221000000Y-114335471D02*
X220714286Y-114335471D01*
X221857143Y-113478328D02*
X221857143Y-113835471D01*
X221500000Y-113692614D02*
X221857143Y-113835471D01*
X221857143Y-113835471D02*
X222214286Y-113692614D01*
X221642857Y-114121185D02*
X221857143Y-113835471D01*
X221857143Y-113835471D02*
X222071429Y-114121185D01*
X223000000Y-113478328D02*
X223000000Y-113835471D01*
X222642857Y-113692614D02*
X223000000Y-113835471D01*
X223000000Y-113835471D02*
X223357143Y-113692614D01*
X222785714Y-114121185D02*
X223000000Y-113835471D01*
X223000000Y-113835471D02*
X223214286Y-114121185D01*
X224142857Y-113478328D02*
X224142857Y-113835471D01*
X223785714Y-113692614D02*
X224142857Y-113835471D01*
X224142857Y-113835471D02*
X224500000Y-113692614D01*
X223928571Y-114121185D02*
X224142857Y-113835471D01*
X224142857Y-113835471D02*
X224357143Y-114121185D01*
D12*
%TO.C,RSW1*%
X138300000Y-103250000D02*
X138300000Y-99950000D01*
X138600000Y-103250000D02*
X138300000Y-103250000D01*
X140800000Y-103250000D02*
X141100000Y-103250000D01*
X141100000Y-103250000D02*
X141100000Y-99950000D01*
X138300000Y-99950000D02*
X138600000Y-99950000D01*
X141100000Y-99950000D02*
X140800000Y-99950000D01*
%TO.C,NNV2*%
D10*
X128270000Y-64770000D02*
X146050000Y-64770000D01*
X146050000Y-97790000D01*
X128270000Y-97790000D01*
X128270000Y-64770000D01*
D12*
%TO.C,RSW2*%
X161160000Y-103250000D02*
X161160000Y-99950000D01*
X161460000Y-103250000D02*
X161160000Y-103250000D01*
X163660000Y-103250000D02*
X163960000Y-103250000D01*
X163960000Y-103250000D02*
X163960000Y-99950000D01*
X161160000Y-99950000D02*
X161460000Y-99950000D01*
X163960000Y-99950000D02*
X163660000Y-99950000D01*
%TO.C,NNV2_R1*%
D10*
X156210000Y-64770000D02*
X173990000Y-64770000D01*
X173990000Y-97790000D01*
X156210000Y-97790000D01*
X156210000Y-64770000D01*
%TD*%
D13*
%TO.C,NNV2*%
X129540000Y-66040000D03*
X129540000Y-68580000D03*
X129540000Y-71120000D03*
X129540000Y-73660000D03*
X129540000Y-76200000D03*
X129540000Y-78740000D03*
X129540000Y-81280000D03*
X129540000Y-83820000D03*
X129540000Y-86360000D03*
X129540000Y-88900000D03*
X129540000Y-91440000D03*
X129540000Y-93980000D03*
X129540000Y-96520000D03*
X144780000Y-66040000D03*
X144780000Y-68580000D03*
X144780000Y-71120000D03*
X144780000Y-73660000D03*
X144780000Y-76200000D03*
X144780000Y-78740000D03*
X144780000Y-81280000D03*
X144780000Y-83820000D03*
X144780000Y-86360000D03*
X144780000Y-88900000D03*
X144780000Y-91440000D03*
X144780000Y-93980000D03*
X144780000Y-96520000D03*
X132080000Y-91440000D03*
X134620000Y-91440000D03*
X137160000Y-91440000D03*
%TD*%
%TO.C,NNV2_R1*%
X157480000Y-66040000D03*
X157480000Y-68580000D03*
X157480000Y-71120000D03*
X157480000Y-73660000D03*
X157480000Y-76200000D03*
X157480000Y-78740000D03*
X157480000Y-81280000D03*
X157480000Y-83820000D03*
X157480000Y-86360000D03*
X157480000Y-88900000D03*
X157480000Y-91440000D03*
X157480000Y-93980000D03*
X157480000Y-96520000D03*
X172720000Y-66040000D03*
X172720000Y-68580000D03*
X172720000Y-71120000D03*
X172720000Y-73660000D03*
X172720000Y-76200000D03*
X172720000Y-78740000D03*
X172720000Y-81280000D03*
X172720000Y-83820000D03*
X172720000Y-86360000D03*
X172720000Y-88900000D03*
X172720000Y-91440000D03*
X172720000Y-93980000D03*
X172720000Y-96520000D03*
X160020000Y-91440000D03*
X162560000Y-91440000D03*
X165100000Y-91440000D03*
%TD*%
M02*
