M48
; DRILL file {KiCad 9.0.0} date 2025-11-03T03:19:47-0600
; FORMAT={-:-/ absolute / metric / decimal}
; #@! TF.CreationDate,2025-11-03T03:19:47-06:00
; #@! TF.GenerationSoftware,Kicad,Pcbnew,9.0.0
; #@! TF.FileFunction,NonPlated,1,2,NPTH
FMAT,2
METRIC
; #@! TA.AperFunction,NonPlated,NPTH,ComponentDrill
T1C0.900
; #@! TA.AperFunction,NonPlated,NPTH,ComponentDrill
T2C1.850
; #@! TA.AperFunction,NonPlated,NPTH,ComponentDrill
T3C4.900
%
G90
G05
T1
X135.66Y-66.04
X138.66Y-66.04
X163.605Y-66.045
X166.605Y-66.045
T2
X34.97Y-88.696
X37.811Y-107.483
X40.652Y-126.269
X42.792Y-80.231
X45.633Y-99.018
X48.474Y-117.804
X53.559Y-71.163
X55.215Y-90.091
X56.871Y-109.019
X61.897Y-63.206
X63.553Y-82.134
X65.209Y-101.061
X75.04Y-56.64
X75.04Y-75.64
X75.04Y-94.64
X84.04Y-49.44
X84.04Y-68.44
X84.04Y-87.44
X94.04Y-66.64
X94.04Y-85.64
X94.04Y-104.64
X100.532Y-126.892
X103.04Y-59.44
X103.04Y-78.44
X103.04Y-97.44
X110.548Y-121.188
X113.04Y-69.64
X113.04Y-88.64
X113.04Y-107.64
X119.298Y-129.864
X122.04Y-62.44
X122.04Y-81.44
X122.04Y-100.44
X129.314Y-124.161
X174.072Y-131.272
X180.22Y-69.64
X180.22Y-88.64
X180.22Y-107.64
X181.835Y-122.753
X189.22Y-62.44
X189.22Y-81.44
X189.22Y-100.44
X192.839Y-128.3
X199.22Y-66.64
X199.22Y-85.64
X199.22Y-104.64
X200.601Y-119.78
X208.22Y-59.44
X208.22Y-78.44
X208.22Y-97.44
X218.22Y-56.64
X218.22Y-75.64
X218.22Y-94.64
X227.22Y-49.44
X227.22Y-68.44
X227.22Y-87.44
X236.423Y-108.234
X238.079Y-89.306
X239.735Y-70.379
X246.017Y-101.846
X247.673Y-82.918
X249.329Y-63.991
X252.709Y-124.923
X255.55Y-106.137
X258.391Y-87.35
X262.685Y-119.15
X265.526Y-100.364
X268.367Y-81.577
T3
X38.881Y-84.464
X41.722Y-103.25
X44.563Y-122.037
X57.728Y-67.185
X59.384Y-86.112
X61.04Y-105.04
X79.54Y-53.04
X79.54Y-72.04
X79.54Y-91.04
X98.54Y-63.04
X98.54Y-82.04
X98.54Y-101.04
X105.54Y-124.04
X117.54Y-66.04
X117.54Y-85.04
X117.54Y-104.04
X124.306Y-127.012
X177.954Y-127.012
X184.72Y-66.04
X184.72Y-85.04
X184.72Y-104.04
X196.72Y-124.04
X203.72Y-63.04
X203.72Y-82.04
X203.72Y-101.04
X222.72Y-53.04
X222.72Y-72.04
X222.72Y-91.04
X241.22Y-105.04
X242.876Y-86.112
X244.532Y-67.185
X257.697Y-122.037
X260.538Y-103.25
X263.379Y-84.464
M30
