M48
; DRILL file {KiCad 9.0.0} date 2025-11-03T18:10:29-0600
; FORMAT={-:-/ absolute / metric / decimal}
; #@! TF.CreationDate,2025-11-03T18:10:29-06:00
; #@! TF.GenerationSoftware,Kicad,Pcbnew,9.0.0
; #@! TF.FileFunction,Plated,1,2,PTH
FMAT,2
METRIC
; #@! TA.AperFunction,Plated,PTH,ViaDrill
T1C0.300
; #@! TA.AperFunction,Plated,PTH,ComponentDrill
T2C0.500
; #@! TA.AperFunction,Plated,PTH,ComponentDrill
T3C1.092
; #@! TA.AperFunction,Plated,PTH,ComponentDrill
T4C2.200
%
G90
G05
T1
X142.24Y-89.916
X142.24Y-96.012
X166.37Y-83.185
X170.18Y-79.375
T3
X132.08Y-66.04
X132.08Y-68.58
X132.08Y-71.12
X132.08Y-73.66
X132.08Y-76.2
X132.08Y-78.74
X132.08Y-81.28
X132.08Y-83.82
X132.08Y-86.36
X132.08Y-88.9
X132.08Y-91.44
X132.08Y-93.98
X132.08Y-96.52
X134.62Y-91.44
X137.16Y-91.44
X139.7Y-91.44
X147.32Y-66.04
X147.32Y-68.58
X147.32Y-71.12
X147.32Y-73.66
X147.32Y-76.2
X147.32Y-78.74
X147.32Y-81.28
X147.32Y-83.82
X147.32Y-86.36
X147.32Y-88.9
X147.32Y-91.44
X147.32Y-93.98
X147.32Y-96.52
X157.48Y-66.04
X157.48Y-68.58
X157.48Y-71.12
X157.48Y-73.66
X157.48Y-76.2
X157.48Y-78.74
X157.48Y-81.28
X157.48Y-83.82
X157.48Y-86.36
X157.48Y-88.9
X157.48Y-91.44
X157.48Y-93.98
X157.48Y-96.52
X160.02Y-91.44
X162.56Y-91.44
X165.1Y-91.44
X172.72Y-66.04
X172.72Y-68.58
X172.72Y-71.12
X172.72Y-73.66
X172.72Y-76.2
X172.72Y-78.74
X172.72Y-81.28
X172.72Y-83.82
X172.72Y-86.36
X172.72Y-88.9
X172.72Y-91.44
X172.72Y-93.98
X172.72Y-96.52
T4
X39.37Y-93.98
X43.18Y-113.03
X52.07Y-78.486
X66.04Y-123.19
X70.612Y-95.758
X82.042Y-60.706
X92.202Y-93.726
X96.52Y-125.73
X107.442Y-70.612
X108.712Y-109.728
X131.826Y-133.35
X135.89Y-110.49
X139.7Y-73.66
X165.1Y-73.66
X168.91Y-110.49
X178.562Y-132.842
X194.31Y-69.342
X194.31Y-108.712
X208.28Y-125.73
X212.598Y-93.726
X222.758Y-60.706
X234.188Y-95.758
X238.76Y-123.19
X252.73Y-78.486
X262.89Y-111.506
X266.7Y-93.472
T2
G00X35.662Y-81.492
M15
G01X36.156Y-81.417
M16
G05
G00X38.503Y-100.278
M15
G01X38.997Y-100.203
M16
G05
G00X40.306Y-78.766
M15
G01X40.801Y-78.692
M16
G05
G00X41.344Y-119.064
M15
G01X41.838Y-118.99
M16
G05
G00X43.147Y-97.553
M15
G01X43.642Y-97.478
M16
G05
G00X45.989Y-116.339
M15
G01X46.483Y-116.264
M16
G05
G00X54.707Y-63.857
M15
G01X55.205Y-63.813
M16
G05
G00X56.363Y-82.784
M15
G01X56.861Y-82.741
M16
G05
G00X58.019Y-101.712
M15
G01X58.517Y-101.668
M16
G05
G00X59.514Y-61.428
M15
G01X60.012Y-61.385
M16
G05
G00X61.169Y-80.356
M15
G01X61.668Y-80.313
M16
G05
G00X62.825Y-99.284
M15
G01X63.324Y-99.24
M16
G05
G00X76.83Y-49.24
M15
G01X77.33Y-49.24
M16
G05
G00X76.83Y-68.24
M15
G01X77.33Y-68.24
M16
G05
G00X76.83Y-87.24
M15
G01X77.33Y-87.24
M16
G05
G00X81.83Y-47.24
M15
G01X82.33Y-47.24
M16
G05
G00X81.83Y-66.24
M15
G01X82.33Y-66.24
M16
G05
G00X81.83Y-85.24
M15
G01X82.33Y-85.24
M16
G05
G00X95.83Y-59.24
M15
G01X96.33Y-59.24
M16
G05
G00X95.83Y-78.24
M15
G01X96.33Y-78.24
M16
G05
G00X95.83Y-97.24
M15
G01X96.33Y-97.24
M16
G05
G00X100.83Y-57.24
M15
G01X101.33Y-57.24
M16
G05
G00X100.83Y-76.24
M15
G01X101.33Y-76.24
M16
G05
G00X100.83Y-95.24
M15
G01X101.33Y-95.24
M16
G05
G00X103.489Y-119.466
M15
G01X103.983Y-119.544
M16
G05
G00X108.74Y-118.272
M15
G01X109.234Y-118.351
M16
G05
G00X114.83Y-62.24
M15
G01X115.33Y-62.24
M16
G05
G00X114.83Y-81.24
M15
G01X115.33Y-81.24
M16
G05
G00X114.83Y-100.24
M15
G01X115.33Y-100.24
M16
G05
G00X119.83Y-60.24
M15
G01X120.33Y-60.24
M16
G05
G00X119.83Y-79.24
M15
G01X120.33Y-79.24
M16
G05
G00X119.83Y-98.24
M15
G01X120.33Y-98.24
M16
G05
G00X122.255Y-122.438
M15
G01X122.749Y-122.516
M16
G05
G00X127.506Y-121.245
M15
G01X128.0Y-121.323
M16
G05
G00X172.174Y-124.08
M15
G01X172.668Y-124.002
M16
G05
G00X176.8Y-121.323
M15
G01X177.294Y-121.245
M16
G05
G00X179.47Y-62.24
M15
G01X179.97Y-62.24
M16
G05
G00X179.47Y-81.24
M15
G01X179.97Y-81.24
M16
G05
G00X179.47Y-100.24
M15
G01X179.97Y-100.24
M16
G05
G00X184.47Y-60.24
M15
G01X184.97Y-60.24
M16
G05
G00X184.47Y-79.24
M15
G01X184.97Y-79.24
M16
G05
G00X184.47Y-98.24
M15
G01X184.97Y-98.24
M16
G05
G00X190.94Y-121.108
M15
G01X191.434Y-121.03
M16
G05
G00X195.566Y-118.351
M15
G01X196.06Y-118.272
M16
G05
G00X198.47Y-59.24
M15
G01X198.97Y-59.24
M16
G05
G00X198.47Y-78.24
M15
G01X198.97Y-78.24
M16
G05
G00X198.47Y-97.24
M15
G01X198.97Y-97.24
M16
G05
G00X203.47Y-57.24
M15
G01X203.97Y-57.24
M16
G05
G00X203.47Y-76.24
M15
G01X203.97Y-76.24
M16
G05
G00X203.47Y-95.24
M15
G01X203.97Y-95.24
M16
G05
G00X217.47Y-49.24
M15
G01X217.97Y-49.24
M16
G05
G00X217.47Y-68.24
M15
G01X217.97Y-68.24
M16
G05
G00X217.47Y-87.24
M15
G01X217.97Y-87.24
M16
G05
G00X222.47Y-47.24
M15
G01X222.97Y-47.24
M16
G05
G00X222.47Y-66.24
M15
G01X222.97Y-66.24
M16
G05
G00X222.47Y-85.24
M15
G01X222.97Y-85.24
M16
G05
G00X236.321Y-100.797
M15
G01X236.819Y-100.84
M16
G05
G00X237.977Y-81.869
M15
G01X238.475Y-81.913
M16
G05
G00X239.633Y-62.941
M15
G01X240.131Y-62.985
M16
G05
G00X241.476Y-99.24
M15
G01X241.975Y-99.284
M16
G05
G00X243.132Y-80.313
M15
G01X243.631Y-80.356
M16
G05
G00X244.788Y-61.385
M15
G01X245.286Y-61.428
M16
G05
G00X253.074Y-117.494
M15
G01X253.569Y-117.569
M16
G05
G00X255.915Y-98.708
M15
G01X256.41Y-98.783
M16
G05
G00X258.317Y-116.264
M15
G01X258.811Y-116.339
M16
G05
G00X258.756Y-79.921
M15
G01X259.251Y-79.996
M16
G05
G00X261.158Y-97.478
M15
G01X261.653Y-97.553
M16
G05
G00X263.999Y-78.692
M15
G01X264.494Y-78.766
M16
G05
M30
