%TF.GenerationSoftware,KiCad,Pcbnew,9.0.0*%
%TF.CreationDate,2025-11-03T18:10:29-06:00*%
%TF.ProjectId,Mau Keys,4d617520-4b65-4797-932e-6b696361645f,rev?*%
%TF.SameCoordinates,Original*%
%TF.FileFunction,Drillmap*%
%TF.FilePolarity,Positive*%
%FSLAX45Y45*%
G04 Gerber Fmt 4.5, Leading zero omitted, Abs format (unit mm)*
G04 Created by KiCad (PCBNEW 9.0.0) date 2025-11-03 18:10:29*
%MOMM*%
%LPD*%
G01*
G04 APERTURE LIST*
%ADD10C,0.250000*%
%ADD11C,0.050000*%
%ADD12C,0.200000*%
%ADD13C,0.100000*%
%ADD14C,0.109220*%
%ADD15C,0.220000*%
G04 APERTURE END LIST*
D10*
X9658000Y-5354000D02*
G75*
G02*
X9158000Y-4854000I0J500000D01*
G01*
X7358000Y-4354000D02*
X9058000Y-4354000D01*
X25817262Y-7407248D02*
X25817262Y-7407248D01*
X5656149Y-13021916D02*
G75*
G02*
X8709767Y-13033515I1489271J-9888474D01*
G01*
X17522000Y-5754000D02*
G75*
G02*
X17622000Y-5654000I100000J0D01*
G01*
X19422000Y-5554000D02*
G75*
G02*
X19322000Y-5654000I-100000J0D01*
G01*
X23122000Y-4354000D02*
G75*
G02*
X23222000Y-4454000I0J-100000D01*
G01*
X7258000Y-4454000D02*
G75*
G02*
X7358000Y-4354000I100000J0D01*
G01*
X21322000Y-4854000D02*
G75*
G02*
X20822000Y-5354000I-500000J0D01*
G01*
X13458000Y-6304000D02*
G75*
G02*
X12958000Y-5804000I0J500000D01*
G01*
X5097245Y-5846158D02*
X6801578Y-5697048D01*
X15032000Y-9658150D02*
G75*
G02*
X14873029Y-10199140I-1000000J0D01*
G01*
X11158000Y-5654000D02*
G75*
G02*
X11058000Y-5554000I0J100000D01*
G01*
X14932000Y-6304000D02*
G75*
G02*
X15032000Y-6404000I0J-100000D01*
G01*
X14112822Y-11380954D02*
X14112822Y-11380954D01*
X25393629Y-6869246D02*
X25473659Y-5954493D01*
X27319925Y-7633559D02*
G75*
G02*
X27403910Y-7747336I-14895J-98881D01*
G01*
X25382755Y-5846158D02*
X23678422Y-5697048D01*
X9158000Y-4454000D02*
X9158000Y-4854000D01*
X4008964Y-13269993D02*
X5656149Y-13021916D01*
X3160075Y-7633559D02*
X3160075Y-7633559D01*
X9058000Y-4354000D02*
G75*
G02*
X9158000Y-4454000I0J-100000D01*
G01*
X23122000Y-4354000D02*
X21422000Y-4354000D01*
X17522000Y-5804000D02*
G75*
G02*
X17022000Y-6304000I-500000J0D01*
G01*
X7258000Y-5198951D02*
G75*
G02*
X6801578Y-5697047I-500000J1D01*
G01*
X17022000Y-6304000D02*
X15548000Y-6304000D01*
X17522000Y-5754000D02*
X17522000Y-5804000D01*
X23222000Y-5198951D02*
X23222000Y-4454000D01*
X27403917Y-7747337D02*
X27403917Y-7747337D01*
X13489943Y-13689372D02*
G75*
G02*
X13375531Y-13772495I-98773J15653D01*
G01*
X4662738Y-7407248D02*
X4662738Y-7407248D01*
X21770233Y-13033514D02*
G75*
G02*
X24823851Y-13021916I1564347J-9876886D01*
G01*
X8709767Y-13033514D02*
X13375530Y-13772499D01*
X7258000Y-5198951D02*
X7258000Y-4454000D01*
X23678422Y-5697048D02*
G75*
G02*
X23222000Y-5198951I43578J498098D01*
G01*
X20822000Y-5354000D02*
X19522000Y-5354000D01*
X16367178Y-11380954D02*
G75*
G02*
X16807164Y-12534635I-2523088J-1622986D01*
G01*
X5006341Y-5954493D02*
G75*
G02*
X5097245Y-5846161I99619J8713D01*
G01*
X5086371Y-6869246D02*
X5006341Y-5954493D01*
X14873027Y-10199139D02*
X14112822Y-11380954D01*
X4008964Y-13269993D02*
G75*
G02*
X3895326Y-13186898I-14894J98883D01*
G01*
X15032000Y-6404000D02*
X15032000Y-9658150D01*
X15448000Y-6404000D02*
X15448000Y-9658150D01*
X10958000Y-5354000D02*
G75*
G02*
X11058000Y-5454000I0J-100000D01*
G01*
X3076083Y-7747337D02*
X3076083Y-7747337D01*
X13489943Y-13689372D02*
X13672835Y-12534635D01*
X19422000Y-5454000D02*
X19422000Y-5554000D01*
X26471036Y-13269993D02*
X24823851Y-13021916D01*
X17104470Y-13772499D02*
G75*
G02*
X16990050Y-13689374I-15650J98769D01*
G01*
X25817262Y-7407248D02*
G75*
G02*
X25393628Y-6869246I74468J494428D01*
G01*
X21322000Y-4454000D02*
G75*
G02*
X21422000Y-4354000I100000J0D01*
G01*
X26584682Y-13186900D02*
G75*
G02*
X26471037Y-13269985I-98753J15810D01*
G01*
X27403917Y-7747337D02*
X26584682Y-13186900D01*
X21322000Y-4454000D02*
X21322000Y-4854000D01*
X27319925Y-7633559D02*
X27319925Y-7633559D01*
X12858000Y-5654000D02*
G75*
G02*
X12958000Y-5754000I0J-100000D01*
G01*
X13672835Y-12534635D02*
G75*
G02*
X14112822Y-11380954I2963055J-469300D01*
G01*
X13458000Y-6304000D02*
X14932000Y-6304000D01*
X21770233Y-13033514D02*
X17104470Y-13772499D01*
X15448000Y-6404000D02*
G75*
G02*
X15548000Y-6304000I100000J0D01*
G01*
X11058000Y-5454000D02*
X11058000Y-5554000D01*
X16990057Y-13689372D02*
X16807165Y-12534635D01*
X27319925Y-7633559D02*
X25817262Y-7407248D01*
X3076083Y-7747337D02*
X3895317Y-13186900D01*
X19322000Y-5654000D02*
X17622000Y-5654000D01*
X12958000Y-5754000D02*
X12958000Y-5804000D01*
X19422000Y-5454000D02*
G75*
G02*
X19522000Y-5354000I100000J0D01*
G01*
X15606973Y-10199139D02*
G75*
G02*
X15447997Y-9658150I840997J540989D01*
G01*
X16367178Y-11380954D02*
X16367178Y-11380954D01*
X25382755Y-5846158D02*
G75*
G02*
X25473663Y-5954493I-8715J-99622D01*
G01*
X15606973Y-10199139D02*
X16367178Y-11380954D01*
X9658000Y-5354000D02*
X10958000Y-5354000D01*
X3076083Y-7747337D02*
G75*
G02*
X3160075Y-7633559I98885J14893D01*
G01*
X5086371Y-6869246D02*
G75*
G02*
X4662738Y-7407248I-498097J-43578D01*
G01*
X3160075Y-7633559D02*
X4662738Y-7407248D01*
X11158000Y-5654000D02*
X12858000Y-5654000D01*
D11*
X19842000Y-6404000D02*
X19842000Y-6204000D01*
X20852000Y-6154000D02*
X19892000Y-6154000D01*
X20852000Y-6454000D02*
X19892000Y-6454000D01*
X20902000Y-6204000D02*
X20902000Y-6404000D01*
X19842000Y-6204000D02*
G75*
G02*
X19892000Y-6154000I50000J0D01*
G01*
X19892000Y-6454000D02*
G75*
G02*
X19842000Y-6404000I0J50000D01*
G01*
X20852000Y-6154000D02*
G75*
G02*
X20902000Y-6204000I0J-50000D01*
G01*
X20902000Y-6404000D02*
G75*
G02*
X20852000Y-6454000I-50000J0D01*
G01*
X5507541Y-6864272D02*
X5490109Y-6665033D01*
X6491908Y-6527196D02*
X5535562Y-6610866D01*
X6518055Y-6826054D02*
X5561708Y-6909724D01*
X6546076Y-6572648D02*
X6563507Y-6771887D01*
X5490109Y-6665033D02*
G75*
G02*
X5535561Y-6610866I49810J4358D01*
G01*
X5561708Y-6909724D02*
G75*
G02*
X5507540Y-6864272I-4358J49810D01*
G01*
X6491908Y-6527196D02*
G75*
G02*
X6546076Y-6572648I4358J-49810D01*
G01*
X6563507Y-6771887D02*
G75*
G02*
X6518055Y-6826055I-49810J-4358D01*
G01*
X4201224Y-12381780D02*
X4171317Y-12184029D01*
X5162484Y-11983561D02*
X4213278Y-12127115D01*
X5207345Y-12280188D02*
X4258139Y-12423741D01*
X5219399Y-12025522D02*
X5249306Y-12223273D01*
X4171317Y-12184029D02*
G75*
G02*
X4213278Y-12127115I49438J7477D01*
G01*
X4258139Y-12423742D02*
G75*
G02*
X4201224Y-12381781I-7477J49438D01*
G01*
X5162484Y-11983561D02*
G75*
G02*
X5219399Y-12025522I7477J-49438D01*
G01*
X5249306Y-12223273D02*
G75*
G02*
X5207345Y-12280188I-49438J-7477D01*
G01*
X23750897Y-8664657D02*
X23768328Y-8465418D01*
X24778843Y-8503636D02*
X23822496Y-8419966D01*
X24752696Y-8802494D02*
X23796349Y-8718824D01*
X24824295Y-8557803D02*
X24806863Y-8757042D01*
X23768328Y-8465418D02*
G75*
G02*
X23822496Y-8419966I49810J-4358D01*
G01*
X23796349Y-8718825D02*
G75*
G02*
X23750897Y-8664657I4358J49810D01*
G01*
X24778843Y-8503636D02*
G75*
G02*
X24824295Y-8557803I-4358J-49810D01*
G01*
X24806863Y-8757042D02*
G75*
G02*
X24752696Y-8802494I-49810J4358D01*
G01*
X17942000Y-8604000D02*
X17942000Y-8404000D01*
X18952000Y-8354000D02*
X17992000Y-8354000D01*
X18952000Y-8654000D02*
X17992000Y-8654000D01*
X19002000Y-8404000D02*
X19002000Y-8604000D01*
X17942000Y-8404000D02*
G75*
G02*
X17992000Y-8354000I50000J0D01*
G01*
X17992000Y-8654000D02*
G75*
G02*
X17942000Y-8604000I0J50000D01*
G01*
X18952000Y-8354000D02*
G75*
G02*
X19002000Y-8404000I0J-50000D01*
G01*
X19002000Y-8604000D02*
G75*
G02*
X18952000Y-8654000I-50000J0D01*
G01*
X3917107Y-10503143D02*
X3887200Y-10305392D01*
X4878367Y-10104924D02*
X3929161Y-10248478D01*
X4923228Y-10401551D02*
X3974021Y-10545104D01*
X4935282Y-10146885D02*
X4965189Y-10344636D01*
X3887200Y-10305392D02*
G75*
G02*
X3929161Y-10248478I49438J7477D01*
G01*
X3974021Y-10545105D02*
G75*
G02*
X3917107Y-10503144I-7477J49438D01*
G01*
X4878367Y-10104924D02*
G75*
G02*
X4935282Y-10146885I7477J-49438D01*
G01*
X4965189Y-10344636D02*
G75*
G02*
X4923228Y-10401551I-49438J-7477D01*
G01*
X5838732Y-10649812D02*
X5821301Y-10450573D01*
X6823100Y-10312736D02*
X5866753Y-10396405D01*
X6849247Y-10611594D02*
X5892900Y-10695264D01*
X6877268Y-10358188D02*
X6894699Y-10557427D01*
X5821301Y-10450573D02*
G75*
G02*
X5866753Y-10396405I49810J4358D01*
G01*
X5892900Y-10695264D02*
G75*
G02*
X5838732Y-10649812I-4358J49810D01*
G01*
X6823100Y-10312736D02*
G75*
G02*
X6877268Y-10358188I4358J-49810D01*
G01*
X6894699Y-10557427D02*
G75*
G02*
X6849247Y-10611594I-49810J-4358D01*
G01*
X7678000Y-9204000D02*
X7678000Y-9004000D01*
X8688000Y-8954000D02*
X7728000Y-8954000D01*
X8688000Y-9254000D02*
X7728000Y-9254000D01*
X8738000Y-9004000D02*
X8738000Y-9204000D01*
X7678000Y-9004000D02*
G75*
G02*
X7728000Y-8954000I50000J0D01*
G01*
X7728000Y-9254000D02*
G75*
G02*
X7678000Y-9204000I0J50000D01*
G01*
X8688000Y-8954000D02*
G75*
G02*
X8738000Y-9004000I0J-50000D01*
G01*
X8738000Y-9204000D02*
G75*
G02*
X8688000Y-9254000I-50000J0D01*
G01*
X19842000Y-8304000D02*
X19842000Y-8104000D01*
X20852000Y-8054000D02*
X19892000Y-8054000D01*
X20852000Y-8354000D02*
X19892000Y-8354000D01*
X20902000Y-8104000D02*
X20902000Y-8304000D01*
X19842000Y-8104000D02*
G75*
G02*
X19892000Y-8054000I50000J0D01*
G01*
X19892000Y-8354000D02*
G75*
G02*
X19842000Y-8304000I0J50000D01*
G01*
X20852000Y-8054000D02*
G75*
G02*
X20902000Y-8104000I0J-50000D01*
G01*
X20902000Y-8304000D02*
G75*
G02*
X20852000Y-8354000I-50000J0D01*
G01*
X7678000Y-7304000D02*
X7678000Y-7104000D01*
X8688000Y-7054000D02*
X7728000Y-7054000D01*
X8688000Y-7354000D02*
X7728000Y-7354000D01*
X8738000Y-7104000D02*
X8738000Y-7304000D01*
X7678000Y-7104000D02*
G75*
G02*
X7728000Y-7054000I50000J0D01*
G01*
X7728000Y-7354000D02*
G75*
G02*
X7678000Y-7304000I0J50000D01*
G01*
X8688000Y-7054000D02*
G75*
G02*
X8738000Y-7104000I0J-50000D01*
G01*
X8738000Y-7304000D02*
G75*
G02*
X8688000Y-7354000I-50000J0D01*
G01*
X25798929Y-8465999D02*
X25828836Y-8268247D01*
X26834956Y-8369840D02*
X25885750Y-8226286D01*
X26790096Y-8666467D02*
X25840890Y-8522913D01*
X26876917Y-8426755D02*
X26847010Y-8624506D01*
X25828836Y-8268247D02*
G75*
G02*
X25885750Y-8226286I49438J-7477D01*
G01*
X25840889Y-8522914D02*
G75*
G02*
X25798928Y-8465999I7477J49438D01*
G01*
X26834956Y-8369840D02*
G75*
G02*
X26876917Y-8426755I-7477J-49438D01*
G01*
X26847010Y-8624506D02*
G75*
G02*
X26790096Y-8666467I-49438J7477D01*
G01*
X11478000Y-10504000D02*
X11478000Y-10304000D01*
X12488000Y-10254000D02*
X11528000Y-10254000D01*
X12488000Y-10554000D02*
X11528000Y-10554000D01*
X12538000Y-10304000D02*
X12538000Y-10504000D01*
X11478000Y-10304000D02*
G75*
G02*
X11528000Y-10254000I50000J0D01*
G01*
X11528000Y-10554000D02*
G75*
G02*
X11478000Y-10504000I0J50000D01*
G01*
X12488000Y-10254000D02*
G75*
G02*
X12538000Y-10304000I0J-50000D01*
G01*
X12538000Y-10504000D02*
G75*
G02*
X12488000Y-10554000I-50000J0D01*
G01*
X11478000Y-6704000D02*
X11478000Y-6504000D01*
X12488000Y-6454000D02*
X11528000Y-6454000D01*
X12488000Y-6754000D02*
X11528000Y-6754000D01*
X12538000Y-6504000D02*
X12538000Y-6704000D01*
X11478000Y-6504000D02*
G75*
G02*
X11528000Y-6454000I50000J0D01*
G01*
X11528000Y-6754000D02*
G75*
G02*
X11478000Y-6704000I0J50000D01*
G01*
X12488000Y-6454000D02*
G75*
G02*
X12538000Y-6504000I0J-50000D01*
G01*
X12538000Y-6704000D02*
G75*
G02*
X12488000Y-6754000I-50000J0D01*
G01*
X21742000Y-7304000D02*
X21742000Y-7104000D01*
X22752000Y-7054000D02*
X21792000Y-7054000D01*
X22752000Y-7354000D02*
X21792000Y-7354000D01*
X22802000Y-7104000D02*
X22802000Y-7304000D01*
X21742000Y-7104000D02*
G75*
G02*
X21792000Y-7054000I50000J0D01*
G01*
X21792000Y-7354000D02*
G75*
G02*
X21742000Y-7304000I0J50000D01*
G01*
X22752000Y-7054000D02*
G75*
G02*
X22802000Y-7104000I0J-50000D01*
G01*
X22802000Y-7304000D02*
G75*
G02*
X22752000Y-7354000I-50000J0D01*
G01*
X9578000Y-10204000D02*
X9578000Y-10004000D01*
X10588000Y-9954000D02*
X9628000Y-9954000D01*
X10588000Y-10254000D02*
X9628000Y-10254000D01*
X10638000Y-10004000D02*
X10638000Y-10204000D01*
X9578000Y-10004000D02*
G75*
G02*
X9628000Y-9954000I50000J0D01*
G01*
X9628000Y-10254000D02*
G75*
G02*
X9578000Y-10204000I0J50000D01*
G01*
X10588000Y-9954000D02*
G75*
G02*
X10638000Y-10004000I0J-50000D01*
G01*
X10638000Y-10204000D02*
G75*
G02*
X10588000Y-10254000I-50000J0D01*
G01*
X11478000Y-8604000D02*
X11478000Y-8404000D01*
X12488000Y-8354000D02*
X11528000Y-8354000D01*
X12488000Y-8654000D02*
X11528000Y-8654000D01*
X12538000Y-8404000D02*
X12538000Y-8604000D01*
X11478000Y-8404000D02*
G75*
G02*
X11528000Y-8354000I50000J0D01*
G01*
X11528000Y-8654000D02*
G75*
G02*
X11478000Y-8604000I0J50000D01*
G01*
X12488000Y-8354000D02*
G75*
G02*
X12538000Y-8404000I0J-50000D01*
G01*
X12538000Y-8604000D02*
G75*
G02*
X12488000Y-8654000I-50000J0D01*
G01*
X3632990Y-8624506D02*
X3603083Y-8426755D01*
X4594250Y-8226286D02*
X3645044Y-8369840D01*
X4639110Y-8522913D02*
X3689904Y-8666467D01*
X4651164Y-8268247D02*
X4681071Y-8465999D01*
X3603083Y-8426755D02*
G75*
G02*
X3645044Y-8369840I49438J7477D01*
G01*
X3689904Y-8666467D02*
G75*
G02*
X3632990Y-8624506I-7477J49438D01*
G01*
X4594250Y-8226286D02*
G75*
G02*
X4651164Y-8268247I7477J-49438D01*
G01*
X4681071Y-8465999D02*
G75*
G02*
X4639110Y-8522913I-49438J-7477D01*
G01*
X5673136Y-8757042D02*
X5655705Y-8557803D01*
X6657504Y-8419966D02*
X5701157Y-8503636D01*
X6683651Y-8718824D02*
X5727304Y-8802494D01*
X6711672Y-8465418D02*
X6729103Y-8664657D01*
X5655705Y-8557803D02*
G75*
G02*
X5701157Y-8503636I49810J4358D01*
G01*
X5727304Y-8802494D02*
G75*
G02*
X5673136Y-8757042I-4358J49810D01*
G01*
X6657504Y-8419966D02*
G75*
G02*
X6711672Y-8465418I4358J-49810D01*
G01*
X6729103Y-8664657D02*
G75*
G02*
X6683651Y-8718825I-49810J-4358D01*
G01*
X12145489Y-12717084D02*
X12176776Y-12519546D01*
X13182163Y-12628161D02*
X12233983Y-12477984D01*
X13135233Y-12924467D02*
X12187052Y-12774290D01*
X13223726Y-12685367D02*
X13192439Y-12882905D01*
X12176776Y-12519546D02*
G75*
G02*
X12233983Y-12477984I49385J-7822D01*
G01*
X12187052Y-12774290D02*
G75*
G02*
X12145489Y-12717084I7822J49385D01*
G01*
X13182163Y-12628161D02*
G75*
G02*
X13223726Y-12685367I-7822J-49384D01*
G01*
X13192439Y-12882905D02*
G75*
G02*
X13135233Y-12924467I-49384J7822D01*
G01*
X25514811Y-10344636D02*
X25544718Y-10146885D01*
X26550839Y-10248478D02*
X25601633Y-10104924D01*
X26505979Y-10545104D02*
X25556772Y-10401550D01*
X26592800Y-10305392D02*
X26562893Y-10503143D01*
X25544718Y-10146885D02*
G75*
G02*
X25601633Y-10104924I49438J-7477D01*
G01*
X25556772Y-10401551D02*
G75*
G02*
X25514811Y-10344636I7477J49438D01*
G01*
X26550839Y-10248478D02*
G75*
G02*
X26592800Y-10305392I-7477J-49438D01*
G01*
X26562893Y-10503143D02*
G75*
G02*
X26505979Y-10545104I-49438J7477D01*
G01*
X19842000Y-10204000D02*
X19842000Y-10004000D01*
X20852000Y-9954000D02*
X19892000Y-9954000D01*
X20852000Y-10254000D02*
X19892000Y-10254000D01*
X20902000Y-10004000D02*
X20902000Y-10204000D01*
X19842000Y-10004000D02*
G75*
G02*
X19892000Y-9954000I50000J0D01*
G01*
X19892000Y-10254000D02*
G75*
G02*
X19842000Y-10204000I0J50000D01*
G01*
X20852000Y-9954000D02*
G75*
G02*
X20902000Y-10004000I0J-50000D01*
G01*
X20902000Y-10204000D02*
G75*
G02*
X20852000Y-10254000I-50000J0D01*
G01*
X10268882Y-12419859D02*
X10300169Y-12222321D01*
X11305556Y-12330935D02*
X10357375Y-12180758D01*
X11258625Y-12627242D02*
X10310444Y-12477065D01*
X11347118Y-12388141D02*
X11315831Y-12585679D01*
X10300169Y-12222321D02*
G75*
G02*
X10357375Y-12180758I49385J-7822D01*
G01*
X10310444Y-12477065D02*
G75*
G02*
X10268882Y-12419859I7822J49385D01*
G01*
X11305556Y-12330935D02*
G75*
G02*
X11347118Y-12388141I-7822J-49384D01*
G01*
X11315831Y-12585679D02*
G75*
G02*
X11258625Y-12627242I-49384J7822D01*
G01*
X21742000Y-5404000D02*
X21742000Y-5204000D01*
X22752000Y-5154000D02*
X21792000Y-5154000D01*
X22752000Y-5454000D02*
X21792000Y-5454000D01*
X22802000Y-5204000D02*
X22802000Y-5404000D01*
X21742000Y-5204000D02*
G75*
G02*
X21792000Y-5154000I50000J0D01*
G01*
X21792000Y-5454000D02*
G75*
G02*
X21742000Y-5404000I0J50000D01*
G01*
X22752000Y-5154000D02*
G75*
G02*
X22802000Y-5204000I0J-50000D01*
G01*
X22802000Y-5404000D02*
G75*
G02*
X22752000Y-5454000I-50000J0D01*
G01*
X19164169Y-12585679D02*
X19132882Y-12388141D01*
X20122625Y-12180758D02*
X19174445Y-12330935D01*
X20169556Y-12477065D02*
X19221375Y-12627242D01*
X20179831Y-12222321D02*
X20211118Y-12419859D01*
X19132882Y-12388141D02*
G75*
G02*
X19174444Y-12330935I49385J7822D01*
G01*
X19221375Y-12627242D02*
G75*
G02*
X19164169Y-12585679I-7822J49385D01*
G01*
X20122625Y-12180758D02*
G75*
G02*
X20179831Y-12222321I7822J-49384D01*
G01*
X20211118Y-12419859D02*
G75*
G02*
X20169556Y-12477065I-49385J-7822D01*
G01*
X7678000Y-5404000D02*
X7678000Y-5204000D01*
X8688000Y-5154000D02*
X7728000Y-5154000D01*
X8688000Y-5454000D02*
X7728000Y-5454000D01*
X8738000Y-5204000D02*
X8738000Y-5404000D01*
X7678000Y-5204000D02*
G75*
G02*
X7728000Y-5154000I50000J0D01*
G01*
X7728000Y-5454000D02*
G75*
G02*
X7678000Y-5404000I0J50000D01*
G01*
X8688000Y-5154000D02*
G75*
G02*
X8738000Y-5204000I0J-50000D01*
G01*
X8738000Y-5404000D02*
G75*
G02*
X8688000Y-5454000I-50000J0D01*
G01*
X23585301Y-10557427D02*
X23602732Y-10358188D01*
X24613247Y-10396406D02*
X23656900Y-10312736D01*
X24587100Y-10695264D02*
X23630753Y-10611594D01*
X24658699Y-10450573D02*
X24641268Y-10649812D01*
X23602732Y-10358188D02*
G75*
G02*
X23656900Y-10312736I49810J-4358D01*
G01*
X23630753Y-10611594D02*
G75*
G02*
X23585301Y-10557427I4358J49810D01*
G01*
X24613247Y-10396406D02*
G75*
G02*
X24658699Y-10450573I-4358J-49810D01*
G01*
X24641268Y-10649812D02*
G75*
G02*
X24587100Y-10695264I-49810J4358D01*
G01*
X17942000Y-10504000D02*
X17942000Y-10304000D01*
X18952000Y-10254000D02*
X17992000Y-10254000D01*
X18952000Y-10554000D02*
X17992000Y-10554000D01*
X19002000Y-10304000D02*
X19002000Y-10504000D01*
X17942000Y-10304000D02*
G75*
G02*
X17992000Y-10254000I50000J0D01*
G01*
X17992000Y-10554000D02*
G75*
G02*
X17942000Y-10504000I0J50000D01*
G01*
X18952000Y-10254000D02*
G75*
G02*
X19002000Y-10304000I0J-50000D01*
G01*
X19002000Y-10504000D02*
G75*
G02*
X18952000Y-10554000I-50000J0D01*
G01*
X9578000Y-8304000D02*
X9578000Y-8104000D01*
X10588000Y-8054000D02*
X9628000Y-8054000D01*
X10588000Y-8354000D02*
X9628000Y-8354000D01*
X10638000Y-8104000D02*
X10638000Y-8304000D01*
X9578000Y-8104000D02*
G75*
G02*
X9628000Y-8054000I50000J0D01*
G01*
X9628000Y-8354000D02*
G75*
G02*
X9578000Y-8304000I0J50000D01*
G01*
X10588000Y-8054000D02*
G75*
G02*
X10638000Y-8104000I0J-50000D01*
G01*
X10638000Y-8304000D02*
G75*
G02*
X10588000Y-8354000I-50000J0D01*
G01*
X17287561Y-12882905D02*
X17256274Y-12685367D01*
X18246017Y-12477984D02*
X17297837Y-12628161D01*
X18292948Y-12774290D02*
X17344767Y-12924467D01*
X18303224Y-12519546D02*
X18334511Y-12717084D01*
X17256274Y-12685367D02*
G75*
G02*
X17297837Y-12628161I49385J7822D01*
G01*
X17344767Y-12924467D02*
G75*
G02*
X17287561Y-12882905I-7822J49385D01*
G01*
X18246017Y-12477984D02*
G75*
G02*
X18303224Y-12519546I7822J-49384D01*
G01*
X18334511Y-12717084D02*
G75*
G02*
X18292948Y-12774290I-49385J-7822D01*
G01*
X17942000Y-6704000D02*
X17942000Y-6504000D01*
X18952000Y-6454000D02*
X17992000Y-6454000D01*
X18952000Y-6754000D02*
X17992000Y-6754000D01*
X19002000Y-6504000D02*
X19002000Y-6704000D01*
X17942000Y-6504000D02*
G75*
G02*
X17992000Y-6454000I50000J0D01*
G01*
X17992000Y-6754000D02*
G75*
G02*
X17942000Y-6704000I0J50000D01*
G01*
X18952000Y-6454000D02*
G75*
G02*
X19002000Y-6504000I0J-50000D01*
G01*
X19002000Y-6704000D02*
G75*
G02*
X18952000Y-6754000I-50000J0D01*
G01*
X25230694Y-12223273D02*
X25260601Y-12025522D01*
X26266722Y-12127115D02*
X25317516Y-11983561D01*
X26221861Y-12423741D02*
X25272655Y-12280187D01*
X26308683Y-12184029D02*
X26278776Y-12381780D01*
X25260601Y-12025522D02*
G75*
G02*
X25317516Y-11983561I49438J-7477D01*
G01*
X25272655Y-12280188D02*
G75*
G02*
X25230694Y-12223273I7477J49438D01*
G01*
X26266722Y-12127115D02*
G75*
G02*
X26308683Y-12184029I-7477J-49438D01*
G01*
X26278776Y-12381780D02*
G75*
G02*
X26221861Y-12423741I-49438J7477D01*
G01*
X21742000Y-9204000D02*
X21742000Y-9004000D01*
X22752000Y-8954000D02*
X21792000Y-8954000D01*
X22752000Y-9254000D02*
X21792000Y-9254000D01*
X22802000Y-9004000D02*
X22802000Y-9204000D01*
X21742000Y-9004000D02*
G75*
G02*
X21792000Y-8954000I50000J0D01*
G01*
X21792000Y-9254000D02*
G75*
G02*
X21742000Y-9204000I0J50000D01*
G01*
X22752000Y-8954000D02*
G75*
G02*
X22802000Y-9004000I0J-50000D01*
G01*
X22802000Y-9204000D02*
G75*
G02*
X22752000Y-9254000I-50000J0D01*
G01*
X23916493Y-6771887D02*
X23933924Y-6572648D01*
X24944439Y-6610866D02*
X23988092Y-6527196D01*
X24918292Y-6909724D02*
X23961945Y-6826054D01*
X24989891Y-6665033D02*
X24972459Y-6864272D01*
X23933924Y-6572648D02*
G75*
G02*
X23988092Y-6527196I49810J-4358D01*
G01*
X23961945Y-6826055D02*
G75*
G02*
X23916493Y-6771887I4358J49810D01*
G01*
X24944439Y-6610866D02*
G75*
G02*
X24989890Y-6665033I-4358J-49810D01*
G01*
X24972459Y-6864272D02*
G75*
G02*
X24918292Y-6909724I-49810J4358D01*
G01*
X9578000Y-6404000D02*
X9578000Y-6204000D01*
X10588000Y-6154000D02*
X9628000Y-6154000D01*
X10588000Y-6454000D02*
X9628000Y-6454000D01*
X10638000Y-6204000D02*
X10638000Y-6404000D01*
X9578000Y-6204000D02*
G75*
G02*
X9628000Y-6154000I50000J0D01*
G01*
X9628000Y-6454000D02*
G75*
G02*
X9578000Y-6404000I0J50000D01*
G01*
X10588000Y-6154000D02*
G75*
G02*
X10638000Y-6204000I0J-50000D01*
G01*
X10638000Y-6404000D02*
G75*
G02*
X10588000Y-6454000I-50000J0D01*
G01*
D12*
D13*
X14209000Y-8976600D02*
X14239000Y-9006600D01*
X14239000Y-8976600D02*
X14209000Y-9006600D01*
X14209000Y-9586200D02*
X14239000Y-9616200D01*
X14239000Y-9586200D02*
X14209000Y-9616200D01*
X16622000Y-8303500D02*
X16652000Y-8333500D01*
X16652000Y-8303500D02*
X16622000Y-8333500D01*
X17003000Y-7922500D02*
X17033000Y-7952500D01*
X17033000Y-7922500D02*
X17003000Y-7952500D01*
X3615875Y-8145417D02*
G75*
G02*
X3565875Y-8145417I-25000J0D01*
G01*
X3565875Y-8145417D02*
G75*
G02*
X3615875Y-8145417I25000J0D01*
G01*
X3569895Y-8173874D02*
X3619333Y-8166398D01*
X3611856Y-8116960D02*
G75*
G02*
X3619333Y-8166398I3738J-24719D01*
G01*
X3611856Y-8116960D02*
X3562418Y-8124437D01*
X3562418Y-8124437D02*
G75*
G03*
X3569895Y-8173874I3738J-24719D01*
G01*
X3899993Y-10024054D02*
G75*
G02*
X3849993Y-10024054I-25000J0D01*
G01*
X3849993Y-10024054D02*
G75*
G02*
X3899993Y-10024054I25000J0D01*
G01*
X3854012Y-10052512D02*
X3903450Y-10045035D01*
X3895973Y-9995597D02*
G75*
G02*
X3903450Y-10045035I3738J-24719D01*
G01*
X3895973Y-9995597D02*
X3846535Y-10003074D01*
X3846535Y-10003074D02*
G75*
G03*
X3854012Y-10052512I3738J-24719D01*
G01*
X4080346Y-7872898D02*
G75*
G02*
X4030346Y-7872898I-25000J0D01*
G01*
X4030346Y-7872898D02*
G75*
G02*
X4080346Y-7872898I25000J0D01*
G01*
X4034366Y-7901355D02*
X4083804Y-7893879D01*
X4076327Y-7844441D02*
G75*
G02*
X4083804Y-7893879I3738J-24719D01*
G01*
X4076327Y-7844441D02*
X4026889Y-7851918D01*
X4026889Y-7851918D02*
G75*
G03*
X4034366Y-7901355I3738J-24719D01*
G01*
X4184110Y-11902691D02*
G75*
G02*
X4134110Y-11902691I-25000J0D01*
G01*
X4134110Y-11902691D02*
G75*
G02*
X4184110Y-11902691I25000J0D01*
G01*
X4138129Y-11931149D02*
X4187567Y-11923672D01*
X4180090Y-11874234D02*
G75*
G02*
X4187567Y-11923672I3738J-24719D01*
G01*
X4180090Y-11874234D02*
X4130652Y-11881711D01*
X4130652Y-11881711D02*
G75*
G03*
X4138129Y-11931149I3738J-24719D01*
G01*
X4364464Y-9751535D02*
G75*
G02*
X4314464Y-9751535I-25000J0D01*
G01*
X4314464Y-9751535D02*
G75*
G02*
X4364464Y-9751535I25000J0D01*
G01*
X4318483Y-9779993D02*
X4367921Y-9772516D01*
X4360444Y-9723078D02*
G75*
G02*
X4367921Y-9772516I3738J-24719D01*
G01*
X4360444Y-9723078D02*
X4311006Y-9730555D01*
X4311006Y-9730555D02*
G75*
G03*
X4318483Y-9779993I3738J-24719D01*
G01*
X4648581Y-11630172D02*
G75*
G02*
X4598581Y-11630172I-25000J0D01*
G01*
X4598581Y-11630172D02*
G75*
G02*
X4648581Y-11630172I25000J0D01*
G01*
X4602600Y-11658630D02*
X4652038Y-11651153D01*
X4644561Y-11601715D02*
G75*
G02*
X4652038Y-11651153I3738J-24719D01*
G01*
X4644561Y-11601715D02*
X4595124Y-11609192D01*
X4595124Y-11609192D02*
G75*
G03*
X4602600Y-11658630I3738J-24719D01*
G01*
X5520592Y-6383484D02*
G75*
G02*
X5470592Y-6383484I-25000J0D01*
G01*
X5470592Y-6383484D02*
G75*
G02*
X5520592Y-6383484I25000J0D01*
G01*
X5472866Y-6410568D02*
X5522676Y-6406210D01*
X5518318Y-6356400D02*
G75*
G02*
X5522676Y-6406210I2179J-24905D01*
G01*
X5518318Y-6356400D02*
X5468508Y-6360758D01*
X5468508Y-6360758D02*
G75*
G03*
X5472866Y-6410568I2179J-24905D01*
G01*
X5686188Y-8276254D02*
G75*
G02*
X5636188Y-8276254I-25000J0D01*
G01*
X5636188Y-8276254D02*
G75*
G02*
X5686188Y-8276254I25000J0D01*
G01*
X5638462Y-8303338D02*
X5688271Y-8298980D01*
X5683914Y-8249170D02*
G75*
G02*
X5688271Y-8298980I2179J-24905D01*
G01*
X5683914Y-8249170D02*
X5634104Y-8253528D01*
X5634104Y-8253528D02*
G75*
G03*
X5638462Y-8303338I2179J-24905D01*
G01*
X5851783Y-10169024D02*
G75*
G02*
X5801783Y-10169024I-25000J0D01*
G01*
X5801783Y-10169024D02*
G75*
G02*
X5851783Y-10169024I25000J0D01*
G01*
X5804057Y-10196108D02*
X5853867Y-10191750D01*
X5849509Y-10141940D02*
G75*
G02*
X5853867Y-10191750I2179J-24905D01*
G01*
X5849509Y-10141940D02*
X5799700Y-10146298D01*
X5799700Y-10146298D02*
G75*
G03*
X5804057Y-10196108I2179J-24905D01*
G01*
X6001258Y-6140667D02*
G75*
G02*
X5951258Y-6140667I-25000J0D01*
G01*
X5951258Y-6140667D02*
G75*
G02*
X6001258Y-6140667I25000J0D01*
G01*
X5953532Y-6167751D02*
X6003342Y-6163393D01*
X5998984Y-6113583D02*
G75*
G02*
X6003342Y-6163393I2179J-24905D01*
G01*
X5998984Y-6113583D02*
X5949174Y-6117941D01*
X5949174Y-6117941D02*
G75*
G03*
X5953532Y-6167751I2179J-24905D01*
G01*
X6166854Y-8033437D02*
G75*
G02*
X6116854Y-8033437I-25000J0D01*
G01*
X6116854Y-8033437D02*
G75*
G02*
X6166854Y-8033437I25000J0D01*
G01*
X6119128Y-8060521D02*
X6168938Y-8056163D01*
X6164580Y-8006353D02*
G75*
G02*
X6168938Y-8056163I2179J-24905D01*
G01*
X6164580Y-8006353D02*
X6114770Y-8010711D01*
X6114770Y-8010711D02*
G75*
G03*
X6119128Y-8060521I2179J-24905D01*
G01*
X6332450Y-9926207D02*
G75*
G02*
X6282450Y-9926207I-25000J0D01*
G01*
X6282450Y-9926207D02*
G75*
G02*
X6332450Y-9926207I25000J0D01*
G01*
X6284724Y-9953291D02*
X6334533Y-9948933D01*
X6330176Y-9899123D02*
G75*
G02*
X6334533Y-9948933I2179J-24905D01*
G01*
X6330176Y-9899123D02*
X6280366Y-9903481D01*
X6280366Y-9903481D02*
G75*
G03*
X6284724Y-9953291I2179J-24905D01*
G01*
X7733000Y-4924000D02*
G75*
G02*
X7683000Y-4924000I-25000J0D01*
G01*
X7683000Y-4924000D02*
G75*
G02*
X7733000Y-4924000I25000J0D01*
G01*
X7683000Y-4949000D02*
X7733000Y-4949000D01*
X7733000Y-4899000D02*
G75*
G02*
X7733000Y-4949000I0J-25000D01*
G01*
X7733000Y-4899000D02*
X7683000Y-4899000D01*
X7683000Y-4899000D02*
G75*
G03*
X7683000Y-4949000I0J-25000D01*
G01*
X7733000Y-6824000D02*
G75*
G02*
X7683000Y-6824000I-25000J0D01*
G01*
X7683000Y-6824000D02*
G75*
G02*
X7733000Y-6824000I25000J0D01*
G01*
X7683000Y-6849000D02*
X7733000Y-6849000D01*
X7733000Y-6799000D02*
G75*
G02*
X7733000Y-6849000I0J-25000D01*
G01*
X7733000Y-6799000D02*
X7683000Y-6799000D01*
X7683000Y-6799000D02*
G75*
G03*
X7683000Y-6849000I0J-25000D01*
G01*
X7733000Y-8724000D02*
G75*
G02*
X7683000Y-8724000I-25000J0D01*
G01*
X7683000Y-8724000D02*
G75*
G02*
X7733000Y-8724000I25000J0D01*
G01*
X7683000Y-8749000D02*
X7733000Y-8749000D01*
X7733000Y-8699000D02*
G75*
G02*
X7733000Y-8749000I0J-25000D01*
G01*
X7733000Y-8699000D02*
X7683000Y-8699000D01*
X7683000Y-8699000D02*
G75*
G03*
X7683000Y-8749000I0J-25000D01*
G01*
X8233000Y-4724000D02*
G75*
G02*
X8183000Y-4724000I-25000J0D01*
G01*
X8183000Y-4724000D02*
G75*
G02*
X8233000Y-4724000I25000J0D01*
G01*
X8183000Y-4749000D02*
X8233000Y-4749000D01*
X8233000Y-4699000D02*
G75*
G02*
X8233000Y-4749000I0J-25000D01*
G01*
X8233000Y-4699000D02*
X8183000Y-4699000D01*
X8183000Y-4699000D02*
G75*
G03*
X8183000Y-4749000I0J-25000D01*
G01*
X8233000Y-6624000D02*
G75*
G02*
X8183000Y-6624000I-25000J0D01*
G01*
X8183000Y-6624000D02*
G75*
G02*
X8233000Y-6624000I25000J0D01*
G01*
X8183000Y-6649000D02*
X8233000Y-6649000D01*
X8233000Y-6599000D02*
G75*
G02*
X8233000Y-6649000I0J-25000D01*
G01*
X8233000Y-6599000D02*
X8183000Y-6599000D01*
X8183000Y-6599000D02*
G75*
G03*
X8183000Y-6649000I0J-25000D01*
G01*
X8233000Y-8524000D02*
G75*
G02*
X8183000Y-8524000I-25000J0D01*
G01*
X8183000Y-8524000D02*
G75*
G02*
X8233000Y-8524000I25000J0D01*
G01*
X8183000Y-8549000D02*
X8233000Y-8549000D01*
X8233000Y-8499000D02*
G75*
G02*
X8233000Y-8549000I0J-25000D01*
G01*
X8233000Y-8499000D02*
X8183000Y-8499000D01*
X8183000Y-8499000D02*
G75*
G03*
X8183000Y-8549000I0J-25000D01*
G01*
X9633000Y-5924000D02*
G75*
G02*
X9583000Y-5924000I-25000J0D01*
G01*
X9583000Y-5924000D02*
G75*
G02*
X9633000Y-5924000I25000J0D01*
G01*
X9583000Y-5949000D02*
X9633000Y-5949000D01*
X9633000Y-5899000D02*
G75*
G02*
X9633000Y-5949000I0J-25000D01*
G01*
X9633000Y-5899000D02*
X9583000Y-5899000D01*
X9583000Y-5899000D02*
G75*
G03*
X9583000Y-5949000I0J-25000D01*
G01*
X9633000Y-7824000D02*
G75*
G02*
X9583000Y-7824000I-25000J0D01*
G01*
X9583000Y-7824000D02*
G75*
G02*
X9633000Y-7824000I25000J0D01*
G01*
X9583000Y-7849000D02*
X9633000Y-7849000D01*
X9633000Y-7799000D02*
G75*
G02*
X9633000Y-7849000I0J-25000D01*
G01*
X9633000Y-7799000D02*
X9583000Y-7799000D01*
X9583000Y-7799000D02*
G75*
G03*
X9583000Y-7849000I0J-25000D01*
G01*
X9633000Y-9724000D02*
G75*
G02*
X9583000Y-9724000I-25000J0D01*
G01*
X9583000Y-9724000D02*
G75*
G02*
X9633000Y-9724000I25000J0D01*
G01*
X9583000Y-9749000D02*
X9633000Y-9749000D01*
X9633000Y-9699000D02*
G75*
G02*
X9633000Y-9749000I0J-25000D01*
G01*
X9633000Y-9699000D02*
X9583000Y-9699000D01*
X9583000Y-9699000D02*
G75*
G03*
X9583000Y-9749000I0J-25000D01*
G01*
X10133000Y-5724000D02*
G75*
G02*
X10083000Y-5724000I-25000J0D01*
G01*
X10083000Y-5724000D02*
G75*
G02*
X10133000Y-5724000I25000J0D01*
G01*
X10083000Y-5749000D02*
X10133000Y-5749000D01*
X10133000Y-5699000D02*
G75*
G02*
X10133000Y-5749000I0J-25000D01*
G01*
X10133000Y-5699000D02*
X10083000Y-5699000D01*
X10083000Y-5699000D02*
G75*
G03*
X10083000Y-5749000I0J-25000D01*
G01*
X10133000Y-7624000D02*
G75*
G02*
X10083000Y-7624000I-25000J0D01*
G01*
X10083000Y-7624000D02*
G75*
G02*
X10133000Y-7624000I25000J0D01*
G01*
X10083000Y-7649000D02*
X10133000Y-7649000D01*
X10133000Y-7599000D02*
G75*
G02*
X10133000Y-7649000I0J-25000D01*
G01*
X10133000Y-7599000D02*
X10083000Y-7599000D01*
X10083000Y-7599000D02*
G75*
G03*
X10083000Y-7649000I0J-25000D01*
G01*
X10133000Y-9524000D02*
G75*
G02*
X10083000Y-9524000I-25000J0D01*
G01*
X10083000Y-9524000D02*
G75*
G02*
X10133000Y-9524000I25000J0D01*
G01*
X10083000Y-9549000D02*
X10133000Y-9549000D01*
X10133000Y-9499000D02*
G75*
G02*
X10133000Y-9549000I0J-25000D01*
G01*
X10133000Y-9499000D02*
X10083000Y-9499000D01*
X10083000Y-9499000D02*
G75*
G03*
X10083000Y-9549000I0J-25000D01*
G01*
X10398601Y-11950461D02*
G75*
G02*
X10348601Y-11950461I-25000J0D01*
G01*
X10348601Y-11950461D02*
G75*
G02*
X10398601Y-11950461I25000J0D01*
G01*
X10344998Y-11971242D02*
X10394382Y-11979064D01*
X10402204Y-11929680D02*
G75*
G02*
X10394382Y-11979064I-3911J-24692D01*
G01*
X10402204Y-11929680D02*
X10352820Y-11921858D01*
X10352820Y-11921858D02*
G75*
G03*
X10344998Y-11971242I-3911J-24692D01*
G01*
X10923732Y-11831141D02*
G75*
G02*
X10873732Y-11831141I-25000J0D01*
G01*
X10873732Y-11831141D02*
G75*
G02*
X10923732Y-11831141I25000J0D01*
G01*
X10870129Y-11851922D02*
X10919513Y-11859744D01*
X10927335Y-11810359D02*
G75*
G02*
X10919513Y-11859744I-3911J-24692D01*
G01*
X10927335Y-11810359D02*
X10877951Y-11802538D01*
X10877951Y-11802538D02*
G75*
G03*
X10870129Y-11851922I-3911J-24692D01*
G01*
X11533000Y-6224000D02*
G75*
G02*
X11483000Y-6224000I-25000J0D01*
G01*
X11483000Y-6224000D02*
G75*
G02*
X11533000Y-6224000I25000J0D01*
G01*
X11483000Y-6249000D02*
X11533000Y-6249000D01*
X11533000Y-6199000D02*
G75*
G02*
X11533000Y-6249000I0J-25000D01*
G01*
X11533000Y-6199000D02*
X11483000Y-6199000D01*
X11483000Y-6199000D02*
G75*
G03*
X11483000Y-6249000I0J-25000D01*
G01*
X11533000Y-8124000D02*
G75*
G02*
X11483000Y-8124000I-25000J0D01*
G01*
X11483000Y-8124000D02*
G75*
G02*
X11533000Y-8124000I25000J0D01*
G01*
X11483000Y-8149000D02*
X11533000Y-8149000D01*
X11533000Y-8099000D02*
G75*
G02*
X11533000Y-8149000I0J-25000D01*
G01*
X11533000Y-8099000D02*
X11483000Y-8099000D01*
X11483000Y-8099000D02*
G75*
G03*
X11483000Y-8149000I0J-25000D01*
G01*
X11533000Y-10024000D02*
G75*
G02*
X11483000Y-10024000I-25000J0D01*
G01*
X11483000Y-10024000D02*
G75*
G02*
X11533000Y-10024000I25000J0D01*
G01*
X11483000Y-10049000D02*
X11533000Y-10049000D01*
X11533000Y-9999000D02*
G75*
G02*
X11533000Y-10049000I0J-25000D01*
G01*
X11533000Y-9999000D02*
X11483000Y-9999000D01*
X11483000Y-9999000D02*
G75*
G03*
X11483000Y-10049000I0J-25000D01*
G01*
X12033000Y-6024000D02*
G75*
G02*
X11983000Y-6024000I-25000J0D01*
G01*
X11983000Y-6024000D02*
G75*
G02*
X12033000Y-6024000I25000J0D01*
G01*
X11983000Y-6049000D02*
X12033000Y-6049000D01*
X12033000Y-5999000D02*
G75*
G02*
X12033000Y-6049000I0J-25000D01*
G01*
X12033000Y-5999000D02*
X11983000Y-5999000D01*
X11983000Y-5999000D02*
G75*
G03*
X11983000Y-6049000I0J-25000D01*
G01*
X12033000Y-7924000D02*
G75*
G02*
X11983000Y-7924000I-25000J0D01*
G01*
X11983000Y-7924000D02*
G75*
G02*
X12033000Y-7924000I25000J0D01*
G01*
X11983000Y-7949000D02*
X12033000Y-7949000D01*
X12033000Y-7899000D02*
G75*
G02*
X12033000Y-7949000I0J-25000D01*
G01*
X12033000Y-7899000D02*
X11983000Y-7899000D01*
X11983000Y-7899000D02*
G75*
G03*
X11983000Y-7949000I0J-25000D01*
G01*
X12033000Y-9824000D02*
G75*
G02*
X11983000Y-9824000I-25000J0D01*
G01*
X11983000Y-9824000D02*
G75*
G02*
X12033000Y-9824000I25000J0D01*
G01*
X11983000Y-9849000D02*
X12033000Y-9849000D01*
X12033000Y-9799000D02*
G75*
G02*
X12033000Y-9849000I0J-25000D01*
G01*
X12033000Y-9799000D02*
X11983000Y-9799000D01*
X11983000Y-9799000D02*
G75*
G03*
X11983000Y-9849000I0J-25000D01*
G01*
X12275209Y-12247687D02*
G75*
G02*
X12225209Y-12247687I-25000J0D01*
G01*
X12225209Y-12247687D02*
G75*
G02*
X12275209Y-12247687I25000J0D01*
G01*
X12221606Y-12268468D02*
X12270990Y-12276290D01*
X12278812Y-12226905D02*
G75*
G02*
X12270990Y-12276290I-3911J-24692D01*
G01*
X12278812Y-12226905D02*
X12229427Y-12219084D01*
X12229427Y-12219084D02*
G75*
G03*
X12221606Y-12268468I-3911J-24692D01*
G01*
X12800340Y-12128366D02*
G75*
G02*
X12750340Y-12128366I-25000J0D01*
G01*
X12750340Y-12128366D02*
G75*
G02*
X12800340Y-12128366I25000J0D01*
G01*
X12746737Y-12149148D02*
X12796121Y-12156969D01*
X12803943Y-12107585D02*
G75*
G02*
X12796121Y-12156969I-3911J-24692D01*
G01*
X12803943Y-12107585D02*
X12754558Y-12099763D01*
X12754558Y-12099763D02*
G75*
G03*
X12746737Y-12149148I-3911J-24692D01*
G01*
X17267103Y-12404121D02*
G75*
G02*
X17217103Y-12404121I-25000J0D01*
G01*
X17217103Y-12404121D02*
G75*
G02*
X17267103Y-12404121I25000J0D01*
G01*
X17221322Y-12432724D02*
X17270706Y-12424902D01*
X17262884Y-12375518D02*
G75*
G02*
X17270706Y-12424902I3911J-24692D01*
G01*
X17262884Y-12375518D02*
X17213500Y-12383340D01*
X17213500Y-12383340D02*
G75*
G03*
X17221322Y-12432724I3911J-24692D01*
G01*
X17729660Y-12128366D02*
G75*
G02*
X17679660Y-12128366I-25000J0D01*
G01*
X17679660Y-12128366D02*
G75*
G02*
X17729660Y-12128366I25000J0D01*
G01*
X17683879Y-12156969D02*
X17733263Y-12149148D01*
X17725442Y-12099763D02*
G75*
G02*
X17733263Y-12149148I3911J-24692D01*
G01*
X17725442Y-12099763D02*
X17676057Y-12107585D01*
X17676057Y-12107585D02*
G75*
G03*
X17683879Y-12156969I3911J-24692D01*
G01*
X17997000Y-6224000D02*
G75*
G02*
X17947000Y-6224000I-25000J0D01*
G01*
X17947000Y-6224000D02*
G75*
G02*
X17997000Y-6224000I25000J0D01*
G01*
X17947000Y-6249000D02*
X17997000Y-6249000D01*
X17997000Y-6199000D02*
G75*
G02*
X17997000Y-6249000I0J-25000D01*
G01*
X17997000Y-6199000D02*
X17947000Y-6199000D01*
X17947000Y-6199000D02*
G75*
G03*
X17947000Y-6249000I0J-25000D01*
G01*
X17997000Y-8124000D02*
G75*
G02*
X17947000Y-8124000I-25000J0D01*
G01*
X17947000Y-8124000D02*
G75*
G02*
X17997000Y-8124000I25000J0D01*
G01*
X17947000Y-8149000D02*
X17997000Y-8149000D01*
X17997000Y-8099000D02*
G75*
G02*
X17997000Y-8149000I0J-25000D01*
G01*
X17997000Y-8099000D02*
X17947000Y-8099000D01*
X17947000Y-8099000D02*
G75*
G03*
X17947000Y-8149000I0J-25000D01*
G01*
X17997000Y-10024000D02*
G75*
G02*
X17947000Y-10024000I-25000J0D01*
G01*
X17947000Y-10024000D02*
G75*
G02*
X17997000Y-10024000I25000J0D01*
G01*
X17947000Y-10049000D02*
X17997000Y-10049000D01*
X17997000Y-9999000D02*
G75*
G02*
X17997000Y-10049000I0J-25000D01*
G01*
X17997000Y-9999000D02*
X17947000Y-9999000D01*
X17947000Y-9999000D02*
G75*
G03*
X17947000Y-10049000I0J-25000D01*
G01*
X18497000Y-6024000D02*
G75*
G02*
X18447000Y-6024000I-25000J0D01*
G01*
X18447000Y-6024000D02*
G75*
G02*
X18497000Y-6024000I25000J0D01*
G01*
X18447000Y-6049000D02*
X18497000Y-6049000D01*
X18497000Y-5999000D02*
G75*
G02*
X18497000Y-6049000I0J-25000D01*
G01*
X18497000Y-5999000D02*
X18447000Y-5999000D01*
X18447000Y-5999000D02*
G75*
G03*
X18447000Y-6049000I0J-25000D01*
G01*
X18497000Y-7924000D02*
G75*
G02*
X18447000Y-7924000I-25000J0D01*
G01*
X18447000Y-7924000D02*
G75*
G02*
X18497000Y-7924000I25000J0D01*
G01*
X18447000Y-7949000D02*
X18497000Y-7949000D01*
X18497000Y-7899000D02*
G75*
G02*
X18497000Y-7949000I0J-25000D01*
G01*
X18497000Y-7899000D02*
X18447000Y-7899000D01*
X18447000Y-7899000D02*
G75*
G03*
X18447000Y-7949000I0J-25000D01*
G01*
X18497000Y-9824000D02*
G75*
G02*
X18447000Y-9824000I-25000J0D01*
G01*
X18447000Y-9824000D02*
G75*
G02*
X18497000Y-9824000I25000J0D01*
G01*
X18447000Y-9849000D02*
X18497000Y-9849000D01*
X18497000Y-9799000D02*
G75*
G02*
X18497000Y-9849000I0J-25000D01*
G01*
X18497000Y-9799000D02*
X18447000Y-9799000D01*
X18447000Y-9799000D02*
G75*
G03*
X18447000Y-9849000I0J-25000D01*
G01*
X19143711Y-12106896D02*
G75*
G02*
X19093711Y-12106896I-25000J0D01*
G01*
X19093711Y-12106896D02*
G75*
G02*
X19143711Y-12106896I25000J0D01*
G01*
X19097929Y-12135499D02*
X19147314Y-12127677D01*
X19139492Y-12078293D02*
G75*
G02*
X19147314Y-12127677I3911J-24692D01*
G01*
X19139492Y-12078293D02*
X19090108Y-12086114D01*
X19090108Y-12086114D02*
G75*
G03*
X19097929Y-12135499I3911J-24692D01*
G01*
X19606268Y-11831141D02*
G75*
G02*
X19556268Y-11831141I-25000J0D01*
G01*
X19556268Y-11831141D02*
G75*
G02*
X19606268Y-11831141I25000J0D01*
G01*
X19560487Y-11859744D02*
X19609871Y-11851922D01*
X19602049Y-11802538D02*
G75*
G02*
X19609871Y-11851922I3911J-24692D01*
G01*
X19602049Y-11802538D02*
X19552665Y-11810359D01*
X19552665Y-11810359D02*
G75*
G03*
X19560487Y-11859744I3911J-24692D01*
G01*
X19897000Y-5924000D02*
G75*
G02*
X19847000Y-5924000I-25000J0D01*
G01*
X19847000Y-5924000D02*
G75*
G02*
X19897000Y-5924000I25000J0D01*
G01*
X19847000Y-5949000D02*
X19897000Y-5949000D01*
X19897000Y-5899000D02*
G75*
G02*
X19897000Y-5949000I0J-25000D01*
G01*
X19897000Y-5899000D02*
X19847000Y-5899000D01*
X19847000Y-5899000D02*
G75*
G03*
X19847000Y-5949000I0J-25000D01*
G01*
X19897000Y-7824000D02*
G75*
G02*
X19847000Y-7824000I-25000J0D01*
G01*
X19847000Y-7824000D02*
G75*
G02*
X19897000Y-7824000I25000J0D01*
G01*
X19847000Y-7849000D02*
X19897000Y-7849000D01*
X19897000Y-7799000D02*
G75*
G02*
X19897000Y-7849000I0J-25000D01*
G01*
X19897000Y-7799000D02*
X19847000Y-7799000D01*
X19847000Y-7799000D02*
G75*
G03*
X19847000Y-7849000I0J-25000D01*
G01*
X19897000Y-9724000D02*
G75*
G02*
X19847000Y-9724000I-25000J0D01*
G01*
X19847000Y-9724000D02*
G75*
G02*
X19897000Y-9724000I25000J0D01*
G01*
X19847000Y-9749000D02*
X19897000Y-9749000D01*
X19897000Y-9699000D02*
G75*
G02*
X19897000Y-9749000I0J-25000D01*
G01*
X19897000Y-9699000D02*
X19847000Y-9699000D01*
X19847000Y-9699000D02*
G75*
G03*
X19847000Y-9749000I0J-25000D01*
G01*
X20397000Y-5724000D02*
G75*
G02*
X20347000Y-5724000I-25000J0D01*
G01*
X20347000Y-5724000D02*
G75*
G02*
X20397000Y-5724000I25000J0D01*
G01*
X20347000Y-5749000D02*
X20397000Y-5749000D01*
X20397000Y-5699000D02*
G75*
G02*
X20397000Y-5749000I0J-25000D01*
G01*
X20397000Y-5699000D02*
X20347000Y-5699000D01*
X20347000Y-5699000D02*
G75*
G03*
X20347000Y-5749000I0J-25000D01*
G01*
X20397000Y-7624000D02*
G75*
G02*
X20347000Y-7624000I-25000J0D01*
G01*
X20347000Y-7624000D02*
G75*
G02*
X20397000Y-7624000I25000J0D01*
G01*
X20347000Y-7649000D02*
X20397000Y-7649000D01*
X20397000Y-7599000D02*
G75*
G02*
X20397000Y-7649000I0J-25000D01*
G01*
X20397000Y-7599000D02*
X20347000Y-7599000D01*
X20347000Y-7599000D02*
G75*
G03*
X20347000Y-7649000I0J-25000D01*
G01*
X20397000Y-9524000D02*
G75*
G02*
X20347000Y-9524000I-25000J0D01*
G01*
X20347000Y-9524000D02*
G75*
G02*
X20397000Y-9524000I25000J0D01*
G01*
X20347000Y-9549000D02*
X20397000Y-9549000D01*
X20397000Y-9499000D02*
G75*
G02*
X20397000Y-9549000I0J-25000D01*
G01*
X20397000Y-9499000D02*
X20347000Y-9499000D01*
X20347000Y-9499000D02*
G75*
G03*
X20347000Y-9549000I0J-25000D01*
G01*
X21797000Y-4924000D02*
G75*
G02*
X21747000Y-4924000I-25000J0D01*
G01*
X21747000Y-4924000D02*
G75*
G02*
X21797000Y-4924000I25000J0D01*
G01*
X21747000Y-4949000D02*
X21797000Y-4949000D01*
X21797000Y-4899000D02*
G75*
G02*
X21797000Y-4949000I0J-25000D01*
G01*
X21797000Y-4899000D02*
X21747000Y-4899000D01*
X21747000Y-4899000D02*
G75*
G03*
X21747000Y-4949000I0J-25000D01*
G01*
X21797000Y-6824000D02*
G75*
G02*
X21747000Y-6824000I-25000J0D01*
G01*
X21747000Y-6824000D02*
G75*
G02*
X21797000Y-6824000I25000J0D01*
G01*
X21747000Y-6849000D02*
X21797000Y-6849000D01*
X21797000Y-6799000D02*
G75*
G02*
X21797000Y-6849000I0J-25000D01*
G01*
X21797000Y-6799000D02*
X21747000Y-6799000D01*
X21747000Y-6799000D02*
G75*
G03*
X21747000Y-6849000I0J-25000D01*
G01*
X21797000Y-8724000D02*
G75*
G02*
X21747000Y-8724000I-25000J0D01*
G01*
X21747000Y-8724000D02*
G75*
G02*
X21797000Y-8724000I25000J0D01*
G01*
X21747000Y-8749000D02*
X21797000Y-8749000D01*
X21797000Y-8699000D02*
G75*
G02*
X21797000Y-8749000I0J-25000D01*
G01*
X21797000Y-8699000D02*
X21747000Y-8699000D01*
X21747000Y-8699000D02*
G75*
G03*
X21747000Y-8749000I0J-25000D01*
G01*
X22297000Y-4724000D02*
G75*
G02*
X22247000Y-4724000I-25000J0D01*
G01*
X22247000Y-4724000D02*
G75*
G02*
X22297000Y-4724000I25000J0D01*
G01*
X22247000Y-4749000D02*
X22297000Y-4749000D01*
X22297000Y-4699000D02*
G75*
G02*
X22297000Y-4749000I0J-25000D01*
G01*
X22297000Y-4699000D02*
X22247000Y-4699000D01*
X22247000Y-4699000D02*
G75*
G03*
X22247000Y-4749000I0J-25000D01*
G01*
X22297000Y-6624000D02*
G75*
G02*
X22247000Y-6624000I-25000J0D01*
G01*
X22247000Y-6624000D02*
G75*
G02*
X22297000Y-6624000I25000J0D01*
G01*
X22247000Y-6649000D02*
X22297000Y-6649000D01*
X22297000Y-6599000D02*
G75*
G02*
X22297000Y-6649000I0J-25000D01*
G01*
X22297000Y-6599000D02*
X22247000Y-6599000D01*
X22247000Y-6599000D02*
G75*
G03*
X22247000Y-6649000I0J-25000D01*
G01*
X22297000Y-8524000D02*
G75*
G02*
X22247000Y-8524000I-25000J0D01*
G01*
X22247000Y-8524000D02*
G75*
G02*
X22297000Y-8524000I25000J0D01*
G01*
X22247000Y-8549000D02*
X22297000Y-8549000D01*
X22297000Y-8499000D02*
G75*
G02*
X22297000Y-8549000I0J-25000D01*
G01*
X22297000Y-8499000D02*
X22247000Y-8499000D01*
X22247000Y-8499000D02*
G75*
G03*
X22247000Y-8549000I0J-25000D01*
G01*
X23682022Y-10081868D02*
G75*
G02*
X23632022Y-10081868I-25000J0D01*
G01*
X23632022Y-10081868D02*
G75*
G02*
X23682022Y-10081868I25000J0D01*
G01*
X23629938Y-10104594D02*
X23679748Y-10108952D01*
X23684106Y-10059142D02*
G75*
G02*
X23679748Y-10108952I-2179J-24905D01*
G01*
X23684106Y-10059142D02*
X23634296Y-10054784D01*
X23634296Y-10054784D02*
G75*
G03*
X23629938Y-10104594I-2179J-24905D01*
G01*
X23847618Y-8189098D02*
G75*
G02*
X23797618Y-8189098I-25000J0D01*
G01*
X23797618Y-8189098D02*
G75*
G02*
X23847618Y-8189098I25000J0D01*
G01*
X23795534Y-8211824D02*
X23845344Y-8216182D01*
X23849701Y-8166372D02*
G75*
G02*
X23845344Y-8216182I-2179J-24905D01*
G01*
X23849701Y-8166372D02*
X23799892Y-8162014D01*
X23799892Y-8162014D02*
G75*
G03*
X23795534Y-8211824I-2179J-24905D01*
G01*
X24013214Y-6296328D02*
G75*
G02*
X23963214Y-6296328I-25000J0D01*
G01*
X23963214Y-6296328D02*
G75*
G02*
X24013214Y-6296328I25000J0D01*
G01*
X23961130Y-6319054D02*
X24010940Y-6323412D01*
X24015297Y-6273602D02*
G75*
G02*
X24010940Y-6323412I-2179J-24905D01*
G01*
X24015297Y-6273602D02*
X23965488Y-6269244D01*
X23965488Y-6269244D02*
G75*
G03*
X23961130Y-6319054I-2179J-24905D01*
G01*
X24197550Y-9926207D02*
G75*
G02*
X24147550Y-9926207I-25000J0D01*
G01*
X24147550Y-9926207D02*
G75*
G02*
X24197550Y-9926207I25000J0D01*
G01*
X24145466Y-9948933D02*
X24195276Y-9953291D01*
X24199634Y-9903481D02*
G75*
G02*
X24195276Y-9953291I-2179J-24905D01*
G01*
X24199634Y-9903481D02*
X24149824Y-9899123D01*
X24149824Y-9899123D02*
G75*
G03*
X24145466Y-9948933I-2179J-24905D01*
G01*
X24363146Y-8033437D02*
G75*
G02*
X24313146Y-8033437I-25000J0D01*
G01*
X24313146Y-8033437D02*
G75*
G02*
X24363146Y-8033437I25000J0D01*
G01*
X24311062Y-8056163D02*
X24360872Y-8060521D01*
X24365230Y-8010711D02*
G75*
G02*
X24360872Y-8060521I-2179J-24905D01*
G01*
X24365230Y-8010711D02*
X24315420Y-8006353D01*
X24315420Y-8006353D02*
G75*
G03*
X24311062Y-8056163I-2179J-24905D01*
G01*
X24528742Y-6140667D02*
G75*
G02*
X24478742Y-6140667I-25000J0D01*
G01*
X24478742Y-6140667D02*
G75*
G02*
X24528742Y-6140667I25000J0D01*
G01*
X24476658Y-6163393D02*
X24526468Y-6167751D01*
X24530826Y-6117941D02*
G75*
G02*
X24526468Y-6167751I-2179J-24905D01*
G01*
X24530826Y-6117941D02*
X24481016Y-6113583D01*
X24481016Y-6113583D02*
G75*
G03*
X24476658Y-6163393I-2179J-24905D01*
G01*
X25357134Y-11753156D02*
G75*
G02*
X25307134Y-11753156I-25000J0D01*
G01*
X25307134Y-11753156D02*
G75*
G02*
X25357134Y-11753156I25000J0D01*
G01*
X25303676Y-11774136D02*
X25353114Y-11781613D01*
X25360591Y-11732175D02*
G75*
G02*
X25353114Y-11781613I-3738J-24719D01*
G01*
X25360591Y-11732175D02*
X25311153Y-11724699D01*
X25311153Y-11724699D02*
G75*
G03*
X25303676Y-11774136I-3738J-24719D01*
G01*
X25641251Y-9874519D02*
G75*
G02*
X25591251Y-9874519I-25000J0D01*
G01*
X25591251Y-9874519D02*
G75*
G02*
X25641251Y-9874519I25000J0D01*
G01*
X25587794Y-9895499D02*
X25637231Y-9902976D01*
X25644708Y-9853538D02*
G75*
G02*
X25637231Y-9902976I-3738J-24719D01*
G01*
X25644708Y-9853538D02*
X25595270Y-9846062D01*
X25595270Y-9846062D02*
G75*
G03*
X25587794Y-9895499I-3738J-24719D01*
G01*
X25881419Y-11630172D02*
G75*
G02*
X25831419Y-11630172I-25000J0D01*
G01*
X25831419Y-11630172D02*
G75*
G02*
X25881419Y-11630172I25000J0D01*
G01*
X25827962Y-11651153D02*
X25877400Y-11658630D01*
X25884876Y-11609192D02*
G75*
G02*
X25877400Y-11658630I-3738J-24719D01*
G01*
X25884876Y-11609192D02*
X25835439Y-11601715D01*
X25835439Y-11601715D02*
G75*
G03*
X25827962Y-11651153I-3738J-24719D01*
G01*
X25925368Y-7995882D02*
G75*
G02*
X25875368Y-7995882I-25000J0D01*
G01*
X25875368Y-7995882D02*
G75*
G02*
X25925368Y-7995882I25000J0D01*
G01*
X25871911Y-8016862D02*
X25921349Y-8024339D01*
X25928825Y-7974901D02*
G75*
G02*
X25921349Y-8024339I-3738J-24719D01*
G01*
X25928825Y-7974901D02*
X25879388Y-7967424D01*
X25879388Y-7967424D02*
G75*
G03*
X25871911Y-8016862I-3738J-24719D01*
G01*
X26165536Y-9751535D02*
G75*
G02*
X26115536Y-9751535I-25000J0D01*
G01*
X26115536Y-9751535D02*
G75*
G02*
X26165536Y-9751535I25000J0D01*
G01*
X26112079Y-9772516D02*
X26161517Y-9779993D01*
X26168994Y-9730555D02*
G75*
G02*
X26161517Y-9779993I-3738J-24719D01*
G01*
X26168994Y-9730555D02*
X26119556Y-9723078D01*
X26119556Y-9723078D02*
G75*
G03*
X26112079Y-9772516I-3738J-24719D01*
G01*
X26449653Y-7872898D02*
G75*
G02*
X26399653Y-7872898I-25000J0D01*
G01*
X26399653Y-7872898D02*
G75*
G02*
X26449653Y-7872898I25000J0D01*
G01*
X26396196Y-7893879D02*
X26445634Y-7901355D01*
X26453111Y-7851918D02*
G75*
G02*
X26445634Y-7901355I-3738J-24719D01*
G01*
X26453111Y-7851918D02*
X26403673Y-7844441D01*
X26403673Y-7844441D02*
G75*
G03*
X26396196Y-7893879I-3738J-24719D01*
G01*
D14*
X13208000Y-6549390D02*
X13208000Y-6658610D01*
X13153390Y-6604000D02*
X13262610Y-6604000D01*
X13208000Y-6803390D02*
X13208000Y-6912610D01*
X13153390Y-6858000D02*
X13262610Y-6858000D01*
X13208000Y-7057390D02*
X13208000Y-7166610D01*
X13153390Y-7112000D02*
X13262610Y-7112000D01*
X13208000Y-7311390D02*
X13208000Y-7420610D01*
X13153390Y-7366000D02*
X13262610Y-7366000D01*
X13208000Y-7565390D02*
X13208000Y-7674610D01*
X13153390Y-7620000D02*
X13262610Y-7620000D01*
X13208000Y-7819390D02*
X13208000Y-7928610D01*
X13153390Y-7874000D02*
X13262610Y-7874000D01*
X13208000Y-8073390D02*
X13208000Y-8182610D01*
X13153390Y-8128000D02*
X13262610Y-8128000D01*
X13208000Y-8327390D02*
X13208000Y-8436610D01*
X13153390Y-8382000D02*
X13262610Y-8382000D01*
X13208000Y-8581390D02*
X13208000Y-8690610D01*
X13153390Y-8636000D02*
X13262610Y-8636000D01*
X13208000Y-8835390D02*
X13208000Y-8944610D01*
X13153390Y-8890000D02*
X13262610Y-8890000D01*
X13208000Y-9089390D02*
X13208000Y-9198610D01*
X13153390Y-9144000D02*
X13262610Y-9144000D01*
X13208000Y-9343390D02*
X13208000Y-9452610D01*
X13153390Y-9398000D02*
X13262610Y-9398000D01*
X13208000Y-9597390D02*
X13208000Y-9706610D01*
X13153390Y-9652000D02*
X13262610Y-9652000D01*
X13462000Y-9089390D02*
X13462000Y-9198610D01*
X13407390Y-9144000D02*
X13516610Y-9144000D01*
X13716000Y-9089390D02*
X13716000Y-9198610D01*
X13661390Y-9144000D02*
X13770610Y-9144000D01*
X13970000Y-9089390D02*
X13970000Y-9198610D01*
X13915390Y-9144000D02*
X14024610Y-9144000D01*
X14732000Y-6549390D02*
X14732000Y-6658610D01*
X14677390Y-6604000D02*
X14786610Y-6604000D01*
X14732000Y-6803390D02*
X14732000Y-6912610D01*
X14677390Y-6858000D02*
X14786610Y-6858000D01*
X14732000Y-7057390D02*
X14732000Y-7166610D01*
X14677390Y-7112000D02*
X14786610Y-7112000D01*
X14732000Y-7311390D02*
X14732000Y-7420610D01*
X14677390Y-7366000D02*
X14786610Y-7366000D01*
X14732000Y-7565390D02*
X14732000Y-7674610D01*
X14677390Y-7620000D02*
X14786610Y-7620000D01*
X14732000Y-7819390D02*
X14732000Y-7928610D01*
X14677390Y-7874000D02*
X14786610Y-7874000D01*
X14732000Y-8073390D02*
X14732000Y-8182610D01*
X14677390Y-8128000D02*
X14786610Y-8128000D01*
X14732000Y-8327390D02*
X14732000Y-8436610D01*
X14677390Y-8382000D02*
X14786610Y-8382000D01*
X14732000Y-8581390D02*
X14732000Y-8690610D01*
X14677390Y-8636000D02*
X14786610Y-8636000D01*
X14732000Y-8835390D02*
X14732000Y-8944610D01*
X14677390Y-8890000D02*
X14786610Y-8890000D01*
X14732000Y-9089390D02*
X14732000Y-9198610D01*
X14677390Y-9144000D02*
X14786610Y-9144000D01*
X14732000Y-9343390D02*
X14732000Y-9452610D01*
X14677390Y-9398000D02*
X14786610Y-9398000D01*
X14732000Y-9597390D02*
X14732000Y-9706610D01*
X14677390Y-9652000D02*
X14786610Y-9652000D01*
X15748000Y-6549390D02*
X15748000Y-6658610D01*
X15693390Y-6604000D02*
X15802610Y-6604000D01*
X15748000Y-6803390D02*
X15748000Y-6912610D01*
X15693390Y-6858000D02*
X15802610Y-6858000D01*
X15748000Y-7057390D02*
X15748000Y-7166610D01*
X15693390Y-7112000D02*
X15802610Y-7112000D01*
X15748000Y-7311390D02*
X15748000Y-7420610D01*
X15693390Y-7366000D02*
X15802610Y-7366000D01*
X15748000Y-7565390D02*
X15748000Y-7674610D01*
X15693390Y-7620000D02*
X15802610Y-7620000D01*
X15748000Y-7819390D02*
X15748000Y-7928610D01*
X15693390Y-7874000D02*
X15802610Y-7874000D01*
X15748000Y-8073390D02*
X15748000Y-8182610D01*
X15693390Y-8128000D02*
X15802610Y-8128000D01*
X15748000Y-8327390D02*
X15748000Y-8436610D01*
X15693390Y-8382000D02*
X15802610Y-8382000D01*
X15748000Y-8581390D02*
X15748000Y-8690610D01*
X15693390Y-8636000D02*
X15802610Y-8636000D01*
X15748000Y-8835390D02*
X15748000Y-8944610D01*
X15693390Y-8890000D02*
X15802610Y-8890000D01*
X15748000Y-9089390D02*
X15748000Y-9198610D01*
X15693390Y-9144000D02*
X15802610Y-9144000D01*
X15748000Y-9343390D02*
X15748000Y-9452610D01*
X15693390Y-9398000D02*
X15802610Y-9398000D01*
X15748000Y-9597390D02*
X15748000Y-9706610D01*
X15693390Y-9652000D02*
X15802610Y-9652000D01*
X16002000Y-9089390D02*
X16002000Y-9198610D01*
X15947390Y-9144000D02*
X16056610Y-9144000D01*
X16256000Y-9089390D02*
X16256000Y-9198610D01*
X16201390Y-9144000D02*
X16310610Y-9144000D01*
X16510000Y-9089390D02*
X16510000Y-9198610D01*
X16455390Y-9144000D02*
X16564610Y-9144000D01*
X17272000Y-6549390D02*
X17272000Y-6658610D01*
X17217390Y-6604000D02*
X17326610Y-6604000D01*
X17272000Y-6803390D02*
X17272000Y-6912610D01*
X17217390Y-6858000D02*
X17326610Y-6858000D01*
X17272000Y-7057390D02*
X17272000Y-7166610D01*
X17217390Y-7112000D02*
X17326610Y-7112000D01*
X17272000Y-7311390D02*
X17272000Y-7420610D01*
X17217390Y-7366000D02*
X17326610Y-7366000D01*
X17272000Y-7565390D02*
X17272000Y-7674610D01*
X17217390Y-7620000D02*
X17326610Y-7620000D01*
X17272000Y-7819390D02*
X17272000Y-7928610D01*
X17217390Y-7874000D02*
X17326610Y-7874000D01*
X17272000Y-8073390D02*
X17272000Y-8182610D01*
X17217390Y-8128000D02*
X17326610Y-8128000D01*
X17272000Y-8327390D02*
X17272000Y-8436610D01*
X17217390Y-8382000D02*
X17326610Y-8382000D01*
X17272000Y-8581390D02*
X17272000Y-8690610D01*
X17217390Y-8636000D02*
X17326610Y-8636000D01*
X17272000Y-8835390D02*
X17272000Y-8944610D01*
X17217390Y-8890000D02*
X17326610Y-8890000D01*
X17272000Y-9089390D02*
X17272000Y-9198610D01*
X17217390Y-9144000D02*
X17326610Y-9144000D01*
X17272000Y-9343390D02*
X17272000Y-9452610D01*
X17217390Y-9398000D02*
X17326610Y-9398000D01*
X17272000Y-9597390D02*
X17272000Y-9706610D01*
X17217390Y-9652000D02*
X17326610Y-9652000D01*
D15*
X4014782Y-9475783D02*
X4014782Y-9320218D01*
X3859217Y-9320218D01*
X3859217Y-9475783D01*
X4014782Y-9475783D01*
X4395783Y-11380782D02*
X4395783Y-11225217D01*
X4240218Y-11225217D01*
X4240218Y-11380782D01*
X4395783Y-11380782D01*
X5284783Y-7926382D02*
X5284783Y-7770817D01*
X5129218Y-7770817D01*
X5129218Y-7926382D01*
X5284783Y-7926382D01*
X6681782Y-12396782D02*
X6681782Y-12241217D01*
X6526217Y-12241217D01*
X6526217Y-12396782D01*
X6681782Y-12396782D01*
X7138982Y-9653583D02*
X7138982Y-9498018D01*
X6983417Y-9498018D01*
X6983417Y-9653583D01*
X7138982Y-9653583D01*
X8281982Y-6148382D02*
X8281982Y-5992817D01*
X8126417Y-5992817D01*
X8126417Y-6148382D01*
X8281982Y-6148382D01*
X9297983Y-9450383D02*
X9297983Y-9294818D01*
X9142418Y-9294818D01*
X9142418Y-9450383D01*
X9297983Y-9450383D01*
X9729783Y-12650782D02*
X9729783Y-12495217D01*
X9574218Y-12495217D01*
X9574218Y-12650782D01*
X9729783Y-12650782D01*
X10821983Y-7138982D02*
X10821983Y-6983417D01*
X10666418Y-6983417D01*
X10666418Y-7138982D01*
X10821983Y-7138982D01*
X10948983Y-11050583D02*
X10948983Y-10895018D01*
X10793418Y-10895018D01*
X10793418Y-11050583D01*
X10948983Y-11050583D01*
X13260382Y-13412782D02*
X13260382Y-13257217D01*
X13104817Y-13257217D01*
X13104817Y-13412782D01*
X13260382Y-13412782D01*
X13666782Y-11126783D02*
X13666782Y-10971218D01*
X13511217Y-10971218D01*
X13511217Y-11126783D01*
X13666782Y-11126783D01*
X14047782Y-7443782D02*
X14047782Y-7288217D01*
X13892217Y-7288217D01*
X13892217Y-7443782D01*
X14047782Y-7443782D01*
X16587782Y-7443782D02*
X16587782Y-7288217D01*
X16432217Y-7288217D01*
X16432217Y-7443782D01*
X16587782Y-7443782D01*
X16968783Y-11126783D02*
X16968783Y-10971218D01*
X16813218Y-10971218D01*
X16813218Y-11126783D01*
X16968783Y-11126783D01*
X17933983Y-13361982D02*
X17933983Y-13206417D01*
X17778418Y-13206417D01*
X17778418Y-13361982D01*
X17933983Y-13361982D01*
X19508783Y-7011982D02*
X19508783Y-6856417D01*
X19353218Y-6856417D01*
X19353218Y-7011982D01*
X19508783Y-7011982D01*
X19508783Y-10948983D02*
X19508783Y-10793418D01*
X19353218Y-10793418D01*
X19353218Y-10948983D01*
X19508783Y-10948983D01*
X20905783Y-12650782D02*
X20905783Y-12495217D01*
X20750218Y-12495217D01*
X20750218Y-12650782D01*
X20905783Y-12650782D01*
X21337583Y-9450383D02*
X21337583Y-9294818D01*
X21182018Y-9294818D01*
X21182018Y-9450383D01*
X21337583Y-9450383D01*
X22353583Y-6148382D02*
X22353583Y-5992817D01*
X22198018Y-5992817D01*
X22198018Y-6148382D01*
X22353583Y-6148382D01*
X23496582Y-9653583D02*
X23496582Y-9498018D01*
X23341017Y-9498018D01*
X23341017Y-9653583D01*
X23496582Y-9653583D01*
X23953782Y-12396782D02*
X23953782Y-12241217D01*
X23798217Y-12241217D01*
X23798217Y-12396782D01*
X23953782Y-12396782D01*
X25350782Y-7926382D02*
X25350782Y-7770817D01*
X25195217Y-7770817D01*
X25195217Y-7926382D01*
X25350782Y-7926382D01*
X26366782Y-11228382D02*
X26366782Y-11072818D01*
X26211217Y-11072818D01*
X26211217Y-11228382D01*
X26366782Y-11228382D01*
X26747782Y-9424983D02*
X26747782Y-9269418D01*
X26592217Y-9269418D01*
X26592217Y-9424983D01*
X26747782Y-9424983D01*
D12*
X3323245Y-14097715D02*
X3323245Y-13897715D01*
X3323245Y-13897715D02*
X3370864Y-13897715D01*
X3370864Y-13897715D02*
X3399435Y-13907238D01*
X3399435Y-13907238D02*
X3418483Y-13926286D01*
X3418483Y-13926286D02*
X3428007Y-13945334D01*
X3428007Y-13945334D02*
X3437531Y-13983429D01*
X3437531Y-13983429D02*
X3437531Y-14012000D01*
X3437531Y-14012000D02*
X3428007Y-14050096D01*
X3428007Y-14050096D02*
X3418483Y-14069143D01*
X3418483Y-14069143D02*
X3399435Y-14088191D01*
X3399435Y-14088191D02*
X3370864Y-14097715D01*
X3370864Y-14097715D02*
X3323245Y-14097715D01*
X3523245Y-14097715D02*
X3523245Y-13964381D01*
X3523245Y-14002477D02*
X3532769Y-13983429D01*
X3532769Y-13983429D02*
X3542292Y-13973905D01*
X3542292Y-13973905D02*
X3561340Y-13964381D01*
X3561340Y-13964381D02*
X3580388Y-13964381D01*
X3647054Y-14097715D02*
X3647054Y-13964381D01*
X3647054Y-13897715D02*
X3637531Y-13907238D01*
X3637531Y-13907238D02*
X3647054Y-13916762D01*
X3647054Y-13916762D02*
X3656578Y-13907238D01*
X3656578Y-13907238D02*
X3647054Y-13897715D01*
X3647054Y-13897715D02*
X3647054Y-13916762D01*
X3770864Y-14097715D02*
X3751816Y-14088191D01*
X3751816Y-14088191D02*
X3742292Y-14069143D01*
X3742292Y-14069143D02*
X3742292Y-13897715D01*
X3875626Y-14097715D02*
X3856578Y-14088191D01*
X3856578Y-14088191D02*
X3847054Y-14069143D01*
X3847054Y-14069143D02*
X3847054Y-13897715D01*
X4104197Y-14097715D02*
X4104197Y-13897715D01*
X4104197Y-13897715D02*
X4170864Y-14040572D01*
X4170864Y-14040572D02*
X4237531Y-13897715D01*
X4237531Y-13897715D02*
X4237531Y-14097715D01*
X4418483Y-14097715D02*
X4418483Y-13992953D01*
X4418483Y-13992953D02*
X4408959Y-13973905D01*
X4408959Y-13973905D02*
X4389912Y-13964381D01*
X4389912Y-13964381D02*
X4351816Y-13964381D01*
X4351816Y-13964381D02*
X4332769Y-13973905D01*
X4418483Y-14088191D02*
X4399435Y-14097715D01*
X4399435Y-14097715D02*
X4351816Y-14097715D01*
X4351816Y-14097715D02*
X4332769Y-14088191D01*
X4332769Y-14088191D02*
X4323245Y-14069143D01*
X4323245Y-14069143D02*
X4323245Y-14050096D01*
X4323245Y-14050096D02*
X4332769Y-14031048D01*
X4332769Y-14031048D02*
X4351816Y-14021524D01*
X4351816Y-14021524D02*
X4399435Y-14021524D01*
X4399435Y-14021524D02*
X4418483Y-14012000D01*
X4513721Y-13964381D02*
X4513721Y-14164381D01*
X4513721Y-13973905D02*
X4532769Y-13964381D01*
X4532769Y-13964381D02*
X4570864Y-13964381D01*
X4570864Y-13964381D02*
X4589912Y-13973905D01*
X4589912Y-13973905D02*
X4599435Y-13983429D01*
X4599435Y-13983429D02*
X4608959Y-14002477D01*
X4608959Y-14002477D02*
X4608959Y-14059619D01*
X4608959Y-14059619D02*
X4599435Y-14078667D01*
X4599435Y-14078667D02*
X4589912Y-14088191D01*
X4589912Y-14088191D02*
X4570864Y-14097715D01*
X4570864Y-14097715D02*
X4532769Y-14097715D01*
X4532769Y-14097715D02*
X4513721Y-14088191D01*
X4694674Y-14078667D02*
X4704197Y-14088191D01*
X4704197Y-14088191D02*
X4694674Y-14097715D01*
X4694674Y-14097715D02*
X4685150Y-14088191D01*
X4685150Y-14088191D02*
X4694674Y-14078667D01*
X4694674Y-14078667D02*
X4694674Y-14097715D01*
X4694674Y-13973905D02*
X4704197Y-13983429D01*
X4704197Y-13983429D02*
X4694674Y-13992953D01*
X4694674Y-13992953D02*
X4685150Y-13983429D01*
X4685150Y-13983429D02*
X4694674Y-13973905D01*
X4694674Y-13973905D02*
X4694674Y-13992953D01*
D13*
X3032468Y-14411231D02*
X3062468Y-14441231D01*
X3062468Y-14411231D02*
X3032468Y-14441231D01*
D12*
X3361340Y-14317715D02*
X3380388Y-14317715D01*
X3380388Y-14317715D02*
X3399435Y-14327238D01*
X3399435Y-14327238D02*
X3408959Y-14336762D01*
X3408959Y-14336762D02*
X3418483Y-14355810D01*
X3418483Y-14355810D02*
X3428007Y-14393905D01*
X3428007Y-14393905D02*
X3428007Y-14441524D01*
X3428007Y-14441524D02*
X3418483Y-14479619D01*
X3418483Y-14479619D02*
X3408959Y-14498667D01*
X3408959Y-14498667D02*
X3399435Y-14508191D01*
X3399435Y-14508191D02*
X3380388Y-14517715D01*
X3380388Y-14517715D02*
X3361340Y-14517715D01*
X3361340Y-14517715D02*
X3342292Y-14508191D01*
X3342292Y-14508191D02*
X3332769Y-14498667D01*
X3332769Y-14498667D02*
X3323245Y-14479619D01*
X3323245Y-14479619D02*
X3313721Y-14441524D01*
X3313721Y-14441524D02*
X3313721Y-14393905D01*
X3313721Y-14393905D02*
X3323245Y-14355810D01*
X3323245Y-14355810D02*
X3332769Y-14336762D01*
X3332769Y-14336762D02*
X3342292Y-14327238D01*
X3342292Y-14327238D02*
X3361340Y-14317715D01*
X3513721Y-14498667D02*
X3523245Y-14508191D01*
X3523245Y-14508191D02*
X3513721Y-14517715D01*
X3513721Y-14517715D02*
X3504197Y-14508191D01*
X3504197Y-14508191D02*
X3513721Y-14498667D01*
X3513721Y-14498667D02*
X3513721Y-14517715D01*
X3589912Y-14317715D02*
X3713721Y-14317715D01*
X3713721Y-14317715D02*
X3647054Y-14393905D01*
X3647054Y-14393905D02*
X3675626Y-14393905D01*
X3675626Y-14393905D02*
X3694673Y-14403429D01*
X3694673Y-14403429D02*
X3704197Y-14412953D01*
X3704197Y-14412953D02*
X3713721Y-14432000D01*
X3713721Y-14432000D02*
X3713721Y-14479619D01*
X3713721Y-14479619D02*
X3704197Y-14498667D01*
X3704197Y-14498667D02*
X3694673Y-14508191D01*
X3694673Y-14508191D02*
X3675626Y-14517715D01*
X3675626Y-14517715D02*
X3618483Y-14517715D01*
X3618483Y-14517715D02*
X3599435Y-14508191D01*
X3599435Y-14508191D02*
X3589912Y-14498667D01*
X3837531Y-14317715D02*
X3856578Y-14317715D01*
X3856578Y-14317715D02*
X3875626Y-14327238D01*
X3875626Y-14327238D02*
X3885150Y-14336762D01*
X3885150Y-14336762D02*
X3894673Y-14355810D01*
X3894673Y-14355810D02*
X3904197Y-14393905D01*
X3904197Y-14393905D02*
X3904197Y-14441524D01*
X3904197Y-14441524D02*
X3894673Y-14479619D01*
X3894673Y-14479619D02*
X3885150Y-14498667D01*
X3885150Y-14498667D02*
X3875626Y-14508191D01*
X3875626Y-14508191D02*
X3856578Y-14517715D01*
X3856578Y-14517715D02*
X3837531Y-14517715D01*
X3837531Y-14517715D02*
X3818483Y-14508191D01*
X3818483Y-14508191D02*
X3808959Y-14498667D01*
X3808959Y-14498667D02*
X3799435Y-14479619D01*
X3799435Y-14479619D02*
X3789912Y-14441524D01*
X3789912Y-14441524D02*
X3789912Y-14393905D01*
X3789912Y-14393905D02*
X3799435Y-14355810D01*
X3799435Y-14355810D02*
X3808959Y-14336762D01*
X3808959Y-14336762D02*
X3818483Y-14327238D01*
X3818483Y-14327238D02*
X3837531Y-14317715D01*
X4028007Y-14317715D02*
X4047054Y-14317715D01*
X4047054Y-14317715D02*
X4066102Y-14327238D01*
X4066102Y-14327238D02*
X4075626Y-14336762D01*
X4075626Y-14336762D02*
X4085150Y-14355810D01*
X4085150Y-14355810D02*
X4094673Y-14393905D01*
X4094673Y-14393905D02*
X4094673Y-14441524D01*
X4094673Y-14441524D02*
X4085150Y-14479619D01*
X4085150Y-14479619D02*
X4075626Y-14498667D01*
X4075626Y-14498667D02*
X4066102Y-14508191D01*
X4066102Y-14508191D02*
X4047054Y-14517715D01*
X4047054Y-14517715D02*
X4028007Y-14517715D01*
X4028007Y-14517715D02*
X4008959Y-14508191D01*
X4008959Y-14508191D02*
X3999435Y-14498667D01*
X3999435Y-14498667D02*
X3989912Y-14479619D01*
X3989912Y-14479619D02*
X3980388Y-14441524D01*
X3980388Y-14441524D02*
X3980388Y-14393905D01*
X3980388Y-14393905D02*
X3989912Y-14355810D01*
X3989912Y-14355810D02*
X3999435Y-14336762D01*
X3999435Y-14336762D02*
X4008959Y-14327238D01*
X4008959Y-14327238D02*
X4028007Y-14317715D01*
X4180388Y-14517715D02*
X4180388Y-14384381D01*
X4180388Y-14403429D02*
X4189912Y-14393905D01*
X4189912Y-14393905D02*
X4208959Y-14384381D01*
X4208959Y-14384381D02*
X4237531Y-14384381D01*
X4237531Y-14384381D02*
X4256578Y-14393905D01*
X4256578Y-14393905D02*
X4266102Y-14412953D01*
X4266102Y-14412953D02*
X4266102Y-14517715D01*
X4266102Y-14412953D02*
X4275626Y-14393905D01*
X4275626Y-14393905D02*
X4294674Y-14384381D01*
X4294674Y-14384381D02*
X4323245Y-14384381D01*
X4323245Y-14384381D02*
X4342293Y-14393905D01*
X4342293Y-14393905D02*
X4351816Y-14412953D01*
X4351816Y-14412953D02*
X4351816Y-14517715D01*
X4447055Y-14517715D02*
X4447055Y-14384381D01*
X4447055Y-14403429D02*
X4456578Y-14393905D01*
X4456578Y-14393905D02*
X4475626Y-14384381D01*
X4475626Y-14384381D02*
X4504197Y-14384381D01*
X4504197Y-14384381D02*
X4523245Y-14393905D01*
X4523245Y-14393905D02*
X4532769Y-14412953D01*
X4532769Y-14412953D02*
X4532769Y-14517715D01*
X4532769Y-14412953D02*
X4542293Y-14393905D01*
X4542293Y-14393905D02*
X4561340Y-14384381D01*
X4561340Y-14384381D02*
X4589912Y-14384381D01*
X4589912Y-14384381D02*
X4608959Y-14393905D01*
X4608959Y-14393905D02*
X4618483Y-14412953D01*
X4618483Y-14412953D02*
X4618483Y-14517715D01*
X5008959Y-14308191D02*
X4837531Y-14565334D01*
X5266102Y-14317715D02*
X5285150Y-14317715D01*
X5285150Y-14317715D02*
X5304198Y-14327238D01*
X5304198Y-14327238D02*
X5313721Y-14336762D01*
X5313721Y-14336762D02*
X5323245Y-14355810D01*
X5323245Y-14355810D02*
X5332769Y-14393905D01*
X5332769Y-14393905D02*
X5332769Y-14441524D01*
X5332769Y-14441524D02*
X5323245Y-14479619D01*
X5323245Y-14479619D02*
X5313721Y-14498667D01*
X5313721Y-14498667D02*
X5304198Y-14508191D01*
X5304198Y-14508191D02*
X5285150Y-14517715D01*
X5285150Y-14517715D02*
X5266102Y-14517715D01*
X5266102Y-14517715D02*
X5247055Y-14508191D01*
X5247055Y-14508191D02*
X5237531Y-14498667D01*
X5237531Y-14498667D02*
X5228007Y-14479619D01*
X5228007Y-14479619D02*
X5218483Y-14441524D01*
X5218483Y-14441524D02*
X5218483Y-14393905D01*
X5218483Y-14393905D02*
X5228007Y-14355810D01*
X5228007Y-14355810D02*
X5237531Y-14336762D01*
X5237531Y-14336762D02*
X5247055Y-14327238D01*
X5247055Y-14327238D02*
X5266102Y-14317715D01*
X5418483Y-14498667D02*
X5428007Y-14508191D01*
X5428007Y-14508191D02*
X5418483Y-14517715D01*
X5418483Y-14517715D02*
X5408959Y-14508191D01*
X5408959Y-14508191D02*
X5418483Y-14498667D01*
X5418483Y-14498667D02*
X5418483Y-14517715D01*
X5551817Y-14317715D02*
X5570864Y-14317715D01*
X5570864Y-14317715D02*
X5589912Y-14327238D01*
X5589912Y-14327238D02*
X5599436Y-14336762D01*
X5599436Y-14336762D02*
X5608959Y-14355810D01*
X5608959Y-14355810D02*
X5618483Y-14393905D01*
X5618483Y-14393905D02*
X5618483Y-14441524D01*
X5618483Y-14441524D02*
X5608959Y-14479619D01*
X5608959Y-14479619D02*
X5599436Y-14498667D01*
X5599436Y-14498667D02*
X5589912Y-14508191D01*
X5589912Y-14508191D02*
X5570864Y-14517715D01*
X5570864Y-14517715D02*
X5551817Y-14517715D01*
X5551817Y-14517715D02*
X5532769Y-14508191D01*
X5532769Y-14508191D02*
X5523245Y-14498667D01*
X5523245Y-14498667D02*
X5513721Y-14479619D01*
X5513721Y-14479619D02*
X5504198Y-14441524D01*
X5504198Y-14441524D02*
X5504198Y-14393905D01*
X5504198Y-14393905D02*
X5513721Y-14355810D01*
X5513721Y-14355810D02*
X5523245Y-14336762D01*
X5523245Y-14336762D02*
X5532769Y-14327238D01*
X5532769Y-14327238D02*
X5551817Y-14317715D01*
X5808959Y-14517715D02*
X5694674Y-14517715D01*
X5751816Y-14517715D02*
X5751816Y-14317715D01*
X5751816Y-14317715D02*
X5732769Y-14346286D01*
X5732769Y-14346286D02*
X5713721Y-14365334D01*
X5713721Y-14365334D02*
X5694674Y-14374857D01*
X5999436Y-14517715D02*
X5885150Y-14517715D01*
X5942293Y-14517715D02*
X5942293Y-14317715D01*
X5942293Y-14317715D02*
X5923245Y-14346286D01*
X5923245Y-14346286D02*
X5904197Y-14365334D01*
X5904197Y-14365334D02*
X5885150Y-14374857D01*
X6113721Y-14403429D02*
X6094674Y-14393905D01*
X6094674Y-14393905D02*
X6085150Y-14384381D01*
X6085150Y-14384381D02*
X6075626Y-14365334D01*
X6075626Y-14365334D02*
X6075626Y-14355810D01*
X6075626Y-14355810D02*
X6085150Y-14336762D01*
X6085150Y-14336762D02*
X6094674Y-14327238D01*
X6094674Y-14327238D02*
X6113721Y-14317715D01*
X6113721Y-14317715D02*
X6151817Y-14317715D01*
X6151817Y-14317715D02*
X6170864Y-14327238D01*
X6170864Y-14327238D02*
X6180388Y-14336762D01*
X6180388Y-14336762D02*
X6189912Y-14355810D01*
X6189912Y-14355810D02*
X6189912Y-14365334D01*
X6189912Y-14365334D02*
X6180388Y-14384381D01*
X6180388Y-14384381D02*
X6170864Y-14393905D01*
X6170864Y-14393905D02*
X6151817Y-14403429D01*
X6151817Y-14403429D02*
X6113721Y-14403429D01*
X6113721Y-14403429D02*
X6094674Y-14412953D01*
X6094674Y-14412953D02*
X6085150Y-14422477D01*
X6085150Y-14422477D02*
X6075626Y-14441524D01*
X6075626Y-14441524D02*
X6075626Y-14479619D01*
X6075626Y-14479619D02*
X6085150Y-14498667D01*
X6085150Y-14498667D02*
X6094674Y-14508191D01*
X6094674Y-14508191D02*
X6113721Y-14517715D01*
X6113721Y-14517715D02*
X6151817Y-14517715D01*
X6151817Y-14517715D02*
X6170864Y-14508191D01*
X6170864Y-14508191D02*
X6180388Y-14498667D01*
X6180388Y-14498667D02*
X6189912Y-14479619D01*
X6189912Y-14479619D02*
X6189912Y-14441524D01*
X6189912Y-14441524D02*
X6180388Y-14422477D01*
X6180388Y-14422477D02*
X6170864Y-14412953D01*
X6170864Y-14412953D02*
X6151817Y-14403429D01*
X6266102Y-14317715D02*
X6266102Y-14355810D01*
X6342293Y-14317715D02*
X6342293Y-14355810D01*
X6637531Y-14593905D02*
X6628007Y-14584381D01*
X6628007Y-14584381D02*
X6608959Y-14555810D01*
X6608959Y-14555810D02*
X6599436Y-14536762D01*
X6599436Y-14536762D02*
X6589912Y-14508191D01*
X6589912Y-14508191D02*
X6580388Y-14460572D01*
X6580388Y-14460572D02*
X6580388Y-14422477D01*
X6580388Y-14422477D02*
X6589912Y-14374857D01*
X6589912Y-14374857D02*
X6599436Y-14346286D01*
X6599436Y-14346286D02*
X6608959Y-14327238D01*
X6608959Y-14327238D02*
X6628007Y-14298667D01*
X6628007Y-14298667D02*
X6637531Y-14289143D01*
X6799436Y-14384381D02*
X6799436Y-14517715D01*
X6751817Y-14308191D02*
X6704198Y-14451048D01*
X6704198Y-14451048D02*
X6828007Y-14451048D01*
X7056579Y-14517715D02*
X7056579Y-14317715D01*
X7142293Y-14517715D02*
X7142293Y-14412953D01*
X7142293Y-14412953D02*
X7132769Y-14393905D01*
X7132769Y-14393905D02*
X7113721Y-14384381D01*
X7113721Y-14384381D02*
X7085150Y-14384381D01*
X7085150Y-14384381D02*
X7066102Y-14393905D01*
X7066102Y-14393905D02*
X7056579Y-14403429D01*
X7266102Y-14517715D02*
X7247055Y-14508191D01*
X7247055Y-14508191D02*
X7237531Y-14498667D01*
X7237531Y-14498667D02*
X7228007Y-14479619D01*
X7228007Y-14479619D02*
X7228007Y-14422477D01*
X7228007Y-14422477D02*
X7237531Y-14403429D01*
X7237531Y-14403429D02*
X7247055Y-14393905D01*
X7247055Y-14393905D02*
X7266102Y-14384381D01*
X7266102Y-14384381D02*
X7294674Y-14384381D01*
X7294674Y-14384381D02*
X7313721Y-14393905D01*
X7313721Y-14393905D02*
X7323245Y-14403429D01*
X7323245Y-14403429D02*
X7332769Y-14422477D01*
X7332769Y-14422477D02*
X7332769Y-14479619D01*
X7332769Y-14479619D02*
X7323245Y-14498667D01*
X7323245Y-14498667D02*
X7313721Y-14508191D01*
X7313721Y-14508191D02*
X7294674Y-14517715D01*
X7294674Y-14517715D02*
X7266102Y-14517715D01*
X7447055Y-14517715D02*
X7428007Y-14508191D01*
X7428007Y-14508191D02*
X7418483Y-14489143D01*
X7418483Y-14489143D02*
X7418483Y-14317715D01*
X7599436Y-14508191D02*
X7580388Y-14517715D01*
X7580388Y-14517715D02*
X7542293Y-14517715D01*
X7542293Y-14517715D02*
X7523245Y-14508191D01*
X7523245Y-14508191D02*
X7513721Y-14489143D01*
X7513721Y-14489143D02*
X7513721Y-14412953D01*
X7513721Y-14412953D02*
X7523245Y-14393905D01*
X7523245Y-14393905D02*
X7542293Y-14384381D01*
X7542293Y-14384381D02*
X7580388Y-14384381D01*
X7580388Y-14384381D02*
X7599436Y-14393905D01*
X7599436Y-14393905D02*
X7608960Y-14412953D01*
X7608960Y-14412953D02*
X7608960Y-14432000D01*
X7608960Y-14432000D02*
X7513721Y-14451048D01*
X7685150Y-14508191D02*
X7704198Y-14517715D01*
X7704198Y-14517715D02*
X7742293Y-14517715D01*
X7742293Y-14517715D02*
X7761341Y-14508191D01*
X7761341Y-14508191D02*
X7770864Y-14489143D01*
X7770864Y-14489143D02*
X7770864Y-14479619D01*
X7770864Y-14479619D02*
X7761341Y-14460572D01*
X7761341Y-14460572D02*
X7742293Y-14451048D01*
X7742293Y-14451048D02*
X7713721Y-14451048D01*
X7713721Y-14451048D02*
X7694674Y-14441524D01*
X7694674Y-14441524D02*
X7685150Y-14422477D01*
X7685150Y-14422477D02*
X7685150Y-14412953D01*
X7685150Y-14412953D02*
X7694674Y-14393905D01*
X7694674Y-14393905D02*
X7713721Y-14384381D01*
X7713721Y-14384381D02*
X7742293Y-14384381D01*
X7742293Y-14384381D02*
X7761341Y-14393905D01*
X7837531Y-14593905D02*
X7847055Y-14584381D01*
X7847055Y-14584381D02*
X7866102Y-14555810D01*
X7866102Y-14555810D02*
X7875626Y-14536762D01*
X7875626Y-14536762D02*
X7885150Y-14508191D01*
X7885150Y-14508191D02*
X7894674Y-14460572D01*
X7894674Y-14460572D02*
X7894674Y-14422477D01*
X7894674Y-14422477D02*
X7885150Y-14374857D01*
X7885150Y-14374857D02*
X7875626Y-14346286D01*
X7875626Y-14346286D02*
X7866102Y-14327238D01*
X7866102Y-14327238D02*
X7847055Y-14298667D01*
X7847055Y-14298667D02*
X7837531Y-14289143D01*
D13*
X3062468Y-14690231D02*
G75*
G02*
X3012468Y-14690231I-25000J0D01*
G01*
X3012468Y-14690231D02*
G75*
G02*
X3062468Y-14690231I25000J0D01*
G01*
D12*
X3361340Y-14581715D02*
X3380388Y-14581715D01*
X3380388Y-14581715D02*
X3399435Y-14591238D01*
X3399435Y-14591238D02*
X3408959Y-14600762D01*
X3408959Y-14600762D02*
X3418483Y-14619810D01*
X3418483Y-14619810D02*
X3428007Y-14657905D01*
X3428007Y-14657905D02*
X3428007Y-14705524D01*
X3428007Y-14705524D02*
X3418483Y-14743619D01*
X3418483Y-14743619D02*
X3408959Y-14762667D01*
X3408959Y-14762667D02*
X3399435Y-14772191D01*
X3399435Y-14772191D02*
X3380388Y-14781715D01*
X3380388Y-14781715D02*
X3361340Y-14781715D01*
X3361340Y-14781715D02*
X3342292Y-14772191D01*
X3342292Y-14772191D02*
X3332769Y-14762667D01*
X3332769Y-14762667D02*
X3323245Y-14743619D01*
X3323245Y-14743619D02*
X3313721Y-14705524D01*
X3313721Y-14705524D02*
X3313721Y-14657905D01*
X3313721Y-14657905D02*
X3323245Y-14619810D01*
X3323245Y-14619810D02*
X3332769Y-14600762D01*
X3332769Y-14600762D02*
X3342292Y-14591238D01*
X3342292Y-14591238D02*
X3361340Y-14581715D01*
X3513721Y-14762667D02*
X3523245Y-14772191D01*
X3523245Y-14772191D02*
X3513721Y-14781715D01*
X3513721Y-14781715D02*
X3504197Y-14772191D01*
X3504197Y-14772191D02*
X3513721Y-14762667D01*
X3513721Y-14762667D02*
X3513721Y-14781715D01*
X3704197Y-14581715D02*
X3608959Y-14581715D01*
X3608959Y-14581715D02*
X3599435Y-14676953D01*
X3599435Y-14676953D02*
X3608959Y-14667429D01*
X3608959Y-14667429D02*
X3628007Y-14657905D01*
X3628007Y-14657905D02*
X3675626Y-14657905D01*
X3675626Y-14657905D02*
X3694673Y-14667429D01*
X3694673Y-14667429D02*
X3704197Y-14676953D01*
X3704197Y-14676953D02*
X3713721Y-14696000D01*
X3713721Y-14696000D02*
X3713721Y-14743619D01*
X3713721Y-14743619D02*
X3704197Y-14762667D01*
X3704197Y-14762667D02*
X3694673Y-14772191D01*
X3694673Y-14772191D02*
X3675626Y-14781715D01*
X3675626Y-14781715D02*
X3628007Y-14781715D01*
X3628007Y-14781715D02*
X3608959Y-14772191D01*
X3608959Y-14772191D02*
X3599435Y-14762667D01*
X3837531Y-14581715D02*
X3856578Y-14581715D01*
X3856578Y-14581715D02*
X3875626Y-14591238D01*
X3875626Y-14591238D02*
X3885150Y-14600762D01*
X3885150Y-14600762D02*
X3894673Y-14619810D01*
X3894673Y-14619810D02*
X3904197Y-14657905D01*
X3904197Y-14657905D02*
X3904197Y-14705524D01*
X3904197Y-14705524D02*
X3894673Y-14743619D01*
X3894673Y-14743619D02*
X3885150Y-14762667D01*
X3885150Y-14762667D02*
X3875626Y-14772191D01*
X3875626Y-14772191D02*
X3856578Y-14781715D01*
X3856578Y-14781715D02*
X3837531Y-14781715D01*
X3837531Y-14781715D02*
X3818483Y-14772191D01*
X3818483Y-14772191D02*
X3808959Y-14762667D01*
X3808959Y-14762667D02*
X3799435Y-14743619D01*
X3799435Y-14743619D02*
X3789912Y-14705524D01*
X3789912Y-14705524D02*
X3789912Y-14657905D01*
X3789912Y-14657905D02*
X3799435Y-14619810D01*
X3799435Y-14619810D02*
X3808959Y-14600762D01*
X3808959Y-14600762D02*
X3818483Y-14591238D01*
X3818483Y-14591238D02*
X3837531Y-14581715D01*
X4028007Y-14581715D02*
X4047054Y-14581715D01*
X4047054Y-14581715D02*
X4066102Y-14591238D01*
X4066102Y-14591238D02*
X4075626Y-14600762D01*
X4075626Y-14600762D02*
X4085150Y-14619810D01*
X4085150Y-14619810D02*
X4094673Y-14657905D01*
X4094673Y-14657905D02*
X4094673Y-14705524D01*
X4094673Y-14705524D02*
X4085150Y-14743619D01*
X4085150Y-14743619D02*
X4075626Y-14762667D01*
X4075626Y-14762667D02*
X4066102Y-14772191D01*
X4066102Y-14772191D02*
X4047054Y-14781715D01*
X4047054Y-14781715D02*
X4028007Y-14781715D01*
X4028007Y-14781715D02*
X4008959Y-14772191D01*
X4008959Y-14772191D02*
X3999435Y-14762667D01*
X3999435Y-14762667D02*
X3989912Y-14743619D01*
X3989912Y-14743619D02*
X3980388Y-14705524D01*
X3980388Y-14705524D02*
X3980388Y-14657905D01*
X3980388Y-14657905D02*
X3989912Y-14619810D01*
X3989912Y-14619810D02*
X3999435Y-14600762D01*
X3999435Y-14600762D02*
X4008959Y-14591238D01*
X4008959Y-14591238D02*
X4028007Y-14581715D01*
X4180388Y-14781715D02*
X4180388Y-14648381D01*
X4180388Y-14667429D02*
X4189912Y-14657905D01*
X4189912Y-14657905D02*
X4208959Y-14648381D01*
X4208959Y-14648381D02*
X4237531Y-14648381D01*
X4237531Y-14648381D02*
X4256578Y-14657905D01*
X4256578Y-14657905D02*
X4266102Y-14676953D01*
X4266102Y-14676953D02*
X4266102Y-14781715D01*
X4266102Y-14676953D02*
X4275626Y-14657905D01*
X4275626Y-14657905D02*
X4294674Y-14648381D01*
X4294674Y-14648381D02*
X4323245Y-14648381D01*
X4323245Y-14648381D02*
X4342293Y-14657905D01*
X4342293Y-14657905D02*
X4351816Y-14676953D01*
X4351816Y-14676953D02*
X4351816Y-14781715D01*
X4447055Y-14781715D02*
X4447055Y-14648381D01*
X4447055Y-14667429D02*
X4456578Y-14657905D01*
X4456578Y-14657905D02*
X4475626Y-14648381D01*
X4475626Y-14648381D02*
X4504197Y-14648381D01*
X4504197Y-14648381D02*
X4523245Y-14657905D01*
X4523245Y-14657905D02*
X4532769Y-14676953D01*
X4532769Y-14676953D02*
X4532769Y-14781715D01*
X4532769Y-14676953D02*
X4542293Y-14657905D01*
X4542293Y-14657905D02*
X4561340Y-14648381D01*
X4561340Y-14648381D02*
X4589912Y-14648381D01*
X4589912Y-14648381D02*
X4608959Y-14657905D01*
X4608959Y-14657905D02*
X4618483Y-14676953D01*
X4618483Y-14676953D02*
X4618483Y-14781715D01*
X5008959Y-14572191D02*
X4837531Y-14829334D01*
X5266102Y-14581715D02*
X5285150Y-14581715D01*
X5285150Y-14581715D02*
X5304198Y-14591238D01*
X5304198Y-14591238D02*
X5313721Y-14600762D01*
X5313721Y-14600762D02*
X5323245Y-14619810D01*
X5323245Y-14619810D02*
X5332769Y-14657905D01*
X5332769Y-14657905D02*
X5332769Y-14705524D01*
X5332769Y-14705524D02*
X5323245Y-14743619D01*
X5323245Y-14743619D02*
X5313721Y-14762667D01*
X5313721Y-14762667D02*
X5304198Y-14772191D01*
X5304198Y-14772191D02*
X5285150Y-14781715D01*
X5285150Y-14781715D02*
X5266102Y-14781715D01*
X5266102Y-14781715D02*
X5247055Y-14772191D01*
X5247055Y-14772191D02*
X5237531Y-14762667D01*
X5237531Y-14762667D02*
X5228007Y-14743619D01*
X5228007Y-14743619D02*
X5218483Y-14705524D01*
X5218483Y-14705524D02*
X5218483Y-14657905D01*
X5218483Y-14657905D02*
X5228007Y-14619810D01*
X5228007Y-14619810D02*
X5237531Y-14600762D01*
X5237531Y-14600762D02*
X5247055Y-14591238D01*
X5247055Y-14591238D02*
X5266102Y-14581715D01*
X5418483Y-14762667D02*
X5428007Y-14772191D01*
X5428007Y-14772191D02*
X5418483Y-14781715D01*
X5418483Y-14781715D02*
X5408959Y-14772191D01*
X5408959Y-14772191D02*
X5418483Y-14762667D01*
X5418483Y-14762667D02*
X5418483Y-14781715D01*
X5551817Y-14581715D02*
X5570864Y-14581715D01*
X5570864Y-14581715D02*
X5589912Y-14591238D01*
X5589912Y-14591238D02*
X5599436Y-14600762D01*
X5599436Y-14600762D02*
X5608959Y-14619810D01*
X5608959Y-14619810D02*
X5618483Y-14657905D01*
X5618483Y-14657905D02*
X5618483Y-14705524D01*
X5618483Y-14705524D02*
X5608959Y-14743619D01*
X5608959Y-14743619D02*
X5599436Y-14762667D01*
X5599436Y-14762667D02*
X5589912Y-14772191D01*
X5589912Y-14772191D02*
X5570864Y-14781715D01*
X5570864Y-14781715D02*
X5551817Y-14781715D01*
X5551817Y-14781715D02*
X5532769Y-14772191D01*
X5532769Y-14772191D02*
X5523245Y-14762667D01*
X5523245Y-14762667D02*
X5513721Y-14743619D01*
X5513721Y-14743619D02*
X5504198Y-14705524D01*
X5504198Y-14705524D02*
X5504198Y-14657905D01*
X5504198Y-14657905D02*
X5513721Y-14619810D01*
X5513721Y-14619810D02*
X5523245Y-14600762D01*
X5523245Y-14600762D02*
X5532769Y-14591238D01*
X5532769Y-14591238D02*
X5551817Y-14581715D01*
X5808959Y-14781715D02*
X5694674Y-14781715D01*
X5751816Y-14781715D02*
X5751816Y-14581715D01*
X5751816Y-14581715D02*
X5732769Y-14610286D01*
X5732769Y-14610286D02*
X5713721Y-14629334D01*
X5713721Y-14629334D02*
X5694674Y-14638857D01*
X5904197Y-14781715D02*
X5942293Y-14781715D01*
X5942293Y-14781715D02*
X5961340Y-14772191D01*
X5961340Y-14772191D02*
X5970864Y-14762667D01*
X5970864Y-14762667D02*
X5989912Y-14734096D01*
X5989912Y-14734096D02*
X5999436Y-14696000D01*
X5999436Y-14696000D02*
X5999436Y-14619810D01*
X5999436Y-14619810D02*
X5989912Y-14600762D01*
X5989912Y-14600762D02*
X5980388Y-14591238D01*
X5980388Y-14591238D02*
X5961340Y-14581715D01*
X5961340Y-14581715D02*
X5923245Y-14581715D01*
X5923245Y-14581715D02*
X5904197Y-14591238D01*
X5904197Y-14591238D02*
X5894674Y-14600762D01*
X5894674Y-14600762D02*
X5885150Y-14619810D01*
X5885150Y-14619810D02*
X5885150Y-14667429D01*
X5885150Y-14667429D02*
X5894674Y-14686477D01*
X5894674Y-14686477D02*
X5904197Y-14696000D01*
X5904197Y-14696000D02*
X5923245Y-14705524D01*
X5923245Y-14705524D02*
X5961340Y-14705524D01*
X5961340Y-14705524D02*
X5980388Y-14696000D01*
X5980388Y-14696000D02*
X5989912Y-14686477D01*
X5989912Y-14686477D02*
X5999436Y-14667429D01*
X6066102Y-14581715D02*
X6199436Y-14581715D01*
X6199436Y-14581715D02*
X6113721Y-14781715D01*
X6266102Y-14581715D02*
X6266102Y-14619810D01*
X6342293Y-14581715D02*
X6342293Y-14619810D01*
X6637531Y-14857905D02*
X6628007Y-14848381D01*
X6628007Y-14848381D02*
X6608959Y-14819810D01*
X6608959Y-14819810D02*
X6599436Y-14800762D01*
X6599436Y-14800762D02*
X6589912Y-14772191D01*
X6589912Y-14772191D02*
X6580388Y-14724572D01*
X6580388Y-14724572D02*
X6580388Y-14686477D01*
X6580388Y-14686477D02*
X6589912Y-14638857D01*
X6589912Y-14638857D02*
X6599436Y-14610286D01*
X6599436Y-14610286D02*
X6608959Y-14591238D01*
X6608959Y-14591238D02*
X6628007Y-14562667D01*
X6628007Y-14562667D02*
X6637531Y-14553143D01*
X6751817Y-14581715D02*
X6770864Y-14581715D01*
X6770864Y-14581715D02*
X6789912Y-14591238D01*
X6789912Y-14591238D02*
X6799436Y-14600762D01*
X6799436Y-14600762D02*
X6808959Y-14619810D01*
X6808959Y-14619810D02*
X6818483Y-14657905D01*
X6818483Y-14657905D02*
X6818483Y-14705524D01*
X6818483Y-14705524D02*
X6808959Y-14743619D01*
X6808959Y-14743619D02*
X6799436Y-14762667D01*
X6799436Y-14762667D02*
X6789912Y-14772191D01*
X6789912Y-14772191D02*
X6770864Y-14781715D01*
X6770864Y-14781715D02*
X6751817Y-14781715D01*
X6751817Y-14781715D02*
X6732769Y-14772191D01*
X6732769Y-14772191D02*
X6723245Y-14762667D01*
X6723245Y-14762667D02*
X6713721Y-14743619D01*
X6713721Y-14743619D02*
X6704198Y-14705524D01*
X6704198Y-14705524D02*
X6704198Y-14657905D01*
X6704198Y-14657905D02*
X6713721Y-14619810D01*
X6713721Y-14619810D02*
X6723245Y-14600762D01*
X6723245Y-14600762D02*
X6732769Y-14591238D01*
X6732769Y-14591238D02*
X6751817Y-14581715D01*
X7056579Y-14781715D02*
X7056579Y-14581715D01*
X7142293Y-14781715D02*
X7142293Y-14676953D01*
X7142293Y-14676953D02*
X7132769Y-14657905D01*
X7132769Y-14657905D02*
X7113721Y-14648381D01*
X7113721Y-14648381D02*
X7085150Y-14648381D01*
X7085150Y-14648381D02*
X7066102Y-14657905D01*
X7066102Y-14657905D02*
X7056579Y-14667429D01*
X7266102Y-14781715D02*
X7247055Y-14772191D01*
X7247055Y-14772191D02*
X7237531Y-14762667D01*
X7237531Y-14762667D02*
X7228007Y-14743619D01*
X7228007Y-14743619D02*
X7228007Y-14686477D01*
X7228007Y-14686477D02*
X7237531Y-14667429D01*
X7237531Y-14667429D02*
X7247055Y-14657905D01*
X7247055Y-14657905D02*
X7266102Y-14648381D01*
X7266102Y-14648381D02*
X7294674Y-14648381D01*
X7294674Y-14648381D02*
X7313721Y-14657905D01*
X7313721Y-14657905D02*
X7323245Y-14667429D01*
X7323245Y-14667429D02*
X7332769Y-14686477D01*
X7332769Y-14686477D02*
X7332769Y-14743619D01*
X7332769Y-14743619D02*
X7323245Y-14762667D01*
X7323245Y-14762667D02*
X7313721Y-14772191D01*
X7313721Y-14772191D02*
X7294674Y-14781715D01*
X7294674Y-14781715D02*
X7266102Y-14781715D01*
X7447055Y-14781715D02*
X7428007Y-14772191D01*
X7428007Y-14772191D02*
X7418483Y-14753143D01*
X7418483Y-14753143D02*
X7418483Y-14581715D01*
X7599436Y-14772191D02*
X7580388Y-14781715D01*
X7580388Y-14781715D02*
X7542293Y-14781715D01*
X7542293Y-14781715D02*
X7523245Y-14772191D01*
X7523245Y-14772191D02*
X7513721Y-14753143D01*
X7513721Y-14753143D02*
X7513721Y-14676953D01*
X7513721Y-14676953D02*
X7523245Y-14657905D01*
X7523245Y-14657905D02*
X7542293Y-14648381D01*
X7542293Y-14648381D02*
X7580388Y-14648381D01*
X7580388Y-14648381D02*
X7599436Y-14657905D01*
X7599436Y-14657905D02*
X7608960Y-14676953D01*
X7608960Y-14676953D02*
X7608960Y-14696000D01*
X7608960Y-14696000D02*
X7513721Y-14715048D01*
X7685150Y-14772191D02*
X7704198Y-14781715D01*
X7704198Y-14781715D02*
X7742293Y-14781715D01*
X7742293Y-14781715D02*
X7761341Y-14772191D01*
X7761341Y-14772191D02*
X7770864Y-14753143D01*
X7770864Y-14753143D02*
X7770864Y-14743619D01*
X7770864Y-14743619D02*
X7761341Y-14724572D01*
X7761341Y-14724572D02*
X7742293Y-14715048D01*
X7742293Y-14715048D02*
X7713721Y-14715048D01*
X7713721Y-14715048D02*
X7694674Y-14705524D01*
X7694674Y-14705524D02*
X7685150Y-14686477D01*
X7685150Y-14686477D02*
X7685150Y-14676953D01*
X7685150Y-14676953D02*
X7694674Y-14657905D01*
X7694674Y-14657905D02*
X7713721Y-14648381D01*
X7713721Y-14648381D02*
X7742293Y-14648381D01*
X7742293Y-14648381D02*
X7761341Y-14657905D01*
X8008960Y-14705524D02*
X8161341Y-14705524D01*
X8085150Y-14781715D02*
X8085150Y-14629334D01*
X8494674Y-14581715D02*
X8456579Y-14581715D01*
X8456579Y-14581715D02*
X8437531Y-14591238D01*
X8437531Y-14591238D02*
X8428007Y-14600762D01*
X8428007Y-14600762D02*
X8408960Y-14629334D01*
X8408960Y-14629334D02*
X8399436Y-14667429D01*
X8399436Y-14667429D02*
X8399436Y-14743619D01*
X8399436Y-14743619D02*
X8408960Y-14762667D01*
X8408960Y-14762667D02*
X8418484Y-14772191D01*
X8418484Y-14772191D02*
X8437531Y-14781715D01*
X8437531Y-14781715D02*
X8475626Y-14781715D01*
X8475626Y-14781715D02*
X8494674Y-14772191D01*
X8494674Y-14772191D02*
X8504198Y-14762667D01*
X8504198Y-14762667D02*
X8513722Y-14743619D01*
X8513722Y-14743619D02*
X8513722Y-14696000D01*
X8513722Y-14696000D02*
X8504198Y-14676953D01*
X8504198Y-14676953D02*
X8494674Y-14667429D01*
X8494674Y-14667429D02*
X8475626Y-14657905D01*
X8475626Y-14657905D02*
X8437531Y-14657905D01*
X8437531Y-14657905D02*
X8418484Y-14667429D01*
X8418484Y-14667429D02*
X8408960Y-14676953D01*
X8408960Y-14676953D02*
X8399436Y-14696000D01*
X8628007Y-14667429D02*
X8608960Y-14657905D01*
X8608960Y-14657905D02*
X8599436Y-14648381D01*
X8599436Y-14648381D02*
X8589912Y-14629334D01*
X8589912Y-14629334D02*
X8589912Y-14619810D01*
X8589912Y-14619810D02*
X8599436Y-14600762D01*
X8599436Y-14600762D02*
X8608960Y-14591238D01*
X8608960Y-14591238D02*
X8628007Y-14581715D01*
X8628007Y-14581715D02*
X8666103Y-14581715D01*
X8666103Y-14581715D02*
X8685150Y-14591238D01*
X8685150Y-14591238D02*
X8694674Y-14600762D01*
X8694674Y-14600762D02*
X8704198Y-14619810D01*
X8704198Y-14619810D02*
X8704198Y-14629334D01*
X8704198Y-14629334D02*
X8694674Y-14648381D01*
X8694674Y-14648381D02*
X8685150Y-14657905D01*
X8685150Y-14657905D02*
X8666103Y-14667429D01*
X8666103Y-14667429D02*
X8628007Y-14667429D01*
X8628007Y-14667429D02*
X8608960Y-14676953D01*
X8608960Y-14676953D02*
X8599436Y-14686477D01*
X8599436Y-14686477D02*
X8589912Y-14705524D01*
X8589912Y-14705524D02*
X8589912Y-14743619D01*
X8589912Y-14743619D02*
X8599436Y-14762667D01*
X8599436Y-14762667D02*
X8608960Y-14772191D01*
X8608960Y-14772191D02*
X8628007Y-14781715D01*
X8628007Y-14781715D02*
X8666103Y-14781715D01*
X8666103Y-14781715D02*
X8685150Y-14772191D01*
X8685150Y-14772191D02*
X8694674Y-14762667D01*
X8694674Y-14762667D02*
X8704198Y-14743619D01*
X8704198Y-14743619D02*
X8704198Y-14705524D01*
X8704198Y-14705524D02*
X8694674Y-14686477D01*
X8694674Y-14686477D02*
X8685150Y-14676953D01*
X8685150Y-14676953D02*
X8666103Y-14667429D01*
X8932769Y-14772191D02*
X8951817Y-14781715D01*
X8951817Y-14781715D02*
X8989912Y-14781715D01*
X8989912Y-14781715D02*
X9008960Y-14772191D01*
X9008960Y-14772191D02*
X9018484Y-14753143D01*
X9018484Y-14753143D02*
X9018484Y-14743619D01*
X9018484Y-14743619D02*
X9008960Y-14724572D01*
X9008960Y-14724572D02*
X8989912Y-14715048D01*
X8989912Y-14715048D02*
X8961341Y-14715048D01*
X8961341Y-14715048D02*
X8942293Y-14705524D01*
X8942293Y-14705524D02*
X8932769Y-14686477D01*
X8932769Y-14686477D02*
X8932769Y-14676953D01*
X8932769Y-14676953D02*
X8942293Y-14657905D01*
X8942293Y-14657905D02*
X8961341Y-14648381D01*
X8961341Y-14648381D02*
X8989912Y-14648381D01*
X8989912Y-14648381D02*
X9008960Y-14657905D01*
X9132769Y-14781715D02*
X9113722Y-14772191D01*
X9113722Y-14772191D02*
X9104198Y-14753143D01*
X9104198Y-14753143D02*
X9104198Y-14581715D01*
X9237531Y-14781715D02*
X9218484Y-14772191D01*
X9218484Y-14772191D02*
X9208960Y-14762667D01*
X9208960Y-14762667D02*
X9199436Y-14743619D01*
X9199436Y-14743619D02*
X9199436Y-14686477D01*
X9199436Y-14686477D02*
X9208960Y-14667429D01*
X9208960Y-14667429D02*
X9218484Y-14657905D01*
X9218484Y-14657905D02*
X9237531Y-14648381D01*
X9237531Y-14648381D02*
X9266103Y-14648381D01*
X9266103Y-14648381D02*
X9285150Y-14657905D01*
X9285150Y-14657905D02*
X9294674Y-14667429D01*
X9294674Y-14667429D02*
X9304198Y-14686477D01*
X9304198Y-14686477D02*
X9304198Y-14743619D01*
X9304198Y-14743619D02*
X9294674Y-14762667D01*
X9294674Y-14762667D02*
X9285150Y-14772191D01*
X9285150Y-14772191D02*
X9266103Y-14781715D01*
X9266103Y-14781715D02*
X9237531Y-14781715D01*
X9361341Y-14648381D02*
X9437531Y-14648381D01*
X9389912Y-14581715D02*
X9389912Y-14753143D01*
X9389912Y-14753143D02*
X9399436Y-14772191D01*
X9399436Y-14772191D02*
X9418484Y-14781715D01*
X9418484Y-14781715D02*
X9437531Y-14781715D01*
X9494674Y-14772191D02*
X9513722Y-14781715D01*
X9513722Y-14781715D02*
X9551817Y-14781715D01*
X9551817Y-14781715D02*
X9570865Y-14772191D01*
X9570865Y-14772191D02*
X9580388Y-14753143D01*
X9580388Y-14753143D02*
X9580388Y-14743619D01*
X9580388Y-14743619D02*
X9570865Y-14724572D01*
X9570865Y-14724572D02*
X9551817Y-14715048D01*
X9551817Y-14715048D02*
X9523246Y-14715048D01*
X9523246Y-14715048D02*
X9504198Y-14705524D01*
X9504198Y-14705524D02*
X9494674Y-14686477D01*
X9494674Y-14686477D02*
X9494674Y-14676953D01*
X9494674Y-14676953D02*
X9504198Y-14657905D01*
X9504198Y-14657905D02*
X9523246Y-14648381D01*
X9523246Y-14648381D02*
X9551817Y-14648381D01*
X9551817Y-14648381D02*
X9570865Y-14657905D01*
X9647055Y-14857905D02*
X9656579Y-14848381D01*
X9656579Y-14848381D02*
X9675627Y-14819810D01*
X9675627Y-14819810D02*
X9685150Y-14800762D01*
X9685150Y-14800762D02*
X9694674Y-14772191D01*
X9694674Y-14772191D02*
X9704198Y-14724572D01*
X9704198Y-14724572D02*
X9704198Y-14686477D01*
X9704198Y-14686477D02*
X9694674Y-14638857D01*
X9694674Y-14638857D02*
X9685150Y-14610286D01*
X9685150Y-14610286D02*
X9675627Y-14591238D01*
X9675627Y-14591238D02*
X9656579Y-14562667D01*
X9656579Y-14562667D02*
X9647055Y-14553143D01*
D14*
X3007858Y-14899621D02*
X3007858Y-15008841D01*
X2953248Y-14954231D02*
X3062468Y-14954231D01*
D12*
X3428007Y-15045715D02*
X3313721Y-15045715D01*
X3370864Y-15045715D02*
X3370864Y-14845715D01*
X3370864Y-14845715D02*
X3351816Y-14874286D01*
X3351816Y-14874286D02*
X3332769Y-14893334D01*
X3332769Y-14893334D02*
X3313721Y-14902857D01*
X3513721Y-15026667D02*
X3523245Y-15036191D01*
X3523245Y-15036191D02*
X3513721Y-15045715D01*
X3513721Y-15045715D02*
X3504197Y-15036191D01*
X3504197Y-15036191D02*
X3513721Y-15026667D01*
X3513721Y-15026667D02*
X3513721Y-15045715D01*
X3647054Y-14845715D02*
X3666102Y-14845715D01*
X3666102Y-14845715D02*
X3685150Y-14855238D01*
X3685150Y-14855238D02*
X3694673Y-14864762D01*
X3694673Y-14864762D02*
X3704197Y-14883810D01*
X3704197Y-14883810D02*
X3713721Y-14921905D01*
X3713721Y-14921905D02*
X3713721Y-14969524D01*
X3713721Y-14969524D02*
X3704197Y-15007619D01*
X3704197Y-15007619D02*
X3694673Y-15026667D01*
X3694673Y-15026667D02*
X3685150Y-15036191D01*
X3685150Y-15036191D02*
X3666102Y-15045715D01*
X3666102Y-15045715D02*
X3647054Y-15045715D01*
X3647054Y-15045715D02*
X3628007Y-15036191D01*
X3628007Y-15036191D02*
X3618483Y-15026667D01*
X3618483Y-15026667D02*
X3608959Y-15007619D01*
X3608959Y-15007619D02*
X3599435Y-14969524D01*
X3599435Y-14969524D02*
X3599435Y-14921905D01*
X3599435Y-14921905D02*
X3608959Y-14883810D01*
X3608959Y-14883810D02*
X3618483Y-14864762D01*
X3618483Y-14864762D02*
X3628007Y-14855238D01*
X3628007Y-14855238D02*
X3647054Y-14845715D01*
X3808959Y-15045715D02*
X3847054Y-15045715D01*
X3847054Y-15045715D02*
X3866102Y-15036191D01*
X3866102Y-15036191D02*
X3875626Y-15026667D01*
X3875626Y-15026667D02*
X3894673Y-14998096D01*
X3894673Y-14998096D02*
X3904197Y-14960000D01*
X3904197Y-14960000D02*
X3904197Y-14883810D01*
X3904197Y-14883810D02*
X3894673Y-14864762D01*
X3894673Y-14864762D02*
X3885150Y-14855238D01*
X3885150Y-14855238D02*
X3866102Y-14845715D01*
X3866102Y-14845715D02*
X3828007Y-14845715D01*
X3828007Y-14845715D02*
X3808959Y-14855238D01*
X3808959Y-14855238D02*
X3799435Y-14864762D01*
X3799435Y-14864762D02*
X3789912Y-14883810D01*
X3789912Y-14883810D02*
X3789912Y-14931429D01*
X3789912Y-14931429D02*
X3799435Y-14950477D01*
X3799435Y-14950477D02*
X3808959Y-14960000D01*
X3808959Y-14960000D02*
X3828007Y-14969524D01*
X3828007Y-14969524D02*
X3866102Y-14969524D01*
X3866102Y-14969524D02*
X3885150Y-14960000D01*
X3885150Y-14960000D02*
X3894673Y-14950477D01*
X3894673Y-14950477D02*
X3904197Y-14931429D01*
X3980388Y-14864762D02*
X3989912Y-14855238D01*
X3989912Y-14855238D02*
X4008959Y-14845715D01*
X4008959Y-14845715D02*
X4056578Y-14845715D01*
X4056578Y-14845715D02*
X4075626Y-14855238D01*
X4075626Y-14855238D02*
X4085150Y-14864762D01*
X4085150Y-14864762D02*
X4094673Y-14883810D01*
X4094673Y-14883810D02*
X4094673Y-14902857D01*
X4094673Y-14902857D02*
X4085150Y-14931429D01*
X4085150Y-14931429D02*
X3970864Y-15045715D01*
X3970864Y-15045715D02*
X4094673Y-15045715D01*
X4180388Y-15045715D02*
X4180388Y-14912381D01*
X4180388Y-14931429D02*
X4189912Y-14921905D01*
X4189912Y-14921905D02*
X4208959Y-14912381D01*
X4208959Y-14912381D02*
X4237531Y-14912381D01*
X4237531Y-14912381D02*
X4256578Y-14921905D01*
X4256578Y-14921905D02*
X4266102Y-14940953D01*
X4266102Y-14940953D02*
X4266102Y-15045715D01*
X4266102Y-14940953D02*
X4275626Y-14921905D01*
X4275626Y-14921905D02*
X4294674Y-14912381D01*
X4294674Y-14912381D02*
X4323245Y-14912381D01*
X4323245Y-14912381D02*
X4342293Y-14921905D01*
X4342293Y-14921905D02*
X4351816Y-14940953D01*
X4351816Y-14940953D02*
X4351816Y-15045715D01*
X4447055Y-15045715D02*
X4447055Y-14912381D01*
X4447055Y-14931429D02*
X4456578Y-14921905D01*
X4456578Y-14921905D02*
X4475626Y-14912381D01*
X4475626Y-14912381D02*
X4504197Y-14912381D01*
X4504197Y-14912381D02*
X4523245Y-14921905D01*
X4523245Y-14921905D02*
X4532769Y-14940953D01*
X4532769Y-14940953D02*
X4532769Y-15045715D01*
X4532769Y-14940953D02*
X4542293Y-14921905D01*
X4542293Y-14921905D02*
X4561340Y-14912381D01*
X4561340Y-14912381D02*
X4589912Y-14912381D01*
X4589912Y-14912381D02*
X4608959Y-14921905D01*
X4608959Y-14921905D02*
X4618483Y-14940953D01*
X4618483Y-14940953D02*
X4618483Y-15045715D01*
X5008959Y-14836191D02*
X4837531Y-15093334D01*
X5266102Y-14845715D02*
X5285150Y-14845715D01*
X5285150Y-14845715D02*
X5304198Y-14855238D01*
X5304198Y-14855238D02*
X5313721Y-14864762D01*
X5313721Y-14864762D02*
X5323245Y-14883810D01*
X5323245Y-14883810D02*
X5332769Y-14921905D01*
X5332769Y-14921905D02*
X5332769Y-14969524D01*
X5332769Y-14969524D02*
X5323245Y-15007619D01*
X5323245Y-15007619D02*
X5313721Y-15026667D01*
X5313721Y-15026667D02*
X5304198Y-15036191D01*
X5304198Y-15036191D02*
X5285150Y-15045715D01*
X5285150Y-15045715D02*
X5266102Y-15045715D01*
X5266102Y-15045715D02*
X5247055Y-15036191D01*
X5247055Y-15036191D02*
X5237531Y-15026667D01*
X5237531Y-15026667D02*
X5228007Y-15007619D01*
X5228007Y-15007619D02*
X5218483Y-14969524D01*
X5218483Y-14969524D02*
X5218483Y-14921905D01*
X5218483Y-14921905D02*
X5228007Y-14883810D01*
X5228007Y-14883810D02*
X5237531Y-14864762D01*
X5237531Y-14864762D02*
X5247055Y-14855238D01*
X5247055Y-14855238D02*
X5266102Y-14845715D01*
X5418483Y-15026667D02*
X5428007Y-15036191D01*
X5428007Y-15036191D02*
X5418483Y-15045715D01*
X5418483Y-15045715D02*
X5408959Y-15036191D01*
X5408959Y-15036191D02*
X5418483Y-15026667D01*
X5418483Y-15026667D02*
X5418483Y-15045715D01*
X5551817Y-14845715D02*
X5570864Y-14845715D01*
X5570864Y-14845715D02*
X5589912Y-14855238D01*
X5589912Y-14855238D02*
X5599436Y-14864762D01*
X5599436Y-14864762D02*
X5608959Y-14883810D01*
X5608959Y-14883810D02*
X5618483Y-14921905D01*
X5618483Y-14921905D02*
X5618483Y-14969524D01*
X5618483Y-14969524D02*
X5608959Y-15007619D01*
X5608959Y-15007619D02*
X5599436Y-15026667D01*
X5599436Y-15026667D02*
X5589912Y-15036191D01*
X5589912Y-15036191D02*
X5570864Y-15045715D01*
X5570864Y-15045715D02*
X5551817Y-15045715D01*
X5551817Y-15045715D02*
X5532769Y-15036191D01*
X5532769Y-15036191D02*
X5523245Y-15026667D01*
X5523245Y-15026667D02*
X5513721Y-15007619D01*
X5513721Y-15007619D02*
X5504198Y-14969524D01*
X5504198Y-14969524D02*
X5504198Y-14921905D01*
X5504198Y-14921905D02*
X5513721Y-14883810D01*
X5513721Y-14883810D02*
X5523245Y-14864762D01*
X5523245Y-14864762D02*
X5532769Y-14855238D01*
X5532769Y-14855238D02*
X5551817Y-14845715D01*
X5789912Y-14912381D02*
X5789912Y-15045715D01*
X5742293Y-14836191D02*
X5694674Y-14979048D01*
X5694674Y-14979048D02*
X5818483Y-14979048D01*
X5875626Y-14845715D02*
X5999436Y-14845715D01*
X5999436Y-14845715D02*
X5932769Y-14921905D01*
X5932769Y-14921905D02*
X5961340Y-14921905D01*
X5961340Y-14921905D02*
X5980388Y-14931429D01*
X5980388Y-14931429D02*
X5989912Y-14940953D01*
X5989912Y-14940953D02*
X5999436Y-14960000D01*
X5999436Y-14960000D02*
X5999436Y-15007619D01*
X5999436Y-15007619D02*
X5989912Y-15026667D01*
X5989912Y-15026667D02*
X5980388Y-15036191D01*
X5980388Y-15036191D02*
X5961340Y-15045715D01*
X5961340Y-15045715D02*
X5904197Y-15045715D01*
X5904197Y-15045715D02*
X5885150Y-15036191D01*
X5885150Y-15036191D02*
X5875626Y-15026667D01*
X6123245Y-14845715D02*
X6142293Y-14845715D01*
X6142293Y-14845715D02*
X6161340Y-14855238D01*
X6161340Y-14855238D02*
X6170864Y-14864762D01*
X6170864Y-14864762D02*
X6180388Y-14883810D01*
X6180388Y-14883810D02*
X6189912Y-14921905D01*
X6189912Y-14921905D02*
X6189912Y-14969524D01*
X6189912Y-14969524D02*
X6180388Y-15007619D01*
X6180388Y-15007619D02*
X6170864Y-15026667D01*
X6170864Y-15026667D02*
X6161340Y-15036191D01*
X6161340Y-15036191D02*
X6142293Y-15045715D01*
X6142293Y-15045715D02*
X6123245Y-15045715D01*
X6123245Y-15045715D02*
X6104197Y-15036191D01*
X6104197Y-15036191D02*
X6094674Y-15026667D01*
X6094674Y-15026667D02*
X6085150Y-15007619D01*
X6085150Y-15007619D02*
X6075626Y-14969524D01*
X6075626Y-14969524D02*
X6075626Y-14921905D01*
X6075626Y-14921905D02*
X6085150Y-14883810D01*
X6085150Y-14883810D02*
X6094674Y-14864762D01*
X6094674Y-14864762D02*
X6104197Y-14855238D01*
X6104197Y-14855238D02*
X6123245Y-14845715D01*
X6266102Y-14845715D02*
X6266102Y-14883810D01*
X6342293Y-14845715D02*
X6342293Y-14883810D01*
X6637531Y-15121905D02*
X6628007Y-15112381D01*
X6628007Y-15112381D02*
X6608959Y-15083810D01*
X6608959Y-15083810D02*
X6599436Y-15064762D01*
X6599436Y-15064762D02*
X6589912Y-15036191D01*
X6589912Y-15036191D02*
X6580388Y-14988572D01*
X6580388Y-14988572D02*
X6580388Y-14950477D01*
X6580388Y-14950477D02*
X6589912Y-14902857D01*
X6589912Y-14902857D02*
X6599436Y-14874286D01*
X6599436Y-14874286D02*
X6608959Y-14855238D01*
X6608959Y-14855238D02*
X6628007Y-14826667D01*
X6628007Y-14826667D02*
X6637531Y-14817143D01*
X6808959Y-14845715D02*
X6713721Y-14845715D01*
X6713721Y-14845715D02*
X6704198Y-14940953D01*
X6704198Y-14940953D02*
X6713721Y-14931429D01*
X6713721Y-14931429D02*
X6732769Y-14921905D01*
X6732769Y-14921905D02*
X6780388Y-14921905D01*
X6780388Y-14921905D02*
X6799436Y-14931429D01*
X6799436Y-14931429D02*
X6808959Y-14940953D01*
X6808959Y-14940953D02*
X6818483Y-14960000D01*
X6818483Y-14960000D02*
X6818483Y-15007619D01*
X6818483Y-15007619D02*
X6808959Y-15026667D01*
X6808959Y-15026667D02*
X6799436Y-15036191D01*
X6799436Y-15036191D02*
X6780388Y-15045715D01*
X6780388Y-15045715D02*
X6732769Y-15045715D01*
X6732769Y-15045715D02*
X6713721Y-15036191D01*
X6713721Y-15036191D02*
X6704198Y-15026667D01*
X6932769Y-14931429D02*
X6913721Y-14921905D01*
X6913721Y-14921905D02*
X6904198Y-14912381D01*
X6904198Y-14912381D02*
X6894674Y-14893334D01*
X6894674Y-14893334D02*
X6894674Y-14883810D01*
X6894674Y-14883810D02*
X6904198Y-14864762D01*
X6904198Y-14864762D02*
X6913721Y-14855238D01*
X6913721Y-14855238D02*
X6932769Y-14845715D01*
X6932769Y-14845715D02*
X6970864Y-14845715D01*
X6970864Y-14845715D02*
X6989912Y-14855238D01*
X6989912Y-14855238D02*
X6999436Y-14864762D01*
X6999436Y-14864762D02*
X7008959Y-14883810D01*
X7008959Y-14883810D02*
X7008959Y-14893334D01*
X7008959Y-14893334D02*
X6999436Y-14912381D01*
X6999436Y-14912381D02*
X6989912Y-14921905D01*
X6989912Y-14921905D02*
X6970864Y-14931429D01*
X6970864Y-14931429D02*
X6932769Y-14931429D01*
X6932769Y-14931429D02*
X6913721Y-14940953D01*
X6913721Y-14940953D02*
X6904198Y-14950477D01*
X6904198Y-14950477D02*
X6894674Y-14969524D01*
X6894674Y-14969524D02*
X6894674Y-15007619D01*
X6894674Y-15007619D02*
X6904198Y-15026667D01*
X6904198Y-15026667D02*
X6913721Y-15036191D01*
X6913721Y-15036191D02*
X6932769Y-15045715D01*
X6932769Y-15045715D02*
X6970864Y-15045715D01*
X6970864Y-15045715D02*
X6989912Y-15036191D01*
X6989912Y-15036191D02*
X6999436Y-15026667D01*
X6999436Y-15026667D02*
X7008959Y-15007619D01*
X7008959Y-15007619D02*
X7008959Y-14969524D01*
X7008959Y-14969524D02*
X6999436Y-14950477D01*
X6999436Y-14950477D02*
X6989912Y-14940953D01*
X6989912Y-14940953D02*
X6970864Y-14931429D01*
X7247055Y-15045715D02*
X7247055Y-14845715D01*
X7332769Y-15045715D02*
X7332769Y-14940953D01*
X7332769Y-14940953D02*
X7323245Y-14921905D01*
X7323245Y-14921905D02*
X7304198Y-14912381D01*
X7304198Y-14912381D02*
X7275626Y-14912381D01*
X7275626Y-14912381D02*
X7256579Y-14921905D01*
X7256579Y-14921905D02*
X7247055Y-14931429D01*
X7456579Y-15045715D02*
X7437531Y-15036191D01*
X7437531Y-15036191D02*
X7428007Y-15026667D01*
X7428007Y-15026667D02*
X7418483Y-15007619D01*
X7418483Y-15007619D02*
X7418483Y-14950477D01*
X7418483Y-14950477D02*
X7428007Y-14931429D01*
X7428007Y-14931429D02*
X7437531Y-14921905D01*
X7437531Y-14921905D02*
X7456579Y-14912381D01*
X7456579Y-14912381D02*
X7485150Y-14912381D01*
X7485150Y-14912381D02*
X7504198Y-14921905D01*
X7504198Y-14921905D02*
X7513721Y-14931429D01*
X7513721Y-14931429D02*
X7523245Y-14950477D01*
X7523245Y-14950477D02*
X7523245Y-15007619D01*
X7523245Y-15007619D02*
X7513721Y-15026667D01*
X7513721Y-15026667D02*
X7504198Y-15036191D01*
X7504198Y-15036191D02*
X7485150Y-15045715D01*
X7485150Y-15045715D02*
X7456579Y-15045715D01*
X7637531Y-15045715D02*
X7618483Y-15036191D01*
X7618483Y-15036191D02*
X7608960Y-15017143D01*
X7608960Y-15017143D02*
X7608960Y-14845715D01*
X7789912Y-15036191D02*
X7770864Y-15045715D01*
X7770864Y-15045715D02*
X7732769Y-15045715D01*
X7732769Y-15045715D02*
X7713721Y-15036191D01*
X7713721Y-15036191D02*
X7704198Y-15017143D01*
X7704198Y-15017143D02*
X7704198Y-14940953D01*
X7704198Y-14940953D02*
X7713721Y-14921905D01*
X7713721Y-14921905D02*
X7732769Y-14912381D01*
X7732769Y-14912381D02*
X7770864Y-14912381D01*
X7770864Y-14912381D02*
X7789912Y-14921905D01*
X7789912Y-14921905D02*
X7799436Y-14940953D01*
X7799436Y-14940953D02*
X7799436Y-14960000D01*
X7799436Y-14960000D02*
X7704198Y-14979048D01*
X7875626Y-15036191D02*
X7894674Y-15045715D01*
X7894674Y-15045715D02*
X7932769Y-15045715D01*
X7932769Y-15045715D02*
X7951817Y-15036191D01*
X7951817Y-15036191D02*
X7961341Y-15017143D01*
X7961341Y-15017143D02*
X7961341Y-15007619D01*
X7961341Y-15007619D02*
X7951817Y-14988572D01*
X7951817Y-14988572D02*
X7932769Y-14979048D01*
X7932769Y-14979048D02*
X7904198Y-14979048D01*
X7904198Y-14979048D02*
X7885150Y-14969524D01*
X7885150Y-14969524D02*
X7875626Y-14950477D01*
X7875626Y-14950477D02*
X7875626Y-14940953D01*
X7875626Y-14940953D02*
X7885150Y-14921905D01*
X7885150Y-14921905D02*
X7904198Y-14912381D01*
X7904198Y-14912381D02*
X7932769Y-14912381D01*
X7932769Y-14912381D02*
X7951817Y-14921905D01*
X8028007Y-15121905D02*
X8037531Y-15112381D01*
X8037531Y-15112381D02*
X8056579Y-15083810D01*
X8056579Y-15083810D02*
X8066102Y-15064762D01*
X8066102Y-15064762D02*
X8075626Y-15036191D01*
X8075626Y-15036191D02*
X8085150Y-14988572D01*
X8085150Y-14988572D02*
X8085150Y-14950477D01*
X8085150Y-14950477D02*
X8075626Y-14902857D01*
X8075626Y-14902857D02*
X8066102Y-14874286D01*
X8066102Y-14874286D02*
X8056579Y-14855238D01*
X8056579Y-14855238D02*
X8037531Y-14826667D01*
X8037531Y-14826667D02*
X8028007Y-14817143D01*
X3033179Y-15288942D02*
X3033179Y-15147519D01*
X2891757Y-15147519D01*
X2891757Y-15288942D01*
X3033179Y-15288942D01*
X3313721Y-15128762D02*
X3323245Y-15119238D01*
X3323245Y-15119238D02*
X3342292Y-15109715D01*
X3342292Y-15109715D02*
X3389912Y-15109715D01*
X3389912Y-15109715D02*
X3408959Y-15119238D01*
X3408959Y-15119238D02*
X3418483Y-15128762D01*
X3418483Y-15128762D02*
X3428007Y-15147810D01*
X3428007Y-15147810D02*
X3428007Y-15166857D01*
X3428007Y-15166857D02*
X3418483Y-15195429D01*
X3418483Y-15195429D02*
X3304197Y-15309715D01*
X3304197Y-15309715D02*
X3428007Y-15309715D01*
X3513721Y-15290667D02*
X3523245Y-15300191D01*
X3523245Y-15300191D02*
X3513721Y-15309715D01*
X3513721Y-15309715D02*
X3504197Y-15300191D01*
X3504197Y-15300191D02*
X3513721Y-15290667D01*
X3513721Y-15290667D02*
X3513721Y-15309715D01*
X3599435Y-15128762D02*
X3608959Y-15119238D01*
X3608959Y-15119238D02*
X3628007Y-15109715D01*
X3628007Y-15109715D02*
X3675626Y-15109715D01*
X3675626Y-15109715D02*
X3694673Y-15119238D01*
X3694673Y-15119238D02*
X3704197Y-15128762D01*
X3704197Y-15128762D02*
X3713721Y-15147810D01*
X3713721Y-15147810D02*
X3713721Y-15166857D01*
X3713721Y-15166857D02*
X3704197Y-15195429D01*
X3704197Y-15195429D02*
X3589912Y-15309715D01*
X3589912Y-15309715D02*
X3713721Y-15309715D01*
X3837531Y-15109715D02*
X3856578Y-15109715D01*
X3856578Y-15109715D02*
X3875626Y-15119238D01*
X3875626Y-15119238D02*
X3885150Y-15128762D01*
X3885150Y-15128762D02*
X3894673Y-15147810D01*
X3894673Y-15147810D02*
X3904197Y-15185905D01*
X3904197Y-15185905D02*
X3904197Y-15233524D01*
X3904197Y-15233524D02*
X3894673Y-15271619D01*
X3894673Y-15271619D02*
X3885150Y-15290667D01*
X3885150Y-15290667D02*
X3875626Y-15300191D01*
X3875626Y-15300191D02*
X3856578Y-15309715D01*
X3856578Y-15309715D02*
X3837531Y-15309715D01*
X3837531Y-15309715D02*
X3818483Y-15300191D01*
X3818483Y-15300191D02*
X3808959Y-15290667D01*
X3808959Y-15290667D02*
X3799435Y-15271619D01*
X3799435Y-15271619D02*
X3789912Y-15233524D01*
X3789912Y-15233524D02*
X3789912Y-15185905D01*
X3789912Y-15185905D02*
X3799435Y-15147810D01*
X3799435Y-15147810D02*
X3808959Y-15128762D01*
X3808959Y-15128762D02*
X3818483Y-15119238D01*
X3818483Y-15119238D02*
X3837531Y-15109715D01*
X4028007Y-15109715D02*
X4047054Y-15109715D01*
X4047054Y-15109715D02*
X4066102Y-15119238D01*
X4066102Y-15119238D02*
X4075626Y-15128762D01*
X4075626Y-15128762D02*
X4085150Y-15147810D01*
X4085150Y-15147810D02*
X4094673Y-15185905D01*
X4094673Y-15185905D02*
X4094673Y-15233524D01*
X4094673Y-15233524D02*
X4085150Y-15271619D01*
X4085150Y-15271619D02*
X4075626Y-15290667D01*
X4075626Y-15290667D02*
X4066102Y-15300191D01*
X4066102Y-15300191D02*
X4047054Y-15309715D01*
X4047054Y-15309715D02*
X4028007Y-15309715D01*
X4028007Y-15309715D02*
X4008959Y-15300191D01*
X4008959Y-15300191D02*
X3999435Y-15290667D01*
X3999435Y-15290667D02*
X3989912Y-15271619D01*
X3989912Y-15271619D02*
X3980388Y-15233524D01*
X3980388Y-15233524D02*
X3980388Y-15185905D01*
X3980388Y-15185905D02*
X3989912Y-15147810D01*
X3989912Y-15147810D02*
X3999435Y-15128762D01*
X3999435Y-15128762D02*
X4008959Y-15119238D01*
X4008959Y-15119238D02*
X4028007Y-15109715D01*
X4180388Y-15309715D02*
X4180388Y-15176381D01*
X4180388Y-15195429D02*
X4189912Y-15185905D01*
X4189912Y-15185905D02*
X4208959Y-15176381D01*
X4208959Y-15176381D02*
X4237531Y-15176381D01*
X4237531Y-15176381D02*
X4256578Y-15185905D01*
X4256578Y-15185905D02*
X4266102Y-15204953D01*
X4266102Y-15204953D02*
X4266102Y-15309715D01*
X4266102Y-15204953D02*
X4275626Y-15185905D01*
X4275626Y-15185905D02*
X4294674Y-15176381D01*
X4294674Y-15176381D02*
X4323245Y-15176381D01*
X4323245Y-15176381D02*
X4342293Y-15185905D01*
X4342293Y-15185905D02*
X4351816Y-15204953D01*
X4351816Y-15204953D02*
X4351816Y-15309715D01*
X4447055Y-15309715D02*
X4447055Y-15176381D01*
X4447055Y-15195429D02*
X4456578Y-15185905D01*
X4456578Y-15185905D02*
X4475626Y-15176381D01*
X4475626Y-15176381D02*
X4504197Y-15176381D01*
X4504197Y-15176381D02*
X4523245Y-15185905D01*
X4523245Y-15185905D02*
X4532769Y-15204953D01*
X4532769Y-15204953D02*
X4532769Y-15309715D01*
X4532769Y-15204953D02*
X4542293Y-15185905D01*
X4542293Y-15185905D02*
X4561340Y-15176381D01*
X4561340Y-15176381D02*
X4589912Y-15176381D01*
X4589912Y-15176381D02*
X4608959Y-15185905D01*
X4608959Y-15185905D02*
X4618483Y-15204953D01*
X4618483Y-15204953D02*
X4618483Y-15309715D01*
X5008959Y-15100191D02*
X4837531Y-15357334D01*
X5266102Y-15109715D02*
X5285150Y-15109715D01*
X5285150Y-15109715D02*
X5304198Y-15119238D01*
X5304198Y-15119238D02*
X5313721Y-15128762D01*
X5313721Y-15128762D02*
X5323245Y-15147810D01*
X5323245Y-15147810D02*
X5332769Y-15185905D01*
X5332769Y-15185905D02*
X5332769Y-15233524D01*
X5332769Y-15233524D02*
X5323245Y-15271619D01*
X5323245Y-15271619D02*
X5313721Y-15290667D01*
X5313721Y-15290667D02*
X5304198Y-15300191D01*
X5304198Y-15300191D02*
X5285150Y-15309715D01*
X5285150Y-15309715D02*
X5266102Y-15309715D01*
X5266102Y-15309715D02*
X5247055Y-15300191D01*
X5247055Y-15300191D02*
X5237531Y-15290667D01*
X5237531Y-15290667D02*
X5228007Y-15271619D01*
X5228007Y-15271619D02*
X5218483Y-15233524D01*
X5218483Y-15233524D02*
X5218483Y-15185905D01*
X5218483Y-15185905D02*
X5228007Y-15147810D01*
X5228007Y-15147810D02*
X5237531Y-15128762D01*
X5237531Y-15128762D02*
X5247055Y-15119238D01*
X5247055Y-15119238D02*
X5266102Y-15109715D01*
X5418483Y-15290667D02*
X5428007Y-15300191D01*
X5428007Y-15300191D02*
X5418483Y-15309715D01*
X5418483Y-15309715D02*
X5408959Y-15300191D01*
X5408959Y-15300191D02*
X5418483Y-15290667D01*
X5418483Y-15290667D02*
X5418483Y-15309715D01*
X5551817Y-15109715D02*
X5570864Y-15109715D01*
X5570864Y-15109715D02*
X5589912Y-15119238D01*
X5589912Y-15119238D02*
X5599436Y-15128762D01*
X5599436Y-15128762D02*
X5608959Y-15147810D01*
X5608959Y-15147810D02*
X5618483Y-15185905D01*
X5618483Y-15185905D02*
X5618483Y-15233524D01*
X5618483Y-15233524D02*
X5608959Y-15271619D01*
X5608959Y-15271619D02*
X5599436Y-15290667D01*
X5599436Y-15290667D02*
X5589912Y-15300191D01*
X5589912Y-15300191D02*
X5570864Y-15309715D01*
X5570864Y-15309715D02*
X5551817Y-15309715D01*
X5551817Y-15309715D02*
X5532769Y-15300191D01*
X5532769Y-15300191D02*
X5523245Y-15290667D01*
X5523245Y-15290667D02*
X5513721Y-15271619D01*
X5513721Y-15271619D02*
X5504198Y-15233524D01*
X5504198Y-15233524D02*
X5504198Y-15185905D01*
X5504198Y-15185905D02*
X5513721Y-15147810D01*
X5513721Y-15147810D02*
X5523245Y-15128762D01*
X5523245Y-15128762D02*
X5532769Y-15119238D01*
X5532769Y-15119238D02*
X5551817Y-15109715D01*
X5732769Y-15195429D02*
X5713721Y-15185905D01*
X5713721Y-15185905D02*
X5704197Y-15176381D01*
X5704197Y-15176381D02*
X5694674Y-15157334D01*
X5694674Y-15157334D02*
X5694674Y-15147810D01*
X5694674Y-15147810D02*
X5704197Y-15128762D01*
X5704197Y-15128762D02*
X5713721Y-15119238D01*
X5713721Y-15119238D02*
X5732769Y-15109715D01*
X5732769Y-15109715D02*
X5770864Y-15109715D01*
X5770864Y-15109715D02*
X5789912Y-15119238D01*
X5789912Y-15119238D02*
X5799436Y-15128762D01*
X5799436Y-15128762D02*
X5808959Y-15147810D01*
X5808959Y-15147810D02*
X5808959Y-15157334D01*
X5808959Y-15157334D02*
X5799436Y-15176381D01*
X5799436Y-15176381D02*
X5789912Y-15185905D01*
X5789912Y-15185905D02*
X5770864Y-15195429D01*
X5770864Y-15195429D02*
X5732769Y-15195429D01*
X5732769Y-15195429D02*
X5713721Y-15204953D01*
X5713721Y-15204953D02*
X5704197Y-15214477D01*
X5704197Y-15214477D02*
X5694674Y-15233524D01*
X5694674Y-15233524D02*
X5694674Y-15271619D01*
X5694674Y-15271619D02*
X5704197Y-15290667D01*
X5704197Y-15290667D02*
X5713721Y-15300191D01*
X5713721Y-15300191D02*
X5732769Y-15309715D01*
X5732769Y-15309715D02*
X5770864Y-15309715D01*
X5770864Y-15309715D02*
X5789912Y-15300191D01*
X5789912Y-15300191D02*
X5799436Y-15290667D01*
X5799436Y-15290667D02*
X5808959Y-15271619D01*
X5808959Y-15271619D02*
X5808959Y-15233524D01*
X5808959Y-15233524D02*
X5799436Y-15214477D01*
X5799436Y-15214477D02*
X5789912Y-15204953D01*
X5789912Y-15204953D02*
X5770864Y-15195429D01*
X5980388Y-15109715D02*
X5942293Y-15109715D01*
X5942293Y-15109715D02*
X5923245Y-15119238D01*
X5923245Y-15119238D02*
X5913721Y-15128762D01*
X5913721Y-15128762D02*
X5894674Y-15157334D01*
X5894674Y-15157334D02*
X5885150Y-15195429D01*
X5885150Y-15195429D02*
X5885150Y-15271619D01*
X5885150Y-15271619D02*
X5894674Y-15290667D01*
X5894674Y-15290667D02*
X5904197Y-15300191D01*
X5904197Y-15300191D02*
X5923245Y-15309715D01*
X5923245Y-15309715D02*
X5961340Y-15309715D01*
X5961340Y-15309715D02*
X5980388Y-15300191D01*
X5980388Y-15300191D02*
X5989912Y-15290667D01*
X5989912Y-15290667D02*
X5999436Y-15271619D01*
X5999436Y-15271619D02*
X5999436Y-15224000D01*
X5999436Y-15224000D02*
X5989912Y-15204953D01*
X5989912Y-15204953D02*
X5980388Y-15195429D01*
X5980388Y-15195429D02*
X5961340Y-15185905D01*
X5961340Y-15185905D02*
X5923245Y-15185905D01*
X5923245Y-15185905D02*
X5904197Y-15195429D01*
X5904197Y-15195429D02*
X5894674Y-15204953D01*
X5894674Y-15204953D02*
X5885150Y-15224000D01*
X6170864Y-15109715D02*
X6132769Y-15109715D01*
X6132769Y-15109715D02*
X6113721Y-15119238D01*
X6113721Y-15119238D02*
X6104197Y-15128762D01*
X6104197Y-15128762D02*
X6085150Y-15157334D01*
X6085150Y-15157334D02*
X6075626Y-15195429D01*
X6075626Y-15195429D02*
X6075626Y-15271619D01*
X6075626Y-15271619D02*
X6085150Y-15290667D01*
X6085150Y-15290667D02*
X6094674Y-15300191D01*
X6094674Y-15300191D02*
X6113721Y-15309715D01*
X6113721Y-15309715D02*
X6151817Y-15309715D01*
X6151817Y-15309715D02*
X6170864Y-15300191D01*
X6170864Y-15300191D02*
X6180388Y-15290667D01*
X6180388Y-15290667D02*
X6189912Y-15271619D01*
X6189912Y-15271619D02*
X6189912Y-15224000D01*
X6189912Y-15224000D02*
X6180388Y-15204953D01*
X6180388Y-15204953D02*
X6170864Y-15195429D01*
X6170864Y-15195429D02*
X6151817Y-15185905D01*
X6151817Y-15185905D02*
X6113721Y-15185905D01*
X6113721Y-15185905D02*
X6094674Y-15195429D01*
X6094674Y-15195429D02*
X6085150Y-15204953D01*
X6085150Y-15204953D02*
X6075626Y-15224000D01*
X6266102Y-15109715D02*
X6266102Y-15147810D01*
X6342293Y-15109715D02*
X6342293Y-15147810D01*
X6637531Y-15385905D02*
X6628007Y-15376381D01*
X6628007Y-15376381D02*
X6608959Y-15347810D01*
X6608959Y-15347810D02*
X6599436Y-15328762D01*
X6599436Y-15328762D02*
X6589912Y-15300191D01*
X6589912Y-15300191D02*
X6580388Y-15252572D01*
X6580388Y-15252572D02*
X6580388Y-15214477D01*
X6580388Y-15214477D02*
X6589912Y-15166857D01*
X6589912Y-15166857D02*
X6599436Y-15138286D01*
X6599436Y-15138286D02*
X6608959Y-15119238D01*
X6608959Y-15119238D02*
X6628007Y-15090667D01*
X6628007Y-15090667D02*
X6637531Y-15081143D01*
X6704198Y-15128762D02*
X6713721Y-15119238D01*
X6713721Y-15119238D02*
X6732769Y-15109715D01*
X6732769Y-15109715D02*
X6780388Y-15109715D01*
X6780388Y-15109715D02*
X6799436Y-15119238D01*
X6799436Y-15119238D02*
X6808959Y-15128762D01*
X6808959Y-15128762D02*
X6818483Y-15147810D01*
X6818483Y-15147810D02*
X6818483Y-15166857D01*
X6818483Y-15166857D02*
X6808959Y-15195429D01*
X6808959Y-15195429D02*
X6694674Y-15309715D01*
X6694674Y-15309715D02*
X6818483Y-15309715D01*
X6989912Y-15109715D02*
X6951817Y-15109715D01*
X6951817Y-15109715D02*
X6932769Y-15119238D01*
X6932769Y-15119238D02*
X6923245Y-15128762D01*
X6923245Y-15128762D02*
X6904198Y-15157334D01*
X6904198Y-15157334D02*
X6894674Y-15195429D01*
X6894674Y-15195429D02*
X6894674Y-15271619D01*
X6894674Y-15271619D02*
X6904198Y-15290667D01*
X6904198Y-15290667D02*
X6913721Y-15300191D01*
X6913721Y-15300191D02*
X6932769Y-15309715D01*
X6932769Y-15309715D02*
X6970864Y-15309715D01*
X6970864Y-15309715D02*
X6989912Y-15300191D01*
X6989912Y-15300191D02*
X6999436Y-15290667D01*
X6999436Y-15290667D02*
X7008959Y-15271619D01*
X7008959Y-15271619D02*
X7008959Y-15224000D01*
X7008959Y-15224000D02*
X6999436Y-15204953D01*
X6999436Y-15204953D02*
X6989912Y-15195429D01*
X6989912Y-15195429D02*
X6970864Y-15185905D01*
X6970864Y-15185905D02*
X6932769Y-15185905D01*
X6932769Y-15185905D02*
X6913721Y-15195429D01*
X6913721Y-15195429D02*
X6904198Y-15204953D01*
X6904198Y-15204953D02*
X6894674Y-15224000D01*
X7247055Y-15309715D02*
X7247055Y-15109715D01*
X7332769Y-15309715D02*
X7332769Y-15204953D01*
X7332769Y-15204953D02*
X7323245Y-15185905D01*
X7323245Y-15185905D02*
X7304198Y-15176381D01*
X7304198Y-15176381D02*
X7275626Y-15176381D01*
X7275626Y-15176381D02*
X7256579Y-15185905D01*
X7256579Y-15185905D02*
X7247055Y-15195429D01*
X7456579Y-15309715D02*
X7437531Y-15300191D01*
X7437531Y-15300191D02*
X7428007Y-15290667D01*
X7428007Y-15290667D02*
X7418483Y-15271619D01*
X7418483Y-15271619D02*
X7418483Y-15214477D01*
X7418483Y-15214477D02*
X7428007Y-15195429D01*
X7428007Y-15195429D02*
X7437531Y-15185905D01*
X7437531Y-15185905D02*
X7456579Y-15176381D01*
X7456579Y-15176381D02*
X7485150Y-15176381D01*
X7485150Y-15176381D02*
X7504198Y-15185905D01*
X7504198Y-15185905D02*
X7513721Y-15195429D01*
X7513721Y-15195429D02*
X7523245Y-15214477D01*
X7523245Y-15214477D02*
X7523245Y-15271619D01*
X7523245Y-15271619D02*
X7513721Y-15290667D01*
X7513721Y-15290667D02*
X7504198Y-15300191D01*
X7504198Y-15300191D02*
X7485150Y-15309715D01*
X7485150Y-15309715D02*
X7456579Y-15309715D01*
X7637531Y-15309715D02*
X7618483Y-15300191D01*
X7618483Y-15300191D02*
X7608960Y-15281143D01*
X7608960Y-15281143D02*
X7608960Y-15109715D01*
X7789912Y-15300191D02*
X7770864Y-15309715D01*
X7770864Y-15309715D02*
X7732769Y-15309715D01*
X7732769Y-15309715D02*
X7713721Y-15300191D01*
X7713721Y-15300191D02*
X7704198Y-15281143D01*
X7704198Y-15281143D02*
X7704198Y-15204953D01*
X7704198Y-15204953D02*
X7713721Y-15185905D01*
X7713721Y-15185905D02*
X7732769Y-15176381D01*
X7732769Y-15176381D02*
X7770864Y-15176381D01*
X7770864Y-15176381D02*
X7789912Y-15185905D01*
X7789912Y-15185905D02*
X7799436Y-15204953D01*
X7799436Y-15204953D02*
X7799436Y-15224000D01*
X7799436Y-15224000D02*
X7704198Y-15243048D01*
X7875626Y-15300191D02*
X7894674Y-15309715D01*
X7894674Y-15309715D02*
X7932769Y-15309715D01*
X7932769Y-15309715D02*
X7951817Y-15300191D01*
X7951817Y-15300191D02*
X7961341Y-15281143D01*
X7961341Y-15281143D02*
X7961341Y-15271619D01*
X7961341Y-15271619D02*
X7951817Y-15252572D01*
X7951817Y-15252572D02*
X7932769Y-15243048D01*
X7932769Y-15243048D02*
X7904198Y-15243048D01*
X7904198Y-15243048D02*
X7885150Y-15233524D01*
X7885150Y-15233524D02*
X7875626Y-15214477D01*
X7875626Y-15214477D02*
X7875626Y-15204953D01*
X7875626Y-15204953D02*
X7885150Y-15185905D01*
X7885150Y-15185905D02*
X7904198Y-15176381D01*
X7904198Y-15176381D02*
X7932769Y-15176381D01*
X7932769Y-15176381D02*
X7951817Y-15185905D01*
X8028007Y-15385905D02*
X8037531Y-15376381D01*
X8037531Y-15376381D02*
X8056579Y-15347810D01*
X8056579Y-15347810D02*
X8066102Y-15328762D01*
X8066102Y-15328762D02*
X8075626Y-15300191D01*
X8075626Y-15300191D02*
X8085150Y-15252572D01*
X8085150Y-15252572D02*
X8085150Y-15214477D01*
X8085150Y-15214477D02*
X8075626Y-15166857D01*
X8075626Y-15166857D02*
X8066102Y-15138286D01*
X8066102Y-15138286D02*
X8056579Y-15119238D01*
X8056579Y-15119238D02*
X8037531Y-15090667D01*
X8037531Y-15090667D02*
X8028007Y-15081143D01*
M02*
