%TF.GenerationSoftware,KiCad,Pcbnew,9.0.0*%
%TF.CreationDate,2025-11-03T03:19:49-06:00*%
%TF.ProjectId,Mau Keys,4d617520-4b65-4797-932e-6b696361645f,rev?*%
%TF.SameCoordinates,Original*%
%TF.FileFunction,Soldermask,Bot*%
%TF.FilePolarity,Negative*%
%FSLAX46Y46*%
G04 Gerber Fmt 4.6, Leading zero omitted, Abs format (unit mm)*
G04 Created by KiCad (PCBNEW 9.0.0) date 2025-11-03 03:19:49*
%MOMM*%
%LPD*%
G01*
G04 APERTURE LIST*
G04 Aperture macros list*
%AMHorizOval*
0 Thick line with rounded ends*
0 $1 width*
0 $2 $3 position (X,Y) of the first rounded end (center of the circle)*
0 $4 $5 position (X,Y) of the second rounded end (center of the circle)*
0 Add line between two ends*
20,1,$1,$2,$3,$4,$5,0*
0 Add two circle primitives to create the rounded ends*
1,1,$1,$2,$3*
1,1,$1,$4,$5*%
G04 Aperture macros list end*
%ADD10O,2.200000X1.600000*%
%ADD11O,2.200000X1.500000*%
%ADD12HorizOval,1.600000X0.296307X-0.046930X-0.296307X0.046930X0*%
%ADD13HorizOval,1.500000X0.345691X-0.054752X-0.345691X0.054752X0*%
%ADD14HorizOval,1.600000X0.298858X0.026147X-0.298858X-0.026147X0*%
%ADD15HorizOval,1.500000X0.348668X0.030505X-0.348668X-0.030505X0*%
%ADD16C,1.752600*%
%ADD17HorizOval,1.600000X0.296627X0.044861X-0.296627X-0.044861X0*%
%ADD18HorizOval,1.500000X0.346065X0.052337X-0.346065X-0.052337X0*%
%ADD19HorizOval,1.600000X0.298858X-0.026147X-0.298858X0.026147X0*%
%ADD20HorizOval,1.500000X0.348668X-0.030505X-0.348668X0.030505X0*%
%ADD21HorizOval,1.600000X0.296627X-0.044861X-0.296627X0.044861X0*%
%ADD22HorizOval,1.500000X0.346065X-0.052337X-0.346065X0.052337X0*%
%ADD23HorizOval,1.600000X0.296307X0.046930X-0.296307X-0.046930X0*%
%ADD24HorizOval,1.500000X0.345691X0.054752X-0.345691X-0.054752X0*%
%ADD25C,1.000000*%
G04 APERTURE END LIST*
D10*
%TO.C,SwitchR_6*%
X184720000Y-79240000D03*
D11*
X179720000Y-81240000D03*
%TD*%
D10*
%TO.C,SwitchR_12*%
X203720000Y-95240000D03*
D11*
X198720000Y-97240000D03*
%TD*%
D10*
%TO.C,Switch14*%
X98540000Y-95240000D03*
D11*
X93540000Y-97240000D03*
%TD*%
D10*
%TO.C,Switch4*%
X98540000Y-57240000D03*
D11*
X93540000Y-59240000D03*
%TD*%
D10*
%TO.C,Switch5*%
X117540000Y-60240000D03*
D11*
X112540000Y-62240000D03*
%TD*%
D10*
%TO.C,Switch15*%
X117540000Y-98240000D03*
D11*
X112540000Y-100240000D03*
%TD*%
D12*
%TO.C,Switch17*%
X125213398Y-121283663D03*
D13*
X119962087Y-122476867D03*
%TD*%
D10*
%TO.C,Switch10*%
X117540000Y-79240000D03*
D11*
X112540000Y-81240000D03*
%TD*%
D10*
%TO.C,Switch9*%
X98540000Y-76240000D03*
D11*
X93540000Y-78240000D03*
%TD*%
D12*
%TO.C,Switch16*%
X106447320Y-118311408D03*
D13*
X101196009Y-119504612D03*
%TD*%
D14*
%TO.C,Switch12*%
X60534497Y-99262070D03*
D15*
X55727835Y-101690238D03*
%TD*%
D14*
%TO.C,Switch7*%
X58878538Y-80334371D03*
D15*
X54071876Y-82762539D03*
%TD*%
D14*
%TO.C,Switch2*%
X57222579Y-61406672D03*
D15*
X52415917Y-63834840D03*
%TD*%
D16*
%TO.C,NNV2*%
X129540000Y-66040000D03*
X129540000Y-68580000D03*
X129540000Y-71120000D03*
X129540000Y-73660000D03*
X129540000Y-76200000D03*
X129540000Y-78740000D03*
X129540000Y-81280000D03*
X129540000Y-83820000D03*
X129540000Y-86360000D03*
X129540000Y-88900000D03*
X129540000Y-91440000D03*
X129540000Y-93980000D03*
X129540000Y-96520000D03*
X144780000Y-66040000D03*
X144780000Y-68580000D03*
X144780000Y-71120000D03*
X144780000Y-73660000D03*
X144780000Y-76200000D03*
X144780000Y-78740000D03*
X144780000Y-81280000D03*
X144780000Y-83820000D03*
X144780000Y-86360000D03*
X144780000Y-88900000D03*
X144780000Y-91440000D03*
X144780000Y-93980000D03*
X144780000Y-96520000D03*
X132080000Y-91440000D03*
X134620000Y-91440000D03*
X137160000Y-91440000D03*
%TD*%
D10*
%TO.C,Switch3*%
X79540000Y-47240000D03*
D11*
X74540000Y-49240000D03*
%TD*%
D10*
%TO.C,Switch8*%
X79540000Y-66240000D03*
D11*
X74540000Y-68240000D03*
%TD*%
D10*
%TO.C,Switch13*%
X79540000Y-85240000D03*
D11*
X74540000Y-87240000D03*
%TD*%
D17*
%TO.C,Switch1*%
X38013465Y-78728982D03*
D18*
X33368754Y-81454171D03*
%TD*%
D17*
%TO.C,Switch6*%
X40854637Y-97515353D03*
D18*
X36209926Y-100240542D03*
%TD*%
D17*
%TO.C,Switch11*%
X43695809Y-116301724D03*
D18*
X39051098Y-119026913D03*
%TD*%
D10*
%TO.C,SwitchR_2*%
X203720000Y-57240000D03*
D11*
X198720000Y-59240000D03*
%TD*%
D19*
%TO.C,SwitchR_9*%
X243381462Y-80334371D03*
D20*
X238226177Y-81890981D03*
%TD*%
D10*
%TO.C,SwitchR_7*%
X203720000Y-76240000D03*
D11*
X198720000Y-78240000D03*
%TD*%
D21*
%TO.C,SwitchR_5*%
X264246535Y-78728982D03*
D22*
X259003682Y-79958818D03*
%TD*%
D10*
%TO.C,SwitchR_8*%
X222720000Y-66240000D03*
D11*
X217720000Y-68240000D03*
%TD*%
D16*
%TO.C,NNV2_R1*%
X157480000Y-66040000D03*
X157480000Y-68580000D03*
X157480000Y-71120000D03*
X157480000Y-73660000D03*
X157480000Y-76200000D03*
X157480000Y-78740000D03*
X157480000Y-81280000D03*
X157480000Y-83820000D03*
X157480000Y-86360000D03*
X157480000Y-88900000D03*
X157480000Y-91440000D03*
X157480000Y-93980000D03*
X157480000Y-96520000D03*
X172720000Y-66040000D03*
X172720000Y-68580000D03*
X172720000Y-71120000D03*
X172720000Y-73660000D03*
X172720000Y-76200000D03*
X172720000Y-78740000D03*
X172720000Y-81280000D03*
X172720000Y-83820000D03*
X172720000Y-86360000D03*
X172720000Y-88900000D03*
X172720000Y-91440000D03*
X172720000Y-93980000D03*
X172720000Y-96520000D03*
X160020000Y-91440000D03*
X162560000Y-91440000D03*
X165100000Y-91440000D03*
%TD*%
D21*
%TO.C,SwitchR_10*%
X261405363Y-97515353D03*
D22*
X256162510Y-98745189D03*
%TD*%
D10*
%TO.C,SwitchR_3*%
X222720000Y-47240000D03*
D11*
X217720000Y-49240000D03*
%TD*%
D23*
%TO.C,SwitchR_17*%
X195812680Y-118311408D03*
D24*
X191187107Y-121068957D03*
%TD*%
D19*
%TO.C,SwitchR_14*%
X241725503Y-99262070D03*
D20*
X236570218Y-100818680D03*
%TD*%
D10*
%TO.C,SwitchR_11*%
X184720000Y-98240000D03*
D11*
X179720000Y-100240000D03*
%TD*%
D23*
%TO.C,SwitchR_16*%
X177046602Y-121283663D03*
D24*
X172421029Y-124041212D03*
%TD*%
D10*
%TO.C,SwitchR_1*%
X184720000Y-60240000D03*
D11*
X179720000Y-62240000D03*
%TD*%
D21*
%TO.C,SwitchR_15*%
X258564191Y-116301724D03*
D22*
X253321338Y-117531560D03*
%TD*%
D10*
%TO.C,SwitchR_13*%
X222720000Y-85240000D03*
D11*
X217720000Y-87240000D03*
%TD*%
D19*
%TO.C,SwitchR_4*%
X245037421Y-61406672D03*
D20*
X239882136Y-62963282D03*
%TD*%
D25*
%TO.C,SW_POWER1*%
X138660000Y-66040000D03*
X135660000Y-66040000D03*
%TD*%
%TO.C,SW_POWER2*%
X163605000Y-66045000D03*
X166605000Y-66045000D03*
%TD*%
M02*
