%TF.GenerationSoftware,KiCad,Pcbnew,9.0.0*%
%TF.CreationDate,2025-11-03T03:19:49-06:00*%
%TF.ProjectId,Mau Keys,4d617520-4b65-4797-932e-6b696361645f,rev?*%
%TF.SameCoordinates,Original*%
%TF.FileFunction,Profile,NP*%
%FSLAX46Y46*%
G04 Gerber Fmt 4.6, Leading zero omitted, Abs format (unit mm)*
G04 Created by KiCad (PCBNEW 9.0.0) date 2025-11-03 03:19:49*
%MOMM*%
%LPD*%
G01*
G04 APERTURE LIST*
%TA.AperFunction,Profile*%
%ADD10C,0.250000*%
%TD*%
%TA.AperFunction,Profile*%
%ADD11C,0.050000*%
%TD*%
G04 APERTURE END LIST*
D10*
X94040000Y-53540000D02*
G75*
G02*
X89040000Y-48540001I0J5000000D01*
G01*
X133802719Y-127781135D02*
G75*
G02*
X141000907Y-112554745I29630571J-4693035D01*
G01*
X47523408Y-59544927D02*
G75*
G02*
X48432449Y-58461593I996092J87227D01*
G01*
X28220832Y-77473367D02*
X36413175Y-131868996D01*
X124806078Y-127012255D02*
G75*
G02*
X123806078Y-127012255I-500000J0D01*
G01*
X123806078Y-127012255D02*
G75*
G02*
X124806078Y-127012255I500000J0D01*
G01*
X132359426Y-136893725D02*
X133802719Y-127781135D01*
X109039999Y-56540000D02*
G75*
G02*
X108040000Y-55540002I1J1000000D01*
G01*
X99040000Y-63040000D02*
G75*
G02*
X98040000Y-63040000I-500000J0D01*
G01*
X98040000Y-63040000D02*
G75*
G02*
X99040000Y-63040000I500000J0D01*
G01*
X132040000Y-63040000D02*
G75*
G02*
X127040000Y-58040001I0J5000000D01*
G01*
X118040000Y-85040000D02*
G75*
G02*
X117040000Y-85040000I-500000J0D01*
G01*
X117040000Y-85040000D02*
G75*
G02*
X118040000Y-85040000I500000J0D01*
G01*
X70040000Y-51989506D02*
G75*
G02*
X65475781Y-56970473I-5000000J6D01*
G01*
X106040000Y-124040000D02*
G75*
G02*
X105040000Y-124040000I-500000J0D01*
G01*
X105040000Y-124040000D02*
G75*
G02*
X106040000Y-124040000I500000J0D01*
G01*
X88040001Y-43540000D02*
G75*
G02*
X89040000Y-44539999I-1J-1000000D01*
G01*
X42210385Y-103251885D02*
G75*
G02*
X41210385Y-103251885I-500000J0D01*
G01*
X41210385Y-103251885D02*
G75*
G02*
X42210385Y-103251885I500000J0D01*
G01*
X61540000Y-105040000D02*
G75*
G02*
X60540000Y-105040000I-500000J0D01*
G01*
X60540000Y-105040000D02*
G75*
G02*
X61540000Y-105040000I500000J0D01*
G01*
X48323714Y-68692461D02*
X47523408Y-59544927D01*
X127040000Y-57539998D02*
X127040000Y-58040001D01*
X118040000Y-104040000D02*
G75*
G02*
X117040000Y-104040000I-500000J0D01*
G01*
X117040000Y-104040000D02*
G75*
G02*
X118040000Y-104040000I500000J0D01*
G01*
X132040000Y-63040000D02*
X149320001Y-63040000D01*
X108040000Y-54539999D02*
X108040000Y-55540002D01*
X89040000Y-44539999D02*
X89040000Y-48540001D01*
X39380770Y-84463769D02*
G75*
G02*
X38380770Y-84463769I-500000J0D01*
G01*
X38380770Y-84463769D02*
G75*
G02*
X39380770Y-84463769I500000J0D01*
G01*
X94040000Y-53540000D02*
X107040001Y-53540000D01*
X132359426Y-136893725D02*
G75*
G02*
X131215295Y-137725029I-987726J156425D01*
G01*
X84557668Y-130335144D02*
X131215302Y-137724987D01*
X45040000Y-122040000D02*
G75*
G02*
X44040000Y-122040000I-500000J0D01*
G01*
X44040000Y-122040000D02*
G75*
G02*
X45040000Y-122040000I500000J0D01*
G01*
X80040000Y-53040000D02*
G75*
G02*
X79040000Y-53040000I-500000J0D01*
G01*
X79040000Y-53040000D02*
G75*
G02*
X80040000Y-53040000I500000J0D01*
G01*
X28220833Y-77473367D02*
X28220832Y-77473367D01*
X147788537Y-104910820D02*
X141000907Y-112554745D01*
X44087376Y-74072481D02*
X44087376Y-74072483D01*
X109039999Y-56540000D02*
X126040001Y-56540000D01*
X80040000Y-91040000D02*
G75*
G02*
X79040000Y-91040000I-500000J0D01*
G01*
X79040000Y-91040000D02*
G75*
G02*
X80040000Y-91040000I500000J0D01*
G01*
X99040000Y-82040000D02*
G75*
G02*
X98040000Y-82040000I-500000J0D01*
G01*
X98040000Y-82040000D02*
G75*
G02*
X99040000Y-82040000I500000J0D01*
G01*
X29060753Y-76335592D02*
X44087376Y-74072483D01*
X54021488Y-130219162D02*
G75*
G02*
X84557667Y-130335148I14892712J-98885038D01*
G01*
X48432448Y-58461576D02*
X65475781Y-56970477D01*
X59884041Y-86112301D02*
G75*
G02*
X58884041Y-86112301I-500000J0D01*
G01*
X58884041Y-86112301D02*
G75*
G02*
X59884041Y-86112301I500000J0D01*
G01*
X80040000Y-72040000D02*
G75*
G02*
X79040000Y-72040000I-500000J0D01*
G01*
X79040000Y-72040000D02*
G75*
G02*
X80040000Y-72040000I500000J0D01*
G01*
X107040001Y-53540000D02*
G75*
G02*
X108040000Y-54539999I-1J-1000000D01*
G01*
X70040000Y-51989506D02*
X70040000Y-44539999D01*
X37549640Y-132699932D02*
G75*
G02*
X36413174Y-131868996I-148940J988932D01*
G01*
X29060753Y-76335594D02*
X29060753Y-76335592D01*
X149320001Y-63040000D02*
G75*
G02*
X150320000Y-64039998I-1J-1000000D01*
G01*
X118040000Y-66040000D02*
G75*
G02*
X117040000Y-66040000I-500000J0D01*
G01*
X117040000Y-66040000D02*
G75*
G02*
X118040000Y-66040000I500000J0D01*
G01*
X126040001Y-56540000D02*
G75*
G02*
X127040000Y-57539998I-1J-1000000D01*
G01*
X71039998Y-43540000D02*
X88040001Y-43540000D01*
X150320000Y-98260900D02*
G75*
G02*
X147788526Y-104910810I-10000300J100D01*
G01*
X48323714Y-68692461D02*
G75*
G02*
X44087375Y-74072477I-4980944J-435799D01*
G01*
X28220833Y-77473367D02*
G75*
G02*
X29060754Y-76335601I988837J148927D01*
G01*
X99040000Y-101040000D02*
G75*
G02*
X98040000Y-101040000I-500000J0D01*
G01*
X98040000Y-101040000D02*
G75*
G02*
X99040000Y-101040000I500000J0D01*
G01*
X37549640Y-132699932D02*
X54021488Y-130219162D01*
X70040000Y-44539999D02*
G75*
G02*
X71039998Y-43540000I1000100J-101D01*
G01*
X58228082Y-67184601D02*
G75*
G02*
X57228082Y-67184601I-500000J0D01*
G01*
X57228082Y-67184601D02*
G75*
G02*
X58228082Y-67184601I500000J0D01*
G01*
X150320000Y-64039998D02*
X150320000Y-98260900D01*
X154471463Y-104910820D02*
G75*
G02*
X151940011Y-98260900I7468937J6650020D01*
G01*
X217702332Y-130335144D02*
X171044698Y-137724987D01*
X208220000Y-53540000D02*
X195219999Y-53540000D01*
X273199247Y-76335594D02*
G75*
G02*
X274039134Y-77473362I-149047J-988906D01*
G01*
X175220000Y-57539998D02*
G75*
G02*
X176219999Y-56540000I1000000J-2D01*
G01*
X274039167Y-77473367D02*
X274039168Y-77473367D01*
X261049615Y-103251885D02*
G75*
G02*
X260049615Y-103251885I-500000J0D01*
G01*
X260049615Y-103251885D02*
G75*
G02*
X261049615Y-103251885I500000J0D01*
G01*
X236784219Y-56970477D02*
G75*
G02*
X232219996Y-51989506I435781J4980977D01*
G01*
X231220002Y-43540000D02*
G75*
G02*
X232220000Y-44539999I-2J-1000000D01*
G01*
X213220000Y-44539999D02*
G75*
G02*
X214219999Y-43540000I1000000J-1D01*
G01*
X274039168Y-77473367D02*
X265846825Y-131868996D01*
X223220000Y-91040000D02*
G75*
G02*
X222220000Y-91040000I-500000J0D01*
G01*
X222220000Y-91040000D02*
G75*
G02*
X223220000Y-91040000I500000J0D01*
G01*
X258220000Y-122040000D02*
G75*
G02*
X257220000Y-122040000I-500000J0D01*
G01*
X257220000Y-122040000D02*
G75*
G02*
X258220000Y-122040000I500000J0D01*
G01*
X161259093Y-112554745D02*
G75*
G02*
X168457267Y-127781137I-22432293J-19919355D01*
G01*
X241720000Y-105040000D02*
G75*
G02*
X240720000Y-105040000I-500000J0D01*
G01*
X240720000Y-105040000D02*
G75*
G02*
X241720000Y-105040000I500000J0D01*
G01*
X232220000Y-51989506D02*
X232220000Y-44539999D01*
X194220000Y-55540002D02*
G75*
G02*
X193220001Y-56540000I-1000000J2D01*
G01*
X185220000Y-104040000D02*
G75*
G02*
X184220000Y-104040000I-500000J0D01*
G01*
X184220000Y-104040000D02*
G75*
G02*
X185220000Y-104040000I500000J0D01*
G01*
X245031918Y-67184601D02*
G75*
G02*
X244031918Y-67184601I-500000J0D01*
G01*
X244031918Y-67184601D02*
G75*
G02*
X245031918Y-67184601I500000J0D01*
G01*
X204220000Y-82040000D02*
G75*
G02*
X203220000Y-82040000I-500000J0D01*
G01*
X203220000Y-82040000D02*
G75*
G02*
X204220000Y-82040000I500000J0D01*
G01*
X170220000Y-63040000D02*
X152939999Y-63040000D01*
X273199247Y-76335592D02*
X258172624Y-74072483D01*
X151940000Y-64039998D02*
X151940000Y-98260900D01*
X185220000Y-85040000D02*
G75*
G02*
X184220000Y-85040000I-500000J0D01*
G01*
X184220000Y-85040000D02*
G75*
G02*
X185220000Y-85040000I500000J0D01*
G01*
X193220001Y-56540000D02*
X176219999Y-56540000D01*
X204220000Y-63040000D02*
G75*
G02*
X203220000Y-63040000I-500000J0D01*
G01*
X203220000Y-63040000D02*
G75*
G02*
X204220000Y-63040000I500000J0D01*
G01*
X217702332Y-130335144D02*
G75*
G02*
X248238513Y-130219157I15643468J-98768856D01*
G01*
X223220000Y-53040000D02*
G75*
G02*
X222220000Y-53040000I-500000J0D01*
G01*
X222220000Y-53040000D02*
G75*
G02*
X223220000Y-53040000I500000J0D01*
G01*
X178453922Y-127012255D02*
G75*
G02*
X177453922Y-127012255I-500000J0D01*
G01*
X177453922Y-127012255D02*
G75*
G02*
X178453922Y-127012255I500000J0D01*
G01*
X213220000Y-48540001D02*
G75*
G02*
X208220000Y-53540000I-5000000J1D01*
G01*
X151940000Y-64039998D02*
G75*
G02*
X152939999Y-63040000I1000000J-2D01*
G01*
X258172624Y-74072481D02*
X258172624Y-74072483D01*
X264710360Y-132699932D02*
X248238512Y-130219162D01*
X265846825Y-131868996D02*
G75*
G02*
X264710368Y-132699879I-987625J158196D01*
G01*
X197220000Y-124040000D02*
G75*
G02*
X196220000Y-124040000I-500000J0D01*
G01*
X196220000Y-124040000D02*
G75*
G02*
X197220000Y-124040000I500000J0D01*
G01*
X175220000Y-58040001D02*
G75*
G02*
X170220000Y-63040000I-5000000J1D01*
G01*
X231220002Y-43540000D02*
X214219999Y-43540000D01*
X169900574Y-136893725D02*
X168457281Y-127781135D01*
X213220000Y-44539999D02*
X213220000Y-48540001D01*
X273199247Y-76335594D02*
X273199247Y-76335592D01*
X243375959Y-86112301D02*
G75*
G02*
X242375959Y-86112301I-500000J0D01*
G01*
X242375959Y-86112301D02*
G75*
G02*
X243375959Y-86112301I500000J0D01*
G01*
X263879230Y-84463769D02*
G75*
G02*
X262879230Y-84463769I-500000J0D01*
G01*
X262879230Y-84463769D02*
G75*
G02*
X263879230Y-84463769I500000J0D01*
G01*
X194220000Y-54539999D02*
X194220000Y-55540002D01*
X194220000Y-54539999D02*
G75*
G02*
X195219999Y-53540000I1000000J-1D01*
G01*
X253827552Y-58461576D02*
G75*
G02*
X254736518Y-59544921I-87152J-996124D01*
G01*
X171044698Y-137724987D02*
G75*
G02*
X169900585Y-136893723I-156498J987587D01*
G01*
X185220000Y-66040000D02*
G75*
G02*
X184220000Y-66040000I-500000J0D01*
G01*
X184220000Y-66040000D02*
G75*
G02*
X185220000Y-66040000I500000J0D01*
G01*
X154471463Y-104910820D02*
X161259093Y-112554745D01*
X253827552Y-58461576D02*
X236784219Y-56970477D01*
X204220000Y-101040000D02*
G75*
G02*
X203220000Y-101040000I-500000J0D01*
G01*
X203220000Y-101040000D02*
G75*
G02*
X204220000Y-101040000I500000J0D01*
G01*
X258172624Y-74072481D02*
G75*
G02*
X253936277Y-68692460I744676J4944281D01*
G01*
X253936286Y-68692461D02*
X254736592Y-59544927D01*
X175220000Y-57539998D02*
X175220000Y-58040001D01*
X223220000Y-72040000D02*
G75*
G02*
X222220000Y-72040000I-500000J0D01*
G01*
X222220000Y-72040000D02*
G75*
G02*
X223220000Y-72040000I500000J0D01*
G01*
D11*
%TO.C,SwitchR_6*%
X179420000Y-86040000D02*
X179420000Y-84040000D01*
X189520000Y-83540000D02*
X179920001Y-83540000D01*
X189520000Y-86540000D02*
X179920000Y-86539999D01*
X190020000Y-84040000D02*
X190020000Y-86040000D01*
X179420000Y-84040000D02*
G75*
G02*
X179920000Y-83540000I500001J-1D01*
G01*
X179919999Y-86540001D02*
G75*
G02*
X179419999Y-86040001I1J500001D01*
G01*
X189520000Y-83540000D02*
G75*
G02*
X190020000Y-84040000I0J-500000D01*
G01*
X190020000Y-86040000D02*
G75*
G02*
X189520000Y-86540000I-500000J0D01*
G01*
%TO.C,SwitchR_12*%
X198420000Y-102040000D02*
X198420000Y-100040000D01*
X208520000Y-99540000D02*
X198920001Y-99540000D01*
X208520000Y-102540000D02*
X198920000Y-102539999D01*
X209020000Y-100040000D02*
X209020000Y-102040000D01*
X198420000Y-100040000D02*
G75*
G02*
X198920000Y-99540000I500001J-1D01*
G01*
X198919999Y-102540001D02*
G75*
G02*
X198419999Y-102040001I1J500001D01*
G01*
X208520000Y-99540000D02*
G75*
G02*
X209020000Y-100040000I0J-500000D01*
G01*
X209020000Y-102040000D02*
G75*
G02*
X208520000Y-102540000I-500000J0D01*
G01*
%TO.C,Switch14*%
X93240000Y-102040000D02*
X93240000Y-100040000D01*
X103340000Y-99540000D02*
X93740001Y-99540000D01*
X103340000Y-102540000D02*
X93740000Y-102539999D01*
X103840000Y-100040000D02*
X103840000Y-102040000D01*
X93240000Y-100040000D02*
G75*
G02*
X93740000Y-99540000I500001J-1D01*
G01*
X93739999Y-102540001D02*
G75*
G02*
X93239999Y-102040001I1J500001D01*
G01*
X103340000Y-99540000D02*
G75*
G02*
X103840000Y-100040000I0J-500000D01*
G01*
X103840000Y-102040000D02*
G75*
G02*
X103340000Y-102540000I-500000J0D01*
G01*
%TO.C,Switch4*%
X93240000Y-64040000D02*
X93240000Y-62040000D01*
X103340000Y-61540000D02*
X93740001Y-61540000D01*
X103340000Y-64540000D02*
X93740000Y-64539999D01*
X103840000Y-62040000D02*
X103840000Y-64040000D01*
X93240000Y-62040000D02*
G75*
G02*
X93740000Y-61540000I500001J-1D01*
G01*
X93739999Y-64540001D02*
G75*
G02*
X93239999Y-64040001I1J500001D01*
G01*
X103340000Y-61540000D02*
G75*
G02*
X103840000Y-62040000I0J-500000D01*
G01*
X103840000Y-64040000D02*
G75*
G02*
X103340000Y-64540000I-500000J0D01*
G01*
%TO.C,Switch5*%
X112240000Y-67040000D02*
X112240000Y-65040000D01*
X122340000Y-64540000D02*
X112740001Y-64540000D01*
X122340000Y-67540000D02*
X112740000Y-67539999D01*
X122840000Y-65040000D02*
X122840000Y-67040000D01*
X112240000Y-65040000D02*
G75*
G02*
X112740000Y-64540000I500001J-1D01*
G01*
X112739999Y-67540001D02*
G75*
G02*
X112239999Y-67040001I1J500001D01*
G01*
X122340000Y-64540000D02*
G75*
G02*
X122840000Y-65040000I0J-500000D01*
G01*
X122840000Y-67040000D02*
G75*
G02*
X122340000Y-67540000I-500000J0D01*
G01*
%TO.C,Switch15*%
X112240000Y-105040000D02*
X112240000Y-103040000D01*
X122340000Y-102540000D02*
X112740001Y-102540000D01*
X122340000Y-105540000D02*
X112740000Y-105539999D01*
X122840000Y-103040000D02*
X122840000Y-105040000D01*
X112240000Y-103040000D02*
G75*
G02*
X112740000Y-102540000I500001J-1D01*
G01*
X112739999Y-105540001D02*
G75*
G02*
X112239999Y-105040001I1J500001D01*
G01*
X122340000Y-102540000D02*
G75*
G02*
X122840000Y-103040000I0J-500000D01*
G01*
X122840000Y-105040000D02*
G75*
G02*
X122340000Y-105540000I-500000J0D01*
G01*
%TO.C,Switch17*%
X118914895Y-127170841D02*
X119227764Y-125195464D01*
X129281634Y-126281608D02*
X119799827Y-124779837D01*
X128812330Y-129244673D02*
X119330522Y-127742901D01*
X129697261Y-126853669D02*
X129384392Y-128829046D01*
X119227764Y-125195464D02*
G75*
G02*
X119799826Y-124779837I493845J-78218D01*
G01*
X119330521Y-127742903D02*
G75*
G02*
X118914895Y-127170842I78219J493845D01*
G01*
X129281634Y-126281608D02*
G75*
G02*
X129697260Y-126853669I-78218J-493844D01*
G01*
X129384392Y-128829046D02*
G75*
G02*
X128812330Y-129244673I-493844J78217D01*
G01*
%TO.C,Switch10*%
X112240000Y-86040000D02*
X112240000Y-84040000D01*
X122340000Y-83540000D02*
X112740001Y-83540000D01*
X122340000Y-86540000D02*
X112740000Y-86539999D01*
X122840000Y-84040000D02*
X122840000Y-86040000D01*
X112240000Y-84040000D02*
G75*
G02*
X112740000Y-83540000I500001J-1D01*
G01*
X112739999Y-86540001D02*
G75*
G02*
X112239999Y-86040001I1J500001D01*
G01*
X122340000Y-83540000D02*
G75*
G02*
X122840000Y-84040000I0J-500000D01*
G01*
X122840000Y-86040000D02*
G75*
G02*
X122340000Y-86540000I-500000J0D01*
G01*
%TO.C,Switch9*%
X93240000Y-83040000D02*
X93240000Y-81040000D01*
X103340000Y-80540000D02*
X93740001Y-80540000D01*
X103340000Y-83540000D02*
X93740000Y-83539999D01*
X103840000Y-81040000D02*
X103840000Y-83040000D01*
X93240000Y-81040000D02*
G75*
G02*
X93740000Y-80540000I500001J-1D01*
G01*
X93739999Y-83540001D02*
G75*
G02*
X93239999Y-83040001I1J500001D01*
G01*
X103340000Y-80540000D02*
G75*
G02*
X103840000Y-81040000I0J-500000D01*
G01*
X103840000Y-83040000D02*
G75*
G02*
X103340000Y-83540000I-500000J0D01*
G01*
%TO.C,Switch16*%
X100148817Y-124198586D02*
X100461686Y-122223209D01*
X110515556Y-123309353D02*
X101033749Y-121807582D01*
X110046252Y-126272418D02*
X100564444Y-124770646D01*
X110931183Y-123881414D02*
X110618314Y-125856791D01*
X100461686Y-122223209D02*
G75*
G02*
X101033748Y-121807582I493845J-78218D01*
G01*
X100564443Y-124770648D02*
G75*
G02*
X100148817Y-124198587I78219J493845D01*
G01*
X110515556Y-123309353D02*
G75*
G02*
X110931182Y-123881414I-78218J-493844D01*
G01*
X110618314Y-125856791D02*
G75*
G02*
X110046252Y-126272418I-493844J78217D01*
G01*
%TO.C,Switch12*%
X55847324Y-106498119D02*
X55673012Y-104505730D01*
X65691001Y-103127359D02*
X56127533Y-103964054D01*
X65952468Y-106115943D02*
X56388999Y-106952638D01*
X66232676Y-103581879D02*
X66406988Y-105574268D01*
X55673012Y-104505730D02*
G75*
G02*
X56127532Y-103964054I498099J43577D01*
G01*
X56388998Y-106952640D02*
G75*
G02*
X55847322Y-106498120I-43577J498099D01*
G01*
X65691001Y-103127359D02*
G75*
G02*
X66232677Y-103581879I43578J-498098D01*
G01*
X66406988Y-105574268D02*
G75*
G02*
X65952468Y-106115944I-498098J-43578D01*
G01*
%TO.C,Switch7*%
X54191365Y-87570420D02*
X54017053Y-85578031D01*
X64035042Y-84199660D02*
X54471574Y-85036355D01*
X64296509Y-87188244D02*
X54733040Y-88024939D01*
X64576717Y-84654180D02*
X64751029Y-86646569D01*
X54017053Y-85578031D02*
G75*
G02*
X54471573Y-85036355I498099J43577D01*
G01*
X54733039Y-88024941D02*
G75*
G02*
X54191363Y-87570421I-43577J498099D01*
G01*
X64035042Y-84199660D02*
G75*
G02*
X64576718Y-84654180I43578J-498098D01*
G01*
X64751029Y-86646569D02*
G75*
G02*
X64296509Y-87188245I-498098J-43578D01*
G01*
%TO.C,Switch2*%
X52535406Y-68642721D02*
X52361094Y-66650332D01*
X62379083Y-65271961D02*
X52815615Y-66108656D01*
X62640550Y-68260545D02*
X53077081Y-69097240D01*
X62920758Y-65726481D02*
X63095070Y-67718870D01*
X52361094Y-66650332D02*
G75*
G02*
X52815614Y-66108656I498099J43577D01*
G01*
X53077080Y-69097242D02*
G75*
G02*
X52535404Y-68642722I-43577J498099D01*
G01*
X62379083Y-65271961D02*
G75*
G02*
X62920759Y-65726481I43578J-498098D01*
G01*
X63095070Y-67718870D02*
G75*
G02*
X62640550Y-68260546I-498098J-43578D01*
G01*
%TO.C,Switch3*%
X74240000Y-54040000D02*
X74240000Y-52040000D01*
X84340000Y-51540000D02*
X74740001Y-51540000D01*
X84340000Y-54540000D02*
X74740000Y-54539999D01*
X84840000Y-52040000D02*
X84840000Y-54040000D01*
X74240000Y-52040000D02*
G75*
G02*
X74740000Y-51540000I500001J-1D01*
G01*
X74739999Y-54540001D02*
G75*
G02*
X74239999Y-54040001I1J500001D01*
G01*
X84340000Y-51540000D02*
G75*
G02*
X84840000Y-52040000I0J-500000D01*
G01*
X84840000Y-54040000D02*
G75*
G02*
X84340000Y-54540000I-500000J0D01*
G01*
%TO.C,Switch8*%
X74240000Y-73040000D02*
X74240000Y-71040000D01*
X84340000Y-70540000D02*
X74740001Y-70540000D01*
X84340000Y-73540000D02*
X74740000Y-73539999D01*
X84840000Y-71040000D02*
X84840000Y-73040000D01*
X74240000Y-71040000D02*
G75*
G02*
X74740000Y-70540000I500001J-1D01*
G01*
X74739999Y-73540001D02*
G75*
G02*
X74239999Y-73040001I1J500001D01*
G01*
X84340000Y-70540000D02*
G75*
G02*
X84840000Y-71040000I0J-500000D01*
G01*
X84840000Y-73040000D02*
G75*
G02*
X84340000Y-73540000I-500000J0D01*
G01*
%TO.C,Switch13*%
X74240000Y-92040000D02*
X74240000Y-90040000D01*
X84340000Y-89540000D02*
X74740001Y-89540000D01*
X84340000Y-92540000D02*
X74740000Y-92539999D01*
X84840000Y-90040000D02*
X84840000Y-92040000D01*
X74240000Y-90040000D02*
G75*
G02*
X74740000Y-89540000I500001J-1D01*
G01*
X74739999Y-92540001D02*
G75*
G02*
X74239999Y-92040001I1J500001D01*
G01*
X84340000Y-89540000D02*
G75*
G02*
X84840000Y-90040000I0J-500000D01*
G01*
X84840000Y-92040000D02*
G75*
G02*
X84340000Y-92540000I-500000J0D01*
G01*
%TO.C,Switch1*%
X33789897Y-86245063D02*
X33490826Y-84267550D01*
X43402498Y-82262865D02*
X33910437Y-83698404D01*
X43851104Y-85229134D02*
X34359042Y-86664672D01*
X43971643Y-82682475D02*
X44270714Y-84659988D01*
X33490826Y-84267550D02*
G75*
G02*
X33910436Y-83698404I494379J74767D01*
G01*
X34359042Y-86664674D02*
G75*
G02*
X33789896Y-86245064I-74767J494379D01*
G01*
X43402498Y-82262865D02*
G75*
G02*
X43971643Y-82682475I74767J-494378D01*
G01*
X44270714Y-84659988D02*
G75*
G02*
X43851104Y-85229134I-494378J-74768D01*
G01*
%TO.C,Switch6*%
X36631069Y-105031434D02*
X36331998Y-103053921D01*
X46243670Y-101049236D02*
X36751609Y-102484775D01*
X46692276Y-104015505D02*
X37200214Y-105451043D01*
X46812815Y-101468846D02*
X47111886Y-103446359D01*
X36331998Y-103053921D02*
G75*
G02*
X36751608Y-102484775I494379J74767D01*
G01*
X37200214Y-105451045D02*
G75*
G02*
X36631068Y-105031435I-74767J494379D01*
G01*
X46243670Y-101049236D02*
G75*
G02*
X46812815Y-101468846I74767J-494378D01*
G01*
X47111886Y-103446359D02*
G75*
G02*
X46692276Y-104015505I-494378J-74768D01*
G01*
%TO.C,Switch11*%
X39472241Y-123817805D02*
X39173170Y-121840292D01*
X49084842Y-119835607D02*
X39592781Y-121271146D01*
X49533448Y-122801876D02*
X40041386Y-124237414D01*
X49653987Y-120255217D02*
X49953058Y-122232730D01*
X39173170Y-121840292D02*
G75*
G02*
X39592780Y-121271146I494379J74767D01*
G01*
X40041386Y-124237416D02*
G75*
G02*
X39472240Y-123817806I-74767J494379D01*
G01*
X49084842Y-119835607D02*
G75*
G02*
X49653987Y-120255217I74767J-494378D01*
G01*
X49953058Y-122232730D02*
G75*
G02*
X49533448Y-122801876I-494378J-74768D01*
G01*
%TO.C,SwitchR_2*%
X198420000Y-64040000D02*
X198420000Y-62040000D01*
X208520000Y-61540000D02*
X198920001Y-61540000D01*
X208520000Y-64540000D02*
X198920000Y-64539999D01*
X209020000Y-62040000D02*
X209020000Y-64040000D01*
X198420000Y-62040000D02*
G75*
G02*
X198920000Y-61540000I500001J-1D01*
G01*
X198919999Y-64540001D02*
G75*
G02*
X198419999Y-64040001I1J500001D01*
G01*
X208520000Y-61540000D02*
G75*
G02*
X209020000Y-62040000I0J-500000D01*
G01*
X209020000Y-64040000D02*
G75*
G02*
X208520000Y-64540000I-500000J0D01*
G01*
%TO.C,SwitchR_9*%
X237508971Y-86646569D02*
X237683283Y-84654180D01*
X247788427Y-85036356D02*
X238224959Y-84199660D01*
X247526960Y-88024940D02*
X237963491Y-87188243D01*
X248242947Y-85578031D02*
X248068635Y-87570420D01*
X237683283Y-84654180D02*
G75*
G02*
X238224958Y-84199661I498098J-43579D01*
G01*
X237963490Y-87188245D02*
G75*
G02*
X237508971Y-86646570I43579J498098D01*
G01*
X247788427Y-85036356D02*
G75*
G02*
X248242946Y-85578031I-43578J-498097D01*
G01*
X248068635Y-87570420D02*
G75*
G02*
X247526960Y-88024939I-498097J43578D01*
G01*
%TO.C,SwitchR_7*%
X198420000Y-83040000D02*
X198420000Y-81040000D01*
X208520000Y-80540000D02*
X198920001Y-80540000D01*
X208520000Y-83540000D02*
X198920000Y-83539999D01*
X209020000Y-81040000D02*
X209020000Y-83040000D01*
X198420000Y-81040000D02*
G75*
G02*
X198920000Y-80540000I500001J-1D01*
G01*
X198919999Y-83540001D02*
G75*
G02*
X198419999Y-83040001I1J500001D01*
G01*
X208520000Y-80540000D02*
G75*
G02*
X209020000Y-81040000I0J-500000D01*
G01*
X209020000Y-83040000D02*
G75*
G02*
X208520000Y-83540000I-500000J0D01*
G01*
%TO.C,SwitchR_5*%
X257989286Y-84659988D02*
X258288357Y-82682475D01*
X268349564Y-83698404D02*
X258857503Y-82262865D01*
X267900958Y-86664673D02*
X258408897Y-85229133D01*
X268769174Y-84267550D02*
X268470103Y-86245063D01*
X258288357Y-82682475D02*
G75*
G02*
X258857502Y-82262865I494379J-74769D01*
G01*
X258408895Y-85229135D02*
G75*
G02*
X257989285Y-84659989I74769J494379D01*
G01*
X268349564Y-83698404D02*
G75*
G02*
X268769174Y-84267550I-74768J-494378D01*
G01*
X268470103Y-86245063D02*
G75*
G02*
X267900958Y-86664673I-494378J74768D01*
G01*
%TO.C,SwitchR_8*%
X217420000Y-73040000D02*
X217420000Y-71040000D01*
X227520000Y-70540000D02*
X217920001Y-70540000D01*
X227520000Y-73540000D02*
X217920000Y-73539999D01*
X228020000Y-71040000D02*
X228020000Y-73040000D01*
X217420000Y-71040000D02*
G75*
G02*
X217920000Y-70540000I500001J-1D01*
G01*
X217919999Y-73540001D02*
G75*
G02*
X217419999Y-73040001I1J500001D01*
G01*
X227520000Y-70540000D02*
G75*
G02*
X228020000Y-71040000I0J-500000D01*
G01*
X228020000Y-73040000D02*
G75*
G02*
X227520000Y-73540000I-500000J0D01*
G01*
%TO.C,SwitchR_10*%
X255148114Y-103446359D02*
X255447185Y-101468846D01*
X265508392Y-102484775D02*
X256016331Y-101049236D01*
X265059786Y-105451044D02*
X255567725Y-104015504D01*
X265928002Y-103053921D02*
X265628931Y-105031434D01*
X255447185Y-101468846D02*
G75*
G02*
X256016330Y-101049236I494379J-74769D01*
G01*
X255567723Y-104015506D02*
G75*
G02*
X255148113Y-103446360I74769J494379D01*
G01*
X265508392Y-102484775D02*
G75*
G02*
X265928002Y-103053921I-74768J-494378D01*
G01*
X265628931Y-105031434D02*
G75*
G02*
X265059786Y-105451044I-494378J74768D01*
G01*
%TO.C,SwitchR_3*%
X217420000Y-54040000D02*
X217420000Y-52040000D01*
X227520000Y-51540000D02*
X217920001Y-51540000D01*
X227520000Y-54540000D02*
X217920000Y-54539999D01*
X228020000Y-52040000D02*
X228020000Y-54040000D01*
X217420000Y-52040000D02*
G75*
G02*
X217920000Y-51540000I500001J-1D01*
G01*
X217919999Y-54540001D02*
G75*
G02*
X217419999Y-54040001I1J500001D01*
G01*
X227520000Y-51540000D02*
G75*
G02*
X228020000Y-52040000I0J-500000D01*
G01*
X228020000Y-54040000D02*
G75*
G02*
X227520000Y-54540000I-500000J0D01*
G01*
%TO.C,SwitchR_17*%
X191641686Y-125856791D02*
X191328817Y-123881414D01*
X201226252Y-121807582D02*
X191744445Y-123309353D01*
X201695556Y-124770647D02*
X192213748Y-126272417D01*
X201798314Y-122223209D02*
X202111183Y-124198586D01*
X191328817Y-123881414D02*
G75*
G02*
X191744444Y-123309352I493846J78216D01*
G01*
X192213747Y-126272419D02*
G75*
G02*
X191641685Y-125856792I-78217J493845D01*
G01*
X201226252Y-121807582D02*
G75*
G02*
X201798314Y-122223209I78218J-493844D01*
G01*
X202111183Y-124198586D02*
G75*
G02*
X201695556Y-124770648I-493845J-78217D01*
G01*
%TO.C,SwitchR_14*%
X235853012Y-105574268D02*
X236027324Y-103581879D01*
X246132468Y-103964055D02*
X236569000Y-103127359D01*
X245871001Y-106952639D02*
X236307532Y-106115942D01*
X246586988Y-104505730D02*
X246412676Y-106498119D01*
X236027324Y-103581879D02*
G75*
G02*
X236568999Y-103127360I498098J-43579D01*
G01*
X236307531Y-106115944D02*
G75*
G02*
X235853012Y-105574269I43579J498098D01*
G01*
X246132468Y-103964055D02*
G75*
G02*
X246586987Y-104505730I-43578J-498097D01*
G01*
X246412676Y-106498119D02*
G75*
G02*
X245871001Y-106952638I-498097J43578D01*
G01*
%TO.C,SwitchR_11*%
X179420000Y-105040000D02*
X179420000Y-103040000D01*
X189520000Y-102540000D02*
X179920001Y-102540000D01*
X189520000Y-105540000D02*
X179920000Y-105539999D01*
X190020000Y-103040000D02*
X190020000Y-105040000D01*
X179420000Y-103040000D02*
G75*
G02*
X179920000Y-102540000I500001J-1D01*
G01*
X179919999Y-105540001D02*
G75*
G02*
X179419999Y-105040001I1J500001D01*
G01*
X189520000Y-102540000D02*
G75*
G02*
X190020000Y-103040000I0J-500000D01*
G01*
X190020000Y-105040000D02*
G75*
G02*
X189520000Y-105540000I-500000J0D01*
G01*
%TO.C,SwitchR_16*%
X172875608Y-128829046D02*
X172562739Y-126853669D01*
X182460174Y-124779837D02*
X172978367Y-126281608D01*
X182929478Y-127742902D02*
X173447670Y-129244672D01*
X183032236Y-125195464D02*
X183345105Y-127170841D01*
X172562739Y-126853669D02*
G75*
G02*
X172978366Y-126281607I493846J78216D01*
G01*
X173447669Y-129244674D02*
G75*
G02*
X172875607Y-128829047I-78217J493845D01*
G01*
X182460174Y-124779837D02*
G75*
G02*
X183032236Y-125195464I78218J-493844D01*
G01*
X183345105Y-127170841D02*
G75*
G02*
X182929478Y-127742903I-493845J-78217D01*
G01*
%TO.C,SwitchR_1*%
X179420000Y-67040000D02*
X179420000Y-65040000D01*
X189520000Y-64540000D02*
X179920001Y-64540000D01*
X189520000Y-67540000D02*
X179920000Y-67539999D01*
X190020000Y-65040000D02*
X190020000Y-67040000D01*
X179420000Y-65040000D02*
G75*
G02*
X179920000Y-64540000I500001J-1D01*
G01*
X179919999Y-67540001D02*
G75*
G02*
X179419999Y-67040001I1J500001D01*
G01*
X189520000Y-64540000D02*
G75*
G02*
X190020000Y-65040000I0J-500000D01*
G01*
X190020000Y-67040000D02*
G75*
G02*
X189520000Y-67540000I-500000J0D01*
G01*
%TO.C,SwitchR_15*%
X252306942Y-122232730D02*
X252606013Y-120255217D01*
X262667220Y-121271146D02*
X253175159Y-119835607D01*
X262218614Y-124237415D02*
X252726553Y-122801875D01*
X263086830Y-121840292D02*
X262787759Y-123817805D01*
X252606013Y-120255217D02*
G75*
G02*
X253175158Y-119835607I494379J-74769D01*
G01*
X252726551Y-122801877D02*
G75*
G02*
X252306941Y-122232731I74769J494379D01*
G01*
X262667220Y-121271146D02*
G75*
G02*
X263086830Y-121840292I-74768J-494378D01*
G01*
X262787759Y-123817805D02*
G75*
G02*
X262218614Y-124237415I-494378J74768D01*
G01*
%TO.C,SwitchR_13*%
X217420000Y-92040000D02*
X217420000Y-90040000D01*
X227520000Y-89540000D02*
X217920001Y-89540000D01*
X227520000Y-92540000D02*
X217920000Y-92539999D01*
X228020000Y-90040000D02*
X228020000Y-92040000D01*
X217420000Y-90040000D02*
G75*
G02*
X217920000Y-89540000I500001J-1D01*
G01*
X217919999Y-92540001D02*
G75*
G02*
X217419999Y-92040001I1J500001D01*
G01*
X227520000Y-89540000D02*
G75*
G02*
X228020000Y-90040000I0J-500000D01*
G01*
X228020000Y-92040000D02*
G75*
G02*
X227520000Y-92540000I-500000J0D01*
G01*
%TO.C,SwitchR_4*%
X239164930Y-67718870D02*
X239339242Y-65726481D01*
X249444386Y-66108657D02*
X239880918Y-65271961D01*
X249182919Y-69097241D02*
X239619450Y-68260544D01*
X249898906Y-66650332D02*
X249724594Y-68642721D01*
X239339242Y-65726481D02*
G75*
G02*
X239880917Y-65271962I498098J-43579D01*
G01*
X239619449Y-68260546D02*
G75*
G02*
X239164930Y-67718871I43579J498098D01*
G01*
X249444386Y-66108657D02*
G75*
G02*
X249898905Y-66650332I-43578J-498097D01*
G01*
X249724594Y-68642721D02*
G75*
G02*
X249182919Y-69097240I-498097J43578D01*
G01*
%TD*%
M02*
