%TF.GenerationSoftware,KiCad,Pcbnew,9.0.0*%
%TF.CreationDate,2025-11-03T18:10:29-06:00*%
%TF.ProjectId,Mau Keys,4d617520-4b65-4797-932e-6b696361645f,rev?*%
%TF.SameCoordinates,Original*%
%TF.FileFunction,Drillmap*%
%TF.FilePolarity,Positive*%
%FSLAX45Y45*%
G04 Gerber Fmt 4.5, Leading zero omitted, Abs format (unit mm)*
G04 Created by KiCad (PCBNEW 9.0.0) date 2025-11-03 18:10:29*
%MOMM*%
%LPD*%
G01*
G04 APERTURE LIST*
%ADD10C,0.250000*%
%ADD11C,0.050000*%
%ADD12C,0.200000*%
%ADD13C,0.100000*%
%ADD14C,0.185000*%
%ADD15C,0.490000*%
G04 APERTURE END LIST*
D10*
X9658000Y-5354000D02*
G75*
G02*
X9158000Y-4854000I0J500000D01*
G01*
X7358000Y-4354000D02*
X9058000Y-4354000D01*
X25817262Y-7407248D02*
X25817262Y-7407248D01*
X5656149Y-13021916D02*
G75*
G02*
X8709767Y-13033515I1489271J-9888474D01*
G01*
X17522000Y-5754000D02*
G75*
G02*
X17622000Y-5654000I100000J0D01*
G01*
X19422000Y-5554000D02*
G75*
G02*
X19322000Y-5654000I-100000J0D01*
G01*
X23122000Y-4354000D02*
G75*
G02*
X23222000Y-4454000I0J-100000D01*
G01*
X7258000Y-4454000D02*
G75*
G02*
X7358000Y-4354000I100000J0D01*
G01*
X21322000Y-4854000D02*
G75*
G02*
X20822000Y-5354000I-500000J0D01*
G01*
X13458000Y-6304000D02*
G75*
G02*
X12958000Y-5804000I0J500000D01*
G01*
X5097245Y-5846158D02*
X6801578Y-5697048D01*
X15032000Y-9658150D02*
G75*
G02*
X14873029Y-10199140I-1000000J0D01*
G01*
X11158000Y-5654000D02*
G75*
G02*
X11058000Y-5554000I0J100000D01*
G01*
X14932000Y-6304000D02*
G75*
G02*
X15032000Y-6404000I0J-100000D01*
G01*
X14112822Y-11380954D02*
X14112822Y-11380954D01*
X25393629Y-6869246D02*
X25473659Y-5954493D01*
X27319925Y-7633559D02*
G75*
G02*
X27403910Y-7747336I-14895J-98881D01*
G01*
X25382755Y-5846158D02*
X23678422Y-5697048D01*
X9158000Y-4454000D02*
X9158000Y-4854000D01*
X4008964Y-13269993D02*
X5656149Y-13021916D01*
X3160075Y-7633559D02*
X3160075Y-7633559D01*
X9058000Y-4354000D02*
G75*
G02*
X9158000Y-4454000I0J-100000D01*
G01*
X23122000Y-4354000D02*
X21422000Y-4354000D01*
X17522000Y-5804000D02*
G75*
G02*
X17022000Y-6304000I-500000J0D01*
G01*
X7258000Y-5198951D02*
G75*
G02*
X6801578Y-5697047I-500000J1D01*
G01*
X17022000Y-6304000D02*
X15548000Y-6304000D01*
X17522000Y-5754000D02*
X17522000Y-5804000D01*
X23222000Y-5198951D02*
X23222000Y-4454000D01*
X27403917Y-7747337D02*
X27403917Y-7747337D01*
X13489943Y-13689372D02*
G75*
G02*
X13375531Y-13772495I-98773J15653D01*
G01*
X4662738Y-7407248D02*
X4662738Y-7407248D01*
X21770233Y-13033514D02*
G75*
G02*
X24823851Y-13021916I1564347J-9876886D01*
G01*
X8709767Y-13033514D02*
X13375530Y-13772499D01*
X7258000Y-5198951D02*
X7258000Y-4454000D01*
X23678422Y-5697048D02*
G75*
G02*
X23222000Y-5198951I43578J498098D01*
G01*
X20822000Y-5354000D02*
X19522000Y-5354000D01*
X16367178Y-11380954D02*
G75*
G02*
X16807164Y-12534635I-2523088J-1622986D01*
G01*
X5006341Y-5954493D02*
G75*
G02*
X5097245Y-5846161I99619J8713D01*
G01*
X5086371Y-6869246D02*
X5006341Y-5954493D01*
X14873027Y-10199139D02*
X14112822Y-11380954D01*
X4008964Y-13269993D02*
G75*
G02*
X3895326Y-13186898I-14894J98883D01*
G01*
X15032000Y-6404000D02*
X15032000Y-9658150D01*
X15448000Y-6404000D02*
X15448000Y-9658150D01*
X10958000Y-5354000D02*
G75*
G02*
X11058000Y-5454000I0J-100000D01*
G01*
X3076083Y-7747337D02*
X3076083Y-7747337D01*
X13489943Y-13689372D02*
X13672835Y-12534635D01*
X19422000Y-5454000D02*
X19422000Y-5554000D01*
X26471036Y-13269993D02*
X24823851Y-13021916D01*
X17104470Y-13772499D02*
G75*
G02*
X16990050Y-13689374I-15650J98769D01*
G01*
X25817262Y-7407248D02*
G75*
G02*
X25393628Y-6869246I74468J494428D01*
G01*
X21322000Y-4454000D02*
G75*
G02*
X21422000Y-4354000I100000J0D01*
G01*
X26584682Y-13186900D02*
G75*
G02*
X26471037Y-13269985I-98753J15810D01*
G01*
X27403917Y-7747337D02*
X26584682Y-13186900D01*
X21322000Y-4454000D02*
X21322000Y-4854000D01*
X27319925Y-7633559D02*
X27319925Y-7633559D01*
X12858000Y-5654000D02*
G75*
G02*
X12958000Y-5754000I0J-100000D01*
G01*
X13672835Y-12534635D02*
G75*
G02*
X14112822Y-11380954I2963055J-469300D01*
G01*
X13458000Y-6304000D02*
X14932000Y-6304000D01*
X21770233Y-13033514D02*
X17104470Y-13772499D01*
X15448000Y-6404000D02*
G75*
G02*
X15548000Y-6304000I100000J0D01*
G01*
X11058000Y-5454000D02*
X11058000Y-5554000D01*
X16990057Y-13689372D02*
X16807165Y-12534635D01*
X27319925Y-7633559D02*
X25817262Y-7407248D01*
X3076083Y-7747337D02*
X3895317Y-13186900D01*
X19322000Y-5654000D02*
X17622000Y-5654000D01*
X12958000Y-5754000D02*
X12958000Y-5804000D01*
X19422000Y-5454000D02*
G75*
G02*
X19522000Y-5354000I100000J0D01*
G01*
X15606973Y-10199139D02*
G75*
G02*
X15447997Y-9658150I840997J540989D01*
G01*
X16367178Y-11380954D02*
X16367178Y-11380954D01*
X25382755Y-5846158D02*
G75*
G02*
X25473663Y-5954493I-8715J-99622D01*
G01*
X15606973Y-10199139D02*
X16367178Y-11380954D01*
X9658000Y-5354000D02*
X10958000Y-5354000D01*
X3076083Y-7747337D02*
G75*
G02*
X3160075Y-7633559I98885J14893D01*
G01*
X5086371Y-6869246D02*
G75*
G02*
X4662738Y-7407248I-498097J-43578D01*
G01*
X3160075Y-7633559D02*
X4662738Y-7407248D01*
X11158000Y-5654000D02*
X12858000Y-5654000D01*
D11*
X19842000Y-6404000D02*
X19842000Y-6204000D01*
X20852000Y-6154000D02*
X19892000Y-6154000D01*
X20852000Y-6454000D02*
X19892000Y-6454000D01*
X20902000Y-6204000D02*
X20902000Y-6404000D01*
X19842000Y-6204000D02*
G75*
G02*
X19892000Y-6154000I50000J0D01*
G01*
X19892000Y-6454000D02*
G75*
G02*
X19842000Y-6404000I0J50000D01*
G01*
X20852000Y-6154000D02*
G75*
G02*
X20902000Y-6204000I0J-50000D01*
G01*
X20902000Y-6404000D02*
G75*
G02*
X20852000Y-6454000I-50000J0D01*
G01*
X5507541Y-6864272D02*
X5490109Y-6665033D01*
X6491908Y-6527196D02*
X5535562Y-6610866D01*
X6518055Y-6826054D02*
X5561708Y-6909724D01*
X6546076Y-6572648D02*
X6563507Y-6771887D01*
X5490109Y-6665033D02*
G75*
G02*
X5535561Y-6610866I49810J4358D01*
G01*
X5561708Y-6909724D02*
G75*
G02*
X5507540Y-6864272I-4358J49810D01*
G01*
X6491908Y-6527196D02*
G75*
G02*
X6546076Y-6572648I4358J-49810D01*
G01*
X6563507Y-6771887D02*
G75*
G02*
X6518055Y-6826055I-49810J-4358D01*
G01*
X4201224Y-12381780D02*
X4171317Y-12184029D01*
X5162484Y-11983561D02*
X4213278Y-12127115D01*
X5207345Y-12280188D02*
X4258139Y-12423741D01*
X5219399Y-12025522D02*
X5249306Y-12223273D01*
X4171317Y-12184029D02*
G75*
G02*
X4213278Y-12127115I49438J7477D01*
G01*
X4258139Y-12423742D02*
G75*
G02*
X4201224Y-12381781I-7477J49438D01*
G01*
X5162484Y-11983561D02*
G75*
G02*
X5219399Y-12025522I7477J-49438D01*
G01*
X5249306Y-12223273D02*
G75*
G02*
X5207345Y-12280188I-49438J-7477D01*
G01*
X23750897Y-8664657D02*
X23768328Y-8465418D01*
X24778843Y-8503636D02*
X23822496Y-8419966D01*
X24752696Y-8802494D02*
X23796349Y-8718824D01*
X24824295Y-8557803D02*
X24806863Y-8757042D01*
X23768328Y-8465418D02*
G75*
G02*
X23822496Y-8419966I49810J-4358D01*
G01*
X23796349Y-8718825D02*
G75*
G02*
X23750897Y-8664657I4358J49810D01*
G01*
X24778843Y-8503636D02*
G75*
G02*
X24824295Y-8557803I-4358J-49810D01*
G01*
X24806863Y-8757042D02*
G75*
G02*
X24752696Y-8802494I-49810J4358D01*
G01*
X17942000Y-8604000D02*
X17942000Y-8404000D01*
X18952000Y-8354000D02*
X17992000Y-8354000D01*
X18952000Y-8654000D02*
X17992000Y-8654000D01*
X19002000Y-8404000D02*
X19002000Y-8604000D01*
X17942000Y-8404000D02*
G75*
G02*
X17992000Y-8354000I50000J0D01*
G01*
X17992000Y-8654000D02*
G75*
G02*
X17942000Y-8604000I0J50000D01*
G01*
X18952000Y-8354000D02*
G75*
G02*
X19002000Y-8404000I0J-50000D01*
G01*
X19002000Y-8604000D02*
G75*
G02*
X18952000Y-8654000I-50000J0D01*
G01*
X3917107Y-10503143D02*
X3887200Y-10305392D01*
X4878367Y-10104924D02*
X3929161Y-10248478D01*
X4923228Y-10401551D02*
X3974021Y-10545104D01*
X4935282Y-10146885D02*
X4965189Y-10344636D01*
X3887200Y-10305392D02*
G75*
G02*
X3929161Y-10248478I49438J7477D01*
G01*
X3974021Y-10545105D02*
G75*
G02*
X3917107Y-10503144I-7477J49438D01*
G01*
X4878367Y-10104924D02*
G75*
G02*
X4935282Y-10146885I7477J-49438D01*
G01*
X4965189Y-10344636D02*
G75*
G02*
X4923228Y-10401551I-49438J-7477D01*
G01*
X5838732Y-10649812D02*
X5821301Y-10450573D01*
X6823100Y-10312736D02*
X5866753Y-10396405D01*
X6849247Y-10611594D02*
X5892900Y-10695264D01*
X6877268Y-10358188D02*
X6894699Y-10557427D01*
X5821301Y-10450573D02*
G75*
G02*
X5866753Y-10396405I49810J4358D01*
G01*
X5892900Y-10695264D02*
G75*
G02*
X5838732Y-10649812I-4358J49810D01*
G01*
X6823100Y-10312736D02*
G75*
G02*
X6877268Y-10358188I4358J-49810D01*
G01*
X6894699Y-10557427D02*
G75*
G02*
X6849247Y-10611594I-49810J-4358D01*
G01*
X7678000Y-9204000D02*
X7678000Y-9004000D01*
X8688000Y-8954000D02*
X7728000Y-8954000D01*
X8688000Y-9254000D02*
X7728000Y-9254000D01*
X8738000Y-9004000D02*
X8738000Y-9204000D01*
X7678000Y-9004000D02*
G75*
G02*
X7728000Y-8954000I50000J0D01*
G01*
X7728000Y-9254000D02*
G75*
G02*
X7678000Y-9204000I0J50000D01*
G01*
X8688000Y-8954000D02*
G75*
G02*
X8738000Y-9004000I0J-50000D01*
G01*
X8738000Y-9204000D02*
G75*
G02*
X8688000Y-9254000I-50000J0D01*
G01*
X19842000Y-8304000D02*
X19842000Y-8104000D01*
X20852000Y-8054000D02*
X19892000Y-8054000D01*
X20852000Y-8354000D02*
X19892000Y-8354000D01*
X20902000Y-8104000D02*
X20902000Y-8304000D01*
X19842000Y-8104000D02*
G75*
G02*
X19892000Y-8054000I50000J0D01*
G01*
X19892000Y-8354000D02*
G75*
G02*
X19842000Y-8304000I0J50000D01*
G01*
X20852000Y-8054000D02*
G75*
G02*
X20902000Y-8104000I0J-50000D01*
G01*
X20902000Y-8304000D02*
G75*
G02*
X20852000Y-8354000I-50000J0D01*
G01*
X7678000Y-7304000D02*
X7678000Y-7104000D01*
X8688000Y-7054000D02*
X7728000Y-7054000D01*
X8688000Y-7354000D02*
X7728000Y-7354000D01*
X8738000Y-7104000D02*
X8738000Y-7304000D01*
X7678000Y-7104000D02*
G75*
G02*
X7728000Y-7054000I50000J0D01*
G01*
X7728000Y-7354000D02*
G75*
G02*
X7678000Y-7304000I0J50000D01*
G01*
X8688000Y-7054000D02*
G75*
G02*
X8738000Y-7104000I0J-50000D01*
G01*
X8738000Y-7304000D02*
G75*
G02*
X8688000Y-7354000I-50000J0D01*
G01*
X25798929Y-8465999D02*
X25828836Y-8268247D01*
X26834956Y-8369840D02*
X25885750Y-8226286D01*
X26790096Y-8666467D02*
X25840890Y-8522913D01*
X26876917Y-8426755D02*
X26847010Y-8624506D01*
X25828836Y-8268247D02*
G75*
G02*
X25885750Y-8226286I49438J-7477D01*
G01*
X25840889Y-8522914D02*
G75*
G02*
X25798928Y-8465999I7477J49438D01*
G01*
X26834956Y-8369840D02*
G75*
G02*
X26876917Y-8426755I-7477J-49438D01*
G01*
X26847010Y-8624506D02*
G75*
G02*
X26790096Y-8666467I-49438J7477D01*
G01*
X11478000Y-10504000D02*
X11478000Y-10304000D01*
X12488000Y-10254000D02*
X11528000Y-10254000D01*
X12488000Y-10554000D02*
X11528000Y-10554000D01*
X12538000Y-10304000D02*
X12538000Y-10504000D01*
X11478000Y-10304000D02*
G75*
G02*
X11528000Y-10254000I50000J0D01*
G01*
X11528000Y-10554000D02*
G75*
G02*
X11478000Y-10504000I0J50000D01*
G01*
X12488000Y-10254000D02*
G75*
G02*
X12538000Y-10304000I0J-50000D01*
G01*
X12538000Y-10504000D02*
G75*
G02*
X12488000Y-10554000I-50000J0D01*
G01*
X11478000Y-6704000D02*
X11478000Y-6504000D01*
X12488000Y-6454000D02*
X11528000Y-6454000D01*
X12488000Y-6754000D02*
X11528000Y-6754000D01*
X12538000Y-6504000D02*
X12538000Y-6704000D01*
X11478000Y-6504000D02*
G75*
G02*
X11528000Y-6454000I50000J0D01*
G01*
X11528000Y-6754000D02*
G75*
G02*
X11478000Y-6704000I0J50000D01*
G01*
X12488000Y-6454000D02*
G75*
G02*
X12538000Y-6504000I0J-50000D01*
G01*
X12538000Y-6704000D02*
G75*
G02*
X12488000Y-6754000I-50000J0D01*
G01*
X21742000Y-7304000D02*
X21742000Y-7104000D01*
X22752000Y-7054000D02*
X21792000Y-7054000D01*
X22752000Y-7354000D02*
X21792000Y-7354000D01*
X22802000Y-7104000D02*
X22802000Y-7304000D01*
X21742000Y-7104000D02*
G75*
G02*
X21792000Y-7054000I50000J0D01*
G01*
X21792000Y-7354000D02*
G75*
G02*
X21742000Y-7304000I0J50000D01*
G01*
X22752000Y-7054000D02*
G75*
G02*
X22802000Y-7104000I0J-50000D01*
G01*
X22802000Y-7304000D02*
G75*
G02*
X22752000Y-7354000I-50000J0D01*
G01*
X9578000Y-10204000D02*
X9578000Y-10004000D01*
X10588000Y-9954000D02*
X9628000Y-9954000D01*
X10588000Y-10254000D02*
X9628000Y-10254000D01*
X10638000Y-10004000D02*
X10638000Y-10204000D01*
X9578000Y-10004000D02*
G75*
G02*
X9628000Y-9954000I50000J0D01*
G01*
X9628000Y-10254000D02*
G75*
G02*
X9578000Y-10204000I0J50000D01*
G01*
X10588000Y-9954000D02*
G75*
G02*
X10638000Y-10004000I0J-50000D01*
G01*
X10638000Y-10204000D02*
G75*
G02*
X10588000Y-10254000I-50000J0D01*
G01*
X11478000Y-8604000D02*
X11478000Y-8404000D01*
X12488000Y-8354000D02*
X11528000Y-8354000D01*
X12488000Y-8654000D02*
X11528000Y-8654000D01*
X12538000Y-8404000D02*
X12538000Y-8604000D01*
X11478000Y-8404000D02*
G75*
G02*
X11528000Y-8354000I50000J0D01*
G01*
X11528000Y-8654000D02*
G75*
G02*
X11478000Y-8604000I0J50000D01*
G01*
X12488000Y-8354000D02*
G75*
G02*
X12538000Y-8404000I0J-50000D01*
G01*
X12538000Y-8604000D02*
G75*
G02*
X12488000Y-8654000I-50000J0D01*
G01*
X3632990Y-8624506D02*
X3603083Y-8426755D01*
X4594250Y-8226286D02*
X3645044Y-8369840D01*
X4639110Y-8522913D02*
X3689904Y-8666467D01*
X4651164Y-8268247D02*
X4681071Y-8465999D01*
X3603083Y-8426755D02*
G75*
G02*
X3645044Y-8369840I49438J7477D01*
G01*
X3689904Y-8666467D02*
G75*
G02*
X3632990Y-8624506I-7477J49438D01*
G01*
X4594250Y-8226286D02*
G75*
G02*
X4651164Y-8268247I7477J-49438D01*
G01*
X4681071Y-8465999D02*
G75*
G02*
X4639110Y-8522913I-49438J-7477D01*
G01*
X5673136Y-8757042D02*
X5655705Y-8557803D01*
X6657504Y-8419966D02*
X5701157Y-8503636D01*
X6683651Y-8718824D02*
X5727304Y-8802494D01*
X6711672Y-8465418D02*
X6729103Y-8664657D01*
X5655705Y-8557803D02*
G75*
G02*
X5701157Y-8503636I49810J4358D01*
G01*
X5727304Y-8802494D02*
G75*
G02*
X5673136Y-8757042I-4358J49810D01*
G01*
X6657504Y-8419966D02*
G75*
G02*
X6711672Y-8465418I4358J-49810D01*
G01*
X6729103Y-8664657D02*
G75*
G02*
X6683651Y-8718825I-49810J-4358D01*
G01*
X12145489Y-12717084D02*
X12176776Y-12519546D01*
X13182163Y-12628161D02*
X12233983Y-12477984D01*
X13135233Y-12924467D02*
X12187052Y-12774290D01*
X13223726Y-12685367D02*
X13192439Y-12882905D01*
X12176776Y-12519546D02*
G75*
G02*
X12233983Y-12477984I49385J-7822D01*
G01*
X12187052Y-12774290D02*
G75*
G02*
X12145489Y-12717084I7822J49385D01*
G01*
X13182163Y-12628161D02*
G75*
G02*
X13223726Y-12685367I-7822J-49384D01*
G01*
X13192439Y-12882905D02*
G75*
G02*
X13135233Y-12924467I-49384J7822D01*
G01*
X25514811Y-10344636D02*
X25544718Y-10146885D01*
X26550839Y-10248478D02*
X25601633Y-10104924D01*
X26505979Y-10545104D02*
X25556772Y-10401550D01*
X26592800Y-10305392D02*
X26562893Y-10503143D01*
X25544718Y-10146885D02*
G75*
G02*
X25601633Y-10104924I49438J-7477D01*
G01*
X25556772Y-10401551D02*
G75*
G02*
X25514811Y-10344636I7477J49438D01*
G01*
X26550839Y-10248478D02*
G75*
G02*
X26592800Y-10305392I-7477J-49438D01*
G01*
X26562893Y-10503143D02*
G75*
G02*
X26505979Y-10545104I-49438J7477D01*
G01*
X19842000Y-10204000D02*
X19842000Y-10004000D01*
X20852000Y-9954000D02*
X19892000Y-9954000D01*
X20852000Y-10254000D02*
X19892000Y-10254000D01*
X20902000Y-10004000D02*
X20902000Y-10204000D01*
X19842000Y-10004000D02*
G75*
G02*
X19892000Y-9954000I50000J0D01*
G01*
X19892000Y-10254000D02*
G75*
G02*
X19842000Y-10204000I0J50000D01*
G01*
X20852000Y-9954000D02*
G75*
G02*
X20902000Y-10004000I0J-50000D01*
G01*
X20902000Y-10204000D02*
G75*
G02*
X20852000Y-10254000I-50000J0D01*
G01*
X10268882Y-12419859D02*
X10300169Y-12222321D01*
X11305556Y-12330935D02*
X10357375Y-12180758D01*
X11258625Y-12627242D02*
X10310444Y-12477065D01*
X11347118Y-12388141D02*
X11315831Y-12585679D01*
X10300169Y-12222321D02*
G75*
G02*
X10357375Y-12180758I49385J-7822D01*
G01*
X10310444Y-12477065D02*
G75*
G02*
X10268882Y-12419859I7822J49385D01*
G01*
X11305556Y-12330935D02*
G75*
G02*
X11347118Y-12388141I-7822J-49384D01*
G01*
X11315831Y-12585679D02*
G75*
G02*
X11258625Y-12627242I-49384J7822D01*
G01*
X21742000Y-5404000D02*
X21742000Y-5204000D01*
X22752000Y-5154000D02*
X21792000Y-5154000D01*
X22752000Y-5454000D02*
X21792000Y-5454000D01*
X22802000Y-5204000D02*
X22802000Y-5404000D01*
X21742000Y-5204000D02*
G75*
G02*
X21792000Y-5154000I50000J0D01*
G01*
X21792000Y-5454000D02*
G75*
G02*
X21742000Y-5404000I0J50000D01*
G01*
X22752000Y-5154000D02*
G75*
G02*
X22802000Y-5204000I0J-50000D01*
G01*
X22802000Y-5404000D02*
G75*
G02*
X22752000Y-5454000I-50000J0D01*
G01*
X19164169Y-12585679D02*
X19132882Y-12388141D01*
X20122625Y-12180758D02*
X19174445Y-12330935D01*
X20169556Y-12477065D02*
X19221375Y-12627242D01*
X20179831Y-12222321D02*
X20211118Y-12419859D01*
X19132882Y-12388141D02*
G75*
G02*
X19174444Y-12330935I49385J7822D01*
G01*
X19221375Y-12627242D02*
G75*
G02*
X19164169Y-12585679I-7822J49385D01*
G01*
X20122625Y-12180758D02*
G75*
G02*
X20179831Y-12222321I7822J-49384D01*
G01*
X20211118Y-12419859D02*
G75*
G02*
X20169556Y-12477065I-49385J-7822D01*
G01*
X7678000Y-5404000D02*
X7678000Y-5204000D01*
X8688000Y-5154000D02*
X7728000Y-5154000D01*
X8688000Y-5454000D02*
X7728000Y-5454000D01*
X8738000Y-5204000D02*
X8738000Y-5404000D01*
X7678000Y-5204000D02*
G75*
G02*
X7728000Y-5154000I50000J0D01*
G01*
X7728000Y-5454000D02*
G75*
G02*
X7678000Y-5404000I0J50000D01*
G01*
X8688000Y-5154000D02*
G75*
G02*
X8738000Y-5204000I0J-50000D01*
G01*
X8738000Y-5404000D02*
G75*
G02*
X8688000Y-5454000I-50000J0D01*
G01*
X23585301Y-10557427D02*
X23602732Y-10358188D01*
X24613247Y-10396406D02*
X23656900Y-10312736D01*
X24587100Y-10695264D02*
X23630753Y-10611594D01*
X24658699Y-10450573D02*
X24641268Y-10649812D01*
X23602732Y-10358188D02*
G75*
G02*
X23656900Y-10312736I49810J-4358D01*
G01*
X23630753Y-10611594D02*
G75*
G02*
X23585301Y-10557427I4358J49810D01*
G01*
X24613247Y-10396406D02*
G75*
G02*
X24658699Y-10450573I-4358J-49810D01*
G01*
X24641268Y-10649812D02*
G75*
G02*
X24587100Y-10695264I-49810J4358D01*
G01*
X17942000Y-10504000D02*
X17942000Y-10304000D01*
X18952000Y-10254000D02*
X17992000Y-10254000D01*
X18952000Y-10554000D02*
X17992000Y-10554000D01*
X19002000Y-10304000D02*
X19002000Y-10504000D01*
X17942000Y-10304000D02*
G75*
G02*
X17992000Y-10254000I50000J0D01*
G01*
X17992000Y-10554000D02*
G75*
G02*
X17942000Y-10504000I0J50000D01*
G01*
X18952000Y-10254000D02*
G75*
G02*
X19002000Y-10304000I0J-50000D01*
G01*
X19002000Y-10504000D02*
G75*
G02*
X18952000Y-10554000I-50000J0D01*
G01*
X9578000Y-8304000D02*
X9578000Y-8104000D01*
X10588000Y-8054000D02*
X9628000Y-8054000D01*
X10588000Y-8354000D02*
X9628000Y-8354000D01*
X10638000Y-8104000D02*
X10638000Y-8304000D01*
X9578000Y-8104000D02*
G75*
G02*
X9628000Y-8054000I50000J0D01*
G01*
X9628000Y-8354000D02*
G75*
G02*
X9578000Y-8304000I0J50000D01*
G01*
X10588000Y-8054000D02*
G75*
G02*
X10638000Y-8104000I0J-50000D01*
G01*
X10638000Y-8304000D02*
G75*
G02*
X10588000Y-8354000I-50000J0D01*
G01*
X17287561Y-12882905D02*
X17256274Y-12685367D01*
X18246017Y-12477984D02*
X17297837Y-12628161D01*
X18292948Y-12774290D02*
X17344767Y-12924467D01*
X18303224Y-12519546D02*
X18334511Y-12717084D01*
X17256274Y-12685367D02*
G75*
G02*
X17297837Y-12628161I49385J7822D01*
G01*
X17344767Y-12924467D02*
G75*
G02*
X17287561Y-12882905I-7822J49385D01*
G01*
X18246017Y-12477984D02*
G75*
G02*
X18303224Y-12519546I7822J-49384D01*
G01*
X18334511Y-12717084D02*
G75*
G02*
X18292948Y-12774290I-49385J-7822D01*
G01*
X17942000Y-6704000D02*
X17942000Y-6504000D01*
X18952000Y-6454000D02*
X17992000Y-6454000D01*
X18952000Y-6754000D02*
X17992000Y-6754000D01*
X19002000Y-6504000D02*
X19002000Y-6704000D01*
X17942000Y-6504000D02*
G75*
G02*
X17992000Y-6454000I50000J0D01*
G01*
X17992000Y-6754000D02*
G75*
G02*
X17942000Y-6704000I0J50000D01*
G01*
X18952000Y-6454000D02*
G75*
G02*
X19002000Y-6504000I0J-50000D01*
G01*
X19002000Y-6704000D02*
G75*
G02*
X18952000Y-6754000I-50000J0D01*
G01*
X25230694Y-12223273D02*
X25260601Y-12025522D01*
X26266722Y-12127115D02*
X25317516Y-11983561D01*
X26221861Y-12423741D02*
X25272655Y-12280187D01*
X26308683Y-12184029D02*
X26278776Y-12381780D01*
X25260601Y-12025522D02*
G75*
G02*
X25317516Y-11983561I49438J-7477D01*
G01*
X25272655Y-12280188D02*
G75*
G02*
X25230694Y-12223273I7477J49438D01*
G01*
X26266722Y-12127115D02*
G75*
G02*
X26308683Y-12184029I-7477J-49438D01*
G01*
X26278776Y-12381780D02*
G75*
G02*
X26221861Y-12423741I-49438J7477D01*
G01*
X21742000Y-9204000D02*
X21742000Y-9004000D01*
X22752000Y-8954000D02*
X21792000Y-8954000D01*
X22752000Y-9254000D02*
X21792000Y-9254000D01*
X22802000Y-9004000D02*
X22802000Y-9204000D01*
X21742000Y-9004000D02*
G75*
G02*
X21792000Y-8954000I50000J0D01*
G01*
X21792000Y-9254000D02*
G75*
G02*
X21742000Y-9204000I0J50000D01*
G01*
X22752000Y-8954000D02*
G75*
G02*
X22802000Y-9004000I0J-50000D01*
G01*
X22802000Y-9204000D02*
G75*
G02*
X22752000Y-9254000I-50000J0D01*
G01*
X23916493Y-6771887D02*
X23933924Y-6572648D01*
X24944439Y-6610866D02*
X23988092Y-6527196D01*
X24918292Y-6909724D02*
X23961945Y-6826054D01*
X24989891Y-6665033D02*
X24972459Y-6864272D01*
X23933924Y-6572648D02*
G75*
G02*
X23988092Y-6527196I49810J-4358D01*
G01*
X23961945Y-6826055D02*
G75*
G02*
X23916493Y-6771887I4358J49810D01*
G01*
X24944439Y-6610866D02*
G75*
G02*
X24989890Y-6665033I-4358J-49810D01*
G01*
X24972459Y-6864272D02*
G75*
G02*
X24918292Y-6909724I-49810J4358D01*
G01*
X9578000Y-6404000D02*
X9578000Y-6204000D01*
X10588000Y-6154000D02*
X9628000Y-6154000D01*
X10588000Y-6454000D02*
X9628000Y-6454000D01*
X10638000Y-6204000D02*
X10638000Y-6404000D01*
X9578000Y-6204000D02*
G75*
G02*
X9628000Y-6154000I50000J0D01*
G01*
X9628000Y-6454000D02*
G75*
G02*
X9578000Y-6404000I0J50000D01*
G01*
X10588000Y-6154000D02*
G75*
G02*
X10638000Y-6204000I0J-50000D01*
G01*
X10638000Y-6404000D02*
G75*
G02*
X10588000Y-6454000I-50000J0D01*
G01*
D12*
D13*
X13775000Y-6559000D02*
X13865000Y-6649000D01*
X13865000Y-6559000D02*
X13775000Y-6649000D01*
X14075000Y-6559000D02*
X14165000Y-6649000D01*
X14165000Y-6559000D02*
X14075000Y-6649000D01*
X16315500Y-6559500D02*
X16405500Y-6649500D01*
X16405500Y-6559500D02*
X16315500Y-6649500D01*
X16615500Y-6559500D02*
X16705500Y-6649500D01*
X16705500Y-6559500D02*
X16615500Y-6649500D01*
D14*
X3843469Y-8869620D02*
G75*
G02*
X3658469Y-8869620I-92500J0D01*
G01*
X3658469Y-8869620D02*
G75*
G02*
X3843469Y-8869620I92500J0D01*
G01*
X4127587Y-10748257D02*
G75*
G02*
X3942587Y-10748257I-92500J0D01*
G01*
X3942587Y-10748257D02*
G75*
G02*
X4127587Y-10748257I92500J0D01*
G01*
X4411704Y-12626894D02*
G75*
G02*
X4226704Y-12626894I-92500J0D01*
G01*
X4226704Y-12626894D02*
G75*
G02*
X4411704Y-12626894I92500J0D01*
G01*
X4625685Y-8023134D02*
G75*
G02*
X4440685Y-8023134I-92500J0D01*
G01*
X4440685Y-8023134D02*
G75*
G02*
X4625685Y-8023134I92500J0D01*
G01*
X4909802Y-9901771D02*
G75*
G02*
X4724802Y-9901771I-92500J0D01*
G01*
X4724802Y-9901771D02*
G75*
G02*
X4909802Y-9901771I92500J0D01*
G01*
X5193919Y-11780408D02*
G75*
G02*
X5008919Y-11780408I-92500J0D01*
G01*
X5008919Y-11780408D02*
G75*
G02*
X5193919Y-11780408I92500J0D01*
G01*
X5702397Y-7116310D02*
G75*
G02*
X5517397Y-7116310I-92500J0D01*
G01*
X5517397Y-7116310D02*
G75*
G02*
X5702397Y-7116310I92500J0D01*
G01*
X5867993Y-9009080D02*
G75*
G02*
X5682993Y-9009080I-92500J0D01*
G01*
X5682993Y-9009080D02*
G75*
G02*
X5867993Y-9009080I92500J0D01*
G01*
X6033588Y-10901850D02*
G75*
G02*
X5848588Y-10901850I-92500J0D01*
G01*
X5848588Y-10901850D02*
G75*
G02*
X6033588Y-10901850I92500J0D01*
G01*
X6536220Y-6320610D02*
G75*
G02*
X6351220Y-6320610I-92500J0D01*
G01*
X6351220Y-6320610D02*
G75*
G02*
X6536220Y-6320610I92500J0D01*
G01*
X6701816Y-8213380D02*
G75*
G02*
X6516816Y-8213380I-92500J0D01*
G01*
X6516816Y-8213380D02*
G75*
G02*
X6701816Y-8213380I92500J0D01*
G01*
X6867411Y-10106150D02*
G75*
G02*
X6682411Y-10106150I-92500J0D01*
G01*
X6682411Y-10106150D02*
G75*
G02*
X6867411Y-10106150I92500J0D01*
G01*
X7850500Y-5664000D02*
G75*
G02*
X7665500Y-5664000I-92500J0D01*
G01*
X7665500Y-5664000D02*
G75*
G02*
X7850500Y-5664000I92500J0D01*
G01*
X7850500Y-7564000D02*
G75*
G02*
X7665500Y-7564000I-92500J0D01*
G01*
X7665500Y-7564000D02*
G75*
G02*
X7850500Y-7564000I92500J0D01*
G01*
X7850500Y-9464000D02*
G75*
G02*
X7665500Y-9464000I-92500J0D01*
G01*
X7665500Y-9464000D02*
G75*
G02*
X7850500Y-9464000I92500J0D01*
G01*
X8750500Y-4944000D02*
G75*
G02*
X8565500Y-4944000I-92500J0D01*
G01*
X8565500Y-4944000D02*
G75*
G02*
X8750500Y-4944000I92500J0D01*
G01*
X8750500Y-6844000D02*
G75*
G02*
X8565500Y-6844000I-92500J0D01*
G01*
X8565500Y-6844000D02*
G75*
G02*
X8750500Y-6844000I92500J0D01*
G01*
X8750500Y-8744000D02*
G75*
G02*
X8565500Y-8744000I-92500J0D01*
G01*
X8565500Y-8744000D02*
G75*
G02*
X8750500Y-8744000I92500J0D01*
G01*
X9750500Y-6664000D02*
G75*
G02*
X9565500Y-6664000I-92500J0D01*
G01*
X9565500Y-6664000D02*
G75*
G02*
X9750500Y-6664000I92500J0D01*
G01*
X9750500Y-8564000D02*
G75*
G02*
X9565500Y-8564000I-92500J0D01*
G01*
X9565500Y-8564000D02*
G75*
G02*
X9750500Y-8564000I92500J0D01*
G01*
X9750500Y-10464000D02*
G75*
G02*
X9565500Y-10464000I-92500J0D01*
G01*
X9565500Y-10464000D02*
G75*
G02*
X9750500Y-10464000I92500J0D01*
G01*
X10399724Y-12689172D02*
G75*
G02*
X10214724Y-12689172I-92500J0D01*
G01*
X10214724Y-12689172D02*
G75*
G02*
X10399724Y-12689172I92500J0D01*
G01*
X10650500Y-5944000D02*
G75*
G02*
X10465500Y-5944000I-92500J0D01*
G01*
X10465500Y-5944000D02*
G75*
G02*
X10650500Y-5944000I92500J0D01*
G01*
X10650500Y-7844000D02*
G75*
G02*
X10465500Y-7844000I-92500J0D01*
G01*
X10465500Y-7844000D02*
G75*
G02*
X10650500Y-7844000I92500J0D01*
G01*
X10650500Y-9744000D02*
G75*
G02*
X10465500Y-9744000I-92500J0D01*
G01*
X10465500Y-9744000D02*
G75*
G02*
X10650500Y-9744000I92500J0D01*
G01*
X11401276Y-12118828D02*
G75*
G02*
X11216276Y-12118828I-92500J0D01*
G01*
X11216276Y-12118828D02*
G75*
G02*
X11401276Y-12118828I92500J0D01*
G01*
X11650500Y-6964000D02*
G75*
G02*
X11465500Y-6964000I-92500J0D01*
G01*
X11465500Y-6964000D02*
G75*
G02*
X11650500Y-6964000I92500J0D01*
G01*
X11650500Y-8864000D02*
G75*
G02*
X11465500Y-8864000I-92500J0D01*
G01*
X11465500Y-8864000D02*
G75*
G02*
X11650500Y-8864000I92500J0D01*
G01*
X11650500Y-10764000D02*
G75*
G02*
X11465500Y-10764000I-92500J0D01*
G01*
X11465500Y-10764000D02*
G75*
G02*
X11650500Y-10764000I92500J0D01*
G01*
X12276332Y-12986398D02*
G75*
G02*
X12091332Y-12986398I-92500J0D01*
G01*
X12091332Y-12986398D02*
G75*
G02*
X12276332Y-12986398I92500J0D01*
G01*
X12550500Y-6244000D02*
G75*
G02*
X12365500Y-6244000I-92500J0D01*
G01*
X12365500Y-6244000D02*
G75*
G02*
X12550500Y-6244000I92500J0D01*
G01*
X12550500Y-8144000D02*
G75*
G02*
X12365500Y-8144000I-92500J0D01*
G01*
X12365500Y-8144000D02*
G75*
G02*
X12550500Y-8144000I92500J0D01*
G01*
X12550500Y-10044000D02*
G75*
G02*
X12365500Y-10044000I-92500J0D01*
G01*
X12365500Y-10044000D02*
G75*
G02*
X12550500Y-10044000I92500J0D01*
G01*
X13277884Y-12416053D02*
G75*
G02*
X13092884Y-12416053I-92500J0D01*
G01*
X13092884Y-12416053D02*
G75*
G02*
X13277884Y-12416053I92500J0D01*
G01*
X17499749Y-13127189D02*
G75*
G02*
X17314749Y-13127189I-92500J0D01*
G01*
X17314749Y-13127189D02*
G75*
G02*
X17499749Y-13127189I92500J0D01*
G01*
X18114500Y-6964000D02*
G75*
G02*
X17929500Y-6964000I-92500J0D01*
G01*
X17929500Y-6964000D02*
G75*
G02*
X18114500Y-6964000I92500J0D01*
G01*
X18114500Y-8864000D02*
G75*
G02*
X17929500Y-8864000I-92500J0D01*
G01*
X17929500Y-8864000D02*
G75*
G02*
X18114500Y-8864000I92500J0D01*
G01*
X18114500Y-10764000D02*
G75*
G02*
X17929500Y-10764000I-92500J0D01*
G01*
X17929500Y-10764000D02*
G75*
G02*
X18114500Y-10764000I92500J0D01*
G01*
X18276036Y-12275262D02*
G75*
G02*
X18091036Y-12275262I-92500J0D01*
G01*
X18091036Y-12275262D02*
G75*
G02*
X18276036Y-12275262I92500J0D01*
G01*
X19014500Y-6244000D02*
G75*
G02*
X18829500Y-6244000I-92500J0D01*
G01*
X18829500Y-6244000D02*
G75*
G02*
X19014500Y-6244000I92500J0D01*
G01*
X19014500Y-8144000D02*
G75*
G02*
X18829500Y-8144000I-92500J0D01*
G01*
X18829500Y-8144000D02*
G75*
G02*
X19014500Y-8144000I92500J0D01*
G01*
X19014500Y-10044000D02*
G75*
G02*
X18829500Y-10044000I-92500J0D01*
G01*
X18829500Y-10044000D02*
G75*
G02*
X19014500Y-10044000I92500J0D01*
G01*
X19376357Y-12829963D02*
G75*
G02*
X19191357Y-12829963I-92500J0D01*
G01*
X19191357Y-12829963D02*
G75*
G02*
X19376357Y-12829963I92500J0D01*
G01*
X20014500Y-6664000D02*
G75*
G02*
X19829500Y-6664000I-92500J0D01*
G01*
X19829500Y-6664000D02*
G75*
G02*
X20014500Y-6664000I92500J0D01*
G01*
X20014500Y-8564000D02*
G75*
G02*
X19829500Y-8564000I-92500J0D01*
G01*
X19829500Y-8564000D02*
G75*
G02*
X20014500Y-8564000I92500J0D01*
G01*
X20014500Y-10464000D02*
G75*
G02*
X19829500Y-10464000I-92500J0D01*
G01*
X19829500Y-10464000D02*
G75*
G02*
X20014500Y-10464000I92500J0D01*
G01*
X20152643Y-11978037D02*
G75*
G02*
X19967643Y-11978037I-92500J0D01*
G01*
X19967643Y-11978037D02*
G75*
G02*
X20152643Y-11978037I92500J0D01*
G01*
X20914500Y-5944000D02*
G75*
G02*
X20729500Y-5944000I-92500J0D01*
G01*
X20729500Y-5944000D02*
G75*
G02*
X20914500Y-5944000I92500J0D01*
G01*
X20914500Y-7844000D02*
G75*
G02*
X20729500Y-7844000I-92500J0D01*
G01*
X20729500Y-7844000D02*
G75*
G02*
X20914500Y-7844000I92500J0D01*
G01*
X20914500Y-9744000D02*
G75*
G02*
X20729500Y-9744000I-92500J0D01*
G01*
X20729500Y-9744000D02*
G75*
G02*
X20914500Y-9744000I92500J0D01*
G01*
X21914500Y-5664000D02*
G75*
G02*
X21729500Y-5664000I-92500J0D01*
G01*
X21729500Y-5664000D02*
G75*
G02*
X21914500Y-5664000I92500J0D01*
G01*
X21914500Y-7564000D02*
G75*
G02*
X21729500Y-7564000I-92500J0D01*
G01*
X21729500Y-7564000D02*
G75*
G02*
X21914500Y-7564000I92500J0D01*
G01*
X21914500Y-9464000D02*
G75*
G02*
X21729500Y-9464000I-92500J0D01*
G01*
X21729500Y-9464000D02*
G75*
G02*
X21914500Y-9464000I92500J0D01*
G01*
X22814500Y-4944000D02*
G75*
G02*
X22629500Y-4944000I-92500J0D01*
G01*
X22629500Y-4944000D02*
G75*
G02*
X22814500Y-4944000I92500J0D01*
G01*
X22814500Y-6844000D02*
G75*
G02*
X22629500Y-6844000I-92500J0D01*
G01*
X22629500Y-6844000D02*
G75*
G02*
X22814500Y-6844000I92500J0D01*
G01*
X22814500Y-8744000D02*
G75*
G02*
X22629500Y-8744000I-92500J0D01*
G01*
X22629500Y-8744000D02*
G75*
G02*
X22814500Y-8744000I92500J0D01*
G01*
X23734836Y-10823410D02*
G75*
G02*
X23549836Y-10823410I-92500J0D01*
G01*
X23549836Y-10823410D02*
G75*
G02*
X23734836Y-10823410I92500J0D01*
G01*
X23900432Y-8930640D02*
G75*
G02*
X23715432Y-8930640I-92500J0D01*
G01*
X23715432Y-8930640D02*
G75*
G02*
X23900432Y-8930640I92500J0D01*
G01*
X24066028Y-7037870D02*
G75*
G02*
X23881028Y-7037870I-92500J0D01*
G01*
X23881028Y-7037870D02*
G75*
G02*
X24066028Y-7037870I92500J0D01*
G01*
X24694164Y-10184590D02*
G75*
G02*
X24509164Y-10184590I-92500J0D01*
G01*
X24509164Y-10184590D02*
G75*
G02*
X24694164Y-10184590I92500J0D01*
G01*
X24859760Y-8291820D02*
G75*
G02*
X24674760Y-8291820I-92500J0D01*
G01*
X24674760Y-8291820D02*
G75*
G02*
X24859760Y-8291820I92500J0D01*
G01*
X25025355Y-6399050D02*
G75*
G02*
X24840355Y-6399050I-92500J0D01*
G01*
X24840355Y-6399050D02*
G75*
G02*
X25025355Y-6399050I92500J0D01*
G01*
X25363415Y-12492312D02*
G75*
G02*
X25178415Y-12492312I-92500J0D01*
G01*
X25178415Y-12492312D02*
G75*
G02*
X25363415Y-12492312I92500J0D01*
G01*
X25647533Y-10613675D02*
G75*
G02*
X25462533Y-10613675I-92500J0D01*
G01*
X25462533Y-10613675D02*
G75*
G02*
X25647533Y-10613675I92500J0D01*
G01*
X25931650Y-8735038D02*
G75*
G02*
X25746650Y-8735038I-92500J0D01*
G01*
X25746650Y-8735038D02*
G75*
G02*
X25931650Y-8735038I92500J0D01*
G01*
X26360962Y-11914990D02*
G75*
G02*
X26175962Y-11914990I-92500J0D01*
G01*
X26175962Y-11914990D02*
G75*
G02*
X26360962Y-11914990I92500J0D01*
G01*
X26645079Y-10036353D02*
G75*
G02*
X26460079Y-10036353I-92500J0D01*
G01*
X26460079Y-10036353D02*
G75*
G02*
X26645079Y-10036353I92500J0D01*
G01*
X26929196Y-8157715D02*
G75*
G02*
X26744196Y-8157715I-92500J0D01*
G01*
X26744196Y-8157715D02*
G75*
G02*
X26929196Y-8157715I92500J0D01*
G01*
D15*
X4142077Y-8201377D02*
X4142077Y-8691377D01*
X3897077Y-8446377D02*
X4387077Y-8446377D01*
X4426194Y-10080014D02*
X4426194Y-10570014D01*
X4181194Y-10325014D02*
X4671194Y-10325014D01*
X4710311Y-11958651D02*
X4710311Y-12448651D01*
X4465311Y-12203651D02*
X4955311Y-12203651D01*
X6026808Y-6473460D02*
X6026808Y-6963460D01*
X5781808Y-6718460D02*
X6271808Y-6718460D01*
X6192404Y-8366230D02*
X6192404Y-8856230D01*
X5947404Y-8611230D02*
X6437404Y-8611230D01*
X6358000Y-10259000D02*
X6358000Y-10749000D01*
X6113000Y-10504000D02*
X6603000Y-10504000D01*
X8208000Y-5059000D02*
X8208000Y-5549000D01*
X7963000Y-5304000D02*
X8453000Y-5304000D01*
X8208000Y-6959000D02*
X8208000Y-7449000D01*
X7963000Y-7204000D02*
X8453000Y-7204000D01*
X8208000Y-8859000D02*
X8208000Y-9349000D01*
X7963000Y-9104000D02*
X8453000Y-9104000D01*
X10108000Y-6059000D02*
X10108000Y-6549000D01*
X9863000Y-6304000D02*
X10353000Y-6304000D01*
X10108000Y-7959000D02*
X10108000Y-8449000D01*
X9863000Y-8204000D02*
X10353000Y-8204000D01*
X10108000Y-9859000D02*
X10108000Y-10349000D01*
X9863000Y-10104000D02*
X10353000Y-10104000D01*
X10808000Y-12159000D02*
X10808000Y-12649000D01*
X10563000Y-12404000D02*
X11053000Y-12404000D01*
X12008000Y-6359000D02*
X12008000Y-6849000D01*
X11763000Y-6604000D02*
X12253000Y-6604000D01*
X12008000Y-8259000D02*
X12008000Y-8749000D01*
X11763000Y-8504000D02*
X12253000Y-8504000D01*
X12008000Y-10159000D02*
X12008000Y-10649000D01*
X11763000Y-10404000D02*
X12253000Y-10404000D01*
X12684608Y-12456225D02*
X12684608Y-12946225D01*
X12439608Y-12701225D02*
X12929608Y-12701225D01*
X17795392Y-12456225D02*
X17795392Y-12946225D01*
X17550392Y-12701225D02*
X18040392Y-12701225D01*
X18472000Y-6359000D02*
X18472000Y-6849000D01*
X18227000Y-6604000D02*
X18717000Y-6604000D01*
X18472000Y-8259000D02*
X18472000Y-8749000D01*
X18227000Y-8504000D02*
X18717000Y-8504000D01*
X18472000Y-10159000D02*
X18472000Y-10649000D01*
X18227000Y-10404000D02*
X18717000Y-10404000D01*
X19672000Y-12159000D02*
X19672000Y-12649000D01*
X19427000Y-12404000D02*
X19917000Y-12404000D01*
X20372000Y-6059000D02*
X20372000Y-6549000D01*
X20127000Y-6304000D02*
X20617000Y-6304000D01*
X20372000Y-7959000D02*
X20372000Y-8449000D01*
X20127000Y-8204000D02*
X20617000Y-8204000D01*
X20372000Y-9859000D02*
X20372000Y-10349000D01*
X20127000Y-10104000D02*
X20617000Y-10104000D01*
X22272000Y-5059000D02*
X22272000Y-5549000D01*
X22027000Y-5304000D02*
X22517000Y-5304000D01*
X22272000Y-6959000D02*
X22272000Y-7449000D01*
X22027000Y-7204000D02*
X22517000Y-7204000D01*
X22272000Y-8859000D02*
X22272000Y-9349000D01*
X22027000Y-9104000D02*
X22517000Y-9104000D01*
X24122000Y-10259000D02*
X24122000Y-10749000D01*
X23877000Y-10504000D02*
X24367000Y-10504000D01*
X24287596Y-8366230D02*
X24287596Y-8856230D01*
X24042596Y-8611230D02*
X24532596Y-8611230D01*
X24453192Y-6473460D02*
X24453192Y-6963460D01*
X24208192Y-6718460D02*
X24698192Y-6718460D01*
X25769689Y-11958651D02*
X25769689Y-12448651D01*
X25524689Y-12203651D02*
X26014689Y-12203651D01*
X26053806Y-10080014D02*
X26053806Y-10570014D01*
X25808806Y-10325014D02*
X26298806Y-10325014D01*
X26337923Y-8201377D02*
X26337923Y-8691377D01*
X26092923Y-8446377D02*
X26582923Y-8446377D01*
D12*
X3323245Y-14097715D02*
X3323245Y-13897715D01*
X3323245Y-13897715D02*
X3370864Y-13897715D01*
X3370864Y-13897715D02*
X3399435Y-13907238D01*
X3399435Y-13907238D02*
X3418483Y-13926286D01*
X3418483Y-13926286D02*
X3428007Y-13945334D01*
X3428007Y-13945334D02*
X3437531Y-13983429D01*
X3437531Y-13983429D02*
X3437531Y-14012000D01*
X3437531Y-14012000D02*
X3428007Y-14050096D01*
X3428007Y-14050096D02*
X3418483Y-14069143D01*
X3418483Y-14069143D02*
X3399435Y-14088191D01*
X3399435Y-14088191D02*
X3370864Y-14097715D01*
X3370864Y-14097715D02*
X3323245Y-14097715D01*
X3523245Y-14097715D02*
X3523245Y-13964381D01*
X3523245Y-14002477D02*
X3532769Y-13983429D01*
X3532769Y-13983429D02*
X3542292Y-13973905D01*
X3542292Y-13973905D02*
X3561340Y-13964381D01*
X3561340Y-13964381D02*
X3580388Y-13964381D01*
X3647054Y-14097715D02*
X3647054Y-13964381D01*
X3647054Y-13897715D02*
X3637531Y-13907238D01*
X3637531Y-13907238D02*
X3647054Y-13916762D01*
X3647054Y-13916762D02*
X3656578Y-13907238D01*
X3656578Y-13907238D02*
X3647054Y-13897715D01*
X3647054Y-13897715D02*
X3647054Y-13916762D01*
X3770864Y-14097715D02*
X3751816Y-14088191D01*
X3751816Y-14088191D02*
X3742292Y-14069143D01*
X3742292Y-14069143D02*
X3742292Y-13897715D01*
X3875626Y-14097715D02*
X3856578Y-14088191D01*
X3856578Y-14088191D02*
X3847054Y-14069143D01*
X3847054Y-14069143D02*
X3847054Y-13897715D01*
X4104197Y-14097715D02*
X4104197Y-13897715D01*
X4104197Y-13897715D02*
X4170864Y-14040572D01*
X4170864Y-14040572D02*
X4237531Y-13897715D01*
X4237531Y-13897715D02*
X4237531Y-14097715D01*
X4418483Y-14097715D02*
X4418483Y-13992953D01*
X4418483Y-13992953D02*
X4408959Y-13973905D01*
X4408959Y-13973905D02*
X4389912Y-13964381D01*
X4389912Y-13964381D02*
X4351816Y-13964381D01*
X4351816Y-13964381D02*
X4332769Y-13973905D01*
X4418483Y-14088191D02*
X4399435Y-14097715D01*
X4399435Y-14097715D02*
X4351816Y-14097715D01*
X4351816Y-14097715D02*
X4332769Y-14088191D01*
X4332769Y-14088191D02*
X4323245Y-14069143D01*
X4323245Y-14069143D02*
X4323245Y-14050096D01*
X4323245Y-14050096D02*
X4332769Y-14031048D01*
X4332769Y-14031048D02*
X4351816Y-14021524D01*
X4351816Y-14021524D02*
X4399435Y-14021524D01*
X4399435Y-14021524D02*
X4418483Y-14012000D01*
X4513721Y-13964381D02*
X4513721Y-14164381D01*
X4513721Y-13973905D02*
X4532769Y-13964381D01*
X4532769Y-13964381D02*
X4570864Y-13964381D01*
X4570864Y-13964381D02*
X4589912Y-13973905D01*
X4589912Y-13973905D02*
X4599435Y-13983429D01*
X4599435Y-13983429D02*
X4608959Y-14002477D01*
X4608959Y-14002477D02*
X4608959Y-14059619D01*
X4608959Y-14059619D02*
X4599435Y-14078667D01*
X4599435Y-14078667D02*
X4589912Y-14088191D01*
X4589912Y-14088191D02*
X4570864Y-14097715D01*
X4570864Y-14097715D02*
X4532769Y-14097715D01*
X4532769Y-14097715D02*
X4513721Y-14088191D01*
X4694674Y-14078667D02*
X4704197Y-14088191D01*
X4704197Y-14088191D02*
X4694674Y-14097715D01*
X4694674Y-14097715D02*
X4685150Y-14088191D01*
X4685150Y-14088191D02*
X4694674Y-14078667D01*
X4694674Y-14078667D02*
X4694674Y-14097715D01*
X4694674Y-13973905D02*
X4704197Y-13983429D01*
X4704197Y-13983429D02*
X4694674Y-13992953D01*
X4694674Y-13992953D02*
X4685150Y-13983429D01*
X4685150Y-13983429D02*
X4694674Y-13973905D01*
X4694674Y-13973905D02*
X4694674Y-13992953D01*
D13*
X2972468Y-14381231D02*
X3062468Y-14471231D01*
X3062468Y-14381231D02*
X2972468Y-14471231D01*
D12*
X3361340Y-14317715D02*
X3380388Y-14317715D01*
X3380388Y-14317715D02*
X3399435Y-14327238D01*
X3399435Y-14327238D02*
X3408959Y-14336762D01*
X3408959Y-14336762D02*
X3418483Y-14355810D01*
X3418483Y-14355810D02*
X3428007Y-14393905D01*
X3428007Y-14393905D02*
X3428007Y-14441524D01*
X3428007Y-14441524D02*
X3418483Y-14479619D01*
X3418483Y-14479619D02*
X3408959Y-14498667D01*
X3408959Y-14498667D02*
X3399435Y-14508191D01*
X3399435Y-14508191D02*
X3380388Y-14517715D01*
X3380388Y-14517715D02*
X3361340Y-14517715D01*
X3361340Y-14517715D02*
X3342292Y-14508191D01*
X3342292Y-14508191D02*
X3332769Y-14498667D01*
X3332769Y-14498667D02*
X3323245Y-14479619D01*
X3323245Y-14479619D02*
X3313721Y-14441524D01*
X3313721Y-14441524D02*
X3313721Y-14393905D01*
X3313721Y-14393905D02*
X3323245Y-14355810D01*
X3323245Y-14355810D02*
X3332769Y-14336762D01*
X3332769Y-14336762D02*
X3342292Y-14327238D01*
X3342292Y-14327238D02*
X3361340Y-14317715D01*
X3513721Y-14498667D02*
X3523245Y-14508191D01*
X3523245Y-14508191D02*
X3513721Y-14517715D01*
X3513721Y-14517715D02*
X3504197Y-14508191D01*
X3504197Y-14508191D02*
X3513721Y-14498667D01*
X3513721Y-14498667D02*
X3513721Y-14517715D01*
X3618483Y-14517715D02*
X3656578Y-14517715D01*
X3656578Y-14517715D02*
X3675626Y-14508191D01*
X3675626Y-14508191D02*
X3685150Y-14498667D01*
X3685150Y-14498667D02*
X3704197Y-14470096D01*
X3704197Y-14470096D02*
X3713721Y-14432000D01*
X3713721Y-14432000D02*
X3713721Y-14355810D01*
X3713721Y-14355810D02*
X3704197Y-14336762D01*
X3704197Y-14336762D02*
X3694673Y-14327238D01*
X3694673Y-14327238D02*
X3675626Y-14317715D01*
X3675626Y-14317715D02*
X3637531Y-14317715D01*
X3637531Y-14317715D02*
X3618483Y-14327238D01*
X3618483Y-14327238D02*
X3608959Y-14336762D01*
X3608959Y-14336762D02*
X3599435Y-14355810D01*
X3599435Y-14355810D02*
X3599435Y-14403429D01*
X3599435Y-14403429D02*
X3608959Y-14422477D01*
X3608959Y-14422477D02*
X3618483Y-14432000D01*
X3618483Y-14432000D02*
X3637531Y-14441524D01*
X3637531Y-14441524D02*
X3675626Y-14441524D01*
X3675626Y-14441524D02*
X3694673Y-14432000D01*
X3694673Y-14432000D02*
X3704197Y-14422477D01*
X3704197Y-14422477D02*
X3713721Y-14403429D01*
X3837531Y-14317715D02*
X3856578Y-14317715D01*
X3856578Y-14317715D02*
X3875626Y-14327238D01*
X3875626Y-14327238D02*
X3885150Y-14336762D01*
X3885150Y-14336762D02*
X3894673Y-14355810D01*
X3894673Y-14355810D02*
X3904197Y-14393905D01*
X3904197Y-14393905D02*
X3904197Y-14441524D01*
X3904197Y-14441524D02*
X3894673Y-14479619D01*
X3894673Y-14479619D02*
X3885150Y-14498667D01*
X3885150Y-14498667D02*
X3875626Y-14508191D01*
X3875626Y-14508191D02*
X3856578Y-14517715D01*
X3856578Y-14517715D02*
X3837531Y-14517715D01*
X3837531Y-14517715D02*
X3818483Y-14508191D01*
X3818483Y-14508191D02*
X3808959Y-14498667D01*
X3808959Y-14498667D02*
X3799435Y-14479619D01*
X3799435Y-14479619D02*
X3789912Y-14441524D01*
X3789912Y-14441524D02*
X3789912Y-14393905D01*
X3789912Y-14393905D02*
X3799435Y-14355810D01*
X3799435Y-14355810D02*
X3808959Y-14336762D01*
X3808959Y-14336762D02*
X3818483Y-14327238D01*
X3818483Y-14327238D02*
X3837531Y-14317715D01*
X4028007Y-14317715D02*
X4047054Y-14317715D01*
X4047054Y-14317715D02*
X4066102Y-14327238D01*
X4066102Y-14327238D02*
X4075626Y-14336762D01*
X4075626Y-14336762D02*
X4085150Y-14355810D01*
X4085150Y-14355810D02*
X4094673Y-14393905D01*
X4094673Y-14393905D02*
X4094673Y-14441524D01*
X4094673Y-14441524D02*
X4085150Y-14479619D01*
X4085150Y-14479619D02*
X4075626Y-14498667D01*
X4075626Y-14498667D02*
X4066102Y-14508191D01*
X4066102Y-14508191D02*
X4047054Y-14517715D01*
X4047054Y-14517715D02*
X4028007Y-14517715D01*
X4028007Y-14517715D02*
X4008959Y-14508191D01*
X4008959Y-14508191D02*
X3999435Y-14498667D01*
X3999435Y-14498667D02*
X3989912Y-14479619D01*
X3989912Y-14479619D02*
X3980388Y-14441524D01*
X3980388Y-14441524D02*
X3980388Y-14393905D01*
X3980388Y-14393905D02*
X3989912Y-14355810D01*
X3989912Y-14355810D02*
X3999435Y-14336762D01*
X3999435Y-14336762D02*
X4008959Y-14327238D01*
X4008959Y-14327238D02*
X4028007Y-14317715D01*
X4180388Y-14517715D02*
X4180388Y-14384381D01*
X4180388Y-14403429D02*
X4189912Y-14393905D01*
X4189912Y-14393905D02*
X4208959Y-14384381D01*
X4208959Y-14384381D02*
X4237531Y-14384381D01*
X4237531Y-14384381D02*
X4256578Y-14393905D01*
X4256578Y-14393905D02*
X4266102Y-14412953D01*
X4266102Y-14412953D02*
X4266102Y-14517715D01*
X4266102Y-14412953D02*
X4275626Y-14393905D01*
X4275626Y-14393905D02*
X4294674Y-14384381D01*
X4294674Y-14384381D02*
X4323245Y-14384381D01*
X4323245Y-14384381D02*
X4342293Y-14393905D01*
X4342293Y-14393905D02*
X4351816Y-14412953D01*
X4351816Y-14412953D02*
X4351816Y-14517715D01*
X4447055Y-14517715D02*
X4447055Y-14384381D01*
X4447055Y-14403429D02*
X4456578Y-14393905D01*
X4456578Y-14393905D02*
X4475626Y-14384381D01*
X4475626Y-14384381D02*
X4504197Y-14384381D01*
X4504197Y-14384381D02*
X4523245Y-14393905D01*
X4523245Y-14393905D02*
X4532769Y-14412953D01*
X4532769Y-14412953D02*
X4532769Y-14517715D01*
X4532769Y-14412953D02*
X4542293Y-14393905D01*
X4542293Y-14393905D02*
X4561340Y-14384381D01*
X4561340Y-14384381D02*
X4589912Y-14384381D01*
X4589912Y-14384381D02*
X4608959Y-14393905D01*
X4608959Y-14393905D02*
X4618483Y-14412953D01*
X4618483Y-14412953D02*
X4618483Y-14517715D01*
X5008959Y-14308191D02*
X4837531Y-14565334D01*
X5266102Y-14317715D02*
X5285150Y-14317715D01*
X5285150Y-14317715D02*
X5304198Y-14327238D01*
X5304198Y-14327238D02*
X5313721Y-14336762D01*
X5313721Y-14336762D02*
X5323245Y-14355810D01*
X5323245Y-14355810D02*
X5332769Y-14393905D01*
X5332769Y-14393905D02*
X5332769Y-14441524D01*
X5332769Y-14441524D02*
X5323245Y-14479619D01*
X5323245Y-14479619D02*
X5313721Y-14498667D01*
X5313721Y-14498667D02*
X5304198Y-14508191D01*
X5304198Y-14508191D02*
X5285150Y-14517715D01*
X5285150Y-14517715D02*
X5266102Y-14517715D01*
X5266102Y-14517715D02*
X5247055Y-14508191D01*
X5247055Y-14508191D02*
X5237531Y-14498667D01*
X5237531Y-14498667D02*
X5228007Y-14479619D01*
X5228007Y-14479619D02*
X5218483Y-14441524D01*
X5218483Y-14441524D02*
X5218483Y-14393905D01*
X5218483Y-14393905D02*
X5228007Y-14355810D01*
X5228007Y-14355810D02*
X5237531Y-14336762D01*
X5237531Y-14336762D02*
X5247055Y-14327238D01*
X5247055Y-14327238D02*
X5266102Y-14317715D01*
X5418483Y-14498667D02*
X5428007Y-14508191D01*
X5428007Y-14508191D02*
X5418483Y-14517715D01*
X5418483Y-14517715D02*
X5408959Y-14508191D01*
X5408959Y-14508191D02*
X5418483Y-14498667D01*
X5418483Y-14498667D02*
X5418483Y-14517715D01*
X5551817Y-14317715D02*
X5570864Y-14317715D01*
X5570864Y-14317715D02*
X5589912Y-14327238D01*
X5589912Y-14327238D02*
X5599436Y-14336762D01*
X5599436Y-14336762D02*
X5608959Y-14355810D01*
X5608959Y-14355810D02*
X5618483Y-14393905D01*
X5618483Y-14393905D02*
X5618483Y-14441524D01*
X5618483Y-14441524D02*
X5608959Y-14479619D01*
X5608959Y-14479619D02*
X5599436Y-14498667D01*
X5599436Y-14498667D02*
X5589912Y-14508191D01*
X5589912Y-14508191D02*
X5570864Y-14517715D01*
X5570864Y-14517715D02*
X5551817Y-14517715D01*
X5551817Y-14517715D02*
X5532769Y-14508191D01*
X5532769Y-14508191D02*
X5523245Y-14498667D01*
X5523245Y-14498667D02*
X5513721Y-14479619D01*
X5513721Y-14479619D02*
X5504198Y-14441524D01*
X5504198Y-14441524D02*
X5504198Y-14393905D01*
X5504198Y-14393905D02*
X5513721Y-14355810D01*
X5513721Y-14355810D02*
X5523245Y-14336762D01*
X5523245Y-14336762D02*
X5532769Y-14327238D01*
X5532769Y-14327238D02*
X5551817Y-14317715D01*
X5685150Y-14317715D02*
X5808959Y-14317715D01*
X5808959Y-14317715D02*
X5742293Y-14393905D01*
X5742293Y-14393905D02*
X5770864Y-14393905D01*
X5770864Y-14393905D02*
X5789912Y-14403429D01*
X5789912Y-14403429D02*
X5799436Y-14412953D01*
X5799436Y-14412953D02*
X5808959Y-14432000D01*
X5808959Y-14432000D02*
X5808959Y-14479619D01*
X5808959Y-14479619D02*
X5799436Y-14498667D01*
X5799436Y-14498667D02*
X5789912Y-14508191D01*
X5789912Y-14508191D02*
X5770864Y-14517715D01*
X5770864Y-14517715D02*
X5713721Y-14517715D01*
X5713721Y-14517715D02*
X5694674Y-14508191D01*
X5694674Y-14508191D02*
X5685150Y-14498667D01*
X5989912Y-14317715D02*
X5894674Y-14317715D01*
X5894674Y-14317715D02*
X5885150Y-14412953D01*
X5885150Y-14412953D02*
X5894674Y-14403429D01*
X5894674Y-14403429D02*
X5913721Y-14393905D01*
X5913721Y-14393905D02*
X5961340Y-14393905D01*
X5961340Y-14393905D02*
X5980388Y-14403429D01*
X5980388Y-14403429D02*
X5989912Y-14412953D01*
X5989912Y-14412953D02*
X5999436Y-14432000D01*
X5999436Y-14432000D02*
X5999436Y-14479619D01*
X5999436Y-14479619D02*
X5989912Y-14498667D01*
X5989912Y-14498667D02*
X5980388Y-14508191D01*
X5980388Y-14508191D02*
X5961340Y-14517715D01*
X5961340Y-14517715D02*
X5913721Y-14517715D01*
X5913721Y-14517715D02*
X5894674Y-14508191D01*
X5894674Y-14508191D02*
X5885150Y-14498667D01*
X6170864Y-14384381D02*
X6170864Y-14517715D01*
X6123245Y-14308191D02*
X6075626Y-14451048D01*
X6075626Y-14451048D02*
X6199436Y-14451048D01*
X6266102Y-14317715D02*
X6266102Y-14355810D01*
X6342293Y-14317715D02*
X6342293Y-14355810D01*
X6637531Y-14593905D02*
X6628007Y-14584381D01*
X6628007Y-14584381D02*
X6608959Y-14555810D01*
X6608959Y-14555810D02*
X6599436Y-14536762D01*
X6599436Y-14536762D02*
X6589912Y-14508191D01*
X6589912Y-14508191D02*
X6580388Y-14460572D01*
X6580388Y-14460572D02*
X6580388Y-14422477D01*
X6580388Y-14422477D02*
X6589912Y-14374857D01*
X6589912Y-14374857D02*
X6599436Y-14346286D01*
X6599436Y-14346286D02*
X6608959Y-14327238D01*
X6608959Y-14327238D02*
X6628007Y-14298667D01*
X6628007Y-14298667D02*
X6637531Y-14289143D01*
X6799436Y-14384381D02*
X6799436Y-14517715D01*
X6751817Y-14308191D02*
X6704198Y-14451048D01*
X6704198Y-14451048D02*
X6828007Y-14451048D01*
X7056579Y-14517715D02*
X7056579Y-14317715D01*
X7142293Y-14517715D02*
X7142293Y-14412953D01*
X7142293Y-14412953D02*
X7132769Y-14393905D01*
X7132769Y-14393905D02*
X7113721Y-14384381D01*
X7113721Y-14384381D02*
X7085150Y-14384381D01*
X7085150Y-14384381D02*
X7066102Y-14393905D01*
X7066102Y-14393905D02*
X7056579Y-14403429D01*
X7266102Y-14517715D02*
X7247055Y-14508191D01*
X7247055Y-14508191D02*
X7237531Y-14498667D01*
X7237531Y-14498667D02*
X7228007Y-14479619D01*
X7228007Y-14479619D02*
X7228007Y-14422477D01*
X7228007Y-14422477D02*
X7237531Y-14403429D01*
X7237531Y-14403429D02*
X7247055Y-14393905D01*
X7247055Y-14393905D02*
X7266102Y-14384381D01*
X7266102Y-14384381D02*
X7294674Y-14384381D01*
X7294674Y-14384381D02*
X7313721Y-14393905D01*
X7313721Y-14393905D02*
X7323245Y-14403429D01*
X7323245Y-14403429D02*
X7332769Y-14422477D01*
X7332769Y-14422477D02*
X7332769Y-14479619D01*
X7332769Y-14479619D02*
X7323245Y-14498667D01*
X7323245Y-14498667D02*
X7313721Y-14508191D01*
X7313721Y-14508191D02*
X7294674Y-14517715D01*
X7294674Y-14517715D02*
X7266102Y-14517715D01*
X7447055Y-14517715D02*
X7428007Y-14508191D01*
X7428007Y-14508191D02*
X7418483Y-14489143D01*
X7418483Y-14489143D02*
X7418483Y-14317715D01*
X7599436Y-14508191D02*
X7580388Y-14517715D01*
X7580388Y-14517715D02*
X7542293Y-14517715D01*
X7542293Y-14517715D02*
X7523245Y-14508191D01*
X7523245Y-14508191D02*
X7513721Y-14489143D01*
X7513721Y-14489143D02*
X7513721Y-14412953D01*
X7513721Y-14412953D02*
X7523245Y-14393905D01*
X7523245Y-14393905D02*
X7542293Y-14384381D01*
X7542293Y-14384381D02*
X7580388Y-14384381D01*
X7580388Y-14384381D02*
X7599436Y-14393905D01*
X7599436Y-14393905D02*
X7608960Y-14412953D01*
X7608960Y-14412953D02*
X7608960Y-14432000D01*
X7608960Y-14432000D02*
X7513721Y-14451048D01*
X7685150Y-14508191D02*
X7704198Y-14517715D01*
X7704198Y-14517715D02*
X7742293Y-14517715D01*
X7742293Y-14517715D02*
X7761341Y-14508191D01*
X7761341Y-14508191D02*
X7770864Y-14489143D01*
X7770864Y-14489143D02*
X7770864Y-14479619D01*
X7770864Y-14479619D02*
X7761341Y-14460572D01*
X7761341Y-14460572D02*
X7742293Y-14451048D01*
X7742293Y-14451048D02*
X7713721Y-14451048D01*
X7713721Y-14451048D02*
X7694674Y-14441524D01*
X7694674Y-14441524D02*
X7685150Y-14422477D01*
X7685150Y-14422477D02*
X7685150Y-14412953D01*
X7685150Y-14412953D02*
X7694674Y-14393905D01*
X7694674Y-14393905D02*
X7713721Y-14384381D01*
X7713721Y-14384381D02*
X7742293Y-14384381D01*
X7742293Y-14384381D02*
X7761341Y-14393905D01*
X7837531Y-14593905D02*
X7847055Y-14584381D01*
X7847055Y-14584381D02*
X7866102Y-14555810D01*
X7866102Y-14555810D02*
X7875626Y-14536762D01*
X7875626Y-14536762D02*
X7885150Y-14508191D01*
X7885150Y-14508191D02*
X7894674Y-14460572D01*
X7894674Y-14460572D02*
X7894674Y-14422477D01*
X7894674Y-14422477D02*
X7885150Y-14374857D01*
X7885150Y-14374857D02*
X7875626Y-14346286D01*
X7875626Y-14346286D02*
X7866102Y-14327238D01*
X7866102Y-14327238D02*
X7847055Y-14298667D01*
X7847055Y-14298667D02*
X7837531Y-14289143D01*
X8199436Y-14593905D02*
X8189912Y-14584381D01*
X8189912Y-14584381D02*
X8170864Y-14555810D01*
X8170864Y-14555810D02*
X8161341Y-14536762D01*
X8161341Y-14536762D02*
X8151817Y-14508191D01*
X8151817Y-14508191D02*
X8142293Y-14460572D01*
X8142293Y-14460572D02*
X8142293Y-14422477D01*
X8142293Y-14422477D02*
X8151817Y-14374857D01*
X8151817Y-14374857D02*
X8161341Y-14346286D01*
X8161341Y-14346286D02*
X8170864Y-14327238D01*
X8170864Y-14327238D02*
X8189912Y-14298667D01*
X8189912Y-14298667D02*
X8199436Y-14289143D01*
X8275626Y-14384381D02*
X8275626Y-14517715D01*
X8275626Y-14403429D02*
X8285150Y-14393905D01*
X8285150Y-14393905D02*
X8304198Y-14384381D01*
X8304198Y-14384381D02*
X8332769Y-14384381D01*
X8332769Y-14384381D02*
X8351817Y-14393905D01*
X8351817Y-14393905D02*
X8361341Y-14412953D01*
X8361341Y-14412953D02*
X8361341Y-14517715D01*
X8485150Y-14517715D02*
X8466103Y-14508191D01*
X8466103Y-14508191D02*
X8456579Y-14498667D01*
X8456579Y-14498667D02*
X8447055Y-14479619D01*
X8447055Y-14479619D02*
X8447055Y-14422477D01*
X8447055Y-14422477D02*
X8456579Y-14403429D01*
X8456579Y-14403429D02*
X8466103Y-14393905D01*
X8466103Y-14393905D02*
X8485150Y-14384381D01*
X8485150Y-14384381D02*
X8513722Y-14384381D01*
X8513722Y-14384381D02*
X8532769Y-14393905D01*
X8532769Y-14393905D02*
X8542293Y-14403429D01*
X8542293Y-14403429D02*
X8551817Y-14422477D01*
X8551817Y-14422477D02*
X8551817Y-14479619D01*
X8551817Y-14479619D02*
X8542293Y-14498667D01*
X8542293Y-14498667D02*
X8532769Y-14508191D01*
X8532769Y-14508191D02*
X8513722Y-14517715D01*
X8513722Y-14517715D02*
X8485150Y-14517715D01*
X8608960Y-14384381D02*
X8685150Y-14384381D01*
X8637531Y-14317715D02*
X8637531Y-14489143D01*
X8637531Y-14489143D02*
X8647055Y-14508191D01*
X8647055Y-14508191D02*
X8666103Y-14517715D01*
X8666103Y-14517715D02*
X8685150Y-14517715D01*
X8904198Y-14384381D02*
X8904198Y-14584381D01*
X8904198Y-14393905D02*
X8923245Y-14384381D01*
X8923245Y-14384381D02*
X8961341Y-14384381D01*
X8961341Y-14384381D02*
X8980388Y-14393905D01*
X8980388Y-14393905D02*
X8989912Y-14403429D01*
X8989912Y-14403429D02*
X8999436Y-14422477D01*
X8999436Y-14422477D02*
X8999436Y-14479619D01*
X8999436Y-14479619D02*
X8989912Y-14498667D01*
X8989912Y-14498667D02*
X8980388Y-14508191D01*
X8980388Y-14508191D02*
X8961341Y-14517715D01*
X8961341Y-14517715D02*
X8923245Y-14517715D01*
X8923245Y-14517715D02*
X8904198Y-14508191D01*
X9113722Y-14517715D02*
X9094674Y-14508191D01*
X9094674Y-14508191D02*
X9085150Y-14489143D01*
X9085150Y-14489143D02*
X9085150Y-14317715D01*
X9275626Y-14517715D02*
X9275626Y-14412953D01*
X9275626Y-14412953D02*
X9266103Y-14393905D01*
X9266103Y-14393905D02*
X9247055Y-14384381D01*
X9247055Y-14384381D02*
X9208960Y-14384381D01*
X9208960Y-14384381D02*
X9189912Y-14393905D01*
X9275626Y-14508191D02*
X9256579Y-14517715D01*
X9256579Y-14517715D02*
X9208960Y-14517715D01*
X9208960Y-14517715D02*
X9189912Y-14508191D01*
X9189912Y-14508191D02*
X9180388Y-14489143D01*
X9180388Y-14489143D02*
X9180388Y-14470096D01*
X9180388Y-14470096D02*
X9189912Y-14451048D01*
X9189912Y-14451048D02*
X9208960Y-14441524D01*
X9208960Y-14441524D02*
X9256579Y-14441524D01*
X9256579Y-14441524D02*
X9275626Y-14432000D01*
X9342293Y-14384381D02*
X9418484Y-14384381D01*
X9370865Y-14317715D02*
X9370865Y-14489143D01*
X9370865Y-14489143D02*
X9380388Y-14508191D01*
X9380388Y-14508191D02*
X9399436Y-14517715D01*
X9399436Y-14517715D02*
X9418484Y-14517715D01*
X9561341Y-14508191D02*
X9542293Y-14517715D01*
X9542293Y-14517715D02*
X9504198Y-14517715D01*
X9504198Y-14517715D02*
X9485150Y-14508191D01*
X9485150Y-14508191D02*
X9475626Y-14489143D01*
X9475626Y-14489143D02*
X9475626Y-14412953D01*
X9475626Y-14412953D02*
X9485150Y-14393905D01*
X9485150Y-14393905D02*
X9504198Y-14384381D01*
X9504198Y-14384381D02*
X9542293Y-14384381D01*
X9542293Y-14384381D02*
X9561341Y-14393905D01*
X9561341Y-14393905D02*
X9570865Y-14412953D01*
X9570865Y-14412953D02*
X9570865Y-14432000D01*
X9570865Y-14432000D02*
X9475626Y-14451048D01*
X9742293Y-14517715D02*
X9742293Y-14317715D01*
X9742293Y-14508191D02*
X9723246Y-14517715D01*
X9723246Y-14517715D02*
X9685150Y-14517715D01*
X9685150Y-14517715D02*
X9666103Y-14508191D01*
X9666103Y-14508191D02*
X9656579Y-14498667D01*
X9656579Y-14498667D02*
X9647055Y-14479619D01*
X9647055Y-14479619D02*
X9647055Y-14422477D01*
X9647055Y-14422477D02*
X9656579Y-14403429D01*
X9656579Y-14403429D02*
X9666103Y-14393905D01*
X9666103Y-14393905D02*
X9685150Y-14384381D01*
X9685150Y-14384381D02*
X9723246Y-14384381D01*
X9723246Y-14384381D02*
X9742293Y-14393905D01*
X9818484Y-14593905D02*
X9828007Y-14584381D01*
X9828007Y-14584381D02*
X9847055Y-14555810D01*
X9847055Y-14555810D02*
X9856579Y-14536762D01*
X9856579Y-14536762D02*
X9866103Y-14508191D01*
X9866103Y-14508191D02*
X9875626Y-14460572D01*
X9875626Y-14460572D02*
X9875626Y-14422477D01*
X9875626Y-14422477D02*
X9866103Y-14374857D01*
X9866103Y-14374857D02*
X9856579Y-14346286D01*
X9856579Y-14346286D02*
X9847055Y-14327238D01*
X9847055Y-14327238D02*
X9828007Y-14298667D01*
X9828007Y-14298667D02*
X9818484Y-14289143D01*
D14*
X3062468Y-14690231D02*
G75*
G02*
X2877468Y-14690231I-92500J0D01*
G01*
X2877468Y-14690231D02*
G75*
G02*
X3062468Y-14690231I92500J0D01*
G01*
D12*
X3428007Y-14781715D02*
X3313721Y-14781715D01*
X3370864Y-14781715D02*
X3370864Y-14581715D01*
X3370864Y-14581715D02*
X3351816Y-14610286D01*
X3351816Y-14610286D02*
X3332769Y-14629334D01*
X3332769Y-14629334D02*
X3313721Y-14638857D01*
X3513721Y-14762667D02*
X3523245Y-14772191D01*
X3523245Y-14772191D02*
X3513721Y-14781715D01*
X3513721Y-14781715D02*
X3504197Y-14772191D01*
X3504197Y-14772191D02*
X3513721Y-14762667D01*
X3513721Y-14762667D02*
X3513721Y-14781715D01*
X3637531Y-14667429D02*
X3618483Y-14657905D01*
X3618483Y-14657905D02*
X3608959Y-14648381D01*
X3608959Y-14648381D02*
X3599435Y-14629334D01*
X3599435Y-14629334D02*
X3599435Y-14619810D01*
X3599435Y-14619810D02*
X3608959Y-14600762D01*
X3608959Y-14600762D02*
X3618483Y-14591238D01*
X3618483Y-14591238D02*
X3637531Y-14581715D01*
X3637531Y-14581715D02*
X3675626Y-14581715D01*
X3675626Y-14581715D02*
X3694673Y-14591238D01*
X3694673Y-14591238D02*
X3704197Y-14600762D01*
X3704197Y-14600762D02*
X3713721Y-14619810D01*
X3713721Y-14619810D02*
X3713721Y-14629334D01*
X3713721Y-14629334D02*
X3704197Y-14648381D01*
X3704197Y-14648381D02*
X3694673Y-14657905D01*
X3694673Y-14657905D02*
X3675626Y-14667429D01*
X3675626Y-14667429D02*
X3637531Y-14667429D01*
X3637531Y-14667429D02*
X3618483Y-14676953D01*
X3618483Y-14676953D02*
X3608959Y-14686477D01*
X3608959Y-14686477D02*
X3599435Y-14705524D01*
X3599435Y-14705524D02*
X3599435Y-14743619D01*
X3599435Y-14743619D02*
X3608959Y-14762667D01*
X3608959Y-14762667D02*
X3618483Y-14772191D01*
X3618483Y-14772191D02*
X3637531Y-14781715D01*
X3637531Y-14781715D02*
X3675626Y-14781715D01*
X3675626Y-14781715D02*
X3694673Y-14772191D01*
X3694673Y-14772191D02*
X3704197Y-14762667D01*
X3704197Y-14762667D02*
X3713721Y-14743619D01*
X3713721Y-14743619D02*
X3713721Y-14705524D01*
X3713721Y-14705524D02*
X3704197Y-14686477D01*
X3704197Y-14686477D02*
X3694673Y-14676953D01*
X3694673Y-14676953D02*
X3675626Y-14667429D01*
X3894673Y-14581715D02*
X3799435Y-14581715D01*
X3799435Y-14581715D02*
X3789912Y-14676953D01*
X3789912Y-14676953D02*
X3799435Y-14667429D01*
X3799435Y-14667429D02*
X3818483Y-14657905D01*
X3818483Y-14657905D02*
X3866102Y-14657905D01*
X3866102Y-14657905D02*
X3885150Y-14667429D01*
X3885150Y-14667429D02*
X3894673Y-14676953D01*
X3894673Y-14676953D02*
X3904197Y-14696000D01*
X3904197Y-14696000D02*
X3904197Y-14743619D01*
X3904197Y-14743619D02*
X3894673Y-14762667D01*
X3894673Y-14762667D02*
X3885150Y-14772191D01*
X3885150Y-14772191D02*
X3866102Y-14781715D01*
X3866102Y-14781715D02*
X3818483Y-14781715D01*
X3818483Y-14781715D02*
X3799435Y-14772191D01*
X3799435Y-14772191D02*
X3789912Y-14762667D01*
X4028007Y-14581715D02*
X4047054Y-14581715D01*
X4047054Y-14581715D02*
X4066102Y-14591238D01*
X4066102Y-14591238D02*
X4075626Y-14600762D01*
X4075626Y-14600762D02*
X4085150Y-14619810D01*
X4085150Y-14619810D02*
X4094673Y-14657905D01*
X4094673Y-14657905D02*
X4094673Y-14705524D01*
X4094673Y-14705524D02*
X4085150Y-14743619D01*
X4085150Y-14743619D02*
X4075626Y-14762667D01*
X4075626Y-14762667D02*
X4066102Y-14772191D01*
X4066102Y-14772191D02*
X4047054Y-14781715D01*
X4047054Y-14781715D02*
X4028007Y-14781715D01*
X4028007Y-14781715D02*
X4008959Y-14772191D01*
X4008959Y-14772191D02*
X3999435Y-14762667D01*
X3999435Y-14762667D02*
X3989912Y-14743619D01*
X3989912Y-14743619D02*
X3980388Y-14705524D01*
X3980388Y-14705524D02*
X3980388Y-14657905D01*
X3980388Y-14657905D02*
X3989912Y-14619810D01*
X3989912Y-14619810D02*
X3999435Y-14600762D01*
X3999435Y-14600762D02*
X4008959Y-14591238D01*
X4008959Y-14591238D02*
X4028007Y-14581715D01*
X4180388Y-14781715D02*
X4180388Y-14648381D01*
X4180388Y-14667429D02*
X4189912Y-14657905D01*
X4189912Y-14657905D02*
X4208959Y-14648381D01*
X4208959Y-14648381D02*
X4237531Y-14648381D01*
X4237531Y-14648381D02*
X4256578Y-14657905D01*
X4256578Y-14657905D02*
X4266102Y-14676953D01*
X4266102Y-14676953D02*
X4266102Y-14781715D01*
X4266102Y-14676953D02*
X4275626Y-14657905D01*
X4275626Y-14657905D02*
X4294674Y-14648381D01*
X4294674Y-14648381D02*
X4323245Y-14648381D01*
X4323245Y-14648381D02*
X4342293Y-14657905D01*
X4342293Y-14657905D02*
X4351816Y-14676953D01*
X4351816Y-14676953D02*
X4351816Y-14781715D01*
X4447055Y-14781715D02*
X4447055Y-14648381D01*
X4447055Y-14667429D02*
X4456578Y-14657905D01*
X4456578Y-14657905D02*
X4475626Y-14648381D01*
X4475626Y-14648381D02*
X4504197Y-14648381D01*
X4504197Y-14648381D02*
X4523245Y-14657905D01*
X4523245Y-14657905D02*
X4532769Y-14676953D01*
X4532769Y-14676953D02*
X4532769Y-14781715D01*
X4532769Y-14676953D02*
X4542293Y-14657905D01*
X4542293Y-14657905D02*
X4561340Y-14648381D01*
X4561340Y-14648381D02*
X4589912Y-14648381D01*
X4589912Y-14648381D02*
X4608959Y-14657905D01*
X4608959Y-14657905D02*
X4618483Y-14676953D01*
X4618483Y-14676953D02*
X4618483Y-14781715D01*
X5008959Y-14572191D02*
X4837531Y-14829334D01*
X5266102Y-14581715D02*
X5285150Y-14581715D01*
X5285150Y-14581715D02*
X5304198Y-14591238D01*
X5304198Y-14591238D02*
X5313721Y-14600762D01*
X5313721Y-14600762D02*
X5323245Y-14619810D01*
X5323245Y-14619810D02*
X5332769Y-14657905D01*
X5332769Y-14657905D02*
X5332769Y-14705524D01*
X5332769Y-14705524D02*
X5323245Y-14743619D01*
X5323245Y-14743619D02*
X5313721Y-14762667D01*
X5313721Y-14762667D02*
X5304198Y-14772191D01*
X5304198Y-14772191D02*
X5285150Y-14781715D01*
X5285150Y-14781715D02*
X5266102Y-14781715D01*
X5266102Y-14781715D02*
X5247055Y-14772191D01*
X5247055Y-14772191D02*
X5237531Y-14762667D01*
X5237531Y-14762667D02*
X5228007Y-14743619D01*
X5228007Y-14743619D02*
X5218483Y-14705524D01*
X5218483Y-14705524D02*
X5218483Y-14657905D01*
X5218483Y-14657905D02*
X5228007Y-14619810D01*
X5228007Y-14619810D02*
X5237531Y-14600762D01*
X5237531Y-14600762D02*
X5247055Y-14591238D01*
X5247055Y-14591238D02*
X5266102Y-14581715D01*
X5418483Y-14762667D02*
X5428007Y-14772191D01*
X5428007Y-14772191D02*
X5418483Y-14781715D01*
X5418483Y-14781715D02*
X5408959Y-14772191D01*
X5408959Y-14772191D02*
X5418483Y-14762667D01*
X5418483Y-14762667D02*
X5418483Y-14781715D01*
X5551817Y-14581715D02*
X5570864Y-14581715D01*
X5570864Y-14581715D02*
X5589912Y-14591238D01*
X5589912Y-14591238D02*
X5599436Y-14600762D01*
X5599436Y-14600762D02*
X5608959Y-14619810D01*
X5608959Y-14619810D02*
X5618483Y-14657905D01*
X5618483Y-14657905D02*
X5618483Y-14705524D01*
X5618483Y-14705524D02*
X5608959Y-14743619D01*
X5608959Y-14743619D02*
X5599436Y-14762667D01*
X5599436Y-14762667D02*
X5589912Y-14772191D01*
X5589912Y-14772191D02*
X5570864Y-14781715D01*
X5570864Y-14781715D02*
X5551817Y-14781715D01*
X5551817Y-14781715D02*
X5532769Y-14772191D01*
X5532769Y-14772191D02*
X5523245Y-14762667D01*
X5523245Y-14762667D02*
X5513721Y-14743619D01*
X5513721Y-14743619D02*
X5504198Y-14705524D01*
X5504198Y-14705524D02*
X5504198Y-14657905D01*
X5504198Y-14657905D02*
X5513721Y-14619810D01*
X5513721Y-14619810D02*
X5523245Y-14600762D01*
X5523245Y-14600762D02*
X5532769Y-14591238D01*
X5532769Y-14591238D02*
X5551817Y-14581715D01*
X5685150Y-14581715D02*
X5818483Y-14581715D01*
X5818483Y-14581715D02*
X5732769Y-14781715D01*
X5885150Y-14600762D02*
X5894674Y-14591238D01*
X5894674Y-14591238D02*
X5913721Y-14581715D01*
X5913721Y-14581715D02*
X5961340Y-14581715D01*
X5961340Y-14581715D02*
X5980388Y-14591238D01*
X5980388Y-14591238D02*
X5989912Y-14600762D01*
X5989912Y-14600762D02*
X5999436Y-14619810D01*
X5999436Y-14619810D02*
X5999436Y-14638857D01*
X5999436Y-14638857D02*
X5989912Y-14667429D01*
X5989912Y-14667429D02*
X5875626Y-14781715D01*
X5875626Y-14781715D02*
X5999436Y-14781715D01*
X6113721Y-14667429D02*
X6094674Y-14657905D01*
X6094674Y-14657905D02*
X6085150Y-14648381D01*
X6085150Y-14648381D02*
X6075626Y-14629334D01*
X6075626Y-14629334D02*
X6075626Y-14619810D01*
X6075626Y-14619810D02*
X6085150Y-14600762D01*
X6085150Y-14600762D02*
X6094674Y-14591238D01*
X6094674Y-14591238D02*
X6113721Y-14581715D01*
X6113721Y-14581715D02*
X6151817Y-14581715D01*
X6151817Y-14581715D02*
X6170864Y-14591238D01*
X6170864Y-14591238D02*
X6180388Y-14600762D01*
X6180388Y-14600762D02*
X6189912Y-14619810D01*
X6189912Y-14619810D02*
X6189912Y-14629334D01*
X6189912Y-14629334D02*
X6180388Y-14648381D01*
X6180388Y-14648381D02*
X6170864Y-14657905D01*
X6170864Y-14657905D02*
X6151817Y-14667429D01*
X6151817Y-14667429D02*
X6113721Y-14667429D01*
X6113721Y-14667429D02*
X6094674Y-14676953D01*
X6094674Y-14676953D02*
X6085150Y-14686477D01*
X6085150Y-14686477D02*
X6075626Y-14705524D01*
X6075626Y-14705524D02*
X6075626Y-14743619D01*
X6075626Y-14743619D02*
X6085150Y-14762667D01*
X6085150Y-14762667D02*
X6094674Y-14772191D01*
X6094674Y-14772191D02*
X6113721Y-14781715D01*
X6113721Y-14781715D02*
X6151817Y-14781715D01*
X6151817Y-14781715D02*
X6170864Y-14772191D01*
X6170864Y-14772191D02*
X6180388Y-14762667D01*
X6180388Y-14762667D02*
X6189912Y-14743619D01*
X6189912Y-14743619D02*
X6189912Y-14705524D01*
X6189912Y-14705524D02*
X6180388Y-14686477D01*
X6180388Y-14686477D02*
X6170864Y-14676953D01*
X6170864Y-14676953D02*
X6151817Y-14667429D01*
X6266102Y-14581715D02*
X6266102Y-14619810D01*
X6342293Y-14581715D02*
X6342293Y-14619810D01*
X6637531Y-14857905D02*
X6628007Y-14848381D01*
X6628007Y-14848381D02*
X6608959Y-14819810D01*
X6608959Y-14819810D02*
X6599436Y-14800762D01*
X6599436Y-14800762D02*
X6589912Y-14772191D01*
X6589912Y-14772191D02*
X6580388Y-14724572D01*
X6580388Y-14724572D02*
X6580388Y-14686477D01*
X6580388Y-14686477D02*
X6589912Y-14638857D01*
X6589912Y-14638857D02*
X6599436Y-14610286D01*
X6599436Y-14610286D02*
X6608959Y-14591238D01*
X6608959Y-14591238D02*
X6628007Y-14562667D01*
X6628007Y-14562667D02*
X6637531Y-14553143D01*
X6799436Y-14581715D02*
X6761340Y-14581715D01*
X6761340Y-14581715D02*
X6742293Y-14591238D01*
X6742293Y-14591238D02*
X6732769Y-14600762D01*
X6732769Y-14600762D02*
X6713721Y-14629334D01*
X6713721Y-14629334D02*
X6704198Y-14667429D01*
X6704198Y-14667429D02*
X6704198Y-14743619D01*
X6704198Y-14743619D02*
X6713721Y-14762667D01*
X6713721Y-14762667D02*
X6723245Y-14772191D01*
X6723245Y-14772191D02*
X6742293Y-14781715D01*
X6742293Y-14781715D02*
X6780388Y-14781715D01*
X6780388Y-14781715D02*
X6799436Y-14772191D01*
X6799436Y-14772191D02*
X6808959Y-14762667D01*
X6808959Y-14762667D02*
X6818483Y-14743619D01*
X6818483Y-14743619D02*
X6818483Y-14696000D01*
X6818483Y-14696000D02*
X6808959Y-14676953D01*
X6808959Y-14676953D02*
X6799436Y-14667429D01*
X6799436Y-14667429D02*
X6780388Y-14657905D01*
X6780388Y-14657905D02*
X6742293Y-14657905D01*
X6742293Y-14657905D02*
X6723245Y-14667429D01*
X6723245Y-14667429D02*
X6713721Y-14676953D01*
X6713721Y-14676953D02*
X6704198Y-14696000D01*
X6932769Y-14667429D02*
X6913721Y-14657905D01*
X6913721Y-14657905D02*
X6904198Y-14648381D01*
X6904198Y-14648381D02*
X6894674Y-14629334D01*
X6894674Y-14629334D02*
X6894674Y-14619810D01*
X6894674Y-14619810D02*
X6904198Y-14600762D01*
X6904198Y-14600762D02*
X6913721Y-14591238D01*
X6913721Y-14591238D02*
X6932769Y-14581715D01*
X6932769Y-14581715D02*
X6970864Y-14581715D01*
X6970864Y-14581715D02*
X6989912Y-14591238D01*
X6989912Y-14591238D02*
X6999436Y-14600762D01*
X6999436Y-14600762D02*
X7008959Y-14619810D01*
X7008959Y-14619810D02*
X7008959Y-14629334D01*
X7008959Y-14629334D02*
X6999436Y-14648381D01*
X6999436Y-14648381D02*
X6989912Y-14657905D01*
X6989912Y-14657905D02*
X6970864Y-14667429D01*
X6970864Y-14667429D02*
X6932769Y-14667429D01*
X6932769Y-14667429D02*
X6913721Y-14676953D01*
X6913721Y-14676953D02*
X6904198Y-14686477D01*
X6904198Y-14686477D02*
X6894674Y-14705524D01*
X6894674Y-14705524D02*
X6894674Y-14743619D01*
X6894674Y-14743619D02*
X6904198Y-14762667D01*
X6904198Y-14762667D02*
X6913721Y-14772191D01*
X6913721Y-14772191D02*
X6932769Y-14781715D01*
X6932769Y-14781715D02*
X6970864Y-14781715D01*
X6970864Y-14781715D02*
X6989912Y-14772191D01*
X6989912Y-14772191D02*
X6999436Y-14762667D01*
X6999436Y-14762667D02*
X7008959Y-14743619D01*
X7008959Y-14743619D02*
X7008959Y-14705524D01*
X7008959Y-14705524D02*
X6999436Y-14686477D01*
X6999436Y-14686477D02*
X6989912Y-14676953D01*
X6989912Y-14676953D02*
X6970864Y-14667429D01*
X7247055Y-14781715D02*
X7247055Y-14581715D01*
X7332769Y-14781715D02*
X7332769Y-14676953D01*
X7332769Y-14676953D02*
X7323245Y-14657905D01*
X7323245Y-14657905D02*
X7304198Y-14648381D01*
X7304198Y-14648381D02*
X7275626Y-14648381D01*
X7275626Y-14648381D02*
X7256579Y-14657905D01*
X7256579Y-14657905D02*
X7247055Y-14667429D01*
X7456579Y-14781715D02*
X7437531Y-14772191D01*
X7437531Y-14772191D02*
X7428007Y-14762667D01*
X7428007Y-14762667D02*
X7418483Y-14743619D01*
X7418483Y-14743619D02*
X7418483Y-14686477D01*
X7418483Y-14686477D02*
X7428007Y-14667429D01*
X7428007Y-14667429D02*
X7437531Y-14657905D01*
X7437531Y-14657905D02*
X7456579Y-14648381D01*
X7456579Y-14648381D02*
X7485150Y-14648381D01*
X7485150Y-14648381D02*
X7504198Y-14657905D01*
X7504198Y-14657905D02*
X7513721Y-14667429D01*
X7513721Y-14667429D02*
X7523245Y-14686477D01*
X7523245Y-14686477D02*
X7523245Y-14743619D01*
X7523245Y-14743619D02*
X7513721Y-14762667D01*
X7513721Y-14762667D02*
X7504198Y-14772191D01*
X7504198Y-14772191D02*
X7485150Y-14781715D01*
X7485150Y-14781715D02*
X7456579Y-14781715D01*
X7637531Y-14781715D02*
X7618483Y-14772191D01*
X7618483Y-14772191D02*
X7608960Y-14753143D01*
X7608960Y-14753143D02*
X7608960Y-14581715D01*
X7789912Y-14772191D02*
X7770864Y-14781715D01*
X7770864Y-14781715D02*
X7732769Y-14781715D01*
X7732769Y-14781715D02*
X7713721Y-14772191D01*
X7713721Y-14772191D02*
X7704198Y-14753143D01*
X7704198Y-14753143D02*
X7704198Y-14676953D01*
X7704198Y-14676953D02*
X7713721Y-14657905D01*
X7713721Y-14657905D02*
X7732769Y-14648381D01*
X7732769Y-14648381D02*
X7770864Y-14648381D01*
X7770864Y-14648381D02*
X7789912Y-14657905D01*
X7789912Y-14657905D02*
X7799436Y-14676953D01*
X7799436Y-14676953D02*
X7799436Y-14696000D01*
X7799436Y-14696000D02*
X7704198Y-14715048D01*
X7875626Y-14772191D02*
X7894674Y-14781715D01*
X7894674Y-14781715D02*
X7932769Y-14781715D01*
X7932769Y-14781715D02*
X7951817Y-14772191D01*
X7951817Y-14772191D02*
X7961341Y-14753143D01*
X7961341Y-14753143D02*
X7961341Y-14743619D01*
X7961341Y-14743619D02*
X7951817Y-14724572D01*
X7951817Y-14724572D02*
X7932769Y-14715048D01*
X7932769Y-14715048D02*
X7904198Y-14715048D01*
X7904198Y-14715048D02*
X7885150Y-14705524D01*
X7885150Y-14705524D02*
X7875626Y-14686477D01*
X7875626Y-14686477D02*
X7875626Y-14676953D01*
X7875626Y-14676953D02*
X7885150Y-14657905D01*
X7885150Y-14657905D02*
X7904198Y-14648381D01*
X7904198Y-14648381D02*
X7932769Y-14648381D01*
X7932769Y-14648381D02*
X7951817Y-14657905D01*
X8028007Y-14857905D02*
X8037531Y-14848381D01*
X8037531Y-14848381D02*
X8056579Y-14819810D01*
X8056579Y-14819810D02*
X8066102Y-14800762D01*
X8066102Y-14800762D02*
X8075626Y-14772191D01*
X8075626Y-14772191D02*
X8085150Y-14724572D01*
X8085150Y-14724572D02*
X8085150Y-14686477D01*
X8085150Y-14686477D02*
X8075626Y-14638857D01*
X8075626Y-14638857D02*
X8066102Y-14610286D01*
X8066102Y-14610286D02*
X8056579Y-14591238D01*
X8056579Y-14591238D02*
X8037531Y-14562667D01*
X8037531Y-14562667D02*
X8028007Y-14553143D01*
X8389912Y-14857905D02*
X8380388Y-14848381D01*
X8380388Y-14848381D02*
X8361341Y-14819810D01*
X8361341Y-14819810D02*
X8351817Y-14800762D01*
X8351817Y-14800762D02*
X8342293Y-14772191D01*
X8342293Y-14772191D02*
X8332769Y-14724572D01*
X8332769Y-14724572D02*
X8332769Y-14686477D01*
X8332769Y-14686477D02*
X8342293Y-14638857D01*
X8342293Y-14638857D02*
X8351817Y-14610286D01*
X8351817Y-14610286D02*
X8361341Y-14591238D01*
X8361341Y-14591238D02*
X8380388Y-14562667D01*
X8380388Y-14562667D02*
X8389912Y-14553143D01*
X8466103Y-14648381D02*
X8466103Y-14781715D01*
X8466103Y-14667429D02*
X8475626Y-14657905D01*
X8475626Y-14657905D02*
X8494674Y-14648381D01*
X8494674Y-14648381D02*
X8523245Y-14648381D01*
X8523245Y-14648381D02*
X8542293Y-14657905D01*
X8542293Y-14657905D02*
X8551817Y-14676953D01*
X8551817Y-14676953D02*
X8551817Y-14781715D01*
X8675626Y-14781715D02*
X8656579Y-14772191D01*
X8656579Y-14772191D02*
X8647055Y-14762667D01*
X8647055Y-14762667D02*
X8637531Y-14743619D01*
X8637531Y-14743619D02*
X8637531Y-14686477D01*
X8637531Y-14686477D02*
X8647055Y-14667429D01*
X8647055Y-14667429D02*
X8656579Y-14657905D01*
X8656579Y-14657905D02*
X8675626Y-14648381D01*
X8675626Y-14648381D02*
X8704198Y-14648381D01*
X8704198Y-14648381D02*
X8723245Y-14657905D01*
X8723245Y-14657905D02*
X8732769Y-14667429D01*
X8732769Y-14667429D02*
X8742293Y-14686477D01*
X8742293Y-14686477D02*
X8742293Y-14743619D01*
X8742293Y-14743619D02*
X8732769Y-14762667D01*
X8732769Y-14762667D02*
X8723245Y-14772191D01*
X8723245Y-14772191D02*
X8704198Y-14781715D01*
X8704198Y-14781715D02*
X8675626Y-14781715D01*
X8799436Y-14648381D02*
X8875626Y-14648381D01*
X8828007Y-14581715D02*
X8828007Y-14753143D01*
X8828007Y-14753143D02*
X8837531Y-14772191D01*
X8837531Y-14772191D02*
X8856579Y-14781715D01*
X8856579Y-14781715D02*
X8875626Y-14781715D01*
X9094674Y-14648381D02*
X9094674Y-14848381D01*
X9094674Y-14657905D02*
X9113722Y-14648381D01*
X9113722Y-14648381D02*
X9151817Y-14648381D01*
X9151817Y-14648381D02*
X9170865Y-14657905D01*
X9170865Y-14657905D02*
X9180388Y-14667429D01*
X9180388Y-14667429D02*
X9189912Y-14686477D01*
X9189912Y-14686477D02*
X9189912Y-14743619D01*
X9189912Y-14743619D02*
X9180388Y-14762667D01*
X9180388Y-14762667D02*
X9170865Y-14772191D01*
X9170865Y-14772191D02*
X9151817Y-14781715D01*
X9151817Y-14781715D02*
X9113722Y-14781715D01*
X9113722Y-14781715D02*
X9094674Y-14772191D01*
X9304198Y-14781715D02*
X9285150Y-14772191D01*
X9285150Y-14772191D02*
X9275626Y-14753143D01*
X9275626Y-14753143D02*
X9275626Y-14581715D01*
X9466103Y-14781715D02*
X9466103Y-14676953D01*
X9466103Y-14676953D02*
X9456579Y-14657905D01*
X9456579Y-14657905D02*
X9437531Y-14648381D01*
X9437531Y-14648381D02*
X9399436Y-14648381D01*
X9399436Y-14648381D02*
X9380388Y-14657905D01*
X9466103Y-14772191D02*
X9447055Y-14781715D01*
X9447055Y-14781715D02*
X9399436Y-14781715D01*
X9399436Y-14781715D02*
X9380388Y-14772191D01*
X9380388Y-14772191D02*
X9370865Y-14753143D01*
X9370865Y-14753143D02*
X9370865Y-14734096D01*
X9370865Y-14734096D02*
X9380388Y-14715048D01*
X9380388Y-14715048D02*
X9399436Y-14705524D01*
X9399436Y-14705524D02*
X9447055Y-14705524D01*
X9447055Y-14705524D02*
X9466103Y-14696000D01*
X9532769Y-14648381D02*
X9608960Y-14648381D01*
X9561341Y-14581715D02*
X9561341Y-14753143D01*
X9561341Y-14753143D02*
X9570865Y-14772191D01*
X9570865Y-14772191D02*
X9589912Y-14781715D01*
X9589912Y-14781715D02*
X9608960Y-14781715D01*
X9751817Y-14772191D02*
X9732769Y-14781715D01*
X9732769Y-14781715D02*
X9694674Y-14781715D01*
X9694674Y-14781715D02*
X9675626Y-14772191D01*
X9675626Y-14772191D02*
X9666103Y-14753143D01*
X9666103Y-14753143D02*
X9666103Y-14676953D01*
X9666103Y-14676953D02*
X9675626Y-14657905D01*
X9675626Y-14657905D02*
X9694674Y-14648381D01*
X9694674Y-14648381D02*
X9732769Y-14648381D01*
X9732769Y-14648381D02*
X9751817Y-14657905D01*
X9751817Y-14657905D02*
X9761341Y-14676953D01*
X9761341Y-14676953D02*
X9761341Y-14696000D01*
X9761341Y-14696000D02*
X9666103Y-14715048D01*
X9932769Y-14781715D02*
X9932769Y-14581715D01*
X9932769Y-14772191D02*
X9913722Y-14781715D01*
X9913722Y-14781715D02*
X9875626Y-14781715D01*
X9875626Y-14781715D02*
X9856579Y-14772191D01*
X9856579Y-14772191D02*
X9847055Y-14762667D01*
X9847055Y-14762667D02*
X9837531Y-14743619D01*
X9837531Y-14743619D02*
X9837531Y-14686477D01*
X9837531Y-14686477D02*
X9847055Y-14667429D01*
X9847055Y-14667429D02*
X9856579Y-14657905D01*
X9856579Y-14657905D02*
X9875626Y-14648381D01*
X9875626Y-14648381D02*
X9913722Y-14648381D01*
X9913722Y-14648381D02*
X9932769Y-14657905D01*
X10008960Y-14857905D02*
X10018484Y-14848381D01*
X10018484Y-14848381D02*
X10037531Y-14819810D01*
X10037531Y-14819810D02*
X10047055Y-14800762D01*
X10047055Y-14800762D02*
X10056579Y-14772191D01*
X10056579Y-14772191D02*
X10066103Y-14724572D01*
X10066103Y-14724572D02*
X10066103Y-14686477D01*
X10066103Y-14686477D02*
X10056579Y-14638857D01*
X10056579Y-14638857D02*
X10047055Y-14610286D01*
X10047055Y-14610286D02*
X10037531Y-14591238D01*
X10037531Y-14591238D02*
X10018484Y-14562667D01*
X10018484Y-14562667D02*
X10008960Y-14553143D01*
X2962468Y-14895231D02*
X2962468Y-15095231D01*
X2862468Y-14995231D02*
X3062468Y-14995231D01*
X3408959Y-14953381D02*
X3408959Y-15086715D01*
X3361340Y-14877191D02*
X3313721Y-15020048D01*
X3313721Y-15020048D02*
X3437531Y-15020048D01*
X3513721Y-15067667D02*
X3523245Y-15077191D01*
X3523245Y-15077191D02*
X3513721Y-15086715D01*
X3513721Y-15086715D02*
X3504197Y-15077191D01*
X3504197Y-15077191D02*
X3513721Y-15067667D01*
X3513721Y-15067667D02*
X3513721Y-15086715D01*
X3618483Y-15086715D02*
X3656578Y-15086715D01*
X3656578Y-15086715D02*
X3675626Y-15077191D01*
X3675626Y-15077191D02*
X3685150Y-15067667D01*
X3685150Y-15067667D02*
X3704197Y-15039096D01*
X3704197Y-15039096D02*
X3713721Y-15001000D01*
X3713721Y-15001000D02*
X3713721Y-14924810D01*
X3713721Y-14924810D02*
X3704197Y-14905762D01*
X3704197Y-14905762D02*
X3694673Y-14896238D01*
X3694673Y-14896238D02*
X3675626Y-14886715D01*
X3675626Y-14886715D02*
X3637531Y-14886715D01*
X3637531Y-14886715D02*
X3618483Y-14896238D01*
X3618483Y-14896238D02*
X3608959Y-14905762D01*
X3608959Y-14905762D02*
X3599435Y-14924810D01*
X3599435Y-14924810D02*
X3599435Y-14972429D01*
X3599435Y-14972429D02*
X3608959Y-14991477D01*
X3608959Y-14991477D02*
X3618483Y-15001000D01*
X3618483Y-15001000D02*
X3637531Y-15010524D01*
X3637531Y-15010524D02*
X3675626Y-15010524D01*
X3675626Y-15010524D02*
X3694673Y-15001000D01*
X3694673Y-15001000D02*
X3704197Y-14991477D01*
X3704197Y-14991477D02*
X3713721Y-14972429D01*
X3837531Y-14886715D02*
X3856578Y-14886715D01*
X3856578Y-14886715D02*
X3875626Y-14896238D01*
X3875626Y-14896238D02*
X3885150Y-14905762D01*
X3885150Y-14905762D02*
X3894673Y-14924810D01*
X3894673Y-14924810D02*
X3904197Y-14962905D01*
X3904197Y-14962905D02*
X3904197Y-15010524D01*
X3904197Y-15010524D02*
X3894673Y-15048619D01*
X3894673Y-15048619D02*
X3885150Y-15067667D01*
X3885150Y-15067667D02*
X3875626Y-15077191D01*
X3875626Y-15077191D02*
X3856578Y-15086715D01*
X3856578Y-15086715D02*
X3837531Y-15086715D01*
X3837531Y-15086715D02*
X3818483Y-15077191D01*
X3818483Y-15077191D02*
X3808959Y-15067667D01*
X3808959Y-15067667D02*
X3799435Y-15048619D01*
X3799435Y-15048619D02*
X3789912Y-15010524D01*
X3789912Y-15010524D02*
X3789912Y-14962905D01*
X3789912Y-14962905D02*
X3799435Y-14924810D01*
X3799435Y-14924810D02*
X3808959Y-14905762D01*
X3808959Y-14905762D02*
X3818483Y-14896238D01*
X3818483Y-14896238D02*
X3837531Y-14886715D01*
X4028007Y-14886715D02*
X4047054Y-14886715D01*
X4047054Y-14886715D02*
X4066102Y-14896238D01*
X4066102Y-14896238D02*
X4075626Y-14905762D01*
X4075626Y-14905762D02*
X4085150Y-14924810D01*
X4085150Y-14924810D02*
X4094673Y-14962905D01*
X4094673Y-14962905D02*
X4094673Y-15010524D01*
X4094673Y-15010524D02*
X4085150Y-15048619D01*
X4085150Y-15048619D02*
X4075626Y-15067667D01*
X4075626Y-15067667D02*
X4066102Y-15077191D01*
X4066102Y-15077191D02*
X4047054Y-15086715D01*
X4047054Y-15086715D02*
X4028007Y-15086715D01*
X4028007Y-15086715D02*
X4008959Y-15077191D01*
X4008959Y-15077191D02*
X3999435Y-15067667D01*
X3999435Y-15067667D02*
X3989912Y-15048619D01*
X3989912Y-15048619D02*
X3980388Y-15010524D01*
X3980388Y-15010524D02*
X3980388Y-14962905D01*
X3980388Y-14962905D02*
X3989912Y-14924810D01*
X3989912Y-14924810D02*
X3999435Y-14905762D01*
X3999435Y-14905762D02*
X4008959Y-14896238D01*
X4008959Y-14896238D02*
X4028007Y-14886715D01*
X4180388Y-15086715D02*
X4180388Y-14953381D01*
X4180388Y-14972429D02*
X4189912Y-14962905D01*
X4189912Y-14962905D02*
X4208959Y-14953381D01*
X4208959Y-14953381D02*
X4237531Y-14953381D01*
X4237531Y-14953381D02*
X4256578Y-14962905D01*
X4256578Y-14962905D02*
X4266102Y-14981953D01*
X4266102Y-14981953D02*
X4266102Y-15086715D01*
X4266102Y-14981953D02*
X4275626Y-14962905D01*
X4275626Y-14962905D02*
X4294674Y-14953381D01*
X4294674Y-14953381D02*
X4323245Y-14953381D01*
X4323245Y-14953381D02*
X4342293Y-14962905D01*
X4342293Y-14962905D02*
X4351816Y-14981953D01*
X4351816Y-14981953D02*
X4351816Y-15086715D01*
X4447055Y-15086715D02*
X4447055Y-14953381D01*
X4447055Y-14972429D02*
X4456578Y-14962905D01*
X4456578Y-14962905D02*
X4475626Y-14953381D01*
X4475626Y-14953381D02*
X4504197Y-14953381D01*
X4504197Y-14953381D02*
X4523245Y-14962905D01*
X4523245Y-14962905D02*
X4532769Y-14981953D01*
X4532769Y-14981953D02*
X4532769Y-15086715D01*
X4532769Y-14981953D02*
X4542293Y-14962905D01*
X4542293Y-14962905D02*
X4561340Y-14953381D01*
X4561340Y-14953381D02*
X4589912Y-14953381D01*
X4589912Y-14953381D02*
X4608959Y-14962905D01*
X4608959Y-14962905D02*
X4618483Y-14981953D01*
X4618483Y-14981953D02*
X4618483Y-15086715D01*
X5008959Y-14877191D02*
X4837531Y-15134334D01*
X5266102Y-14886715D02*
X5285150Y-14886715D01*
X5285150Y-14886715D02*
X5304198Y-14896238D01*
X5304198Y-14896238D02*
X5313721Y-14905762D01*
X5313721Y-14905762D02*
X5323245Y-14924810D01*
X5323245Y-14924810D02*
X5332769Y-14962905D01*
X5332769Y-14962905D02*
X5332769Y-15010524D01*
X5332769Y-15010524D02*
X5323245Y-15048619D01*
X5323245Y-15048619D02*
X5313721Y-15067667D01*
X5313721Y-15067667D02*
X5304198Y-15077191D01*
X5304198Y-15077191D02*
X5285150Y-15086715D01*
X5285150Y-15086715D02*
X5266102Y-15086715D01*
X5266102Y-15086715D02*
X5247055Y-15077191D01*
X5247055Y-15077191D02*
X5237531Y-15067667D01*
X5237531Y-15067667D02*
X5228007Y-15048619D01*
X5228007Y-15048619D02*
X5218483Y-15010524D01*
X5218483Y-15010524D02*
X5218483Y-14962905D01*
X5218483Y-14962905D02*
X5228007Y-14924810D01*
X5228007Y-14924810D02*
X5237531Y-14905762D01*
X5237531Y-14905762D02*
X5247055Y-14896238D01*
X5247055Y-14896238D02*
X5266102Y-14886715D01*
X5418483Y-15067667D02*
X5428007Y-15077191D01*
X5428007Y-15077191D02*
X5418483Y-15086715D01*
X5418483Y-15086715D02*
X5408959Y-15077191D01*
X5408959Y-15077191D02*
X5418483Y-15067667D01*
X5418483Y-15067667D02*
X5418483Y-15086715D01*
X5618483Y-15086715D02*
X5504198Y-15086715D01*
X5561340Y-15086715D02*
X5561340Y-14886715D01*
X5561340Y-14886715D02*
X5542293Y-14915286D01*
X5542293Y-14915286D02*
X5523245Y-14934334D01*
X5523245Y-14934334D02*
X5504198Y-14943857D01*
X5713721Y-15086715D02*
X5751816Y-15086715D01*
X5751816Y-15086715D02*
X5770864Y-15077191D01*
X5770864Y-15077191D02*
X5780388Y-15067667D01*
X5780388Y-15067667D02*
X5799436Y-15039096D01*
X5799436Y-15039096D02*
X5808959Y-15001000D01*
X5808959Y-15001000D02*
X5808959Y-14924810D01*
X5808959Y-14924810D02*
X5799436Y-14905762D01*
X5799436Y-14905762D02*
X5789912Y-14896238D01*
X5789912Y-14896238D02*
X5770864Y-14886715D01*
X5770864Y-14886715D02*
X5732769Y-14886715D01*
X5732769Y-14886715D02*
X5713721Y-14896238D01*
X5713721Y-14896238D02*
X5704197Y-14905762D01*
X5704197Y-14905762D02*
X5694674Y-14924810D01*
X5694674Y-14924810D02*
X5694674Y-14972429D01*
X5694674Y-14972429D02*
X5704197Y-14991477D01*
X5704197Y-14991477D02*
X5713721Y-15001000D01*
X5713721Y-15001000D02*
X5732769Y-15010524D01*
X5732769Y-15010524D02*
X5770864Y-15010524D01*
X5770864Y-15010524D02*
X5789912Y-15001000D01*
X5789912Y-15001000D02*
X5799436Y-14991477D01*
X5799436Y-14991477D02*
X5808959Y-14972429D01*
X5885150Y-14905762D02*
X5894674Y-14896238D01*
X5894674Y-14896238D02*
X5913721Y-14886715D01*
X5913721Y-14886715D02*
X5961340Y-14886715D01*
X5961340Y-14886715D02*
X5980388Y-14896238D01*
X5980388Y-14896238D02*
X5989912Y-14905762D01*
X5989912Y-14905762D02*
X5999436Y-14924810D01*
X5999436Y-14924810D02*
X5999436Y-14943857D01*
X5999436Y-14943857D02*
X5989912Y-14972429D01*
X5989912Y-14972429D02*
X5875626Y-15086715D01*
X5875626Y-15086715D02*
X5999436Y-15086715D01*
X6094674Y-15086715D02*
X6132769Y-15086715D01*
X6132769Y-15086715D02*
X6151817Y-15077191D01*
X6151817Y-15077191D02*
X6161340Y-15067667D01*
X6161340Y-15067667D02*
X6180388Y-15039096D01*
X6180388Y-15039096D02*
X6189912Y-15001000D01*
X6189912Y-15001000D02*
X6189912Y-14924810D01*
X6189912Y-14924810D02*
X6180388Y-14905762D01*
X6180388Y-14905762D02*
X6170864Y-14896238D01*
X6170864Y-14896238D02*
X6151817Y-14886715D01*
X6151817Y-14886715D02*
X6113721Y-14886715D01*
X6113721Y-14886715D02*
X6094674Y-14896238D01*
X6094674Y-14896238D02*
X6085150Y-14905762D01*
X6085150Y-14905762D02*
X6075626Y-14924810D01*
X6075626Y-14924810D02*
X6075626Y-14972429D01*
X6075626Y-14972429D02*
X6085150Y-14991477D01*
X6085150Y-14991477D02*
X6094674Y-15001000D01*
X6094674Y-15001000D02*
X6113721Y-15010524D01*
X6113721Y-15010524D02*
X6151817Y-15010524D01*
X6151817Y-15010524D02*
X6170864Y-15001000D01*
X6170864Y-15001000D02*
X6180388Y-14991477D01*
X6180388Y-14991477D02*
X6189912Y-14972429D01*
X6266102Y-14886715D02*
X6266102Y-14924810D01*
X6342293Y-14886715D02*
X6342293Y-14924810D01*
X6637531Y-15162905D02*
X6628007Y-15153381D01*
X6628007Y-15153381D02*
X6608959Y-15124810D01*
X6608959Y-15124810D02*
X6599436Y-15105762D01*
X6599436Y-15105762D02*
X6589912Y-15077191D01*
X6589912Y-15077191D02*
X6580388Y-15029572D01*
X6580388Y-15029572D02*
X6580388Y-14991477D01*
X6580388Y-14991477D02*
X6589912Y-14943857D01*
X6589912Y-14943857D02*
X6599436Y-14915286D01*
X6599436Y-14915286D02*
X6608959Y-14896238D01*
X6608959Y-14896238D02*
X6628007Y-14867667D01*
X6628007Y-14867667D02*
X6637531Y-14858143D01*
X6694674Y-14886715D02*
X6818483Y-14886715D01*
X6818483Y-14886715D02*
X6751817Y-14962905D01*
X6751817Y-14962905D02*
X6780388Y-14962905D01*
X6780388Y-14962905D02*
X6799436Y-14972429D01*
X6799436Y-14972429D02*
X6808959Y-14981953D01*
X6808959Y-14981953D02*
X6818483Y-15001000D01*
X6818483Y-15001000D02*
X6818483Y-15048619D01*
X6818483Y-15048619D02*
X6808959Y-15067667D01*
X6808959Y-15067667D02*
X6799436Y-15077191D01*
X6799436Y-15077191D02*
X6780388Y-15086715D01*
X6780388Y-15086715D02*
X6723245Y-15086715D01*
X6723245Y-15086715D02*
X6704198Y-15077191D01*
X6704198Y-15077191D02*
X6694674Y-15067667D01*
X6989912Y-14953381D02*
X6989912Y-15086715D01*
X6942293Y-14877191D02*
X6894674Y-15020048D01*
X6894674Y-15020048D02*
X7018483Y-15020048D01*
X7247055Y-15086715D02*
X7247055Y-14886715D01*
X7332769Y-15086715D02*
X7332769Y-14981953D01*
X7332769Y-14981953D02*
X7323245Y-14962905D01*
X7323245Y-14962905D02*
X7304198Y-14953381D01*
X7304198Y-14953381D02*
X7275626Y-14953381D01*
X7275626Y-14953381D02*
X7256579Y-14962905D01*
X7256579Y-14962905D02*
X7247055Y-14972429D01*
X7456579Y-15086715D02*
X7437531Y-15077191D01*
X7437531Y-15077191D02*
X7428007Y-15067667D01*
X7428007Y-15067667D02*
X7418483Y-15048619D01*
X7418483Y-15048619D02*
X7418483Y-14991477D01*
X7418483Y-14991477D02*
X7428007Y-14972429D01*
X7428007Y-14972429D02*
X7437531Y-14962905D01*
X7437531Y-14962905D02*
X7456579Y-14953381D01*
X7456579Y-14953381D02*
X7485150Y-14953381D01*
X7485150Y-14953381D02*
X7504198Y-14962905D01*
X7504198Y-14962905D02*
X7513721Y-14972429D01*
X7513721Y-14972429D02*
X7523245Y-14991477D01*
X7523245Y-14991477D02*
X7523245Y-15048619D01*
X7523245Y-15048619D02*
X7513721Y-15067667D01*
X7513721Y-15067667D02*
X7504198Y-15077191D01*
X7504198Y-15077191D02*
X7485150Y-15086715D01*
X7485150Y-15086715D02*
X7456579Y-15086715D01*
X7637531Y-15086715D02*
X7618483Y-15077191D01*
X7618483Y-15077191D02*
X7608960Y-15058143D01*
X7608960Y-15058143D02*
X7608960Y-14886715D01*
X7789912Y-15077191D02*
X7770864Y-15086715D01*
X7770864Y-15086715D02*
X7732769Y-15086715D01*
X7732769Y-15086715D02*
X7713721Y-15077191D01*
X7713721Y-15077191D02*
X7704198Y-15058143D01*
X7704198Y-15058143D02*
X7704198Y-14981953D01*
X7704198Y-14981953D02*
X7713721Y-14962905D01*
X7713721Y-14962905D02*
X7732769Y-14953381D01*
X7732769Y-14953381D02*
X7770864Y-14953381D01*
X7770864Y-14953381D02*
X7789912Y-14962905D01*
X7789912Y-14962905D02*
X7799436Y-14981953D01*
X7799436Y-14981953D02*
X7799436Y-15001000D01*
X7799436Y-15001000D02*
X7704198Y-15020048D01*
X7875626Y-15077191D02*
X7894674Y-15086715D01*
X7894674Y-15086715D02*
X7932769Y-15086715D01*
X7932769Y-15086715D02*
X7951817Y-15077191D01*
X7951817Y-15077191D02*
X7961341Y-15058143D01*
X7961341Y-15058143D02*
X7961341Y-15048619D01*
X7961341Y-15048619D02*
X7951817Y-15029572D01*
X7951817Y-15029572D02*
X7932769Y-15020048D01*
X7932769Y-15020048D02*
X7904198Y-15020048D01*
X7904198Y-15020048D02*
X7885150Y-15010524D01*
X7885150Y-15010524D02*
X7875626Y-14991477D01*
X7875626Y-14991477D02*
X7875626Y-14981953D01*
X7875626Y-14981953D02*
X7885150Y-14962905D01*
X7885150Y-14962905D02*
X7904198Y-14953381D01*
X7904198Y-14953381D02*
X7932769Y-14953381D01*
X7932769Y-14953381D02*
X7951817Y-14962905D01*
X8028007Y-15162905D02*
X8037531Y-15153381D01*
X8037531Y-15153381D02*
X8056579Y-15124810D01*
X8056579Y-15124810D02*
X8066102Y-15105762D01*
X8066102Y-15105762D02*
X8075626Y-15077191D01*
X8075626Y-15077191D02*
X8085150Y-15029572D01*
X8085150Y-15029572D02*
X8085150Y-14991477D01*
X8085150Y-14991477D02*
X8075626Y-14943857D01*
X8075626Y-14943857D02*
X8066102Y-14915286D01*
X8066102Y-14915286D02*
X8056579Y-14896238D01*
X8056579Y-14896238D02*
X8037531Y-14867667D01*
X8037531Y-14867667D02*
X8028007Y-14858143D01*
X8389912Y-15162905D02*
X8380388Y-15153381D01*
X8380388Y-15153381D02*
X8361341Y-15124810D01*
X8361341Y-15124810D02*
X8351817Y-15105762D01*
X8351817Y-15105762D02*
X8342293Y-15077191D01*
X8342293Y-15077191D02*
X8332769Y-15029572D01*
X8332769Y-15029572D02*
X8332769Y-14991477D01*
X8332769Y-14991477D02*
X8342293Y-14943857D01*
X8342293Y-14943857D02*
X8351817Y-14915286D01*
X8351817Y-14915286D02*
X8361341Y-14896238D01*
X8361341Y-14896238D02*
X8380388Y-14867667D01*
X8380388Y-14867667D02*
X8389912Y-14858143D01*
X8466103Y-14953381D02*
X8466103Y-15086715D01*
X8466103Y-14972429D02*
X8475626Y-14962905D01*
X8475626Y-14962905D02*
X8494674Y-14953381D01*
X8494674Y-14953381D02*
X8523245Y-14953381D01*
X8523245Y-14953381D02*
X8542293Y-14962905D01*
X8542293Y-14962905D02*
X8551817Y-14981953D01*
X8551817Y-14981953D02*
X8551817Y-15086715D01*
X8675626Y-15086715D02*
X8656579Y-15077191D01*
X8656579Y-15077191D02*
X8647055Y-15067667D01*
X8647055Y-15067667D02*
X8637531Y-15048619D01*
X8637531Y-15048619D02*
X8637531Y-14991477D01*
X8637531Y-14991477D02*
X8647055Y-14972429D01*
X8647055Y-14972429D02*
X8656579Y-14962905D01*
X8656579Y-14962905D02*
X8675626Y-14953381D01*
X8675626Y-14953381D02*
X8704198Y-14953381D01*
X8704198Y-14953381D02*
X8723245Y-14962905D01*
X8723245Y-14962905D02*
X8732769Y-14972429D01*
X8732769Y-14972429D02*
X8742293Y-14991477D01*
X8742293Y-14991477D02*
X8742293Y-15048619D01*
X8742293Y-15048619D02*
X8732769Y-15067667D01*
X8732769Y-15067667D02*
X8723245Y-15077191D01*
X8723245Y-15077191D02*
X8704198Y-15086715D01*
X8704198Y-15086715D02*
X8675626Y-15086715D01*
X8799436Y-14953381D02*
X8875626Y-14953381D01*
X8828007Y-14886715D02*
X8828007Y-15058143D01*
X8828007Y-15058143D02*
X8837531Y-15077191D01*
X8837531Y-15077191D02*
X8856579Y-15086715D01*
X8856579Y-15086715D02*
X8875626Y-15086715D01*
X9094674Y-14953381D02*
X9094674Y-15153381D01*
X9094674Y-14962905D02*
X9113722Y-14953381D01*
X9113722Y-14953381D02*
X9151817Y-14953381D01*
X9151817Y-14953381D02*
X9170865Y-14962905D01*
X9170865Y-14962905D02*
X9180388Y-14972429D01*
X9180388Y-14972429D02*
X9189912Y-14991477D01*
X9189912Y-14991477D02*
X9189912Y-15048619D01*
X9189912Y-15048619D02*
X9180388Y-15067667D01*
X9180388Y-15067667D02*
X9170865Y-15077191D01*
X9170865Y-15077191D02*
X9151817Y-15086715D01*
X9151817Y-15086715D02*
X9113722Y-15086715D01*
X9113722Y-15086715D02*
X9094674Y-15077191D01*
X9304198Y-15086715D02*
X9285150Y-15077191D01*
X9285150Y-15077191D02*
X9275626Y-15058143D01*
X9275626Y-15058143D02*
X9275626Y-14886715D01*
X9466103Y-15086715D02*
X9466103Y-14981953D01*
X9466103Y-14981953D02*
X9456579Y-14962905D01*
X9456579Y-14962905D02*
X9437531Y-14953381D01*
X9437531Y-14953381D02*
X9399436Y-14953381D01*
X9399436Y-14953381D02*
X9380388Y-14962905D01*
X9466103Y-15077191D02*
X9447055Y-15086715D01*
X9447055Y-15086715D02*
X9399436Y-15086715D01*
X9399436Y-15086715D02*
X9380388Y-15077191D01*
X9380388Y-15077191D02*
X9370865Y-15058143D01*
X9370865Y-15058143D02*
X9370865Y-15039096D01*
X9370865Y-15039096D02*
X9380388Y-15020048D01*
X9380388Y-15020048D02*
X9399436Y-15010524D01*
X9399436Y-15010524D02*
X9447055Y-15010524D01*
X9447055Y-15010524D02*
X9466103Y-15001000D01*
X9532769Y-14953381D02*
X9608960Y-14953381D01*
X9561341Y-14886715D02*
X9561341Y-15058143D01*
X9561341Y-15058143D02*
X9570865Y-15077191D01*
X9570865Y-15077191D02*
X9589912Y-15086715D01*
X9589912Y-15086715D02*
X9608960Y-15086715D01*
X9751817Y-15077191D02*
X9732769Y-15086715D01*
X9732769Y-15086715D02*
X9694674Y-15086715D01*
X9694674Y-15086715D02*
X9675626Y-15077191D01*
X9675626Y-15077191D02*
X9666103Y-15058143D01*
X9666103Y-15058143D02*
X9666103Y-14981953D01*
X9666103Y-14981953D02*
X9675626Y-14962905D01*
X9675626Y-14962905D02*
X9694674Y-14953381D01*
X9694674Y-14953381D02*
X9732769Y-14953381D01*
X9732769Y-14953381D02*
X9751817Y-14962905D01*
X9751817Y-14962905D02*
X9761341Y-14981953D01*
X9761341Y-14981953D02*
X9761341Y-15001000D01*
X9761341Y-15001000D02*
X9666103Y-15020048D01*
X9932769Y-15086715D02*
X9932769Y-14886715D01*
X9932769Y-15077191D02*
X9913722Y-15086715D01*
X9913722Y-15086715D02*
X9875626Y-15086715D01*
X9875626Y-15086715D02*
X9856579Y-15077191D01*
X9856579Y-15077191D02*
X9847055Y-15067667D01*
X9847055Y-15067667D02*
X9837531Y-15048619D01*
X9837531Y-15048619D02*
X9837531Y-14991477D01*
X9837531Y-14991477D02*
X9847055Y-14972429D01*
X9847055Y-14972429D02*
X9856579Y-14962905D01*
X9856579Y-14962905D02*
X9875626Y-14953381D01*
X9875626Y-14953381D02*
X9913722Y-14953381D01*
X9913722Y-14953381D02*
X9932769Y-14962905D01*
X10008960Y-15162905D02*
X10018484Y-15153381D01*
X10018484Y-15153381D02*
X10037531Y-15124810D01*
X10037531Y-15124810D02*
X10047055Y-15105762D01*
X10047055Y-15105762D02*
X10056579Y-15077191D01*
X10056579Y-15077191D02*
X10066103Y-15029572D01*
X10066103Y-15029572D02*
X10066103Y-14991477D01*
X10066103Y-14991477D02*
X10056579Y-14943857D01*
X10056579Y-14943857D02*
X10047055Y-14915286D01*
X10047055Y-14915286D02*
X10037531Y-14896238D01*
X10037531Y-14896238D02*
X10018484Y-14867667D01*
X10018484Y-14867667D02*
X10008960Y-14858143D01*
M02*
