%TF.GenerationSoftware,KiCad,Pcbnew,9.0.0*%
%TF.CreationDate,2025-11-03T03:19:49-06:00*%
%TF.ProjectId,Mau Keys,4d617520-4b65-4797-932e-6b696361645f,rev?*%
%TF.SameCoordinates,Original*%
%TF.FileFunction,Legend,Bot*%
%TF.FilePolarity,Positive*%
%FSLAX46Y46*%
G04 Gerber Fmt 4.6, Leading zero omitted, Abs format (unit mm)*
G04 Created by KiCad (PCBNEW 9.0.0) date 2025-11-03 03:19:49*
%MOMM*%
%LPD*%
G01*
G04 APERTURE LIST*
%ADD10C,0.150000*%
%ADD11C,0.300000*%
%ADD12C,1.752600*%
G04 APERTURE END LIST*
D10*
X132422809Y-68072295D02*
X132346619Y-68072295D01*
X132346619Y-68072295D02*
X132270428Y-68110390D01*
X132270428Y-68110390D02*
X132232333Y-68148485D01*
X132232333Y-68148485D02*
X132194238Y-68224676D01*
X132194238Y-68224676D02*
X132156143Y-68377057D01*
X132156143Y-68377057D02*
X132156143Y-68567533D01*
X132156143Y-68567533D02*
X132194238Y-68719914D01*
X132194238Y-68719914D02*
X132232333Y-68796104D01*
X132232333Y-68796104D02*
X132270428Y-68834200D01*
X132270428Y-68834200D02*
X132346619Y-68872295D01*
X132346619Y-68872295D02*
X132422809Y-68872295D01*
X132422809Y-68872295D02*
X132499000Y-68834200D01*
X132499000Y-68834200D02*
X132537095Y-68796104D01*
X132537095Y-68796104D02*
X132575190Y-68719914D01*
X132575190Y-68719914D02*
X132613286Y-68567533D01*
X132613286Y-68567533D02*
X132613286Y-68377057D01*
X132613286Y-68377057D02*
X132575190Y-68224676D01*
X132575190Y-68224676D02*
X132537095Y-68148485D01*
X132537095Y-68148485D02*
X132499000Y-68110390D01*
X132499000Y-68110390D02*
X132422809Y-68072295D01*
X131660904Y-68072295D02*
X131584714Y-68072295D01*
X131584714Y-68072295D02*
X131508523Y-68110390D01*
X131508523Y-68110390D02*
X131470428Y-68148485D01*
X131470428Y-68148485D02*
X131432333Y-68224676D01*
X131432333Y-68224676D02*
X131394238Y-68377057D01*
X131394238Y-68377057D02*
X131394238Y-68567533D01*
X131394238Y-68567533D02*
X131432333Y-68719914D01*
X131432333Y-68719914D02*
X131470428Y-68796104D01*
X131470428Y-68796104D02*
X131508523Y-68834200D01*
X131508523Y-68834200D02*
X131584714Y-68872295D01*
X131584714Y-68872295D02*
X131660904Y-68872295D01*
X131660904Y-68872295D02*
X131737095Y-68834200D01*
X131737095Y-68834200D02*
X131775190Y-68796104D01*
X131775190Y-68796104D02*
X131813285Y-68719914D01*
X131813285Y-68719914D02*
X131851381Y-68567533D01*
X131851381Y-68567533D02*
X131851381Y-68377057D01*
X131851381Y-68377057D02*
X131813285Y-68224676D01*
X131813285Y-68224676D02*
X131775190Y-68148485D01*
X131775190Y-68148485D02*
X131737095Y-68110390D01*
X131737095Y-68110390D02*
X131660904Y-68072295D01*
X130937095Y-68415152D02*
X131013285Y-68377057D01*
X131013285Y-68377057D02*
X131051380Y-68338961D01*
X131051380Y-68338961D02*
X131089476Y-68262771D01*
X131089476Y-68262771D02*
X131089476Y-68224676D01*
X131089476Y-68224676D02*
X131051380Y-68148485D01*
X131051380Y-68148485D02*
X131013285Y-68110390D01*
X131013285Y-68110390D02*
X130937095Y-68072295D01*
X130937095Y-68072295D02*
X130784714Y-68072295D01*
X130784714Y-68072295D02*
X130708523Y-68110390D01*
X130708523Y-68110390D02*
X130670428Y-68148485D01*
X130670428Y-68148485D02*
X130632333Y-68224676D01*
X130632333Y-68224676D02*
X130632333Y-68262771D01*
X130632333Y-68262771D02*
X130670428Y-68338961D01*
X130670428Y-68338961D02*
X130708523Y-68377057D01*
X130708523Y-68377057D02*
X130784714Y-68415152D01*
X130784714Y-68415152D02*
X130937095Y-68415152D01*
X130937095Y-68415152D02*
X131013285Y-68453247D01*
X131013285Y-68453247D02*
X131051380Y-68491342D01*
X131051380Y-68491342D02*
X131089476Y-68567533D01*
X131089476Y-68567533D02*
X131089476Y-68719914D01*
X131089476Y-68719914D02*
X131051380Y-68796104D01*
X131051380Y-68796104D02*
X131013285Y-68834200D01*
X131013285Y-68834200D02*
X130937095Y-68872295D01*
X130937095Y-68872295D02*
X130784714Y-68872295D01*
X130784714Y-68872295D02*
X130708523Y-68834200D01*
X130708523Y-68834200D02*
X130670428Y-68796104D01*
X130670428Y-68796104D02*
X130632333Y-68719914D01*
X130632333Y-68719914D02*
X130632333Y-68567533D01*
X130632333Y-68567533D02*
X130670428Y-68491342D01*
X130670428Y-68491342D02*
X130708523Y-68453247D01*
X130708523Y-68453247D02*
X130784714Y-68415152D01*
X132156143Y-91802295D02*
X132613286Y-91802295D01*
X132384714Y-91802295D02*
X132384714Y-91002295D01*
X132384714Y-91002295D02*
X132460905Y-91116580D01*
X132460905Y-91116580D02*
X132537095Y-91192771D01*
X132537095Y-91192771D02*
X132613286Y-91230866D01*
X131660904Y-91002295D02*
X131584714Y-91002295D01*
X131584714Y-91002295D02*
X131508523Y-91040390D01*
X131508523Y-91040390D02*
X131470428Y-91078485D01*
X131470428Y-91078485D02*
X131432333Y-91154676D01*
X131432333Y-91154676D02*
X131394238Y-91307057D01*
X131394238Y-91307057D02*
X131394238Y-91497533D01*
X131394238Y-91497533D02*
X131432333Y-91649914D01*
X131432333Y-91649914D02*
X131470428Y-91726104D01*
X131470428Y-91726104D02*
X131508523Y-91764200D01*
X131508523Y-91764200D02*
X131584714Y-91802295D01*
X131584714Y-91802295D02*
X131660904Y-91802295D01*
X131660904Y-91802295D02*
X131737095Y-91764200D01*
X131737095Y-91764200D02*
X131775190Y-91726104D01*
X131775190Y-91726104D02*
X131813285Y-91649914D01*
X131813285Y-91649914D02*
X131851381Y-91497533D01*
X131851381Y-91497533D02*
X131851381Y-91307057D01*
X131851381Y-91307057D02*
X131813285Y-91154676D01*
X131813285Y-91154676D02*
X131775190Y-91078485D01*
X131775190Y-91078485D02*
X131737095Y-91040390D01*
X131737095Y-91040390D02*
X131660904Y-91002295D01*
X130708523Y-91268961D02*
X130708523Y-91802295D01*
X130898999Y-90964200D02*
X131089476Y-91535628D01*
X131089476Y-91535628D02*
X130594237Y-91535628D01*
X132422809Y-83372295D02*
X132346619Y-83372295D01*
X132346619Y-83372295D02*
X132270428Y-83410390D01*
X132270428Y-83410390D02*
X132232333Y-83448485D01*
X132232333Y-83448485D02*
X132194238Y-83524676D01*
X132194238Y-83524676D02*
X132156143Y-83677057D01*
X132156143Y-83677057D02*
X132156143Y-83867533D01*
X132156143Y-83867533D02*
X132194238Y-84019914D01*
X132194238Y-84019914D02*
X132232333Y-84096104D01*
X132232333Y-84096104D02*
X132270428Y-84134200D01*
X132270428Y-84134200D02*
X132346619Y-84172295D01*
X132346619Y-84172295D02*
X132422809Y-84172295D01*
X132422809Y-84172295D02*
X132499000Y-84134200D01*
X132499000Y-84134200D02*
X132537095Y-84096104D01*
X132537095Y-84096104D02*
X132575190Y-84019914D01*
X132575190Y-84019914D02*
X132613286Y-83867533D01*
X132613286Y-83867533D02*
X132613286Y-83677057D01*
X132613286Y-83677057D02*
X132575190Y-83524676D01*
X132575190Y-83524676D02*
X132537095Y-83448485D01*
X132537095Y-83448485D02*
X132499000Y-83410390D01*
X132499000Y-83410390D02*
X132422809Y-83372295D01*
X131851381Y-83448485D02*
X131813285Y-83410390D01*
X131813285Y-83410390D02*
X131737095Y-83372295D01*
X131737095Y-83372295D02*
X131546619Y-83372295D01*
X131546619Y-83372295D02*
X131470428Y-83410390D01*
X131470428Y-83410390D02*
X131432333Y-83448485D01*
X131432333Y-83448485D02*
X131394238Y-83524676D01*
X131394238Y-83524676D02*
X131394238Y-83600866D01*
X131394238Y-83600866D02*
X131432333Y-83715152D01*
X131432333Y-83715152D02*
X131889476Y-84172295D01*
X131889476Y-84172295D02*
X131394238Y-84172295D01*
X130708523Y-83638961D02*
X130708523Y-84172295D01*
X130898999Y-83334200D02*
X131089476Y-83905628D01*
X131089476Y-83905628D02*
X130594237Y-83905628D01*
X132156143Y-86722295D02*
X132613286Y-86722295D01*
X132384714Y-86722295D02*
X132384714Y-85922295D01*
X132384714Y-85922295D02*
X132460905Y-86036580D01*
X132460905Y-86036580D02*
X132537095Y-86112771D01*
X132537095Y-86112771D02*
X132613286Y-86150866D01*
X131660904Y-85922295D02*
X131584714Y-85922295D01*
X131584714Y-85922295D02*
X131508523Y-85960390D01*
X131508523Y-85960390D02*
X131470428Y-85998485D01*
X131470428Y-85998485D02*
X131432333Y-86074676D01*
X131432333Y-86074676D02*
X131394238Y-86227057D01*
X131394238Y-86227057D02*
X131394238Y-86417533D01*
X131394238Y-86417533D02*
X131432333Y-86569914D01*
X131432333Y-86569914D02*
X131470428Y-86646104D01*
X131470428Y-86646104D02*
X131508523Y-86684200D01*
X131508523Y-86684200D02*
X131584714Y-86722295D01*
X131584714Y-86722295D02*
X131660904Y-86722295D01*
X131660904Y-86722295D02*
X131737095Y-86684200D01*
X131737095Y-86684200D02*
X131775190Y-86646104D01*
X131775190Y-86646104D02*
X131813285Y-86569914D01*
X131813285Y-86569914D02*
X131851381Y-86417533D01*
X131851381Y-86417533D02*
X131851381Y-86227057D01*
X131851381Y-86227057D02*
X131813285Y-86074676D01*
X131813285Y-86074676D02*
X131775190Y-85998485D01*
X131775190Y-85998485D02*
X131737095Y-85960390D01*
X131737095Y-85960390D02*
X131660904Y-85922295D01*
X130898999Y-85922295D02*
X130822809Y-85922295D01*
X130822809Y-85922295D02*
X130746618Y-85960390D01*
X130746618Y-85960390D02*
X130708523Y-85998485D01*
X130708523Y-85998485D02*
X130670428Y-86074676D01*
X130670428Y-86074676D02*
X130632333Y-86227057D01*
X130632333Y-86227057D02*
X130632333Y-86417533D01*
X130632333Y-86417533D02*
X130670428Y-86569914D01*
X130670428Y-86569914D02*
X130708523Y-86646104D01*
X130708523Y-86646104D02*
X130746618Y-86684200D01*
X130746618Y-86684200D02*
X130822809Y-86722295D01*
X130822809Y-86722295D02*
X130898999Y-86722295D01*
X130898999Y-86722295D02*
X130975190Y-86684200D01*
X130975190Y-86684200D02*
X131013285Y-86646104D01*
X131013285Y-86646104D02*
X131051380Y-86569914D01*
X131051380Y-86569914D02*
X131089476Y-86417533D01*
X131089476Y-86417533D02*
X131089476Y-86227057D01*
X131089476Y-86227057D02*
X131051380Y-86074676D01*
X131051380Y-86074676D02*
X131013285Y-85998485D01*
X131013285Y-85998485D02*
X130975190Y-85960390D01*
X130975190Y-85960390D02*
X130898999Y-85922295D01*
X132422809Y-80872295D02*
X132346619Y-80872295D01*
X132346619Y-80872295D02*
X132270428Y-80910390D01*
X132270428Y-80910390D02*
X132232333Y-80948485D01*
X132232333Y-80948485D02*
X132194238Y-81024676D01*
X132194238Y-81024676D02*
X132156143Y-81177057D01*
X132156143Y-81177057D02*
X132156143Y-81367533D01*
X132156143Y-81367533D02*
X132194238Y-81519914D01*
X132194238Y-81519914D02*
X132232333Y-81596104D01*
X132232333Y-81596104D02*
X132270428Y-81634200D01*
X132270428Y-81634200D02*
X132346619Y-81672295D01*
X132346619Y-81672295D02*
X132422809Y-81672295D01*
X132422809Y-81672295D02*
X132499000Y-81634200D01*
X132499000Y-81634200D02*
X132537095Y-81596104D01*
X132537095Y-81596104D02*
X132575190Y-81519914D01*
X132575190Y-81519914D02*
X132613286Y-81367533D01*
X132613286Y-81367533D02*
X132613286Y-81177057D01*
X132613286Y-81177057D02*
X132575190Y-81024676D01*
X132575190Y-81024676D02*
X132537095Y-80948485D01*
X132537095Y-80948485D02*
X132499000Y-80910390D01*
X132499000Y-80910390D02*
X132422809Y-80872295D01*
X131851381Y-80948485D02*
X131813285Y-80910390D01*
X131813285Y-80910390D02*
X131737095Y-80872295D01*
X131737095Y-80872295D02*
X131546619Y-80872295D01*
X131546619Y-80872295D02*
X131470428Y-80910390D01*
X131470428Y-80910390D02*
X131432333Y-80948485D01*
X131432333Y-80948485D02*
X131394238Y-81024676D01*
X131394238Y-81024676D02*
X131394238Y-81100866D01*
X131394238Y-81100866D02*
X131432333Y-81215152D01*
X131432333Y-81215152D02*
X131889476Y-81672295D01*
X131889476Y-81672295D02*
X131394238Y-81672295D01*
X131089476Y-80948485D02*
X131051380Y-80910390D01*
X131051380Y-80910390D02*
X130975190Y-80872295D01*
X130975190Y-80872295D02*
X130784714Y-80872295D01*
X130784714Y-80872295D02*
X130708523Y-80910390D01*
X130708523Y-80910390D02*
X130670428Y-80948485D01*
X130670428Y-80948485D02*
X130632333Y-81024676D01*
X130632333Y-81024676D02*
X130632333Y-81100866D01*
X130632333Y-81100866D02*
X130670428Y-81215152D01*
X130670428Y-81215152D02*
X131127571Y-81672295D01*
X131127571Y-81672295D02*
X130632333Y-81672295D01*
X132422809Y-65602295D02*
X132346619Y-65602295D01*
X132346619Y-65602295D02*
X132270428Y-65640390D01*
X132270428Y-65640390D02*
X132232333Y-65678485D01*
X132232333Y-65678485D02*
X132194238Y-65754676D01*
X132194238Y-65754676D02*
X132156143Y-65907057D01*
X132156143Y-65907057D02*
X132156143Y-66097533D01*
X132156143Y-66097533D02*
X132194238Y-66249914D01*
X132194238Y-66249914D02*
X132232333Y-66326104D01*
X132232333Y-66326104D02*
X132270428Y-66364200D01*
X132270428Y-66364200D02*
X132346619Y-66402295D01*
X132346619Y-66402295D02*
X132422809Y-66402295D01*
X132422809Y-66402295D02*
X132499000Y-66364200D01*
X132499000Y-66364200D02*
X132537095Y-66326104D01*
X132537095Y-66326104D02*
X132575190Y-66249914D01*
X132575190Y-66249914D02*
X132613286Y-66097533D01*
X132613286Y-66097533D02*
X132613286Y-65907057D01*
X132613286Y-65907057D02*
X132575190Y-65754676D01*
X132575190Y-65754676D02*
X132537095Y-65678485D01*
X132537095Y-65678485D02*
X132499000Y-65640390D01*
X132499000Y-65640390D02*
X132422809Y-65602295D01*
X131660904Y-65602295D02*
X131584714Y-65602295D01*
X131584714Y-65602295D02*
X131508523Y-65640390D01*
X131508523Y-65640390D02*
X131470428Y-65678485D01*
X131470428Y-65678485D02*
X131432333Y-65754676D01*
X131432333Y-65754676D02*
X131394238Y-65907057D01*
X131394238Y-65907057D02*
X131394238Y-66097533D01*
X131394238Y-66097533D02*
X131432333Y-66249914D01*
X131432333Y-66249914D02*
X131470428Y-66326104D01*
X131470428Y-66326104D02*
X131508523Y-66364200D01*
X131508523Y-66364200D02*
X131584714Y-66402295D01*
X131584714Y-66402295D02*
X131660904Y-66402295D01*
X131660904Y-66402295D02*
X131737095Y-66364200D01*
X131737095Y-66364200D02*
X131775190Y-66326104D01*
X131775190Y-66326104D02*
X131813285Y-66249914D01*
X131813285Y-66249914D02*
X131851381Y-66097533D01*
X131851381Y-66097533D02*
X131851381Y-65907057D01*
X131851381Y-65907057D02*
X131813285Y-65754676D01*
X131813285Y-65754676D02*
X131775190Y-65678485D01*
X131775190Y-65678485D02*
X131737095Y-65640390D01*
X131737095Y-65640390D02*
X131660904Y-65602295D01*
X130708523Y-65602295D02*
X130860904Y-65602295D01*
X130860904Y-65602295D02*
X130937095Y-65640390D01*
X130937095Y-65640390D02*
X130975190Y-65678485D01*
X130975190Y-65678485D02*
X131051380Y-65792771D01*
X131051380Y-65792771D02*
X131089476Y-65945152D01*
X131089476Y-65945152D02*
X131089476Y-66249914D01*
X131089476Y-66249914D02*
X131051380Y-66326104D01*
X131051380Y-66326104D02*
X131013285Y-66364200D01*
X131013285Y-66364200D02*
X130937095Y-66402295D01*
X130937095Y-66402295D02*
X130784714Y-66402295D01*
X130784714Y-66402295D02*
X130708523Y-66364200D01*
X130708523Y-66364200D02*
X130670428Y-66326104D01*
X130670428Y-66326104D02*
X130632333Y-66249914D01*
X130632333Y-66249914D02*
X130632333Y-66059438D01*
X130632333Y-66059438D02*
X130670428Y-65983247D01*
X130670428Y-65983247D02*
X130708523Y-65945152D01*
X130708523Y-65945152D02*
X130784714Y-65907057D01*
X130784714Y-65907057D02*
X130937095Y-65907057D01*
X130937095Y-65907057D02*
X131013285Y-65945152D01*
X131013285Y-65945152D02*
X131051380Y-65983247D01*
X131051380Y-65983247D02*
X131089476Y-66059438D01*
X132308523Y-73260390D02*
X132384713Y-73222295D01*
X132384713Y-73222295D02*
X132498999Y-73222295D01*
X132498999Y-73222295D02*
X132613285Y-73260390D01*
X132613285Y-73260390D02*
X132689475Y-73336580D01*
X132689475Y-73336580D02*
X132727570Y-73412771D01*
X132727570Y-73412771D02*
X132765666Y-73565152D01*
X132765666Y-73565152D02*
X132765666Y-73679438D01*
X132765666Y-73679438D02*
X132727570Y-73831819D01*
X132727570Y-73831819D02*
X132689475Y-73908009D01*
X132689475Y-73908009D02*
X132613285Y-73984200D01*
X132613285Y-73984200D02*
X132498999Y-74022295D01*
X132498999Y-74022295D02*
X132422808Y-74022295D01*
X132422808Y-74022295D02*
X132308523Y-73984200D01*
X132308523Y-73984200D02*
X132270427Y-73946104D01*
X132270427Y-73946104D02*
X132270427Y-73679438D01*
X132270427Y-73679438D02*
X132422808Y-73679438D01*
X131927570Y-74022295D02*
X131927570Y-73222295D01*
X131927570Y-73222295D02*
X131470427Y-74022295D01*
X131470427Y-74022295D02*
X131470427Y-73222295D01*
X131089475Y-74022295D02*
X131089475Y-73222295D01*
X131089475Y-73222295D02*
X130898999Y-73222295D01*
X130898999Y-73222295D02*
X130784713Y-73260390D01*
X130784713Y-73260390D02*
X130708523Y-73336580D01*
X130708523Y-73336580D02*
X130670428Y-73412771D01*
X130670428Y-73412771D02*
X130632332Y-73565152D01*
X130632332Y-73565152D02*
X130632332Y-73679438D01*
X130632332Y-73679438D02*
X130670428Y-73831819D01*
X130670428Y-73831819D02*
X130708523Y-73908009D01*
X130708523Y-73908009D02*
X130784713Y-73984200D01*
X130784713Y-73984200D02*
X130898999Y-74022295D01*
X130898999Y-74022295D02*
X131089475Y-74022295D01*
X132422809Y-78372295D02*
X132346619Y-78372295D01*
X132346619Y-78372295D02*
X132270428Y-78410390D01*
X132270428Y-78410390D02*
X132232333Y-78448485D01*
X132232333Y-78448485D02*
X132194238Y-78524676D01*
X132194238Y-78524676D02*
X132156143Y-78677057D01*
X132156143Y-78677057D02*
X132156143Y-78867533D01*
X132156143Y-78867533D02*
X132194238Y-79019914D01*
X132194238Y-79019914D02*
X132232333Y-79096104D01*
X132232333Y-79096104D02*
X132270428Y-79134200D01*
X132270428Y-79134200D02*
X132346619Y-79172295D01*
X132346619Y-79172295D02*
X132422809Y-79172295D01*
X132422809Y-79172295D02*
X132499000Y-79134200D01*
X132499000Y-79134200D02*
X132537095Y-79096104D01*
X132537095Y-79096104D02*
X132575190Y-79019914D01*
X132575190Y-79019914D02*
X132613286Y-78867533D01*
X132613286Y-78867533D02*
X132613286Y-78677057D01*
X132613286Y-78677057D02*
X132575190Y-78524676D01*
X132575190Y-78524676D02*
X132537095Y-78448485D01*
X132537095Y-78448485D02*
X132499000Y-78410390D01*
X132499000Y-78410390D02*
X132422809Y-78372295D01*
X131851381Y-78448485D02*
X131813285Y-78410390D01*
X131813285Y-78410390D02*
X131737095Y-78372295D01*
X131737095Y-78372295D02*
X131546619Y-78372295D01*
X131546619Y-78372295D02*
X131470428Y-78410390D01*
X131470428Y-78410390D02*
X131432333Y-78448485D01*
X131432333Y-78448485D02*
X131394238Y-78524676D01*
X131394238Y-78524676D02*
X131394238Y-78600866D01*
X131394238Y-78600866D02*
X131432333Y-78715152D01*
X131432333Y-78715152D02*
X131889476Y-79172295D01*
X131889476Y-79172295D02*
X131394238Y-79172295D01*
X130898999Y-78372295D02*
X130822809Y-78372295D01*
X130822809Y-78372295D02*
X130746618Y-78410390D01*
X130746618Y-78410390D02*
X130708523Y-78448485D01*
X130708523Y-78448485D02*
X130670428Y-78524676D01*
X130670428Y-78524676D02*
X130632333Y-78677057D01*
X130632333Y-78677057D02*
X130632333Y-78867533D01*
X130632333Y-78867533D02*
X130670428Y-79019914D01*
X130670428Y-79019914D02*
X130708523Y-79096104D01*
X130708523Y-79096104D02*
X130746618Y-79134200D01*
X130746618Y-79134200D02*
X130822809Y-79172295D01*
X130822809Y-79172295D02*
X130898999Y-79172295D01*
X130898999Y-79172295D02*
X130975190Y-79134200D01*
X130975190Y-79134200D02*
X131013285Y-79096104D01*
X131013285Y-79096104D02*
X131051380Y-79019914D01*
X131051380Y-79019914D02*
X131089476Y-78867533D01*
X131089476Y-78867533D02*
X131089476Y-78677057D01*
X131089476Y-78677057D02*
X131051380Y-78524676D01*
X131051380Y-78524676D02*
X131013285Y-78448485D01*
X131013285Y-78448485D02*
X130975190Y-78410390D01*
X130975190Y-78410390D02*
X130898999Y-78372295D01*
X132422809Y-75762295D02*
X132346619Y-75762295D01*
X132346619Y-75762295D02*
X132270428Y-75800390D01*
X132270428Y-75800390D02*
X132232333Y-75838485D01*
X132232333Y-75838485D02*
X132194238Y-75914676D01*
X132194238Y-75914676D02*
X132156143Y-76067057D01*
X132156143Y-76067057D02*
X132156143Y-76257533D01*
X132156143Y-76257533D02*
X132194238Y-76409914D01*
X132194238Y-76409914D02*
X132232333Y-76486104D01*
X132232333Y-76486104D02*
X132270428Y-76524200D01*
X132270428Y-76524200D02*
X132346619Y-76562295D01*
X132346619Y-76562295D02*
X132422809Y-76562295D01*
X132422809Y-76562295D02*
X132499000Y-76524200D01*
X132499000Y-76524200D02*
X132537095Y-76486104D01*
X132537095Y-76486104D02*
X132575190Y-76409914D01*
X132575190Y-76409914D02*
X132613286Y-76257533D01*
X132613286Y-76257533D02*
X132613286Y-76067057D01*
X132613286Y-76067057D02*
X132575190Y-75914676D01*
X132575190Y-75914676D02*
X132537095Y-75838485D01*
X132537095Y-75838485D02*
X132499000Y-75800390D01*
X132499000Y-75800390D02*
X132422809Y-75762295D01*
X131394238Y-76562295D02*
X131851381Y-76562295D01*
X131622809Y-76562295D02*
X131622809Y-75762295D01*
X131622809Y-75762295D02*
X131699000Y-75876580D01*
X131699000Y-75876580D02*
X131775190Y-75952771D01*
X131775190Y-75952771D02*
X131851381Y-75990866D01*
X131127571Y-75762295D02*
X130594237Y-75762295D01*
X130594237Y-75762295D02*
X130937095Y-76562295D01*
X132308523Y-70720390D02*
X132384713Y-70682295D01*
X132384713Y-70682295D02*
X132498999Y-70682295D01*
X132498999Y-70682295D02*
X132613285Y-70720390D01*
X132613285Y-70720390D02*
X132689475Y-70796580D01*
X132689475Y-70796580D02*
X132727570Y-70872771D01*
X132727570Y-70872771D02*
X132765666Y-71025152D01*
X132765666Y-71025152D02*
X132765666Y-71139438D01*
X132765666Y-71139438D02*
X132727570Y-71291819D01*
X132727570Y-71291819D02*
X132689475Y-71368009D01*
X132689475Y-71368009D02*
X132613285Y-71444200D01*
X132613285Y-71444200D02*
X132498999Y-71482295D01*
X132498999Y-71482295D02*
X132422808Y-71482295D01*
X132422808Y-71482295D02*
X132308523Y-71444200D01*
X132308523Y-71444200D02*
X132270427Y-71406104D01*
X132270427Y-71406104D02*
X132270427Y-71139438D01*
X132270427Y-71139438D02*
X132422808Y-71139438D01*
X131927570Y-71482295D02*
X131927570Y-70682295D01*
X131927570Y-70682295D02*
X131470427Y-71482295D01*
X131470427Y-71482295D02*
X131470427Y-70682295D01*
X131089475Y-71482295D02*
X131089475Y-70682295D01*
X131089475Y-70682295D02*
X130898999Y-70682295D01*
X130898999Y-70682295D02*
X130784713Y-70720390D01*
X130784713Y-70720390D02*
X130708523Y-70796580D01*
X130708523Y-70796580D02*
X130670428Y-70872771D01*
X130670428Y-70872771D02*
X130632332Y-71025152D01*
X130632332Y-71025152D02*
X130632332Y-71139438D01*
X130632332Y-71139438D02*
X130670428Y-71291819D01*
X130670428Y-71291819D02*
X130708523Y-71368009D01*
X130708523Y-71368009D02*
X130784713Y-71444200D01*
X130784713Y-71444200D02*
X130898999Y-71482295D01*
X130898999Y-71482295D02*
X131089475Y-71482295D01*
X160362809Y-68072295D02*
X160286619Y-68072295D01*
X160286619Y-68072295D02*
X160210428Y-68110390D01*
X160210428Y-68110390D02*
X160172333Y-68148485D01*
X160172333Y-68148485D02*
X160134238Y-68224676D01*
X160134238Y-68224676D02*
X160096143Y-68377057D01*
X160096143Y-68377057D02*
X160096143Y-68567533D01*
X160096143Y-68567533D02*
X160134238Y-68719914D01*
X160134238Y-68719914D02*
X160172333Y-68796104D01*
X160172333Y-68796104D02*
X160210428Y-68834200D01*
X160210428Y-68834200D02*
X160286619Y-68872295D01*
X160286619Y-68872295D02*
X160362809Y-68872295D01*
X160362809Y-68872295D02*
X160439000Y-68834200D01*
X160439000Y-68834200D02*
X160477095Y-68796104D01*
X160477095Y-68796104D02*
X160515190Y-68719914D01*
X160515190Y-68719914D02*
X160553286Y-68567533D01*
X160553286Y-68567533D02*
X160553286Y-68377057D01*
X160553286Y-68377057D02*
X160515190Y-68224676D01*
X160515190Y-68224676D02*
X160477095Y-68148485D01*
X160477095Y-68148485D02*
X160439000Y-68110390D01*
X160439000Y-68110390D02*
X160362809Y-68072295D01*
X159600904Y-68072295D02*
X159524714Y-68072295D01*
X159524714Y-68072295D02*
X159448523Y-68110390D01*
X159448523Y-68110390D02*
X159410428Y-68148485D01*
X159410428Y-68148485D02*
X159372333Y-68224676D01*
X159372333Y-68224676D02*
X159334238Y-68377057D01*
X159334238Y-68377057D02*
X159334238Y-68567533D01*
X159334238Y-68567533D02*
X159372333Y-68719914D01*
X159372333Y-68719914D02*
X159410428Y-68796104D01*
X159410428Y-68796104D02*
X159448523Y-68834200D01*
X159448523Y-68834200D02*
X159524714Y-68872295D01*
X159524714Y-68872295D02*
X159600904Y-68872295D01*
X159600904Y-68872295D02*
X159677095Y-68834200D01*
X159677095Y-68834200D02*
X159715190Y-68796104D01*
X159715190Y-68796104D02*
X159753285Y-68719914D01*
X159753285Y-68719914D02*
X159791381Y-68567533D01*
X159791381Y-68567533D02*
X159791381Y-68377057D01*
X159791381Y-68377057D02*
X159753285Y-68224676D01*
X159753285Y-68224676D02*
X159715190Y-68148485D01*
X159715190Y-68148485D02*
X159677095Y-68110390D01*
X159677095Y-68110390D02*
X159600904Y-68072295D01*
X158877095Y-68415152D02*
X158953285Y-68377057D01*
X158953285Y-68377057D02*
X158991380Y-68338961D01*
X158991380Y-68338961D02*
X159029476Y-68262771D01*
X159029476Y-68262771D02*
X159029476Y-68224676D01*
X159029476Y-68224676D02*
X158991380Y-68148485D01*
X158991380Y-68148485D02*
X158953285Y-68110390D01*
X158953285Y-68110390D02*
X158877095Y-68072295D01*
X158877095Y-68072295D02*
X158724714Y-68072295D01*
X158724714Y-68072295D02*
X158648523Y-68110390D01*
X158648523Y-68110390D02*
X158610428Y-68148485D01*
X158610428Y-68148485D02*
X158572333Y-68224676D01*
X158572333Y-68224676D02*
X158572333Y-68262771D01*
X158572333Y-68262771D02*
X158610428Y-68338961D01*
X158610428Y-68338961D02*
X158648523Y-68377057D01*
X158648523Y-68377057D02*
X158724714Y-68415152D01*
X158724714Y-68415152D02*
X158877095Y-68415152D01*
X158877095Y-68415152D02*
X158953285Y-68453247D01*
X158953285Y-68453247D02*
X158991380Y-68491342D01*
X158991380Y-68491342D02*
X159029476Y-68567533D01*
X159029476Y-68567533D02*
X159029476Y-68719914D01*
X159029476Y-68719914D02*
X158991380Y-68796104D01*
X158991380Y-68796104D02*
X158953285Y-68834200D01*
X158953285Y-68834200D02*
X158877095Y-68872295D01*
X158877095Y-68872295D02*
X158724714Y-68872295D01*
X158724714Y-68872295D02*
X158648523Y-68834200D01*
X158648523Y-68834200D02*
X158610428Y-68796104D01*
X158610428Y-68796104D02*
X158572333Y-68719914D01*
X158572333Y-68719914D02*
X158572333Y-68567533D01*
X158572333Y-68567533D02*
X158610428Y-68491342D01*
X158610428Y-68491342D02*
X158648523Y-68453247D01*
X158648523Y-68453247D02*
X158724714Y-68415152D01*
X160096143Y-91802295D02*
X160553286Y-91802295D01*
X160324714Y-91802295D02*
X160324714Y-91002295D01*
X160324714Y-91002295D02*
X160400905Y-91116580D01*
X160400905Y-91116580D02*
X160477095Y-91192771D01*
X160477095Y-91192771D02*
X160553286Y-91230866D01*
X159600904Y-91002295D02*
X159524714Y-91002295D01*
X159524714Y-91002295D02*
X159448523Y-91040390D01*
X159448523Y-91040390D02*
X159410428Y-91078485D01*
X159410428Y-91078485D02*
X159372333Y-91154676D01*
X159372333Y-91154676D02*
X159334238Y-91307057D01*
X159334238Y-91307057D02*
X159334238Y-91497533D01*
X159334238Y-91497533D02*
X159372333Y-91649914D01*
X159372333Y-91649914D02*
X159410428Y-91726104D01*
X159410428Y-91726104D02*
X159448523Y-91764200D01*
X159448523Y-91764200D02*
X159524714Y-91802295D01*
X159524714Y-91802295D02*
X159600904Y-91802295D01*
X159600904Y-91802295D02*
X159677095Y-91764200D01*
X159677095Y-91764200D02*
X159715190Y-91726104D01*
X159715190Y-91726104D02*
X159753285Y-91649914D01*
X159753285Y-91649914D02*
X159791381Y-91497533D01*
X159791381Y-91497533D02*
X159791381Y-91307057D01*
X159791381Y-91307057D02*
X159753285Y-91154676D01*
X159753285Y-91154676D02*
X159715190Y-91078485D01*
X159715190Y-91078485D02*
X159677095Y-91040390D01*
X159677095Y-91040390D02*
X159600904Y-91002295D01*
X158648523Y-91268961D02*
X158648523Y-91802295D01*
X158838999Y-90964200D02*
X159029476Y-91535628D01*
X159029476Y-91535628D02*
X158534237Y-91535628D01*
X160362809Y-83372295D02*
X160286619Y-83372295D01*
X160286619Y-83372295D02*
X160210428Y-83410390D01*
X160210428Y-83410390D02*
X160172333Y-83448485D01*
X160172333Y-83448485D02*
X160134238Y-83524676D01*
X160134238Y-83524676D02*
X160096143Y-83677057D01*
X160096143Y-83677057D02*
X160096143Y-83867533D01*
X160096143Y-83867533D02*
X160134238Y-84019914D01*
X160134238Y-84019914D02*
X160172333Y-84096104D01*
X160172333Y-84096104D02*
X160210428Y-84134200D01*
X160210428Y-84134200D02*
X160286619Y-84172295D01*
X160286619Y-84172295D02*
X160362809Y-84172295D01*
X160362809Y-84172295D02*
X160439000Y-84134200D01*
X160439000Y-84134200D02*
X160477095Y-84096104D01*
X160477095Y-84096104D02*
X160515190Y-84019914D01*
X160515190Y-84019914D02*
X160553286Y-83867533D01*
X160553286Y-83867533D02*
X160553286Y-83677057D01*
X160553286Y-83677057D02*
X160515190Y-83524676D01*
X160515190Y-83524676D02*
X160477095Y-83448485D01*
X160477095Y-83448485D02*
X160439000Y-83410390D01*
X160439000Y-83410390D02*
X160362809Y-83372295D01*
X159791381Y-83448485D02*
X159753285Y-83410390D01*
X159753285Y-83410390D02*
X159677095Y-83372295D01*
X159677095Y-83372295D02*
X159486619Y-83372295D01*
X159486619Y-83372295D02*
X159410428Y-83410390D01*
X159410428Y-83410390D02*
X159372333Y-83448485D01*
X159372333Y-83448485D02*
X159334238Y-83524676D01*
X159334238Y-83524676D02*
X159334238Y-83600866D01*
X159334238Y-83600866D02*
X159372333Y-83715152D01*
X159372333Y-83715152D02*
X159829476Y-84172295D01*
X159829476Y-84172295D02*
X159334238Y-84172295D01*
X158648523Y-83638961D02*
X158648523Y-84172295D01*
X158838999Y-83334200D02*
X159029476Y-83905628D01*
X159029476Y-83905628D02*
X158534237Y-83905628D01*
X160096143Y-86722295D02*
X160553286Y-86722295D01*
X160324714Y-86722295D02*
X160324714Y-85922295D01*
X160324714Y-85922295D02*
X160400905Y-86036580D01*
X160400905Y-86036580D02*
X160477095Y-86112771D01*
X160477095Y-86112771D02*
X160553286Y-86150866D01*
X159600904Y-85922295D02*
X159524714Y-85922295D01*
X159524714Y-85922295D02*
X159448523Y-85960390D01*
X159448523Y-85960390D02*
X159410428Y-85998485D01*
X159410428Y-85998485D02*
X159372333Y-86074676D01*
X159372333Y-86074676D02*
X159334238Y-86227057D01*
X159334238Y-86227057D02*
X159334238Y-86417533D01*
X159334238Y-86417533D02*
X159372333Y-86569914D01*
X159372333Y-86569914D02*
X159410428Y-86646104D01*
X159410428Y-86646104D02*
X159448523Y-86684200D01*
X159448523Y-86684200D02*
X159524714Y-86722295D01*
X159524714Y-86722295D02*
X159600904Y-86722295D01*
X159600904Y-86722295D02*
X159677095Y-86684200D01*
X159677095Y-86684200D02*
X159715190Y-86646104D01*
X159715190Y-86646104D02*
X159753285Y-86569914D01*
X159753285Y-86569914D02*
X159791381Y-86417533D01*
X159791381Y-86417533D02*
X159791381Y-86227057D01*
X159791381Y-86227057D02*
X159753285Y-86074676D01*
X159753285Y-86074676D02*
X159715190Y-85998485D01*
X159715190Y-85998485D02*
X159677095Y-85960390D01*
X159677095Y-85960390D02*
X159600904Y-85922295D01*
X158838999Y-85922295D02*
X158762809Y-85922295D01*
X158762809Y-85922295D02*
X158686618Y-85960390D01*
X158686618Y-85960390D02*
X158648523Y-85998485D01*
X158648523Y-85998485D02*
X158610428Y-86074676D01*
X158610428Y-86074676D02*
X158572333Y-86227057D01*
X158572333Y-86227057D02*
X158572333Y-86417533D01*
X158572333Y-86417533D02*
X158610428Y-86569914D01*
X158610428Y-86569914D02*
X158648523Y-86646104D01*
X158648523Y-86646104D02*
X158686618Y-86684200D01*
X158686618Y-86684200D02*
X158762809Y-86722295D01*
X158762809Y-86722295D02*
X158838999Y-86722295D01*
X158838999Y-86722295D02*
X158915190Y-86684200D01*
X158915190Y-86684200D02*
X158953285Y-86646104D01*
X158953285Y-86646104D02*
X158991380Y-86569914D01*
X158991380Y-86569914D02*
X159029476Y-86417533D01*
X159029476Y-86417533D02*
X159029476Y-86227057D01*
X159029476Y-86227057D02*
X158991380Y-86074676D01*
X158991380Y-86074676D02*
X158953285Y-85998485D01*
X158953285Y-85998485D02*
X158915190Y-85960390D01*
X158915190Y-85960390D02*
X158838999Y-85922295D01*
X160362809Y-80872295D02*
X160286619Y-80872295D01*
X160286619Y-80872295D02*
X160210428Y-80910390D01*
X160210428Y-80910390D02*
X160172333Y-80948485D01*
X160172333Y-80948485D02*
X160134238Y-81024676D01*
X160134238Y-81024676D02*
X160096143Y-81177057D01*
X160096143Y-81177057D02*
X160096143Y-81367533D01*
X160096143Y-81367533D02*
X160134238Y-81519914D01*
X160134238Y-81519914D02*
X160172333Y-81596104D01*
X160172333Y-81596104D02*
X160210428Y-81634200D01*
X160210428Y-81634200D02*
X160286619Y-81672295D01*
X160286619Y-81672295D02*
X160362809Y-81672295D01*
X160362809Y-81672295D02*
X160439000Y-81634200D01*
X160439000Y-81634200D02*
X160477095Y-81596104D01*
X160477095Y-81596104D02*
X160515190Y-81519914D01*
X160515190Y-81519914D02*
X160553286Y-81367533D01*
X160553286Y-81367533D02*
X160553286Y-81177057D01*
X160553286Y-81177057D02*
X160515190Y-81024676D01*
X160515190Y-81024676D02*
X160477095Y-80948485D01*
X160477095Y-80948485D02*
X160439000Y-80910390D01*
X160439000Y-80910390D02*
X160362809Y-80872295D01*
X159791381Y-80948485D02*
X159753285Y-80910390D01*
X159753285Y-80910390D02*
X159677095Y-80872295D01*
X159677095Y-80872295D02*
X159486619Y-80872295D01*
X159486619Y-80872295D02*
X159410428Y-80910390D01*
X159410428Y-80910390D02*
X159372333Y-80948485D01*
X159372333Y-80948485D02*
X159334238Y-81024676D01*
X159334238Y-81024676D02*
X159334238Y-81100866D01*
X159334238Y-81100866D02*
X159372333Y-81215152D01*
X159372333Y-81215152D02*
X159829476Y-81672295D01*
X159829476Y-81672295D02*
X159334238Y-81672295D01*
X159029476Y-80948485D02*
X158991380Y-80910390D01*
X158991380Y-80910390D02*
X158915190Y-80872295D01*
X158915190Y-80872295D02*
X158724714Y-80872295D01*
X158724714Y-80872295D02*
X158648523Y-80910390D01*
X158648523Y-80910390D02*
X158610428Y-80948485D01*
X158610428Y-80948485D02*
X158572333Y-81024676D01*
X158572333Y-81024676D02*
X158572333Y-81100866D01*
X158572333Y-81100866D02*
X158610428Y-81215152D01*
X158610428Y-81215152D02*
X159067571Y-81672295D01*
X159067571Y-81672295D02*
X158572333Y-81672295D01*
X160362809Y-65602295D02*
X160286619Y-65602295D01*
X160286619Y-65602295D02*
X160210428Y-65640390D01*
X160210428Y-65640390D02*
X160172333Y-65678485D01*
X160172333Y-65678485D02*
X160134238Y-65754676D01*
X160134238Y-65754676D02*
X160096143Y-65907057D01*
X160096143Y-65907057D02*
X160096143Y-66097533D01*
X160096143Y-66097533D02*
X160134238Y-66249914D01*
X160134238Y-66249914D02*
X160172333Y-66326104D01*
X160172333Y-66326104D02*
X160210428Y-66364200D01*
X160210428Y-66364200D02*
X160286619Y-66402295D01*
X160286619Y-66402295D02*
X160362809Y-66402295D01*
X160362809Y-66402295D02*
X160439000Y-66364200D01*
X160439000Y-66364200D02*
X160477095Y-66326104D01*
X160477095Y-66326104D02*
X160515190Y-66249914D01*
X160515190Y-66249914D02*
X160553286Y-66097533D01*
X160553286Y-66097533D02*
X160553286Y-65907057D01*
X160553286Y-65907057D02*
X160515190Y-65754676D01*
X160515190Y-65754676D02*
X160477095Y-65678485D01*
X160477095Y-65678485D02*
X160439000Y-65640390D01*
X160439000Y-65640390D02*
X160362809Y-65602295D01*
X159600904Y-65602295D02*
X159524714Y-65602295D01*
X159524714Y-65602295D02*
X159448523Y-65640390D01*
X159448523Y-65640390D02*
X159410428Y-65678485D01*
X159410428Y-65678485D02*
X159372333Y-65754676D01*
X159372333Y-65754676D02*
X159334238Y-65907057D01*
X159334238Y-65907057D02*
X159334238Y-66097533D01*
X159334238Y-66097533D02*
X159372333Y-66249914D01*
X159372333Y-66249914D02*
X159410428Y-66326104D01*
X159410428Y-66326104D02*
X159448523Y-66364200D01*
X159448523Y-66364200D02*
X159524714Y-66402295D01*
X159524714Y-66402295D02*
X159600904Y-66402295D01*
X159600904Y-66402295D02*
X159677095Y-66364200D01*
X159677095Y-66364200D02*
X159715190Y-66326104D01*
X159715190Y-66326104D02*
X159753285Y-66249914D01*
X159753285Y-66249914D02*
X159791381Y-66097533D01*
X159791381Y-66097533D02*
X159791381Y-65907057D01*
X159791381Y-65907057D02*
X159753285Y-65754676D01*
X159753285Y-65754676D02*
X159715190Y-65678485D01*
X159715190Y-65678485D02*
X159677095Y-65640390D01*
X159677095Y-65640390D02*
X159600904Y-65602295D01*
X158648523Y-65602295D02*
X158800904Y-65602295D01*
X158800904Y-65602295D02*
X158877095Y-65640390D01*
X158877095Y-65640390D02*
X158915190Y-65678485D01*
X158915190Y-65678485D02*
X158991380Y-65792771D01*
X158991380Y-65792771D02*
X159029476Y-65945152D01*
X159029476Y-65945152D02*
X159029476Y-66249914D01*
X159029476Y-66249914D02*
X158991380Y-66326104D01*
X158991380Y-66326104D02*
X158953285Y-66364200D01*
X158953285Y-66364200D02*
X158877095Y-66402295D01*
X158877095Y-66402295D02*
X158724714Y-66402295D01*
X158724714Y-66402295D02*
X158648523Y-66364200D01*
X158648523Y-66364200D02*
X158610428Y-66326104D01*
X158610428Y-66326104D02*
X158572333Y-66249914D01*
X158572333Y-66249914D02*
X158572333Y-66059438D01*
X158572333Y-66059438D02*
X158610428Y-65983247D01*
X158610428Y-65983247D02*
X158648523Y-65945152D01*
X158648523Y-65945152D02*
X158724714Y-65907057D01*
X158724714Y-65907057D02*
X158877095Y-65907057D01*
X158877095Y-65907057D02*
X158953285Y-65945152D01*
X158953285Y-65945152D02*
X158991380Y-65983247D01*
X158991380Y-65983247D02*
X159029476Y-66059438D01*
X160248523Y-73260390D02*
X160324713Y-73222295D01*
X160324713Y-73222295D02*
X160438999Y-73222295D01*
X160438999Y-73222295D02*
X160553285Y-73260390D01*
X160553285Y-73260390D02*
X160629475Y-73336580D01*
X160629475Y-73336580D02*
X160667570Y-73412771D01*
X160667570Y-73412771D02*
X160705666Y-73565152D01*
X160705666Y-73565152D02*
X160705666Y-73679438D01*
X160705666Y-73679438D02*
X160667570Y-73831819D01*
X160667570Y-73831819D02*
X160629475Y-73908009D01*
X160629475Y-73908009D02*
X160553285Y-73984200D01*
X160553285Y-73984200D02*
X160438999Y-74022295D01*
X160438999Y-74022295D02*
X160362808Y-74022295D01*
X160362808Y-74022295D02*
X160248523Y-73984200D01*
X160248523Y-73984200D02*
X160210427Y-73946104D01*
X160210427Y-73946104D02*
X160210427Y-73679438D01*
X160210427Y-73679438D02*
X160362808Y-73679438D01*
X159867570Y-74022295D02*
X159867570Y-73222295D01*
X159867570Y-73222295D02*
X159410427Y-74022295D01*
X159410427Y-74022295D02*
X159410427Y-73222295D01*
X159029475Y-74022295D02*
X159029475Y-73222295D01*
X159029475Y-73222295D02*
X158838999Y-73222295D01*
X158838999Y-73222295D02*
X158724713Y-73260390D01*
X158724713Y-73260390D02*
X158648523Y-73336580D01*
X158648523Y-73336580D02*
X158610428Y-73412771D01*
X158610428Y-73412771D02*
X158572332Y-73565152D01*
X158572332Y-73565152D02*
X158572332Y-73679438D01*
X158572332Y-73679438D02*
X158610428Y-73831819D01*
X158610428Y-73831819D02*
X158648523Y-73908009D01*
X158648523Y-73908009D02*
X158724713Y-73984200D01*
X158724713Y-73984200D02*
X158838999Y-74022295D01*
X158838999Y-74022295D02*
X159029475Y-74022295D01*
X160362809Y-78372295D02*
X160286619Y-78372295D01*
X160286619Y-78372295D02*
X160210428Y-78410390D01*
X160210428Y-78410390D02*
X160172333Y-78448485D01*
X160172333Y-78448485D02*
X160134238Y-78524676D01*
X160134238Y-78524676D02*
X160096143Y-78677057D01*
X160096143Y-78677057D02*
X160096143Y-78867533D01*
X160096143Y-78867533D02*
X160134238Y-79019914D01*
X160134238Y-79019914D02*
X160172333Y-79096104D01*
X160172333Y-79096104D02*
X160210428Y-79134200D01*
X160210428Y-79134200D02*
X160286619Y-79172295D01*
X160286619Y-79172295D02*
X160362809Y-79172295D01*
X160362809Y-79172295D02*
X160439000Y-79134200D01*
X160439000Y-79134200D02*
X160477095Y-79096104D01*
X160477095Y-79096104D02*
X160515190Y-79019914D01*
X160515190Y-79019914D02*
X160553286Y-78867533D01*
X160553286Y-78867533D02*
X160553286Y-78677057D01*
X160553286Y-78677057D02*
X160515190Y-78524676D01*
X160515190Y-78524676D02*
X160477095Y-78448485D01*
X160477095Y-78448485D02*
X160439000Y-78410390D01*
X160439000Y-78410390D02*
X160362809Y-78372295D01*
X159791381Y-78448485D02*
X159753285Y-78410390D01*
X159753285Y-78410390D02*
X159677095Y-78372295D01*
X159677095Y-78372295D02*
X159486619Y-78372295D01*
X159486619Y-78372295D02*
X159410428Y-78410390D01*
X159410428Y-78410390D02*
X159372333Y-78448485D01*
X159372333Y-78448485D02*
X159334238Y-78524676D01*
X159334238Y-78524676D02*
X159334238Y-78600866D01*
X159334238Y-78600866D02*
X159372333Y-78715152D01*
X159372333Y-78715152D02*
X159829476Y-79172295D01*
X159829476Y-79172295D02*
X159334238Y-79172295D01*
X158838999Y-78372295D02*
X158762809Y-78372295D01*
X158762809Y-78372295D02*
X158686618Y-78410390D01*
X158686618Y-78410390D02*
X158648523Y-78448485D01*
X158648523Y-78448485D02*
X158610428Y-78524676D01*
X158610428Y-78524676D02*
X158572333Y-78677057D01*
X158572333Y-78677057D02*
X158572333Y-78867533D01*
X158572333Y-78867533D02*
X158610428Y-79019914D01*
X158610428Y-79019914D02*
X158648523Y-79096104D01*
X158648523Y-79096104D02*
X158686618Y-79134200D01*
X158686618Y-79134200D02*
X158762809Y-79172295D01*
X158762809Y-79172295D02*
X158838999Y-79172295D01*
X158838999Y-79172295D02*
X158915190Y-79134200D01*
X158915190Y-79134200D02*
X158953285Y-79096104D01*
X158953285Y-79096104D02*
X158991380Y-79019914D01*
X158991380Y-79019914D02*
X159029476Y-78867533D01*
X159029476Y-78867533D02*
X159029476Y-78677057D01*
X159029476Y-78677057D02*
X158991380Y-78524676D01*
X158991380Y-78524676D02*
X158953285Y-78448485D01*
X158953285Y-78448485D02*
X158915190Y-78410390D01*
X158915190Y-78410390D02*
X158838999Y-78372295D01*
X160362809Y-75762295D02*
X160286619Y-75762295D01*
X160286619Y-75762295D02*
X160210428Y-75800390D01*
X160210428Y-75800390D02*
X160172333Y-75838485D01*
X160172333Y-75838485D02*
X160134238Y-75914676D01*
X160134238Y-75914676D02*
X160096143Y-76067057D01*
X160096143Y-76067057D02*
X160096143Y-76257533D01*
X160096143Y-76257533D02*
X160134238Y-76409914D01*
X160134238Y-76409914D02*
X160172333Y-76486104D01*
X160172333Y-76486104D02*
X160210428Y-76524200D01*
X160210428Y-76524200D02*
X160286619Y-76562295D01*
X160286619Y-76562295D02*
X160362809Y-76562295D01*
X160362809Y-76562295D02*
X160439000Y-76524200D01*
X160439000Y-76524200D02*
X160477095Y-76486104D01*
X160477095Y-76486104D02*
X160515190Y-76409914D01*
X160515190Y-76409914D02*
X160553286Y-76257533D01*
X160553286Y-76257533D02*
X160553286Y-76067057D01*
X160553286Y-76067057D02*
X160515190Y-75914676D01*
X160515190Y-75914676D02*
X160477095Y-75838485D01*
X160477095Y-75838485D02*
X160439000Y-75800390D01*
X160439000Y-75800390D02*
X160362809Y-75762295D01*
X159334238Y-76562295D02*
X159791381Y-76562295D01*
X159562809Y-76562295D02*
X159562809Y-75762295D01*
X159562809Y-75762295D02*
X159639000Y-75876580D01*
X159639000Y-75876580D02*
X159715190Y-75952771D01*
X159715190Y-75952771D02*
X159791381Y-75990866D01*
X159067571Y-75762295D02*
X158534237Y-75762295D01*
X158534237Y-75762295D02*
X158877095Y-76562295D01*
X160248523Y-70720390D02*
X160324713Y-70682295D01*
X160324713Y-70682295D02*
X160438999Y-70682295D01*
X160438999Y-70682295D02*
X160553285Y-70720390D01*
X160553285Y-70720390D02*
X160629475Y-70796580D01*
X160629475Y-70796580D02*
X160667570Y-70872771D01*
X160667570Y-70872771D02*
X160705666Y-71025152D01*
X160705666Y-71025152D02*
X160705666Y-71139438D01*
X160705666Y-71139438D02*
X160667570Y-71291819D01*
X160667570Y-71291819D02*
X160629475Y-71368009D01*
X160629475Y-71368009D02*
X160553285Y-71444200D01*
X160553285Y-71444200D02*
X160438999Y-71482295D01*
X160438999Y-71482295D02*
X160362808Y-71482295D01*
X160362808Y-71482295D02*
X160248523Y-71444200D01*
X160248523Y-71444200D02*
X160210427Y-71406104D01*
X160210427Y-71406104D02*
X160210427Y-71139438D01*
X160210427Y-71139438D02*
X160362808Y-71139438D01*
X159867570Y-71482295D02*
X159867570Y-70682295D01*
X159867570Y-70682295D02*
X159410427Y-71482295D01*
X159410427Y-71482295D02*
X159410427Y-70682295D01*
X159029475Y-71482295D02*
X159029475Y-70682295D01*
X159029475Y-70682295D02*
X158838999Y-70682295D01*
X158838999Y-70682295D02*
X158724713Y-70720390D01*
X158724713Y-70720390D02*
X158648523Y-70796580D01*
X158648523Y-70796580D02*
X158610428Y-70872771D01*
X158610428Y-70872771D02*
X158572332Y-71025152D01*
X158572332Y-71025152D02*
X158572332Y-71139438D01*
X158572332Y-71139438D02*
X158610428Y-71291819D01*
X158610428Y-71291819D02*
X158648523Y-71368009D01*
X158648523Y-71368009D02*
X158724713Y-71444200D01*
X158724713Y-71444200D02*
X158838999Y-71482295D01*
X158838999Y-71482295D02*
X159029475Y-71482295D01*
%TO.C,NNV2*%
D11*
X128270000Y-64770000D02*
X146050000Y-64770000D01*
X146050000Y-97790000D01*
X128270000Y-97790000D01*
X128270000Y-64770000D01*
%TO.C,NNV2_R1*%
X156210000Y-64770000D02*
X173990000Y-64770000D01*
X173990000Y-97790000D01*
X156210000Y-97790000D01*
X156210000Y-64770000D01*
%TD*%
D12*
%TO.C,NNV2*%
X129540000Y-66040000D03*
X129540000Y-68580000D03*
X129540000Y-71120000D03*
X129540000Y-73660000D03*
X129540000Y-76200000D03*
X129540000Y-78740000D03*
X129540000Y-81280000D03*
X129540000Y-83820000D03*
X129540000Y-86360000D03*
X129540000Y-88900000D03*
X129540000Y-91440000D03*
X129540000Y-93980000D03*
X129540000Y-96520000D03*
X144780000Y-66040000D03*
X144780000Y-68580000D03*
X144780000Y-71120000D03*
X144780000Y-73660000D03*
X144780000Y-76200000D03*
X144780000Y-78740000D03*
X144780000Y-81280000D03*
X144780000Y-83820000D03*
X144780000Y-86360000D03*
X144780000Y-88900000D03*
X144780000Y-91440000D03*
X144780000Y-93980000D03*
X144780000Y-96520000D03*
X132080000Y-91440000D03*
X134620000Y-91440000D03*
X137160000Y-91440000D03*
%TD*%
%TO.C,NNV2_R1*%
X157480000Y-66040000D03*
X157480000Y-68580000D03*
X157480000Y-71120000D03*
X157480000Y-73660000D03*
X157480000Y-76200000D03*
X157480000Y-78740000D03*
X157480000Y-81280000D03*
X157480000Y-83820000D03*
X157480000Y-86360000D03*
X157480000Y-88900000D03*
X157480000Y-91440000D03*
X157480000Y-93980000D03*
X157480000Y-96520000D03*
X172720000Y-66040000D03*
X172720000Y-68580000D03*
X172720000Y-71120000D03*
X172720000Y-73660000D03*
X172720000Y-76200000D03*
X172720000Y-78740000D03*
X172720000Y-81280000D03*
X172720000Y-83820000D03*
X172720000Y-86360000D03*
X172720000Y-88900000D03*
X172720000Y-91440000D03*
X172720000Y-93980000D03*
X172720000Y-96520000D03*
X160020000Y-91440000D03*
X162560000Y-91440000D03*
X165100000Y-91440000D03*
%TD*%
M02*
