M48
; DRILL file {KiCad 9.0.0} date 2025-11-03T03:19:47-0600
; FORMAT={-:-/ absolute / metric / decimal}
; #@! TF.CreationDate,2025-11-03T03:19:47-06:00
; #@! TF.GenerationSoftware,Kicad,Pcbnew,9.0.0
; #@! TF.FileFunction,Plated,1,2,PTH
FMAT,2
METRIC
; #@! TA.AperFunction,Plated,PTH,ViaDrill
T1C0.300
; #@! TA.AperFunction,Plated,PTH,ComponentDrill
T2C0.500
; #@! TA.AperFunction,Plated,PTH,ComponentDrill
T3C1.092
%
G90
G05
T1
X139.7Y-88.265
X139.7Y-93.98
X166.37Y-83.185
X170.18Y-79.375
T3
X129.54Y-66.04
X129.54Y-68.58
X129.54Y-71.12
X129.54Y-73.66
X129.54Y-76.2
X129.54Y-78.74
X129.54Y-81.28
X129.54Y-83.82
X129.54Y-86.36
X129.54Y-88.9
X129.54Y-91.44
X129.54Y-93.98
X129.54Y-96.52
X132.08Y-91.44
X134.62Y-91.44
X137.16Y-91.44
X144.78Y-66.04
X144.78Y-68.58
X144.78Y-71.12
X144.78Y-73.66
X144.78Y-76.2
X144.78Y-78.74
X144.78Y-81.28
X144.78Y-83.82
X144.78Y-86.36
X144.78Y-88.9
X144.78Y-91.44
X144.78Y-93.98
X144.78Y-96.52
X157.48Y-66.04
X157.48Y-68.58
X157.48Y-71.12
X157.48Y-73.66
X157.48Y-76.2
X157.48Y-78.74
X157.48Y-81.28
X157.48Y-83.82
X157.48Y-86.36
X157.48Y-88.9
X157.48Y-91.44
X157.48Y-93.98
X157.48Y-96.52
X160.02Y-91.44
X162.56Y-91.44
X165.1Y-91.44
X172.72Y-66.04
X172.72Y-68.58
X172.72Y-71.12
X172.72Y-73.66
X172.72Y-76.2
X172.72Y-78.74
X172.72Y-81.28
X172.72Y-83.82
X172.72Y-86.36
X172.72Y-88.9
X172.72Y-91.44
X172.72Y-93.98
X172.72Y-96.52
T2
G00X33.122Y-81.492
M15
G01X33.616Y-81.417
M16
G05
G00X35.963Y-100.278
M15
G01X36.457Y-100.203
M16
G05
G00X37.766Y-78.766
M15
G01X38.261Y-78.692
M16
G05
G00X38.804Y-119.064
M15
G01X39.298Y-118.99
M16
G05
G00X40.607Y-97.553
M15
G01X41.102Y-97.478
M16
G05
G00X43.449Y-116.339
M15
G01X43.943Y-116.264
M16
G05
G00X52.167Y-63.857
M15
G01X52.665Y-63.813
M16
G05
G00X53.823Y-82.784
M15
G01X54.321Y-82.741
M16
G05
G00X55.479Y-101.712
M15
G01X55.977Y-101.668
M16
G05
G00X56.974Y-61.428
M15
G01X57.472Y-61.385
M16
G05
G00X58.629Y-80.356
M15
G01X59.128Y-80.313
M16
G05
G00X60.285Y-99.284
M15
G01X60.784Y-99.24
M16
G05
G00X74.29Y-49.24
M15
G01X74.79Y-49.24
M16
G05
G00X74.29Y-68.24
M15
G01X74.79Y-68.24
M16
G05
G00X74.29Y-87.24
M15
G01X74.79Y-87.24
M16
G05
G00X79.29Y-47.24
M15
G01X79.79Y-47.24
M16
G05
G00X79.29Y-66.24
M15
G01X79.79Y-66.24
M16
G05
G00X79.29Y-85.24
M15
G01X79.79Y-85.24
M16
G05
G00X93.29Y-59.24
M15
G01X93.79Y-59.24
M16
G05
G00X93.29Y-78.24
M15
G01X93.79Y-78.24
M16
G05
G00X93.29Y-97.24
M15
G01X93.79Y-97.24
M16
G05
G00X98.29Y-57.24
M15
G01X98.79Y-57.24
M16
G05
G00X98.29Y-76.24
M15
G01X98.79Y-76.24
M16
G05
G00X98.29Y-95.24
M15
G01X98.79Y-95.24
M16
G05
G00X100.949Y-119.466
M15
G01X101.443Y-119.544
M16
G05
G00X106.2Y-118.272
M15
G01X106.694Y-118.351
M16
G05
G00X112.29Y-62.24
M15
G01X112.79Y-62.24
M16
G05
G00X112.29Y-81.24
M15
G01X112.79Y-81.24
M16
G05
G00X112.29Y-100.24
M15
G01X112.79Y-100.24
M16
G05
G00X117.29Y-60.24
M15
G01X117.79Y-60.24
M16
G05
G00X117.29Y-79.24
M15
G01X117.79Y-79.24
M16
G05
G00X117.29Y-98.24
M15
G01X117.79Y-98.24
M16
G05
G00X119.715Y-122.438
M15
G01X120.209Y-122.516
M16
G05
G00X124.966Y-121.245
M15
G01X125.46Y-121.323
M16
G05
G00X172.174Y-124.08
M15
G01X172.668Y-124.002
M16
G05
G00X176.8Y-121.323
M15
G01X177.294Y-121.245
M16
G05
G00X179.47Y-62.24
M15
G01X179.97Y-62.24
M16
G05
G00X179.47Y-81.24
M15
G01X179.97Y-81.24
M16
G05
G00X179.47Y-100.24
M15
G01X179.97Y-100.24
M16
G05
G00X184.47Y-60.24
M15
G01X184.97Y-60.24
M16
G05
G00X184.47Y-79.24
M15
G01X184.97Y-79.24
M16
G05
G00X184.47Y-98.24
M15
G01X184.97Y-98.24
M16
G05
G00X190.94Y-121.108
M15
G01X191.434Y-121.03
M16
G05
G00X195.566Y-118.351
M15
G01X196.06Y-118.272
M16
G05
G00X198.47Y-59.24
M15
G01X198.97Y-59.24
M16
G05
G00X198.47Y-78.24
M15
G01X198.97Y-78.24
M16
G05
G00X198.47Y-97.24
M15
G01X198.97Y-97.24
M16
G05
G00X203.47Y-57.24
M15
G01X203.97Y-57.24
M16
G05
G00X203.47Y-76.24
M15
G01X203.97Y-76.24
M16
G05
G00X203.47Y-95.24
M15
G01X203.97Y-95.24
M16
G05
G00X217.47Y-49.24
M15
G01X217.97Y-49.24
M16
G05
G00X217.47Y-68.24
M15
G01X217.97Y-68.24
M16
G05
G00X217.47Y-87.24
M15
G01X217.97Y-87.24
M16
G05
G00X222.47Y-47.24
M15
G01X222.97Y-47.24
M16
G05
G00X222.47Y-66.24
M15
G01X222.97Y-66.24
M16
G05
G00X222.47Y-85.24
M15
G01X222.97Y-85.24
M16
G05
G00X236.321Y-100.797
M15
G01X236.819Y-100.84
M16
G05
G00X237.977Y-81.869
M15
G01X238.475Y-81.913
M16
G05
G00X239.633Y-62.941
M15
G01X240.131Y-62.985
M16
G05
G00X241.476Y-99.24
M15
G01X241.975Y-99.284
M16
G05
G00X243.132Y-80.313
M15
G01X243.631Y-80.356
M16
G05
G00X244.788Y-61.385
M15
G01X245.286Y-61.428
M16
G05
G00X253.074Y-117.494
M15
G01X253.569Y-117.569
M16
G05
G00X255.915Y-98.708
M15
G01X256.41Y-98.783
M16
G05
G00X258.317Y-116.264
M15
G01X258.811Y-116.339
M16
G05
G00X258.756Y-79.921
M15
G01X259.251Y-79.996
M16
G05
G00X261.158Y-97.478
M15
G01X261.653Y-97.553
M16
G05
G00X263.999Y-78.692
M15
G01X264.494Y-78.766
M16
G05
M30
