%TF.GenerationSoftware,KiCad,Pcbnew,9.0.0*%
%TF.CreationDate,2025-11-03T03:19:47-06:00*%
%TF.ProjectId,Mau Keys,4d617520-4b65-4797-932e-6b696361645f,rev?*%
%TF.SameCoordinates,Original*%
%TF.FileFunction,Drillmap*%
%TF.FilePolarity,Positive*%
%FSLAX45Y45*%
G04 Gerber Fmt 4.5, Leading zero omitted, Abs format (unit mm)*
G04 Created by KiCad (PCBNEW 9.0.0) date 2025-11-03 03:19:47*
%MOMM*%
%LPD*%
G01*
G04 APERTURE LIST*
%ADD10C,0.250000*%
%ADD11C,0.050000*%
%ADD12C,0.200000*%
%ADD13C,0.100000*%
%ADD14C,0.185000*%
%ADD15C,0.490000*%
G04 APERTURE END LIST*
D10*
X9404000Y-5354000D02*
G75*
G02*
X8904000Y-4854000I0J500000D01*
G01*
X13380272Y-12778113D02*
G75*
G02*
X14100091Y-11255474I2963057J-469304D01*
G01*
X4752341Y-5954493D02*
G75*
G02*
X4843245Y-5846159I99609J8723D01*
G01*
X2822083Y-7747337D02*
X3641317Y-13186900D01*
X12480608Y-12701225D02*
G75*
G02*
X12380608Y-12701225I-50000J0D01*
G01*
X12380608Y-12701225D02*
G75*
G02*
X12480608Y-12701225I50000J0D01*
G01*
X13235943Y-13689372D02*
X13380272Y-12778113D01*
X10904000Y-5654000D02*
G75*
G02*
X10804000Y-5554000I0J100000D01*
G01*
X9904000Y-6304000D02*
G75*
G02*
X9804000Y-6304000I-50000J0D01*
G01*
X9804000Y-6304000D02*
G75*
G02*
X9904000Y-6304000I50000J0D01*
G01*
X13204000Y-6304000D02*
G75*
G02*
X12704000Y-5804000I0J500000D01*
G01*
X11804000Y-8504000D02*
G75*
G02*
X11704000Y-8504000I-50000J0D01*
G01*
X11704000Y-8504000D02*
G75*
G02*
X11804000Y-8504000I50000J0D01*
G01*
X7004000Y-5198951D02*
G75*
G02*
X6547578Y-5697047I-500000J1D01*
G01*
X10604000Y-12404000D02*
G75*
G02*
X10504000Y-12404000I-50000J0D01*
G01*
X10504000Y-12404000D02*
G75*
G02*
X10604000Y-12404000I50000J0D01*
G01*
X8804000Y-4354000D02*
G75*
G02*
X8904000Y-4454000I0J-100000D01*
G01*
X4221039Y-10325189D02*
G75*
G02*
X4121038Y-10325189I-50000J0D01*
G01*
X4121038Y-10325189D02*
G75*
G02*
X4221039Y-10325189I50000J0D01*
G01*
X6154000Y-10504000D02*
G75*
G02*
X6054000Y-10504000I-50000J0D01*
G01*
X6054000Y-10504000D02*
G75*
G02*
X6154000Y-10504000I50000J0D01*
G01*
X4832371Y-6869246D02*
X4752341Y-5954493D01*
X12704000Y-5754000D02*
X12704000Y-5804000D01*
X11804000Y-10404000D02*
G75*
G02*
X11704000Y-10404000I-50000J0D01*
G01*
X11704000Y-10404000D02*
G75*
G02*
X11804000Y-10404000I50000J0D01*
G01*
X13204000Y-6304000D02*
X14932000Y-6304000D01*
X10804000Y-5454000D02*
X10804000Y-5554000D01*
X8904000Y-4454000D02*
X8904000Y-4854000D01*
X3938077Y-8446377D02*
G75*
G02*
X3838077Y-8446377I-50000J0D01*
G01*
X3838077Y-8446377D02*
G75*
G02*
X3938077Y-8446377I50000J0D01*
G01*
X9404000Y-5354000D02*
X10704000Y-5354000D01*
X13235943Y-13689372D02*
G75*
G02*
X13121529Y-13772503I-98773J15643D01*
G01*
X8455767Y-13033514D02*
X13121530Y-13772499D01*
X4504000Y-12204000D02*
G75*
G02*
X4404000Y-12204000I-50000J0D01*
G01*
X4404000Y-12204000D02*
G75*
G02*
X4504000Y-12204000I50000J0D01*
G01*
X8004000Y-5304000D02*
G75*
G02*
X7904000Y-5304000I-50000J0D01*
G01*
X7904000Y-5304000D02*
G75*
G02*
X8004000Y-5304000I50000J0D01*
G01*
X2822083Y-7747337D02*
X2822083Y-7747337D01*
X14778854Y-10491082D02*
X14100091Y-11255474D01*
X4408738Y-7407248D02*
X4408738Y-7407248D01*
X10904000Y-5654000D02*
X12604000Y-5654000D01*
X8004000Y-9104000D02*
G75*
G02*
X7904000Y-9104000I-50000J0D01*
G01*
X7904000Y-9104000D02*
G75*
G02*
X8004000Y-9104000I50000J0D01*
G01*
X9904000Y-8204000D02*
G75*
G02*
X9804000Y-8204000I-50000J0D01*
G01*
X9804000Y-8204000D02*
G75*
G02*
X9904000Y-8204000I50000J0D01*
G01*
X2906075Y-7633559D02*
X4408738Y-7407248D01*
X5402149Y-13021916D02*
G75*
G02*
X8455767Y-13033515I1489271J-9888504D01*
G01*
X4843245Y-5846158D02*
X6547578Y-5697048D01*
X5988404Y-8611230D02*
G75*
G02*
X5888404Y-8611230I-50000J0D01*
G01*
X5888404Y-8611230D02*
G75*
G02*
X5988404Y-8611230I50000J0D01*
G01*
X8004000Y-7204000D02*
G75*
G02*
X7904000Y-7204000I-50000J0D01*
G01*
X7904000Y-7204000D02*
G75*
G02*
X8004000Y-7204000I50000J0D01*
G01*
X10704000Y-5354000D02*
G75*
G02*
X10804000Y-5454000I0J-100000D01*
G01*
X7004000Y-5198951D02*
X7004000Y-4454000D01*
X3754964Y-13269993D02*
G75*
G02*
X3641317Y-13186900I-14894J98893D01*
G01*
X2906075Y-7633559D02*
X2906075Y-7633559D01*
X14932000Y-6304000D02*
G75*
G02*
X15032000Y-6404000I0J-100000D01*
G01*
X11804000Y-6604000D02*
G75*
G02*
X11704000Y-6604000I-50000J0D01*
G01*
X11704000Y-6604000D02*
G75*
G02*
X11804000Y-6604000I50000J0D01*
G01*
X12604000Y-5654000D02*
G75*
G02*
X12704000Y-5754000I0J-100000D01*
G01*
X7104000Y-4354000D02*
X8804000Y-4354000D01*
X15032000Y-9826090D02*
G75*
G02*
X14778853Y-10491081I-1000030J10D01*
G01*
X4832371Y-6869246D02*
G75*
G02*
X4408738Y-7407248I-498094J-43580D01*
G01*
X2822083Y-7747337D02*
G75*
G02*
X2906075Y-7633560I98884J14893D01*
G01*
X9904000Y-10104000D02*
G75*
G02*
X9804000Y-10104000I-50000J0D01*
G01*
X9804000Y-10104000D02*
G75*
G02*
X9904000Y-10104000I50000J0D01*
G01*
X3754964Y-13269993D02*
X5402149Y-13021916D01*
X7004000Y-4454000D02*
G75*
G02*
X7104000Y-4354000I100010J-10D01*
G01*
X5822808Y-6718460D02*
G75*
G02*
X5722808Y-6718460I-50000J0D01*
G01*
X5722808Y-6718460D02*
G75*
G02*
X5822808Y-6718460I50000J0D01*
G01*
X15032000Y-6404000D02*
X15032000Y-9826090D01*
X15447146Y-10491082D02*
G75*
G02*
X15194001Y-9826090I746894J665002D01*
G01*
X21770233Y-13033514D02*
X17104470Y-13772499D01*
X20822000Y-5354000D02*
X19522000Y-5354000D01*
X27319925Y-7633559D02*
G75*
G02*
X27403913Y-7747336I-14905J-98891D01*
G01*
X17522000Y-5754000D02*
G75*
G02*
X17622000Y-5654000I100000J0D01*
G01*
X27403917Y-7747337D02*
X27403917Y-7747337D01*
X26104961Y-10325189D02*
G75*
G02*
X26004961Y-10325189I-50000J0D01*
G01*
X26004961Y-10325189D02*
G75*
G02*
X26104961Y-10325189I50000J0D01*
G01*
X23678422Y-5697048D02*
G75*
G02*
X23222000Y-5198951I43578J498098D01*
G01*
X23122000Y-4354000D02*
G75*
G02*
X23222000Y-4454000I0J-100000D01*
G01*
X21322000Y-4454000D02*
G75*
G02*
X21422000Y-4354000I100000J0D01*
G01*
X27403917Y-7747337D02*
X26584682Y-13186900D01*
X22322000Y-9104000D02*
G75*
G02*
X22222000Y-9104000I-50000J0D01*
G01*
X22222000Y-9104000D02*
G75*
G02*
X22322000Y-9104000I50000J0D01*
G01*
X25822000Y-12204000D02*
G75*
G02*
X25722000Y-12204000I-50000J0D01*
G01*
X25722000Y-12204000D02*
G75*
G02*
X25822000Y-12204000I50000J0D01*
G01*
X16125909Y-11255474D02*
G75*
G02*
X16845727Y-12778114I-2243229J-1991936D01*
G01*
X24172000Y-10504000D02*
G75*
G02*
X24072000Y-10504000I-50000J0D01*
G01*
X24072000Y-10504000D02*
G75*
G02*
X24172000Y-10504000I50000J0D01*
G01*
X23222000Y-5198951D02*
X23222000Y-4454000D01*
X19422000Y-5554000D02*
G75*
G02*
X19322000Y-5654000I-100000J0D01*
G01*
X18522000Y-10404000D02*
G75*
G02*
X18422000Y-10404000I-50000J0D01*
G01*
X18422000Y-10404000D02*
G75*
G02*
X18522000Y-10404000I50000J0D01*
G01*
X24503192Y-6718460D02*
G75*
G02*
X24403192Y-6718460I-50000J0D01*
G01*
X24403192Y-6718460D02*
G75*
G02*
X24503192Y-6718460I50000J0D01*
G01*
X20422000Y-8204000D02*
G75*
G02*
X20322000Y-8204000I-50000J0D01*
G01*
X20322000Y-8204000D02*
G75*
G02*
X20422000Y-8204000I50000J0D01*
G01*
X17022000Y-6304000D02*
X15294000Y-6304000D01*
X27319925Y-7633559D02*
X25817262Y-7407248D01*
X15194000Y-6404000D02*
X15194000Y-9826090D01*
X18522000Y-8504000D02*
G75*
G02*
X18422000Y-8504000I-50000J0D01*
G01*
X18422000Y-8504000D02*
G75*
G02*
X18522000Y-8504000I50000J0D01*
G01*
X19322000Y-5654000D02*
X17622000Y-5654000D01*
X20422000Y-6304000D02*
G75*
G02*
X20322000Y-6304000I-50000J0D01*
G01*
X20322000Y-6304000D02*
G75*
G02*
X20422000Y-6304000I50000J0D01*
G01*
X21770233Y-13033514D02*
G75*
G02*
X24823851Y-13021916I1564347J-9876886D01*
G01*
X22322000Y-5304000D02*
G75*
G02*
X22222000Y-5304000I-50000J0D01*
G01*
X22222000Y-5304000D02*
G75*
G02*
X22322000Y-5304000I50000J0D01*
G01*
X17845392Y-12701225D02*
G75*
G02*
X17745392Y-12701225I-50000J0D01*
G01*
X17745392Y-12701225D02*
G75*
G02*
X17845392Y-12701225I50000J0D01*
G01*
X21322000Y-4854000D02*
G75*
G02*
X20822000Y-5354000I-500000J0D01*
G01*
X15194000Y-6404000D02*
G75*
G02*
X15294000Y-6304000I100000J0D01*
G01*
X25817262Y-7407248D02*
X25817262Y-7407248D01*
X26471036Y-13269993D02*
X24823851Y-13021916D01*
X26584682Y-13186900D02*
G75*
G02*
X26471037Y-13269988I-98763J15820D01*
G01*
X19722000Y-12404000D02*
G75*
G02*
X19622000Y-12404000I-50000J0D01*
G01*
X19622000Y-12404000D02*
G75*
G02*
X19722000Y-12404000I50000J0D01*
G01*
X17522000Y-5804000D02*
G75*
G02*
X17022000Y-6304000I-500000J0D01*
G01*
X23122000Y-4354000D02*
X21422000Y-4354000D01*
X16990057Y-13689372D02*
X16845728Y-12778113D01*
X21322000Y-4454000D02*
X21322000Y-4854000D01*
X27319925Y-7633559D02*
X27319925Y-7633559D01*
X24337596Y-8611230D02*
G75*
G02*
X24237596Y-8611230I-50000J0D01*
G01*
X24237596Y-8611230D02*
G75*
G02*
X24337596Y-8611230I50000J0D01*
G01*
X26387923Y-8446377D02*
G75*
G02*
X26287923Y-8446377I-50000J0D01*
G01*
X26287923Y-8446377D02*
G75*
G02*
X26387923Y-8446377I50000J0D01*
G01*
X19422000Y-5454000D02*
X19422000Y-5554000D01*
X19422000Y-5454000D02*
G75*
G02*
X19522000Y-5354000I100000J0D01*
G01*
X25382755Y-5846158D02*
G75*
G02*
X25473652Y-5954492I-8715J-99612D01*
G01*
X17104470Y-13772499D02*
G75*
G02*
X16990059Y-13689372I-15650J98759D01*
G01*
X18522000Y-6604000D02*
G75*
G02*
X18422000Y-6604000I-50000J0D01*
G01*
X18422000Y-6604000D02*
G75*
G02*
X18522000Y-6604000I50000J0D01*
G01*
X15447146Y-10491082D02*
X16125909Y-11255474D01*
X25382755Y-5846158D02*
X23678422Y-5697048D01*
X20422000Y-10104000D02*
G75*
G02*
X20322000Y-10104000I-50000J0D01*
G01*
X20322000Y-10104000D02*
G75*
G02*
X20422000Y-10104000I50000J0D01*
G01*
X25817262Y-7407248D02*
G75*
G02*
X25393628Y-6869246I74468J494428D01*
G01*
X25393629Y-6869246D02*
X25473659Y-5954493D01*
X17522000Y-5754000D02*
X17522000Y-5804000D01*
X22322000Y-7204000D02*
G75*
G02*
X22222000Y-7204000I-50000J0D01*
G01*
X22222000Y-7204000D02*
G75*
G02*
X22322000Y-7204000I50000J0D01*
G01*
D11*
X17942000Y-8604000D02*
X17942000Y-8404000D01*
X18952000Y-8354000D02*
X17992000Y-8354000D01*
X18952000Y-8654000D02*
X17992000Y-8654000D01*
X19002000Y-8404000D02*
X19002000Y-8604000D01*
X17942000Y-8404000D02*
G75*
G02*
X17992000Y-8354000I50000J0D01*
G01*
X17992000Y-8654000D02*
G75*
G02*
X17942000Y-8604000I0J50000D01*
G01*
X18952000Y-8354000D02*
G75*
G02*
X19002000Y-8404000I0J-50000D01*
G01*
X19002000Y-8604000D02*
G75*
G02*
X18952000Y-8654000I-50000J0D01*
G01*
X19842000Y-10204000D02*
X19842000Y-10004000D01*
X20852000Y-9954000D02*
X19892000Y-9954000D01*
X20852000Y-10254000D02*
X19892000Y-10254000D01*
X20902000Y-10004000D02*
X20902000Y-10204000D01*
X19842000Y-10004000D02*
G75*
G02*
X19892000Y-9954000I50000J0D01*
G01*
X19892000Y-10254000D02*
G75*
G02*
X19842000Y-10204000I0J50000D01*
G01*
X20852000Y-9954000D02*
G75*
G02*
X20902000Y-10004000I0J-50000D01*
G01*
X20902000Y-10204000D02*
G75*
G02*
X20852000Y-10254000I-50000J0D01*
G01*
X9324000Y-10204000D02*
X9324000Y-10004000D01*
X10334000Y-9954000D02*
X9374000Y-9954000D01*
X10334000Y-10254000D02*
X9374000Y-10254000D01*
X10384000Y-10004000D02*
X10384000Y-10204000D01*
X9324000Y-10004000D02*
G75*
G02*
X9374000Y-9954000I50000J0D01*
G01*
X9374000Y-10254000D02*
G75*
G02*
X9324000Y-10204000I0J50000D01*
G01*
X10334000Y-9954000D02*
G75*
G02*
X10384000Y-10004000I0J-50000D01*
G01*
X10384000Y-10204000D02*
G75*
G02*
X10334000Y-10254000I-50000J0D01*
G01*
X9324000Y-6404000D02*
X9324000Y-6204000D01*
X10334000Y-6154000D02*
X9374000Y-6154000D01*
X10334000Y-6454000D02*
X9374000Y-6454000D01*
X10384000Y-6204000D02*
X10384000Y-6404000D01*
X9324000Y-6204000D02*
G75*
G02*
X9374000Y-6154000I50000J0D01*
G01*
X9374000Y-6454000D02*
G75*
G02*
X9324000Y-6404000I0J50000D01*
G01*
X10334000Y-6154000D02*
G75*
G02*
X10384000Y-6204000I0J-50000D01*
G01*
X10384000Y-6404000D02*
G75*
G02*
X10334000Y-6454000I-50000J0D01*
G01*
X11224000Y-6704000D02*
X11224000Y-6504000D01*
X12234000Y-6454000D02*
X11274000Y-6454000D01*
X12234000Y-6754000D02*
X11274000Y-6754000D01*
X12284000Y-6504000D02*
X12284000Y-6704000D01*
X11224000Y-6504000D02*
G75*
G02*
X11274000Y-6454000I50000J0D01*
G01*
X11274000Y-6754000D02*
G75*
G02*
X11224000Y-6704000I0J50000D01*
G01*
X12234000Y-6454000D02*
G75*
G02*
X12284000Y-6504000I0J-50000D01*
G01*
X12284000Y-6704000D02*
G75*
G02*
X12234000Y-6754000I-50000J0D01*
G01*
X11224000Y-10504000D02*
X11224000Y-10304000D01*
X12234000Y-10254000D02*
X11274000Y-10254000D01*
X12234000Y-10554000D02*
X11274000Y-10554000D01*
X12284000Y-10304000D02*
X12284000Y-10504000D01*
X11224000Y-10304000D02*
G75*
G02*
X11274000Y-10254000I50000J0D01*
G01*
X11274000Y-10554000D02*
G75*
G02*
X11224000Y-10504000I0J50000D01*
G01*
X12234000Y-10254000D02*
G75*
G02*
X12284000Y-10304000I0J-50000D01*
G01*
X12284000Y-10504000D02*
G75*
G02*
X12234000Y-10554000I-50000J0D01*
G01*
X11891489Y-12717084D02*
X11922776Y-12519546D01*
X12928163Y-12628161D02*
X11979983Y-12477984D01*
X12881233Y-12924467D02*
X11933052Y-12774290D01*
X12969726Y-12685367D02*
X12938439Y-12882905D01*
X11922776Y-12519546D02*
G75*
G02*
X11979983Y-12477984I49385J-7822D01*
G01*
X11933052Y-12774290D02*
G75*
G02*
X11891489Y-12717084I7822J49385D01*
G01*
X12928163Y-12628161D02*
G75*
G02*
X12969726Y-12685367I-7822J-49384D01*
G01*
X12938439Y-12882905D02*
G75*
G02*
X12881233Y-12924467I-49384J7822D01*
G01*
X11224000Y-8604000D02*
X11224000Y-8404000D01*
X12234000Y-8354000D02*
X11274000Y-8354000D01*
X12234000Y-8654000D02*
X11274000Y-8654000D01*
X12284000Y-8404000D02*
X12284000Y-8604000D01*
X11224000Y-8404000D02*
G75*
G02*
X11274000Y-8354000I50000J0D01*
G01*
X11274000Y-8654000D02*
G75*
G02*
X11224000Y-8604000I0J50000D01*
G01*
X12234000Y-8354000D02*
G75*
G02*
X12284000Y-8404000I0J-50000D01*
G01*
X12284000Y-8604000D02*
G75*
G02*
X12234000Y-8654000I-50000J0D01*
G01*
X9324000Y-8304000D02*
X9324000Y-8104000D01*
X10334000Y-8054000D02*
X9374000Y-8054000D01*
X10334000Y-8354000D02*
X9374000Y-8354000D01*
X10384000Y-8104000D02*
X10384000Y-8304000D01*
X9324000Y-8104000D02*
G75*
G02*
X9374000Y-8054000I50000J0D01*
G01*
X9374000Y-8354000D02*
G75*
G02*
X9324000Y-8304000I0J50000D01*
G01*
X10334000Y-8054000D02*
G75*
G02*
X10384000Y-8104000I0J-50000D01*
G01*
X10384000Y-8304000D02*
G75*
G02*
X10334000Y-8354000I-50000J0D01*
G01*
X10014882Y-12419859D02*
X10046169Y-12222321D01*
X11051556Y-12330935D02*
X10103375Y-12180758D01*
X11004625Y-12627242D02*
X10056444Y-12477065D01*
X11093118Y-12388141D02*
X11061831Y-12585679D01*
X10046169Y-12222321D02*
G75*
G02*
X10103375Y-12180758I49385J-7822D01*
G01*
X10056444Y-12477065D02*
G75*
G02*
X10014882Y-12419859I7822J49385D01*
G01*
X11051556Y-12330935D02*
G75*
G02*
X11093118Y-12388141I-7822J-49384D01*
G01*
X11061831Y-12585679D02*
G75*
G02*
X11004625Y-12627242I-49384J7822D01*
G01*
X5584732Y-10649812D02*
X5567301Y-10450573D01*
X6569100Y-10312736D02*
X5612753Y-10396405D01*
X6595247Y-10611594D02*
X5638900Y-10695264D01*
X6623268Y-10358188D02*
X6640699Y-10557427D01*
X5567301Y-10450573D02*
G75*
G02*
X5612753Y-10396405I49810J4358D01*
G01*
X5638900Y-10695264D02*
G75*
G02*
X5584732Y-10649812I-4358J49810D01*
G01*
X6569100Y-10312736D02*
G75*
G02*
X6623268Y-10358188I4358J-49810D01*
G01*
X6640699Y-10557427D02*
G75*
G02*
X6595247Y-10611594I-49810J-4358D01*
G01*
X5419137Y-8757042D02*
X5401705Y-8557803D01*
X6403504Y-8419966D02*
X5447157Y-8503636D01*
X6429651Y-8718824D02*
X5473304Y-8802494D01*
X6457672Y-8465418D02*
X6475103Y-8664657D01*
X5401705Y-8557803D02*
G75*
G02*
X5447157Y-8503636I49810J4358D01*
G01*
X5473304Y-8802494D02*
G75*
G02*
X5419136Y-8757042I-4358J49810D01*
G01*
X6403504Y-8419966D02*
G75*
G02*
X6457672Y-8465418I4358J-49810D01*
G01*
X6475103Y-8664657D02*
G75*
G02*
X6429651Y-8718825I-49810J-4358D01*
G01*
X5253541Y-6864272D02*
X5236109Y-6665033D01*
X6237908Y-6527196D02*
X5281562Y-6610866D01*
X6264055Y-6826054D02*
X5307708Y-6909724D01*
X6292076Y-6572648D02*
X6309507Y-6771887D01*
X5236109Y-6665033D02*
G75*
G02*
X5281561Y-6610866I49810J4358D01*
G01*
X5307708Y-6909724D02*
G75*
G02*
X5253540Y-6864272I-4358J49810D01*
G01*
X6237908Y-6527196D02*
G75*
G02*
X6292076Y-6572648I4358J-49810D01*
G01*
X6309507Y-6771887D02*
G75*
G02*
X6264055Y-6826055I-49810J-4358D01*
G01*
X7424000Y-5404000D02*
X7424000Y-5204000D01*
X8434000Y-5154000D02*
X7474000Y-5154000D01*
X8434000Y-5454000D02*
X7474000Y-5454000D01*
X8484000Y-5204000D02*
X8484000Y-5404000D01*
X7424000Y-5204000D02*
G75*
G02*
X7474000Y-5154000I50000J0D01*
G01*
X7474000Y-5454000D02*
G75*
G02*
X7424000Y-5404000I0J50000D01*
G01*
X8434000Y-5154000D02*
G75*
G02*
X8484000Y-5204000I0J-50000D01*
G01*
X8484000Y-5404000D02*
G75*
G02*
X8434000Y-5454000I-50000J0D01*
G01*
X7424000Y-7304000D02*
X7424000Y-7104000D01*
X8434000Y-7054000D02*
X7474000Y-7054000D01*
X8434000Y-7354000D02*
X7474000Y-7354000D01*
X8484000Y-7104000D02*
X8484000Y-7304000D01*
X7424000Y-7104000D02*
G75*
G02*
X7474000Y-7054000I50000J0D01*
G01*
X7474000Y-7354000D02*
G75*
G02*
X7424000Y-7304000I0J50000D01*
G01*
X8434000Y-7054000D02*
G75*
G02*
X8484000Y-7104000I0J-50000D01*
G01*
X8484000Y-7304000D02*
G75*
G02*
X8434000Y-7354000I-50000J0D01*
G01*
X7424000Y-9204000D02*
X7424000Y-9004000D01*
X8434000Y-8954000D02*
X7474000Y-8954000D01*
X8434000Y-9254000D02*
X7474000Y-9254000D01*
X8484000Y-9004000D02*
X8484000Y-9204000D01*
X7424000Y-9004000D02*
G75*
G02*
X7474000Y-8954000I50000J0D01*
G01*
X7474000Y-9254000D02*
G75*
G02*
X7424000Y-9204000I0J50000D01*
G01*
X8434000Y-8954000D02*
G75*
G02*
X8484000Y-9004000I0J-50000D01*
G01*
X8484000Y-9204000D02*
G75*
G02*
X8434000Y-9254000I-50000J0D01*
G01*
X3378990Y-8624506D02*
X3349083Y-8426755D01*
X4340250Y-8226286D02*
X3391044Y-8369840D01*
X4385110Y-8522913D02*
X3435904Y-8666467D01*
X4397164Y-8268247D02*
X4427071Y-8465999D01*
X3349083Y-8426755D02*
G75*
G02*
X3391044Y-8369840I49438J7477D01*
G01*
X3435904Y-8666467D02*
G75*
G02*
X3378990Y-8624506I-7477J49438D01*
G01*
X4340250Y-8226286D02*
G75*
G02*
X4397164Y-8268247I7477J-49438D01*
G01*
X4427071Y-8465999D02*
G75*
G02*
X4385110Y-8522913I-49438J-7477D01*
G01*
X3663107Y-10503143D02*
X3633200Y-10305392D01*
X4624367Y-10104924D02*
X3675161Y-10248478D01*
X4669228Y-10401551D02*
X3720021Y-10545104D01*
X4681282Y-10146885D02*
X4711189Y-10344636D01*
X3633200Y-10305392D02*
G75*
G02*
X3675161Y-10248478I49438J7477D01*
G01*
X3720021Y-10545105D02*
G75*
G02*
X3663107Y-10503144I-7477J49438D01*
G01*
X4624367Y-10104924D02*
G75*
G02*
X4681282Y-10146885I7477J-49438D01*
G01*
X4711189Y-10344636D02*
G75*
G02*
X4669228Y-10401551I-49438J-7477D01*
G01*
X3947224Y-12381780D02*
X3917317Y-12184029D01*
X4908484Y-11983561D02*
X3959278Y-12127115D01*
X4953345Y-12280188D02*
X4004139Y-12423741D01*
X4965399Y-12025522D02*
X4995306Y-12223273D01*
X3917317Y-12184029D02*
G75*
G02*
X3959278Y-12127115I49438J7477D01*
G01*
X4004139Y-12423742D02*
G75*
G02*
X3947224Y-12381781I-7477J49438D01*
G01*
X4908484Y-11983561D02*
G75*
G02*
X4965399Y-12025522I7477J-49438D01*
G01*
X4995306Y-12223273D02*
G75*
G02*
X4953345Y-12280188I-49438J-7477D01*
G01*
X19842000Y-6404000D02*
X19842000Y-6204000D01*
X20852000Y-6154000D02*
X19892000Y-6154000D01*
X20852000Y-6454000D02*
X19892000Y-6454000D01*
X20902000Y-6204000D02*
X20902000Y-6404000D01*
X19842000Y-6204000D02*
G75*
G02*
X19892000Y-6154000I50000J0D01*
G01*
X19892000Y-6454000D02*
G75*
G02*
X19842000Y-6404000I0J50000D01*
G01*
X20852000Y-6154000D02*
G75*
G02*
X20902000Y-6204000I0J-50000D01*
G01*
X20902000Y-6404000D02*
G75*
G02*
X20852000Y-6454000I-50000J0D01*
G01*
X23750897Y-8664657D02*
X23768328Y-8465418D01*
X24778843Y-8503636D02*
X23822496Y-8419966D01*
X24752696Y-8802494D02*
X23796349Y-8718824D01*
X24824295Y-8557803D02*
X24806863Y-8757042D01*
X23768328Y-8465418D02*
G75*
G02*
X23822496Y-8419966I49810J-4358D01*
G01*
X23796349Y-8718825D02*
G75*
G02*
X23750897Y-8664657I4358J49810D01*
G01*
X24778843Y-8503636D02*
G75*
G02*
X24824295Y-8557803I-4358J-49810D01*
G01*
X24806863Y-8757042D02*
G75*
G02*
X24752696Y-8802494I-49810J4358D01*
G01*
X19842000Y-8304000D02*
X19842000Y-8104000D01*
X20852000Y-8054000D02*
X19892000Y-8054000D01*
X20852000Y-8354000D02*
X19892000Y-8354000D01*
X20902000Y-8104000D02*
X20902000Y-8304000D01*
X19842000Y-8104000D02*
G75*
G02*
X19892000Y-8054000I50000J0D01*
G01*
X19892000Y-8354000D02*
G75*
G02*
X19842000Y-8304000I0J50000D01*
G01*
X20852000Y-8054000D02*
G75*
G02*
X20902000Y-8104000I0J-50000D01*
G01*
X20902000Y-8304000D02*
G75*
G02*
X20852000Y-8354000I-50000J0D01*
G01*
X25798929Y-8465999D02*
X25828836Y-8268247D01*
X26834956Y-8369840D02*
X25885750Y-8226286D01*
X26790096Y-8666467D02*
X25840890Y-8522913D01*
X26876917Y-8426755D02*
X26847010Y-8624506D01*
X25828836Y-8268247D02*
G75*
G02*
X25885750Y-8226286I49438J-7477D01*
G01*
X25840889Y-8522914D02*
G75*
G02*
X25798928Y-8465999I7477J49438D01*
G01*
X26834956Y-8369840D02*
G75*
G02*
X26876917Y-8426755I-7477J-49438D01*
G01*
X26847010Y-8624506D02*
G75*
G02*
X26790096Y-8666467I-49438J7477D01*
G01*
X21742000Y-7304000D02*
X21742000Y-7104000D01*
X22752000Y-7054000D02*
X21792000Y-7054000D01*
X22752000Y-7354000D02*
X21792000Y-7354000D01*
X22802000Y-7104000D02*
X22802000Y-7304000D01*
X21742000Y-7104000D02*
G75*
G02*
X21792000Y-7054000I50000J0D01*
G01*
X21792000Y-7354000D02*
G75*
G02*
X21742000Y-7304000I0J50000D01*
G01*
X22752000Y-7054000D02*
G75*
G02*
X22802000Y-7104000I0J-50000D01*
G01*
X22802000Y-7304000D02*
G75*
G02*
X22752000Y-7354000I-50000J0D01*
G01*
X25514811Y-10344636D02*
X25544718Y-10146885D01*
X26550839Y-10248478D02*
X25601633Y-10104924D01*
X26505979Y-10545104D02*
X25556772Y-10401550D01*
X26592800Y-10305392D02*
X26562893Y-10503143D01*
X25544718Y-10146885D02*
G75*
G02*
X25601633Y-10104924I49438J-7477D01*
G01*
X25556772Y-10401551D02*
G75*
G02*
X25514811Y-10344636I7477J49438D01*
G01*
X26550839Y-10248478D02*
G75*
G02*
X26592800Y-10305392I-7477J-49438D01*
G01*
X26562893Y-10503143D02*
G75*
G02*
X26505979Y-10545104I-49438J7477D01*
G01*
X21742000Y-5404000D02*
X21742000Y-5204000D01*
X22752000Y-5154000D02*
X21792000Y-5154000D01*
X22752000Y-5454000D02*
X21792000Y-5454000D01*
X22802000Y-5204000D02*
X22802000Y-5404000D01*
X21742000Y-5204000D02*
G75*
G02*
X21792000Y-5154000I50000J0D01*
G01*
X21792000Y-5454000D02*
G75*
G02*
X21742000Y-5404000I0J50000D01*
G01*
X22752000Y-5154000D02*
G75*
G02*
X22802000Y-5204000I0J-50000D01*
G01*
X22802000Y-5404000D02*
G75*
G02*
X22752000Y-5454000I-50000J0D01*
G01*
X19164169Y-12585679D02*
X19132882Y-12388141D01*
X20122625Y-12180758D02*
X19174445Y-12330935D01*
X20169556Y-12477065D02*
X19221375Y-12627242D01*
X20179831Y-12222321D02*
X20211118Y-12419859D01*
X19132882Y-12388141D02*
G75*
G02*
X19174444Y-12330935I49385J7822D01*
G01*
X19221375Y-12627242D02*
G75*
G02*
X19164169Y-12585679I-7822J49385D01*
G01*
X20122625Y-12180758D02*
G75*
G02*
X20179831Y-12222321I7822J-49384D01*
G01*
X20211118Y-12419859D02*
G75*
G02*
X20169556Y-12477065I-49385J-7822D01*
G01*
X23585301Y-10557427D02*
X23602732Y-10358188D01*
X24613247Y-10396406D02*
X23656900Y-10312736D01*
X24587100Y-10695264D02*
X23630753Y-10611594D01*
X24658699Y-10450573D02*
X24641268Y-10649812D01*
X23602732Y-10358188D02*
G75*
G02*
X23656900Y-10312736I49810J-4358D01*
G01*
X23630753Y-10611594D02*
G75*
G02*
X23585301Y-10557427I4358J49810D01*
G01*
X24613247Y-10396406D02*
G75*
G02*
X24658699Y-10450573I-4358J-49810D01*
G01*
X24641268Y-10649812D02*
G75*
G02*
X24587100Y-10695264I-49810J4358D01*
G01*
X17942000Y-10504000D02*
X17942000Y-10304000D01*
X18952000Y-10254000D02*
X17992000Y-10254000D01*
X18952000Y-10554000D02*
X17992000Y-10554000D01*
X19002000Y-10304000D02*
X19002000Y-10504000D01*
X17942000Y-10304000D02*
G75*
G02*
X17992000Y-10254000I50000J0D01*
G01*
X17992000Y-10554000D02*
G75*
G02*
X17942000Y-10504000I0J50000D01*
G01*
X18952000Y-10254000D02*
G75*
G02*
X19002000Y-10304000I0J-50000D01*
G01*
X19002000Y-10504000D02*
G75*
G02*
X18952000Y-10554000I-50000J0D01*
G01*
X17287561Y-12882905D02*
X17256274Y-12685367D01*
X18246017Y-12477984D02*
X17297837Y-12628161D01*
X18292948Y-12774290D02*
X17344767Y-12924467D01*
X18303224Y-12519546D02*
X18334511Y-12717084D01*
X17256274Y-12685367D02*
G75*
G02*
X17297837Y-12628161I49385J7822D01*
G01*
X17344767Y-12924467D02*
G75*
G02*
X17287561Y-12882905I-7822J49385D01*
G01*
X18246017Y-12477984D02*
G75*
G02*
X18303224Y-12519546I7822J-49384D01*
G01*
X18334511Y-12717084D02*
G75*
G02*
X18292948Y-12774290I-49385J-7822D01*
G01*
X17942000Y-6704000D02*
X17942000Y-6504000D01*
X18952000Y-6454000D02*
X17992000Y-6454000D01*
X18952000Y-6754000D02*
X17992000Y-6754000D01*
X19002000Y-6504000D02*
X19002000Y-6704000D01*
X17942000Y-6504000D02*
G75*
G02*
X17992000Y-6454000I50000J0D01*
G01*
X17992000Y-6754000D02*
G75*
G02*
X17942000Y-6704000I0J50000D01*
G01*
X18952000Y-6454000D02*
G75*
G02*
X19002000Y-6504000I0J-50000D01*
G01*
X19002000Y-6704000D02*
G75*
G02*
X18952000Y-6754000I-50000J0D01*
G01*
X25230694Y-12223273D02*
X25260601Y-12025522D01*
X26266722Y-12127115D02*
X25317516Y-11983561D01*
X26221861Y-12423741D02*
X25272655Y-12280187D01*
X26308683Y-12184029D02*
X26278776Y-12381780D01*
X25260601Y-12025522D02*
G75*
G02*
X25317516Y-11983561I49438J-7477D01*
G01*
X25272655Y-12280188D02*
G75*
G02*
X25230694Y-12223273I7477J49438D01*
G01*
X26266722Y-12127115D02*
G75*
G02*
X26308683Y-12184029I-7477J-49438D01*
G01*
X26278776Y-12381780D02*
G75*
G02*
X26221861Y-12423741I-49438J7477D01*
G01*
X21742000Y-9204000D02*
X21742000Y-9004000D01*
X22752000Y-8954000D02*
X21792000Y-8954000D01*
X22752000Y-9254000D02*
X21792000Y-9254000D01*
X22802000Y-9004000D02*
X22802000Y-9204000D01*
X21742000Y-9004000D02*
G75*
G02*
X21792000Y-8954000I50000J0D01*
G01*
X21792000Y-9254000D02*
G75*
G02*
X21742000Y-9204000I0J50000D01*
G01*
X22752000Y-8954000D02*
G75*
G02*
X22802000Y-9004000I0J-50000D01*
G01*
X22802000Y-9204000D02*
G75*
G02*
X22752000Y-9254000I-50000J0D01*
G01*
X23916493Y-6771887D02*
X23933924Y-6572648D01*
X24944439Y-6610866D02*
X23988092Y-6527196D01*
X24918292Y-6909724D02*
X23961945Y-6826054D01*
X24989891Y-6665033D02*
X24972459Y-6864272D01*
X23933924Y-6572648D02*
G75*
G02*
X23988092Y-6527196I49810J-4358D01*
G01*
X23961945Y-6826055D02*
G75*
G02*
X23916493Y-6771887I4358J49810D01*
G01*
X24944439Y-6610866D02*
G75*
G02*
X24989890Y-6665033I-4358J-49810D01*
G01*
X24972459Y-6864272D02*
G75*
G02*
X24918292Y-6909724I-49810J4358D01*
G01*
D12*
D13*
X13521000Y-6559000D02*
X13611000Y-6649000D01*
X13611000Y-6559000D02*
X13521000Y-6649000D01*
X13821000Y-6559000D02*
X13911000Y-6649000D01*
X13911000Y-6559000D02*
X13821000Y-6649000D01*
X16315500Y-6559500D02*
X16405500Y-6649500D01*
X16405500Y-6559500D02*
X16315500Y-6649500D01*
X16615500Y-6559500D02*
X16705500Y-6649500D01*
X16705500Y-6559500D02*
X16615500Y-6649500D01*
D14*
X3589469Y-8869620D02*
G75*
G02*
X3404469Y-8869620I-92500J0D01*
G01*
X3404469Y-8869620D02*
G75*
G02*
X3589469Y-8869620I92500J0D01*
G01*
X3873587Y-10748257D02*
G75*
G02*
X3688587Y-10748257I-92500J0D01*
G01*
X3688587Y-10748257D02*
G75*
G02*
X3873587Y-10748257I92500J0D01*
G01*
X4157704Y-12626894D02*
G75*
G02*
X3972704Y-12626894I-92500J0D01*
G01*
X3972704Y-12626894D02*
G75*
G02*
X4157704Y-12626894I92500J0D01*
G01*
X4371685Y-8023134D02*
G75*
G02*
X4186685Y-8023134I-92500J0D01*
G01*
X4186685Y-8023134D02*
G75*
G02*
X4371685Y-8023134I92500J0D01*
G01*
X4655802Y-9901771D02*
G75*
G02*
X4470802Y-9901771I-92500J0D01*
G01*
X4470802Y-9901771D02*
G75*
G02*
X4655802Y-9901771I92500J0D01*
G01*
X4939919Y-11780408D02*
G75*
G02*
X4754919Y-11780408I-92500J0D01*
G01*
X4754919Y-11780408D02*
G75*
G02*
X4939919Y-11780408I92500J0D01*
G01*
X5448397Y-7116310D02*
G75*
G02*
X5263397Y-7116310I-92500J0D01*
G01*
X5263397Y-7116310D02*
G75*
G02*
X5448397Y-7116310I92500J0D01*
G01*
X5613993Y-9009080D02*
G75*
G02*
X5428993Y-9009080I-92500J0D01*
G01*
X5428993Y-9009080D02*
G75*
G02*
X5613993Y-9009080I92500J0D01*
G01*
X5779588Y-10901850D02*
G75*
G02*
X5594588Y-10901850I-92500J0D01*
G01*
X5594588Y-10901850D02*
G75*
G02*
X5779588Y-10901850I92500J0D01*
G01*
X6282220Y-6320610D02*
G75*
G02*
X6097220Y-6320610I-92500J0D01*
G01*
X6097220Y-6320610D02*
G75*
G02*
X6282220Y-6320610I92500J0D01*
G01*
X6447816Y-8213380D02*
G75*
G02*
X6262816Y-8213380I-92500J0D01*
G01*
X6262816Y-8213380D02*
G75*
G02*
X6447816Y-8213380I92500J0D01*
G01*
X6613411Y-10106150D02*
G75*
G02*
X6428411Y-10106150I-92500J0D01*
G01*
X6428411Y-10106150D02*
G75*
G02*
X6613411Y-10106150I92500J0D01*
G01*
X7596500Y-5664000D02*
G75*
G02*
X7411500Y-5664000I-92500J0D01*
G01*
X7411500Y-5664000D02*
G75*
G02*
X7596500Y-5664000I92500J0D01*
G01*
X7596500Y-7564000D02*
G75*
G02*
X7411500Y-7564000I-92500J0D01*
G01*
X7411500Y-7564000D02*
G75*
G02*
X7596500Y-7564000I92500J0D01*
G01*
X7596500Y-9464000D02*
G75*
G02*
X7411500Y-9464000I-92500J0D01*
G01*
X7411500Y-9464000D02*
G75*
G02*
X7596500Y-9464000I92500J0D01*
G01*
X8496500Y-4944000D02*
G75*
G02*
X8311500Y-4944000I-92500J0D01*
G01*
X8311500Y-4944000D02*
G75*
G02*
X8496500Y-4944000I92500J0D01*
G01*
X8496500Y-6844000D02*
G75*
G02*
X8311500Y-6844000I-92500J0D01*
G01*
X8311500Y-6844000D02*
G75*
G02*
X8496500Y-6844000I92500J0D01*
G01*
X8496500Y-8744000D02*
G75*
G02*
X8311500Y-8744000I-92500J0D01*
G01*
X8311500Y-8744000D02*
G75*
G02*
X8496500Y-8744000I92500J0D01*
G01*
X9496500Y-6664000D02*
G75*
G02*
X9311500Y-6664000I-92500J0D01*
G01*
X9311500Y-6664000D02*
G75*
G02*
X9496500Y-6664000I92500J0D01*
G01*
X9496500Y-8564000D02*
G75*
G02*
X9311500Y-8564000I-92500J0D01*
G01*
X9311500Y-8564000D02*
G75*
G02*
X9496500Y-8564000I92500J0D01*
G01*
X9496500Y-10464000D02*
G75*
G02*
X9311500Y-10464000I-92500J0D01*
G01*
X9311500Y-10464000D02*
G75*
G02*
X9496500Y-10464000I92500J0D01*
G01*
X10145724Y-12689172D02*
G75*
G02*
X9960724Y-12689172I-92500J0D01*
G01*
X9960724Y-12689172D02*
G75*
G02*
X10145724Y-12689172I92500J0D01*
G01*
X10396500Y-5944000D02*
G75*
G02*
X10211500Y-5944000I-92500J0D01*
G01*
X10211500Y-5944000D02*
G75*
G02*
X10396500Y-5944000I92500J0D01*
G01*
X10396500Y-7844000D02*
G75*
G02*
X10211500Y-7844000I-92500J0D01*
G01*
X10211500Y-7844000D02*
G75*
G02*
X10396500Y-7844000I92500J0D01*
G01*
X10396500Y-9744000D02*
G75*
G02*
X10211500Y-9744000I-92500J0D01*
G01*
X10211500Y-9744000D02*
G75*
G02*
X10396500Y-9744000I92500J0D01*
G01*
X11147276Y-12118828D02*
G75*
G02*
X10962276Y-12118828I-92500J0D01*
G01*
X10962276Y-12118828D02*
G75*
G02*
X11147276Y-12118828I92500J0D01*
G01*
X11396500Y-6964000D02*
G75*
G02*
X11211500Y-6964000I-92500J0D01*
G01*
X11211500Y-6964000D02*
G75*
G02*
X11396500Y-6964000I92500J0D01*
G01*
X11396500Y-8864000D02*
G75*
G02*
X11211500Y-8864000I-92500J0D01*
G01*
X11211500Y-8864000D02*
G75*
G02*
X11396500Y-8864000I92500J0D01*
G01*
X11396500Y-10764000D02*
G75*
G02*
X11211500Y-10764000I-92500J0D01*
G01*
X11211500Y-10764000D02*
G75*
G02*
X11396500Y-10764000I92500J0D01*
G01*
X12022332Y-12986398D02*
G75*
G02*
X11837332Y-12986398I-92500J0D01*
G01*
X11837332Y-12986398D02*
G75*
G02*
X12022332Y-12986398I92500J0D01*
G01*
X12296500Y-6244000D02*
G75*
G02*
X12111500Y-6244000I-92500J0D01*
G01*
X12111500Y-6244000D02*
G75*
G02*
X12296500Y-6244000I92500J0D01*
G01*
X12296500Y-8144000D02*
G75*
G02*
X12111500Y-8144000I-92500J0D01*
G01*
X12111500Y-8144000D02*
G75*
G02*
X12296500Y-8144000I92500J0D01*
G01*
X12296500Y-10044000D02*
G75*
G02*
X12111500Y-10044000I-92500J0D01*
G01*
X12111500Y-10044000D02*
G75*
G02*
X12296500Y-10044000I92500J0D01*
G01*
X13023884Y-12416053D02*
G75*
G02*
X12838884Y-12416053I-92500J0D01*
G01*
X12838884Y-12416053D02*
G75*
G02*
X13023884Y-12416053I92500J0D01*
G01*
X17499749Y-13127189D02*
G75*
G02*
X17314749Y-13127189I-92500J0D01*
G01*
X17314749Y-13127189D02*
G75*
G02*
X17499749Y-13127189I92500J0D01*
G01*
X18114500Y-6964000D02*
G75*
G02*
X17929500Y-6964000I-92500J0D01*
G01*
X17929500Y-6964000D02*
G75*
G02*
X18114500Y-6964000I92500J0D01*
G01*
X18114500Y-8864000D02*
G75*
G02*
X17929500Y-8864000I-92500J0D01*
G01*
X17929500Y-8864000D02*
G75*
G02*
X18114500Y-8864000I92500J0D01*
G01*
X18114500Y-10764000D02*
G75*
G02*
X17929500Y-10764000I-92500J0D01*
G01*
X17929500Y-10764000D02*
G75*
G02*
X18114500Y-10764000I92500J0D01*
G01*
X18276036Y-12275262D02*
G75*
G02*
X18091036Y-12275262I-92500J0D01*
G01*
X18091036Y-12275262D02*
G75*
G02*
X18276036Y-12275262I92500J0D01*
G01*
X19014500Y-6244000D02*
G75*
G02*
X18829500Y-6244000I-92500J0D01*
G01*
X18829500Y-6244000D02*
G75*
G02*
X19014500Y-6244000I92500J0D01*
G01*
X19014500Y-8144000D02*
G75*
G02*
X18829500Y-8144000I-92500J0D01*
G01*
X18829500Y-8144000D02*
G75*
G02*
X19014500Y-8144000I92500J0D01*
G01*
X19014500Y-10044000D02*
G75*
G02*
X18829500Y-10044000I-92500J0D01*
G01*
X18829500Y-10044000D02*
G75*
G02*
X19014500Y-10044000I92500J0D01*
G01*
X19376357Y-12829963D02*
G75*
G02*
X19191357Y-12829963I-92500J0D01*
G01*
X19191357Y-12829963D02*
G75*
G02*
X19376357Y-12829963I92500J0D01*
G01*
X20014500Y-6664000D02*
G75*
G02*
X19829500Y-6664000I-92500J0D01*
G01*
X19829500Y-6664000D02*
G75*
G02*
X20014500Y-6664000I92500J0D01*
G01*
X20014500Y-8564000D02*
G75*
G02*
X19829500Y-8564000I-92500J0D01*
G01*
X19829500Y-8564000D02*
G75*
G02*
X20014500Y-8564000I92500J0D01*
G01*
X20014500Y-10464000D02*
G75*
G02*
X19829500Y-10464000I-92500J0D01*
G01*
X19829500Y-10464000D02*
G75*
G02*
X20014500Y-10464000I92500J0D01*
G01*
X20152643Y-11978037D02*
G75*
G02*
X19967643Y-11978037I-92500J0D01*
G01*
X19967643Y-11978037D02*
G75*
G02*
X20152643Y-11978037I92500J0D01*
G01*
X20914500Y-5944000D02*
G75*
G02*
X20729500Y-5944000I-92500J0D01*
G01*
X20729500Y-5944000D02*
G75*
G02*
X20914500Y-5944000I92500J0D01*
G01*
X20914500Y-7844000D02*
G75*
G02*
X20729500Y-7844000I-92500J0D01*
G01*
X20729500Y-7844000D02*
G75*
G02*
X20914500Y-7844000I92500J0D01*
G01*
X20914500Y-9744000D02*
G75*
G02*
X20729500Y-9744000I-92500J0D01*
G01*
X20729500Y-9744000D02*
G75*
G02*
X20914500Y-9744000I92500J0D01*
G01*
X21914500Y-5664000D02*
G75*
G02*
X21729500Y-5664000I-92500J0D01*
G01*
X21729500Y-5664000D02*
G75*
G02*
X21914500Y-5664000I92500J0D01*
G01*
X21914500Y-7564000D02*
G75*
G02*
X21729500Y-7564000I-92500J0D01*
G01*
X21729500Y-7564000D02*
G75*
G02*
X21914500Y-7564000I92500J0D01*
G01*
X21914500Y-9464000D02*
G75*
G02*
X21729500Y-9464000I-92500J0D01*
G01*
X21729500Y-9464000D02*
G75*
G02*
X21914500Y-9464000I92500J0D01*
G01*
X22814500Y-4944000D02*
G75*
G02*
X22629500Y-4944000I-92500J0D01*
G01*
X22629500Y-4944000D02*
G75*
G02*
X22814500Y-4944000I92500J0D01*
G01*
X22814500Y-6844000D02*
G75*
G02*
X22629500Y-6844000I-92500J0D01*
G01*
X22629500Y-6844000D02*
G75*
G02*
X22814500Y-6844000I92500J0D01*
G01*
X22814500Y-8744000D02*
G75*
G02*
X22629500Y-8744000I-92500J0D01*
G01*
X22629500Y-8744000D02*
G75*
G02*
X22814500Y-8744000I92500J0D01*
G01*
X23734836Y-10823410D02*
G75*
G02*
X23549836Y-10823410I-92500J0D01*
G01*
X23549836Y-10823410D02*
G75*
G02*
X23734836Y-10823410I92500J0D01*
G01*
X23900432Y-8930640D02*
G75*
G02*
X23715432Y-8930640I-92500J0D01*
G01*
X23715432Y-8930640D02*
G75*
G02*
X23900432Y-8930640I92500J0D01*
G01*
X24066028Y-7037870D02*
G75*
G02*
X23881028Y-7037870I-92500J0D01*
G01*
X23881028Y-7037870D02*
G75*
G02*
X24066028Y-7037870I92500J0D01*
G01*
X24694164Y-10184590D02*
G75*
G02*
X24509164Y-10184590I-92500J0D01*
G01*
X24509164Y-10184590D02*
G75*
G02*
X24694164Y-10184590I92500J0D01*
G01*
X24859760Y-8291820D02*
G75*
G02*
X24674760Y-8291820I-92500J0D01*
G01*
X24674760Y-8291820D02*
G75*
G02*
X24859760Y-8291820I92500J0D01*
G01*
X25025355Y-6399050D02*
G75*
G02*
X24840355Y-6399050I-92500J0D01*
G01*
X24840355Y-6399050D02*
G75*
G02*
X25025355Y-6399050I92500J0D01*
G01*
X25363415Y-12492312D02*
G75*
G02*
X25178415Y-12492312I-92500J0D01*
G01*
X25178415Y-12492312D02*
G75*
G02*
X25363415Y-12492312I92500J0D01*
G01*
X25647533Y-10613675D02*
G75*
G02*
X25462533Y-10613675I-92500J0D01*
G01*
X25462533Y-10613675D02*
G75*
G02*
X25647533Y-10613675I92500J0D01*
G01*
X25931650Y-8735038D02*
G75*
G02*
X25746650Y-8735038I-92500J0D01*
G01*
X25746650Y-8735038D02*
G75*
G02*
X25931650Y-8735038I92500J0D01*
G01*
X26360962Y-11914990D02*
G75*
G02*
X26175962Y-11914990I-92500J0D01*
G01*
X26175962Y-11914990D02*
G75*
G02*
X26360962Y-11914990I92500J0D01*
G01*
X26645079Y-10036353D02*
G75*
G02*
X26460079Y-10036353I-92500J0D01*
G01*
X26460079Y-10036353D02*
G75*
G02*
X26645079Y-10036353I92500J0D01*
G01*
X26929196Y-8157715D02*
G75*
G02*
X26744196Y-8157715I-92500J0D01*
G01*
X26744196Y-8157715D02*
G75*
G02*
X26929196Y-8157715I92500J0D01*
G01*
D15*
X3888077Y-8201377D02*
X3888077Y-8691377D01*
X3643077Y-8446377D02*
X4133077Y-8446377D01*
X4172194Y-10080014D02*
X4172194Y-10570014D01*
X3927194Y-10325014D02*
X4417194Y-10325014D01*
X4456311Y-11958651D02*
X4456311Y-12448651D01*
X4211311Y-12203651D02*
X4701311Y-12203651D01*
X5772808Y-6473460D02*
X5772808Y-6963460D01*
X5527808Y-6718460D02*
X6017808Y-6718460D01*
X5938404Y-8366230D02*
X5938404Y-8856230D01*
X5693404Y-8611230D02*
X6183404Y-8611230D01*
X6104000Y-10259000D02*
X6104000Y-10749000D01*
X5859000Y-10504000D02*
X6349000Y-10504000D01*
X7954000Y-5059000D02*
X7954000Y-5549000D01*
X7709000Y-5304000D02*
X8199000Y-5304000D01*
X7954000Y-6959000D02*
X7954000Y-7449000D01*
X7709000Y-7204000D02*
X8199000Y-7204000D01*
X7954000Y-8859000D02*
X7954000Y-9349000D01*
X7709000Y-9104000D02*
X8199000Y-9104000D01*
X9854000Y-6059000D02*
X9854000Y-6549000D01*
X9609000Y-6304000D02*
X10099000Y-6304000D01*
X9854000Y-7959000D02*
X9854000Y-8449000D01*
X9609000Y-8204000D02*
X10099000Y-8204000D01*
X9854000Y-9859000D02*
X9854000Y-10349000D01*
X9609000Y-10104000D02*
X10099000Y-10104000D01*
X10554000Y-12159000D02*
X10554000Y-12649000D01*
X10309000Y-12404000D02*
X10799000Y-12404000D01*
X11754000Y-6359000D02*
X11754000Y-6849000D01*
X11509000Y-6604000D02*
X11999000Y-6604000D01*
X11754000Y-8259000D02*
X11754000Y-8749000D01*
X11509000Y-8504000D02*
X11999000Y-8504000D01*
X11754000Y-10159000D02*
X11754000Y-10649000D01*
X11509000Y-10404000D02*
X11999000Y-10404000D01*
X12430608Y-12456225D02*
X12430608Y-12946225D01*
X12185608Y-12701225D02*
X12675608Y-12701225D01*
X17795392Y-12456225D02*
X17795392Y-12946225D01*
X17550392Y-12701225D02*
X18040392Y-12701225D01*
X18472000Y-6359000D02*
X18472000Y-6849000D01*
X18227000Y-6604000D02*
X18717000Y-6604000D01*
X18472000Y-8259000D02*
X18472000Y-8749000D01*
X18227000Y-8504000D02*
X18717000Y-8504000D01*
X18472000Y-10159000D02*
X18472000Y-10649000D01*
X18227000Y-10404000D02*
X18717000Y-10404000D01*
X19672000Y-12159000D02*
X19672000Y-12649000D01*
X19427000Y-12404000D02*
X19917000Y-12404000D01*
X20372000Y-6059000D02*
X20372000Y-6549000D01*
X20127000Y-6304000D02*
X20617000Y-6304000D01*
X20372000Y-7959000D02*
X20372000Y-8449000D01*
X20127000Y-8204000D02*
X20617000Y-8204000D01*
X20372000Y-9859000D02*
X20372000Y-10349000D01*
X20127000Y-10104000D02*
X20617000Y-10104000D01*
X22272000Y-5059000D02*
X22272000Y-5549000D01*
X22027000Y-5304000D02*
X22517000Y-5304000D01*
X22272000Y-6959000D02*
X22272000Y-7449000D01*
X22027000Y-7204000D02*
X22517000Y-7204000D01*
X22272000Y-8859000D02*
X22272000Y-9349000D01*
X22027000Y-9104000D02*
X22517000Y-9104000D01*
X24122000Y-10259000D02*
X24122000Y-10749000D01*
X23877000Y-10504000D02*
X24367000Y-10504000D01*
X24287596Y-8366230D02*
X24287596Y-8856230D01*
X24042596Y-8611230D02*
X24532596Y-8611230D01*
X24453192Y-6473460D02*
X24453192Y-6963460D01*
X24208192Y-6718460D02*
X24698192Y-6718460D01*
X25769689Y-11958651D02*
X25769689Y-12448651D01*
X25524689Y-12203651D02*
X26014689Y-12203651D01*
X26053806Y-10080014D02*
X26053806Y-10570014D01*
X25808806Y-10325014D02*
X26298806Y-10325014D01*
X26337923Y-8201377D02*
X26337923Y-8691377D01*
X26092923Y-8446377D02*
X26582923Y-8446377D01*
D12*
X3069245Y-14097717D02*
X3069245Y-13897717D01*
X3069245Y-13897717D02*
X3116864Y-13897717D01*
X3116864Y-13897717D02*
X3145435Y-13907241D01*
X3145435Y-13907241D02*
X3164483Y-13926289D01*
X3164483Y-13926289D02*
X3174007Y-13945336D01*
X3174007Y-13945336D02*
X3183531Y-13983432D01*
X3183531Y-13983432D02*
X3183531Y-14012003D01*
X3183531Y-14012003D02*
X3174007Y-14050098D01*
X3174007Y-14050098D02*
X3164483Y-14069146D01*
X3164483Y-14069146D02*
X3145435Y-14088194D01*
X3145435Y-14088194D02*
X3116864Y-14097717D01*
X3116864Y-14097717D02*
X3069245Y-14097717D01*
X3269245Y-14097717D02*
X3269245Y-13964384D01*
X3269245Y-14002479D02*
X3278769Y-13983432D01*
X3278769Y-13983432D02*
X3288292Y-13973908D01*
X3288292Y-13973908D02*
X3307340Y-13964384D01*
X3307340Y-13964384D02*
X3326388Y-13964384D01*
X3393054Y-14097717D02*
X3393054Y-13964384D01*
X3393054Y-13897717D02*
X3383531Y-13907241D01*
X3383531Y-13907241D02*
X3393054Y-13916765D01*
X3393054Y-13916765D02*
X3402578Y-13907241D01*
X3402578Y-13907241D02*
X3393054Y-13897717D01*
X3393054Y-13897717D02*
X3393054Y-13916765D01*
X3516864Y-14097717D02*
X3497816Y-14088194D01*
X3497816Y-14088194D02*
X3488292Y-14069146D01*
X3488292Y-14069146D02*
X3488292Y-13897717D01*
X3621626Y-14097717D02*
X3602578Y-14088194D01*
X3602578Y-14088194D02*
X3593054Y-14069146D01*
X3593054Y-14069146D02*
X3593054Y-13897717D01*
X3850197Y-14097717D02*
X3850197Y-13897717D01*
X3850197Y-13897717D02*
X3916864Y-14040574D01*
X3916864Y-14040574D02*
X3983531Y-13897717D01*
X3983531Y-13897717D02*
X3983531Y-14097717D01*
X4164483Y-14097717D02*
X4164483Y-13992955D01*
X4164483Y-13992955D02*
X4154959Y-13973908D01*
X4154959Y-13973908D02*
X4135912Y-13964384D01*
X4135912Y-13964384D02*
X4097816Y-13964384D01*
X4097816Y-13964384D02*
X4078769Y-13973908D01*
X4164483Y-14088194D02*
X4145435Y-14097717D01*
X4145435Y-14097717D02*
X4097816Y-14097717D01*
X4097816Y-14097717D02*
X4078769Y-14088194D01*
X4078769Y-14088194D02*
X4069245Y-14069146D01*
X4069245Y-14069146D02*
X4069245Y-14050098D01*
X4069245Y-14050098D02*
X4078769Y-14031051D01*
X4078769Y-14031051D02*
X4097816Y-14021527D01*
X4097816Y-14021527D02*
X4145435Y-14021527D01*
X4145435Y-14021527D02*
X4164483Y-14012003D01*
X4259721Y-13964384D02*
X4259721Y-14164384D01*
X4259721Y-13973908D02*
X4278769Y-13964384D01*
X4278769Y-13964384D02*
X4316864Y-13964384D01*
X4316864Y-13964384D02*
X4335912Y-13973908D01*
X4335912Y-13973908D02*
X4345435Y-13983432D01*
X4345435Y-13983432D02*
X4354959Y-14002479D01*
X4354959Y-14002479D02*
X4354959Y-14059622D01*
X4354959Y-14059622D02*
X4345435Y-14078670D01*
X4345435Y-14078670D02*
X4335912Y-14088194D01*
X4335912Y-14088194D02*
X4316864Y-14097717D01*
X4316864Y-14097717D02*
X4278769Y-14097717D01*
X4278769Y-14097717D02*
X4259721Y-14088194D01*
X4440674Y-14078670D02*
X4450197Y-14088194D01*
X4450197Y-14088194D02*
X4440674Y-14097717D01*
X4440674Y-14097717D02*
X4431150Y-14088194D01*
X4431150Y-14088194D02*
X4440674Y-14078670D01*
X4440674Y-14078670D02*
X4440674Y-14097717D01*
X4440674Y-13973908D02*
X4450197Y-13983432D01*
X4450197Y-13983432D02*
X4440674Y-13992955D01*
X4440674Y-13992955D02*
X4431150Y-13983432D01*
X4431150Y-13983432D02*
X4440674Y-13973908D01*
X4440674Y-13973908D02*
X4440674Y-13992955D01*
D13*
X2718468Y-14381234D02*
X2808468Y-14471234D01*
X2808468Y-14381234D02*
X2718468Y-14471234D01*
D12*
X3107340Y-14317717D02*
X3126388Y-14317717D01*
X3126388Y-14317717D02*
X3145435Y-14327241D01*
X3145435Y-14327241D02*
X3154959Y-14336765D01*
X3154959Y-14336765D02*
X3164483Y-14355813D01*
X3164483Y-14355813D02*
X3174007Y-14393908D01*
X3174007Y-14393908D02*
X3174007Y-14441527D01*
X3174007Y-14441527D02*
X3164483Y-14479622D01*
X3164483Y-14479622D02*
X3154959Y-14498670D01*
X3154959Y-14498670D02*
X3145435Y-14508194D01*
X3145435Y-14508194D02*
X3126388Y-14517717D01*
X3126388Y-14517717D02*
X3107340Y-14517717D01*
X3107340Y-14517717D02*
X3088292Y-14508194D01*
X3088292Y-14508194D02*
X3078769Y-14498670D01*
X3078769Y-14498670D02*
X3069245Y-14479622D01*
X3069245Y-14479622D02*
X3059721Y-14441527D01*
X3059721Y-14441527D02*
X3059721Y-14393908D01*
X3059721Y-14393908D02*
X3069245Y-14355813D01*
X3069245Y-14355813D02*
X3078769Y-14336765D01*
X3078769Y-14336765D02*
X3088292Y-14327241D01*
X3088292Y-14327241D02*
X3107340Y-14317717D01*
X3259721Y-14498670D02*
X3269245Y-14508194D01*
X3269245Y-14508194D02*
X3259721Y-14517717D01*
X3259721Y-14517717D02*
X3250197Y-14508194D01*
X3250197Y-14508194D02*
X3259721Y-14498670D01*
X3259721Y-14498670D02*
X3259721Y-14517717D01*
X3364483Y-14517717D02*
X3402578Y-14517717D01*
X3402578Y-14517717D02*
X3421626Y-14508194D01*
X3421626Y-14508194D02*
X3431150Y-14498670D01*
X3431150Y-14498670D02*
X3450197Y-14470098D01*
X3450197Y-14470098D02*
X3459721Y-14432003D01*
X3459721Y-14432003D02*
X3459721Y-14355813D01*
X3459721Y-14355813D02*
X3450197Y-14336765D01*
X3450197Y-14336765D02*
X3440673Y-14327241D01*
X3440673Y-14327241D02*
X3421626Y-14317717D01*
X3421626Y-14317717D02*
X3383531Y-14317717D01*
X3383531Y-14317717D02*
X3364483Y-14327241D01*
X3364483Y-14327241D02*
X3354959Y-14336765D01*
X3354959Y-14336765D02*
X3345435Y-14355813D01*
X3345435Y-14355813D02*
X3345435Y-14403432D01*
X3345435Y-14403432D02*
X3354959Y-14422479D01*
X3354959Y-14422479D02*
X3364483Y-14432003D01*
X3364483Y-14432003D02*
X3383531Y-14441527D01*
X3383531Y-14441527D02*
X3421626Y-14441527D01*
X3421626Y-14441527D02*
X3440673Y-14432003D01*
X3440673Y-14432003D02*
X3450197Y-14422479D01*
X3450197Y-14422479D02*
X3459721Y-14403432D01*
X3583531Y-14317717D02*
X3602578Y-14317717D01*
X3602578Y-14317717D02*
X3621626Y-14327241D01*
X3621626Y-14327241D02*
X3631150Y-14336765D01*
X3631150Y-14336765D02*
X3640673Y-14355813D01*
X3640673Y-14355813D02*
X3650197Y-14393908D01*
X3650197Y-14393908D02*
X3650197Y-14441527D01*
X3650197Y-14441527D02*
X3640673Y-14479622D01*
X3640673Y-14479622D02*
X3631150Y-14498670D01*
X3631150Y-14498670D02*
X3621626Y-14508194D01*
X3621626Y-14508194D02*
X3602578Y-14517717D01*
X3602578Y-14517717D02*
X3583531Y-14517717D01*
X3583531Y-14517717D02*
X3564483Y-14508194D01*
X3564483Y-14508194D02*
X3554959Y-14498670D01*
X3554959Y-14498670D02*
X3545435Y-14479622D01*
X3545435Y-14479622D02*
X3535912Y-14441527D01*
X3535912Y-14441527D02*
X3535912Y-14393908D01*
X3535912Y-14393908D02*
X3545435Y-14355813D01*
X3545435Y-14355813D02*
X3554959Y-14336765D01*
X3554959Y-14336765D02*
X3564483Y-14327241D01*
X3564483Y-14327241D02*
X3583531Y-14317717D01*
X3774007Y-14317717D02*
X3793054Y-14317717D01*
X3793054Y-14317717D02*
X3812102Y-14327241D01*
X3812102Y-14327241D02*
X3821626Y-14336765D01*
X3821626Y-14336765D02*
X3831150Y-14355813D01*
X3831150Y-14355813D02*
X3840673Y-14393908D01*
X3840673Y-14393908D02*
X3840673Y-14441527D01*
X3840673Y-14441527D02*
X3831150Y-14479622D01*
X3831150Y-14479622D02*
X3821626Y-14498670D01*
X3821626Y-14498670D02*
X3812102Y-14508194D01*
X3812102Y-14508194D02*
X3793054Y-14517717D01*
X3793054Y-14517717D02*
X3774007Y-14517717D01*
X3774007Y-14517717D02*
X3754959Y-14508194D01*
X3754959Y-14508194D02*
X3745435Y-14498670D01*
X3745435Y-14498670D02*
X3735912Y-14479622D01*
X3735912Y-14479622D02*
X3726388Y-14441527D01*
X3726388Y-14441527D02*
X3726388Y-14393908D01*
X3726388Y-14393908D02*
X3735912Y-14355813D01*
X3735912Y-14355813D02*
X3745435Y-14336765D01*
X3745435Y-14336765D02*
X3754959Y-14327241D01*
X3754959Y-14327241D02*
X3774007Y-14317717D01*
X3926388Y-14517717D02*
X3926388Y-14384384D01*
X3926388Y-14403432D02*
X3935912Y-14393908D01*
X3935912Y-14393908D02*
X3954959Y-14384384D01*
X3954959Y-14384384D02*
X3983531Y-14384384D01*
X3983531Y-14384384D02*
X4002578Y-14393908D01*
X4002578Y-14393908D02*
X4012102Y-14412955D01*
X4012102Y-14412955D02*
X4012102Y-14517717D01*
X4012102Y-14412955D02*
X4021626Y-14393908D01*
X4021626Y-14393908D02*
X4040673Y-14384384D01*
X4040673Y-14384384D02*
X4069245Y-14384384D01*
X4069245Y-14384384D02*
X4088293Y-14393908D01*
X4088293Y-14393908D02*
X4097816Y-14412955D01*
X4097816Y-14412955D02*
X4097816Y-14517717D01*
X4193054Y-14517717D02*
X4193054Y-14384384D01*
X4193054Y-14403432D02*
X4202578Y-14393908D01*
X4202578Y-14393908D02*
X4221626Y-14384384D01*
X4221626Y-14384384D02*
X4250197Y-14384384D01*
X4250197Y-14384384D02*
X4269245Y-14393908D01*
X4269245Y-14393908D02*
X4278769Y-14412955D01*
X4278769Y-14412955D02*
X4278769Y-14517717D01*
X4278769Y-14412955D02*
X4288293Y-14393908D01*
X4288293Y-14393908D02*
X4307340Y-14384384D01*
X4307340Y-14384384D02*
X4335912Y-14384384D01*
X4335912Y-14384384D02*
X4354959Y-14393908D01*
X4354959Y-14393908D02*
X4364483Y-14412955D01*
X4364483Y-14412955D02*
X4364483Y-14517717D01*
X4754959Y-14308194D02*
X4583531Y-14565336D01*
X5012102Y-14317717D02*
X5031150Y-14317717D01*
X5031150Y-14317717D02*
X5050198Y-14327241D01*
X5050198Y-14327241D02*
X5059721Y-14336765D01*
X5059721Y-14336765D02*
X5069245Y-14355813D01*
X5069245Y-14355813D02*
X5078769Y-14393908D01*
X5078769Y-14393908D02*
X5078769Y-14441527D01*
X5078769Y-14441527D02*
X5069245Y-14479622D01*
X5069245Y-14479622D02*
X5059721Y-14498670D01*
X5059721Y-14498670D02*
X5050198Y-14508194D01*
X5050198Y-14508194D02*
X5031150Y-14517717D01*
X5031150Y-14517717D02*
X5012102Y-14517717D01*
X5012102Y-14517717D02*
X4993055Y-14508194D01*
X4993055Y-14508194D02*
X4983531Y-14498670D01*
X4983531Y-14498670D02*
X4974007Y-14479622D01*
X4974007Y-14479622D02*
X4964483Y-14441527D01*
X4964483Y-14441527D02*
X4964483Y-14393908D01*
X4964483Y-14393908D02*
X4974007Y-14355813D01*
X4974007Y-14355813D02*
X4983531Y-14336765D01*
X4983531Y-14336765D02*
X4993055Y-14327241D01*
X4993055Y-14327241D02*
X5012102Y-14317717D01*
X5164483Y-14498670D02*
X5174007Y-14508194D01*
X5174007Y-14508194D02*
X5164483Y-14517717D01*
X5164483Y-14517717D02*
X5154959Y-14508194D01*
X5154959Y-14508194D02*
X5164483Y-14498670D01*
X5164483Y-14498670D02*
X5164483Y-14517717D01*
X5297817Y-14317717D02*
X5316864Y-14317717D01*
X5316864Y-14317717D02*
X5335912Y-14327241D01*
X5335912Y-14327241D02*
X5345436Y-14336765D01*
X5345436Y-14336765D02*
X5354959Y-14355813D01*
X5354959Y-14355813D02*
X5364483Y-14393908D01*
X5364483Y-14393908D02*
X5364483Y-14441527D01*
X5364483Y-14441527D02*
X5354959Y-14479622D01*
X5354959Y-14479622D02*
X5345436Y-14498670D01*
X5345436Y-14498670D02*
X5335912Y-14508194D01*
X5335912Y-14508194D02*
X5316864Y-14517717D01*
X5316864Y-14517717D02*
X5297817Y-14517717D01*
X5297817Y-14517717D02*
X5278769Y-14508194D01*
X5278769Y-14508194D02*
X5269245Y-14498670D01*
X5269245Y-14498670D02*
X5259721Y-14479622D01*
X5259721Y-14479622D02*
X5250198Y-14441527D01*
X5250198Y-14441527D02*
X5250198Y-14393908D01*
X5250198Y-14393908D02*
X5259721Y-14355813D01*
X5259721Y-14355813D02*
X5269245Y-14336765D01*
X5269245Y-14336765D02*
X5278769Y-14327241D01*
X5278769Y-14327241D02*
X5297817Y-14317717D01*
X5431150Y-14317717D02*
X5554959Y-14317717D01*
X5554959Y-14317717D02*
X5488293Y-14393908D01*
X5488293Y-14393908D02*
X5516864Y-14393908D01*
X5516864Y-14393908D02*
X5535912Y-14403432D01*
X5535912Y-14403432D02*
X5545436Y-14412955D01*
X5545436Y-14412955D02*
X5554959Y-14432003D01*
X5554959Y-14432003D02*
X5554959Y-14479622D01*
X5554959Y-14479622D02*
X5545436Y-14498670D01*
X5545436Y-14498670D02*
X5535912Y-14508194D01*
X5535912Y-14508194D02*
X5516864Y-14517717D01*
X5516864Y-14517717D02*
X5459721Y-14517717D01*
X5459721Y-14517717D02*
X5440674Y-14508194D01*
X5440674Y-14508194D02*
X5431150Y-14498670D01*
X5735912Y-14317717D02*
X5640674Y-14317717D01*
X5640674Y-14317717D02*
X5631150Y-14412955D01*
X5631150Y-14412955D02*
X5640674Y-14403432D01*
X5640674Y-14403432D02*
X5659721Y-14393908D01*
X5659721Y-14393908D02*
X5707340Y-14393908D01*
X5707340Y-14393908D02*
X5726388Y-14403432D01*
X5726388Y-14403432D02*
X5735912Y-14412955D01*
X5735912Y-14412955D02*
X5745436Y-14432003D01*
X5745436Y-14432003D02*
X5745436Y-14479622D01*
X5745436Y-14479622D02*
X5735912Y-14498670D01*
X5735912Y-14498670D02*
X5726388Y-14508194D01*
X5726388Y-14508194D02*
X5707340Y-14517717D01*
X5707340Y-14517717D02*
X5659721Y-14517717D01*
X5659721Y-14517717D02*
X5640674Y-14508194D01*
X5640674Y-14508194D02*
X5631150Y-14498670D01*
X5916864Y-14384384D02*
X5916864Y-14517717D01*
X5869245Y-14308194D02*
X5821626Y-14451051D01*
X5821626Y-14451051D02*
X5945436Y-14451051D01*
X6012102Y-14317717D02*
X6012102Y-14355813D01*
X6088293Y-14317717D02*
X6088293Y-14355813D01*
X6383531Y-14593908D02*
X6374007Y-14584384D01*
X6374007Y-14584384D02*
X6354959Y-14555813D01*
X6354959Y-14555813D02*
X6345436Y-14536765D01*
X6345436Y-14536765D02*
X6335912Y-14508194D01*
X6335912Y-14508194D02*
X6326388Y-14460574D01*
X6326388Y-14460574D02*
X6326388Y-14422479D01*
X6326388Y-14422479D02*
X6335912Y-14374860D01*
X6335912Y-14374860D02*
X6345436Y-14346289D01*
X6345436Y-14346289D02*
X6354959Y-14327241D01*
X6354959Y-14327241D02*
X6374007Y-14298670D01*
X6374007Y-14298670D02*
X6383531Y-14289146D01*
X6545436Y-14384384D02*
X6545436Y-14517717D01*
X6497817Y-14308194D02*
X6450198Y-14451051D01*
X6450198Y-14451051D02*
X6574007Y-14451051D01*
X6802579Y-14517717D02*
X6802579Y-14317717D01*
X6888293Y-14517717D02*
X6888293Y-14412955D01*
X6888293Y-14412955D02*
X6878769Y-14393908D01*
X6878769Y-14393908D02*
X6859721Y-14384384D01*
X6859721Y-14384384D02*
X6831150Y-14384384D01*
X6831150Y-14384384D02*
X6812102Y-14393908D01*
X6812102Y-14393908D02*
X6802579Y-14403432D01*
X7012102Y-14517717D02*
X6993055Y-14508194D01*
X6993055Y-14508194D02*
X6983531Y-14498670D01*
X6983531Y-14498670D02*
X6974007Y-14479622D01*
X6974007Y-14479622D02*
X6974007Y-14422479D01*
X6974007Y-14422479D02*
X6983531Y-14403432D01*
X6983531Y-14403432D02*
X6993055Y-14393908D01*
X6993055Y-14393908D02*
X7012102Y-14384384D01*
X7012102Y-14384384D02*
X7040674Y-14384384D01*
X7040674Y-14384384D02*
X7059721Y-14393908D01*
X7059721Y-14393908D02*
X7069245Y-14403432D01*
X7069245Y-14403432D02*
X7078769Y-14422479D01*
X7078769Y-14422479D02*
X7078769Y-14479622D01*
X7078769Y-14479622D02*
X7069245Y-14498670D01*
X7069245Y-14498670D02*
X7059721Y-14508194D01*
X7059721Y-14508194D02*
X7040674Y-14517717D01*
X7040674Y-14517717D02*
X7012102Y-14517717D01*
X7193055Y-14517717D02*
X7174007Y-14508194D01*
X7174007Y-14508194D02*
X7164483Y-14489146D01*
X7164483Y-14489146D02*
X7164483Y-14317717D01*
X7345436Y-14508194D02*
X7326388Y-14517717D01*
X7326388Y-14517717D02*
X7288293Y-14517717D01*
X7288293Y-14517717D02*
X7269245Y-14508194D01*
X7269245Y-14508194D02*
X7259721Y-14489146D01*
X7259721Y-14489146D02*
X7259721Y-14412955D01*
X7259721Y-14412955D02*
X7269245Y-14393908D01*
X7269245Y-14393908D02*
X7288293Y-14384384D01*
X7288293Y-14384384D02*
X7326388Y-14384384D01*
X7326388Y-14384384D02*
X7345436Y-14393908D01*
X7345436Y-14393908D02*
X7354960Y-14412955D01*
X7354960Y-14412955D02*
X7354960Y-14432003D01*
X7354960Y-14432003D02*
X7259721Y-14451051D01*
X7431150Y-14508194D02*
X7450198Y-14517717D01*
X7450198Y-14517717D02*
X7488293Y-14517717D01*
X7488293Y-14517717D02*
X7507341Y-14508194D01*
X7507341Y-14508194D02*
X7516864Y-14489146D01*
X7516864Y-14489146D02*
X7516864Y-14479622D01*
X7516864Y-14479622D02*
X7507341Y-14460574D01*
X7507341Y-14460574D02*
X7488293Y-14451051D01*
X7488293Y-14451051D02*
X7459721Y-14451051D01*
X7459721Y-14451051D02*
X7440674Y-14441527D01*
X7440674Y-14441527D02*
X7431150Y-14422479D01*
X7431150Y-14422479D02*
X7431150Y-14412955D01*
X7431150Y-14412955D02*
X7440674Y-14393908D01*
X7440674Y-14393908D02*
X7459721Y-14384384D01*
X7459721Y-14384384D02*
X7488293Y-14384384D01*
X7488293Y-14384384D02*
X7507341Y-14393908D01*
X7583531Y-14593908D02*
X7593055Y-14584384D01*
X7593055Y-14584384D02*
X7612102Y-14555813D01*
X7612102Y-14555813D02*
X7621626Y-14536765D01*
X7621626Y-14536765D02*
X7631150Y-14508194D01*
X7631150Y-14508194D02*
X7640674Y-14460574D01*
X7640674Y-14460574D02*
X7640674Y-14422479D01*
X7640674Y-14422479D02*
X7631150Y-14374860D01*
X7631150Y-14374860D02*
X7621626Y-14346289D01*
X7621626Y-14346289D02*
X7612102Y-14327241D01*
X7612102Y-14327241D02*
X7593055Y-14298670D01*
X7593055Y-14298670D02*
X7583531Y-14289146D01*
X7945436Y-14593908D02*
X7935912Y-14584384D01*
X7935912Y-14584384D02*
X7916864Y-14555813D01*
X7916864Y-14555813D02*
X7907341Y-14536765D01*
X7907341Y-14536765D02*
X7897817Y-14508194D01*
X7897817Y-14508194D02*
X7888293Y-14460574D01*
X7888293Y-14460574D02*
X7888293Y-14422479D01*
X7888293Y-14422479D02*
X7897817Y-14374860D01*
X7897817Y-14374860D02*
X7907341Y-14346289D01*
X7907341Y-14346289D02*
X7916864Y-14327241D01*
X7916864Y-14327241D02*
X7935912Y-14298670D01*
X7935912Y-14298670D02*
X7945436Y-14289146D01*
X8021626Y-14384384D02*
X8021626Y-14517717D01*
X8021626Y-14403432D02*
X8031150Y-14393908D01*
X8031150Y-14393908D02*
X8050198Y-14384384D01*
X8050198Y-14384384D02*
X8078769Y-14384384D01*
X8078769Y-14384384D02*
X8097817Y-14393908D01*
X8097817Y-14393908D02*
X8107341Y-14412955D01*
X8107341Y-14412955D02*
X8107341Y-14517717D01*
X8231150Y-14517717D02*
X8212102Y-14508194D01*
X8212102Y-14508194D02*
X8202579Y-14498670D01*
X8202579Y-14498670D02*
X8193055Y-14479622D01*
X8193055Y-14479622D02*
X8193055Y-14422479D01*
X8193055Y-14422479D02*
X8202579Y-14403432D01*
X8202579Y-14403432D02*
X8212102Y-14393908D01*
X8212102Y-14393908D02*
X8231150Y-14384384D01*
X8231150Y-14384384D02*
X8259722Y-14384384D01*
X8259722Y-14384384D02*
X8278769Y-14393908D01*
X8278769Y-14393908D02*
X8288293Y-14403432D01*
X8288293Y-14403432D02*
X8297817Y-14422479D01*
X8297817Y-14422479D02*
X8297817Y-14479622D01*
X8297817Y-14479622D02*
X8288293Y-14498670D01*
X8288293Y-14498670D02*
X8278769Y-14508194D01*
X8278769Y-14508194D02*
X8259722Y-14517717D01*
X8259722Y-14517717D02*
X8231150Y-14517717D01*
X8354960Y-14384384D02*
X8431150Y-14384384D01*
X8383531Y-14317717D02*
X8383531Y-14489146D01*
X8383531Y-14489146D02*
X8393055Y-14508194D01*
X8393055Y-14508194D02*
X8412103Y-14517717D01*
X8412103Y-14517717D02*
X8431150Y-14517717D01*
X8650198Y-14384384D02*
X8650198Y-14584384D01*
X8650198Y-14393908D02*
X8669245Y-14384384D01*
X8669245Y-14384384D02*
X8707341Y-14384384D01*
X8707341Y-14384384D02*
X8726388Y-14393908D01*
X8726388Y-14393908D02*
X8735912Y-14403432D01*
X8735912Y-14403432D02*
X8745436Y-14422479D01*
X8745436Y-14422479D02*
X8745436Y-14479622D01*
X8745436Y-14479622D02*
X8735912Y-14498670D01*
X8735912Y-14498670D02*
X8726388Y-14508194D01*
X8726388Y-14508194D02*
X8707341Y-14517717D01*
X8707341Y-14517717D02*
X8669245Y-14517717D01*
X8669245Y-14517717D02*
X8650198Y-14508194D01*
X8859722Y-14517717D02*
X8840674Y-14508194D01*
X8840674Y-14508194D02*
X8831150Y-14489146D01*
X8831150Y-14489146D02*
X8831150Y-14317717D01*
X9021626Y-14517717D02*
X9021626Y-14412955D01*
X9021626Y-14412955D02*
X9012103Y-14393908D01*
X9012103Y-14393908D02*
X8993055Y-14384384D01*
X8993055Y-14384384D02*
X8954960Y-14384384D01*
X8954960Y-14384384D02*
X8935912Y-14393908D01*
X9021626Y-14508194D02*
X9002579Y-14517717D01*
X9002579Y-14517717D02*
X8954960Y-14517717D01*
X8954960Y-14517717D02*
X8935912Y-14508194D01*
X8935912Y-14508194D02*
X8926388Y-14489146D01*
X8926388Y-14489146D02*
X8926388Y-14470098D01*
X8926388Y-14470098D02*
X8935912Y-14451051D01*
X8935912Y-14451051D02*
X8954960Y-14441527D01*
X8954960Y-14441527D02*
X9002579Y-14441527D01*
X9002579Y-14441527D02*
X9021626Y-14432003D01*
X9088293Y-14384384D02*
X9164484Y-14384384D01*
X9116865Y-14317717D02*
X9116865Y-14489146D01*
X9116865Y-14489146D02*
X9126388Y-14508194D01*
X9126388Y-14508194D02*
X9145436Y-14517717D01*
X9145436Y-14517717D02*
X9164484Y-14517717D01*
X9307341Y-14508194D02*
X9288293Y-14517717D01*
X9288293Y-14517717D02*
X9250198Y-14517717D01*
X9250198Y-14517717D02*
X9231150Y-14508194D01*
X9231150Y-14508194D02*
X9221626Y-14489146D01*
X9221626Y-14489146D02*
X9221626Y-14412955D01*
X9221626Y-14412955D02*
X9231150Y-14393908D01*
X9231150Y-14393908D02*
X9250198Y-14384384D01*
X9250198Y-14384384D02*
X9288293Y-14384384D01*
X9288293Y-14384384D02*
X9307341Y-14393908D01*
X9307341Y-14393908D02*
X9316865Y-14412955D01*
X9316865Y-14412955D02*
X9316865Y-14432003D01*
X9316865Y-14432003D02*
X9221626Y-14451051D01*
X9488293Y-14517717D02*
X9488293Y-14317717D01*
X9488293Y-14508194D02*
X9469246Y-14517717D01*
X9469246Y-14517717D02*
X9431150Y-14517717D01*
X9431150Y-14517717D02*
X9412103Y-14508194D01*
X9412103Y-14508194D02*
X9402579Y-14498670D01*
X9402579Y-14498670D02*
X9393055Y-14479622D01*
X9393055Y-14479622D02*
X9393055Y-14422479D01*
X9393055Y-14422479D02*
X9402579Y-14403432D01*
X9402579Y-14403432D02*
X9412103Y-14393908D01*
X9412103Y-14393908D02*
X9431150Y-14384384D01*
X9431150Y-14384384D02*
X9469246Y-14384384D01*
X9469246Y-14384384D02*
X9488293Y-14393908D01*
X9564484Y-14593908D02*
X9574007Y-14584384D01*
X9574007Y-14584384D02*
X9593055Y-14555813D01*
X9593055Y-14555813D02*
X9602579Y-14536765D01*
X9602579Y-14536765D02*
X9612103Y-14508194D01*
X9612103Y-14508194D02*
X9621626Y-14460574D01*
X9621626Y-14460574D02*
X9621626Y-14422479D01*
X9621626Y-14422479D02*
X9612103Y-14374860D01*
X9612103Y-14374860D02*
X9602579Y-14346289D01*
X9602579Y-14346289D02*
X9593055Y-14327241D01*
X9593055Y-14327241D02*
X9574007Y-14298670D01*
X9574007Y-14298670D02*
X9564484Y-14289146D01*
D14*
X2808468Y-14690234D02*
G75*
G02*
X2623468Y-14690234I-92500J0D01*
G01*
X2623468Y-14690234D02*
G75*
G02*
X2808468Y-14690234I92500J0D01*
G01*
D12*
X3174007Y-14781717D02*
X3059721Y-14781717D01*
X3116864Y-14781717D02*
X3116864Y-14581717D01*
X3116864Y-14581717D02*
X3097816Y-14610289D01*
X3097816Y-14610289D02*
X3078769Y-14629336D01*
X3078769Y-14629336D02*
X3059721Y-14638860D01*
X3259721Y-14762670D02*
X3269245Y-14772194D01*
X3269245Y-14772194D02*
X3259721Y-14781717D01*
X3259721Y-14781717D02*
X3250197Y-14772194D01*
X3250197Y-14772194D02*
X3259721Y-14762670D01*
X3259721Y-14762670D02*
X3259721Y-14781717D01*
X3383531Y-14667432D02*
X3364483Y-14657908D01*
X3364483Y-14657908D02*
X3354959Y-14648384D01*
X3354959Y-14648384D02*
X3345435Y-14629336D01*
X3345435Y-14629336D02*
X3345435Y-14619813D01*
X3345435Y-14619813D02*
X3354959Y-14600765D01*
X3354959Y-14600765D02*
X3364483Y-14591241D01*
X3364483Y-14591241D02*
X3383531Y-14581717D01*
X3383531Y-14581717D02*
X3421626Y-14581717D01*
X3421626Y-14581717D02*
X3440673Y-14591241D01*
X3440673Y-14591241D02*
X3450197Y-14600765D01*
X3450197Y-14600765D02*
X3459721Y-14619813D01*
X3459721Y-14619813D02*
X3459721Y-14629336D01*
X3459721Y-14629336D02*
X3450197Y-14648384D01*
X3450197Y-14648384D02*
X3440673Y-14657908D01*
X3440673Y-14657908D02*
X3421626Y-14667432D01*
X3421626Y-14667432D02*
X3383531Y-14667432D01*
X3383531Y-14667432D02*
X3364483Y-14676955D01*
X3364483Y-14676955D02*
X3354959Y-14686479D01*
X3354959Y-14686479D02*
X3345435Y-14705527D01*
X3345435Y-14705527D02*
X3345435Y-14743622D01*
X3345435Y-14743622D02*
X3354959Y-14762670D01*
X3354959Y-14762670D02*
X3364483Y-14772194D01*
X3364483Y-14772194D02*
X3383531Y-14781717D01*
X3383531Y-14781717D02*
X3421626Y-14781717D01*
X3421626Y-14781717D02*
X3440673Y-14772194D01*
X3440673Y-14772194D02*
X3450197Y-14762670D01*
X3450197Y-14762670D02*
X3459721Y-14743622D01*
X3459721Y-14743622D02*
X3459721Y-14705527D01*
X3459721Y-14705527D02*
X3450197Y-14686479D01*
X3450197Y-14686479D02*
X3440673Y-14676955D01*
X3440673Y-14676955D02*
X3421626Y-14667432D01*
X3640673Y-14581717D02*
X3545435Y-14581717D01*
X3545435Y-14581717D02*
X3535912Y-14676955D01*
X3535912Y-14676955D02*
X3545435Y-14667432D01*
X3545435Y-14667432D02*
X3564483Y-14657908D01*
X3564483Y-14657908D02*
X3612102Y-14657908D01*
X3612102Y-14657908D02*
X3631150Y-14667432D01*
X3631150Y-14667432D02*
X3640673Y-14676955D01*
X3640673Y-14676955D02*
X3650197Y-14696003D01*
X3650197Y-14696003D02*
X3650197Y-14743622D01*
X3650197Y-14743622D02*
X3640673Y-14762670D01*
X3640673Y-14762670D02*
X3631150Y-14772194D01*
X3631150Y-14772194D02*
X3612102Y-14781717D01*
X3612102Y-14781717D02*
X3564483Y-14781717D01*
X3564483Y-14781717D02*
X3545435Y-14772194D01*
X3545435Y-14772194D02*
X3535912Y-14762670D01*
X3774007Y-14581717D02*
X3793054Y-14581717D01*
X3793054Y-14581717D02*
X3812102Y-14591241D01*
X3812102Y-14591241D02*
X3821626Y-14600765D01*
X3821626Y-14600765D02*
X3831150Y-14619813D01*
X3831150Y-14619813D02*
X3840673Y-14657908D01*
X3840673Y-14657908D02*
X3840673Y-14705527D01*
X3840673Y-14705527D02*
X3831150Y-14743622D01*
X3831150Y-14743622D02*
X3821626Y-14762670D01*
X3821626Y-14762670D02*
X3812102Y-14772194D01*
X3812102Y-14772194D02*
X3793054Y-14781717D01*
X3793054Y-14781717D02*
X3774007Y-14781717D01*
X3774007Y-14781717D02*
X3754959Y-14772194D01*
X3754959Y-14772194D02*
X3745435Y-14762670D01*
X3745435Y-14762670D02*
X3735912Y-14743622D01*
X3735912Y-14743622D02*
X3726388Y-14705527D01*
X3726388Y-14705527D02*
X3726388Y-14657908D01*
X3726388Y-14657908D02*
X3735912Y-14619813D01*
X3735912Y-14619813D02*
X3745435Y-14600765D01*
X3745435Y-14600765D02*
X3754959Y-14591241D01*
X3754959Y-14591241D02*
X3774007Y-14581717D01*
X3926388Y-14781717D02*
X3926388Y-14648384D01*
X3926388Y-14667432D02*
X3935912Y-14657908D01*
X3935912Y-14657908D02*
X3954959Y-14648384D01*
X3954959Y-14648384D02*
X3983531Y-14648384D01*
X3983531Y-14648384D02*
X4002578Y-14657908D01*
X4002578Y-14657908D02*
X4012102Y-14676955D01*
X4012102Y-14676955D02*
X4012102Y-14781717D01*
X4012102Y-14676955D02*
X4021626Y-14657908D01*
X4021626Y-14657908D02*
X4040673Y-14648384D01*
X4040673Y-14648384D02*
X4069245Y-14648384D01*
X4069245Y-14648384D02*
X4088293Y-14657908D01*
X4088293Y-14657908D02*
X4097816Y-14676955D01*
X4097816Y-14676955D02*
X4097816Y-14781717D01*
X4193054Y-14781717D02*
X4193054Y-14648384D01*
X4193054Y-14667432D02*
X4202578Y-14657908D01*
X4202578Y-14657908D02*
X4221626Y-14648384D01*
X4221626Y-14648384D02*
X4250197Y-14648384D01*
X4250197Y-14648384D02*
X4269245Y-14657908D01*
X4269245Y-14657908D02*
X4278769Y-14676955D01*
X4278769Y-14676955D02*
X4278769Y-14781717D01*
X4278769Y-14676955D02*
X4288293Y-14657908D01*
X4288293Y-14657908D02*
X4307340Y-14648384D01*
X4307340Y-14648384D02*
X4335912Y-14648384D01*
X4335912Y-14648384D02*
X4354959Y-14657908D01*
X4354959Y-14657908D02*
X4364483Y-14676955D01*
X4364483Y-14676955D02*
X4364483Y-14781717D01*
X4754959Y-14572194D02*
X4583531Y-14829336D01*
X5012102Y-14581717D02*
X5031150Y-14581717D01*
X5031150Y-14581717D02*
X5050198Y-14591241D01*
X5050198Y-14591241D02*
X5059721Y-14600765D01*
X5059721Y-14600765D02*
X5069245Y-14619813D01*
X5069245Y-14619813D02*
X5078769Y-14657908D01*
X5078769Y-14657908D02*
X5078769Y-14705527D01*
X5078769Y-14705527D02*
X5069245Y-14743622D01*
X5069245Y-14743622D02*
X5059721Y-14762670D01*
X5059721Y-14762670D02*
X5050198Y-14772194D01*
X5050198Y-14772194D02*
X5031150Y-14781717D01*
X5031150Y-14781717D02*
X5012102Y-14781717D01*
X5012102Y-14781717D02*
X4993055Y-14772194D01*
X4993055Y-14772194D02*
X4983531Y-14762670D01*
X4983531Y-14762670D02*
X4974007Y-14743622D01*
X4974007Y-14743622D02*
X4964483Y-14705527D01*
X4964483Y-14705527D02*
X4964483Y-14657908D01*
X4964483Y-14657908D02*
X4974007Y-14619813D01*
X4974007Y-14619813D02*
X4983531Y-14600765D01*
X4983531Y-14600765D02*
X4993055Y-14591241D01*
X4993055Y-14591241D02*
X5012102Y-14581717D01*
X5164483Y-14762670D02*
X5174007Y-14772194D01*
X5174007Y-14772194D02*
X5164483Y-14781717D01*
X5164483Y-14781717D02*
X5154959Y-14772194D01*
X5154959Y-14772194D02*
X5164483Y-14762670D01*
X5164483Y-14762670D02*
X5164483Y-14781717D01*
X5297817Y-14581717D02*
X5316864Y-14581717D01*
X5316864Y-14581717D02*
X5335912Y-14591241D01*
X5335912Y-14591241D02*
X5345436Y-14600765D01*
X5345436Y-14600765D02*
X5354959Y-14619813D01*
X5354959Y-14619813D02*
X5364483Y-14657908D01*
X5364483Y-14657908D02*
X5364483Y-14705527D01*
X5364483Y-14705527D02*
X5354959Y-14743622D01*
X5354959Y-14743622D02*
X5345436Y-14762670D01*
X5345436Y-14762670D02*
X5335912Y-14772194D01*
X5335912Y-14772194D02*
X5316864Y-14781717D01*
X5316864Y-14781717D02*
X5297817Y-14781717D01*
X5297817Y-14781717D02*
X5278769Y-14772194D01*
X5278769Y-14772194D02*
X5269245Y-14762670D01*
X5269245Y-14762670D02*
X5259721Y-14743622D01*
X5259721Y-14743622D02*
X5250198Y-14705527D01*
X5250198Y-14705527D02*
X5250198Y-14657908D01*
X5250198Y-14657908D02*
X5259721Y-14619813D01*
X5259721Y-14619813D02*
X5269245Y-14600765D01*
X5269245Y-14600765D02*
X5278769Y-14591241D01*
X5278769Y-14591241D02*
X5297817Y-14581717D01*
X5431150Y-14581717D02*
X5564483Y-14581717D01*
X5564483Y-14581717D02*
X5478769Y-14781717D01*
X5631150Y-14600765D02*
X5640674Y-14591241D01*
X5640674Y-14591241D02*
X5659721Y-14581717D01*
X5659721Y-14581717D02*
X5707340Y-14581717D01*
X5707340Y-14581717D02*
X5726388Y-14591241D01*
X5726388Y-14591241D02*
X5735912Y-14600765D01*
X5735912Y-14600765D02*
X5745436Y-14619813D01*
X5745436Y-14619813D02*
X5745436Y-14638860D01*
X5745436Y-14638860D02*
X5735912Y-14667432D01*
X5735912Y-14667432D02*
X5621626Y-14781717D01*
X5621626Y-14781717D02*
X5745436Y-14781717D01*
X5859721Y-14667432D02*
X5840674Y-14657908D01*
X5840674Y-14657908D02*
X5831150Y-14648384D01*
X5831150Y-14648384D02*
X5821626Y-14629336D01*
X5821626Y-14629336D02*
X5821626Y-14619813D01*
X5821626Y-14619813D02*
X5831150Y-14600765D01*
X5831150Y-14600765D02*
X5840674Y-14591241D01*
X5840674Y-14591241D02*
X5859721Y-14581717D01*
X5859721Y-14581717D02*
X5897817Y-14581717D01*
X5897817Y-14581717D02*
X5916864Y-14591241D01*
X5916864Y-14591241D02*
X5926388Y-14600765D01*
X5926388Y-14600765D02*
X5935912Y-14619813D01*
X5935912Y-14619813D02*
X5935912Y-14629336D01*
X5935912Y-14629336D02*
X5926388Y-14648384D01*
X5926388Y-14648384D02*
X5916864Y-14657908D01*
X5916864Y-14657908D02*
X5897817Y-14667432D01*
X5897817Y-14667432D02*
X5859721Y-14667432D01*
X5859721Y-14667432D02*
X5840674Y-14676955D01*
X5840674Y-14676955D02*
X5831150Y-14686479D01*
X5831150Y-14686479D02*
X5821626Y-14705527D01*
X5821626Y-14705527D02*
X5821626Y-14743622D01*
X5821626Y-14743622D02*
X5831150Y-14762670D01*
X5831150Y-14762670D02*
X5840674Y-14772194D01*
X5840674Y-14772194D02*
X5859721Y-14781717D01*
X5859721Y-14781717D02*
X5897817Y-14781717D01*
X5897817Y-14781717D02*
X5916864Y-14772194D01*
X5916864Y-14772194D02*
X5926388Y-14762670D01*
X5926388Y-14762670D02*
X5935912Y-14743622D01*
X5935912Y-14743622D02*
X5935912Y-14705527D01*
X5935912Y-14705527D02*
X5926388Y-14686479D01*
X5926388Y-14686479D02*
X5916864Y-14676955D01*
X5916864Y-14676955D02*
X5897817Y-14667432D01*
X6012102Y-14581717D02*
X6012102Y-14619813D01*
X6088293Y-14581717D02*
X6088293Y-14619813D01*
X6383531Y-14857908D02*
X6374007Y-14848384D01*
X6374007Y-14848384D02*
X6354959Y-14819813D01*
X6354959Y-14819813D02*
X6345436Y-14800765D01*
X6345436Y-14800765D02*
X6335912Y-14772194D01*
X6335912Y-14772194D02*
X6326388Y-14724574D01*
X6326388Y-14724574D02*
X6326388Y-14686479D01*
X6326388Y-14686479D02*
X6335912Y-14638860D01*
X6335912Y-14638860D02*
X6345436Y-14610289D01*
X6345436Y-14610289D02*
X6354959Y-14591241D01*
X6354959Y-14591241D02*
X6374007Y-14562670D01*
X6374007Y-14562670D02*
X6383531Y-14553146D01*
X6545436Y-14581717D02*
X6507340Y-14581717D01*
X6507340Y-14581717D02*
X6488293Y-14591241D01*
X6488293Y-14591241D02*
X6478769Y-14600765D01*
X6478769Y-14600765D02*
X6459721Y-14629336D01*
X6459721Y-14629336D02*
X6450198Y-14667432D01*
X6450198Y-14667432D02*
X6450198Y-14743622D01*
X6450198Y-14743622D02*
X6459721Y-14762670D01*
X6459721Y-14762670D02*
X6469245Y-14772194D01*
X6469245Y-14772194D02*
X6488293Y-14781717D01*
X6488293Y-14781717D02*
X6526388Y-14781717D01*
X6526388Y-14781717D02*
X6545436Y-14772194D01*
X6545436Y-14772194D02*
X6554959Y-14762670D01*
X6554959Y-14762670D02*
X6564483Y-14743622D01*
X6564483Y-14743622D02*
X6564483Y-14696003D01*
X6564483Y-14696003D02*
X6554959Y-14676955D01*
X6554959Y-14676955D02*
X6545436Y-14667432D01*
X6545436Y-14667432D02*
X6526388Y-14657908D01*
X6526388Y-14657908D02*
X6488293Y-14657908D01*
X6488293Y-14657908D02*
X6469245Y-14667432D01*
X6469245Y-14667432D02*
X6459721Y-14676955D01*
X6459721Y-14676955D02*
X6450198Y-14696003D01*
X6678769Y-14667432D02*
X6659721Y-14657908D01*
X6659721Y-14657908D02*
X6650198Y-14648384D01*
X6650198Y-14648384D02*
X6640674Y-14629336D01*
X6640674Y-14629336D02*
X6640674Y-14619813D01*
X6640674Y-14619813D02*
X6650198Y-14600765D01*
X6650198Y-14600765D02*
X6659721Y-14591241D01*
X6659721Y-14591241D02*
X6678769Y-14581717D01*
X6678769Y-14581717D02*
X6716864Y-14581717D01*
X6716864Y-14581717D02*
X6735912Y-14591241D01*
X6735912Y-14591241D02*
X6745436Y-14600765D01*
X6745436Y-14600765D02*
X6754959Y-14619813D01*
X6754959Y-14619813D02*
X6754959Y-14629336D01*
X6754959Y-14629336D02*
X6745436Y-14648384D01*
X6745436Y-14648384D02*
X6735912Y-14657908D01*
X6735912Y-14657908D02*
X6716864Y-14667432D01*
X6716864Y-14667432D02*
X6678769Y-14667432D01*
X6678769Y-14667432D02*
X6659721Y-14676955D01*
X6659721Y-14676955D02*
X6650198Y-14686479D01*
X6650198Y-14686479D02*
X6640674Y-14705527D01*
X6640674Y-14705527D02*
X6640674Y-14743622D01*
X6640674Y-14743622D02*
X6650198Y-14762670D01*
X6650198Y-14762670D02*
X6659721Y-14772194D01*
X6659721Y-14772194D02*
X6678769Y-14781717D01*
X6678769Y-14781717D02*
X6716864Y-14781717D01*
X6716864Y-14781717D02*
X6735912Y-14772194D01*
X6735912Y-14772194D02*
X6745436Y-14762670D01*
X6745436Y-14762670D02*
X6754959Y-14743622D01*
X6754959Y-14743622D02*
X6754959Y-14705527D01*
X6754959Y-14705527D02*
X6745436Y-14686479D01*
X6745436Y-14686479D02*
X6735912Y-14676955D01*
X6735912Y-14676955D02*
X6716864Y-14667432D01*
X6993055Y-14781717D02*
X6993055Y-14581717D01*
X7078769Y-14781717D02*
X7078769Y-14676955D01*
X7078769Y-14676955D02*
X7069245Y-14657908D01*
X7069245Y-14657908D02*
X7050198Y-14648384D01*
X7050198Y-14648384D02*
X7021626Y-14648384D01*
X7021626Y-14648384D02*
X7002579Y-14657908D01*
X7002579Y-14657908D02*
X6993055Y-14667432D01*
X7202579Y-14781717D02*
X7183531Y-14772194D01*
X7183531Y-14772194D02*
X7174007Y-14762670D01*
X7174007Y-14762670D02*
X7164483Y-14743622D01*
X7164483Y-14743622D02*
X7164483Y-14686479D01*
X7164483Y-14686479D02*
X7174007Y-14667432D01*
X7174007Y-14667432D02*
X7183531Y-14657908D01*
X7183531Y-14657908D02*
X7202579Y-14648384D01*
X7202579Y-14648384D02*
X7231150Y-14648384D01*
X7231150Y-14648384D02*
X7250198Y-14657908D01*
X7250198Y-14657908D02*
X7259721Y-14667432D01*
X7259721Y-14667432D02*
X7269245Y-14686479D01*
X7269245Y-14686479D02*
X7269245Y-14743622D01*
X7269245Y-14743622D02*
X7259721Y-14762670D01*
X7259721Y-14762670D02*
X7250198Y-14772194D01*
X7250198Y-14772194D02*
X7231150Y-14781717D01*
X7231150Y-14781717D02*
X7202579Y-14781717D01*
X7383531Y-14781717D02*
X7364483Y-14772194D01*
X7364483Y-14772194D02*
X7354960Y-14753146D01*
X7354960Y-14753146D02*
X7354960Y-14581717D01*
X7535912Y-14772194D02*
X7516864Y-14781717D01*
X7516864Y-14781717D02*
X7478769Y-14781717D01*
X7478769Y-14781717D02*
X7459721Y-14772194D01*
X7459721Y-14772194D02*
X7450198Y-14753146D01*
X7450198Y-14753146D02*
X7450198Y-14676955D01*
X7450198Y-14676955D02*
X7459721Y-14657908D01*
X7459721Y-14657908D02*
X7478769Y-14648384D01*
X7478769Y-14648384D02*
X7516864Y-14648384D01*
X7516864Y-14648384D02*
X7535912Y-14657908D01*
X7535912Y-14657908D02*
X7545436Y-14676955D01*
X7545436Y-14676955D02*
X7545436Y-14696003D01*
X7545436Y-14696003D02*
X7450198Y-14715051D01*
X7621626Y-14772194D02*
X7640674Y-14781717D01*
X7640674Y-14781717D02*
X7678769Y-14781717D01*
X7678769Y-14781717D02*
X7697817Y-14772194D01*
X7697817Y-14772194D02*
X7707341Y-14753146D01*
X7707341Y-14753146D02*
X7707341Y-14743622D01*
X7707341Y-14743622D02*
X7697817Y-14724574D01*
X7697817Y-14724574D02*
X7678769Y-14715051D01*
X7678769Y-14715051D02*
X7650198Y-14715051D01*
X7650198Y-14715051D02*
X7631150Y-14705527D01*
X7631150Y-14705527D02*
X7621626Y-14686479D01*
X7621626Y-14686479D02*
X7621626Y-14676955D01*
X7621626Y-14676955D02*
X7631150Y-14657908D01*
X7631150Y-14657908D02*
X7650198Y-14648384D01*
X7650198Y-14648384D02*
X7678769Y-14648384D01*
X7678769Y-14648384D02*
X7697817Y-14657908D01*
X7774007Y-14857908D02*
X7783531Y-14848384D01*
X7783531Y-14848384D02*
X7802579Y-14819813D01*
X7802579Y-14819813D02*
X7812102Y-14800765D01*
X7812102Y-14800765D02*
X7821626Y-14772194D01*
X7821626Y-14772194D02*
X7831150Y-14724574D01*
X7831150Y-14724574D02*
X7831150Y-14686479D01*
X7831150Y-14686479D02*
X7821626Y-14638860D01*
X7821626Y-14638860D02*
X7812102Y-14610289D01*
X7812102Y-14610289D02*
X7802579Y-14591241D01*
X7802579Y-14591241D02*
X7783531Y-14562670D01*
X7783531Y-14562670D02*
X7774007Y-14553146D01*
X8135912Y-14857908D02*
X8126388Y-14848384D01*
X8126388Y-14848384D02*
X8107341Y-14819813D01*
X8107341Y-14819813D02*
X8097817Y-14800765D01*
X8097817Y-14800765D02*
X8088293Y-14772194D01*
X8088293Y-14772194D02*
X8078769Y-14724574D01*
X8078769Y-14724574D02*
X8078769Y-14686479D01*
X8078769Y-14686479D02*
X8088293Y-14638860D01*
X8088293Y-14638860D02*
X8097817Y-14610289D01*
X8097817Y-14610289D02*
X8107341Y-14591241D01*
X8107341Y-14591241D02*
X8126388Y-14562670D01*
X8126388Y-14562670D02*
X8135912Y-14553146D01*
X8212102Y-14648384D02*
X8212102Y-14781717D01*
X8212102Y-14667432D02*
X8221626Y-14657908D01*
X8221626Y-14657908D02*
X8240674Y-14648384D01*
X8240674Y-14648384D02*
X8269245Y-14648384D01*
X8269245Y-14648384D02*
X8288293Y-14657908D01*
X8288293Y-14657908D02*
X8297817Y-14676955D01*
X8297817Y-14676955D02*
X8297817Y-14781717D01*
X8421626Y-14781717D02*
X8402579Y-14772194D01*
X8402579Y-14772194D02*
X8393055Y-14762670D01*
X8393055Y-14762670D02*
X8383531Y-14743622D01*
X8383531Y-14743622D02*
X8383531Y-14686479D01*
X8383531Y-14686479D02*
X8393055Y-14667432D01*
X8393055Y-14667432D02*
X8402579Y-14657908D01*
X8402579Y-14657908D02*
X8421626Y-14648384D01*
X8421626Y-14648384D02*
X8450198Y-14648384D01*
X8450198Y-14648384D02*
X8469245Y-14657908D01*
X8469245Y-14657908D02*
X8478769Y-14667432D01*
X8478769Y-14667432D02*
X8488293Y-14686479D01*
X8488293Y-14686479D02*
X8488293Y-14743622D01*
X8488293Y-14743622D02*
X8478769Y-14762670D01*
X8478769Y-14762670D02*
X8469245Y-14772194D01*
X8469245Y-14772194D02*
X8450198Y-14781717D01*
X8450198Y-14781717D02*
X8421626Y-14781717D01*
X8545436Y-14648384D02*
X8621626Y-14648384D01*
X8574007Y-14581717D02*
X8574007Y-14753146D01*
X8574007Y-14753146D02*
X8583531Y-14772194D01*
X8583531Y-14772194D02*
X8602579Y-14781717D01*
X8602579Y-14781717D02*
X8621626Y-14781717D01*
X8840674Y-14648384D02*
X8840674Y-14848384D01*
X8840674Y-14657908D02*
X8859722Y-14648384D01*
X8859722Y-14648384D02*
X8897817Y-14648384D01*
X8897817Y-14648384D02*
X8916865Y-14657908D01*
X8916865Y-14657908D02*
X8926388Y-14667432D01*
X8926388Y-14667432D02*
X8935912Y-14686479D01*
X8935912Y-14686479D02*
X8935912Y-14743622D01*
X8935912Y-14743622D02*
X8926388Y-14762670D01*
X8926388Y-14762670D02*
X8916865Y-14772194D01*
X8916865Y-14772194D02*
X8897817Y-14781717D01*
X8897817Y-14781717D02*
X8859722Y-14781717D01*
X8859722Y-14781717D02*
X8840674Y-14772194D01*
X9050198Y-14781717D02*
X9031150Y-14772194D01*
X9031150Y-14772194D02*
X9021626Y-14753146D01*
X9021626Y-14753146D02*
X9021626Y-14581717D01*
X9212103Y-14781717D02*
X9212103Y-14676955D01*
X9212103Y-14676955D02*
X9202579Y-14657908D01*
X9202579Y-14657908D02*
X9183531Y-14648384D01*
X9183531Y-14648384D02*
X9145436Y-14648384D01*
X9145436Y-14648384D02*
X9126388Y-14657908D01*
X9212103Y-14772194D02*
X9193055Y-14781717D01*
X9193055Y-14781717D02*
X9145436Y-14781717D01*
X9145436Y-14781717D02*
X9126388Y-14772194D01*
X9126388Y-14772194D02*
X9116865Y-14753146D01*
X9116865Y-14753146D02*
X9116865Y-14734098D01*
X9116865Y-14734098D02*
X9126388Y-14715051D01*
X9126388Y-14715051D02*
X9145436Y-14705527D01*
X9145436Y-14705527D02*
X9193055Y-14705527D01*
X9193055Y-14705527D02*
X9212103Y-14696003D01*
X9278769Y-14648384D02*
X9354960Y-14648384D01*
X9307341Y-14581717D02*
X9307341Y-14753146D01*
X9307341Y-14753146D02*
X9316865Y-14772194D01*
X9316865Y-14772194D02*
X9335912Y-14781717D01*
X9335912Y-14781717D02*
X9354960Y-14781717D01*
X9497817Y-14772194D02*
X9478769Y-14781717D01*
X9478769Y-14781717D02*
X9440674Y-14781717D01*
X9440674Y-14781717D02*
X9421626Y-14772194D01*
X9421626Y-14772194D02*
X9412103Y-14753146D01*
X9412103Y-14753146D02*
X9412103Y-14676955D01*
X9412103Y-14676955D02*
X9421626Y-14657908D01*
X9421626Y-14657908D02*
X9440674Y-14648384D01*
X9440674Y-14648384D02*
X9478769Y-14648384D01*
X9478769Y-14648384D02*
X9497817Y-14657908D01*
X9497817Y-14657908D02*
X9507341Y-14676955D01*
X9507341Y-14676955D02*
X9507341Y-14696003D01*
X9507341Y-14696003D02*
X9412103Y-14715051D01*
X9678769Y-14781717D02*
X9678769Y-14581717D01*
X9678769Y-14772194D02*
X9659722Y-14781717D01*
X9659722Y-14781717D02*
X9621626Y-14781717D01*
X9621626Y-14781717D02*
X9602579Y-14772194D01*
X9602579Y-14772194D02*
X9593055Y-14762670D01*
X9593055Y-14762670D02*
X9583531Y-14743622D01*
X9583531Y-14743622D02*
X9583531Y-14686479D01*
X9583531Y-14686479D02*
X9593055Y-14667432D01*
X9593055Y-14667432D02*
X9602579Y-14657908D01*
X9602579Y-14657908D02*
X9621626Y-14648384D01*
X9621626Y-14648384D02*
X9659722Y-14648384D01*
X9659722Y-14648384D02*
X9678769Y-14657908D01*
X9754960Y-14857908D02*
X9764484Y-14848384D01*
X9764484Y-14848384D02*
X9783531Y-14819813D01*
X9783531Y-14819813D02*
X9793055Y-14800765D01*
X9793055Y-14800765D02*
X9802579Y-14772194D01*
X9802579Y-14772194D02*
X9812103Y-14724574D01*
X9812103Y-14724574D02*
X9812103Y-14686479D01*
X9812103Y-14686479D02*
X9802579Y-14638860D01*
X9802579Y-14638860D02*
X9793055Y-14610289D01*
X9793055Y-14610289D02*
X9783531Y-14591241D01*
X9783531Y-14591241D02*
X9764484Y-14562670D01*
X9764484Y-14562670D02*
X9754960Y-14553146D01*
X2708468Y-14895234D02*
X2708468Y-15095234D01*
X2608468Y-14995234D02*
X2808468Y-14995234D01*
X3154959Y-14953384D02*
X3154959Y-15086717D01*
X3107340Y-14877194D02*
X3059721Y-15020051D01*
X3059721Y-15020051D02*
X3183531Y-15020051D01*
X3259721Y-15067670D02*
X3269245Y-15077194D01*
X3269245Y-15077194D02*
X3259721Y-15086717D01*
X3259721Y-15086717D02*
X3250197Y-15077194D01*
X3250197Y-15077194D02*
X3259721Y-15067670D01*
X3259721Y-15067670D02*
X3259721Y-15086717D01*
X3364483Y-15086717D02*
X3402578Y-15086717D01*
X3402578Y-15086717D02*
X3421626Y-15077194D01*
X3421626Y-15077194D02*
X3431150Y-15067670D01*
X3431150Y-15067670D02*
X3450197Y-15039098D01*
X3450197Y-15039098D02*
X3459721Y-15001003D01*
X3459721Y-15001003D02*
X3459721Y-14924813D01*
X3459721Y-14924813D02*
X3450197Y-14905765D01*
X3450197Y-14905765D02*
X3440673Y-14896241D01*
X3440673Y-14896241D02*
X3421626Y-14886717D01*
X3421626Y-14886717D02*
X3383531Y-14886717D01*
X3383531Y-14886717D02*
X3364483Y-14896241D01*
X3364483Y-14896241D02*
X3354959Y-14905765D01*
X3354959Y-14905765D02*
X3345435Y-14924813D01*
X3345435Y-14924813D02*
X3345435Y-14972432D01*
X3345435Y-14972432D02*
X3354959Y-14991479D01*
X3354959Y-14991479D02*
X3364483Y-15001003D01*
X3364483Y-15001003D02*
X3383531Y-15010527D01*
X3383531Y-15010527D02*
X3421626Y-15010527D01*
X3421626Y-15010527D02*
X3440673Y-15001003D01*
X3440673Y-15001003D02*
X3450197Y-14991479D01*
X3450197Y-14991479D02*
X3459721Y-14972432D01*
X3583531Y-14886717D02*
X3602578Y-14886717D01*
X3602578Y-14886717D02*
X3621626Y-14896241D01*
X3621626Y-14896241D02*
X3631150Y-14905765D01*
X3631150Y-14905765D02*
X3640673Y-14924813D01*
X3640673Y-14924813D02*
X3650197Y-14962908D01*
X3650197Y-14962908D02*
X3650197Y-15010527D01*
X3650197Y-15010527D02*
X3640673Y-15048622D01*
X3640673Y-15048622D02*
X3631150Y-15067670D01*
X3631150Y-15067670D02*
X3621626Y-15077194D01*
X3621626Y-15077194D02*
X3602578Y-15086717D01*
X3602578Y-15086717D02*
X3583531Y-15086717D01*
X3583531Y-15086717D02*
X3564483Y-15077194D01*
X3564483Y-15077194D02*
X3554959Y-15067670D01*
X3554959Y-15067670D02*
X3545435Y-15048622D01*
X3545435Y-15048622D02*
X3535912Y-15010527D01*
X3535912Y-15010527D02*
X3535912Y-14962908D01*
X3535912Y-14962908D02*
X3545435Y-14924813D01*
X3545435Y-14924813D02*
X3554959Y-14905765D01*
X3554959Y-14905765D02*
X3564483Y-14896241D01*
X3564483Y-14896241D02*
X3583531Y-14886717D01*
X3774007Y-14886717D02*
X3793054Y-14886717D01*
X3793054Y-14886717D02*
X3812102Y-14896241D01*
X3812102Y-14896241D02*
X3821626Y-14905765D01*
X3821626Y-14905765D02*
X3831150Y-14924813D01*
X3831150Y-14924813D02*
X3840673Y-14962908D01*
X3840673Y-14962908D02*
X3840673Y-15010527D01*
X3840673Y-15010527D02*
X3831150Y-15048622D01*
X3831150Y-15048622D02*
X3821626Y-15067670D01*
X3821626Y-15067670D02*
X3812102Y-15077194D01*
X3812102Y-15077194D02*
X3793054Y-15086717D01*
X3793054Y-15086717D02*
X3774007Y-15086717D01*
X3774007Y-15086717D02*
X3754959Y-15077194D01*
X3754959Y-15077194D02*
X3745435Y-15067670D01*
X3745435Y-15067670D02*
X3735912Y-15048622D01*
X3735912Y-15048622D02*
X3726388Y-15010527D01*
X3726388Y-15010527D02*
X3726388Y-14962908D01*
X3726388Y-14962908D02*
X3735912Y-14924813D01*
X3735912Y-14924813D02*
X3745435Y-14905765D01*
X3745435Y-14905765D02*
X3754959Y-14896241D01*
X3754959Y-14896241D02*
X3774007Y-14886717D01*
X3926388Y-15086717D02*
X3926388Y-14953384D01*
X3926388Y-14972432D02*
X3935912Y-14962908D01*
X3935912Y-14962908D02*
X3954959Y-14953384D01*
X3954959Y-14953384D02*
X3983531Y-14953384D01*
X3983531Y-14953384D02*
X4002578Y-14962908D01*
X4002578Y-14962908D02*
X4012102Y-14981955D01*
X4012102Y-14981955D02*
X4012102Y-15086717D01*
X4012102Y-14981955D02*
X4021626Y-14962908D01*
X4021626Y-14962908D02*
X4040673Y-14953384D01*
X4040673Y-14953384D02*
X4069245Y-14953384D01*
X4069245Y-14953384D02*
X4088293Y-14962908D01*
X4088293Y-14962908D02*
X4097816Y-14981955D01*
X4097816Y-14981955D02*
X4097816Y-15086717D01*
X4193054Y-15086717D02*
X4193054Y-14953384D01*
X4193054Y-14972432D02*
X4202578Y-14962908D01*
X4202578Y-14962908D02*
X4221626Y-14953384D01*
X4221626Y-14953384D02*
X4250197Y-14953384D01*
X4250197Y-14953384D02*
X4269245Y-14962908D01*
X4269245Y-14962908D02*
X4278769Y-14981955D01*
X4278769Y-14981955D02*
X4278769Y-15086717D01*
X4278769Y-14981955D02*
X4288293Y-14962908D01*
X4288293Y-14962908D02*
X4307340Y-14953384D01*
X4307340Y-14953384D02*
X4335912Y-14953384D01*
X4335912Y-14953384D02*
X4354959Y-14962908D01*
X4354959Y-14962908D02*
X4364483Y-14981955D01*
X4364483Y-14981955D02*
X4364483Y-15086717D01*
X4754959Y-14877194D02*
X4583531Y-15134336D01*
X5012102Y-14886717D02*
X5031150Y-14886717D01*
X5031150Y-14886717D02*
X5050198Y-14896241D01*
X5050198Y-14896241D02*
X5059721Y-14905765D01*
X5059721Y-14905765D02*
X5069245Y-14924813D01*
X5069245Y-14924813D02*
X5078769Y-14962908D01*
X5078769Y-14962908D02*
X5078769Y-15010527D01*
X5078769Y-15010527D02*
X5069245Y-15048622D01*
X5069245Y-15048622D02*
X5059721Y-15067670D01*
X5059721Y-15067670D02*
X5050198Y-15077194D01*
X5050198Y-15077194D02*
X5031150Y-15086717D01*
X5031150Y-15086717D02*
X5012102Y-15086717D01*
X5012102Y-15086717D02*
X4993055Y-15077194D01*
X4993055Y-15077194D02*
X4983531Y-15067670D01*
X4983531Y-15067670D02*
X4974007Y-15048622D01*
X4974007Y-15048622D02*
X4964483Y-15010527D01*
X4964483Y-15010527D02*
X4964483Y-14962908D01*
X4964483Y-14962908D02*
X4974007Y-14924813D01*
X4974007Y-14924813D02*
X4983531Y-14905765D01*
X4983531Y-14905765D02*
X4993055Y-14896241D01*
X4993055Y-14896241D02*
X5012102Y-14886717D01*
X5164483Y-15067670D02*
X5174007Y-15077194D01*
X5174007Y-15077194D02*
X5164483Y-15086717D01*
X5164483Y-15086717D02*
X5154959Y-15077194D01*
X5154959Y-15077194D02*
X5164483Y-15067670D01*
X5164483Y-15067670D02*
X5164483Y-15086717D01*
X5364483Y-15086717D02*
X5250198Y-15086717D01*
X5307340Y-15086717D02*
X5307340Y-14886717D01*
X5307340Y-14886717D02*
X5288293Y-14915289D01*
X5288293Y-14915289D02*
X5269245Y-14934336D01*
X5269245Y-14934336D02*
X5250198Y-14943860D01*
X5459721Y-15086717D02*
X5497817Y-15086717D01*
X5497817Y-15086717D02*
X5516864Y-15077194D01*
X5516864Y-15077194D02*
X5526388Y-15067670D01*
X5526388Y-15067670D02*
X5545436Y-15039098D01*
X5545436Y-15039098D02*
X5554959Y-15001003D01*
X5554959Y-15001003D02*
X5554959Y-14924813D01*
X5554959Y-14924813D02*
X5545436Y-14905765D01*
X5545436Y-14905765D02*
X5535912Y-14896241D01*
X5535912Y-14896241D02*
X5516864Y-14886717D01*
X5516864Y-14886717D02*
X5478769Y-14886717D01*
X5478769Y-14886717D02*
X5459721Y-14896241D01*
X5459721Y-14896241D02*
X5450198Y-14905765D01*
X5450198Y-14905765D02*
X5440674Y-14924813D01*
X5440674Y-14924813D02*
X5440674Y-14972432D01*
X5440674Y-14972432D02*
X5450198Y-14991479D01*
X5450198Y-14991479D02*
X5459721Y-15001003D01*
X5459721Y-15001003D02*
X5478769Y-15010527D01*
X5478769Y-15010527D02*
X5516864Y-15010527D01*
X5516864Y-15010527D02*
X5535912Y-15001003D01*
X5535912Y-15001003D02*
X5545436Y-14991479D01*
X5545436Y-14991479D02*
X5554959Y-14972432D01*
X5631150Y-14905765D02*
X5640674Y-14896241D01*
X5640674Y-14896241D02*
X5659721Y-14886717D01*
X5659721Y-14886717D02*
X5707340Y-14886717D01*
X5707340Y-14886717D02*
X5726388Y-14896241D01*
X5726388Y-14896241D02*
X5735912Y-14905765D01*
X5735912Y-14905765D02*
X5745436Y-14924813D01*
X5745436Y-14924813D02*
X5745436Y-14943860D01*
X5745436Y-14943860D02*
X5735912Y-14972432D01*
X5735912Y-14972432D02*
X5621626Y-15086717D01*
X5621626Y-15086717D02*
X5745436Y-15086717D01*
X5840674Y-15086717D02*
X5878769Y-15086717D01*
X5878769Y-15086717D02*
X5897817Y-15077194D01*
X5897817Y-15077194D02*
X5907340Y-15067670D01*
X5907340Y-15067670D02*
X5926388Y-15039098D01*
X5926388Y-15039098D02*
X5935912Y-15001003D01*
X5935912Y-15001003D02*
X5935912Y-14924813D01*
X5935912Y-14924813D02*
X5926388Y-14905765D01*
X5926388Y-14905765D02*
X5916864Y-14896241D01*
X5916864Y-14896241D02*
X5897817Y-14886717D01*
X5897817Y-14886717D02*
X5859721Y-14886717D01*
X5859721Y-14886717D02*
X5840674Y-14896241D01*
X5840674Y-14896241D02*
X5831150Y-14905765D01*
X5831150Y-14905765D02*
X5821626Y-14924813D01*
X5821626Y-14924813D02*
X5821626Y-14972432D01*
X5821626Y-14972432D02*
X5831150Y-14991479D01*
X5831150Y-14991479D02*
X5840674Y-15001003D01*
X5840674Y-15001003D02*
X5859721Y-15010527D01*
X5859721Y-15010527D02*
X5897817Y-15010527D01*
X5897817Y-15010527D02*
X5916864Y-15001003D01*
X5916864Y-15001003D02*
X5926388Y-14991479D01*
X5926388Y-14991479D02*
X5935912Y-14972432D01*
X6012102Y-14886717D02*
X6012102Y-14924813D01*
X6088293Y-14886717D02*
X6088293Y-14924813D01*
X6383531Y-15162908D02*
X6374007Y-15153384D01*
X6374007Y-15153384D02*
X6354959Y-15124813D01*
X6354959Y-15124813D02*
X6345436Y-15105765D01*
X6345436Y-15105765D02*
X6335912Y-15077194D01*
X6335912Y-15077194D02*
X6326388Y-15029574D01*
X6326388Y-15029574D02*
X6326388Y-14991479D01*
X6326388Y-14991479D02*
X6335912Y-14943860D01*
X6335912Y-14943860D02*
X6345436Y-14915289D01*
X6345436Y-14915289D02*
X6354959Y-14896241D01*
X6354959Y-14896241D02*
X6374007Y-14867670D01*
X6374007Y-14867670D02*
X6383531Y-14858146D01*
X6440674Y-14886717D02*
X6564483Y-14886717D01*
X6564483Y-14886717D02*
X6497817Y-14962908D01*
X6497817Y-14962908D02*
X6526388Y-14962908D01*
X6526388Y-14962908D02*
X6545436Y-14972432D01*
X6545436Y-14972432D02*
X6554959Y-14981955D01*
X6554959Y-14981955D02*
X6564483Y-15001003D01*
X6564483Y-15001003D02*
X6564483Y-15048622D01*
X6564483Y-15048622D02*
X6554959Y-15067670D01*
X6554959Y-15067670D02*
X6545436Y-15077194D01*
X6545436Y-15077194D02*
X6526388Y-15086717D01*
X6526388Y-15086717D02*
X6469245Y-15086717D01*
X6469245Y-15086717D02*
X6450198Y-15077194D01*
X6450198Y-15077194D02*
X6440674Y-15067670D01*
X6735912Y-14953384D02*
X6735912Y-15086717D01*
X6688293Y-14877194D02*
X6640674Y-15020051D01*
X6640674Y-15020051D02*
X6764483Y-15020051D01*
X6993055Y-15086717D02*
X6993055Y-14886717D01*
X7078769Y-15086717D02*
X7078769Y-14981955D01*
X7078769Y-14981955D02*
X7069245Y-14962908D01*
X7069245Y-14962908D02*
X7050198Y-14953384D01*
X7050198Y-14953384D02*
X7021626Y-14953384D01*
X7021626Y-14953384D02*
X7002579Y-14962908D01*
X7002579Y-14962908D02*
X6993055Y-14972432D01*
X7202579Y-15086717D02*
X7183531Y-15077194D01*
X7183531Y-15077194D02*
X7174007Y-15067670D01*
X7174007Y-15067670D02*
X7164483Y-15048622D01*
X7164483Y-15048622D02*
X7164483Y-14991479D01*
X7164483Y-14991479D02*
X7174007Y-14972432D01*
X7174007Y-14972432D02*
X7183531Y-14962908D01*
X7183531Y-14962908D02*
X7202579Y-14953384D01*
X7202579Y-14953384D02*
X7231150Y-14953384D01*
X7231150Y-14953384D02*
X7250198Y-14962908D01*
X7250198Y-14962908D02*
X7259721Y-14972432D01*
X7259721Y-14972432D02*
X7269245Y-14991479D01*
X7269245Y-14991479D02*
X7269245Y-15048622D01*
X7269245Y-15048622D02*
X7259721Y-15067670D01*
X7259721Y-15067670D02*
X7250198Y-15077194D01*
X7250198Y-15077194D02*
X7231150Y-15086717D01*
X7231150Y-15086717D02*
X7202579Y-15086717D01*
X7383531Y-15086717D02*
X7364483Y-15077194D01*
X7364483Y-15077194D02*
X7354960Y-15058146D01*
X7354960Y-15058146D02*
X7354960Y-14886717D01*
X7535912Y-15077194D02*
X7516864Y-15086717D01*
X7516864Y-15086717D02*
X7478769Y-15086717D01*
X7478769Y-15086717D02*
X7459721Y-15077194D01*
X7459721Y-15077194D02*
X7450198Y-15058146D01*
X7450198Y-15058146D02*
X7450198Y-14981955D01*
X7450198Y-14981955D02*
X7459721Y-14962908D01*
X7459721Y-14962908D02*
X7478769Y-14953384D01*
X7478769Y-14953384D02*
X7516864Y-14953384D01*
X7516864Y-14953384D02*
X7535912Y-14962908D01*
X7535912Y-14962908D02*
X7545436Y-14981955D01*
X7545436Y-14981955D02*
X7545436Y-15001003D01*
X7545436Y-15001003D02*
X7450198Y-15020051D01*
X7621626Y-15077194D02*
X7640674Y-15086717D01*
X7640674Y-15086717D02*
X7678769Y-15086717D01*
X7678769Y-15086717D02*
X7697817Y-15077194D01*
X7697817Y-15077194D02*
X7707341Y-15058146D01*
X7707341Y-15058146D02*
X7707341Y-15048622D01*
X7707341Y-15048622D02*
X7697817Y-15029574D01*
X7697817Y-15029574D02*
X7678769Y-15020051D01*
X7678769Y-15020051D02*
X7650198Y-15020051D01*
X7650198Y-15020051D02*
X7631150Y-15010527D01*
X7631150Y-15010527D02*
X7621626Y-14991479D01*
X7621626Y-14991479D02*
X7621626Y-14981955D01*
X7621626Y-14981955D02*
X7631150Y-14962908D01*
X7631150Y-14962908D02*
X7650198Y-14953384D01*
X7650198Y-14953384D02*
X7678769Y-14953384D01*
X7678769Y-14953384D02*
X7697817Y-14962908D01*
X7774007Y-15162908D02*
X7783531Y-15153384D01*
X7783531Y-15153384D02*
X7802579Y-15124813D01*
X7802579Y-15124813D02*
X7812102Y-15105765D01*
X7812102Y-15105765D02*
X7821626Y-15077194D01*
X7821626Y-15077194D02*
X7831150Y-15029574D01*
X7831150Y-15029574D02*
X7831150Y-14991479D01*
X7831150Y-14991479D02*
X7821626Y-14943860D01*
X7821626Y-14943860D02*
X7812102Y-14915289D01*
X7812102Y-14915289D02*
X7802579Y-14896241D01*
X7802579Y-14896241D02*
X7783531Y-14867670D01*
X7783531Y-14867670D02*
X7774007Y-14858146D01*
X8135912Y-15162908D02*
X8126388Y-15153384D01*
X8126388Y-15153384D02*
X8107341Y-15124813D01*
X8107341Y-15124813D02*
X8097817Y-15105765D01*
X8097817Y-15105765D02*
X8088293Y-15077194D01*
X8088293Y-15077194D02*
X8078769Y-15029574D01*
X8078769Y-15029574D02*
X8078769Y-14991479D01*
X8078769Y-14991479D02*
X8088293Y-14943860D01*
X8088293Y-14943860D02*
X8097817Y-14915289D01*
X8097817Y-14915289D02*
X8107341Y-14896241D01*
X8107341Y-14896241D02*
X8126388Y-14867670D01*
X8126388Y-14867670D02*
X8135912Y-14858146D01*
X8212102Y-14953384D02*
X8212102Y-15086717D01*
X8212102Y-14972432D02*
X8221626Y-14962908D01*
X8221626Y-14962908D02*
X8240674Y-14953384D01*
X8240674Y-14953384D02*
X8269245Y-14953384D01*
X8269245Y-14953384D02*
X8288293Y-14962908D01*
X8288293Y-14962908D02*
X8297817Y-14981955D01*
X8297817Y-14981955D02*
X8297817Y-15086717D01*
X8421626Y-15086717D02*
X8402579Y-15077194D01*
X8402579Y-15077194D02*
X8393055Y-15067670D01*
X8393055Y-15067670D02*
X8383531Y-15048622D01*
X8383531Y-15048622D02*
X8383531Y-14991479D01*
X8383531Y-14991479D02*
X8393055Y-14972432D01*
X8393055Y-14972432D02*
X8402579Y-14962908D01*
X8402579Y-14962908D02*
X8421626Y-14953384D01*
X8421626Y-14953384D02*
X8450198Y-14953384D01*
X8450198Y-14953384D02*
X8469245Y-14962908D01*
X8469245Y-14962908D02*
X8478769Y-14972432D01*
X8478769Y-14972432D02*
X8488293Y-14991479D01*
X8488293Y-14991479D02*
X8488293Y-15048622D01*
X8488293Y-15048622D02*
X8478769Y-15067670D01*
X8478769Y-15067670D02*
X8469245Y-15077194D01*
X8469245Y-15077194D02*
X8450198Y-15086717D01*
X8450198Y-15086717D02*
X8421626Y-15086717D01*
X8545436Y-14953384D02*
X8621626Y-14953384D01*
X8574007Y-14886717D02*
X8574007Y-15058146D01*
X8574007Y-15058146D02*
X8583531Y-15077194D01*
X8583531Y-15077194D02*
X8602579Y-15086717D01*
X8602579Y-15086717D02*
X8621626Y-15086717D01*
X8840674Y-14953384D02*
X8840674Y-15153384D01*
X8840674Y-14962908D02*
X8859722Y-14953384D01*
X8859722Y-14953384D02*
X8897817Y-14953384D01*
X8897817Y-14953384D02*
X8916865Y-14962908D01*
X8916865Y-14962908D02*
X8926388Y-14972432D01*
X8926388Y-14972432D02*
X8935912Y-14991479D01*
X8935912Y-14991479D02*
X8935912Y-15048622D01*
X8935912Y-15048622D02*
X8926388Y-15067670D01*
X8926388Y-15067670D02*
X8916865Y-15077194D01*
X8916865Y-15077194D02*
X8897817Y-15086717D01*
X8897817Y-15086717D02*
X8859722Y-15086717D01*
X8859722Y-15086717D02*
X8840674Y-15077194D01*
X9050198Y-15086717D02*
X9031150Y-15077194D01*
X9031150Y-15077194D02*
X9021626Y-15058146D01*
X9021626Y-15058146D02*
X9021626Y-14886717D01*
X9212103Y-15086717D02*
X9212103Y-14981955D01*
X9212103Y-14981955D02*
X9202579Y-14962908D01*
X9202579Y-14962908D02*
X9183531Y-14953384D01*
X9183531Y-14953384D02*
X9145436Y-14953384D01*
X9145436Y-14953384D02*
X9126388Y-14962908D01*
X9212103Y-15077194D02*
X9193055Y-15086717D01*
X9193055Y-15086717D02*
X9145436Y-15086717D01*
X9145436Y-15086717D02*
X9126388Y-15077194D01*
X9126388Y-15077194D02*
X9116865Y-15058146D01*
X9116865Y-15058146D02*
X9116865Y-15039098D01*
X9116865Y-15039098D02*
X9126388Y-15020051D01*
X9126388Y-15020051D02*
X9145436Y-15010527D01*
X9145436Y-15010527D02*
X9193055Y-15010527D01*
X9193055Y-15010527D02*
X9212103Y-15001003D01*
X9278769Y-14953384D02*
X9354960Y-14953384D01*
X9307341Y-14886717D02*
X9307341Y-15058146D01*
X9307341Y-15058146D02*
X9316865Y-15077194D01*
X9316865Y-15077194D02*
X9335912Y-15086717D01*
X9335912Y-15086717D02*
X9354960Y-15086717D01*
X9497817Y-15077194D02*
X9478769Y-15086717D01*
X9478769Y-15086717D02*
X9440674Y-15086717D01*
X9440674Y-15086717D02*
X9421626Y-15077194D01*
X9421626Y-15077194D02*
X9412103Y-15058146D01*
X9412103Y-15058146D02*
X9412103Y-14981955D01*
X9412103Y-14981955D02*
X9421626Y-14962908D01*
X9421626Y-14962908D02*
X9440674Y-14953384D01*
X9440674Y-14953384D02*
X9478769Y-14953384D01*
X9478769Y-14953384D02*
X9497817Y-14962908D01*
X9497817Y-14962908D02*
X9507341Y-14981955D01*
X9507341Y-14981955D02*
X9507341Y-15001003D01*
X9507341Y-15001003D02*
X9412103Y-15020051D01*
X9678769Y-15086717D02*
X9678769Y-14886717D01*
X9678769Y-15077194D02*
X9659722Y-15086717D01*
X9659722Y-15086717D02*
X9621626Y-15086717D01*
X9621626Y-15086717D02*
X9602579Y-15077194D01*
X9602579Y-15077194D02*
X9593055Y-15067670D01*
X9593055Y-15067670D02*
X9583531Y-15048622D01*
X9583531Y-15048622D02*
X9583531Y-14991479D01*
X9583531Y-14991479D02*
X9593055Y-14972432D01*
X9593055Y-14972432D02*
X9602579Y-14962908D01*
X9602579Y-14962908D02*
X9621626Y-14953384D01*
X9621626Y-14953384D02*
X9659722Y-14953384D01*
X9659722Y-14953384D02*
X9678769Y-14962908D01*
X9754960Y-15162908D02*
X9764484Y-15153384D01*
X9764484Y-15153384D02*
X9783531Y-15124813D01*
X9783531Y-15124813D02*
X9793055Y-15105765D01*
X9793055Y-15105765D02*
X9802579Y-15077194D01*
X9802579Y-15077194D02*
X9812103Y-15029574D01*
X9812103Y-15029574D02*
X9812103Y-14991479D01*
X9812103Y-14991479D02*
X9802579Y-14943860D01*
X9802579Y-14943860D02*
X9793055Y-14915289D01*
X9793055Y-14915289D02*
X9783531Y-14896241D01*
X9783531Y-14896241D02*
X9764484Y-14867670D01*
X9764484Y-14867670D02*
X9754960Y-14858146D01*
M02*
