%TF.GenerationSoftware,KiCad,Pcbnew,9.0.0*%
%TF.CreationDate,2025-11-03T18:10:33-06:00*%
%TF.ProjectId,Mau Keys,4d617520-4b65-4797-932e-6b696361645f,rev?*%
%TF.SameCoordinates,Original*%
%TF.FileFunction,Soldermask,Bot*%
%TF.FilePolarity,Negative*%
%FSLAX46Y46*%
G04 Gerber Fmt 4.6, Leading zero omitted, Abs format (unit mm)*
G04 Created by KiCad (PCBNEW 9.0.0) date 2025-11-03 18:10:33*
%MOMM*%
%LPD*%
G01*
G04 APERTURE LIST*
G04 Aperture macros list*
%AMHorizOval*
0 Thick line with rounded ends*
0 $1 width*
0 $2 $3 position (X,Y) of the first rounded end (center of the circle)*
0 $4 $5 position (X,Y) of the second rounded end (center of the circle)*
0 Add line between two ends*
20,1,$1,$2,$3,$4,$5,0*
0 Add two circle primitives to create the rounded ends*
1,1,$1,$2,$3*
1,1,$1,$4,$5*%
G04 Aperture macros list end*
%ADD10C,3.800000*%
%ADD11C,1.752600*%
%ADD12O,2.200000X1.600000*%
%ADD13O,2.200000X1.500000*%
%ADD14HorizOval,1.600000X0.298858X0.026147X-0.298858X-0.026147X0*%
%ADD15HorizOval,1.500000X0.348668X0.030505X-0.348668X-0.030505X0*%
%ADD16HorizOval,1.600000X0.296627X0.044861X-0.296627X-0.044861X0*%
%ADD17HorizOval,1.500000X0.346065X0.052337X-0.346065X-0.052337X0*%
%ADD18HorizOval,1.600000X0.298858X-0.026147X-0.298858X0.026147X0*%
%ADD19HorizOval,1.500000X0.348668X-0.030505X-0.348668X0.030505X0*%
%ADD20HorizOval,1.600000X0.296627X-0.044861X-0.296627X0.044861X0*%
%ADD21HorizOval,1.500000X0.346065X-0.052337X-0.346065X0.052337X0*%
%ADD22HorizOval,1.600000X0.296307X-0.046930X-0.296307X0.046930X0*%
%ADD23HorizOval,1.500000X0.345691X-0.054752X-0.345691X0.054752X0*%
%ADD24HorizOval,1.600000X0.296307X0.046930X-0.296307X-0.046930X0*%
%ADD25HorizOval,1.500000X0.345691X0.054752X-0.345691X-0.054752X0*%
%ADD26C,1.000000*%
G04 APERTURE END LIST*
D10*
%TO.C,REF\u002A\u002A*%
X168910000Y-110490000D03*
%TD*%
%TO.C,REF\u002A\u002A*%
X139700000Y-73660000D03*
%TD*%
%TO.C,REF\u002A\u002A*%
X107442000Y-70612000D03*
%TD*%
%TO.C,REF\u002A\u002A*%
X82042000Y-60706000D03*
%TD*%
%TO.C,REF\u002A\u002A*%
X92202000Y-93726000D03*
%TD*%
%TO.C,REF\u002A\u002A*%
X108712000Y-109728000D03*
%TD*%
%TO.C,REF\u002A\u002A*%
X96520000Y-125730000D03*
%TD*%
%TO.C,REF\u002A\u002A*%
X131826000Y-133350000D03*
%TD*%
%TO.C,REF\u002A\u002A*%
X135890000Y-110490000D03*
%TD*%
%TO.C,REF\u002A\u002A*%
X70612000Y-95758000D03*
%TD*%
%TO.C,REF\u002A\u002A*%
X66040000Y-123190000D03*
%TD*%
%TO.C,REF\u002A\u002A*%
X43180000Y-113030000D03*
%TD*%
%TO.C,REF\u002A\u002A*%
X39370000Y-93980000D03*
%TD*%
%TO.C,REF\u002A\u002A*%
X52070000Y-78486000D03*
%TD*%
%TO.C,REF\u002A\u002A*%
X194310000Y-108712000D03*
%TD*%
%TO.C,REF\u002A\u002A*%
X194310000Y-69342000D03*
%TD*%
%TO.C,REF\u002A\u002A*%
X212598000Y-93726000D03*
%TD*%
%TO.C,REF\u002A\u002A*%
X222758000Y-60706000D03*
%TD*%
%TO.C,REF\u002A\u002A*%
X234188000Y-95758000D03*
%TD*%
%TO.C,REF\u002A\u002A*%
X252730000Y-78486000D03*
%TD*%
%TO.C,REF\u002A\u002A*%
X266700000Y-93472000D03*
%TD*%
%TO.C,REF\u002A\u002A*%
X262890000Y-111506000D03*
%TD*%
%TO.C,REF\u002A\u002A*%
X238760000Y-123190000D03*
%TD*%
%TO.C,REF\u002A\u002A*%
X208280000Y-125730000D03*
%TD*%
%TO.C,REF\u002A\u002A*%
X178562000Y-132842000D03*
%TD*%
%TO.C,REF\u002A\u002A*%
X165100000Y-73660000D03*
%TD*%
D11*
%TO.C,NNV2*%
X132080000Y-66040000D03*
X132080000Y-68580000D03*
X132080000Y-71120000D03*
X132080000Y-73660000D03*
X132080000Y-76200000D03*
X132080000Y-78740000D03*
X132080000Y-81280000D03*
X132080000Y-83820000D03*
X132080000Y-86360000D03*
X132080000Y-88900000D03*
X132080000Y-91440000D03*
X132080000Y-93980000D03*
X132080000Y-96520000D03*
X147320000Y-66040000D03*
X147320000Y-68580000D03*
X147320000Y-71120000D03*
X147320000Y-73660000D03*
X147320000Y-76200000D03*
X147320000Y-78740000D03*
X147320000Y-81280000D03*
X147320000Y-83820000D03*
X147320000Y-86360000D03*
X147320000Y-88900000D03*
X147320000Y-91440000D03*
X147320000Y-93980000D03*
X147320000Y-96520000D03*
X134620000Y-91440000D03*
X137160000Y-91440000D03*
X139700000Y-91440000D03*
%TD*%
%TO.C,NNV2_R1*%
X157480000Y-66040000D03*
X157480000Y-68580000D03*
X157480000Y-71120000D03*
X157480000Y-73660000D03*
X157480000Y-76200000D03*
X157480000Y-78740000D03*
X157480000Y-81280000D03*
X157480000Y-83820000D03*
X157480000Y-86360000D03*
X157480000Y-88900000D03*
X157480000Y-91440000D03*
X157480000Y-93980000D03*
X157480000Y-96520000D03*
X172720000Y-66040000D03*
X172720000Y-68580000D03*
X172720000Y-71120000D03*
X172720000Y-73660000D03*
X172720000Y-76200000D03*
X172720000Y-78740000D03*
X172720000Y-81280000D03*
X172720000Y-83820000D03*
X172720000Y-86360000D03*
X172720000Y-88900000D03*
X172720000Y-91440000D03*
X172720000Y-93980000D03*
X172720000Y-96520000D03*
X160020000Y-91440000D03*
X162560000Y-91440000D03*
X165100000Y-91440000D03*
%TD*%
D12*
%TO.C,SwitchR_2*%
X203720000Y-57240000D03*
D13*
X198720000Y-59240000D03*
%TD*%
D14*
%TO.C,Switch2*%
X59762579Y-61406672D03*
D15*
X54955917Y-63834840D03*
%TD*%
D16*
%TO.C,Switch11*%
X46235809Y-116301724D03*
D17*
X41591098Y-119026913D03*
%TD*%
D18*
%TO.C,SwitchR_9*%
X243381462Y-80334371D03*
D19*
X238226177Y-81890981D03*
%TD*%
D12*
%TO.C,SwitchR_6*%
X184720000Y-79240000D03*
D13*
X179720000Y-81240000D03*
%TD*%
D16*
%TO.C,Switch6*%
X43394637Y-97515353D03*
D17*
X38749926Y-100240542D03*
%TD*%
D14*
%TO.C,Switch12*%
X63074497Y-99262070D03*
D15*
X58267835Y-101690238D03*
%TD*%
D12*
%TO.C,Switch13*%
X82080000Y-85240000D03*
D13*
X77080000Y-87240000D03*
%TD*%
D12*
%TO.C,SwitchR_7*%
X203720000Y-76240000D03*
D13*
X198720000Y-78240000D03*
%TD*%
D12*
%TO.C,Switch8*%
X82080000Y-66240000D03*
D13*
X77080000Y-68240000D03*
%TD*%
D20*
%TO.C,SwitchR_5*%
X264246535Y-78728982D03*
D21*
X259003682Y-79958818D03*
%TD*%
D12*
%TO.C,Switch15*%
X120080000Y-98240000D03*
D13*
X115080000Y-100240000D03*
%TD*%
D12*
%TO.C,Switch5*%
X120080000Y-60240000D03*
D13*
X115080000Y-62240000D03*
%TD*%
D12*
%TO.C,SwitchR_8*%
X222720000Y-66240000D03*
D13*
X217720000Y-68240000D03*
%TD*%
D12*
%TO.C,Switch14*%
X101080000Y-95240000D03*
D13*
X96080000Y-97240000D03*
%TD*%
D12*
%TO.C,Switch10*%
X120080000Y-79240000D03*
D13*
X115080000Y-81240000D03*
%TD*%
D16*
%TO.C,Switch1*%
X40553465Y-78728982D03*
D17*
X35908754Y-81454171D03*
%TD*%
D14*
%TO.C,Switch7*%
X61418538Y-80334371D03*
D15*
X56611876Y-82762539D03*
%TD*%
D22*
%TO.C,Switch17*%
X127753398Y-121283663D03*
D23*
X122502087Y-122476867D03*
%TD*%
D20*
%TO.C,SwitchR_10*%
X261405363Y-97515353D03*
D21*
X256162510Y-98745189D03*
%TD*%
D12*
%TO.C,SwitchR_12*%
X203720000Y-95240000D03*
D13*
X198720000Y-97240000D03*
%TD*%
D22*
%TO.C,Switch16*%
X108987320Y-118311408D03*
D23*
X103736009Y-119504612D03*
%TD*%
D12*
%TO.C,SwitchR_3*%
X222720000Y-47240000D03*
D13*
X217720000Y-49240000D03*
%TD*%
D24*
%TO.C,SwitchR_17*%
X195812680Y-118311408D03*
D25*
X191187107Y-121068957D03*
%TD*%
D12*
%TO.C,Switch3*%
X82080000Y-47240000D03*
D13*
X77080000Y-49240000D03*
%TD*%
D18*
%TO.C,SwitchR_14*%
X241725503Y-99262070D03*
D19*
X236570218Y-100818680D03*
%TD*%
D12*
%TO.C,SwitchR_11*%
X184720000Y-98240000D03*
D13*
X179720000Y-100240000D03*
%TD*%
D12*
%TO.C,Switch9*%
X101080000Y-76240000D03*
D13*
X96080000Y-78240000D03*
%TD*%
D24*
%TO.C,SwitchR_16*%
X177046602Y-121283663D03*
D25*
X172421029Y-124041212D03*
%TD*%
D12*
%TO.C,SwitchR_1*%
X184720000Y-60240000D03*
D13*
X179720000Y-62240000D03*
%TD*%
D20*
%TO.C,SwitchR_15*%
X258564191Y-116301724D03*
D21*
X253321338Y-117531560D03*
%TD*%
D12*
%TO.C,SwitchR_13*%
X222720000Y-85240000D03*
D13*
X217720000Y-87240000D03*
%TD*%
D18*
%TO.C,SwitchR_4*%
X245037421Y-61406672D03*
D19*
X239882136Y-62963282D03*
%TD*%
D26*
%TO.C,SW_POWER2*%
X163605000Y-66045000D03*
X166605000Y-66045000D03*
%TD*%
D12*
%TO.C,Switch4*%
X101080000Y-57240000D03*
D13*
X96080000Y-59240000D03*
%TD*%
D26*
%TO.C,SW_POWER1*%
X138200000Y-66040000D03*
X141200000Y-66040000D03*
%TD*%
M02*
