M48
; DRILL file {KiCad 9.0.0} date 2025-11-03T18:10:29-0600
; FORMAT={-:-/ absolute / metric / decimal}
; #@! TF.CreationDate,2025-11-03T18:10:29-06:00
; #@! TF.GenerationSoftware,Kicad,Pcbnew,9.0.0
; #@! TF.FileFunction,NonPlated,1,2,NPTH
FMAT,2
METRIC
; #@! TA.AperFunction,NonPlated,NPTH,ComponentDrill
T1C0.900
; #@! TA.AperFunction,NonPlated,NPTH,ComponentDrill
T2C1.850
; #@! TA.AperFunction,NonPlated,NPTH,ComponentDrill
T3C4.900
%
G90
G05
T1
X138.2Y-66.04
X141.2Y-66.04
X163.605Y-66.045
X166.605Y-66.045
T2
X37.51Y-88.696
X40.351Y-107.483
X43.192Y-126.269
X45.332Y-80.231
X48.173Y-99.018
X51.014Y-117.804
X56.099Y-71.163
X57.755Y-90.091
X59.411Y-109.019
X64.437Y-63.206
X66.093Y-82.134
X67.749Y-101.061
X77.58Y-56.64
X77.58Y-75.64
X77.58Y-94.64
X86.58Y-49.44
X86.58Y-68.44
X86.58Y-87.44
X96.58Y-66.64
X96.58Y-85.64
X96.58Y-104.64
X103.072Y-126.892
X105.58Y-59.44
X105.58Y-78.44
X105.58Y-97.44
X113.088Y-121.188
X115.58Y-69.64
X115.58Y-88.64
X115.58Y-107.64
X121.838Y-129.864
X124.58Y-62.44
X124.58Y-81.44
X124.58Y-100.44
X131.854Y-124.161
X174.072Y-131.272
X180.22Y-69.64
X180.22Y-88.64
X180.22Y-107.64
X181.835Y-122.753
X189.22Y-62.44
X189.22Y-81.44
X189.22Y-100.44
X192.839Y-128.3
X199.22Y-66.64
X199.22Y-85.64
X199.22Y-104.64
X200.601Y-119.78
X208.22Y-59.44
X208.22Y-78.44
X208.22Y-97.44
X218.22Y-56.64
X218.22Y-75.64
X218.22Y-94.64
X227.22Y-49.44
X227.22Y-68.44
X227.22Y-87.44
X236.423Y-108.234
X238.079Y-89.306
X239.735Y-70.379
X246.017Y-101.846
X247.673Y-82.918
X249.329Y-63.991
X252.709Y-124.923
X255.55Y-106.137
X258.391Y-87.35
X262.685Y-119.15
X265.526Y-100.364
X268.367Y-81.577
T3
X41.421Y-84.464
X44.262Y-103.25
X47.103Y-122.037
X60.268Y-67.185
X61.924Y-86.112
X63.58Y-105.04
X82.08Y-53.04
X82.08Y-72.04
X82.08Y-91.04
X101.08Y-63.04
X101.08Y-82.04
X101.08Y-101.04
X108.08Y-124.04
X120.08Y-66.04
X120.08Y-85.04
X120.08Y-104.04
X126.846Y-127.012
X177.954Y-127.012
X184.72Y-66.04
X184.72Y-85.04
X184.72Y-104.04
X196.72Y-124.04
X203.72Y-63.04
X203.72Y-82.04
X203.72Y-101.04
X222.72Y-53.04
X222.72Y-72.04
X222.72Y-91.04
X241.22Y-105.04
X242.876Y-86.112
X244.532Y-67.185
X257.697Y-122.037
X260.538Y-103.25
X263.379Y-84.464
M30
