%TF.GenerationSoftware,KiCad,Pcbnew,9.0.0*%
%TF.CreationDate,2025-11-03T03:19:47-06:00*%
%TF.ProjectId,Mau Keys,4d617520-4b65-4797-932e-6b696361645f,rev?*%
%TF.SameCoordinates,Original*%
%TF.FileFunction,Drillmap*%
%TF.FilePolarity,Positive*%
%FSLAX45Y45*%
G04 Gerber Fmt 4.5, Leading zero omitted, Abs format (unit mm)*
G04 Created by KiCad (PCBNEW 9.0.0) date 2025-11-03 03:19:47*
%MOMM*%
%LPD*%
G01*
G04 APERTURE LIST*
%ADD10C,0.250000*%
%ADD11C,0.050000*%
%ADD12C,0.200000*%
%ADD13C,0.100000*%
%ADD14C,0.109220*%
G04 APERTURE END LIST*
D10*
X9404000Y-5354000D02*
G75*
G02*
X8904000Y-4854000I0J500000D01*
G01*
X13380272Y-12778113D02*
G75*
G02*
X14100091Y-11255474I2963057J-469304D01*
G01*
X4752341Y-5954493D02*
G75*
G02*
X4843245Y-5846159I99609J8723D01*
G01*
X2822083Y-7747337D02*
X3641317Y-13186900D01*
X12480608Y-12701225D02*
G75*
G02*
X12380608Y-12701225I-50000J0D01*
G01*
X12380608Y-12701225D02*
G75*
G02*
X12480608Y-12701225I50000J0D01*
G01*
X13235943Y-13689372D02*
X13380272Y-12778113D01*
X10904000Y-5654000D02*
G75*
G02*
X10804000Y-5554000I0J100000D01*
G01*
X9904000Y-6304000D02*
G75*
G02*
X9804000Y-6304000I-50000J0D01*
G01*
X9804000Y-6304000D02*
G75*
G02*
X9904000Y-6304000I50000J0D01*
G01*
X13204000Y-6304000D02*
G75*
G02*
X12704000Y-5804000I0J500000D01*
G01*
X11804000Y-8504000D02*
G75*
G02*
X11704000Y-8504000I-50000J0D01*
G01*
X11704000Y-8504000D02*
G75*
G02*
X11804000Y-8504000I50000J0D01*
G01*
X7004000Y-5198951D02*
G75*
G02*
X6547578Y-5697047I-500000J1D01*
G01*
X10604000Y-12404000D02*
G75*
G02*
X10504000Y-12404000I-50000J0D01*
G01*
X10504000Y-12404000D02*
G75*
G02*
X10604000Y-12404000I50000J0D01*
G01*
X8804000Y-4354000D02*
G75*
G02*
X8904000Y-4454000I0J-100000D01*
G01*
X4221039Y-10325189D02*
G75*
G02*
X4121038Y-10325189I-50000J0D01*
G01*
X4121038Y-10325189D02*
G75*
G02*
X4221039Y-10325189I50000J0D01*
G01*
X6154000Y-10504000D02*
G75*
G02*
X6054000Y-10504000I-50000J0D01*
G01*
X6054000Y-10504000D02*
G75*
G02*
X6154000Y-10504000I50000J0D01*
G01*
X4832371Y-6869246D02*
X4752341Y-5954493D01*
X12704000Y-5754000D02*
X12704000Y-5804000D01*
X11804000Y-10404000D02*
G75*
G02*
X11704000Y-10404000I-50000J0D01*
G01*
X11704000Y-10404000D02*
G75*
G02*
X11804000Y-10404000I50000J0D01*
G01*
X13204000Y-6304000D02*
X14932000Y-6304000D01*
X10804000Y-5454000D02*
X10804000Y-5554000D01*
X8904000Y-4454000D02*
X8904000Y-4854000D01*
X3938077Y-8446377D02*
G75*
G02*
X3838077Y-8446377I-50000J0D01*
G01*
X3838077Y-8446377D02*
G75*
G02*
X3938077Y-8446377I50000J0D01*
G01*
X9404000Y-5354000D02*
X10704000Y-5354000D01*
X13235943Y-13689372D02*
G75*
G02*
X13121529Y-13772503I-98773J15643D01*
G01*
X8455767Y-13033514D02*
X13121530Y-13772499D01*
X4504000Y-12204000D02*
G75*
G02*
X4404000Y-12204000I-50000J0D01*
G01*
X4404000Y-12204000D02*
G75*
G02*
X4504000Y-12204000I50000J0D01*
G01*
X8004000Y-5304000D02*
G75*
G02*
X7904000Y-5304000I-50000J0D01*
G01*
X7904000Y-5304000D02*
G75*
G02*
X8004000Y-5304000I50000J0D01*
G01*
X2822083Y-7747337D02*
X2822083Y-7747337D01*
X14778854Y-10491082D02*
X14100091Y-11255474D01*
X4408738Y-7407248D02*
X4408738Y-7407248D01*
X10904000Y-5654000D02*
X12604000Y-5654000D01*
X8004000Y-9104000D02*
G75*
G02*
X7904000Y-9104000I-50000J0D01*
G01*
X7904000Y-9104000D02*
G75*
G02*
X8004000Y-9104000I50000J0D01*
G01*
X9904000Y-8204000D02*
G75*
G02*
X9804000Y-8204000I-50000J0D01*
G01*
X9804000Y-8204000D02*
G75*
G02*
X9904000Y-8204000I50000J0D01*
G01*
X2906075Y-7633559D02*
X4408738Y-7407248D01*
X5402149Y-13021916D02*
G75*
G02*
X8455767Y-13033515I1489271J-9888504D01*
G01*
X4843245Y-5846158D02*
X6547578Y-5697048D01*
X5988404Y-8611230D02*
G75*
G02*
X5888404Y-8611230I-50000J0D01*
G01*
X5888404Y-8611230D02*
G75*
G02*
X5988404Y-8611230I50000J0D01*
G01*
X8004000Y-7204000D02*
G75*
G02*
X7904000Y-7204000I-50000J0D01*
G01*
X7904000Y-7204000D02*
G75*
G02*
X8004000Y-7204000I50000J0D01*
G01*
X10704000Y-5354000D02*
G75*
G02*
X10804000Y-5454000I0J-100000D01*
G01*
X7004000Y-5198951D02*
X7004000Y-4454000D01*
X3754964Y-13269993D02*
G75*
G02*
X3641317Y-13186900I-14894J98893D01*
G01*
X2906075Y-7633559D02*
X2906075Y-7633559D01*
X14932000Y-6304000D02*
G75*
G02*
X15032000Y-6404000I0J-100000D01*
G01*
X11804000Y-6604000D02*
G75*
G02*
X11704000Y-6604000I-50000J0D01*
G01*
X11704000Y-6604000D02*
G75*
G02*
X11804000Y-6604000I50000J0D01*
G01*
X12604000Y-5654000D02*
G75*
G02*
X12704000Y-5754000I0J-100000D01*
G01*
X7104000Y-4354000D02*
X8804000Y-4354000D01*
X15032000Y-9826090D02*
G75*
G02*
X14778853Y-10491081I-1000030J10D01*
G01*
X4832371Y-6869246D02*
G75*
G02*
X4408738Y-7407248I-498094J-43580D01*
G01*
X2822083Y-7747337D02*
G75*
G02*
X2906075Y-7633560I98884J14893D01*
G01*
X9904000Y-10104000D02*
G75*
G02*
X9804000Y-10104000I-50000J0D01*
G01*
X9804000Y-10104000D02*
G75*
G02*
X9904000Y-10104000I50000J0D01*
G01*
X3754964Y-13269993D02*
X5402149Y-13021916D01*
X7004000Y-4454000D02*
G75*
G02*
X7104000Y-4354000I100010J-10D01*
G01*
X5822808Y-6718460D02*
G75*
G02*
X5722808Y-6718460I-50000J0D01*
G01*
X5722808Y-6718460D02*
G75*
G02*
X5822808Y-6718460I50000J0D01*
G01*
X15032000Y-6404000D02*
X15032000Y-9826090D01*
X15447146Y-10491082D02*
G75*
G02*
X15194001Y-9826090I746894J665002D01*
G01*
X21770233Y-13033514D02*
X17104470Y-13772499D01*
X20822000Y-5354000D02*
X19522000Y-5354000D01*
X27319925Y-7633559D02*
G75*
G02*
X27403913Y-7747336I-14905J-98891D01*
G01*
X17522000Y-5754000D02*
G75*
G02*
X17622000Y-5654000I100000J0D01*
G01*
X27403917Y-7747337D02*
X27403917Y-7747337D01*
X26104961Y-10325189D02*
G75*
G02*
X26004961Y-10325189I-50000J0D01*
G01*
X26004961Y-10325189D02*
G75*
G02*
X26104961Y-10325189I50000J0D01*
G01*
X23678422Y-5697048D02*
G75*
G02*
X23222000Y-5198951I43578J498098D01*
G01*
X23122000Y-4354000D02*
G75*
G02*
X23222000Y-4454000I0J-100000D01*
G01*
X21322000Y-4454000D02*
G75*
G02*
X21422000Y-4354000I100000J0D01*
G01*
X27403917Y-7747337D02*
X26584682Y-13186900D01*
X22322000Y-9104000D02*
G75*
G02*
X22222000Y-9104000I-50000J0D01*
G01*
X22222000Y-9104000D02*
G75*
G02*
X22322000Y-9104000I50000J0D01*
G01*
X25822000Y-12204000D02*
G75*
G02*
X25722000Y-12204000I-50000J0D01*
G01*
X25722000Y-12204000D02*
G75*
G02*
X25822000Y-12204000I50000J0D01*
G01*
X16125909Y-11255474D02*
G75*
G02*
X16845727Y-12778114I-2243229J-1991936D01*
G01*
X24172000Y-10504000D02*
G75*
G02*
X24072000Y-10504000I-50000J0D01*
G01*
X24072000Y-10504000D02*
G75*
G02*
X24172000Y-10504000I50000J0D01*
G01*
X23222000Y-5198951D02*
X23222000Y-4454000D01*
X19422000Y-5554000D02*
G75*
G02*
X19322000Y-5654000I-100000J0D01*
G01*
X18522000Y-10404000D02*
G75*
G02*
X18422000Y-10404000I-50000J0D01*
G01*
X18422000Y-10404000D02*
G75*
G02*
X18522000Y-10404000I50000J0D01*
G01*
X24503192Y-6718460D02*
G75*
G02*
X24403192Y-6718460I-50000J0D01*
G01*
X24403192Y-6718460D02*
G75*
G02*
X24503192Y-6718460I50000J0D01*
G01*
X20422000Y-8204000D02*
G75*
G02*
X20322000Y-8204000I-50000J0D01*
G01*
X20322000Y-8204000D02*
G75*
G02*
X20422000Y-8204000I50000J0D01*
G01*
X17022000Y-6304000D02*
X15294000Y-6304000D01*
X27319925Y-7633559D02*
X25817262Y-7407248D01*
X15194000Y-6404000D02*
X15194000Y-9826090D01*
X18522000Y-8504000D02*
G75*
G02*
X18422000Y-8504000I-50000J0D01*
G01*
X18422000Y-8504000D02*
G75*
G02*
X18522000Y-8504000I50000J0D01*
G01*
X19322000Y-5654000D02*
X17622000Y-5654000D01*
X20422000Y-6304000D02*
G75*
G02*
X20322000Y-6304000I-50000J0D01*
G01*
X20322000Y-6304000D02*
G75*
G02*
X20422000Y-6304000I50000J0D01*
G01*
X21770233Y-13033514D02*
G75*
G02*
X24823851Y-13021916I1564347J-9876886D01*
G01*
X22322000Y-5304000D02*
G75*
G02*
X22222000Y-5304000I-50000J0D01*
G01*
X22222000Y-5304000D02*
G75*
G02*
X22322000Y-5304000I50000J0D01*
G01*
X17845392Y-12701225D02*
G75*
G02*
X17745392Y-12701225I-50000J0D01*
G01*
X17745392Y-12701225D02*
G75*
G02*
X17845392Y-12701225I50000J0D01*
G01*
X21322000Y-4854000D02*
G75*
G02*
X20822000Y-5354000I-500000J0D01*
G01*
X15194000Y-6404000D02*
G75*
G02*
X15294000Y-6304000I100000J0D01*
G01*
X25817262Y-7407248D02*
X25817262Y-7407248D01*
X26471036Y-13269993D02*
X24823851Y-13021916D01*
X26584682Y-13186900D02*
G75*
G02*
X26471037Y-13269988I-98763J15820D01*
G01*
X19722000Y-12404000D02*
G75*
G02*
X19622000Y-12404000I-50000J0D01*
G01*
X19622000Y-12404000D02*
G75*
G02*
X19722000Y-12404000I50000J0D01*
G01*
X17522000Y-5804000D02*
G75*
G02*
X17022000Y-6304000I-500000J0D01*
G01*
X23122000Y-4354000D02*
X21422000Y-4354000D01*
X16990057Y-13689372D02*
X16845728Y-12778113D01*
X21322000Y-4454000D02*
X21322000Y-4854000D01*
X27319925Y-7633559D02*
X27319925Y-7633559D01*
X24337596Y-8611230D02*
G75*
G02*
X24237596Y-8611230I-50000J0D01*
G01*
X24237596Y-8611230D02*
G75*
G02*
X24337596Y-8611230I50000J0D01*
G01*
X26387923Y-8446377D02*
G75*
G02*
X26287923Y-8446377I-50000J0D01*
G01*
X26287923Y-8446377D02*
G75*
G02*
X26387923Y-8446377I50000J0D01*
G01*
X19422000Y-5454000D02*
X19422000Y-5554000D01*
X19422000Y-5454000D02*
G75*
G02*
X19522000Y-5354000I100000J0D01*
G01*
X25382755Y-5846158D02*
G75*
G02*
X25473652Y-5954492I-8715J-99612D01*
G01*
X17104470Y-13772499D02*
G75*
G02*
X16990059Y-13689372I-15650J98759D01*
G01*
X18522000Y-6604000D02*
G75*
G02*
X18422000Y-6604000I-50000J0D01*
G01*
X18422000Y-6604000D02*
G75*
G02*
X18522000Y-6604000I50000J0D01*
G01*
X15447146Y-10491082D02*
X16125909Y-11255474D01*
X25382755Y-5846158D02*
X23678422Y-5697048D01*
X20422000Y-10104000D02*
G75*
G02*
X20322000Y-10104000I-50000J0D01*
G01*
X20322000Y-10104000D02*
G75*
G02*
X20422000Y-10104000I50000J0D01*
G01*
X25817262Y-7407248D02*
G75*
G02*
X25393628Y-6869246I74468J494428D01*
G01*
X25393629Y-6869246D02*
X25473659Y-5954493D01*
X17522000Y-5754000D02*
X17522000Y-5804000D01*
X22322000Y-7204000D02*
G75*
G02*
X22222000Y-7204000I-50000J0D01*
G01*
X22222000Y-7204000D02*
G75*
G02*
X22322000Y-7204000I50000J0D01*
G01*
D11*
X17942000Y-8604000D02*
X17942000Y-8404000D01*
X18952000Y-8354000D02*
X17992000Y-8354000D01*
X18952000Y-8654000D02*
X17992000Y-8654000D01*
X19002000Y-8404000D02*
X19002000Y-8604000D01*
X17942000Y-8404000D02*
G75*
G02*
X17992000Y-8354000I50000J0D01*
G01*
X17992000Y-8654000D02*
G75*
G02*
X17942000Y-8604000I0J50000D01*
G01*
X18952000Y-8354000D02*
G75*
G02*
X19002000Y-8404000I0J-50000D01*
G01*
X19002000Y-8604000D02*
G75*
G02*
X18952000Y-8654000I-50000J0D01*
G01*
X19842000Y-10204000D02*
X19842000Y-10004000D01*
X20852000Y-9954000D02*
X19892000Y-9954000D01*
X20852000Y-10254000D02*
X19892000Y-10254000D01*
X20902000Y-10004000D02*
X20902000Y-10204000D01*
X19842000Y-10004000D02*
G75*
G02*
X19892000Y-9954000I50000J0D01*
G01*
X19892000Y-10254000D02*
G75*
G02*
X19842000Y-10204000I0J50000D01*
G01*
X20852000Y-9954000D02*
G75*
G02*
X20902000Y-10004000I0J-50000D01*
G01*
X20902000Y-10204000D02*
G75*
G02*
X20852000Y-10254000I-50000J0D01*
G01*
X9324000Y-10204000D02*
X9324000Y-10004000D01*
X10334000Y-9954000D02*
X9374000Y-9954000D01*
X10334000Y-10254000D02*
X9374000Y-10254000D01*
X10384000Y-10004000D02*
X10384000Y-10204000D01*
X9324000Y-10004000D02*
G75*
G02*
X9374000Y-9954000I50000J0D01*
G01*
X9374000Y-10254000D02*
G75*
G02*
X9324000Y-10204000I0J50000D01*
G01*
X10334000Y-9954000D02*
G75*
G02*
X10384000Y-10004000I0J-50000D01*
G01*
X10384000Y-10204000D02*
G75*
G02*
X10334000Y-10254000I-50000J0D01*
G01*
X9324000Y-6404000D02*
X9324000Y-6204000D01*
X10334000Y-6154000D02*
X9374000Y-6154000D01*
X10334000Y-6454000D02*
X9374000Y-6454000D01*
X10384000Y-6204000D02*
X10384000Y-6404000D01*
X9324000Y-6204000D02*
G75*
G02*
X9374000Y-6154000I50000J0D01*
G01*
X9374000Y-6454000D02*
G75*
G02*
X9324000Y-6404000I0J50000D01*
G01*
X10334000Y-6154000D02*
G75*
G02*
X10384000Y-6204000I0J-50000D01*
G01*
X10384000Y-6404000D02*
G75*
G02*
X10334000Y-6454000I-50000J0D01*
G01*
X11224000Y-6704000D02*
X11224000Y-6504000D01*
X12234000Y-6454000D02*
X11274000Y-6454000D01*
X12234000Y-6754000D02*
X11274000Y-6754000D01*
X12284000Y-6504000D02*
X12284000Y-6704000D01*
X11224000Y-6504000D02*
G75*
G02*
X11274000Y-6454000I50000J0D01*
G01*
X11274000Y-6754000D02*
G75*
G02*
X11224000Y-6704000I0J50000D01*
G01*
X12234000Y-6454000D02*
G75*
G02*
X12284000Y-6504000I0J-50000D01*
G01*
X12284000Y-6704000D02*
G75*
G02*
X12234000Y-6754000I-50000J0D01*
G01*
X11224000Y-10504000D02*
X11224000Y-10304000D01*
X12234000Y-10254000D02*
X11274000Y-10254000D01*
X12234000Y-10554000D02*
X11274000Y-10554000D01*
X12284000Y-10304000D02*
X12284000Y-10504000D01*
X11224000Y-10304000D02*
G75*
G02*
X11274000Y-10254000I50000J0D01*
G01*
X11274000Y-10554000D02*
G75*
G02*
X11224000Y-10504000I0J50000D01*
G01*
X12234000Y-10254000D02*
G75*
G02*
X12284000Y-10304000I0J-50000D01*
G01*
X12284000Y-10504000D02*
G75*
G02*
X12234000Y-10554000I-50000J0D01*
G01*
X11891489Y-12717084D02*
X11922776Y-12519546D01*
X12928163Y-12628161D02*
X11979983Y-12477984D01*
X12881233Y-12924467D02*
X11933052Y-12774290D01*
X12969726Y-12685367D02*
X12938439Y-12882905D01*
X11922776Y-12519546D02*
G75*
G02*
X11979983Y-12477984I49385J-7822D01*
G01*
X11933052Y-12774290D02*
G75*
G02*
X11891489Y-12717084I7822J49385D01*
G01*
X12928163Y-12628161D02*
G75*
G02*
X12969726Y-12685367I-7822J-49384D01*
G01*
X12938439Y-12882905D02*
G75*
G02*
X12881233Y-12924467I-49384J7822D01*
G01*
X11224000Y-8604000D02*
X11224000Y-8404000D01*
X12234000Y-8354000D02*
X11274000Y-8354000D01*
X12234000Y-8654000D02*
X11274000Y-8654000D01*
X12284000Y-8404000D02*
X12284000Y-8604000D01*
X11224000Y-8404000D02*
G75*
G02*
X11274000Y-8354000I50000J0D01*
G01*
X11274000Y-8654000D02*
G75*
G02*
X11224000Y-8604000I0J50000D01*
G01*
X12234000Y-8354000D02*
G75*
G02*
X12284000Y-8404000I0J-50000D01*
G01*
X12284000Y-8604000D02*
G75*
G02*
X12234000Y-8654000I-50000J0D01*
G01*
X9324000Y-8304000D02*
X9324000Y-8104000D01*
X10334000Y-8054000D02*
X9374000Y-8054000D01*
X10334000Y-8354000D02*
X9374000Y-8354000D01*
X10384000Y-8104000D02*
X10384000Y-8304000D01*
X9324000Y-8104000D02*
G75*
G02*
X9374000Y-8054000I50000J0D01*
G01*
X9374000Y-8354000D02*
G75*
G02*
X9324000Y-8304000I0J50000D01*
G01*
X10334000Y-8054000D02*
G75*
G02*
X10384000Y-8104000I0J-50000D01*
G01*
X10384000Y-8304000D02*
G75*
G02*
X10334000Y-8354000I-50000J0D01*
G01*
X10014882Y-12419859D02*
X10046169Y-12222321D01*
X11051556Y-12330935D02*
X10103375Y-12180758D01*
X11004625Y-12627242D02*
X10056444Y-12477065D01*
X11093118Y-12388141D02*
X11061831Y-12585679D01*
X10046169Y-12222321D02*
G75*
G02*
X10103375Y-12180758I49385J-7822D01*
G01*
X10056444Y-12477065D02*
G75*
G02*
X10014882Y-12419859I7822J49385D01*
G01*
X11051556Y-12330935D02*
G75*
G02*
X11093118Y-12388141I-7822J-49384D01*
G01*
X11061831Y-12585679D02*
G75*
G02*
X11004625Y-12627242I-49384J7822D01*
G01*
X5584732Y-10649812D02*
X5567301Y-10450573D01*
X6569100Y-10312736D02*
X5612753Y-10396405D01*
X6595247Y-10611594D02*
X5638900Y-10695264D01*
X6623268Y-10358188D02*
X6640699Y-10557427D01*
X5567301Y-10450573D02*
G75*
G02*
X5612753Y-10396405I49810J4358D01*
G01*
X5638900Y-10695264D02*
G75*
G02*
X5584732Y-10649812I-4358J49810D01*
G01*
X6569100Y-10312736D02*
G75*
G02*
X6623268Y-10358188I4358J-49810D01*
G01*
X6640699Y-10557427D02*
G75*
G02*
X6595247Y-10611594I-49810J-4358D01*
G01*
X5419137Y-8757042D02*
X5401705Y-8557803D01*
X6403504Y-8419966D02*
X5447157Y-8503636D01*
X6429651Y-8718824D02*
X5473304Y-8802494D01*
X6457672Y-8465418D02*
X6475103Y-8664657D01*
X5401705Y-8557803D02*
G75*
G02*
X5447157Y-8503636I49810J4358D01*
G01*
X5473304Y-8802494D02*
G75*
G02*
X5419136Y-8757042I-4358J49810D01*
G01*
X6403504Y-8419966D02*
G75*
G02*
X6457672Y-8465418I4358J-49810D01*
G01*
X6475103Y-8664657D02*
G75*
G02*
X6429651Y-8718825I-49810J-4358D01*
G01*
X5253541Y-6864272D02*
X5236109Y-6665033D01*
X6237908Y-6527196D02*
X5281562Y-6610866D01*
X6264055Y-6826054D02*
X5307708Y-6909724D01*
X6292076Y-6572648D02*
X6309507Y-6771887D01*
X5236109Y-6665033D02*
G75*
G02*
X5281561Y-6610866I49810J4358D01*
G01*
X5307708Y-6909724D02*
G75*
G02*
X5253540Y-6864272I-4358J49810D01*
G01*
X6237908Y-6527196D02*
G75*
G02*
X6292076Y-6572648I4358J-49810D01*
G01*
X6309507Y-6771887D02*
G75*
G02*
X6264055Y-6826055I-49810J-4358D01*
G01*
X7424000Y-5404000D02*
X7424000Y-5204000D01*
X8434000Y-5154000D02*
X7474000Y-5154000D01*
X8434000Y-5454000D02*
X7474000Y-5454000D01*
X8484000Y-5204000D02*
X8484000Y-5404000D01*
X7424000Y-5204000D02*
G75*
G02*
X7474000Y-5154000I50000J0D01*
G01*
X7474000Y-5454000D02*
G75*
G02*
X7424000Y-5404000I0J50000D01*
G01*
X8434000Y-5154000D02*
G75*
G02*
X8484000Y-5204000I0J-50000D01*
G01*
X8484000Y-5404000D02*
G75*
G02*
X8434000Y-5454000I-50000J0D01*
G01*
X7424000Y-7304000D02*
X7424000Y-7104000D01*
X8434000Y-7054000D02*
X7474000Y-7054000D01*
X8434000Y-7354000D02*
X7474000Y-7354000D01*
X8484000Y-7104000D02*
X8484000Y-7304000D01*
X7424000Y-7104000D02*
G75*
G02*
X7474000Y-7054000I50000J0D01*
G01*
X7474000Y-7354000D02*
G75*
G02*
X7424000Y-7304000I0J50000D01*
G01*
X8434000Y-7054000D02*
G75*
G02*
X8484000Y-7104000I0J-50000D01*
G01*
X8484000Y-7304000D02*
G75*
G02*
X8434000Y-7354000I-50000J0D01*
G01*
X7424000Y-9204000D02*
X7424000Y-9004000D01*
X8434000Y-8954000D02*
X7474000Y-8954000D01*
X8434000Y-9254000D02*
X7474000Y-9254000D01*
X8484000Y-9004000D02*
X8484000Y-9204000D01*
X7424000Y-9004000D02*
G75*
G02*
X7474000Y-8954000I50000J0D01*
G01*
X7474000Y-9254000D02*
G75*
G02*
X7424000Y-9204000I0J50000D01*
G01*
X8434000Y-8954000D02*
G75*
G02*
X8484000Y-9004000I0J-50000D01*
G01*
X8484000Y-9204000D02*
G75*
G02*
X8434000Y-9254000I-50000J0D01*
G01*
X3378990Y-8624506D02*
X3349083Y-8426755D01*
X4340250Y-8226286D02*
X3391044Y-8369840D01*
X4385110Y-8522913D02*
X3435904Y-8666467D01*
X4397164Y-8268247D02*
X4427071Y-8465999D01*
X3349083Y-8426755D02*
G75*
G02*
X3391044Y-8369840I49438J7477D01*
G01*
X3435904Y-8666467D02*
G75*
G02*
X3378990Y-8624506I-7477J49438D01*
G01*
X4340250Y-8226286D02*
G75*
G02*
X4397164Y-8268247I7477J-49438D01*
G01*
X4427071Y-8465999D02*
G75*
G02*
X4385110Y-8522913I-49438J-7477D01*
G01*
X3663107Y-10503143D02*
X3633200Y-10305392D01*
X4624367Y-10104924D02*
X3675161Y-10248478D01*
X4669228Y-10401551D02*
X3720021Y-10545104D01*
X4681282Y-10146885D02*
X4711189Y-10344636D01*
X3633200Y-10305392D02*
G75*
G02*
X3675161Y-10248478I49438J7477D01*
G01*
X3720021Y-10545105D02*
G75*
G02*
X3663107Y-10503144I-7477J49438D01*
G01*
X4624367Y-10104924D02*
G75*
G02*
X4681282Y-10146885I7477J-49438D01*
G01*
X4711189Y-10344636D02*
G75*
G02*
X4669228Y-10401551I-49438J-7477D01*
G01*
X3947224Y-12381780D02*
X3917317Y-12184029D01*
X4908484Y-11983561D02*
X3959278Y-12127115D01*
X4953345Y-12280188D02*
X4004139Y-12423741D01*
X4965399Y-12025522D02*
X4995306Y-12223273D01*
X3917317Y-12184029D02*
G75*
G02*
X3959278Y-12127115I49438J7477D01*
G01*
X4004139Y-12423742D02*
G75*
G02*
X3947224Y-12381781I-7477J49438D01*
G01*
X4908484Y-11983561D02*
G75*
G02*
X4965399Y-12025522I7477J-49438D01*
G01*
X4995306Y-12223273D02*
G75*
G02*
X4953345Y-12280188I-49438J-7477D01*
G01*
X19842000Y-6404000D02*
X19842000Y-6204000D01*
X20852000Y-6154000D02*
X19892000Y-6154000D01*
X20852000Y-6454000D02*
X19892000Y-6454000D01*
X20902000Y-6204000D02*
X20902000Y-6404000D01*
X19842000Y-6204000D02*
G75*
G02*
X19892000Y-6154000I50000J0D01*
G01*
X19892000Y-6454000D02*
G75*
G02*
X19842000Y-6404000I0J50000D01*
G01*
X20852000Y-6154000D02*
G75*
G02*
X20902000Y-6204000I0J-50000D01*
G01*
X20902000Y-6404000D02*
G75*
G02*
X20852000Y-6454000I-50000J0D01*
G01*
X23750897Y-8664657D02*
X23768328Y-8465418D01*
X24778843Y-8503636D02*
X23822496Y-8419966D01*
X24752696Y-8802494D02*
X23796349Y-8718824D01*
X24824295Y-8557803D02*
X24806863Y-8757042D01*
X23768328Y-8465418D02*
G75*
G02*
X23822496Y-8419966I49810J-4358D01*
G01*
X23796349Y-8718825D02*
G75*
G02*
X23750897Y-8664657I4358J49810D01*
G01*
X24778843Y-8503636D02*
G75*
G02*
X24824295Y-8557803I-4358J-49810D01*
G01*
X24806863Y-8757042D02*
G75*
G02*
X24752696Y-8802494I-49810J4358D01*
G01*
X19842000Y-8304000D02*
X19842000Y-8104000D01*
X20852000Y-8054000D02*
X19892000Y-8054000D01*
X20852000Y-8354000D02*
X19892000Y-8354000D01*
X20902000Y-8104000D02*
X20902000Y-8304000D01*
X19842000Y-8104000D02*
G75*
G02*
X19892000Y-8054000I50000J0D01*
G01*
X19892000Y-8354000D02*
G75*
G02*
X19842000Y-8304000I0J50000D01*
G01*
X20852000Y-8054000D02*
G75*
G02*
X20902000Y-8104000I0J-50000D01*
G01*
X20902000Y-8304000D02*
G75*
G02*
X20852000Y-8354000I-50000J0D01*
G01*
X25798929Y-8465999D02*
X25828836Y-8268247D01*
X26834956Y-8369840D02*
X25885750Y-8226286D01*
X26790096Y-8666467D02*
X25840890Y-8522913D01*
X26876917Y-8426755D02*
X26847010Y-8624506D01*
X25828836Y-8268247D02*
G75*
G02*
X25885750Y-8226286I49438J-7477D01*
G01*
X25840889Y-8522914D02*
G75*
G02*
X25798928Y-8465999I7477J49438D01*
G01*
X26834956Y-8369840D02*
G75*
G02*
X26876917Y-8426755I-7477J-49438D01*
G01*
X26847010Y-8624506D02*
G75*
G02*
X26790096Y-8666467I-49438J7477D01*
G01*
X21742000Y-7304000D02*
X21742000Y-7104000D01*
X22752000Y-7054000D02*
X21792000Y-7054000D01*
X22752000Y-7354000D02*
X21792000Y-7354000D01*
X22802000Y-7104000D02*
X22802000Y-7304000D01*
X21742000Y-7104000D02*
G75*
G02*
X21792000Y-7054000I50000J0D01*
G01*
X21792000Y-7354000D02*
G75*
G02*
X21742000Y-7304000I0J50000D01*
G01*
X22752000Y-7054000D02*
G75*
G02*
X22802000Y-7104000I0J-50000D01*
G01*
X22802000Y-7304000D02*
G75*
G02*
X22752000Y-7354000I-50000J0D01*
G01*
X25514811Y-10344636D02*
X25544718Y-10146885D01*
X26550839Y-10248478D02*
X25601633Y-10104924D01*
X26505979Y-10545104D02*
X25556772Y-10401550D01*
X26592800Y-10305392D02*
X26562893Y-10503143D01*
X25544718Y-10146885D02*
G75*
G02*
X25601633Y-10104924I49438J-7477D01*
G01*
X25556772Y-10401551D02*
G75*
G02*
X25514811Y-10344636I7477J49438D01*
G01*
X26550839Y-10248478D02*
G75*
G02*
X26592800Y-10305392I-7477J-49438D01*
G01*
X26562893Y-10503143D02*
G75*
G02*
X26505979Y-10545104I-49438J7477D01*
G01*
X21742000Y-5404000D02*
X21742000Y-5204000D01*
X22752000Y-5154000D02*
X21792000Y-5154000D01*
X22752000Y-5454000D02*
X21792000Y-5454000D01*
X22802000Y-5204000D02*
X22802000Y-5404000D01*
X21742000Y-5204000D02*
G75*
G02*
X21792000Y-5154000I50000J0D01*
G01*
X21792000Y-5454000D02*
G75*
G02*
X21742000Y-5404000I0J50000D01*
G01*
X22752000Y-5154000D02*
G75*
G02*
X22802000Y-5204000I0J-50000D01*
G01*
X22802000Y-5404000D02*
G75*
G02*
X22752000Y-5454000I-50000J0D01*
G01*
X19164169Y-12585679D02*
X19132882Y-12388141D01*
X20122625Y-12180758D02*
X19174445Y-12330935D01*
X20169556Y-12477065D02*
X19221375Y-12627242D01*
X20179831Y-12222321D02*
X20211118Y-12419859D01*
X19132882Y-12388141D02*
G75*
G02*
X19174444Y-12330935I49385J7822D01*
G01*
X19221375Y-12627242D02*
G75*
G02*
X19164169Y-12585679I-7822J49385D01*
G01*
X20122625Y-12180758D02*
G75*
G02*
X20179831Y-12222321I7822J-49384D01*
G01*
X20211118Y-12419859D02*
G75*
G02*
X20169556Y-12477065I-49385J-7822D01*
G01*
X23585301Y-10557427D02*
X23602732Y-10358188D01*
X24613247Y-10396406D02*
X23656900Y-10312736D01*
X24587100Y-10695264D02*
X23630753Y-10611594D01*
X24658699Y-10450573D02*
X24641268Y-10649812D01*
X23602732Y-10358188D02*
G75*
G02*
X23656900Y-10312736I49810J-4358D01*
G01*
X23630753Y-10611594D02*
G75*
G02*
X23585301Y-10557427I4358J49810D01*
G01*
X24613247Y-10396406D02*
G75*
G02*
X24658699Y-10450573I-4358J-49810D01*
G01*
X24641268Y-10649812D02*
G75*
G02*
X24587100Y-10695264I-49810J4358D01*
G01*
X17942000Y-10504000D02*
X17942000Y-10304000D01*
X18952000Y-10254000D02*
X17992000Y-10254000D01*
X18952000Y-10554000D02*
X17992000Y-10554000D01*
X19002000Y-10304000D02*
X19002000Y-10504000D01*
X17942000Y-10304000D02*
G75*
G02*
X17992000Y-10254000I50000J0D01*
G01*
X17992000Y-10554000D02*
G75*
G02*
X17942000Y-10504000I0J50000D01*
G01*
X18952000Y-10254000D02*
G75*
G02*
X19002000Y-10304000I0J-50000D01*
G01*
X19002000Y-10504000D02*
G75*
G02*
X18952000Y-10554000I-50000J0D01*
G01*
X17287561Y-12882905D02*
X17256274Y-12685367D01*
X18246017Y-12477984D02*
X17297837Y-12628161D01*
X18292948Y-12774290D02*
X17344767Y-12924467D01*
X18303224Y-12519546D02*
X18334511Y-12717084D01*
X17256274Y-12685367D02*
G75*
G02*
X17297837Y-12628161I49385J7822D01*
G01*
X17344767Y-12924467D02*
G75*
G02*
X17287561Y-12882905I-7822J49385D01*
G01*
X18246017Y-12477984D02*
G75*
G02*
X18303224Y-12519546I7822J-49384D01*
G01*
X18334511Y-12717084D02*
G75*
G02*
X18292948Y-12774290I-49385J-7822D01*
G01*
X17942000Y-6704000D02*
X17942000Y-6504000D01*
X18952000Y-6454000D02*
X17992000Y-6454000D01*
X18952000Y-6754000D02*
X17992000Y-6754000D01*
X19002000Y-6504000D02*
X19002000Y-6704000D01*
X17942000Y-6504000D02*
G75*
G02*
X17992000Y-6454000I50000J0D01*
G01*
X17992000Y-6754000D02*
G75*
G02*
X17942000Y-6704000I0J50000D01*
G01*
X18952000Y-6454000D02*
G75*
G02*
X19002000Y-6504000I0J-50000D01*
G01*
X19002000Y-6704000D02*
G75*
G02*
X18952000Y-6754000I-50000J0D01*
G01*
X25230694Y-12223273D02*
X25260601Y-12025522D01*
X26266722Y-12127115D02*
X25317516Y-11983561D01*
X26221861Y-12423741D02*
X25272655Y-12280187D01*
X26308683Y-12184029D02*
X26278776Y-12381780D01*
X25260601Y-12025522D02*
G75*
G02*
X25317516Y-11983561I49438J-7477D01*
G01*
X25272655Y-12280188D02*
G75*
G02*
X25230694Y-12223273I7477J49438D01*
G01*
X26266722Y-12127115D02*
G75*
G02*
X26308683Y-12184029I-7477J-49438D01*
G01*
X26278776Y-12381780D02*
G75*
G02*
X26221861Y-12423741I-49438J7477D01*
G01*
X21742000Y-9204000D02*
X21742000Y-9004000D01*
X22752000Y-8954000D02*
X21792000Y-8954000D01*
X22752000Y-9254000D02*
X21792000Y-9254000D01*
X22802000Y-9004000D02*
X22802000Y-9204000D01*
X21742000Y-9004000D02*
G75*
G02*
X21792000Y-8954000I50000J0D01*
G01*
X21792000Y-9254000D02*
G75*
G02*
X21742000Y-9204000I0J50000D01*
G01*
X22752000Y-8954000D02*
G75*
G02*
X22802000Y-9004000I0J-50000D01*
G01*
X22802000Y-9204000D02*
G75*
G02*
X22752000Y-9254000I-50000J0D01*
G01*
X23916493Y-6771887D02*
X23933924Y-6572648D01*
X24944439Y-6610866D02*
X23988092Y-6527196D01*
X24918292Y-6909724D02*
X23961945Y-6826054D01*
X24989891Y-6665033D02*
X24972459Y-6864272D01*
X23933924Y-6572648D02*
G75*
G02*
X23988092Y-6527196I49810J-4358D01*
G01*
X23961945Y-6826055D02*
G75*
G02*
X23916493Y-6771887I4358J49810D01*
G01*
X24944439Y-6610866D02*
G75*
G02*
X24989890Y-6665033I-4358J-49810D01*
G01*
X24972459Y-6864272D02*
G75*
G02*
X24918292Y-6909724I-49810J4358D01*
G01*
D12*
D13*
X13955000Y-8811500D02*
X13985000Y-8841500D01*
X13985000Y-8811500D02*
X13955000Y-8841500D01*
X13955000Y-9383000D02*
X13985000Y-9413000D01*
X13985000Y-9383000D02*
X13955000Y-9413000D01*
X16622000Y-8303500D02*
X16652000Y-8333500D01*
X16652000Y-8303500D02*
X16622000Y-8333500D01*
X17003000Y-7922500D02*
X17033000Y-7952500D01*
X17033000Y-7922500D02*
X17003000Y-7952500D01*
X3361875Y-8145417D02*
G75*
G02*
X3311875Y-8145417I-25000J0D01*
G01*
X3311875Y-8145417D02*
G75*
G02*
X3361875Y-8145417I25000J0D01*
G01*
X3315895Y-8173874D02*
X3365333Y-8166398D01*
X3357856Y-8116960D02*
G75*
G02*
X3365333Y-8166398I3738J-24719D01*
G01*
X3357856Y-8116960D02*
X3308418Y-8124437D01*
X3308418Y-8124437D02*
G75*
G03*
X3315895Y-8173874I3738J-24719D01*
G01*
X3645993Y-10024054D02*
G75*
G02*
X3595993Y-10024054I-25000J0D01*
G01*
X3595993Y-10024054D02*
G75*
G02*
X3645993Y-10024054I25000J0D01*
G01*
X3600012Y-10052512D02*
X3649450Y-10045035D01*
X3641973Y-9995597D02*
G75*
G02*
X3649450Y-10045035I3738J-24719D01*
G01*
X3641973Y-9995597D02*
X3592535Y-10003074D01*
X3592535Y-10003074D02*
G75*
G03*
X3600012Y-10052512I3738J-24719D01*
G01*
X3826346Y-7872898D02*
G75*
G02*
X3776346Y-7872898I-25000J0D01*
G01*
X3776346Y-7872898D02*
G75*
G02*
X3826346Y-7872898I25000J0D01*
G01*
X3780366Y-7901355D02*
X3829804Y-7893879D01*
X3822327Y-7844441D02*
G75*
G02*
X3829804Y-7893879I3738J-24719D01*
G01*
X3822327Y-7844441D02*
X3772889Y-7851918D01*
X3772889Y-7851918D02*
G75*
G03*
X3780366Y-7901355I3738J-24719D01*
G01*
X3930110Y-11902691D02*
G75*
G02*
X3880110Y-11902691I-25000J0D01*
G01*
X3880110Y-11902691D02*
G75*
G02*
X3930110Y-11902691I25000J0D01*
G01*
X3884129Y-11931149D02*
X3933567Y-11923672D01*
X3926090Y-11874234D02*
G75*
G02*
X3933567Y-11923672I3738J-24719D01*
G01*
X3926090Y-11874234D02*
X3876652Y-11881711D01*
X3876652Y-11881711D02*
G75*
G03*
X3884129Y-11931149I3738J-24719D01*
G01*
X4110464Y-9751535D02*
G75*
G02*
X4060464Y-9751535I-25000J0D01*
G01*
X4060464Y-9751535D02*
G75*
G02*
X4110464Y-9751535I25000J0D01*
G01*
X4064483Y-9779993D02*
X4113921Y-9772516D01*
X4106444Y-9723078D02*
G75*
G02*
X4113921Y-9772516I3738J-24719D01*
G01*
X4106444Y-9723078D02*
X4057006Y-9730555D01*
X4057006Y-9730555D02*
G75*
G03*
X4064483Y-9779993I3738J-24719D01*
G01*
X4394581Y-11630172D02*
G75*
G02*
X4344581Y-11630172I-25000J0D01*
G01*
X4344581Y-11630172D02*
G75*
G02*
X4394581Y-11630172I25000J0D01*
G01*
X4348600Y-11658630D02*
X4398038Y-11651153D01*
X4390561Y-11601715D02*
G75*
G02*
X4398038Y-11651153I3738J-24719D01*
G01*
X4390561Y-11601715D02*
X4341124Y-11609192D01*
X4341124Y-11609192D02*
G75*
G03*
X4348600Y-11658630I3738J-24719D01*
G01*
X5266592Y-6383484D02*
G75*
G02*
X5216592Y-6383484I-25000J0D01*
G01*
X5216592Y-6383484D02*
G75*
G02*
X5266592Y-6383484I25000J0D01*
G01*
X5218866Y-6410568D02*
X5268676Y-6406210D01*
X5264318Y-6356400D02*
G75*
G02*
X5268676Y-6406210I2179J-24905D01*
G01*
X5264318Y-6356400D02*
X5214508Y-6360758D01*
X5214508Y-6360758D02*
G75*
G03*
X5218866Y-6410568I2179J-24905D01*
G01*
X5432188Y-8276254D02*
G75*
G02*
X5382188Y-8276254I-25000J0D01*
G01*
X5382188Y-8276254D02*
G75*
G02*
X5432188Y-8276254I25000J0D01*
G01*
X5384462Y-8303338D02*
X5434271Y-8298980D01*
X5429914Y-8249170D02*
G75*
G02*
X5434271Y-8298980I2179J-24905D01*
G01*
X5429914Y-8249170D02*
X5380104Y-8253528D01*
X5380104Y-8253528D02*
G75*
G03*
X5384462Y-8303338I2179J-24905D01*
G01*
X5597783Y-10169024D02*
G75*
G02*
X5547784Y-10169024I-25000J0D01*
G01*
X5547784Y-10169024D02*
G75*
G02*
X5597783Y-10169024I25000J0D01*
G01*
X5550058Y-10196108D02*
X5599867Y-10191750D01*
X5595509Y-10141940D02*
G75*
G02*
X5599867Y-10191750I2179J-24905D01*
G01*
X5595509Y-10141940D02*
X5545700Y-10146298D01*
X5545700Y-10146298D02*
G75*
G03*
X5550058Y-10196108I2179J-24905D01*
G01*
X5747258Y-6140667D02*
G75*
G02*
X5697258Y-6140667I-25000J0D01*
G01*
X5697258Y-6140667D02*
G75*
G02*
X5747258Y-6140667I25000J0D01*
G01*
X5699532Y-6167751D02*
X5749342Y-6163393D01*
X5744984Y-6113583D02*
G75*
G02*
X5749342Y-6163393I2179J-24905D01*
G01*
X5744984Y-6113583D02*
X5695174Y-6117941D01*
X5695174Y-6117941D02*
G75*
G03*
X5699532Y-6167751I2179J-24905D01*
G01*
X5912854Y-8033437D02*
G75*
G02*
X5862854Y-8033437I-25000J0D01*
G01*
X5862854Y-8033437D02*
G75*
G02*
X5912854Y-8033437I25000J0D01*
G01*
X5865128Y-8060521D02*
X5914938Y-8056163D01*
X5910580Y-8006353D02*
G75*
G02*
X5914938Y-8056163I2179J-24905D01*
G01*
X5910580Y-8006353D02*
X5860770Y-8010711D01*
X5860770Y-8010711D02*
G75*
G03*
X5865128Y-8060521I2179J-24905D01*
G01*
X6078450Y-9926207D02*
G75*
G02*
X6028450Y-9926207I-25000J0D01*
G01*
X6028450Y-9926207D02*
G75*
G02*
X6078450Y-9926207I25000J0D01*
G01*
X6030724Y-9953291D02*
X6080533Y-9948933D01*
X6076176Y-9899123D02*
G75*
G02*
X6080533Y-9948933I2179J-24905D01*
G01*
X6076176Y-9899123D02*
X6026366Y-9903481D01*
X6026366Y-9903481D02*
G75*
G03*
X6030724Y-9953291I2179J-24905D01*
G01*
X7479000Y-4924000D02*
G75*
G02*
X7429000Y-4924000I-25000J0D01*
G01*
X7429000Y-4924000D02*
G75*
G02*
X7479000Y-4924000I25000J0D01*
G01*
X7429000Y-4949000D02*
X7479000Y-4949000D01*
X7479000Y-4899000D02*
G75*
G02*
X7479000Y-4949000I0J-25000D01*
G01*
X7479000Y-4899000D02*
X7429000Y-4899000D01*
X7429000Y-4899000D02*
G75*
G03*
X7429000Y-4949000I0J-25000D01*
G01*
X7479000Y-6824000D02*
G75*
G02*
X7429000Y-6824000I-25000J0D01*
G01*
X7429000Y-6824000D02*
G75*
G02*
X7479000Y-6824000I25000J0D01*
G01*
X7429000Y-6849000D02*
X7479000Y-6849000D01*
X7479000Y-6799000D02*
G75*
G02*
X7479000Y-6849000I0J-25000D01*
G01*
X7479000Y-6799000D02*
X7429000Y-6799000D01*
X7429000Y-6799000D02*
G75*
G03*
X7429000Y-6849000I0J-25000D01*
G01*
X7479000Y-8724000D02*
G75*
G02*
X7429000Y-8724000I-25000J0D01*
G01*
X7429000Y-8724000D02*
G75*
G02*
X7479000Y-8724000I25000J0D01*
G01*
X7429000Y-8749000D02*
X7479000Y-8749000D01*
X7479000Y-8699000D02*
G75*
G02*
X7479000Y-8749000I0J-25000D01*
G01*
X7479000Y-8699000D02*
X7429000Y-8699000D01*
X7429000Y-8699000D02*
G75*
G03*
X7429000Y-8749000I0J-25000D01*
G01*
X7979000Y-4724000D02*
G75*
G02*
X7929000Y-4724000I-25000J0D01*
G01*
X7929000Y-4724000D02*
G75*
G02*
X7979000Y-4724000I25000J0D01*
G01*
X7929000Y-4749000D02*
X7979000Y-4749000D01*
X7979000Y-4699000D02*
G75*
G02*
X7979000Y-4749000I0J-25000D01*
G01*
X7979000Y-4699000D02*
X7929000Y-4699000D01*
X7929000Y-4699000D02*
G75*
G03*
X7929000Y-4749000I0J-25000D01*
G01*
X7979000Y-6624000D02*
G75*
G02*
X7929000Y-6624000I-25000J0D01*
G01*
X7929000Y-6624000D02*
G75*
G02*
X7979000Y-6624000I25000J0D01*
G01*
X7929000Y-6649000D02*
X7979000Y-6649000D01*
X7979000Y-6599000D02*
G75*
G02*
X7979000Y-6649000I0J-25000D01*
G01*
X7979000Y-6599000D02*
X7929000Y-6599000D01*
X7929000Y-6599000D02*
G75*
G03*
X7929000Y-6649000I0J-25000D01*
G01*
X7979000Y-8524000D02*
G75*
G02*
X7929000Y-8524000I-25000J0D01*
G01*
X7929000Y-8524000D02*
G75*
G02*
X7979000Y-8524000I25000J0D01*
G01*
X7929000Y-8549000D02*
X7979000Y-8549000D01*
X7979000Y-8499000D02*
G75*
G02*
X7979000Y-8549000I0J-25000D01*
G01*
X7979000Y-8499000D02*
X7929000Y-8499000D01*
X7929000Y-8499000D02*
G75*
G03*
X7929000Y-8549000I0J-25000D01*
G01*
X9379000Y-5924000D02*
G75*
G02*
X9329000Y-5924000I-25000J0D01*
G01*
X9329000Y-5924000D02*
G75*
G02*
X9379000Y-5924000I25000J0D01*
G01*
X9329000Y-5949000D02*
X9379000Y-5949000D01*
X9379000Y-5899000D02*
G75*
G02*
X9379000Y-5949000I0J-25000D01*
G01*
X9379000Y-5899000D02*
X9329000Y-5899000D01*
X9329000Y-5899000D02*
G75*
G03*
X9329000Y-5949000I0J-25000D01*
G01*
X9379000Y-7824000D02*
G75*
G02*
X9329000Y-7824000I-25000J0D01*
G01*
X9329000Y-7824000D02*
G75*
G02*
X9379000Y-7824000I25000J0D01*
G01*
X9329000Y-7849000D02*
X9379000Y-7849000D01*
X9379000Y-7799000D02*
G75*
G02*
X9379000Y-7849000I0J-25000D01*
G01*
X9379000Y-7799000D02*
X9329000Y-7799000D01*
X9329000Y-7799000D02*
G75*
G03*
X9329000Y-7849000I0J-25000D01*
G01*
X9379000Y-9724000D02*
G75*
G02*
X9329000Y-9724000I-25000J0D01*
G01*
X9329000Y-9724000D02*
G75*
G02*
X9379000Y-9724000I25000J0D01*
G01*
X9329000Y-9749000D02*
X9379000Y-9749000D01*
X9379000Y-9699000D02*
G75*
G02*
X9379000Y-9749000I0J-25000D01*
G01*
X9379000Y-9699000D02*
X9329000Y-9699000D01*
X9329000Y-9699000D02*
G75*
G03*
X9329000Y-9749000I0J-25000D01*
G01*
X9879000Y-5724000D02*
G75*
G02*
X9829000Y-5724000I-25000J0D01*
G01*
X9829000Y-5724000D02*
G75*
G02*
X9879000Y-5724000I25000J0D01*
G01*
X9829000Y-5749000D02*
X9879000Y-5749000D01*
X9879000Y-5699000D02*
G75*
G02*
X9879000Y-5749000I0J-25000D01*
G01*
X9879000Y-5699000D02*
X9829000Y-5699000D01*
X9829000Y-5699000D02*
G75*
G03*
X9829000Y-5749000I0J-25000D01*
G01*
X9879000Y-7624000D02*
G75*
G02*
X9829000Y-7624000I-25000J0D01*
G01*
X9829000Y-7624000D02*
G75*
G02*
X9879000Y-7624000I25000J0D01*
G01*
X9829000Y-7649000D02*
X9879000Y-7649000D01*
X9879000Y-7599000D02*
G75*
G02*
X9879000Y-7649000I0J-25000D01*
G01*
X9879000Y-7599000D02*
X9829000Y-7599000D01*
X9829000Y-7599000D02*
G75*
G03*
X9829000Y-7649000I0J-25000D01*
G01*
X9879000Y-9524000D02*
G75*
G02*
X9829000Y-9524000I-25000J0D01*
G01*
X9829000Y-9524000D02*
G75*
G02*
X9879000Y-9524000I25000J0D01*
G01*
X9829000Y-9549000D02*
X9879000Y-9549000D01*
X9879000Y-9499000D02*
G75*
G02*
X9879000Y-9549000I0J-25000D01*
G01*
X9879000Y-9499000D02*
X9829000Y-9499000D01*
X9829000Y-9499000D02*
G75*
G03*
X9829000Y-9549000I0J-25000D01*
G01*
X10144601Y-11950461D02*
G75*
G02*
X10094601Y-11950461I-25000J0D01*
G01*
X10094601Y-11950461D02*
G75*
G02*
X10144601Y-11950461I25000J0D01*
G01*
X10090998Y-11971242D02*
X10140382Y-11979064D01*
X10148204Y-11929680D02*
G75*
G02*
X10140382Y-11979064I-3911J-24692D01*
G01*
X10148204Y-11929680D02*
X10098820Y-11921858D01*
X10098820Y-11921858D02*
G75*
G03*
X10090998Y-11971242I-3911J-24692D01*
G01*
X10669732Y-11831141D02*
G75*
G02*
X10619732Y-11831141I-25000J0D01*
G01*
X10619732Y-11831141D02*
G75*
G02*
X10669732Y-11831141I25000J0D01*
G01*
X10616129Y-11851922D02*
X10665513Y-11859744D01*
X10673335Y-11810359D02*
G75*
G02*
X10665513Y-11859744I-3911J-24692D01*
G01*
X10673335Y-11810359D02*
X10623951Y-11802538D01*
X10623951Y-11802538D02*
G75*
G03*
X10616129Y-11851922I-3911J-24692D01*
G01*
X11279000Y-6224000D02*
G75*
G02*
X11229000Y-6224000I-25000J0D01*
G01*
X11229000Y-6224000D02*
G75*
G02*
X11279000Y-6224000I25000J0D01*
G01*
X11229000Y-6249000D02*
X11279000Y-6249000D01*
X11279000Y-6199000D02*
G75*
G02*
X11279000Y-6249000I0J-25000D01*
G01*
X11279000Y-6199000D02*
X11229000Y-6199000D01*
X11229000Y-6199000D02*
G75*
G03*
X11229000Y-6249000I0J-25000D01*
G01*
X11279000Y-8124000D02*
G75*
G02*
X11229000Y-8124000I-25000J0D01*
G01*
X11229000Y-8124000D02*
G75*
G02*
X11279000Y-8124000I25000J0D01*
G01*
X11229000Y-8149000D02*
X11279000Y-8149000D01*
X11279000Y-8099000D02*
G75*
G02*
X11279000Y-8149000I0J-25000D01*
G01*
X11279000Y-8099000D02*
X11229000Y-8099000D01*
X11229000Y-8099000D02*
G75*
G03*
X11229000Y-8149000I0J-25000D01*
G01*
X11279000Y-10024000D02*
G75*
G02*
X11229000Y-10024000I-25000J0D01*
G01*
X11229000Y-10024000D02*
G75*
G02*
X11279000Y-10024000I25000J0D01*
G01*
X11229000Y-10049000D02*
X11279000Y-10049000D01*
X11279000Y-9999000D02*
G75*
G02*
X11279000Y-10049000I0J-25000D01*
G01*
X11279000Y-9999000D02*
X11229000Y-9999000D01*
X11229000Y-9999000D02*
G75*
G03*
X11229000Y-10049000I0J-25000D01*
G01*
X11779000Y-6024000D02*
G75*
G02*
X11729000Y-6024000I-25000J0D01*
G01*
X11729000Y-6024000D02*
G75*
G02*
X11779000Y-6024000I25000J0D01*
G01*
X11729000Y-6049000D02*
X11779000Y-6049000D01*
X11779000Y-5999000D02*
G75*
G02*
X11779000Y-6049000I0J-25000D01*
G01*
X11779000Y-5999000D02*
X11729000Y-5999000D01*
X11729000Y-5999000D02*
G75*
G03*
X11729000Y-6049000I0J-25000D01*
G01*
X11779000Y-7924000D02*
G75*
G02*
X11729000Y-7924000I-25000J0D01*
G01*
X11729000Y-7924000D02*
G75*
G02*
X11779000Y-7924000I25000J0D01*
G01*
X11729000Y-7949000D02*
X11779000Y-7949000D01*
X11779000Y-7899000D02*
G75*
G02*
X11779000Y-7949000I0J-25000D01*
G01*
X11779000Y-7899000D02*
X11729000Y-7899000D01*
X11729000Y-7899000D02*
G75*
G03*
X11729000Y-7949000I0J-25000D01*
G01*
X11779000Y-9824000D02*
G75*
G02*
X11729000Y-9824000I-25000J0D01*
G01*
X11729000Y-9824000D02*
G75*
G02*
X11779000Y-9824000I25000J0D01*
G01*
X11729000Y-9849000D02*
X11779000Y-9849000D01*
X11779000Y-9799000D02*
G75*
G02*
X11779000Y-9849000I0J-25000D01*
G01*
X11779000Y-9799000D02*
X11729000Y-9799000D01*
X11729000Y-9799000D02*
G75*
G03*
X11729000Y-9849000I0J-25000D01*
G01*
X12021209Y-12247687D02*
G75*
G02*
X11971209Y-12247687I-25000J0D01*
G01*
X11971209Y-12247687D02*
G75*
G02*
X12021209Y-12247687I25000J0D01*
G01*
X11967606Y-12268468D02*
X12016990Y-12276290D01*
X12024812Y-12226905D02*
G75*
G02*
X12016990Y-12276290I-3911J-24692D01*
G01*
X12024812Y-12226905D02*
X11975427Y-12219084D01*
X11975427Y-12219084D02*
G75*
G03*
X11967606Y-12268468I-3911J-24692D01*
G01*
X12546340Y-12128366D02*
G75*
G02*
X12496340Y-12128366I-25000J0D01*
G01*
X12496340Y-12128366D02*
G75*
G02*
X12546340Y-12128366I25000J0D01*
G01*
X12492737Y-12149148D02*
X12542121Y-12156969D01*
X12549943Y-12107585D02*
G75*
G02*
X12542121Y-12156969I-3911J-24692D01*
G01*
X12549943Y-12107585D02*
X12500558Y-12099763D01*
X12500558Y-12099763D02*
G75*
G03*
X12492737Y-12149148I-3911J-24692D01*
G01*
X17267103Y-12404121D02*
G75*
G02*
X17217103Y-12404121I-25000J0D01*
G01*
X17217103Y-12404121D02*
G75*
G02*
X17267103Y-12404121I25000J0D01*
G01*
X17221322Y-12432724D02*
X17270706Y-12424902D01*
X17262884Y-12375518D02*
G75*
G02*
X17270706Y-12424902I3911J-24692D01*
G01*
X17262884Y-12375518D02*
X17213500Y-12383340D01*
X17213500Y-12383340D02*
G75*
G03*
X17221322Y-12432724I3911J-24692D01*
G01*
X17729660Y-12128366D02*
G75*
G02*
X17679660Y-12128366I-25000J0D01*
G01*
X17679660Y-12128366D02*
G75*
G02*
X17729660Y-12128366I25000J0D01*
G01*
X17683879Y-12156969D02*
X17733263Y-12149148D01*
X17725442Y-12099763D02*
G75*
G02*
X17733263Y-12149148I3911J-24692D01*
G01*
X17725442Y-12099763D02*
X17676057Y-12107585D01*
X17676057Y-12107585D02*
G75*
G03*
X17683879Y-12156969I3911J-24692D01*
G01*
X17997000Y-6224000D02*
G75*
G02*
X17947000Y-6224000I-25000J0D01*
G01*
X17947000Y-6224000D02*
G75*
G02*
X17997000Y-6224000I25000J0D01*
G01*
X17947000Y-6249000D02*
X17997000Y-6249000D01*
X17997000Y-6199000D02*
G75*
G02*
X17997000Y-6249000I0J-25000D01*
G01*
X17997000Y-6199000D02*
X17947000Y-6199000D01*
X17947000Y-6199000D02*
G75*
G03*
X17947000Y-6249000I0J-25000D01*
G01*
X17997000Y-8124000D02*
G75*
G02*
X17947000Y-8124000I-25000J0D01*
G01*
X17947000Y-8124000D02*
G75*
G02*
X17997000Y-8124000I25000J0D01*
G01*
X17947000Y-8149000D02*
X17997000Y-8149000D01*
X17997000Y-8099000D02*
G75*
G02*
X17997000Y-8149000I0J-25000D01*
G01*
X17997000Y-8099000D02*
X17947000Y-8099000D01*
X17947000Y-8099000D02*
G75*
G03*
X17947000Y-8149000I0J-25000D01*
G01*
X17997000Y-10024000D02*
G75*
G02*
X17947000Y-10024000I-25000J0D01*
G01*
X17947000Y-10024000D02*
G75*
G02*
X17997000Y-10024000I25000J0D01*
G01*
X17947000Y-10049000D02*
X17997000Y-10049000D01*
X17997000Y-9999000D02*
G75*
G02*
X17997000Y-10049000I0J-25000D01*
G01*
X17997000Y-9999000D02*
X17947000Y-9999000D01*
X17947000Y-9999000D02*
G75*
G03*
X17947000Y-10049000I0J-25000D01*
G01*
X18497000Y-6024000D02*
G75*
G02*
X18447000Y-6024000I-25000J0D01*
G01*
X18447000Y-6024000D02*
G75*
G02*
X18497000Y-6024000I25000J0D01*
G01*
X18447000Y-6049000D02*
X18497000Y-6049000D01*
X18497000Y-5999000D02*
G75*
G02*
X18497000Y-6049000I0J-25000D01*
G01*
X18497000Y-5999000D02*
X18447000Y-5999000D01*
X18447000Y-5999000D02*
G75*
G03*
X18447000Y-6049000I0J-25000D01*
G01*
X18497000Y-7924000D02*
G75*
G02*
X18447000Y-7924000I-25000J0D01*
G01*
X18447000Y-7924000D02*
G75*
G02*
X18497000Y-7924000I25000J0D01*
G01*
X18447000Y-7949000D02*
X18497000Y-7949000D01*
X18497000Y-7899000D02*
G75*
G02*
X18497000Y-7949000I0J-25000D01*
G01*
X18497000Y-7899000D02*
X18447000Y-7899000D01*
X18447000Y-7899000D02*
G75*
G03*
X18447000Y-7949000I0J-25000D01*
G01*
X18497000Y-9824000D02*
G75*
G02*
X18447000Y-9824000I-25000J0D01*
G01*
X18447000Y-9824000D02*
G75*
G02*
X18497000Y-9824000I25000J0D01*
G01*
X18447000Y-9849000D02*
X18497000Y-9849000D01*
X18497000Y-9799000D02*
G75*
G02*
X18497000Y-9849000I0J-25000D01*
G01*
X18497000Y-9799000D02*
X18447000Y-9799000D01*
X18447000Y-9799000D02*
G75*
G03*
X18447000Y-9849000I0J-25000D01*
G01*
X19143711Y-12106896D02*
G75*
G02*
X19093711Y-12106896I-25000J0D01*
G01*
X19093711Y-12106896D02*
G75*
G02*
X19143711Y-12106896I25000J0D01*
G01*
X19097929Y-12135499D02*
X19147314Y-12127677D01*
X19139492Y-12078293D02*
G75*
G02*
X19147314Y-12127677I3911J-24692D01*
G01*
X19139492Y-12078293D02*
X19090108Y-12086114D01*
X19090108Y-12086114D02*
G75*
G03*
X19097929Y-12135499I3911J-24692D01*
G01*
X19606268Y-11831141D02*
G75*
G02*
X19556268Y-11831141I-25000J0D01*
G01*
X19556268Y-11831141D02*
G75*
G02*
X19606268Y-11831141I25000J0D01*
G01*
X19560487Y-11859744D02*
X19609871Y-11851922D01*
X19602049Y-11802538D02*
G75*
G02*
X19609871Y-11851922I3911J-24692D01*
G01*
X19602049Y-11802538D02*
X19552665Y-11810359D01*
X19552665Y-11810359D02*
G75*
G03*
X19560487Y-11859744I3911J-24692D01*
G01*
X19897000Y-5924000D02*
G75*
G02*
X19847000Y-5924000I-25000J0D01*
G01*
X19847000Y-5924000D02*
G75*
G02*
X19897000Y-5924000I25000J0D01*
G01*
X19847000Y-5949000D02*
X19897000Y-5949000D01*
X19897000Y-5899000D02*
G75*
G02*
X19897000Y-5949000I0J-25000D01*
G01*
X19897000Y-5899000D02*
X19847000Y-5899000D01*
X19847000Y-5899000D02*
G75*
G03*
X19847000Y-5949000I0J-25000D01*
G01*
X19897000Y-7824000D02*
G75*
G02*
X19847000Y-7824000I-25000J0D01*
G01*
X19847000Y-7824000D02*
G75*
G02*
X19897000Y-7824000I25000J0D01*
G01*
X19847000Y-7849000D02*
X19897000Y-7849000D01*
X19897000Y-7799000D02*
G75*
G02*
X19897000Y-7849000I0J-25000D01*
G01*
X19897000Y-7799000D02*
X19847000Y-7799000D01*
X19847000Y-7799000D02*
G75*
G03*
X19847000Y-7849000I0J-25000D01*
G01*
X19897000Y-9724000D02*
G75*
G02*
X19847000Y-9724000I-25000J0D01*
G01*
X19847000Y-9724000D02*
G75*
G02*
X19897000Y-9724000I25000J0D01*
G01*
X19847000Y-9749000D02*
X19897000Y-9749000D01*
X19897000Y-9699000D02*
G75*
G02*
X19897000Y-9749000I0J-25000D01*
G01*
X19897000Y-9699000D02*
X19847000Y-9699000D01*
X19847000Y-9699000D02*
G75*
G03*
X19847000Y-9749000I0J-25000D01*
G01*
X20397000Y-5724000D02*
G75*
G02*
X20347000Y-5724000I-25000J0D01*
G01*
X20347000Y-5724000D02*
G75*
G02*
X20397000Y-5724000I25000J0D01*
G01*
X20347000Y-5749000D02*
X20397000Y-5749000D01*
X20397000Y-5699000D02*
G75*
G02*
X20397000Y-5749000I0J-25000D01*
G01*
X20397000Y-5699000D02*
X20347000Y-5699000D01*
X20347000Y-5699000D02*
G75*
G03*
X20347000Y-5749000I0J-25000D01*
G01*
X20397000Y-7624000D02*
G75*
G02*
X20347000Y-7624000I-25000J0D01*
G01*
X20347000Y-7624000D02*
G75*
G02*
X20397000Y-7624000I25000J0D01*
G01*
X20347000Y-7649000D02*
X20397000Y-7649000D01*
X20397000Y-7599000D02*
G75*
G02*
X20397000Y-7649000I0J-25000D01*
G01*
X20397000Y-7599000D02*
X20347000Y-7599000D01*
X20347000Y-7599000D02*
G75*
G03*
X20347000Y-7649000I0J-25000D01*
G01*
X20397000Y-9524000D02*
G75*
G02*
X20347000Y-9524000I-25000J0D01*
G01*
X20347000Y-9524000D02*
G75*
G02*
X20397000Y-9524000I25000J0D01*
G01*
X20347000Y-9549000D02*
X20397000Y-9549000D01*
X20397000Y-9499000D02*
G75*
G02*
X20397000Y-9549000I0J-25000D01*
G01*
X20397000Y-9499000D02*
X20347000Y-9499000D01*
X20347000Y-9499000D02*
G75*
G03*
X20347000Y-9549000I0J-25000D01*
G01*
X21797000Y-4924000D02*
G75*
G02*
X21747000Y-4924000I-25000J0D01*
G01*
X21747000Y-4924000D02*
G75*
G02*
X21797000Y-4924000I25000J0D01*
G01*
X21747000Y-4949000D02*
X21797000Y-4949000D01*
X21797000Y-4899000D02*
G75*
G02*
X21797000Y-4949000I0J-25000D01*
G01*
X21797000Y-4899000D02*
X21747000Y-4899000D01*
X21747000Y-4899000D02*
G75*
G03*
X21747000Y-4949000I0J-25000D01*
G01*
X21797000Y-6824000D02*
G75*
G02*
X21747000Y-6824000I-25000J0D01*
G01*
X21747000Y-6824000D02*
G75*
G02*
X21797000Y-6824000I25000J0D01*
G01*
X21747000Y-6849000D02*
X21797000Y-6849000D01*
X21797000Y-6799000D02*
G75*
G02*
X21797000Y-6849000I0J-25000D01*
G01*
X21797000Y-6799000D02*
X21747000Y-6799000D01*
X21747000Y-6799000D02*
G75*
G03*
X21747000Y-6849000I0J-25000D01*
G01*
X21797000Y-8724000D02*
G75*
G02*
X21747000Y-8724000I-25000J0D01*
G01*
X21747000Y-8724000D02*
G75*
G02*
X21797000Y-8724000I25000J0D01*
G01*
X21747000Y-8749000D02*
X21797000Y-8749000D01*
X21797000Y-8699000D02*
G75*
G02*
X21797000Y-8749000I0J-25000D01*
G01*
X21797000Y-8699000D02*
X21747000Y-8699000D01*
X21747000Y-8699000D02*
G75*
G03*
X21747000Y-8749000I0J-25000D01*
G01*
X22297000Y-4724000D02*
G75*
G02*
X22247000Y-4724000I-25000J0D01*
G01*
X22247000Y-4724000D02*
G75*
G02*
X22297000Y-4724000I25000J0D01*
G01*
X22247000Y-4749000D02*
X22297000Y-4749000D01*
X22297000Y-4699000D02*
G75*
G02*
X22297000Y-4749000I0J-25000D01*
G01*
X22297000Y-4699000D02*
X22247000Y-4699000D01*
X22247000Y-4699000D02*
G75*
G03*
X22247000Y-4749000I0J-25000D01*
G01*
X22297000Y-6624000D02*
G75*
G02*
X22247000Y-6624000I-25000J0D01*
G01*
X22247000Y-6624000D02*
G75*
G02*
X22297000Y-6624000I25000J0D01*
G01*
X22247000Y-6649000D02*
X22297000Y-6649000D01*
X22297000Y-6599000D02*
G75*
G02*
X22297000Y-6649000I0J-25000D01*
G01*
X22297000Y-6599000D02*
X22247000Y-6599000D01*
X22247000Y-6599000D02*
G75*
G03*
X22247000Y-6649000I0J-25000D01*
G01*
X22297000Y-8524000D02*
G75*
G02*
X22247000Y-8524000I-25000J0D01*
G01*
X22247000Y-8524000D02*
G75*
G02*
X22297000Y-8524000I25000J0D01*
G01*
X22247000Y-8549000D02*
X22297000Y-8549000D01*
X22297000Y-8499000D02*
G75*
G02*
X22297000Y-8549000I0J-25000D01*
G01*
X22297000Y-8499000D02*
X22247000Y-8499000D01*
X22247000Y-8499000D02*
G75*
G03*
X22247000Y-8549000I0J-25000D01*
G01*
X23682022Y-10081868D02*
G75*
G02*
X23632022Y-10081868I-25000J0D01*
G01*
X23632022Y-10081868D02*
G75*
G02*
X23682022Y-10081868I25000J0D01*
G01*
X23629938Y-10104594D02*
X23679748Y-10108952D01*
X23684106Y-10059142D02*
G75*
G02*
X23679748Y-10108952I-2179J-24905D01*
G01*
X23684106Y-10059142D02*
X23634296Y-10054784D01*
X23634296Y-10054784D02*
G75*
G03*
X23629938Y-10104594I-2179J-24905D01*
G01*
X23847618Y-8189098D02*
G75*
G02*
X23797618Y-8189098I-25000J0D01*
G01*
X23797618Y-8189098D02*
G75*
G02*
X23847618Y-8189098I25000J0D01*
G01*
X23795534Y-8211824D02*
X23845344Y-8216182D01*
X23849701Y-8166372D02*
G75*
G02*
X23845344Y-8216182I-2179J-24905D01*
G01*
X23849701Y-8166372D02*
X23799892Y-8162014D01*
X23799892Y-8162014D02*
G75*
G03*
X23795534Y-8211824I-2179J-24905D01*
G01*
X24013214Y-6296328D02*
G75*
G02*
X23963214Y-6296328I-25000J0D01*
G01*
X23963214Y-6296328D02*
G75*
G02*
X24013214Y-6296328I25000J0D01*
G01*
X23961130Y-6319054D02*
X24010940Y-6323412D01*
X24015297Y-6273602D02*
G75*
G02*
X24010940Y-6323412I-2179J-24905D01*
G01*
X24015297Y-6273602D02*
X23965488Y-6269244D01*
X23965488Y-6269244D02*
G75*
G03*
X23961130Y-6319054I-2179J-24905D01*
G01*
X24197550Y-9926207D02*
G75*
G02*
X24147550Y-9926207I-25000J0D01*
G01*
X24147550Y-9926207D02*
G75*
G02*
X24197550Y-9926207I25000J0D01*
G01*
X24145466Y-9948933D02*
X24195276Y-9953291D01*
X24199634Y-9903481D02*
G75*
G02*
X24195276Y-9953291I-2179J-24905D01*
G01*
X24199634Y-9903481D02*
X24149824Y-9899123D01*
X24149824Y-9899123D02*
G75*
G03*
X24145466Y-9948933I-2179J-24905D01*
G01*
X24363146Y-8033437D02*
G75*
G02*
X24313146Y-8033437I-25000J0D01*
G01*
X24313146Y-8033437D02*
G75*
G02*
X24363146Y-8033437I25000J0D01*
G01*
X24311062Y-8056163D02*
X24360872Y-8060521D01*
X24365230Y-8010711D02*
G75*
G02*
X24360872Y-8060521I-2179J-24905D01*
G01*
X24365230Y-8010711D02*
X24315420Y-8006353D01*
X24315420Y-8006353D02*
G75*
G03*
X24311062Y-8056163I-2179J-24905D01*
G01*
X24528742Y-6140667D02*
G75*
G02*
X24478742Y-6140667I-25000J0D01*
G01*
X24478742Y-6140667D02*
G75*
G02*
X24528742Y-6140667I25000J0D01*
G01*
X24476658Y-6163393D02*
X24526468Y-6167751D01*
X24530826Y-6117941D02*
G75*
G02*
X24526468Y-6167751I-2179J-24905D01*
G01*
X24530826Y-6117941D02*
X24481016Y-6113583D01*
X24481016Y-6113583D02*
G75*
G03*
X24476658Y-6163393I-2179J-24905D01*
G01*
X25357134Y-11753156D02*
G75*
G02*
X25307134Y-11753156I-25000J0D01*
G01*
X25307134Y-11753156D02*
G75*
G02*
X25357134Y-11753156I25000J0D01*
G01*
X25303676Y-11774136D02*
X25353114Y-11781613D01*
X25360591Y-11732175D02*
G75*
G02*
X25353114Y-11781613I-3738J-24719D01*
G01*
X25360591Y-11732175D02*
X25311153Y-11724699D01*
X25311153Y-11724699D02*
G75*
G03*
X25303676Y-11774136I-3738J-24719D01*
G01*
X25641251Y-9874519D02*
G75*
G02*
X25591251Y-9874519I-25000J0D01*
G01*
X25591251Y-9874519D02*
G75*
G02*
X25641251Y-9874519I25000J0D01*
G01*
X25587794Y-9895499D02*
X25637231Y-9902976D01*
X25644708Y-9853538D02*
G75*
G02*
X25637231Y-9902976I-3738J-24719D01*
G01*
X25644708Y-9853538D02*
X25595270Y-9846062D01*
X25595270Y-9846062D02*
G75*
G03*
X25587794Y-9895499I-3738J-24719D01*
G01*
X25881419Y-11630172D02*
G75*
G02*
X25831419Y-11630172I-25000J0D01*
G01*
X25831419Y-11630172D02*
G75*
G02*
X25881419Y-11630172I25000J0D01*
G01*
X25827962Y-11651153D02*
X25877400Y-11658630D01*
X25884876Y-11609192D02*
G75*
G02*
X25877400Y-11658630I-3738J-24719D01*
G01*
X25884876Y-11609192D02*
X25835439Y-11601715D01*
X25835439Y-11601715D02*
G75*
G03*
X25827962Y-11651153I-3738J-24719D01*
G01*
X25925368Y-7995882D02*
G75*
G02*
X25875368Y-7995882I-25000J0D01*
G01*
X25875368Y-7995882D02*
G75*
G02*
X25925368Y-7995882I25000J0D01*
G01*
X25871911Y-8016862D02*
X25921349Y-8024339D01*
X25928825Y-7974901D02*
G75*
G02*
X25921349Y-8024339I-3738J-24719D01*
G01*
X25928825Y-7974901D02*
X25879388Y-7967424D01*
X25879388Y-7967424D02*
G75*
G03*
X25871911Y-8016862I-3738J-24719D01*
G01*
X26165536Y-9751535D02*
G75*
G02*
X26115536Y-9751535I-25000J0D01*
G01*
X26115536Y-9751535D02*
G75*
G02*
X26165536Y-9751535I25000J0D01*
G01*
X26112079Y-9772516D02*
X26161517Y-9779993D01*
X26168994Y-9730555D02*
G75*
G02*
X26161517Y-9779993I-3738J-24719D01*
G01*
X26168994Y-9730555D02*
X26119556Y-9723078D01*
X26119556Y-9723078D02*
G75*
G03*
X26112079Y-9772516I-3738J-24719D01*
G01*
X26449653Y-7872898D02*
G75*
G02*
X26399653Y-7872898I-25000J0D01*
G01*
X26399653Y-7872898D02*
G75*
G02*
X26449653Y-7872898I25000J0D01*
G01*
X26396196Y-7893879D02*
X26445634Y-7901355D01*
X26453111Y-7851918D02*
G75*
G02*
X26445634Y-7901355I-3738J-24719D01*
G01*
X26453111Y-7851918D02*
X26403673Y-7844441D01*
X26403673Y-7844441D02*
G75*
G03*
X26396196Y-7893879I-3738J-24719D01*
G01*
D14*
X12954000Y-6549390D02*
X12954000Y-6658610D01*
X12899390Y-6604000D02*
X13008610Y-6604000D01*
X12954000Y-6803390D02*
X12954000Y-6912610D01*
X12899390Y-6858000D02*
X13008610Y-6858000D01*
X12954000Y-7057390D02*
X12954000Y-7166610D01*
X12899390Y-7112000D02*
X13008610Y-7112000D01*
X12954000Y-7311390D02*
X12954000Y-7420610D01*
X12899390Y-7366000D02*
X13008610Y-7366000D01*
X12954000Y-7565390D02*
X12954000Y-7674610D01*
X12899390Y-7620000D02*
X13008610Y-7620000D01*
X12954000Y-7819390D02*
X12954000Y-7928610D01*
X12899390Y-7874000D02*
X13008610Y-7874000D01*
X12954000Y-8073390D02*
X12954000Y-8182610D01*
X12899390Y-8128000D02*
X13008610Y-8128000D01*
X12954000Y-8327390D02*
X12954000Y-8436610D01*
X12899390Y-8382000D02*
X13008610Y-8382000D01*
X12954000Y-8581390D02*
X12954000Y-8690610D01*
X12899390Y-8636000D02*
X13008610Y-8636000D01*
X12954000Y-8835390D02*
X12954000Y-8944610D01*
X12899390Y-8890000D02*
X13008610Y-8890000D01*
X12954000Y-9089390D02*
X12954000Y-9198610D01*
X12899390Y-9144000D02*
X13008610Y-9144000D01*
X12954000Y-9343390D02*
X12954000Y-9452610D01*
X12899390Y-9398000D02*
X13008610Y-9398000D01*
X12954000Y-9597390D02*
X12954000Y-9706610D01*
X12899390Y-9652000D02*
X13008610Y-9652000D01*
X13208000Y-9089390D02*
X13208000Y-9198610D01*
X13153390Y-9144000D02*
X13262610Y-9144000D01*
X13462000Y-9089390D02*
X13462000Y-9198610D01*
X13407390Y-9144000D02*
X13516610Y-9144000D01*
X13716000Y-9089390D02*
X13716000Y-9198610D01*
X13661390Y-9144000D02*
X13770610Y-9144000D01*
X14478000Y-6549390D02*
X14478000Y-6658610D01*
X14423390Y-6604000D02*
X14532610Y-6604000D01*
X14478000Y-6803390D02*
X14478000Y-6912610D01*
X14423390Y-6858000D02*
X14532610Y-6858000D01*
X14478000Y-7057390D02*
X14478000Y-7166610D01*
X14423390Y-7112000D02*
X14532610Y-7112000D01*
X14478000Y-7311390D02*
X14478000Y-7420610D01*
X14423390Y-7366000D02*
X14532610Y-7366000D01*
X14478000Y-7565390D02*
X14478000Y-7674610D01*
X14423390Y-7620000D02*
X14532610Y-7620000D01*
X14478000Y-7819390D02*
X14478000Y-7928610D01*
X14423390Y-7874000D02*
X14532610Y-7874000D01*
X14478000Y-8073390D02*
X14478000Y-8182610D01*
X14423390Y-8128000D02*
X14532610Y-8128000D01*
X14478000Y-8327390D02*
X14478000Y-8436610D01*
X14423390Y-8382000D02*
X14532610Y-8382000D01*
X14478000Y-8581390D02*
X14478000Y-8690610D01*
X14423390Y-8636000D02*
X14532610Y-8636000D01*
X14478000Y-8835390D02*
X14478000Y-8944610D01*
X14423390Y-8890000D02*
X14532610Y-8890000D01*
X14478000Y-9089390D02*
X14478000Y-9198610D01*
X14423390Y-9144000D02*
X14532610Y-9144000D01*
X14478000Y-9343390D02*
X14478000Y-9452610D01*
X14423390Y-9398000D02*
X14532610Y-9398000D01*
X14478000Y-9597390D02*
X14478000Y-9706610D01*
X14423390Y-9652000D02*
X14532610Y-9652000D01*
X15748000Y-6549390D02*
X15748000Y-6658610D01*
X15693390Y-6604000D02*
X15802610Y-6604000D01*
X15748000Y-6803390D02*
X15748000Y-6912610D01*
X15693390Y-6858000D02*
X15802610Y-6858000D01*
X15748000Y-7057390D02*
X15748000Y-7166610D01*
X15693390Y-7112000D02*
X15802610Y-7112000D01*
X15748000Y-7311390D02*
X15748000Y-7420610D01*
X15693390Y-7366000D02*
X15802610Y-7366000D01*
X15748000Y-7565390D02*
X15748000Y-7674610D01*
X15693390Y-7620000D02*
X15802610Y-7620000D01*
X15748000Y-7819390D02*
X15748000Y-7928610D01*
X15693390Y-7874000D02*
X15802610Y-7874000D01*
X15748000Y-8073390D02*
X15748000Y-8182610D01*
X15693390Y-8128000D02*
X15802610Y-8128000D01*
X15748000Y-8327390D02*
X15748000Y-8436610D01*
X15693390Y-8382000D02*
X15802610Y-8382000D01*
X15748000Y-8581390D02*
X15748000Y-8690610D01*
X15693390Y-8636000D02*
X15802610Y-8636000D01*
X15748000Y-8835390D02*
X15748000Y-8944610D01*
X15693390Y-8890000D02*
X15802610Y-8890000D01*
X15748000Y-9089390D02*
X15748000Y-9198610D01*
X15693390Y-9144000D02*
X15802610Y-9144000D01*
X15748000Y-9343390D02*
X15748000Y-9452610D01*
X15693390Y-9398000D02*
X15802610Y-9398000D01*
X15748000Y-9597390D02*
X15748000Y-9706610D01*
X15693390Y-9652000D02*
X15802610Y-9652000D01*
X16002000Y-9089390D02*
X16002000Y-9198610D01*
X15947390Y-9144000D02*
X16056610Y-9144000D01*
X16256000Y-9089390D02*
X16256000Y-9198610D01*
X16201390Y-9144000D02*
X16310610Y-9144000D01*
X16510000Y-9089390D02*
X16510000Y-9198610D01*
X16455390Y-9144000D02*
X16564610Y-9144000D01*
X17272000Y-6549390D02*
X17272000Y-6658610D01*
X17217390Y-6604000D02*
X17326610Y-6604000D01*
X17272000Y-6803390D02*
X17272000Y-6912610D01*
X17217390Y-6858000D02*
X17326610Y-6858000D01*
X17272000Y-7057390D02*
X17272000Y-7166610D01*
X17217390Y-7112000D02*
X17326610Y-7112000D01*
X17272000Y-7311390D02*
X17272000Y-7420610D01*
X17217390Y-7366000D02*
X17326610Y-7366000D01*
X17272000Y-7565390D02*
X17272000Y-7674610D01*
X17217390Y-7620000D02*
X17326610Y-7620000D01*
X17272000Y-7819390D02*
X17272000Y-7928610D01*
X17217390Y-7874000D02*
X17326610Y-7874000D01*
X17272000Y-8073390D02*
X17272000Y-8182610D01*
X17217390Y-8128000D02*
X17326610Y-8128000D01*
X17272000Y-8327390D02*
X17272000Y-8436610D01*
X17217390Y-8382000D02*
X17326610Y-8382000D01*
X17272000Y-8581390D02*
X17272000Y-8690610D01*
X17217390Y-8636000D02*
X17326610Y-8636000D01*
X17272000Y-8835390D02*
X17272000Y-8944610D01*
X17217390Y-8890000D02*
X17326610Y-8890000D01*
X17272000Y-9089390D02*
X17272000Y-9198610D01*
X17217390Y-9144000D02*
X17326610Y-9144000D01*
X17272000Y-9343390D02*
X17272000Y-9452610D01*
X17217390Y-9398000D02*
X17326610Y-9398000D01*
X17272000Y-9597390D02*
X17272000Y-9706610D01*
X17217390Y-9652000D02*
X17326610Y-9652000D01*
D12*
X3069245Y-14097717D02*
X3069245Y-13897717D01*
X3069245Y-13897717D02*
X3116864Y-13897717D01*
X3116864Y-13897717D02*
X3145435Y-13907241D01*
X3145435Y-13907241D02*
X3164483Y-13926289D01*
X3164483Y-13926289D02*
X3174007Y-13945336D01*
X3174007Y-13945336D02*
X3183531Y-13983432D01*
X3183531Y-13983432D02*
X3183531Y-14012003D01*
X3183531Y-14012003D02*
X3174007Y-14050098D01*
X3174007Y-14050098D02*
X3164483Y-14069146D01*
X3164483Y-14069146D02*
X3145435Y-14088194D01*
X3145435Y-14088194D02*
X3116864Y-14097717D01*
X3116864Y-14097717D02*
X3069245Y-14097717D01*
X3269245Y-14097717D02*
X3269245Y-13964384D01*
X3269245Y-14002479D02*
X3278769Y-13983432D01*
X3278769Y-13983432D02*
X3288292Y-13973908D01*
X3288292Y-13973908D02*
X3307340Y-13964384D01*
X3307340Y-13964384D02*
X3326388Y-13964384D01*
X3393054Y-14097717D02*
X3393054Y-13964384D01*
X3393054Y-13897717D02*
X3383531Y-13907241D01*
X3383531Y-13907241D02*
X3393054Y-13916765D01*
X3393054Y-13916765D02*
X3402578Y-13907241D01*
X3402578Y-13907241D02*
X3393054Y-13897717D01*
X3393054Y-13897717D02*
X3393054Y-13916765D01*
X3516864Y-14097717D02*
X3497816Y-14088194D01*
X3497816Y-14088194D02*
X3488292Y-14069146D01*
X3488292Y-14069146D02*
X3488292Y-13897717D01*
X3621626Y-14097717D02*
X3602578Y-14088194D01*
X3602578Y-14088194D02*
X3593054Y-14069146D01*
X3593054Y-14069146D02*
X3593054Y-13897717D01*
X3850197Y-14097717D02*
X3850197Y-13897717D01*
X3850197Y-13897717D02*
X3916864Y-14040574D01*
X3916864Y-14040574D02*
X3983531Y-13897717D01*
X3983531Y-13897717D02*
X3983531Y-14097717D01*
X4164483Y-14097717D02*
X4164483Y-13992955D01*
X4164483Y-13992955D02*
X4154959Y-13973908D01*
X4154959Y-13973908D02*
X4135912Y-13964384D01*
X4135912Y-13964384D02*
X4097816Y-13964384D01*
X4097816Y-13964384D02*
X4078769Y-13973908D01*
X4164483Y-14088194D02*
X4145435Y-14097717D01*
X4145435Y-14097717D02*
X4097816Y-14097717D01*
X4097816Y-14097717D02*
X4078769Y-14088194D01*
X4078769Y-14088194D02*
X4069245Y-14069146D01*
X4069245Y-14069146D02*
X4069245Y-14050098D01*
X4069245Y-14050098D02*
X4078769Y-14031051D01*
X4078769Y-14031051D02*
X4097816Y-14021527D01*
X4097816Y-14021527D02*
X4145435Y-14021527D01*
X4145435Y-14021527D02*
X4164483Y-14012003D01*
X4259721Y-13964384D02*
X4259721Y-14164384D01*
X4259721Y-13973908D02*
X4278769Y-13964384D01*
X4278769Y-13964384D02*
X4316864Y-13964384D01*
X4316864Y-13964384D02*
X4335912Y-13973908D01*
X4335912Y-13973908D02*
X4345435Y-13983432D01*
X4345435Y-13983432D02*
X4354959Y-14002479D01*
X4354959Y-14002479D02*
X4354959Y-14059622D01*
X4354959Y-14059622D02*
X4345435Y-14078670D01*
X4345435Y-14078670D02*
X4335912Y-14088194D01*
X4335912Y-14088194D02*
X4316864Y-14097717D01*
X4316864Y-14097717D02*
X4278769Y-14097717D01*
X4278769Y-14097717D02*
X4259721Y-14088194D01*
X4440674Y-14078670D02*
X4450197Y-14088194D01*
X4450197Y-14088194D02*
X4440674Y-14097717D01*
X4440674Y-14097717D02*
X4431150Y-14088194D01*
X4431150Y-14088194D02*
X4440674Y-14078670D01*
X4440674Y-14078670D02*
X4440674Y-14097717D01*
X4440674Y-13973908D02*
X4450197Y-13983432D01*
X4450197Y-13983432D02*
X4440674Y-13992955D01*
X4440674Y-13992955D02*
X4431150Y-13983432D01*
X4431150Y-13983432D02*
X4440674Y-13973908D01*
X4440674Y-13973908D02*
X4440674Y-13992955D01*
D13*
X2778468Y-14411234D02*
X2808468Y-14441234D01*
X2808468Y-14411234D02*
X2778468Y-14441234D01*
D12*
X3107340Y-14317717D02*
X3126388Y-14317717D01*
X3126388Y-14317717D02*
X3145435Y-14327241D01*
X3145435Y-14327241D02*
X3154959Y-14336765D01*
X3154959Y-14336765D02*
X3164483Y-14355813D01*
X3164483Y-14355813D02*
X3174007Y-14393908D01*
X3174007Y-14393908D02*
X3174007Y-14441527D01*
X3174007Y-14441527D02*
X3164483Y-14479622D01*
X3164483Y-14479622D02*
X3154959Y-14498670D01*
X3154959Y-14498670D02*
X3145435Y-14508194D01*
X3145435Y-14508194D02*
X3126388Y-14517717D01*
X3126388Y-14517717D02*
X3107340Y-14517717D01*
X3107340Y-14517717D02*
X3088292Y-14508194D01*
X3088292Y-14508194D02*
X3078769Y-14498670D01*
X3078769Y-14498670D02*
X3069245Y-14479622D01*
X3069245Y-14479622D02*
X3059721Y-14441527D01*
X3059721Y-14441527D02*
X3059721Y-14393908D01*
X3059721Y-14393908D02*
X3069245Y-14355813D01*
X3069245Y-14355813D02*
X3078769Y-14336765D01*
X3078769Y-14336765D02*
X3088292Y-14327241D01*
X3088292Y-14327241D02*
X3107340Y-14317717D01*
X3259721Y-14498670D02*
X3269245Y-14508194D01*
X3269245Y-14508194D02*
X3259721Y-14517717D01*
X3259721Y-14517717D02*
X3250197Y-14508194D01*
X3250197Y-14508194D02*
X3259721Y-14498670D01*
X3259721Y-14498670D02*
X3259721Y-14517717D01*
X3335912Y-14317717D02*
X3459721Y-14317717D01*
X3459721Y-14317717D02*
X3393054Y-14393908D01*
X3393054Y-14393908D02*
X3421626Y-14393908D01*
X3421626Y-14393908D02*
X3440673Y-14403432D01*
X3440673Y-14403432D02*
X3450197Y-14412955D01*
X3450197Y-14412955D02*
X3459721Y-14432003D01*
X3459721Y-14432003D02*
X3459721Y-14479622D01*
X3459721Y-14479622D02*
X3450197Y-14498670D01*
X3450197Y-14498670D02*
X3440673Y-14508194D01*
X3440673Y-14508194D02*
X3421626Y-14517717D01*
X3421626Y-14517717D02*
X3364483Y-14517717D01*
X3364483Y-14517717D02*
X3345435Y-14508194D01*
X3345435Y-14508194D02*
X3335912Y-14498670D01*
X3583531Y-14317717D02*
X3602578Y-14317717D01*
X3602578Y-14317717D02*
X3621626Y-14327241D01*
X3621626Y-14327241D02*
X3631150Y-14336765D01*
X3631150Y-14336765D02*
X3640673Y-14355813D01*
X3640673Y-14355813D02*
X3650197Y-14393908D01*
X3650197Y-14393908D02*
X3650197Y-14441527D01*
X3650197Y-14441527D02*
X3640673Y-14479622D01*
X3640673Y-14479622D02*
X3631150Y-14498670D01*
X3631150Y-14498670D02*
X3621626Y-14508194D01*
X3621626Y-14508194D02*
X3602578Y-14517717D01*
X3602578Y-14517717D02*
X3583531Y-14517717D01*
X3583531Y-14517717D02*
X3564483Y-14508194D01*
X3564483Y-14508194D02*
X3554959Y-14498670D01*
X3554959Y-14498670D02*
X3545435Y-14479622D01*
X3545435Y-14479622D02*
X3535912Y-14441527D01*
X3535912Y-14441527D02*
X3535912Y-14393908D01*
X3535912Y-14393908D02*
X3545435Y-14355813D01*
X3545435Y-14355813D02*
X3554959Y-14336765D01*
X3554959Y-14336765D02*
X3564483Y-14327241D01*
X3564483Y-14327241D02*
X3583531Y-14317717D01*
X3774007Y-14317717D02*
X3793054Y-14317717D01*
X3793054Y-14317717D02*
X3812102Y-14327241D01*
X3812102Y-14327241D02*
X3821626Y-14336765D01*
X3821626Y-14336765D02*
X3831150Y-14355813D01*
X3831150Y-14355813D02*
X3840673Y-14393908D01*
X3840673Y-14393908D02*
X3840673Y-14441527D01*
X3840673Y-14441527D02*
X3831150Y-14479622D01*
X3831150Y-14479622D02*
X3821626Y-14498670D01*
X3821626Y-14498670D02*
X3812102Y-14508194D01*
X3812102Y-14508194D02*
X3793054Y-14517717D01*
X3793054Y-14517717D02*
X3774007Y-14517717D01*
X3774007Y-14517717D02*
X3754959Y-14508194D01*
X3754959Y-14508194D02*
X3745435Y-14498670D01*
X3745435Y-14498670D02*
X3735912Y-14479622D01*
X3735912Y-14479622D02*
X3726388Y-14441527D01*
X3726388Y-14441527D02*
X3726388Y-14393908D01*
X3726388Y-14393908D02*
X3735912Y-14355813D01*
X3735912Y-14355813D02*
X3745435Y-14336765D01*
X3745435Y-14336765D02*
X3754959Y-14327241D01*
X3754959Y-14327241D02*
X3774007Y-14317717D01*
X3926388Y-14517717D02*
X3926388Y-14384384D01*
X3926388Y-14403432D02*
X3935912Y-14393908D01*
X3935912Y-14393908D02*
X3954959Y-14384384D01*
X3954959Y-14384384D02*
X3983531Y-14384384D01*
X3983531Y-14384384D02*
X4002578Y-14393908D01*
X4002578Y-14393908D02*
X4012102Y-14412955D01*
X4012102Y-14412955D02*
X4012102Y-14517717D01*
X4012102Y-14412955D02*
X4021626Y-14393908D01*
X4021626Y-14393908D02*
X4040673Y-14384384D01*
X4040673Y-14384384D02*
X4069245Y-14384384D01*
X4069245Y-14384384D02*
X4088293Y-14393908D01*
X4088293Y-14393908D02*
X4097816Y-14412955D01*
X4097816Y-14412955D02*
X4097816Y-14517717D01*
X4193054Y-14517717D02*
X4193054Y-14384384D01*
X4193054Y-14403432D02*
X4202578Y-14393908D01*
X4202578Y-14393908D02*
X4221626Y-14384384D01*
X4221626Y-14384384D02*
X4250197Y-14384384D01*
X4250197Y-14384384D02*
X4269245Y-14393908D01*
X4269245Y-14393908D02*
X4278769Y-14412955D01*
X4278769Y-14412955D02*
X4278769Y-14517717D01*
X4278769Y-14412955D02*
X4288293Y-14393908D01*
X4288293Y-14393908D02*
X4307340Y-14384384D01*
X4307340Y-14384384D02*
X4335912Y-14384384D01*
X4335912Y-14384384D02*
X4354959Y-14393908D01*
X4354959Y-14393908D02*
X4364483Y-14412955D01*
X4364483Y-14412955D02*
X4364483Y-14517717D01*
X4754959Y-14308194D02*
X4583531Y-14565336D01*
X5012102Y-14317717D02*
X5031150Y-14317717D01*
X5031150Y-14317717D02*
X5050198Y-14327241D01*
X5050198Y-14327241D02*
X5059721Y-14336765D01*
X5059721Y-14336765D02*
X5069245Y-14355813D01*
X5069245Y-14355813D02*
X5078769Y-14393908D01*
X5078769Y-14393908D02*
X5078769Y-14441527D01*
X5078769Y-14441527D02*
X5069245Y-14479622D01*
X5069245Y-14479622D02*
X5059721Y-14498670D01*
X5059721Y-14498670D02*
X5050198Y-14508194D01*
X5050198Y-14508194D02*
X5031150Y-14517717D01*
X5031150Y-14517717D02*
X5012102Y-14517717D01*
X5012102Y-14517717D02*
X4993055Y-14508194D01*
X4993055Y-14508194D02*
X4983531Y-14498670D01*
X4983531Y-14498670D02*
X4974007Y-14479622D01*
X4974007Y-14479622D02*
X4964483Y-14441527D01*
X4964483Y-14441527D02*
X4964483Y-14393908D01*
X4964483Y-14393908D02*
X4974007Y-14355813D01*
X4974007Y-14355813D02*
X4983531Y-14336765D01*
X4983531Y-14336765D02*
X4993055Y-14327241D01*
X4993055Y-14327241D02*
X5012102Y-14317717D01*
X5164483Y-14498670D02*
X5174007Y-14508194D01*
X5174007Y-14508194D02*
X5164483Y-14517717D01*
X5164483Y-14517717D02*
X5154959Y-14508194D01*
X5154959Y-14508194D02*
X5164483Y-14498670D01*
X5164483Y-14498670D02*
X5164483Y-14517717D01*
X5297817Y-14317717D02*
X5316864Y-14317717D01*
X5316864Y-14317717D02*
X5335912Y-14327241D01*
X5335912Y-14327241D02*
X5345436Y-14336765D01*
X5345436Y-14336765D02*
X5354959Y-14355813D01*
X5354959Y-14355813D02*
X5364483Y-14393908D01*
X5364483Y-14393908D02*
X5364483Y-14441527D01*
X5364483Y-14441527D02*
X5354959Y-14479622D01*
X5354959Y-14479622D02*
X5345436Y-14498670D01*
X5345436Y-14498670D02*
X5335912Y-14508194D01*
X5335912Y-14508194D02*
X5316864Y-14517717D01*
X5316864Y-14517717D02*
X5297817Y-14517717D01*
X5297817Y-14517717D02*
X5278769Y-14508194D01*
X5278769Y-14508194D02*
X5269245Y-14498670D01*
X5269245Y-14498670D02*
X5259721Y-14479622D01*
X5259721Y-14479622D02*
X5250198Y-14441527D01*
X5250198Y-14441527D02*
X5250198Y-14393908D01*
X5250198Y-14393908D02*
X5259721Y-14355813D01*
X5259721Y-14355813D02*
X5269245Y-14336765D01*
X5269245Y-14336765D02*
X5278769Y-14327241D01*
X5278769Y-14327241D02*
X5297817Y-14317717D01*
X5554959Y-14517717D02*
X5440674Y-14517717D01*
X5497817Y-14517717D02*
X5497817Y-14317717D01*
X5497817Y-14317717D02*
X5478769Y-14346289D01*
X5478769Y-14346289D02*
X5459721Y-14365336D01*
X5459721Y-14365336D02*
X5440674Y-14374860D01*
X5745436Y-14517717D02*
X5631150Y-14517717D01*
X5688293Y-14517717D02*
X5688293Y-14317717D01*
X5688293Y-14317717D02*
X5669245Y-14346289D01*
X5669245Y-14346289D02*
X5650197Y-14365336D01*
X5650197Y-14365336D02*
X5631150Y-14374860D01*
X5859721Y-14403432D02*
X5840674Y-14393908D01*
X5840674Y-14393908D02*
X5831150Y-14384384D01*
X5831150Y-14384384D02*
X5821626Y-14365336D01*
X5821626Y-14365336D02*
X5821626Y-14355813D01*
X5821626Y-14355813D02*
X5831150Y-14336765D01*
X5831150Y-14336765D02*
X5840674Y-14327241D01*
X5840674Y-14327241D02*
X5859721Y-14317717D01*
X5859721Y-14317717D02*
X5897817Y-14317717D01*
X5897817Y-14317717D02*
X5916864Y-14327241D01*
X5916864Y-14327241D02*
X5926388Y-14336765D01*
X5926388Y-14336765D02*
X5935912Y-14355813D01*
X5935912Y-14355813D02*
X5935912Y-14365336D01*
X5935912Y-14365336D02*
X5926388Y-14384384D01*
X5926388Y-14384384D02*
X5916864Y-14393908D01*
X5916864Y-14393908D02*
X5897817Y-14403432D01*
X5897817Y-14403432D02*
X5859721Y-14403432D01*
X5859721Y-14403432D02*
X5840674Y-14412955D01*
X5840674Y-14412955D02*
X5831150Y-14422479D01*
X5831150Y-14422479D02*
X5821626Y-14441527D01*
X5821626Y-14441527D02*
X5821626Y-14479622D01*
X5821626Y-14479622D02*
X5831150Y-14498670D01*
X5831150Y-14498670D02*
X5840674Y-14508194D01*
X5840674Y-14508194D02*
X5859721Y-14517717D01*
X5859721Y-14517717D02*
X5897817Y-14517717D01*
X5897817Y-14517717D02*
X5916864Y-14508194D01*
X5916864Y-14508194D02*
X5926388Y-14498670D01*
X5926388Y-14498670D02*
X5935912Y-14479622D01*
X5935912Y-14479622D02*
X5935912Y-14441527D01*
X5935912Y-14441527D02*
X5926388Y-14422479D01*
X5926388Y-14422479D02*
X5916864Y-14412955D01*
X5916864Y-14412955D02*
X5897817Y-14403432D01*
X6012102Y-14317717D02*
X6012102Y-14355813D01*
X6088293Y-14317717D02*
X6088293Y-14355813D01*
X6383531Y-14593908D02*
X6374007Y-14584384D01*
X6374007Y-14584384D02*
X6354959Y-14555813D01*
X6354959Y-14555813D02*
X6345436Y-14536765D01*
X6345436Y-14536765D02*
X6335912Y-14508194D01*
X6335912Y-14508194D02*
X6326388Y-14460574D01*
X6326388Y-14460574D02*
X6326388Y-14422479D01*
X6326388Y-14422479D02*
X6335912Y-14374860D01*
X6335912Y-14374860D02*
X6345436Y-14346289D01*
X6345436Y-14346289D02*
X6354959Y-14327241D01*
X6354959Y-14327241D02*
X6374007Y-14298670D01*
X6374007Y-14298670D02*
X6383531Y-14289146D01*
X6545436Y-14384384D02*
X6545436Y-14517717D01*
X6497817Y-14308194D02*
X6450198Y-14451051D01*
X6450198Y-14451051D02*
X6574007Y-14451051D01*
X6802579Y-14517717D02*
X6802579Y-14317717D01*
X6888293Y-14517717D02*
X6888293Y-14412955D01*
X6888293Y-14412955D02*
X6878769Y-14393908D01*
X6878769Y-14393908D02*
X6859721Y-14384384D01*
X6859721Y-14384384D02*
X6831150Y-14384384D01*
X6831150Y-14384384D02*
X6812102Y-14393908D01*
X6812102Y-14393908D02*
X6802579Y-14403432D01*
X7012102Y-14517717D02*
X6993055Y-14508194D01*
X6993055Y-14508194D02*
X6983531Y-14498670D01*
X6983531Y-14498670D02*
X6974007Y-14479622D01*
X6974007Y-14479622D02*
X6974007Y-14422479D01*
X6974007Y-14422479D02*
X6983531Y-14403432D01*
X6983531Y-14403432D02*
X6993055Y-14393908D01*
X6993055Y-14393908D02*
X7012102Y-14384384D01*
X7012102Y-14384384D02*
X7040674Y-14384384D01*
X7040674Y-14384384D02*
X7059721Y-14393908D01*
X7059721Y-14393908D02*
X7069245Y-14403432D01*
X7069245Y-14403432D02*
X7078769Y-14422479D01*
X7078769Y-14422479D02*
X7078769Y-14479622D01*
X7078769Y-14479622D02*
X7069245Y-14498670D01*
X7069245Y-14498670D02*
X7059721Y-14508194D01*
X7059721Y-14508194D02*
X7040674Y-14517717D01*
X7040674Y-14517717D02*
X7012102Y-14517717D01*
X7193055Y-14517717D02*
X7174007Y-14508194D01*
X7174007Y-14508194D02*
X7164483Y-14489146D01*
X7164483Y-14489146D02*
X7164483Y-14317717D01*
X7345436Y-14508194D02*
X7326388Y-14517717D01*
X7326388Y-14517717D02*
X7288293Y-14517717D01*
X7288293Y-14517717D02*
X7269245Y-14508194D01*
X7269245Y-14508194D02*
X7259721Y-14489146D01*
X7259721Y-14489146D02*
X7259721Y-14412955D01*
X7259721Y-14412955D02*
X7269245Y-14393908D01*
X7269245Y-14393908D02*
X7288293Y-14384384D01*
X7288293Y-14384384D02*
X7326388Y-14384384D01*
X7326388Y-14384384D02*
X7345436Y-14393908D01*
X7345436Y-14393908D02*
X7354960Y-14412955D01*
X7354960Y-14412955D02*
X7354960Y-14432003D01*
X7354960Y-14432003D02*
X7259721Y-14451051D01*
X7431150Y-14508194D02*
X7450198Y-14517717D01*
X7450198Y-14517717D02*
X7488293Y-14517717D01*
X7488293Y-14517717D02*
X7507341Y-14508194D01*
X7507341Y-14508194D02*
X7516864Y-14489146D01*
X7516864Y-14489146D02*
X7516864Y-14479622D01*
X7516864Y-14479622D02*
X7507341Y-14460574D01*
X7507341Y-14460574D02*
X7488293Y-14451051D01*
X7488293Y-14451051D02*
X7459721Y-14451051D01*
X7459721Y-14451051D02*
X7440674Y-14441527D01*
X7440674Y-14441527D02*
X7431150Y-14422479D01*
X7431150Y-14422479D02*
X7431150Y-14412955D01*
X7431150Y-14412955D02*
X7440674Y-14393908D01*
X7440674Y-14393908D02*
X7459721Y-14384384D01*
X7459721Y-14384384D02*
X7488293Y-14384384D01*
X7488293Y-14384384D02*
X7507341Y-14393908D01*
X7583531Y-14593908D02*
X7593055Y-14584384D01*
X7593055Y-14584384D02*
X7612102Y-14555813D01*
X7612102Y-14555813D02*
X7621626Y-14536765D01*
X7621626Y-14536765D02*
X7631150Y-14508194D01*
X7631150Y-14508194D02*
X7640674Y-14460574D01*
X7640674Y-14460574D02*
X7640674Y-14422479D01*
X7640674Y-14422479D02*
X7631150Y-14374860D01*
X7631150Y-14374860D02*
X7621626Y-14346289D01*
X7621626Y-14346289D02*
X7612102Y-14327241D01*
X7612102Y-14327241D02*
X7593055Y-14298670D01*
X7593055Y-14298670D02*
X7583531Y-14289146D01*
D13*
X2808468Y-14690234D02*
G75*
G02*
X2758468Y-14690234I-25000J0D01*
G01*
X2758468Y-14690234D02*
G75*
G02*
X2808468Y-14690234I25000J0D01*
G01*
D12*
X3107340Y-14581717D02*
X3126388Y-14581717D01*
X3126388Y-14581717D02*
X3145435Y-14591241D01*
X3145435Y-14591241D02*
X3154959Y-14600765D01*
X3154959Y-14600765D02*
X3164483Y-14619813D01*
X3164483Y-14619813D02*
X3174007Y-14657908D01*
X3174007Y-14657908D02*
X3174007Y-14705527D01*
X3174007Y-14705527D02*
X3164483Y-14743622D01*
X3164483Y-14743622D02*
X3154959Y-14762670D01*
X3154959Y-14762670D02*
X3145435Y-14772194D01*
X3145435Y-14772194D02*
X3126388Y-14781717D01*
X3126388Y-14781717D02*
X3107340Y-14781717D01*
X3107340Y-14781717D02*
X3088292Y-14772194D01*
X3088292Y-14772194D02*
X3078769Y-14762670D01*
X3078769Y-14762670D02*
X3069245Y-14743622D01*
X3069245Y-14743622D02*
X3059721Y-14705527D01*
X3059721Y-14705527D02*
X3059721Y-14657908D01*
X3059721Y-14657908D02*
X3069245Y-14619813D01*
X3069245Y-14619813D02*
X3078769Y-14600765D01*
X3078769Y-14600765D02*
X3088292Y-14591241D01*
X3088292Y-14591241D02*
X3107340Y-14581717D01*
X3259721Y-14762670D02*
X3269245Y-14772194D01*
X3269245Y-14772194D02*
X3259721Y-14781717D01*
X3259721Y-14781717D02*
X3250197Y-14772194D01*
X3250197Y-14772194D02*
X3259721Y-14762670D01*
X3259721Y-14762670D02*
X3259721Y-14781717D01*
X3450197Y-14581717D02*
X3354959Y-14581717D01*
X3354959Y-14581717D02*
X3345435Y-14676955D01*
X3345435Y-14676955D02*
X3354959Y-14667432D01*
X3354959Y-14667432D02*
X3374007Y-14657908D01*
X3374007Y-14657908D02*
X3421626Y-14657908D01*
X3421626Y-14657908D02*
X3440673Y-14667432D01*
X3440673Y-14667432D02*
X3450197Y-14676955D01*
X3450197Y-14676955D02*
X3459721Y-14696003D01*
X3459721Y-14696003D02*
X3459721Y-14743622D01*
X3459721Y-14743622D02*
X3450197Y-14762670D01*
X3450197Y-14762670D02*
X3440673Y-14772194D01*
X3440673Y-14772194D02*
X3421626Y-14781717D01*
X3421626Y-14781717D02*
X3374007Y-14781717D01*
X3374007Y-14781717D02*
X3354959Y-14772194D01*
X3354959Y-14772194D02*
X3345435Y-14762670D01*
X3583531Y-14581717D02*
X3602578Y-14581717D01*
X3602578Y-14581717D02*
X3621626Y-14591241D01*
X3621626Y-14591241D02*
X3631150Y-14600765D01*
X3631150Y-14600765D02*
X3640673Y-14619813D01*
X3640673Y-14619813D02*
X3650197Y-14657908D01*
X3650197Y-14657908D02*
X3650197Y-14705527D01*
X3650197Y-14705527D02*
X3640673Y-14743622D01*
X3640673Y-14743622D02*
X3631150Y-14762670D01*
X3631150Y-14762670D02*
X3621626Y-14772194D01*
X3621626Y-14772194D02*
X3602578Y-14781717D01*
X3602578Y-14781717D02*
X3583531Y-14781717D01*
X3583531Y-14781717D02*
X3564483Y-14772194D01*
X3564483Y-14772194D02*
X3554959Y-14762670D01*
X3554959Y-14762670D02*
X3545435Y-14743622D01*
X3545435Y-14743622D02*
X3535912Y-14705527D01*
X3535912Y-14705527D02*
X3535912Y-14657908D01*
X3535912Y-14657908D02*
X3545435Y-14619813D01*
X3545435Y-14619813D02*
X3554959Y-14600765D01*
X3554959Y-14600765D02*
X3564483Y-14591241D01*
X3564483Y-14591241D02*
X3583531Y-14581717D01*
X3774007Y-14581717D02*
X3793054Y-14581717D01*
X3793054Y-14581717D02*
X3812102Y-14591241D01*
X3812102Y-14591241D02*
X3821626Y-14600765D01*
X3821626Y-14600765D02*
X3831150Y-14619813D01*
X3831150Y-14619813D02*
X3840673Y-14657908D01*
X3840673Y-14657908D02*
X3840673Y-14705527D01*
X3840673Y-14705527D02*
X3831150Y-14743622D01*
X3831150Y-14743622D02*
X3821626Y-14762670D01*
X3821626Y-14762670D02*
X3812102Y-14772194D01*
X3812102Y-14772194D02*
X3793054Y-14781717D01*
X3793054Y-14781717D02*
X3774007Y-14781717D01*
X3774007Y-14781717D02*
X3754959Y-14772194D01*
X3754959Y-14772194D02*
X3745435Y-14762670D01*
X3745435Y-14762670D02*
X3735912Y-14743622D01*
X3735912Y-14743622D02*
X3726388Y-14705527D01*
X3726388Y-14705527D02*
X3726388Y-14657908D01*
X3726388Y-14657908D02*
X3735912Y-14619813D01*
X3735912Y-14619813D02*
X3745435Y-14600765D01*
X3745435Y-14600765D02*
X3754959Y-14591241D01*
X3754959Y-14591241D02*
X3774007Y-14581717D01*
X3926388Y-14781717D02*
X3926388Y-14648384D01*
X3926388Y-14667432D02*
X3935912Y-14657908D01*
X3935912Y-14657908D02*
X3954959Y-14648384D01*
X3954959Y-14648384D02*
X3983531Y-14648384D01*
X3983531Y-14648384D02*
X4002578Y-14657908D01*
X4002578Y-14657908D02*
X4012102Y-14676955D01*
X4012102Y-14676955D02*
X4012102Y-14781717D01*
X4012102Y-14676955D02*
X4021626Y-14657908D01*
X4021626Y-14657908D02*
X4040673Y-14648384D01*
X4040673Y-14648384D02*
X4069245Y-14648384D01*
X4069245Y-14648384D02*
X4088293Y-14657908D01*
X4088293Y-14657908D02*
X4097816Y-14676955D01*
X4097816Y-14676955D02*
X4097816Y-14781717D01*
X4193054Y-14781717D02*
X4193054Y-14648384D01*
X4193054Y-14667432D02*
X4202578Y-14657908D01*
X4202578Y-14657908D02*
X4221626Y-14648384D01*
X4221626Y-14648384D02*
X4250197Y-14648384D01*
X4250197Y-14648384D02*
X4269245Y-14657908D01*
X4269245Y-14657908D02*
X4278769Y-14676955D01*
X4278769Y-14676955D02*
X4278769Y-14781717D01*
X4278769Y-14676955D02*
X4288293Y-14657908D01*
X4288293Y-14657908D02*
X4307340Y-14648384D01*
X4307340Y-14648384D02*
X4335912Y-14648384D01*
X4335912Y-14648384D02*
X4354959Y-14657908D01*
X4354959Y-14657908D02*
X4364483Y-14676955D01*
X4364483Y-14676955D02*
X4364483Y-14781717D01*
X4754959Y-14572194D02*
X4583531Y-14829336D01*
X5012102Y-14581717D02*
X5031150Y-14581717D01*
X5031150Y-14581717D02*
X5050198Y-14591241D01*
X5050198Y-14591241D02*
X5059721Y-14600765D01*
X5059721Y-14600765D02*
X5069245Y-14619813D01*
X5069245Y-14619813D02*
X5078769Y-14657908D01*
X5078769Y-14657908D02*
X5078769Y-14705527D01*
X5078769Y-14705527D02*
X5069245Y-14743622D01*
X5069245Y-14743622D02*
X5059721Y-14762670D01*
X5059721Y-14762670D02*
X5050198Y-14772194D01*
X5050198Y-14772194D02*
X5031150Y-14781717D01*
X5031150Y-14781717D02*
X5012102Y-14781717D01*
X5012102Y-14781717D02*
X4993055Y-14772194D01*
X4993055Y-14772194D02*
X4983531Y-14762670D01*
X4983531Y-14762670D02*
X4974007Y-14743622D01*
X4974007Y-14743622D02*
X4964483Y-14705527D01*
X4964483Y-14705527D02*
X4964483Y-14657908D01*
X4964483Y-14657908D02*
X4974007Y-14619813D01*
X4974007Y-14619813D02*
X4983531Y-14600765D01*
X4983531Y-14600765D02*
X4993055Y-14591241D01*
X4993055Y-14591241D02*
X5012102Y-14581717D01*
X5164483Y-14762670D02*
X5174007Y-14772194D01*
X5174007Y-14772194D02*
X5164483Y-14781717D01*
X5164483Y-14781717D02*
X5154959Y-14772194D01*
X5154959Y-14772194D02*
X5164483Y-14762670D01*
X5164483Y-14762670D02*
X5164483Y-14781717D01*
X5297817Y-14581717D02*
X5316864Y-14581717D01*
X5316864Y-14581717D02*
X5335912Y-14591241D01*
X5335912Y-14591241D02*
X5345436Y-14600765D01*
X5345436Y-14600765D02*
X5354959Y-14619813D01*
X5354959Y-14619813D02*
X5364483Y-14657908D01*
X5364483Y-14657908D02*
X5364483Y-14705527D01*
X5364483Y-14705527D02*
X5354959Y-14743622D01*
X5354959Y-14743622D02*
X5345436Y-14762670D01*
X5345436Y-14762670D02*
X5335912Y-14772194D01*
X5335912Y-14772194D02*
X5316864Y-14781717D01*
X5316864Y-14781717D02*
X5297817Y-14781717D01*
X5297817Y-14781717D02*
X5278769Y-14772194D01*
X5278769Y-14772194D02*
X5269245Y-14762670D01*
X5269245Y-14762670D02*
X5259721Y-14743622D01*
X5259721Y-14743622D02*
X5250198Y-14705527D01*
X5250198Y-14705527D02*
X5250198Y-14657908D01*
X5250198Y-14657908D02*
X5259721Y-14619813D01*
X5259721Y-14619813D02*
X5269245Y-14600765D01*
X5269245Y-14600765D02*
X5278769Y-14591241D01*
X5278769Y-14591241D02*
X5297817Y-14581717D01*
X5554959Y-14781717D02*
X5440674Y-14781717D01*
X5497817Y-14781717D02*
X5497817Y-14581717D01*
X5497817Y-14581717D02*
X5478769Y-14610289D01*
X5478769Y-14610289D02*
X5459721Y-14629336D01*
X5459721Y-14629336D02*
X5440674Y-14638860D01*
X5650197Y-14781717D02*
X5688293Y-14781717D01*
X5688293Y-14781717D02*
X5707340Y-14772194D01*
X5707340Y-14772194D02*
X5716864Y-14762670D01*
X5716864Y-14762670D02*
X5735912Y-14734098D01*
X5735912Y-14734098D02*
X5745436Y-14696003D01*
X5745436Y-14696003D02*
X5745436Y-14619813D01*
X5745436Y-14619813D02*
X5735912Y-14600765D01*
X5735912Y-14600765D02*
X5726388Y-14591241D01*
X5726388Y-14591241D02*
X5707340Y-14581717D01*
X5707340Y-14581717D02*
X5669245Y-14581717D01*
X5669245Y-14581717D02*
X5650197Y-14591241D01*
X5650197Y-14591241D02*
X5640674Y-14600765D01*
X5640674Y-14600765D02*
X5631150Y-14619813D01*
X5631150Y-14619813D02*
X5631150Y-14667432D01*
X5631150Y-14667432D02*
X5640674Y-14686479D01*
X5640674Y-14686479D02*
X5650197Y-14696003D01*
X5650197Y-14696003D02*
X5669245Y-14705527D01*
X5669245Y-14705527D02*
X5707340Y-14705527D01*
X5707340Y-14705527D02*
X5726388Y-14696003D01*
X5726388Y-14696003D02*
X5735912Y-14686479D01*
X5735912Y-14686479D02*
X5745436Y-14667432D01*
X5812102Y-14581717D02*
X5945436Y-14581717D01*
X5945436Y-14581717D02*
X5859721Y-14781717D01*
X6012102Y-14581717D02*
X6012102Y-14619813D01*
X6088293Y-14581717D02*
X6088293Y-14619813D01*
X6383531Y-14857908D02*
X6374007Y-14848384D01*
X6374007Y-14848384D02*
X6354959Y-14819813D01*
X6354959Y-14819813D02*
X6345436Y-14800765D01*
X6345436Y-14800765D02*
X6335912Y-14772194D01*
X6335912Y-14772194D02*
X6326388Y-14724574D01*
X6326388Y-14724574D02*
X6326388Y-14686479D01*
X6326388Y-14686479D02*
X6335912Y-14638860D01*
X6335912Y-14638860D02*
X6345436Y-14610289D01*
X6345436Y-14610289D02*
X6354959Y-14591241D01*
X6354959Y-14591241D02*
X6374007Y-14562670D01*
X6374007Y-14562670D02*
X6383531Y-14553146D01*
X6497817Y-14581717D02*
X6516864Y-14581717D01*
X6516864Y-14581717D02*
X6535912Y-14591241D01*
X6535912Y-14591241D02*
X6545436Y-14600765D01*
X6545436Y-14600765D02*
X6554959Y-14619813D01*
X6554959Y-14619813D02*
X6564483Y-14657908D01*
X6564483Y-14657908D02*
X6564483Y-14705527D01*
X6564483Y-14705527D02*
X6554959Y-14743622D01*
X6554959Y-14743622D02*
X6545436Y-14762670D01*
X6545436Y-14762670D02*
X6535912Y-14772194D01*
X6535912Y-14772194D02*
X6516864Y-14781717D01*
X6516864Y-14781717D02*
X6497817Y-14781717D01*
X6497817Y-14781717D02*
X6478769Y-14772194D01*
X6478769Y-14772194D02*
X6469245Y-14762670D01*
X6469245Y-14762670D02*
X6459721Y-14743622D01*
X6459721Y-14743622D02*
X6450198Y-14705527D01*
X6450198Y-14705527D02*
X6450198Y-14657908D01*
X6450198Y-14657908D02*
X6459721Y-14619813D01*
X6459721Y-14619813D02*
X6469245Y-14600765D01*
X6469245Y-14600765D02*
X6478769Y-14591241D01*
X6478769Y-14591241D02*
X6497817Y-14581717D01*
X6802579Y-14781717D02*
X6802579Y-14581717D01*
X6888293Y-14781717D02*
X6888293Y-14676955D01*
X6888293Y-14676955D02*
X6878769Y-14657908D01*
X6878769Y-14657908D02*
X6859721Y-14648384D01*
X6859721Y-14648384D02*
X6831150Y-14648384D01*
X6831150Y-14648384D02*
X6812102Y-14657908D01*
X6812102Y-14657908D02*
X6802579Y-14667432D01*
X7012102Y-14781717D02*
X6993055Y-14772194D01*
X6993055Y-14772194D02*
X6983531Y-14762670D01*
X6983531Y-14762670D02*
X6974007Y-14743622D01*
X6974007Y-14743622D02*
X6974007Y-14686479D01*
X6974007Y-14686479D02*
X6983531Y-14667432D01*
X6983531Y-14667432D02*
X6993055Y-14657908D01*
X6993055Y-14657908D02*
X7012102Y-14648384D01*
X7012102Y-14648384D02*
X7040674Y-14648384D01*
X7040674Y-14648384D02*
X7059721Y-14657908D01*
X7059721Y-14657908D02*
X7069245Y-14667432D01*
X7069245Y-14667432D02*
X7078769Y-14686479D01*
X7078769Y-14686479D02*
X7078769Y-14743622D01*
X7078769Y-14743622D02*
X7069245Y-14762670D01*
X7069245Y-14762670D02*
X7059721Y-14772194D01*
X7059721Y-14772194D02*
X7040674Y-14781717D01*
X7040674Y-14781717D02*
X7012102Y-14781717D01*
X7193055Y-14781717D02*
X7174007Y-14772194D01*
X7174007Y-14772194D02*
X7164483Y-14753146D01*
X7164483Y-14753146D02*
X7164483Y-14581717D01*
X7345436Y-14772194D02*
X7326388Y-14781717D01*
X7326388Y-14781717D02*
X7288293Y-14781717D01*
X7288293Y-14781717D02*
X7269245Y-14772194D01*
X7269245Y-14772194D02*
X7259721Y-14753146D01*
X7259721Y-14753146D02*
X7259721Y-14676955D01*
X7259721Y-14676955D02*
X7269245Y-14657908D01*
X7269245Y-14657908D02*
X7288293Y-14648384D01*
X7288293Y-14648384D02*
X7326388Y-14648384D01*
X7326388Y-14648384D02*
X7345436Y-14657908D01*
X7345436Y-14657908D02*
X7354960Y-14676955D01*
X7354960Y-14676955D02*
X7354960Y-14696003D01*
X7354960Y-14696003D02*
X7259721Y-14715051D01*
X7431150Y-14772194D02*
X7450198Y-14781717D01*
X7450198Y-14781717D02*
X7488293Y-14781717D01*
X7488293Y-14781717D02*
X7507341Y-14772194D01*
X7507341Y-14772194D02*
X7516864Y-14753146D01*
X7516864Y-14753146D02*
X7516864Y-14743622D01*
X7516864Y-14743622D02*
X7507341Y-14724574D01*
X7507341Y-14724574D02*
X7488293Y-14715051D01*
X7488293Y-14715051D02*
X7459721Y-14715051D01*
X7459721Y-14715051D02*
X7440674Y-14705527D01*
X7440674Y-14705527D02*
X7431150Y-14686479D01*
X7431150Y-14686479D02*
X7431150Y-14676955D01*
X7431150Y-14676955D02*
X7440674Y-14657908D01*
X7440674Y-14657908D02*
X7459721Y-14648384D01*
X7459721Y-14648384D02*
X7488293Y-14648384D01*
X7488293Y-14648384D02*
X7507341Y-14657908D01*
X7754960Y-14705527D02*
X7907341Y-14705527D01*
X7831150Y-14781717D02*
X7831150Y-14629336D01*
X8240674Y-14581717D02*
X8202579Y-14581717D01*
X8202579Y-14581717D02*
X8183531Y-14591241D01*
X8183531Y-14591241D02*
X8174007Y-14600765D01*
X8174007Y-14600765D02*
X8154960Y-14629336D01*
X8154960Y-14629336D02*
X8145436Y-14667432D01*
X8145436Y-14667432D02*
X8145436Y-14743622D01*
X8145436Y-14743622D02*
X8154960Y-14762670D01*
X8154960Y-14762670D02*
X8164483Y-14772194D01*
X8164483Y-14772194D02*
X8183531Y-14781717D01*
X8183531Y-14781717D02*
X8221626Y-14781717D01*
X8221626Y-14781717D02*
X8240674Y-14772194D01*
X8240674Y-14772194D02*
X8250198Y-14762670D01*
X8250198Y-14762670D02*
X8259722Y-14743622D01*
X8259722Y-14743622D02*
X8259722Y-14696003D01*
X8259722Y-14696003D02*
X8250198Y-14676955D01*
X8250198Y-14676955D02*
X8240674Y-14667432D01*
X8240674Y-14667432D02*
X8221626Y-14657908D01*
X8221626Y-14657908D02*
X8183531Y-14657908D01*
X8183531Y-14657908D02*
X8164483Y-14667432D01*
X8164483Y-14667432D02*
X8154960Y-14676955D01*
X8154960Y-14676955D02*
X8145436Y-14696003D01*
X8374007Y-14667432D02*
X8354960Y-14657908D01*
X8354960Y-14657908D02*
X8345436Y-14648384D01*
X8345436Y-14648384D02*
X8335912Y-14629336D01*
X8335912Y-14629336D02*
X8335912Y-14619813D01*
X8335912Y-14619813D02*
X8345436Y-14600765D01*
X8345436Y-14600765D02*
X8354960Y-14591241D01*
X8354960Y-14591241D02*
X8374007Y-14581717D01*
X8374007Y-14581717D02*
X8412103Y-14581717D01*
X8412103Y-14581717D02*
X8431150Y-14591241D01*
X8431150Y-14591241D02*
X8440674Y-14600765D01*
X8440674Y-14600765D02*
X8450198Y-14619813D01*
X8450198Y-14619813D02*
X8450198Y-14629336D01*
X8450198Y-14629336D02*
X8440674Y-14648384D01*
X8440674Y-14648384D02*
X8431150Y-14657908D01*
X8431150Y-14657908D02*
X8412103Y-14667432D01*
X8412103Y-14667432D02*
X8374007Y-14667432D01*
X8374007Y-14667432D02*
X8354960Y-14676955D01*
X8354960Y-14676955D02*
X8345436Y-14686479D01*
X8345436Y-14686479D02*
X8335912Y-14705527D01*
X8335912Y-14705527D02*
X8335912Y-14743622D01*
X8335912Y-14743622D02*
X8345436Y-14762670D01*
X8345436Y-14762670D02*
X8354960Y-14772194D01*
X8354960Y-14772194D02*
X8374007Y-14781717D01*
X8374007Y-14781717D02*
X8412103Y-14781717D01*
X8412103Y-14781717D02*
X8431150Y-14772194D01*
X8431150Y-14772194D02*
X8440674Y-14762670D01*
X8440674Y-14762670D02*
X8450198Y-14743622D01*
X8450198Y-14743622D02*
X8450198Y-14705527D01*
X8450198Y-14705527D02*
X8440674Y-14686479D01*
X8440674Y-14686479D02*
X8431150Y-14676955D01*
X8431150Y-14676955D02*
X8412103Y-14667432D01*
X8678769Y-14772194D02*
X8697817Y-14781717D01*
X8697817Y-14781717D02*
X8735912Y-14781717D01*
X8735912Y-14781717D02*
X8754960Y-14772194D01*
X8754960Y-14772194D02*
X8764484Y-14753146D01*
X8764484Y-14753146D02*
X8764484Y-14743622D01*
X8764484Y-14743622D02*
X8754960Y-14724574D01*
X8754960Y-14724574D02*
X8735912Y-14715051D01*
X8735912Y-14715051D02*
X8707341Y-14715051D01*
X8707341Y-14715051D02*
X8688293Y-14705527D01*
X8688293Y-14705527D02*
X8678769Y-14686479D01*
X8678769Y-14686479D02*
X8678769Y-14676955D01*
X8678769Y-14676955D02*
X8688293Y-14657908D01*
X8688293Y-14657908D02*
X8707341Y-14648384D01*
X8707341Y-14648384D02*
X8735912Y-14648384D01*
X8735912Y-14648384D02*
X8754960Y-14657908D01*
X8878769Y-14781717D02*
X8859722Y-14772194D01*
X8859722Y-14772194D02*
X8850198Y-14753146D01*
X8850198Y-14753146D02*
X8850198Y-14581717D01*
X8983531Y-14781717D02*
X8964484Y-14772194D01*
X8964484Y-14772194D02*
X8954960Y-14762670D01*
X8954960Y-14762670D02*
X8945436Y-14743622D01*
X8945436Y-14743622D02*
X8945436Y-14686479D01*
X8945436Y-14686479D02*
X8954960Y-14667432D01*
X8954960Y-14667432D02*
X8964484Y-14657908D01*
X8964484Y-14657908D02*
X8983531Y-14648384D01*
X8983531Y-14648384D02*
X9012103Y-14648384D01*
X9012103Y-14648384D02*
X9031150Y-14657908D01*
X9031150Y-14657908D02*
X9040674Y-14667432D01*
X9040674Y-14667432D02*
X9050198Y-14686479D01*
X9050198Y-14686479D02*
X9050198Y-14743622D01*
X9050198Y-14743622D02*
X9040674Y-14762670D01*
X9040674Y-14762670D02*
X9031150Y-14772194D01*
X9031150Y-14772194D02*
X9012103Y-14781717D01*
X9012103Y-14781717D02*
X8983531Y-14781717D01*
X9107341Y-14648384D02*
X9183531Y-14648384D01*
X9135912Y-14581717D02*
X9135912Y-14753146D01*
X9135912Y-14753146D02*
X9145436Y-14772194D01*
X9145436Y-14772194D02*
X9164484Y-14781717D01*
X9164484Y-14781717D02*
X9183531Y-14781717D01*
X9240674Y-14772194D02*
X9259722Y-14781717D01*
X9259722Y-14781717D02*
X9297817Y-14781717D01*
X9297817Y-14781717D02*
X9316865Y-14772194D01*
X9316865Y-14772194D02*
X9326388Y-14753146D01*
X9326388Y-14753146D02*
X9326388Y-14743622D01*
X9326388Y-14743622D02*
X9316865Y-14724574D01*
X9316865Y-14724574D02*
X9297817Y-14715051D01*
X9297817Y-14715051D02*
X9269246Y-14715051D01*
X9269246Y-14715051D02*
X9250198Y-14705527D01*
X9250198Y-14705527D02*
X9240674Y-14686479D01*
X9240674Y-14686479D02*
X9240674Y-14676955D01*
X9240674Y-14676955D02*
X9250198Y-14657908D01*
X9250198Y-14657908D02*
X9269246Y-14648384D01*
X9269246Y-14648384D02*
X9297817Y-14648384D01*
X9297817Y-14648384D02*
X9316865Y-14657908D01*
X9393055Y-14857908D02*
X9402579Y-14848384D01*
X9402579Y-14848384D02*
X9421627Y-14819813D01*
X9421627Y-14819813D02*
X9431150Y-14800765D01*
X9431150Y-14800765D02*
X9440674Y-14772194D01*
X9440674Y-14772194D02*
X9450198Y-14724574D01*
X9450198Y-14724574D02*
X9450198Y-14686479D01*
X9450198Y-14686479D02*
X9440674Y-14638860D01*
X9440674Y-14638860D02*
X9431150Y-14610289D01*
X9431150Y-14610289D02*
X9421627Y-14591241D01*
X9421627Y-14591241D02*
X9402579Y-14562670D01*
X9402579Y-14562670D02*
X9393055Y-14553146D01*
D14*
X2753858Y-14899624D02*
X2753858Y-15008844D01*
X2699248Y-14954234D02*
X2808468Y-14954234D01*
D12*
X3174007Y-15045717D02*
X3059721Y-15045717D01*
X3116864Y-15045717D02*
X3116864Y-14845717D01*
X3116864Y-14845717D02*
X3097816Y-14874289D01*
X3097816Y-14874289D02*
X3078769Y-14893336D01*
X3078769Y-14893336D02*
X3059721Y-14902860D01*
X3259721Y-15026670D02*
X3269245Y-15036194D01*
X3269245Y-15036194D02*
X3259721Y-15045717D01*
X3259721Y-15045717D02*
X3250197Y-15036194D01*
X3250197Y-15036194D02*
X3259721Y-15026670D01*
X3259721Y-15026670D02*
X3259721Y-15045717D01*
X3393054Y-14845717D02*
X3412102Y-14845717D01*
X3412102Y-14845717D02*
X3431150Y-14855241D01*
X3431150Y-14855241D02*
X3440673Y-14864765D01*
X3440673Y-14864765D02*
X3450197Y-14883813D01*
X3450197Y-14883813D02*
X3459721Y-14921908D01*
X3459721Y-14921908D02*
X3459721Y-14969527D01*
X3459721Y-14969527D02*
X3450197Y-15007622D01*
X3450197Y-15007622D02*
X3440673Y-15026670D01*
X3440673Y-15026670D02*
X3431150Y-15036194D01*
X3431150Y-15036194D02*
X3412102Y-15045717D01*
X3412102Y-15045717D02*
X3393054Y-15045717D01*
X3393054Y-15045717D02*
X3374007Y-15036194D01*
X3374007Y-15036194D02*
X3364483Y-15026670D01*
X3364483Y-15026670D02*
X3354959Y-15007622D01*
X3354959Y-15007622D02*
X3345435Y-14969527D01*
X3345435Y-14969527D02*
X3345435Y-14921908D01*
X3345435Y-14921908D02*
X3354959Y-14883813D01*
X3354959Y-14883813D02*
X3364483Y-14864765D01*
X3364483Y-14864765D02*
X3374007Y-14855241D01*
X3374007Y-14855241D02*
X3393054Y-14845717D01*
X3554959Y-15045717D02*
X3593054Y-15045717D01*
X3593054Y-15045717D02*
X3612102Y-15036194D01*
X3612102Y-15036194D02*
X3621626Y-15026670D01*
X3621626Y-15026670D02*
X3640673Y-14998098D01*
X3640673Y-14998098D02*
X3650197Y-14960003D01*
X3650197Y-14960003D02*
X3650197Y-14883813D01*
X3650197Y-14883813D02*
X3640673Y-14864765D01*
X3640673Y-14864765D02*
X3631150Y-14855241D01*
X3631150Y-14855241D02*
X3612102Y-14845717D01*
X3612102Y-14845717D02*
X3574007Y-14845717D01*
X3574007Y-14845717D02*
X3554959Y-14855241D01*
X3554959Y-14855241D02*
X3545435Y-14864765D01*
X3545435Y-14864765D02*
X3535912Y-14883813D01*
X3535912Y-14883813D02*
X3535912Y-14931432D01*
X3535912Y-14931432D02*
X3545435Y-14950479D01*
X3545435Y-14950479D02*
X3554959Y-14960003D01*
X3554959Y-14960003D02*
X3574007Y-14969527D01*
X3574007Y-14969527D02*
X3612102Y-14969527D01*
X3612102Y-14969527D02*
X3631150Y-14960003D01*
X3631150Y-14960003D02*
X3640673Y-14950479D01*
X3640673Y-14950479D02*
X3650197Y-14931432D01*
X3726388Y-14864765D02*
X3735912Y-14855241D01*
X3735912Y-14855241D02*
X3754959Y-14845717D01*
X3754959Y-14845717D02*
X3802578Y-14845717D01*
X3802578Y-14845717D02*
X3821626Y-14855241D01*
X3821626Y-14855241D02*
X3831150Y-14864765D01*
X3831150Y-14864765D02*
X3840673Y-14883813D01*
X3840673Y-14883813D02*
X3840673Y-14902860D01*
X3840673Y-14902860D02*
X3831150Y-14931432D01*
X3831150Y-14931432D02*
X3716864Y-15045717D01*
X3716864Y-15045717D02*
X3840673Y-15045717D01*
X3926388Y-15045717D02*
X3926388Y-14912384D01*
X3926388Y-14931432D02*
X3935912Y-14921908D01*
X3935912Y-14921908D02*
X3954959Y-14912384D01*
X3954959Y-14912384D02*
X3983531Y-14912384D01*
X3983531Y-14912384D02*
X4002578Y-14921908D01*
X4002578Y-14921908D02*
X4012102Y-14940955D01*
X4012102Y-14940955D02*
X4012102Y-15045717D01*
X4012102Y-14940955D02*
X4021626Y-14921908D01*
X4021626Y-14921908D02*
X4040673Y-14912384D01*
X4040673Y-14912384D02*
X4069245Y-14912384D01*
X4069245Y-14912384D02*
X4088293Y-14921908D01*
X4088293Y-14921908D02*
X4097816Y-14940955D01*
X4097816Y-14940955D02*
X4097816Y-15045717D01*
X4193054Y-15045717D02*
X4193054Y-14912384D01*
X4193054Y-14931432D02*
X4202578Y-14921908D01*
X4202578Y-14921908D02*
X4221626Y-14912384D01*
X4221626Y-14912384D02*
X4250197Y-14912384D01*
X4250197Y-14912384D02*
X4269245Y-14921908D01*
X4269245Y-14921908D02*
X4278769Y-14940955D01*
X4278769Y-14940955D02*
X4278769Y-15045717D01*
X4278769Y-14940955D02*
X4288293Y-14921908D01*
X4288293Y-14921908D02*
X4307340Y-14912384D01*
X4307340Y-14912384D02*
X4335912Y-14912384D01*
X4335912Y-14912384D02*
X4354959Y-14921908D01*
X4354959Y-14921908D02*
X4364483Y-14940955D01*
X4364483Y-14940955D02*
X4364483Y-15045717D01*
X4754959Y-14836194D02*
X4583531Y-15093336D01*
X5012102Y-14845717D02*
X5031150Y-14845717D01*
X5031150Y-14845717D02*
X5050198Y-14855241D01*
X5050198Y-14855241D02*
X5059721Y-14864765D01*
X5059721Y-14864765D02*
X5069245Y-14883813D01*
X5069245Y-14883813D02*
X5078769Y-14921908D01*
X5078769Y-14921908D02*
X5078769Y-14969527D01*
X5078769Y-14969527D02*
X5069245Y-15007622D01*
X5069245Y-15007622D02*
X5059721Y-15026670D01*
X5059721Y-15026670D02*
X5050198Y-15036194D01*
X5050198Y-15036194D02*
X5031150Y-15045717D01*
X5031150Y-15045717D02*
X5012102Y-15045717D01*
X5012102Y-15045717D02*
X4993055Y-15036194D01*
X4993055Y-15036194D02*
X4983531Y-15026670D01*
X4983531Y-15026670D02*
X4974007Y-15007622D01*
X4974007Y-15007622D02*
X4964483Y-14969527D01*
X4964483Y-14969527D02*
X4964483Y-14921908D01*
X4964483Y-14921908D02*
X4974007Y-14883813D01*
X4974007Y-14883813D02*
X4983531Y-14864765D01*
X4983531Y-14864765D02*
X4993055Y-14855241D01*
X4993055Y-14855241D02*
X5012102Y-14845717D01*
X5164483Y-15026670D02*
X5174007Y-15036194D01*
X5174007Y-15036194D02*
X5164483Y-15045717D01*
X5164483Y-15045717D02*
X5154959Y-15036194D01*
X5154959Y-15036194D02*
X5164483Y-15026670D01*
X5164483Y-15026670D02*
X5164483Y-15045717D01*
X5297817Y-14845717D02*
X5316864Y-14845717D01*
X5316864Y-14845717D02*
X5335912Y-14855241D01*
X5335912Y-14855241D02*
X5345436Y-14864765D01*
X5345436Y-14864765D02*
X5354959Y-14883813D01*
X5354959Y-14883813D02*
X5364483Y-14921908D01*
X5364483Y-14921908D02*
X5364483Y-14969527D01*
X5364483Y-14969527D02*
X5354959Y-15007622D01*
X5354959Y-15007622D02*
X5345436Y-15026670D01*
X5345436Y-15026670D02*
X5335912Y-15036194D01*
X5335912Y-15036194D02*
X5316864Y-15045717D01*
X5316864Y-15045717D02*
X5297817Y-15045717D01*
X5297817Y-15045717D02*
X5278769Y-15036194D01*
X5278769Y-15036194D02*
X5269245Y-15026670D01*
X5269245Y-15026670D02*
X5259721Y-15007622D01*
X5259721Y-15007622D02*
X5250198Y-14969527D01*
X5250198Y-14969527D02*
X5250198Y-14921908D01*
X5250198Y-14921908D02*
X5259721Y-14883813D01*
X5259721Y-14883813D02*
X5269245Y-14864765D01*
X5269245Y-14864765D02*
X5278769Y-14855241D01*
X5278769Y-14855241D02*
X5297817Y-14845717D01*
X5535912Y-14912384D02*
X5535912Y-15045717D01*
X5488293Y-14836194D02*
X5440674Y-14979051D01*
X5440674Y-14979051D02*
X5564483Y-14979051D01*
X5621626Y-14845717D02*
X5745436Y-14845717D01*
X5745436Y-14845717D02*
X5678769Y-14921908D01*
X5678769Y-14921908D02*
X5707340Y-14921908D01*
X5707340Y-14921908D02*
X5726388Y-14931432D01*
X5726388Y-14931432D02*
X5735912Y-14940955D01*
X5735912Y-14940955D02*
X5745436Y-14960003D01*
X5745436Y-14960003D02*
X5745436Y-15007622D01*
X5745436Y-15007622D02*
X5735912Y-15026670D01*
X5735912Y-15026670D02*
X5726388Y-15036194D01*
X5726388Y-15036194D02*
X5707340Y-15045717D01*
X5707340Y-15045717D02*
X5650197Y-15045717D01*
X5650197Y-15045717D02*
X5631150Y-15036194D01*
X5631150Y-15036194D02*
X5621626Y-15026670D01*
X5869245Y-14845717D02*
X5888293Y-14845717D01*
X5888293Y-14845717D02*
X5907340Y-14855241D01*
X5907340Y-14855241D02*
X5916864Y-14864765D01*
X5916864Y-14864765D02*
X5926388Y-14883813D01*
X5926388Y-14883813D02*
X5935912Y-14921908D01*
X5935912Y-14921908D02*
X5935912Y-14969527D01*
X5935912Y-14969527D02*
X5926388Y-15007622D01*
X5926388Y-15007622D02*
X5916864Y-15026670D01*
X5916864Y-15026670D02*
X5907340Y-15036194D01*
X5907340Y-15036194D02*
X5888293Y-15045717D01*
X5888293Y-15045717D02*
X5869245Y-15045717D01*
X5869245Y-15045717D02*
X5850197Y-15036194D01*
X5850197Y-15036194D02*
X5840674Y-15026670D01*
X5840674Y-15026670D02*
X5831150Y-15007622D01*
X5831150Y-15007622D02*
X5821626Y-14969527D01*
X5821626Y-14969527D02*
X5821626Y-14921908D01*
X5821626Y-14921908D02*
X5831150Y-14883813D01*
X5831150Y-14883813D02*
X5840674Y-14864765D01*
X5840674Y-14864765D02*
X5850197Y-14855241D01*
X5850197Y-14855241D02*
X5869245Y-14845717D01*
X6012102Y-14845717D02*
X6012102Y-14883813D01*
X6088293Y-14845717D02*
X6088293Y-14883813D01*
X6383531Y-15121908D02*
X6374007Y-15112384D01*
X6374007Y-15112384D02*
X6354959Y-15083813D01*
X6354959Y-15083813D02*
X6345436Y-15064765D01*
X6345436Y-15064765D02*
X6335912Y-15036194D01*
X6335912Y-15036194D02*
X6326388Y-14988574D01*
X6326388Y-14988574D02*
X6326388Y-14950479D01*
X6326388Y-14950479D02*
X6335912Y-14902860D01*
X6335912Y-14902860D02*
X6345436Y-14874289D01*
X6345436Y-14874289D02*
X6354959Y-14855241D01*
X6354959Y-14855241D02*
X6374007Y-14826670D01*
X6374007Y-14826670D02*
X6383531Y-14817146D01*
X6554959Y-14845717D02*
X6459721Y-14845717D01*
X6459721Y-14845717D02*
X6450198Y-14940955D01*
X6450198Y-14940955D02*
X6459721Y-14931432D01*
X6459721Y-14931432D02*
X6478769Y-14921908D01*
X6478769Y-14921908D02*
X6526388Y-14921908D01*
X6526388Y-14921908D02*
X6545436Y-14931432D01*
X6545436Y-14931432D02*
X6554959Y-14940955D01*
X6554959Y-14940955D02*
X6564483Y-14960003D01*
X6564483Y-14960003D02*
X6564483Y-15007622D01*
X6564483Y-15007622D02*
X6554959Y-15026670D01*
X6554959Y-15026670D02*
X6545436Y-15036194D01*
X6545436Y-15036194D02*
X6526388Y-15045717D01*
X6526388Y-15045717D02*
X6478769Y-15045717D01*
X6478769Y-15045717D02*
X6459721Y-15036194D01*
X6459721Y-15036194D02*
X6450198Y-15026670D01*
X6678769Y-14931432D02*
X6659721Y-14921908D01*
X6659721Y-14921908D02*
X6650198Y-14912384D01*
X6650198Y-14912384D02*
X6640674Y-14893336D01*
X6640674Y-14893336D02*
X6640674Y-14883813D01*
X6640674Y-14883813D02*
X6650198Y-14864765D01*
X6650198Y-14864765D02*
X6659721Y-14855241D01*
X6659721Y-14855241D02*
X6678769Y-14845717D01*
X6678769Y-14845717D02*
X6716864Y-14845717D01*
X6716864Y-14845717D02*
X6735912Y-14855241D01*
X6735912Y-14855241D02*
X6745436Y-14864765D01*
X6745436Y-14864765D02*
X6754959Y-14883813D01*
X6754959Y-14883813D02*
X6754959Y-14893336D01*
X6754959Y-14893336D02*
X6745436Y-14912384D01*
X6745436Y-14912384D02*
X6735912Y-14921908D01*
X6735912Y-14921908D02*
X6716864Y-14931432D01*
X6716864Y-14931432D02*
X6678769Y-14931432D01*
X6678769Y-14931432D02*
X6659721Y-14940955D01*
X6659721Y-14940955D02*
X6650198Y-14950479D01*
X6650198Y-14950479D02*
X6640674Y-14969527D01*
X6640674Y-14969527D02*
X6640674Y-15007622D01*
X6640674Y-15007622D02*
X6650198Y-15026670D01*
X6650198Y-15026670D02*
X6659721Y-15036194D01*
X6659721Y-15036194D02*
X6678769Y-15045717D01*
X6678769Y-15045717D02*
X6716864Y-15045717D01*
X6716864Y-15045717D02*
X6735912Y-15036194D01*
X6735912Y-15036194D02*
X6745436Y-15026670D01*
X6745436Y-15026670D02*
X6754959Y-15007622D01*
X6754959Y-15007622D02*
X6754959Y-14969527D01*
X6754959Y-14969527D02*
X6745436Y-14950479D01*
X6745436Y-14950479D02*
X6735912Y-14940955D01*
X6735912Y-14940955D02*
X6716864Y-14931432D01*
X6993055Y-15045717D02*
X6993055Y-14845717D01*
X7078769Y-15045717D02*
X7078769Y-14940955D01*
X7078769Y-14940955D02*
X7069245Y-14921908D01*
X7069245Y-14921908D02*
X7050198Y-14912384D01*
X7050198Y-14912384D02*
X7021626Y-14912384D01*
X7021626Y-14912384D02*
X7002579Y-14921908D01*
X7002579Y-14921908D02*
X6993055Y-14931432D01*
X7202579Y-15045717D02*
X7183531Y-15036194D01*
X7183531Y-15036194D02*
X7174007Y-15026670D01*
X7174007Y-15026670D02*
X7164483Y-15007622D01*
X7164483Y-15007622D02*
X7164483Y-14950479D01*
X7164483Y-14950479D02*
X7174007Y-14931432D01*
X7174007Y-14931432D02*
X7183531Y-14921908D01*
X7183531Y-14921908D02*
X7202579Y-14912384D01*
X7202579Y-14912384D02*
X7231150Y-14912384D01*
X7231150Y-14912384D02*
X7250198Y-14921908D01*
X7250198Y-14921908D02*
X7259721Y-14931432D01*
X7259721Y-14931432D02*
X7269245Y-14950479D01*
X7269245Y-14950479D02*
X7269245Y-15007622D01*
X7269245Y-15007622D02*
X7259721Y-15026670D01*
X7259721Y-15026670D02*
X7250198Y-15036194D01*
X7250198Y-15036194D02*
X7231150Y-15045717D01*
X7231150Y-15045717D02*
X7202579Y-15045717D01*
X7383531Y-15045717D02*
X7364483Y-15036194D01*
X7364483Y-15036194D02*
X7354960Y-15017146D01*
X7354960Y-15017146D02*
X7354960Y-14845717D01*
X7535912Y-15036194D02*
X7516864Y-15045717D01*
X7516864Y-15045717D02*
X7478769Y-15045717D01*
X7478769Y-15045717D02*
X7459721Y-15036194D01*
X7459721Y-15036194D02*
X7450198Y-15017146D01*
X7450198Y-15017146D02*
X7450198Y-14940955D01*
X7450198Y-14940955D02*
X7459721Y-14921908D01*
X7459721Y-14921908D02*
X7478769Y-14912384D01*
X7478769Y-14912384D02*
X7516864Y-14912384D01*
X7516864Y-14912384D02*
X7535912Y-14921908D01*
X7535912Y-14921908D02*
X7545436Y-14940955D01*
X7545436Y-14940955D02*
X7545436Y-14960003D01*
X7545436Y-14960003D02*
X7450198Y-14979051D01*
X7621626Y-15036194D02*
X7640674Y-15045717D01*
X7640674Y-15045717D02*
X7678769Y-15045717D01*
X7678769Y-15045717D02*
X7697817Y-15036194D01*
X7697817Y-15036194D02*
X7707341Y-15017146D01*
X7707341Y-15017146D02*
X7707341Y-15007622D01*
X7707341Y-15007622D02*
X7697817Y-14988574D01*
X7697817Y-14988574D02*
X7678769Y-14979051D01*
X7678769Y-14979051D02*
X7650198Y-14979051D01*
X7650198Y-14979051D02*
X7631150Y-14969527D01*
X7631150Y-14969527D02*
X7621626Y-14950479D01*
X7621626Y-14950479D02*
X7621626Y-14940955D01*
X7621626Y-14940955D02*
X7631150Y-14921908D01*
X7631150Y-14921908D02*
X7650198Y-14912384D01*
X7650198Y-14912384D02*
X7678769Y-14912384D01*
X7678769Y-14912384D02*
X7697817Y-14921908D01*
X7774007Y-15121908D02*
X7783531Y-15112384D01*
X7783531Y-15112384D02*
X7802579Y-15083813D01*
X7802579Y-15083813D02*
X7812102Y-15064765D01*
X7812102Y-15064765D02*
X7821626Y-15036194D01*
X7821626Y-15036194D02*
X7831150Y-14988574D01*
X7831150Y-14988574D02*
X7831150Y-14950479D01*
X7831150Y-14950479D02*
X7821626Y-14902860D01*
X7821626Y-14902860D02*
X7812102Y-14874289D01*
X7812102Y-14874289D02*
X7802579Y-14855241D01*
X7802579Y-14855241D02*
X7783531Y-14826670D01*
X7783531Y-14826670D02*
X7774007Y-14817146D01*
M02*
